<?xml version="1.0" encoding="UTF-8"?>
<svg width="162px" height="108px" viewBox="0 0 162 108" version="1.1" xmlns="http://www.w3.org/2000/svg" xmlns:xlink="http://www.w3.org/1999/xlink">
    <!-- Generator: sketchtool 51.2 (57519) - http://www.bohemiancoding.com/sketch -->
    <title>E7A96AC2-0C42-466D-BE54-A637D93D8398</title>
    <desc>Created with sketchtool.</desc>
    <defs>
        <polygon id="path-1" points="0.0981238938 6.14564068 1.4780885 7.36791176 4.84700885 5.93042157 7.99631858 5.80495098 6.54860177 3.63709804 4.74966372 2.65037255 4.74966372 1.97809804 2.76888898 0.516520588 0.0981238938 0.516520588 0.0981238938 6.14564068"></polygon>
        <polygon id="path-3" points="0.444127434 4.98782612 2.25684956 6.59340196 5.62576991 5.15591176 8.77507965 5.03044118 7.32736283 2.86258824 5.52842478 1.87586275 5.52842478 1.20358824 4.92540688 0.758632353 0.444127434 0.758632353 0.444127434 4.98782612"></polygon>
        <polygon id="path-5" points="10.1013097 2.80650625 2.75058407 0.383382353 0.571610619 0.240098039 4.83562077 4.73062843 10.1013097 4.73062843 10.1013097 2.80650625"></polygon>
        <polygon id="path-7" points="5.54682563 5.74725 5.67483186 5.61442157 0.571610619 0.240098039 2.75058407 0.383382353 9.66855221 2.66385026 9.66855221 5.74725 5.54682563 5.74725"></polygon>
        <polygon id="path-9" points="6.10822969 6.76449118 5.06428319 6.24797059 5.67483186 5.61442157 0.571610619 0.240098039 2.75058407 0.383382353 9.23563894 2.52114292 9.23563894 6.76449118 6.10822969 6.76449118"></polygon>
    </defs>
    <g id="Illustrations" stroke="none" stroke-width="1" fill="none" fill-rule="evenodd">
        <g id="Illustrations/card/c3">
            <g id="gjenstander/-ovenfra/-hender-sjekkliste" transform="translate(37.000000, 25.000000)">
                <path d="M63.2963752,5.74051176 L24.5818265,5.74051176 C22.9845876,5.74051176 21.6902867,7.02774706 21.6902867,8.61549216 L21.6902867,57.185002 C21.6902867,57.4831882 21.7354549,57.7697569 21.8203398,58.0400608 C21.9605168,58.490051 22.2097204,58.8927961 22.5368,59.2180902 C22.6022159,59.283149 22.6707469,59.3451098 22.7423929,59.4039725 C23.1707115,59.7556 23.7026053,59.9871784 24.2858973,60.0460412 C24.3832425,60.0553353 24.4813664,60.0607569 24.5818265,60.0607569 L63.2963752,60.0607569 C64.8936142,60.0607569 66.187915,58.7735216 66.187915,57.185002 L66.187915,8.61549216 C66.187915,7.02774706 64.8936142,5.74051176 63.2963752,5.74051176" id="Fill-5" fill="#585B5C" fill-rule="evenodd"></path>
                <path d="M25.2732106,16.3560206 L25.2732106,53.7261186 C25.2732106,55.0582755 26.3595823,56.1387167 27.6990513,56.1387167 L60.1788389,56.1387167 C61.518308,56.1387167 62.6046796,55.0582755 62.6046796,53.7261186 L62.6046796,10.820599 C62.6046796,9.48766765 61.518308,8.40800098 60.1788389,8.40800098 L33.7149805,8.40800098 L25.2732106,16.3560206 Z" id="Fill-6" fill="#FFFFFF" fill-rule="evenodd"></path>
                <path d="M33.715292,8.40784608 L33.715292,13.9432676 C33.715292,15.276199 32.6289204,16.3558657 31.2894513,16.3558657 L25.2735221,16.3558657 L33.715292,8.40784608 Z" id="Fill-7" fill="#CCCAC8" fill-rule="evenodd"></path>
                <polygon id="Fill-8" fill="#CCCAC8" fill-rule="evenodd" points="37.6562124 28.8535882 55.6829735 28.8535882 55.6829735 26.8514804 37.6562124 26.8514804"></polygon>
                <polygon id="Fill-9" fill="#CCCAC8" fill-rule="evenodd" points="37.6562124 33.3844706 55.6829735 33.3844706 55.6829735 31.3831373 37.6562124 31.3831373"></polygon>
                <polygon id="Fill-10" fill="#CCCAC8" fill-rule="evenodd" points="37.6562124 37.9153529 55.6829735 37.9153529 55.6829735 35.9132451 37.6562124 35.9132451"></polygon>
                <polygon id="Fill-11" fill="#CCCAC8" fill-rule="evenodd" points="37.6562124 42.4454608 55.6829735 42.4454608 55.6829735 40.4441275 37.6562124 40.4441275"></polygon>
                <polygon id="Fill-12" fill="#CCCAC8" fill-rule="evenodd" points="32.7289912 28.8535882 34.8565664 28.8535882 34.8565664 26.8514804 32.7289912 26.8514804"></polygon>
                <polygon id="Fill-13" fill="#CCCAC8" fill-rule="evenodd" points="32.7289912 33.3844706 34.8565664 33.3844706 34.8565664 31.3831373 32.7289912 31.3831373"></polygon>
                <polygon id="Fill-14" fill="#CCCAC8" fill-rule="evenodd" points="32.7289912 37.9153529 34.8565664 37.9153529 34.8565664 35.9132451 32.7289912 35.9132451"></polygon>
                <polygon id="Fill-15" fill="#CCCAC8" fill-rule="evenodd" points="32.7289912 42.4454608 34.8565664 42.4454608 34.8565664 40.4441275 32.7289912 40.4441275"></polygon>
                <polyline id="Stroke-16" stroke="#8DC63F" stroke-width="1" points="32.4585274 26.333101 33.8252531 27.8875422 35.7526867 25.4145324"></polyline>
                <path d="M43.9387894,7.09102451 C43.4224708,7.09102451 43.0042761,6.67433824 43.0042761,6.16161275 C43.0042761,5.64811275 43.4224708,5.23220098 43.9387894,5.23220098 C44.455108,5.23220098 44.8733027,5.64811275 44.8733027,6.16161275 C44.8733027,6.67433824 44.455108,7.09102451 43.9387894,7.09102451 M49.718754,3.28818137 L46.2361345,3.28818137 L46.2361345,2.64998529 C46.2361345,1.38753431 45.2073912,0.365181373 43.9387894,0.365181373 C42.6701876,0.365181373 41.642223,1.38753431 41.642223,2.64998529 L41.642223,3.28818137 L38.1596035,3.28818137 C36.4424354,3.28818137 35.0500106,4.67223039 35.0500106,6.38002451 L35.0500106,10.0992206 L52.8275681,10.0992206 L52.8275681,6.38002451 C52.8275681,4.67223039 51.4359221,3.28818137 49.718754,3.28818137" id="Fill-17" fill="#37363A" fill-rule="evenodd"></path>
                <polygon id="Fill-18" fill="#BDD1D0" fill-rule="evenodd" points="5.85519292 63.3356167 19.8066973 68.2367147 16.102131 78.6662637 0.132856637 78.6662637"></polygon>
                <polygon id="Fill-19" fill="#6E9DAA" fill-rule="evenodd" points="5.85519292 63.3356167 19.8066973 68.2367147 18.318485 72.4260382 4.36698053 67.5249402"></polygon>
                <path d="M6.556,65.9722804 C6.72888496,65.4858882 7.26545133,65.2310745 7.75373451,65.4030157 C8.24279646,65.5741824 8.49900885,66.1078196 8.32612389,66.5942118 C8.1540177,67.0806039 7.61745133,67.3354176 7.12838938,67.1634765 C6.63932743,66.9915353 6.38311504,66.457898 6.556,65.9722804" id="Fill-20" fill="#37363A" fill-rule="evenodd"></path>
                <polygon id="Fill-21" fill="#BDD1D0" fill-rule="evenodd" points="82.025423 63.3356167 68.0739186 68.2367147 71.778485 78.6662637 87.7477593 78.6662637"></polygon>
                <polygon id="Fill-22" fill="#6E9DAA" fill-rule="evenodd" points="82.025423 63.3356167 68.0739186 68.2367147 69.562131 72.4260382 83.5136354 67.5249402"></polygon>
                <path d="M81.3246159,65.9722804 C81.151731,65.4858882 80.6151646,65.2310745 80.1261027,65.4030157 C79.6378195,65.5741824 79.3816071,66.1078196 79.554492,66.5942118 C79.7265982,67.0806039 80.2631646,67.3354176 80.7522265,67.1634765 C81.2412885,66.9915353 81.4975009,66.457898 81.3246159,65.9722804" id="Fill-23" fill="#37363A" fill-rule="evenodd"></path>
                <path d="M16.7958513,59.4275176 L17.0162407,59.5862922 C18.0613381,60.3367922 19.5199575,60.1044392 20.274577,59.0650471 L28.0255858,48.4046941 C28.7809841,47.3660765 28.546577,45.9146451 27.5022584,45.1633706 L27.2810903,45.0053706 C26.2375504,44.2540961 24.7781522,44.4872235 24.022754,45.5258412 L16.2725239,56.1869686 C15.5171257,57.2255863 15.7515327,58.6762431 16.7958513,59.4275176" id="Fill-24" fill="#E7E6E2" fill-rule="evenodd"></path>
                <path d="M21.2459257,49.3456461 L21.2459257,49.0211265 L21.2459257,41.2070971 L20.5403681,41.2070971 C20.3838372,41.2070971 20.2350938,41.2690578 20.126846,41.3821363 C18.9555894,42.5981167 12.044085,49.7793716 10.8050761,51.1378618 C10.671908,51.2842441 10.5745628,51.4577343 10.5192708,51.6474892 L6.99070442,63.7344892 L17.7142442,67.5017049 C17.7142442,67.5017049 17.8863504,66.7024108 18.0584566,65.7892637 C18.2305628,64.8768912 20.6478372,62.0251461 21.2459257,60.5992735 C21.8440142,59.173401 22.0566159,56.6144206 22.9825628,55.340352 C23.9092885,54.0662833 21.2459257,49.3456461 21.2459257,49.3456461" id="Fill-25" fill="#E7E6E2" fill-rule="evenodd"></path>
                <g id="Group-52" stroke-width="1" fill-rule="evenodd" transform="translate(47.504425, 39.005863)">
                    <g id="Group-29" transform="translate(23.362832, 8.519608)" fill="#C5232A">
                        <path d="M0.753295575,3.02957255 L1.67145487,0.872562745 C1.77658761,0.625494118 2.06239292,0.510092157 2.3108177,0.61465098 L3.49609204,1.1142098 C3.74451681,1.21876863 3.86055221,1.50301373 3.75541947,1.75008235 L2.83726018,3.90709216 C2.73212743,4.15338627 2.44632212,4.26878824 2.19789735,4.16422941 L1.01262301,3.6654451 C0.76419823,3.56088627 0.648162832,3.27586667 0.753295575,3.02957255" id="Fill-27"></path>
                    </g>
                    <polygon id="Fill-30" fill="#E9D8BD" points="4.89498053 0.386480392 0.625812389 0.387254902 3.59678584 3.4365 4.69639646 2.0299902"></polygon>
                    <g id="Group-34" transform="translate(4.672566, 0.000000)">
                        <mask id="mask-2" fill="white">
                            <use xlink:href="#path-1"></use>
                        </mask>
                        <g id="Clip-33"></g>
                        <polygon id="Fill-32" fill="#EEC85D" mask="url(#mask-2)" points="20.5709735 10.1521971 21.0039646 9.1360402 0.531115044 0.516520588 0.0981238938 1.53345196"></polygon>
                    </g>
                    <g id="Group-37" transform="translate(3.893805, 0.774510)">
                        <mask id="mask-4" fill="white">
                            <use xlink:href="#path-3"></use>
                        </mask>
                        <g id="Clip-36"></g>
                        <polygon id="Fill-35" fill="#E2B954" mask="url(#mask-4)" points="0.444127434 1.77556373 20.916977 10.3943088 21.3499681 9.37737745 0.877118584 0.758632353"></polygon>
                    </g>
                    <g id="Group-40" transform="translate(3.893805, 2.323529)" fill="#EEC85D">
                        <polygon id="Fill-38" points="20.9170549 8.84559902 0.44420531 0.226853922 0.0112141593 1.24378529 20.4840637 9.86253039"></polygon>
                    </g>
                    <path d="M4.53488142,0.627043137 C4.4531115,0.819121569 4.6431292,1.04915098 4.53410265,1.30551373 C4.51696991,1.34656275 4.49360708,1.37831765 4.46790796,1.40542549 L4.77084602,1.53321961 L5.20383717,0.516288235 L4.9211469,0.397013725 C4.9211469,0.397013725 4.61665133,0.434964706 4.53488142,0.627043137" id="Fill-41" fill="#EEC85D"></path>
                    <path d="M4.46759646,1.40534804 C4.3328708,1.5447598 4.10391504,1.53314216 3.98865841,1.80344608 C3.87340177,2.07375 4.04161416,2.22865196 4.03460531,2.42227941 L4.33754336,2.55007353 L4.77131327,1.53314216 L4.46759646,1.40534804 Z" id="Fill-43" fill="#E2B954"></path>
                    <path d="M4.03491681,2.42220196 C4.03413805,2.45937843 4.02635044,2.49810392 4.0092177,2.53915294 C3.90019115,2.79551569 3.6011469,2.8203 3.51937699,3.01237843 C3.43760708,3.20368235 3.62217345,3.44765294 3.62217345,3.44765294 L3.90486372,3.56692745 L4.33785487,2.54999608 L4.03491681,2.42220196 Z" id="Fill-45" fill="#EEC85D"></path>
                    <polygon id="Fill-47" fill="#5C5B5A" points="0.625500885 0.387642157 1.67682832 1.46653431 2.13629735 0.387642157"></polygon>
                    <g id="Group-51" transform="translate(24.141593, 8.519608)" fill="#5C5B5A">
                        <polygon id="Fill-49" points="0.236120354 3.66645196 1.53431504 0.616432353 1.95173097 0.791471569 0.653536283 3.84226569"></polygon>
                    </g>
                </g>
                <g id="Group-65" stroke-width="1" fill-rule="evenodd" transform="translate(55.292035, 39.005863)" fill="#E7E6E2">
                    <path d="M3.85237522,13.9074853 L3.86561416,14.1398382 C3.92947257,15.2396422 4.87722478,16.0807598 5.98384425,16.01725 L13.1554549,15.6083088 C14.2620743,15.544799 15.1070301,14.6022206 15.0439504,13.5024167 L15.0307115,13.2700637 C14.9668531,12.1694853 14.0183221,11.3283676 12.9124814,11.3918775 L5.74009204,11.8008186 C4.63425133,11.8643284 3.78851681,12.8076814 3.85237522,13.9074853" id="Fill-53"></path>
                    <path d="M2.36135929,10.8419755 L2.37459823,11.0743284 C2.43845664,12.1741324 3.38620885,13.01525 4.49204956,12.9525147 L11.6644389,12.542799 C12.7702796,12.4800637 13.6160142,11.5367108 13.5529345,10.4369069 L13.5389168,10.2045539 C13.4750584,9.10397549 12.5273062,8.26363235 11.4214655,8.32636765 L4.24907611,8.73608333 C3.1432354,8.79881863 2.29750088,9.74217157 2.36135929,10.8419755" id="Fill-55"></path>
                    <path d="M0.525897345,7.83811667 L0.539915044,8.07046961 C0.60299469,9.17027353 1.5507469,10.0113912 2.65736637,9.94865588 L9.82897699,9.5389402 C10.9355965,9.4762049 11.7805522,8.53285196 11.7174726,7.43304804 L11.7042336,7.2006951 C11.6403752,6.10011667 10.692623,5.25977353 9.58600354,5.32250882 L2.41439292,5.73222451 C1.30777345,5.7949598 0.462817699,6.73831275 0.525897345,7.83811667" id="Fill-57"></path>
                    <path d="M1.67503717,2.39462941 L1.63220531,2.6231098 C1.42816991,3.70664902 2.14540885,4.74913922 3.23411681,4.95206078 L10.2951434,6.26795294 C11.3846301,6.47087451 12.4320637,5.75755098 12.6368779,4.67401176 L12.6797097,4.44553137 C12.8837451,3.36276667 12.1665062,2.32027647 11.0777982,2.1173549 L4.01677168,0.800688235 C2.92728496,0.597766667 1.87907257,1.31186471 1.67503717,2.39462941" id="Fill-59"></path>
                    <path d="M6.12970619,7.67399804 L3.43285664,3.63725294 L1.63547611,2.65052745 L11.6308743,2.34072353 C11.7842903,2.37325294 22.817777,10.3499294 23.7460602,11.9345765 C23.8457416,12.1049686 23.9049274,12.295498 23.9189451,12.4922235 L24.8472283,25.0447039 L14.3059186,28.6624392 C14.3059186,28.6624392 14.1602903,27.8244196 13.9632637,26.9166941 C13.7109451,25.7541549 11.8442549,20.5517725 11.556892,19.0337333 C11.270308,17.5156941 10.3389097,15.4725373 9.21905133,14.3634392 C7.75420177,12.9127824 6.12970619,7.67399804 6.12970619,7.67399804" id="Fill-61"></path>
                    <path d="M15.2033628,17.0138892 L15.3957168,16.8218108 C16.304531,15.9140853 16.3014159,14.4448402 15.3879292,13.5402127 L6.01476106,4.25771275 C5.10127434,3.35308529 3.62318584,3.35618333 2.71359292,4.26468333 L2.5220177,4.45676176 C1.61242478,5.36448725 1.61631858,6.83450686 2.52902655,7.7383598 L11.9029735,17.0208598 C12.8164602,17.9254873 14.2937699,17.9223892 15.2033628,17.0138892" id="Fill-63"></path>
                </g>
                <g id="Group-94" stroke-width="1" fill-rule="evenodd" transform="translate(47.504425, 39.005863)">
                    <path d="M24.1161274,11.5491804 L25.0342867,9.39217059 C25.1394195,9.14510196 25.4252248,9.0297 25.6736496,9.13425882 L26.8589239,9.63381765 C27.1073487,9.73837647 27.2233841,10.0226216 27.1182513,10.2696902 L26.200092,12.4267 C26.0949593,12.6729941 25.809154,12.7883961 25.5607292,12.6838373 L24.3754549,12.1850529 C24.1270301,12.0804941 24.0109947,11.7954745 24.1161274,11.5491804" id="Fill-66" fill="#C5232A"></path>
                    <g id="Group-70" fill="#E9D8BD">
                        <polygon id="Fill-68" points="4.89498053 0.386480392 0.625812389 0.387254902 3.59678584 3.4365 4.69639646 2.0299902"></polygon>
                    </g>
                    <g id="Group-73" transform="translate(15.575221, 5.421569)">
                        <mask id="mask-6" fill="white">
                            <use xlink:href="#path-5"></use>
                        </mask>
                        <g id="Clip-72"></g>
                        <polygon id="Fill-71" fill="#EEC85D" mask="url(#mask-6)" points="9.66831858 4.73062843 10.1013097 3.71447157 -10.3715398 -4.90504804 -10.804531 -3.88811667"></polygon>
                    </g>
                    <g id="Group-76" transform="translate(15.575221, 5.421569)">
                        <mask id="mask-8" fill="white">
                            <use xlink:href="#path-7"></use>
                        </mask>
                        <g id="Clip-75"></g>
                        <polygon id="Fill-74" fill="#E2B954" mask="url(#mask-8)" points="-11.2372885 -2.8714951 9.23556106 5.74725 9.66855221 4.73031863 -10.8042973 -3.88842647"></polygon>
                    </g>
                    <g id="Group-79" transform="translate(15.575221, 5.421569)">
                        <mask id="mask-10" fill="white">
                            <use xlink:href="#path-9"></use>
                        </mask>
                        <g id="Clip-78"></g>
                        <polygon id="Fill-77" fill="#EEC85D" mask="url(#mask-10)" points="9.23563894 5.7475598 -11.2372106 -2.87118529 -11.6702018 -1.85425392 8.80264779 6.76449118"></polygon>
                    </g>
                    <g id="Group-82" transform="translate(3.893805, 0.000000)" fill="#EEC85D">
                        <path d="M0.641076106,0.627043137 C0.559306195,0.819121569 0.749323894,1.04915098 0.640297345,1.30551373 C0.623164602,1.34656275 0.59980177,1.37831765 0.574102655,1.40542549 L0.877040708,1.53321961 L1.31003186,0.516288235 L1.02734159,0.397013725 C1.02734159,0.397013725 0.722846018,0.434964706 0.641076106,0.627043137" id="Fill-80"></path>
                    </g>
                    <g id="Group-85" transform="translate(3.893805, 0.774510)" fill="#E2B954">
                        <path d="M0.57379115,0.630838235 C0.439065487,0.77025 0.210109735,0.758632353 0.0948530973,1.02893627 C-0.0204035398,1.2992402 0.14780885,1.45414216 0.1408,1.64776961 L0.443738053,1.77556373 L0.877507965,0.758632353 L0.57379115,0.630838235 Z" id="Fill-83"></path>
                    </g>
                    <g id="Group-88" transform="translate(3.115044, 2.323529)" fill="#EEC85D">
                        <path d="M0.919872566,0.098672549 C0.919093805,0.13584902 0.911306195,0.17457451 0.894173451,0.215623529 C0.785146903,0.471986275 0.486102655,0.496770588 0.404332743,0.68884902 C0.322562832,0.880152941 0.507129204,1.12412353 0.507129204,1.12412353 L0.789819469,1.24339804 L1.22281062,0.226466667 L0.919872566,0.098672549 Z" id="Fill-86"></path>
                    </g>
                    <g id="Group-91" fill="#5C5B5A">
                        <polygon id="Fill-89" points="0.625500885 0.387642157 1.67682832 1.46653431 2.13629735 0.387642157"></polygon>
                    </g>
                    <polygon id="Fill-92" fill="#5C5B5A" points="24.3777133 12.1860598 25.675908 9.1360402 26.0933239 9.31107941 24.7951292 12.3618735"></polygon>
                </g>
            </g>
            <g id="gjenstander/-ovenfra/-kop" transform="translate(122.000000, 39.000000)">
                <path d="M25.9619106,19.5082974 L21.8451447,17.9104026 C21.0528894,17.6035342 20.6610809,16.7156132 20.9745277,15.9384553 L21.3971872,14.8907447 C21.710017,14.1135868 22.6151872,13.7292447 23.4074426,14.0367184 L27.5242085,15.6340079 C28.3164638,15.9414816 28.7088894,16.8294026 28.3948255,17.6065605 L27.972783,18.6542711 C27.6593362,19.4314289 26.754166,19.8157711 25.9619106,19.5082974 Z" id="Fill-297" fill="#C1C0B9"></path>
                <path d="M22.9340021,15.5646447 C20.7337043,21.4405395 14.0933213,24.45475 8.10327872,22.2957763 C2.11261915,20.1374079 -0.959529787,13.6235658 1.24138511,7.74767105 C3.44168298,1.87177632 10.0814489,-1.14243421 16.0721085,1.01653947 C22.0621511,3.17490789 25.1343,9.68875 22.9340021,15.5646447" id="Fill-299" fill="#C1C0B9"></path>
                <path d="M20.4237745,14.6603211 C18.7331362,19.1767947 13.6291362,21.4931368 9.0249234,19.8341105 C4.42071064,18.1750842 2.05937021,13.1689526 3.75124255,8.65187368 C5.44249787,4.1354 10.5458809,1.81966316 15.1500936,3.47868947 C19.7543064,5.13771579 22.1150298,10.1438474 20.4237745,14.6603211" id="Fill-301" fill="#2D2623"></path>
                <path d="M11.787883,2.05498947 L11.816266,2.94593684 L11.787883,2.05498947 L11.787266,2.05498947 C7.77230851,2.17725263 4.28305319,4.64612105 2.89784043,8.34488421 C1.03628723,13.3153053 3.64505319,18.8443842 8.71203191,20.6704632 C9.89794681,21.0977789 11.1344574,21.2957 12.3876277,21.2575684 C16.4025851,21.1353053 19.8918404,18.6664368 21.2770532,14.9676737 C23.1386064,9.99725263 20.5304574,4.46756842 15.4634787,2.64209474 C14.2769468,2.21477895 13.0404362,2.01746316 11.787883,2.05498947 M11.8156489,2.94593684 C12.920117,2.91264737 14.0486489,3.08151579 15.1500319,3.47856842 C19.7542447,5.13759474 22.1149681,10.1437263 20.4243298,14.6602 C19.1372234,18.0968842 15.8744149,20.2594895 12.3598617,20.3666211 C11.2547766,20.3999105 10.1262447,20.2304368 9.0248617,19.8339895 C4.42126596,18.1749632 2.05930851,13.1688316 3.75118085,8.65175263 C5.03767021,5.21567368 8.30109574,3.05306842 11.8156489,2.94593684" id="Fill-303" fill="#A5A49E"></path>
                <path d="M13.9823809,5.20247895 C15.3274872,5.16192632 16.6041043,5.43550526 17.7529979,5.94271579 C16.2357426,4.49855789 14.1502106,3.63242632 11.870317,3.70142632 C7.40246596,3.83761053 3.89223191,7.50005789 4.0310617,11.8833737 C4.10078511,14.1101368 5.10282766,16.0917684 6.65463617,17.4875053 C6.07587021,16.3998474 5.72293404,15.1747947 5.68159362,13.8656105 C5.53535957,9.22505789 9.25167872,5.34592632 13.9823809,5.20247895" id="Fill-305" fill="#6B635F"></path>
                <path d="M3.75093404,8.65199474 C5.0374234,5.21591579 8.30023191,3.05331053 11.8147851,2.94617895 C12.9192532,2.91228421 14.0484021,3.08175789 15.1497851,3.47881053 C15.6168702,3.64707368 16.0549553,3.85831053 16.4745298,4.09194211 C17.1359766,4.1101 17.7826149,4.18817895 18.4088915,4.32315263 C17.5580191,3.6156 16.568934,3.0406 15.4626149,2.64173158 C14.277317,2.21441579 13.0408064,2.0171 11.7876362,2.05523158 L11.8154021,2.94617895 L11.7876362,2.05523158 L11.7864021,2.05523158 C7.7720617,2.17749474 4.28280638,4.64636316 2.89759362,8.34512632 C1.14031702,13.0395474 3.37023191,18.2302842 7.89176383,20.3311526 C7.50365745,19.8233368 7.1630617,19.2792053 6.87552979,18.7029947 C3.7379766,16.4719947 2.34844468,12.3967579 3.75093404,8.65199474" id="Fill-307" fill="#FFFFFF"></path>
            </g>
            <g id="gjenstander/-ovenfra/-notatbok" transform="translate(14.088457, 26.382686) rotate(30.000000) translate(-14.088457, -26.382686) translate(-3.911543, -0.617314)">
                <path d="M30.0022326,0.830769231 L16.4854884,0.830769231 L5.40083721,0.830769231 L0,0.830769231 L0,6.19089231 L0,44.0307692 L0,49.3917231 L5.40083721,49.3917231 L16.4854884,49.3917231 L30.0022326,49.3917231 C32.9852093,49.3917231 35.403907,46.9916308 35.403907,44.0307692 L35.403907,6.19089231 C35.403907,3.23086154 32.9852093,0.830769231 30.0022326,0.830769231" id="Fill-309" fill="#84748A"></path>
                <polygon id="Fill-311" fill="#38363A" points="23.4418605 50.5747385 25.5030698 50.5747385 25.5030698 0 23.4418605 0"></polygon>
                <polygon id="Fill-313" fill="#CE2128" points="8.9012093 53.7258462 7.79944186 52.7571692 6.69767442 53.7258462 6.69767442 49.8461538 8.9012093 49.8461538"></polygon>
            </g>
            <g id="gjenstander/-ovenfra/-blyant" transform="translate(34.890798, 43.947739) rotate(130.000000) translate(-34.890798, -43.947739) translate(14.390798, 41.947739)">
                <path d="M2.98387419,1.57953333 L2.98387419,2.7762 C2.98387419,3.45086667 2.44161613,3.99686667 1.77305161,3.99686667 L1.74263226,3.99686667 C1.07340645,3.99686667 0.531809677,3.45086667 0.531809677,2.7762 L0.531809677,1.57953333 C0.531809677,0.905533333 1.07340645,0.358866667 1.74263226,0.358866667 L1.77305161,0.358866667 C2.44161613,0.358866667 2.98387419,0.905533333 2.98387419,1.57953333" id="Fill-121" fill="#C4252A"></path>
                <polygon id="Fill-122" fill="#E9D8BD" points="36.6967855 3.9972 40.9561565 2.17786667 36.6967855 0.358533333 36.1975113 2.25053333"></polygon>
                <polygon id="Fill-123" fill="#EEC65C" points="2.45206452 3.99733333 36.3332742 3.99733333 36.3332742 2.78466667 2.45206452 2.78466667"></polygon>
                <polygon id="Fill-124" fill="#E3B854" points="2.45206452 2.78466667 36.3332742 2.78466667 36.3332742 1.572 2.45206452 1.572"></polygon>
                <polygon id="Fill-125" fill="#EEC65C" points="2.45206452 1.572 36.3332742 1.572 36.3332742 0.359333333 2.45206452 0.359333333"></polygon>
                <path d="M36.9537629,3.60073333 C36.9537629,3.37206667 36.6661016,3.2194 36.6661016,2.91406667 C36.6661016,2.86473333 36.676021,2.82273333 36.6905694,2.78406667 L36.3334726,2.78406667 L36.3334726,3.9974 L36.6661016,3.9974 C36.6661016,3.9974 36.9537629,3.8294 36.9537629,3.60073333" id="Fill-126" fill="#EEC65C"></path>
                <path d="M36.6903048,2.78433333 C36.7656919,2.58566667 36.9991274,2.501 36.9991274,2.17766667 C36.9991274,1.855 36.7656919,1.77033333 36.6903048,1.57166667 L36.3332081,1.57166667 L36.3332081,2.78433333 L36.6903048,2.78433333 Z" id="Fill-127" fill="#E3B854"></path>
                <path d="M36.6903048,1.57173333 C36.6757565,1.53306667 36.6664984,1.49106667 36.6664984,1.44173333 C36.6664984,1.13706667 36.9534984,0.9844 36.9534984,0.755066667 C36.9534984,0.5264 36.6664984,0.359066667 36.6664984,0.359066667 L36.3332081,0.359066667 L36.3332081,1.57173333 L36.6903048,1.57173333 Z" id="Fill-128" fill="#EEC65C"></path>
                <polygon id="Fill-129" fill="#5D5D5B" points="40.956421 2.17786667 39.4493403 1.53453333 39.4493403 2.82186667"></polygon>
                <polygon id="Fill-130" fill="#5D5D5B" points="1.9613871 3.99733333 2.45206452 3.99733333 2.45206452 0.358666667 1.9613871 0.358666667"></polygon>
            </g>
        </g>
    </g>
</svg>