<svg width="62px" height="80px" viewBox="0 0 62 80" version="1.1" xmlns="http://www.w3.org/2000/svg" xmlns:xlink="http://www.w3.org/1999/xlink">
    <g id="Illustrations/arbeidsgiver-og-deg" stroke="none" stroke-width="1" fill="none" fill-rule="evenodd">
        <path d="M0,13.3217227 L0,75.9572312 C0,78.1898902 1.80341708,80 4.02895891,80 L57.9733167,80 C60.1965829,80 62,78.1898902 62,75.9572312 L62,4.04276884 C62,1.81010978 60.1965829,0 57.9733167,0 L14.0211411,0 L0,13.3217227 Z" id="Mask" fill="#E4E4DB"></path>
        <g id="Icon" transform="translate(19.000000, 28.000000)" stroke="#3E3832" stroke-linecap="round" stroke-linejoin="round">
            <polygon id="Stroke-8029" points="11.5 23.5 0.5 23.5 0.5 9.5 11.5 9.5"></polygon>
            <polygon id="Stroke-8030" points="9.5 3.5 2.5 3.5 2.5 9.5 9.5 9.5"></polygon>
            <path d="M5.5,3.5 L5.5,0.5" id="Stroke-8031"></path>
            <polygon id="Stroke-8032" points="23.5 23.5 14.5 23.5 14.5 5.5 23.5 5.5"></polygon>
            <path d="M16.5,7.5 L21.5,7.5" id="Stroke-8033"></path>
            <path d="M16.5,9.5 L21.5,9.5" id="Stroke-8034"></path>
            <path d="M16.5,11.5 L21.5,11.5" id="Stroke-8035"></path>
            <path d="M16.5,13.5 L21.5,13.5" id="Stroke-8036"></path>
            <path d="M16.5,15.5 L21.5,15.5" id="Stroke-8037"></path>
            <path d="M16.5,17.5 L21.5,17.5" id="Stroke-8038"></path>
            <path d="M16.5,19.5 L21.5,19.5" id="Stroke-8039"></path>
            <path d="M2.5,12.5 L9.5,12.5" id="Stroke-8040"></path>
            <path d="M2.5,15.5 L9.5,15.5" id="Stroke-8041"></path>
            <path d="M2.5,18.5 L9.5,18.5" id="Stroke-8042"></path>
            <path d="M4.5,5.5 L7.5,5.5" id="Stroke-8043"></path>
            <path d="M4.5,7.5 L7.5,7.5" id="Stroke-8044"></path>
            <polygon id="Stroke-8045" points="6.5 21.5 4.5 21.5 4.5 23.5 6.5 23.5"></polygon>
            <polygon id="Stroke-8046" points="20.5 21.5 18.5 21.5 18.5 23.5 20.5 23.5"></polygon>
        </g>
        <path d="M14.1486296,0 L14.1486296,9.28457143 C14.1486296,11.52 12.3288148,13.3314286 10.083037,13.3314286 L0,13.3314286 L14.1486296,0 Z" id="Background" fill="#C9C9C9"></path>
    </g>
</svg>