<svg width="62px" height="80px" viewBox="0 0 62 80" version="1.1" xmlns="http://www.w3.org/2000/svg" xmlns:xlink="http://www.w3.org/1999/xlink">
    <g id="Illustrations/benefit" stroke="none" stroke-width="1" fill="none" fill-rule="evenodd">
        <path d="M-1.13686838e-13,13.3217227 L-1.13686838e-13,75.9572312 C-1.13686838e-13,78.1898902 1.80341708,80 4.02895891,80 L57.9733167,80 C60.1965829,80 62,78.1898902 62,75.9572312 L62,4.04276884 C62,1.81010978 60.1965829,0 57.9733167,0 L14.0211411,0 L-1.13686838e-13,13.3217227 Z" id="Background" fill="#E4E4DB"></path>
        <path d="M14.1486296,0 L14.1486296,9.28457143 C14.1486296,11.52 12.3288148,13.3314286 10.083037,13.3314286 L0,13.3314286 L14.1486296,0 Z" id="Corner" fill="#C9C9C9"></path>
        <g id="Icon" transform="translate(19.000000, 28.000000)" stroke="#3E3832" stroke-linejoin="round">
            <polygon id="Stroke-4847" points="4.70104168 22.4395833 0.534375012 22.4395833 0.534375012 14.0625 4.70104168 14.0625"></polygon>
            <path d="M4.70072937,20.8333328 C15.6382294,24.4791662 11.992396,24.4791662 24.492396,18.2291662 C23.3851044,17.1229162 22.511146,16.8614578 21.367396,17.1874995 L16.748646,18.7197912" id="Stroke-4848" stroke-linecap="round"></path>
            <path d="M4.70072937,15.104167 L7.82572937,15.104167 C10.276771,15.104167 11.992396,16.666667 12.5132294,17.1875003 L15.6382294,17.1875003 C17.298646,17.1875003 17.298646,19.2708337 15.6382294,19.2708337 L9.9090627,19.2708337" id="Stroke-4849" stroke-linecap="round"></path>
            <path d="M15.1173954,3.64583331 C15.1173954,5.37187498 16.5163537,6.77083331 18.2423954,6.77083331 C19.9684371,6.77083331 21.3673954,5.37187498 21.3673954,3.64583331 C21.3673954,1.91979165 19.9684371,0.520833313 18.2423954,0.520833313 C16.5163537,0.520833313 15.1173954,1.91979165 15.1173954,3.64583331 L15.1173954,3.64583331 Z" id="Stroke-4850" stroke-linecap="round"></path>
            <path d="M9.90906239,10.9375 C9.90906239,12.6635417 11.3080207,14.0625 13.0340624,14.0625 C14.7601041,14.0625 16.1590624,12.6635417 16.1590624,10.9375 C16.1590624,9.21145833 14.7601041,7.8125 13.0340624,7.8125 C11.3080207,7.8125 9.90906239,9.21145833 9.90906239,10.9375 L9.90906239,10.9375 Z" id="Stroke-4851" stroke-linecap="round"></path>
            <path d="M13.0340624,9.89583302 L13.0340624,11.9791663" id="Stroke-4852" stroke-linecap="round"></path>
            <path d="M18.2423954,2.60416675 L18.2423954,4.68750008" id="Stroke-4853" stroke-linecap="round"></path>
        </g>
    </g>
</svg>