<?xml version="1.0" encoding="UTF-8"?>
<svg width="62px" height="80px" viewBox="0 0 62 80" version="1.1" xmlns="http://www.w3.org/2000/svg" xmlns:xlink="http://www.w3.org/1999/xlink">
    <!-- Generator: Sketch 62 (91390) - https://sketch.com -->
    <title>Group 3</title>
    <desc>Created with Sketch.</desc>
    <g id="Page-1" stroke="none" stroke-width="1" fill="none" fill-rule="evenodd">
        <g id="Group-3">
            <g id="ark-jobbe-copy" fill-rule="nonzero">
                <path d="M-6.08959373e-06,13.322 L-6.08959373e-06,75.957 C-0.00185812625,77.0274142 0.421581085,78.0547251 1.1771655,78.812935 C1.93274992,79.5711449 2.95858575,79.9981451 4.029,80 L57.973,80 C59.0431492,79.9978804 60.0686256,79.5707314 60.823835,78.8125213 C61.5790445,78.0543113 62.0021238,77.0271492 62.000008,75.957 L62.000008,4.043 C62.0021238,2.97285082 61.5790445,1.94568871 60.823835,1.18747867 C60.0686256,0.429268639 59.0431492,0.00211962987 57.973,0 L14.021,0 L-6.08959373e-06,13.322 Z" id="Path" fill="#E4E4DB"></path>
                <path d="M14.149,0 L14.149,9.285 C14.149,11.52 12.329,13.331 10.083,13.331 L0,13.331 L14.149,0 Z" id="Path" fill="#C9C9C9"></path>
            </g>
            <g id="gjenstander/kontor/timeglass" transform="translate(21.000000, 12.000000)">
                <g id="Group">
                    <path d="M19.0889307,20.7187662 L12.4216045,27.9026105 C11.050549,29.3791475 8.70115738,29.3633977 7.34988624,27.8691424 L0.880403601,20.7118757 C0.313581957,20.0848397 0,19.27176 0,18.4281652 L0,3.41473774 C0,1.5287079 1.53625482,0 3.43159561,0 L16.5684044,0 C18.4637452,0 20,1.5287079 20,3.41473774 L20,18.4025719 C20,19.2609321 19.6745474,20.0887771 19.0889307,20.7187662" id="Fill-225" fill="#BCCFCF"></path>
                    <path d="M19.0889307,36.2790261 L12.4216045,29.0962222 C11.050549,27.6210855 8.70115738,27.6368308 7.34988624,29.1306651 L0.880403601,36.2859146 C0.313581957,36.9127739 0,37.7256245 0,38.5679974 L0,52.5862246 C0,54.4717229 1.53625482,56 3.43159561,56 L16.5684044,56 C18.4637452,56 20,54.4717229 20,52.5862246 L20,38.5955517 C20,37.7364493 19.6745474,36.9088376 19.0889307,36.2790261" id="Fill-226" fill="#BCCFCF"></path>
                    <path d="M17.272252,19.6817881 L11.9364789,25.1620962 C10.84172,26.289315 8.96170435,26.2774078 7.88053849,25.1372894 L2.70369886,19.6768268 C2.25094759,19.1975603 2,18.5773915 2,17.9344004 L2,9.94364891 C2,9.42171481 2.44438635,9 2.99437982,9 L16.8738727,9 C17.4970592,9 18,9.47827421 18,10.0676827 L18,17.9135627 C18,18.568461 17.7396419,19.2005371 17.272252,19.6817881" id="Fill-227" fill="#53828E"></path>
                    <path d="M18,50.9666389 L18,51.4784712 C18,52.3185546 17.2869372,53 16.4055414,53 L3.59550415,53 C2.71515389,53 2,52.3185546 2,51.4784712 L2,50.8479098 C2,50.2812027 2.28647978,49.7474204 2.76743122,49.4151784 L8.48866235,45.4661876 C9.39096909,44.843608 10.6100765,44.8446057 11.5102921,45.4691808 L17.1510161,49.3752695 C17.6842449,49.745425 18,50.3380729 18,50.9666389" id="Fill-228" fill="#53828E"></path>
                    <path d="M11,32.0009337 C11,32.5527544 10.5529631,33 10.0004666,33 C9.44797014,33 9,32.5527544 9,32.0009337 C9,31.4481793 9.44797014,31 10.0004666,31 C10.5529631,31 11,31.4481793 11,32.0009337" id="Fill-229" fill="#53828E"></path>
                    <path d="M11,36 C11,36.5527544 10.5529631,37 10.0004666,37 C9.44797014,37 9,36.5527544 9,36 C9,35.4481793 9.44797014,35 10.0004666,35 C10.5529631,35 11,35.4481793 11,36" id="Fill-230" fill="#53828E"></path>
                    <path d="M11,38.9990663 C11,39.5518207 10.5529631,40 10.0004666,40 C9.44797014,40 9,39.5518207 9,38.9990663 C9,38.4472456 9.44797014,38 10.0004666,38 C10.5529631,38 11,38.4472456 11,38.9990663" id="Fill-231" fill="#53828E"></path>
                    <path d="M11,42.9995334 C11,43.5520299 10.5529631,44 10.0004666,44 C9.44797014,44 9,43.5520299 9,42.9995334 C9,42.4470369 9.44797014,42 10.0004666,42 C10.5529631,42 11,42.4470369 11,42.9995334" id="Fill-232" fill="#53828E"></path>
                    <path d="M11,28 C11,28.5527544 10.5527544,29 10,29 C9.44724556,29 9,28.5527544 9,28 C9,27.4472456 9.44724556,27 10,27 C10.5527544,27 11,27.4472456 11,28" id="Fill-233" fill="#53828E"></path>
                </g>
            </g>
        </g>
    </g>
</svg>