<?xml version="1.0" encoding="UTF-8"?>
<svg width="62px" height="80px" viewBox="0 0 62 80" version="1.1" xmlns="http://www.w3.org/2000/svg" xmlns:xlink="http://www.w3.org/1999/xlink">
    <!-- Generator: Sketch 63.1 (92452) - https://sketch.com -->
    <title>status i sak m ark</title>
    <desc>Created with Sketch.</desc>
    <g id="status-i-sak-m-ark" stroke="none" stroke-width="1" fill="none" fill-rule="evenodd">
        <g id="ark-adopsjon-copy" fill-rule="nonzero">
            <path d="M-6.08959373e-06,13.322 L-6.08959373e-06,75.957 C-0.00185812625,77.0274142 0.421581085,78.0547251 1.1771655,78.812935 C1.93274992,79.5711449 2.95858575,79.9981451 4.029,80 L57.973,80 C59.0431492,79.9978804 60.0686256,79.5707314 60.823835,78.8125213 C61.5790445,78.0543113 62.0021238,77.0271492 62.000008,75.957 L62.000008,4.043 C62.0021238,2.97285082 61.5790445,1.94568871 60.823835,1.18747867 C60.0686256,0.429268639 59.0431492,0.00211962987 57.973,0 L14.021,0 L-6.08959373e-06,13.322 Z" id="Path" fill="#E4E4DB"></path>
            <path d="M14.149,0 L14.149,9.285 C14.149,11.52 12.329,13.331 10.083,13.331 L0,13.331 L14.149,0 Z" id="Path" fill="#C9C9C9"></path>
        </g>
        <g id="dokumenter/-saksstatus" transform="translate(11.000000, 16.000000)">
            <g id="Group" transform="translate(0.000000, -0.000000)">
                <polygon id="Rectangle" fill="#FFFFFF" points="0 0 37.037037 0 40 17.7777778 2.96296296 17.7777778"></polygon>
                <polygon id="Rectangle-Copy-2" fill="#FFFFFF" points="0 36.2962963 37.037037 36.2962963 40 54.0740741 2.96296296 54.0740741"></polygon>
                <polygon id="Rectangle-Copy" fill="#E7E9E9" transform="translate(20.000000, 27.037037) scale(-1, 1) translate(-20.000000, -27.037037) " points="0 17.7777778 37.037037 17.7777778 40 36.2962963 2.96296296 36.2962963"></polygon>
                <circle id="Oval" fill="#06893A" cx="11.1111111" cy="8.88888889" r="3.7037037"></circle>
                <circle id="Oval-Copy-4" fill="#06893A" cx="18.5185185" cy="26.6666667" r="3.7037037"></circle>
                <circle id="Oval-Copy" fill="#91C823" cx="18.5185185" cy="11.1111111" r="1.48148148"></circle>
                <circle id="Oval-Copy-2" fill="#91C823" cx="24.4444444" cy="14.0740741" r="1.48148148"></circle>
                <circle id="Oval-Copy-3" fill="#91C823" cx="23.7037037" cy="20.7407407" r="1.48148148"></circle>
                <circle id="Oval-Copy-5" fill="#78706A" cx="11.8518519" cy="33.3333333" r="1.48148148"></circle>
                <circle id="Oval-Copy-6" fill="#78706A" cx="9.62962963" cy="40.7407407" r="1.48148148"></circle>
                <circle id="Oval-Copy-7" fill="#78706A" cx="16.2962963" cy="45.9259259" r="1.48148148"></circle>
                <path d="M24.8937791,45.6345198 L24.8937791,43.0419272 C24.8937791,42.2237276 25.5570609,41.5604457 26.3752605,41.5604457 C27.1934602,41.5604457 27.856742,42.2237276 27.856742,43.0419272 L27.856742,45.6345198 L30.4493346,45.6345198 C31.2675342,45.6345198 31.9308161,46.2978016 31.9308161,47.1160013 C31.9308161,47.9342009 31.2675342,48.5974828 30.4493346,48.5974828 L27.856742,48.5974828 L27.856742,51.1900753 C27.856742,52.008275 27.1934602,52.6715568 26.3752605,52.6715568 C25.5570609,52.6715568 24.8937791,52.008275 24.8937791,51.1900753 L24.8937791,48.5974828 L22.3011865,48.5974828 C21.4829868,48.5974828 20.819705,47.9342009 20.819705,47.1160013 C20.819705,46.2978016 21.4829868,45.6345198 22.3011865,45.6345198 L24.8937791,45.6345198 Z" id="Path" fill="#78706A" transform="translate(26.375261, 47.116001) rotate(45.000000) translate(-26.375261, -47.116001) "></path>
            </g>
        </g>
    </g>
</svg>