<svg xmlns="http://www.w3.org/2000/svg" width="62" height="80" viewBox="0 0 62 80">
    <g fill="none" fill-rule="evenodd">
        <path fill="#E4E4DB" d="M0 13.322v62.635A4.036 4.036 0 0 0 4.029 80h53.944A4.035 4.035 0 0 0 62 75.957V4.043A4.035 4.035 0 0 0 57.973 0H14.021L0 13.322z"/>
        <path fill="#C9C9C9" d="M14.149 0v9.285c0 2.235-1.82 4.046-4.066 4.046H0L14.149 0z"/>
        <g transform="translate(10 20)">
            <g transform="rotate(-45 7.044 8.22)">
                <rect width="1.853" height="13.125" x="6.913" fill="#254652" rx=".926"/>
                <path fill="#FFBD66" d="M14.824 7.969c0-3.884-3.111-7.032-6.949-7.032C4.037.938.926 4.085.926 7.97h13.898z"/>
                <rect width="14.824" height="1.875" x=".463" y="6.563" fill="#FFA733" rx=".463"/>
            </g>
            <g transform="rotate(45 21.831 39.906)">
                <rect width="1.853" height="13.125" x="6.913" fill="#254652" rx=".926"/>
                <path fill="#FFBD66" d="M14.824 7.969c0-3.884-3.111-7.032-6.949-7.032C4.037.938.926 4.085.926 7.97h13.898z"/>
                <rect width="14.824" height="1.875" x=".463" y="6.563" fill="#FFA733" rx=".463"/>
            </g>
            <path fill="#254652" d="M28.438 35.469a2.187 2.187 0 0 1 2.988.8l1.312 2.274a2.188 2.188 0 0 1-3.789 2.187l-1.312-2.273a2.188 2.188 0 0 1 .8-2.988zm-14.875 0a2.188 2.188 0 0 1 .8 2.988l-1.312 2.273a2.187 2.187 0 1 1-3.79-2.187l1.313-2.273a2.187 2.187 0 0 1 2.989-.801z"/>
            <circle cx="21" cy="21" r="15.75" fill="#FFF" stroke="#337C9B" stroke-width="3.5"/>
            <rect width="1.75" height="9.625" x="15.957" y="13.781" fill="#3E3832" rx=".875" transform="rotate(-60 16.832 18.594)"/>
            <path fill="#3E3832" d="M27.563 9.633c.209.121.28.389.16.598l-.875 1.516a.438.438 0 1 1-.758-.438l.875-1.515c.12-.21.388-.281.598-.16zm4.804 4.805c.12.209.049.476-.16.597l-1.516.875a.438.438 0 0 1-.438-.758l1.516-.875c.21-.12.477-.049.598.16zm0 13.124a.437.437 0 0 1-.598.16l-1.516-.874a.438.438 0 1 1 .438-.758l1.515.875c.21.12.281.388.16.598zm-4.804 4.805a.437.437 0 0 1-.598-.16l-.875-1.516a.438.438 0 0 1 .758-.438l.875 1.516c.12.21.049.477-.16.598zm-13.125 0a.437.437 0 0 1-.16-.598l.874-1.516a.438.438 0 1 1 .758.438l-.875 1.515a.437.437 0 0 1-.598.16zm-4.805-4.804a.437.437 0 0 1 .16-.598l1.516-.875a.438.438 0 0 1 .438.758l-1.516.875a.438.438 0 0 1-.598-.16zm0-13.125c.121-.21.389-.281.598-.16l1.516.874a.438.438 0 1 1-.438.758l-1.515-.875a.437.437 0 0 1-.16-.598zm4.805-4.805c.209-.12.476-.049.597.16l.875 1.516a.438.438 0 0 1-.758.438l-.875-1.516a.438.438 0 0 1 .16-.598zM21 10.5a1.313 1.313 0 1 1 0-2.625 1.313 1.313 0 0 1 0 2.625zM31.5 21a1.313 1.313 0 1 1 2.625 0 1.313 1.313 0 0 1-2.625 0zM21 31.5a1.313 1.313 0 1 1 0 2.625 1.313 1.313 0 0 1 0-2.625zM10.5 21a1.313 1.313 0 1 1-2.625 0 1.313 1.313 0 0 1 2.625 0z"/>
            <path fill="#BA3A26" d="M23.005 21.875a2.188 2.188 0 1 1 0-1.75H28a.875.875 0 1 1 0 1.75h-4.995z"/>
            <circle cx="21" cy="21" r="1.094" fill="#FFF"/>
            <path fill="#337C9B" d="M20.125 1.75h1.75v2.625h-1.75z"/>
            <rect width="5.25" height="1.313" x="18.375" y=".875" fill="#254652" rx=".656"/>
        </g>
    </g>
</svg>
