<svg xmlns="http://www.w3.org/2000/svg" width="62" height="80" viewBox="0 0 62 80">
    <g fill="none" fill-rule="evenodd">
        <path fill="#E4E4DB" d="M0 13.322v62.635A4.036 4.036 0 0 0 4.029 80h53.944A4.035 4.035 0 0 0 62 75.957V4.043A4.035 4.035 0 0 0 57.973 0H14.021L0 13.322z"/>
        <path fill="#C9C9C9" d="M14.149 0v9.285c0 2.235-1.82 4.046-4.066 4.046H0L14.149 0z"/>
        <path fill="#593A32" d="M50.842 57H11.158a.743.743 0 0 1-.739-.748V39.096c0-.413.331-.748.739-.748h39.684c.408 0 .739.335.739.748v17.156c0 .413-.331.748-.739.748"/>
        <path fill="#333" d="M10.42 44.087h41.16V40.5H10.42zM36.677 27.587h-1.413v-1.033c0-.572-.432-1.036-.965-1.036h-6.598c-.533 0-.965.464-.965 1.036v1.033h-1.413v-1.18c0-1.33 1.003-2.407 2.241-2.407h6.872c1.238 0 2.241 1.078 2.241 2.407v1.18z"/>
        <path fill="#723B30" d="M52.272 43.268A.723.723 0 0 0 53 42.55V28.304a.723.723 0 0 0-.728-.717H9.728a.723.723 0 0 0-.728.717V42.55c0 .396.326.718.728.718h42.544z"/>
        <path fill="#333" d="M28.81 46.24c-1.14 0-2.068-.868-2.068-1.934V43.15c0-1.065.928-1.932 2.067-1.932h4.382c1.14 0 2.067.867 2.067 1.932v1.157c0 1.066-.927 1.933-2.067 1.933h-4.382z"/>
        <path fill="#F79221" d="M33.229 41.935H28.77c-.729 0-1.32.544-1.32 1.214v1.159c0 .67.591 1.214 1.32 1.214h4.458c.729 0 1.32-.543 1.32-1.214v-1.159c0-.67-.591-1.214-1.32-1.214"/>
    </g>
</svg>
