<svg xmlns="http://www.w3.org/2000/svg" width="62" height="80" viewBox="0 0 62 80">
    <g fill="none" fill-rule="evenodd">
        <path fill="#E4E4DB" d="M0 13.322v62.635A4.036 4.036 0 0 0 4.029 80h53.944A4.035 4.035 0 0 0 62 75.957V4.043A4.035 4.035 0 0 0 57.973 0H14.021L0 13.322z"/>
        <path fill="#C9C9C9" d="M14.149 0v9.285c0 2.235-1.82 4.046-4.066 4.046H0L14.149 0z"/>
        <g fill-rule="nonzero" transform="translate(11 16)">
            <rect width="40" height="49" fill="#D8D8D8" rx="2.238"/>
            <path fill="#FFF" d="M2.222 2.227h35.556v44.545H2.222z"/>
            <path fill="#3E3832" d="M8.658 5.57l26.565 2.325-3.105 35.5-26.566-2.324z"/>
            <path fill="#E7E9E9" d="M18.445 6.995l5.64.493c-.572 6.542-.577 10.936-.016 13.183.842 3.37.747 4.46-1.51 4.262-2.256-.197-1.032-1.189-3.288-1.386-2.257-.198-3.576 1.884-4.608.695-1.033-1.189-2.257-.197.477-5.451 1.822-3.503 2.924-7.435 3.305-11.796z"/>
            <path fill="#D8D8D8" d="M18.649 26.64c-2.348-.205-3.488-2.848-4.866-.62-1.378 2.226 2.145 2.534 1.94 4.864l-.543 6.213-.374 4.272 4.696.41.561-6.407c.191-2.188.811-3.68 1.641-5.236.496-.93 3.802-2.896 2.722-4.066-1.893-2.051-3.43.776-5.777.57z"/>
            <path fill="#FFBD66" d="M14.45 3.884l6.634-.465a1.119 1.119 0 0 1 1.195 1.038l.153 2.211a1.119 1.119 0 0 1-1.038 1.194l-6.634.466a1.119 1.119 0 0 1-1.195-1.038l-.153-2.211a1.119 1.119 0 0 1 1.038-1.194z"/>
        </g>
    </g>
</svg>
