<svg width="62px" height="80px" viewBox="0 0 62 80" version="1.1" xmlns="http://www.w3.org/2000/svg" xmlns:xlink="http://www.w3.org/1999/xlink">
    <title>Far</title>
    <g stroke="none" stroke-width="1" fill="none" fill-rule="evenodd">
        <g>
            <g>
                <path d="M-1.13686838e-13,13.3217227 L-1.13686838e-13,75.9572312 C-1.13686838e-13,78.1898902 1.80341708,80 4.02895891,80 L57.9733167,80 C60.1965829,80 62,78.1898902 62,75.9572312 L62,4.04276884 C62,1.81010978 60.1965829,0 57.9733167,0 L14.0211411,0 L-1.13686838e-13,13.3217227 Z"  fill="#E4E4DB"></path>
                <path d="M14.1486296,0 L14.1486296,9.28457143 C14.1486296,11.52 12.3288148,13.3314286 10.083037,13.3314286 L0,13.3314286 L14.1486296,0 Z" fill="#C9C9C9"></path>
            </g>
            <g  transform="translate(19.000000, 28.000000)" stroke="#111111" stroke-linecap="round" stroke-linejoin="round">
                <path d="M12,16.5 C13.5,16.5 17,14.5 17,11.5 C18.5,11.5 18.5,8.5 17,8.5 L16.5,6 C12.5,6 12.5,4.5 12,4 C11.5,4.5 11.5,6 7.5,6 L7,8.5 C5.5,8.5 5.5,11.5 7,11.5 C7.001,14.5 10.5,16.5 12,16.5 Z"></path>
                <path d="M17.977,9.219 L18.5,5.5 C18.5,5.5 19,0.5 12,0.5 C5,0.5 5.5,5.5 5.5,5.5 L6.033,9.195"></path>
                <path d="M9.27,15.382 L3.096,17.255 C1.53472081,17.8401031 0.500474888,19.3326854 0.501,21 L0.5009998,23.5 L23.5010001,23.5 L23.501,21 C23.501369,19.3324317 22.466673,17.8397751 20.905,17.255 L14.731,15.382"></path>
                <path d="M9,9.5 C9,8.947 9.448,9 10,9 C10.552,9 11,8.947 11,9.5"></path>
                <path d="M13,9.5 C13,8.947 13.448,9 14,9 C14.552,9 15,8.947 15,9.5"></path>
            </g>
        </g>
    </g>
</svg>