<?xml version="1.0" encoding="UTF-8"?>
<svg width="62px" height="80px" viewBox="0 0 62 80" version="1.1" xmlns="http://www.w3.org/2000/svg" xmlns:xlink="http://www.w3.org/1999/xlink">
    <!-- Generator: Sketch 52.1 (67048) - http://www.bohemiancoding.com/sketch -->
    <title>time copy</title>
    <desc>Created with Sketch.</desc>
    <g id="Page-1" stroke="none" stroke-width="1" fill="none" fill-rule="evenodd">
        <g id="time-copy">
            <path d="M-1.13686838e-13,13.3217227 L-1.13686838e-13,75.9572312 C-1.13686838e-13,78.1898902 1.80341708,80 4.02895891,80 L57.9733167,80 C60.1965829,80 62,78.1898902 62,75.9572312 L62,4.04276884 C62,1.81010978 60.1965829,0 57.9733167,0 L14.0211411,0 L-1.13686838e-13,13.3217227 Z" id="Background" fill="#E4E4DB"></path>
            <path d="M14.1486296,0 L14.1486296,9.28457143 C14.1486296,11.52 12.3288148,13.3314286 10.083037,13.3314286 L0,13.3314286 L14.1486296,0 Z" id="Corner" fill="#C9C9C9"></path>
            <g id="clock-3" transform="translate(19.000000, 28.000000)">
                <path d="M21,0 L3,0 C1.346,0 0,1.346 0,3 L0,21 C0,22.654 1.346,24 3,24 L21,24 C22.654,24 24,22.654 24,21 L24,3 C24,1.346 22.654,0 21,0 Z M12,20 C7.589,20 4,16.411 4,12 C4,7.589 7.589,4 12,4 C16.411,4 20,7.589 20,12 C20,16.411 16.411,20 12,20 Z" id="Background" fill="#B83B2C" fill-rule="nonzero"></path>
                <path d="M15,12 L12,12 L12,7 C12,6.72385763 11.7761424,6.5 11.5,6.5 C11.2238576,6.5 11,6.72385763 11,7 L11,13 L15,13 C15.2761424,13 15.5,12.7761424 15.5,12.5 C15.5,12.2238576 15.2761424,12 15,12 Z" id="Corner" fill="#C10712"></path>
            </g>
        </g>
    </g>
</svg>