<?xml version="1.0" encoding="UTF-8"?>
<svg width="62px" height="80px" viewBox="0 0 62 80" version="1.1" xmlns="http://www.w3.org/2000/svg" xmlns:xlink="http://www.w3.org/1999/xlink">
    <!-- Generator: Sketch 62 (91390) - https://sketch.com -->
    <title>Group 2</title>
    <desc>Created with Sketch.</desc>
    <g id="Page-1" stroke="none" stroke-width="1" fill="none" fill-rule="evenodd">
        <g id="Group-2">
            <g id="ark-jobbe-copy-2" fill-rule="nonzero">
                <path d="M-6.08959373e-06,13.322 L-6.08959373e-06,75.957 C-0.00185812625,77.0274142 0.421581085,78.0547251 1.1771655,78.812935 C1.93274992,79.5711449 2.95858575,79.9981451 4.029,80 L57.973,80 C59.0431492,79.9978804 60.0686256,79.5707314 60.823835,78.8125213 C61.5790445,78.0543113 62.0021238,77.0271492 62.000008,75.957 L62.000008,4.043 C62.0021238,2.97285082 61.5790445,1.94568871 60.823835,1.18747867 C60.0686256,0.429268639 59.0431492,0.00211962987 57.973,0 L14.021,0 L-6.08959373e-06,13.322 Z" id="Path" fill="#E4E4DB"></path>
                <path d="M14.149,0 L14.149,9.285 C14.149,11.52 12.329,13.331 10.083,13.331 L0,13.331 L14.149,0 Z" id="Path" fill="#C9C9C9"></path>
            </g>
            <g id="dokumenter/lovbok/-lov" transform="translate(9.000000, 16.000000)">
                <g id="Group">
                    <polygon id="Rectangle" fill="#E7E9E9" fill-rule="nonzero" points="3.32075472 0 35.6964917 0 42.3396226 6.64150943 42.3396226 47.3207547 3.32075472 47.3207547"></polygon>
                    <path d="M41.4828679,5.81132075 L41.4828679,46.6341887 L6.46135849,46.6341887 L5.91177358,46.6341887 C4.56520755,46.6341887 3.47267925,45.5424906 3.47267925,44.1950943 C3.47267925,42.8485283 4.56520755,41.7568302 5.91177358,41.7568302 L37.5286792,41.7568302 L37.5286792,8.84826803e-15 L4.708,8.84826803e-15 C2.10784906,8.84826803e-15 2.94942268e-15,2.10784906 2.94942268e-15,4.70883019 L2.94942268e-15,42.68 C2.94942268e-15,46.9272453 3.22445283,48.9811321 7.47169811,48.9811321 L44,48.9811321 L44,5.81132075 L41.4828679,5.81132075 Z" id="Fill-24-Copy-2" fill="#C5232A"></path>
                    <path d="M25.5341374,11.6226415 L14.3149192,11.6226415 L13.2830189,11.6226415 L13.2830189,12.8719658 C13.2830189,14.7471068 13.6521715,18.5712861 14.3149192,20.1808592 C15.4461238,22.9358386 17.4365258,25.192012 19.9234489,26.5660377 C22.4125308,25.192012 24.4029328,22.9358386 25.5341374,20.1808592 C26.1968851,18.5712861 26.5660377,14.7471068 26.5660377,12.8719658 L26.5660377,11.6226415 L25.5341374,11.6226415 Z" id="Fill-27-Copy" fill="#FADC50"></path>
                    <rect id="Rectangle" fill="#FADC50" fill-rule="nonzero" x="9.96226415" y="30.7169811" width="19.9245283" height="3.32075472"></rect>
                </g>
            </g>
        </g>
    </g>
</svg>