<svg xmlns="http://www.w3.org/2000/svg" width="62" height="80" viewBox="0 0 62 80">
    <g fill="none" fill-rule="evenodd">
        <path fill="#E4E4DB" d="M0 13.322v62.635A4.036 4.036 0 0 0 4.029 80h53.944A4.035 4.035 0 0 0 62 75.957V4.043A4.035 4.035 0 0 0 57.973 0H14.021L0 13.322z"/>
        <path fill="#C9C9C9" d="M14.149 0v9.285c0 2.235-1.82 4.046-4.066 4.046H0L14.149 0z"/>
        <g transform="translate(8 20)">
            <path fill="#E3B0A8" d="M3.538 6.708H46v23.048H3.538z"/>
            <path fill="#F1D8D4" d="M37.153 6.708h5.308v23.048h-5.308z"/>
            <path fill="#C2EAF7" d="M1.77 8.481H44.23V31.53H1.77z"/>
            <path fill="#E0F5FB" d="M35.384 8.481h5.308V31.53h-5.308z"/>
            <path fill="#9BD0B0" d="M0 10.254h42.462v23.048H0z"/>
            <path fill="#CDE7D8" d="M33.615 10.254h5.308v23.048h-5.308z"/>
            <path fill="#117938" d="M5.308 20.775v-6.853h1.07l4.14 5.38v-5.38h1v6.853h-1.07l-4.14-5.386v5.386h-1zm7.645-3.338c0-1.138.351-2.028 1.054-2.672.702-.643 1.609-.965 2.72-.965.728 0 1.384.151 1.968.453.584.303 1.03.724 1.336 1.265.306.54.46 1.154.46 1.84 0 .695-.162 1.316-.484 1.865-.323.548-.78.964-1.371 1.246a4.389 4.389 0 0 1-1.914.423c-.742 0-1.405-.156-1.99-.468a3.205 3.205 0 0 1-1.328-1.276 3.457 3.457 0 0 1-.451-1.711zm1.075.014c0 .826.255 1.476.766 1.952.511.475 1.152.713 1.922.713.785 0 1.431-.24 1.938-.72.508-.48.761-1.161.761-2.043 0-.558-.108-1.045-.325-1.461a2.29 2.29 0 0 0-.952-.968 2.874 2.874 0 0 0-1.406-.343c-.738 0-1.373.22-1.905.661-.533.441-.799 1.177-.799 2.209zm7.764 3.324v-6.853h1.043v3.398l3.914-3.398h1.414l-3.307 2.776 3.452 4.077H26.93l-2.806-3.469-1.29 1.094v2.375h-1.043z"/>
            <ellipse cx="8.846" cy="35.075" fill="#FECB86" fill-rule="nonzero" rx="7.077" ry="7.092"/>
            <path fill="#F0F2F2" fill-rule="nonzero" d="M19.462 42.167a5.313 5.313 0 0 1-5.308-5.32 5.313 5.313 0 0 1 5.308-5.318 5.313 5.313 0 0 1 5.307 5.319 5.313 5.313 0 0 1-5.307 5.319zm0-3.546c.977 0 1.769-.794 1.769-1.773 0-.98-.792-1.773-1.77-1.773-.977 0-1.769.794-1.769 1.773 0 .98.792 1.773 1.77 1.773z"/>
        </g>
    </g>
</svg>
