<svg xmlns="http://www.w3.org/2000/svg" width="62" height="80" viewBox="0 0 62 80">
    <g fill="none" fill-rule="evenodd">
        <path fill="#E4E4DB" d="M0 13.322v62.635A4.036 4.036 0 0 0 4.029 80h53.944A4.035 4.035 0 0 0 62 75.957V4.043A4.035 4.035 0 0 0 57.973 0H14.021L0 13.322z"/>
        <path fill="#C9C9C9" d="M14.149 0v9.285c0 2.235-1.82 4.046-4.066 4.046H0L14.149 0z"/>
        <path fill="#FFF" d="M52 54.125c0 2.9-2.35 5.25-5.25 5.25h-31.5a5.25 5.25 0 0 1-5.25-5.25V28.75h42v25.375z"/>
        <path fill="#BA3A26" d="M15.25 22.625h31.5c2.9 0 5.25 2.35 5.25 5.25v3.5H10v-3.5c0-2.9 2.35-5.25 5.25-5.25zm25.813 6.125a1.313 1.313 0 1 0 0-2.625 1.313 1.313 0 0 0 0 2.625zm-20.126 0a1.313 1.313 0 1 0 0-2.625 1.313 1.313 0 0 0 0 2.625z"/>
        <g transform="translate(16.125 36.625)">
            <rect width="29.75" height="1.75" fill="#C6C2BF" rx=".875"/>
            <rect width="6.563" height="1.75" x="23.188" y="5.25" fill="#C6C2BF" rx=".875"/>
            <rect width="14.438" height="1.75" y="5.25" fill="#C6C2BF" rx=".875"/>
            <rect width="29.75" height="1.75" y="10.5" fill="#C6C2BF" rx=".875"/>
            <rect width="29.75" height="1.75" y="15.75" fill="#C6C2BF" rx=".875"/>
            <circle cx="18.813" cy="6.125" r="2.625" fill="#FFA733"/>
        </g>
    </g>
</svg>
