<svg xmlns="http://www.w3.org/2000/svg" width="62" height="80" viewBox="0 0 62 80">
    <g fill="none" fill-rule="evenodd">
        <path fill="#E4E4DB" d="M0 13.322v62.635A4.036 4.036 0 0 0 4.029 80h53.944A4.035 4.035 0 0 0 62 75.957V4.043A4.035 4.035 0 0 0 57.973 0H14.021L0 13.322z"/>
        <path fill="#C9C9C9" d="M14.149 0v9.285c0 2.235-1.82 4.046-4.066 4.046H0L14.149 0z"/>
        <path fill="#E7E5E2" d="M13.878 27.504c.358-5.924 5.2-10.617 11.122-10.617s10.764 4.693 11.122 10.617c.566.323.95.94.95 1.647v1.887c0 1.042-.832 1.887-1.858 1.887l-.08-.002c-1.253 2.773-3.576 4.944-6.432 5.965-.152 1.943-1.751 3.47-3.702 3.47-1.95 0-3.55-1.527-3.702-3.47-2.856-1.021-5.179-3.192-6.431-5.965a1.86 1.86 0 0 1-.081.002c-1.026 0-1.857-.845-1.857-1.887V29.15c0-.707.383-1.324.95-1.647z"/>
        <g fill="#E8CCC8">
            <path d="M22.029 33.239c0 1.302-.998 2.358-2.228 2.358-1.232 0-2.23-1.056-2.23-2.358s.998-2.358 2.23-2.358c1.23 0 2.228 1.056 2.228 2.358M32.429 33.239c0 1.302-.998 2.358-2.228 2.358-1.232 0-2.23-1.056-2.23-2.358s.998-2.358 2.23-2.358c1.23 0 2.228 1.056 2.228 2.358"/>
        </g>
        <path fill="#D1BFA3" fill-rule="nonzero" d="M25.612 29.728a.372.372 0 0 1-.44-.304.393.393 0 0 1 .287-.466c.5-.11.917-.025 1.147.383.447.794.291 1.709-.413 2.342-.41.369-.984.5-1.385.244a.406.406 0 0 1-.126-.54.36.36 0 0 1 .51-.133c.088.056.33 0 .52-.17.431-.388.515-.88.256-1.34-.024-.044-.132-.066-.356-.016z"/>
        <g fill="#635E59" fill-rule="nonzero">
            <path d="M18.697 27.045a.395.395 0 0 1 .27-.477.37.37 0 0 1 .45.286c.21.89.575 1.275 1.126 1.275.55 0 .915-.386 1.125-1.275a.37.37 0 0 1 .45-.286c.2.053.32.266.27.477-.284 1.208-.91 1.87-1.845 1.87-.935 0-1.56-.662-1.846-1.87zM27.611 27.045a.395.395 0 0 1 .27-.477.37.37 0 0 1 .45.286c.21.89.575 1.275 1.126 1.275.551 0 .916-.386 1.126-1.275a.37.37 0 0 1 .45-.286c.199.053.32.266.27.477-.285 1.208-.911 1.87-1.846 1.87s-1.56-.662-1.846-1.87z"/>
        </g>
        <g transform="translate(22.771 32.453)">
            <ellipse cx="2.229" cy="2.211" fill="#FFF" rx="2.229" ry="2.211"/>
            <path fill="#979797" fill-rule="nonzero" d="M2.229 7.075a2.207 2.207 0 0 1-2.204-2.21c0-1.228.992-2.212 2.204-2.212 1.212 0 2.203.984 2.203 2.211A2.207 2.207 0 0 1 2.23 7.075zm0-.786c.812 0 1.46-.644 1.46-1.425 0-.78-.648-1.425-1.46-1.425-.812 0-1.461.644-1.461 1.425s.649 1.425 1.46 1.425z"/>
            <ellipse cx="2.229" cy="2.211" fill="#B7B1A9" rx="1.337" ry="1.327"/>
        </g>
        <path fill="#9B9590" d="M24.629 64.308c-7.8 0-12.629-5.807-12.607-11.794L12 30.15C12 18.725 21.145 15 25 15c3.855 0 13 3.867 13 15.059v22.455c0 6.633-5.571 11.794-13.371 11.794zm-10.75-36.804c-.567.323-.95.94-.95 1.647v1.887c0 1.042.831 1.887 1.857 1.887l.08-.002c1.253 2.773 3.576 4.944 6.432 5.965.152 1.943 1.751 3.47 3.702 3.47 1.95 0 3.55-1.527 3.702-3.47 2.856-1.021 5.179-3.192 6.431-5.965l.081.002c1.026 0 1.857-.845 1.857-1.887V29.15c0-.707-.383-1.324-.95-1.647-.357-5.924-5.2-10.617-11.121-10.617-5.922 0-10.764 4.693-11.122 10.617z"/>
        <path fill="#E7E5E2" d="M20.357 38.242c.38.664 2.084 3.968 4.597 6.003 2.496-2.004 4.689-5.556 4.689-6.175-.255-.16-.508.642-.76.515-1.242 1.158-4.746 2.374-8.062 0-.39.215-.464-.343-.464-.343z"/>
        <g stroke="#B7B1A9" stroke-linecap="round" stroke-linejoin="round" stroke-width=".942">
            <path d="M24.071 53.68c4.142-2.478 8.475-7.51 13-15.095M20.357 38.585a27.093 27.093 0 0 0 5.065 6.065c1.97 1.756 3.377 2.879 4.22 3.369"/>
        </g>
        <path fill="#78706A" fill-rule="nonzero" d="M22.664 18.166a.37.37 0 0 1 .457-.264.378.378 0 0 1 .259.465c-.068.25-.003.359.449.772.47.43.58.994.319 1.602a.37.37 0 0 1-.489.195.38.38 0 0 1-.192-.497c.135-.314.093-.53-.135-.74-.648-.592-.838-.908-.668-1.533zm2.07-.202a.368.368 0 0 1 .52-.08c.165.125.2.36.078.529-.152.208-.13.334.147.884.287.573.19 1.14-.267 1.612a.367.367 0 0 1-.526.004.382.382 0 0 1-.004-.534c.237-.244.274-.461.135-.74-.396-.788-.462-1.153-.083-1.675zm2.03-.02a.368.368 0 0 1 .518.087c.12.17.08.405-.086.526-.208.151-.225.278-.13.888.1.635-.165 1.143-.744 1.449a.369.369 0 0 1-.5-.161.38.38 0 0 1 .158-.51c.3-.157.4-.352.353-.66-.137-.875-.088-1.243.43-1.62z"/>
        <g fill-rule="nonzero" transform="translate(25 32)">
            <ellipse cx="16.836" cy="22.221" fill="#F6B873" rx="6.511" ry="7.777"/>
            <ellipse cx="16.655" cy="21.679" fill="#F8CEA0" rx="4.16" ry="5.064"/>
            <ellipse cx="11.229" cy="28.19" fill="#F6B873" rx="4.522" ry="5.062" transform="rotate(-20 11.229 28.19)"/>
            <ellipse cx="11.553" cy="29.082" fill="#F8CEA0" rx="2.584" ry="2.848" transform="rotate(-20 11.553 29.082)"/>
            <ellipse cx="9.89" cy="24.974" fill="#F8CEA0" rx="1" ry="1" transform="rotate(-20 9.89 24.974)"/>
            <ellipse cx="12.034" cy="25.202" fill="#F8CEA0" rx="1" ry="1" transform="rotate(-20 12.034 25.202)"/>
            <ellipse cx="8.393" cy="26.53" fill="#F8CEA0" rx="1" ry="1" transform="rotate(-20 8.393 26.53)"/>
            <ellipse cx="22.442" cy="28.189" fill="#F6B873" rx="4.522" ry="5.062" transform="rotate(20 22.442 28.19)"/>
            <ellipse cx="22.118" cy="29.082" fill="#F8CEA0" rx="2.584" ry="2.848" transform="rotate(20 22.118 29.082)"/>
            <ellipse cx="23.478" cy="24.862" fill="#F8CEA0" rx="1" ry="1" transform="rotate(20 23.478 24.862)"/>
            <ellipse cx="24.974" cy="26.419" fill="#F8CEA0" rx="1" ry="1" transform="rotate(20 24.974 26.419)"/>
            <ellipse cx="21.333" cy="25.09" fill="#F8CEA0" rx="1" ry="1" transform="rotate(20 21.333 25.09)"/>
            <ellipse cx="16.836" cy="10.285" fill="#F6B873" rx="8.319" ry="7.777"/>
            <ellipse cx="13.762" cy="8.477" fill="#3E3832" rx="1" ry="1.266" transform="rotate(10 13.762 8.477)"/>
            <ellipse cx="19.187" cy="8.477" fill="#3E3832" rx="1" ry="1.266" transform="scale(-1 1) rotate(10 0 -210.833)"/>
            <ellipse cx="16.655" cy="12.455" fill="#F8CEA0" rx="4.16" ry="4.16"/>
            <ellipse cx="22.623" cy="3.594" fill="#F6B873" rx="2.894" ry="2.894" transform="matrix(-1 0 0 1 45.247 0)"/>
            <ellipse cx="22.945" cy="3.272" fill="#F8CEA0" rx="1.286" ry="1.286" transform="matrix(-1 0 0 1 45.89 0)"/>
            <ellipse cx="10.506" cy="4.317" fill="#F6B873" rx="3.074" ry="2.894"/>
            <ellipse cx="10.165" cy="3.996" fill="#F8CEA0" rx="1.366" ry="1.286"/>
            <ellipse cx="17.017" cy="11.37" fill="#8B5F26" rx="1.266" ry="1.266"/>
            <path fill="#F6B873" d="M12.496 16.253c-2.067.627-3.617 1.568-4.65 2.822-1.55 1.88-1.86 3.761-1.86 4.702 0 .94.464 1.88 1.86 1.88.93 0 1.55-.522 1.86-1.567.62-2.508 1.24-4.18 1.86-5.015.62-.836.93-1.777.93-2.822zM21.176 16.253c2.067.627 3.617 1.568 4.65 2.822 1.551 1.88 1.861 3.761 1.861 4.702 0 .94-.465 1.88-1.86 1.88-.93 0-1.55-.522-1.86-1.567-.62-2.508-1.24-4.18-1.86-5.015a4.618 4.618 0 0 1-.93-2.822z"/>
            <path stroke="#8B5F26" stroke-linecap="round" stroke-linejoin="round" stroke-width=".5" d="M16.71 7.334v-3.96"/>
        </g>
    </g>
</svg>
