<?xml version="1.0" encoding="UTF-8"?>
<svg width="54px" height="100px" viewBox="0 0 54 100" version="1.1" xmlns="http://www.w3.org/2000/svg" xmlns:xlink="http://www.w3.org/1999/xlink">
    <!-- Generator: Sketch 52.6 (67491) - http://www.bohemiancoding.com/sketch -->
    <title>Worker</title>
    <desc>Created with Sketch.</desc>
    <g id="Worker" stroke="none" stroke-width="1" fill="none" fill-rule="evenodd">
        <path d="M46.1554268,45.468359 C44.4400134,51.0354507 41.0816003,55.6565312 36.7776169,58.4845426 L36.9980354,60.9636634 L36.9967907,61.0645035 L34.6702049,81.5 L19.9143723,81.5 L19.8530793,81.0706648 L17.0004437,61.0293112 L17.1061096,58.5227407 C12.7803604,55.7021875 9.40295882,51.0735261 7.67773734,45.4916972 C7.61923331,45.4971929 7.55995412,45.5 7.5,45.5 L7.5,45 L7.5,45.5 C6.38406131,45.5 5.5,44.5247272 5.5,43.3432521 L5.5,36.6577078 C5.5,35.8657183 5.89721813,35.1660326 6.49519373,34.7907338 C7.42815219,22.3094522 16.1930368,12.5 26.9125674,12.5 C37.6032489,12.5 46.3503888,22.2566146 47.3231387,34.6894846 C48.0214191,35.0289789 48.5,35.7873435 48.5,36.6577078 L48.5,43.3432521 C48.5,44.5253108 47.6171745,45.5 46.5,45.5 L46.5,45 L46.5,45.5 C46.3823081,45.5 46.2671954,45.4891523 46.1554268,45.468359 Z" id="Head" fill="#E7E5E2" fill-rule="nonzero"></path>
        <g id="Face" transform="translate(17.500000, 34.250000)">
            <path d="M2.18034375,5.4211875 C0.82378125,5.523375 0.44409375,3.5236875 0.85284375,2.21775 C0.92971875,1.97025 1.37878125,0.843375 2.17378125,0.843375 C2.96784375,0.843375 3.31846875,1.4593125 3.36721875,1.56525 C3.95128125,2.838375 3.66440625,5.3086875 2.18034375,5.4211875 Z M17.3204063,5.4211875 C15.8363438,5.3086875 15.5494688,2.838375 16.1335313,1.56525 C16.1822813,1.4593125 16.5329063,0.843375 17.3269688,0.843375 C18.1219688,0.843375 18.5710313,1.97025 18.6479063,2.21775 C19.0566563,3.5236875 18.6769688,5.523375 17.3204063,5.4211875 Z" id="Eyes" fill="#635E59"></path>
            <path d="M10.1805671,7.72019928 C10.978366,7.59738996 11.5232277,7.67446166 11.7183586,7.91394045 C12.454883,8.81914054 12.2193003,9.77680163 10.9556906,10.5629613 C10.2913193,10.9761479 9.37683409,11.1215742 8.8927002,10.9073192 C8.65596362,10.8025507 8.37911903,10.909532 8.2743505,11.1462685 C8.16958197,11.3830051 8.27656321,11.6598497 8.5132998,11.7646183 C9.3134511,12.1187278 10.5439541,11.9230465 11.4508676,11.3590178 C13.1680383,10.2906735 13.561019,8.69317775 12.445347,7.32199961 C11.973221,6.74257196 11.1374778,6.62435457 10.0379329,6.79361322 C9.78206322,6.83300056 9.60656962,7.07235367 9.64595697,7.32822335 C9.68534431,7.58409303 9.92469742,7.75958663 10.1805671,7.72019928 Z" id="Nose" fill="#D1BFA3" fill-rule="nonzero"></path>
            <path d="M15.523939,14.5551008 C15.4816557,14.6519498 15.3846912,14.837383 15.2288568,15.0816372 C14.9650679,15.4950992 14.6338152,15.9096163 14.2314892,16.2961625 C13.0325876,17.4480414 11.4721128,18.1141072 9.4860272,18.0531891 C7.54947329,17.9937903 5.99597377,17.3380029 4.77798819,16.2805022 C4.33080047,15.8922371 3.96160238,15.4764299 3.66650116,15.0619652 C3.49248019,14.8175556 3.38382048,14.6322439 3.33629728,14.5356773 C3.22198598,14.3033982 2.94101895,14.2077664 2.70873985,14.3220777 C2.47646074,14.436389 2.38082893,14.717356 2.49514022,14.9496352 C2.56399323,15.0895436 2.69798837,15.3180631 2.90280331,15.6057223 C3.23909529,16.0780388 3.65727631,16.5490128 4.16335607,16.9884101 C5.53829741,18.1821856 7.29544338,18.9239395 9.4572853,18.9902484 C11.7085107,19.059299 13.5082751,18.291096 14.8810116,16.9722001 C15.3400102,16.5312041 15.7173073,16.0590688 16.019203,15.5858784 C16.2027795,15.2981413 16.3221793,15.0698033 16.3831235,14.9302117 C16.4867075,14.6929544 16.378344,14.416648 16.1410867,14.313064 C15.9038294,14.20948 15.627523,14.3178435 15.523939,14.5551008 Z" id="Mouth" fill="#D19E9C" fill-rule="nonzero"></path>
        </g>
        <path d="M45.8259715,44.8237602 C46.028711,44.936537 46.2577228,45 46.5,45 C47.3290846,45 48,44.2599347 48,43.3432521 L48,36.6577078 C48,35.8733789 47.5088365,35.2176454 46.8476831,35.0446418 C46.5896469,31.3007146 42.9205714,30.9105658 41.0456512,30.9582766 C40.3942667,30.9748523 12.3431365,31.0442778 12,31.0442778 C12,31.0442778 7.28584447,30.3186133 6.97442965,35.1046525 C6.40567353,35.33987 6,35.9458199 6,36.6577078 L6,43.3432521 C6,44.2599347 6.67265353,45 7.5,45 C7.68335288,45 7.85897005,44.9638051 8.02130567,44.8975094 C9.6956735,50.6655259 13.1525325,55.4315433 17.6003416,58.244999 L17.6168213,58.2791748 L17.6138464,58.3497453 C13.8029389,58.704639 10.5896197,59.1999022 8.70232838,59.7305167 C8.70232838,59.7305167 2.40602772,51.0399358 3.04562685,34.8831432 C3.04562685,34.8831432 5.30988672,7.73651805 26.8657591,8.00193364 C48.4196574,8.26836615 50.3483252,31.0442778 50.3483252,31.0442778 C52.0183895,38.0630456 50.4341973,50.615881 46.1050587,60 C43.8924099,58.9870212 40.4487187,58.3776971 36.5007539,58.0672503 C40.8345568,55.2208891 44.1940314,50.5049674 45.8259715,44.8237602 Z" id="Hair" fill="#8B5F26"></path>
        <path d="M46.1169144,65.143902 C49.389788,68.4059749 52,73.3120151 52,77.1191032 L52,100 L2,100 L2,77.1191032 C2,73.3197115 4.55510221,68.4220309 7.76856253,65.1636946 C11.0869383,61.7989778 14.4690121,60.2230663 17.1028314,59.5554793 C17.1518657,64.0365129 21.9167469,68.2173913 27,68.2173913 C32.0612304,68.2173913 36.8120442,64.1880378 36.8959854,59.7253222 C39.5466312,60.4447884 42.8440787,61.8818671 46.1169144,65.143902 Z" id="Shirt" fill="#0C5472"></path>
        <path d="M45.5185185,83.838832 L45.5185185,100 L28.8518519,100 L30.3852346,67.5137325 C33.7784744,66.0622484 36.8318596,63.134553 36.8959854,59.7253222 C38.651463,60.2018124 40.3324594,60.6848334 42.6493197,62.2751732 C41.9157622,63.6024846 40.9948098,68.1911207 45.5185185,83.838832 Z M8.48148148,100 L8.48148148,83.838832 C13.0556605,68.0165414 12.0398768,63.4905061 11.2920029,62.2157418 C13.6454314,60.5920841 15.3589083,59.9975067 17.1028314,59.5554793 C17.140737,63.0195075 20.2536819,66.1281295 23.7232743,67.5593184 L25.1481481,100 L8.48148148,100 Z" id="Jacket" fill="#F79221"></path>
        <path d="M8.48148148,86.3181818 L24.5280983,86.3181818 L24.6824445,89.25 L8.48148148,89.25 L8.48148148,86.3181818 Z M8.48148148,94.1363636 L24.8766915,94.1363636 L25.0310377,97.0681818 L8.48148148,97.0681818 L8.48148148,94.1363636 Z M45.5157779,86.3181818 L45.5157779,89.25 L29.3148148,89.25 L29.469161,86.3181818 L45.5157779,86.3181818 Z M45.5157779,94.1363636 L45.5157779,97.0681818 L28.9715086,97.0681818 L29.1302916,94.1363636 L45.5157779,94.1363636 Z" id="Reflex" fill="#D8D8D8" fill-rule="nonzero"></path>
        <g id="Hat" fill-rule="nonzero">
            <path d="M54,26.6666667 L54,32 L-2.48689958e-14,32 L-2.48689958e-14,26.6666667 L3.10220231,26.6666667 C3.57110225,15.4246447 11.4163555,6.14219938 21.8,3.78134327 L21.8,0 L32.2,0 L32.2,3.78134327 C42.5836445,6.14219938 50.4288978,15.4246447 50.8977977,26.6666667 L54,26.6666667 Z" id="Combined-Shape" fill="#FFBD66"></path>
            <path d="M32.2,4.26666667 C33.8376398,4.6707591 35.2243064,5.10387845 36.36,5.5660247 C36.36,10.3033074 36.36,13.7122125 36.36,15.7927399 C36.36,18.9135311 32.2,18.9135311 32.2,15.7927399 C32.2,13.1606635 32.2,7.03317739 32.2,4.26666667 Z" id="Path-9-Copy" fill="#E7A753"></path>
            <path d="M21.8,4.26666667 C21.8,7.03317739 21.8,13.1606635 21.8,15.7927399 C21.8,18.9135311 17.64,18.9135311 17.64,15.7927399 C17.64,13.7122125 17.64,10.3033074 17.64,5.5660247 C18.7756936,5.10387845 20.1623602,4.6707591 21.8,4.26666667 Z" id="Path-9" fill="#E7A753"></path>
            <path d="M14,26.1333333 L40,26.1333333" id="Line" stroke="#E7A753" stroke-linecap="round"></path>
        </g>
    </g>
</svg>