<svg width="62px" height="80px" viewBox="0 0 62 80" version="1.1" xmlns="http://www.w3.org/2000/svg" xmlns:xlink="http://www.w3.org/1999/xlink">
    <title>Hatt inntekt</title>
    <g stroke="none" stroke-width="1" fill="none" fill-rule="evenodd">
        <path d="M0,13.3217227 L0,75.9572312 C0,78.1898902 1.80341708,80 4.02895891,80 L57.9733167,80 C60.1965829,80 62,78.1898902 62,75.9572312 L62,4.04276884 C62,1.81010978 60.1965829,0 57.9733167,0 L14.0211411,0 L0,13.3217227 Z"  fill="#E4E4DB"></path>
        <path d="M14.1486296,0 L14.1486296,9.28457143 C14.1486296,11.52 12.3288148,13.3314286 10.083037,13.3314286 L0,13.3314286 L14.1486296,0 Z"  fill="#C9C9C9"></path>
        <g  transform="translate(19.000000, 28.000000)">
            <path d="M23.5,12 C23.5,18.352 18.352,23.5 12,23.5 C5.649,23.5 0.5,18.352 0.5,12 C0.5,5.65 5.649,0.5 12,0.5 C18.352,0.5 23.5,5.65 23.5,12 L23.5,12 Z" stroke="#3E3832" stroke-linejoin="round"></path>
            <path d="M7.5,16.5 L7.5,7.5 L8.56159895,7.5 L8.56159895,13.5926966 L8.60091743,13.5926966 L11.3138925,10.3567416 L12.5065531,10.3567416 L10.370249,12.8216292 L12.7948886,16.5 L11.6153342,16.5 L9.7542595,13.5421348 L8.56159895,14.8820225 L8.56159895,16.5 L7.5,16.5 Z M13.9875491,16.5 L13.9875491,10.3567416 L14.878768,10.3567416 L14.9705111,11.4691011 L15.0098296,11.4691011 C15.4423329,10.6980337 16.0976409,10.2050562 16.8184797,10.2050562 C17.093709,10.2050562 17.2903014,10.2429775 17.5,10.3314607 L17.2903014,11.241573 C17.0806029,11.1783708 16.9364351,11.1404494 16.6743119,11.1404494 C16.1369594,11.1404494 15.4947575,11.5196629 15.0622543,12.5561798 L15.0622543,16.5 L13.9875491,16.5 Z" fill="#3E3832"></path>
        </g>
    </g>
</svg>