<?xml version="1.0" encoding="UTF-8"?>
<svg width="48px" height="48px" viewBox="0 -5 48 58" version="1.1" xmlns="http://www.w3.org/2000/svg" xmlns:xlink="http://www.w3.org/1999/xlink">
    <title>Veiviser</title>
    <g stroke="none" stroke-width="1" fill="none" fill-rule="evenodd">
        <rect fill="#B2AAA0" x="23" y="-2" width="3" height="53"></rect>
        <g transform="translate(8.000000, 3.000000)">
            <polygon fill="#F7F7F7" transform="translate(17.888541, 3.686312) rotate(-1.000000) translate(-17.888541, -3.686312) " points="4.28759337 0.637367508 27.0722617 0.619866274 31.4954099 3.67416156 27.0663412 6.73525637 4.28167286 6.7527576"></polygon>
            <polygon fill="#DEDEDE" transform="translate(14.632306, 13.626535) scale(-1, 1) rotate(-2.000000) translate(-14.632306, -13.626535) " points="1.03537832 10.5899933 23.8207142 10.5549853 28.2410461 13.6022299 23.8089017 16.6630757 1.02356589 16.6980837"></polygon>
        </g>
        <g transform="translate(13.000000, 41.400000)">
            <path d="M19.3133771,0.0587447488 C18.1115365,1.94024726 17.2670778,3.79473975 16.7800009,5.62222222 C16.292924,7.4497047 16.0412571,8.79414914 16.0250002,9.65555556 L12.375,9.65555556 C12.722378,8.19768217 13.3904637,6.59860735 14.379257,4.85833109 C15.3680504,3.11805482 17.0127571,1.51819271 19.3133771,0.0587447488 Z" fill="#38A161"></path>
            <path d="M21.1880417,1.57956401 C20.4683591,3.16440705 19.9611111,4.72580449 19.6662978,6.26375632 C19.3714845,7.80170815 19.2179767,8.93293261 19.2057743,9.65742971 L17.0369583,9.66488044 C17.2476722,8.43806408 17.649366,7.09183919 18.2420399,5.62620577 C18.8347138,4.16057236 19.8167143,2.81169177 21.1880417,1.57956401 Z" fill="#117938" transform="translate(19.112500, 5.622222) rotate(9.000000) translate(-19.112500, -5.622222) "></path>
            <path d="M18.5712862,3.0629468 C18.0914753,4.3825972 17.7533165,5.68294092 17.55681,6.96397795 C17.3603035,8.24501498 17.2580003,9.18733616 17.2499003,9.79094149 L15.8037137,9.79483016 C15.9441576,8.77292728 16.2119428,7.65174278 16.6070692,6.43127668 C17.0021956,5.21081057 17.6569346,4.08803395 18.5712862,3.0629468 Z" fill="#6AB889" transform="translate(17.187500, 6.428888) rotate(7.000000) translate(-17.187500, -6.428888) "></path>
            <path d="M16.5,0.0587447488 C15.2981594,1.94024726 14.4537007,3.79473975 13.9666237,5.62222222 C13.4795468,7.4497047 13.22788,8.79414914 13.2116231,9.65555556 L9.56162286,9.65555556 C9.90900089,8.19768217 10.5770866,6.59860735 11.5658799,4.85833109 C12.5546732,3.11805482 14.1993799,1.51819271 16.5,0.0587447488 Z" fill="#06893A"></path>
            <path d="M11,0.0587447488 C9.7981594,1.94024726 8.95370065,3.79473975 8.46662375,5.62222222 C7.97954684,7.4497047 7.72787996,8.79414914 7.71162309,9.65555556 L4.06162286,9.65555556 C4.40900089,8.19768217 5.07708658,6.59860735 6.06587991,4.85833109 C7.05467324,3.11805482 8.69937993,1.51819271 11,0.0587447488 Z" fill="#38A161" transform="translate(7.530811, 4.857150) scale(-1, 1) translate(-7.530811, -4.857150) "></path>
            <path d="M4.83347662,3.0490212 C4.34874317,4.37385223 4.00542667,5.67870175 3.80352712,6.96356977 C3.60162757,8.24843779 3.49526081,9.19338906 3.48442685,9.79842356 L2.04152343,9.80875576 C2.18630669,8.78386942 2.45859326,7.65890574 2.85838315,6.43386472 C3.25817303,5.2088237 3.91653752,4.08054252 4.83347662,3.0490212 Z" fill="#6AB889" transform="translate(3.437500, 6.428888) scale(-1, 1) rotate(20.000000) translate(-3.437500, -6.428888) "></path>
            <path d="M9.21974792,3.06400407 C8.74054709,4.3832708 8.40300466,5.68330265 8.20712065,6.96409963 C8.01123664,8.2448966 7.90939603,9.18706197 7.90159883,9.79059573 L6.45525192,9.79377289 C6.59519743,8.77205348 6.86244852,7.65112619 7.25700518,6.43099102 C7.65156184,5.21085585 8.30580942,4.08852686 9.21974792,3.06400407 Z" fill="#06893A" transform="translate(7.837500, 6.428888) rotate(5.700000) translate(-7.837500, -6.428888) "></path>
            <path d="M7.01973684,1.58888889 C6.30521926,3.17039903 5.80317213,4.7292057 5.51359544,6.26530892 C5.22401876,7.80141214 5.07439791,8.93149435 5.06473289,9.65555556 L2.89473684,9.65555556 C3.10125983,8.43012985 3.49844975,7.08601629 4.08630659,5.62321486 C4.67416344,4.16041344 5.65197352,2.81563812 7.01973684,1.58888889 Z" fill="#38A161" transform="translate(4.957237, 5.622222) scale(-1, 1) translate(-4.957237, -5.622222) "></path>
            <path d="M10.3334766,3.0490212 C9.84874317,4.37385223 9.50542667,5.67870175 9.30352712,6.96356977 C9.10162757,8.24843779 8.99526081,9.19338906 8.98442685,9.79842356 L7.54152343,9.80875576 C7.68630669,8.78386942 7.95859326,7.65890574 8.35838315,6.43386472 C8.75817303,5.2088237 9.41653752,4.08054252 10.3334766,3.0490212 Z" fill="#06893A" transform="translate(8.937500, 6.428888) scale(-1, 1) rotate(20.000000) translate(-8.937500, -6.428888) "></path>
            <path d="M11.825,1.58888889 C11.1104824,3.17039903 10.6084353,4.7292057 10.3188586,6.26530892 C10.0292819,7.80141214 9.87966107,8.93149435 9.86999605,9.65555556 L7.7,9.65555556 C7.90652299,8.43012985 8.30371291,7.08601629 8.89156975,5.62321486 C9.47942659,4.16041344 10.4572367,2.81563812 11.825,1.58888889 Z" fill="#6AB889" transform="translate(9.762500, 5.622222) scale(-1, 1) translate(-9.762500, -5.622222) "></path>
        </g>
    </g>
</svg>