<svg xmlns="http://www.w3.org/2000/svg" width="62" height="80" viewBox="0 0 62 80">
    <g fill="none" fill-rule="evenodd">
        <path fill="#E4E4DB" d="M0 13.322v62.635A4.036 4.036 0 0 0 4.029 80h53.944A4.035 4.035 0 0 0 62 75.957V4.043A4.035 4.035 0 0 0 57.973 0H14.021L0 13.322z"/>
        <path fill="#C9C9C9" d="M14.149 0v9.285c0 2.235-1.82 4.046-4.066 4.046H0L14.149 0z"/>
        <path fill="#FFF" d="M40.032 59.333H21.1c-.399-4.831.085-8.55 1.45-11.157 2.047-3.91 4.547-4.256 5.205-5.343.24-.395.364-1.083.364-1.895 0-.813-.124-1.32-.364-1.715-.658-1.086-3.158-1.433-5.206-5.343-1.364-2.606-1.848-6.325-1.449-11.157h18.932c.398 4.832-.085 8.55-1.45 11.157-2.047 3.91-4.547 4.257-5.205 5.343-.24.396-.365.902-.365 1.715 0 .812.125 1.5.365 1.895.658 1.087 3.158 1.434 5.205 5.343 1.365 2.607 1.848 6.326 1.45 11.157z"/>
        <path fill="#FFBD66" d="M24.658 30.032c1.187-1.157 10.553-.894 11.425-.22 3.084 2.385.879 5.033-.931 6.374-1.713 1.27-3.55 2.036-3.696 3.157-.33 2.545-.266 6.327.33 7.376.53.934 3 1.273 4.866 3.773.957 1.283 2.246 5.544.85 6.087-.348.135-13.635.135-13.957 0-1.643-.69.09-5.174 1.113-6.489 1.697-2.18 4.113-2.677 4.683-3.371.701-.854 1.055-5.243.177-7.583-.33-.883-1.829-1.74-3.207-2.709-1.666-1.145-4.335-3.781-1.653-6.395z"/>
        <path fill="#634689" d="M19.542 19h22a2.292 2.292 0 0 1 0 4.583h-22a2.292 2.292 0 1 1 0-4.583zm0 39.417h22a2.292 2.292 0 0 1 0 4.583h-22a2.292 2.292 0 1 1 0-4.583z"/>
    </g>
</svg>
