<?xml version="1.0" encoding="UTF-8"?>
<svg width="62px" height="80px" viewBox="0 0 62 80" version="1.1" xmlns="http://www.w3.org/2000/svg" xmlns:xlink="http://www.w3.org/1999/xlink">
    <title>Far og medmor</title>
    <g stroke="none" stroke-width="1" fill="none" fill-rule="evenodd">
        <path d="M0,13.3217227 L0,75.9572312 C0,78.1898902 1.80341708,80 4.02895891,80 L57.9733167,80 C60.1965829,80 62,78.1898902 62,75.9572312 L62,4.04276884 C62,1.81010978 60.1965829,0 57.9733167,0 L14.0211411,0 L0,13.3217227 Z" fill="#E4E4DB"></path>
        <path d="M14.1486296,0 L14.1486296,9.28457143 C14.1486296,11.52 12.3288148,13.3314286 10.083037,13.3314286 L0,13.3314286 L14.1486296,0 Z" fill="#C9C9C9"></path>
        <g transform="translate(14.000000, 29.000000)" stroke="#000000" stroke-linejoin="round">
            <path d="M16.8832677,16.9328123 C15.3017249,17.6035679 14.2127704,18.4506383 13.9148093,19.0581263 C13.6356512,19.6272787 13.504441,20.7159279 13.5211788,22.3240741 L10.4444444,22.3240741 L0.435185185,22.3240741 C0.435185185,22.3240741 0.435185185,20.5337222 1.30555556,18.7929815 C1.95398148,17.4952593 4.78703704,16.6170556 8.26851852,15.3115 L8.26851852,12.7003889 C8.26851852,12.7003889 6.96296296,11.8300185 6.96296296,10.0892778 C6.52777778,10.0892778 6.09259259,8.34853704 6.96296296,7.91335185 C6.96296296,7.55998148 5.22222222,3.5615 7.83333333,3.5615 C8.26851852,1.82075926 14.3611111,1.82075926 14.7962963,3.99668519 C15.0913519,5.47544444 13.9259259,7.65485185 13.9259259,7.91335185 C14.7962963,8.34853704 14.3611111,10.0892778 13.9259259,10.0892778 C13.9259259,11.8300185 12.6203704,12.7003889 12.6203704,12.7003889 L12.6203704,15.3115 C14.2308866,15.9154436 15.7024572,16.4279364 16.8832677,16.9328123 Z" stroke-width="0.6"></path>
            <g transform="translate(13.000000, 0.710000)">
                <path d="M7.83333333,11.7823778 L7.83333333,14.6222222 L2.60171111,16.4907333 C1.3549415,16.9363337 0.522634161,18.1172821 0.522222222,19.4412889 L0.522222222,21.4111111 L20.3666667,21.4111111 L20.3666667,19.4412889 C20.3665656,18.1171835 19.5341447,16.9360741 18.2871778,16.4907333 L13.0555556,14.6222222 L13.0555556,11.5870667"></path>
                <ellipse cx="10.3138889" cy="6.26666667" rx="5.22222222" ry="6.26666667"></ellipse>
                <path d="M15.4870222,5.69535556 L15.0138889,5.74444444 C13.2352,6.08702222 12.0925778,5.4426 11.1139333,3.72866667 C10.5259111,4.85457778 8.68873333,5.74444444 7.18055556,5.74444444 C6.47638918,5.75435201 5.78104216,5.58698026 5.15851111,5.25773333"></path>
            </g>
        </g>
    </g>
</svg>