<?xml version="1.0" encoding="UTF-8"?>
<svg width="62px" height="80px" viewBox="0 0 62 80" version="1.1" xmlns="http://www.w3.org/2000/svg" xmlns:xlink="http://www.w3.org/1999/xlink">
    <title>Brev</title>
    <g stroke="none" stroke-width="1" fill="none" fill-rule="evenodd">
        <path d="M-1.13686838e-13,13.3217227 L-1.13686838e-13,75.9572312 C-1.13686838e-13,78.1898902 1.80341708,80 4.02895891,80 L57.9733167,80 C60.1965829,80 62,78.1898902 62,75.9572312 L62,4.04276884 C62,1.81010978 60.1965829,0 57.9733167,0 L14.0211411,0 L-1.13686838e-13,13.3217227 Z" fill="#E4E4DB"></path>
        <path d="M14.1486296,0 L14.1486296,9.28457143 C14.1486296,11.52 12.3288148,13.3314286 10.083037,13.3314286 L0,13.3314286 L14.1486296,0 Z" fill="#C9C9C9"></path>
        <g transform="translate(12.000000, 19.000000)" fill-rule="nonzero">
            <path d="M3.03169998,21.1688268 C2.55301051,20.6845591 0.288994215,19.0205768 0.768368505,18.5356212 L0,16.1834862 L18.1340446,0.363200632 C18.363227,0.130809914 18.6753731,6.89724771e-05 19.0010272,6.89724771e-05 C19.3266814,6.89724771e-05 19.6388275,0.130809914 19.8680099,0.363200632 L38,16.1834862 L33.893132,25.0697957 C34.3711366,25.5540634 18.8757051,33.5768108 18.3977004,34.0624543 L3.03169998,21.1688268 Z" fill="#3B2C70"></path>
            <path d="M34.2822511,33.253211 L3.6745671,33.253211 C3.46338248,33.2520753 3.29278196,33.0798933 3.29278499,32.8678899 L3.29278499,12.0027523 C3.29278499,11.7901376 3.46345599,11.6174312 3.6745671,11.6174312 L34.2822511,11.6174312 C34.4919913,11.6174312 34.6619769,11.7901376 34.6619769,12.0027523 L34.6619769,32.8692661 C34.6619769,33.0798165 34.4919913,33.2538991 34.2822511,33.2538991" fill="#EFEFEF"></path>
            <ellipse fill="#5C4378" cx="18.9698412" cy="20.671789" rx="5.53618326" ry="5.59610092"></ellipse>
            <path d="M17.9746033,21.7107798 L21.2269481,18.5366972 C21.3585598,18.4080543 21.5359034,18.3375095 21.7195693,18.3407397 C21.9032352,18.3439698 22.0780085,18.4207072 22.2050506,18.5538991 C22.470142,18.8325409 22.462501,19.273444 22.1879149,19.5426606 L18.4112194,23.2293578 C18.1370491,23.4977064 17.6983767,23.4894495 17.433117,23.212156 C17.395734,23.1822724 17.3615112,23.1486092 17.3309885,23.1116972 L15.9025614,21.3908257 C15.6567101,21.0943821 15.6946309,20.6544589 15.9875542,20.4048165 C16.1279243,20.2857769 16.3098542,20.2279708 16.4928906,20.2442519 C16.675927,20.260533 16.8448971,20.3495515 16.9622295,20.4915138 L17.9746033,21.7107798 Z" fill="#FFFFFF"></path>
            <path d="M1.44542762,42 L32.6121588,42 C33.4111112,42 0,16.1834862 0,16.1834862 L0,40.5372491 C0,41.3448817 0.647165206,42 1.44542762,42" fill="#7055A6"></path>
            <path d="M36.5546019,42 L5.38781674,42 C4.58957062,42 38,16.1834862 38,16.1834862 L38,40.5372491 C38,41.3448817 37.352848,42 36.5546019,42" fill="#5A398F"></path>
        </g>
    </g>
</svg>