<svg xmlns="http://www.w3.org/2000/svg" width="62" height="80" viewBox="0 0 62 80">
    <g fill="none" fill-rule="evenodd">
        <path fill="#E4E4DB" d="M0 13.322v62.635A4.036 4.036 0 0 0 4.029 80h53.944A4.035 4.035 0 0 0 62 75.957V4.043A4.035 4.035 0 0 0 57.973 0H14.021L0 13.322z"/>
        <path fill="#C9C9C9" d="M14.149 0v9.285c0 2.235-1.82 4.046-4.066 4.046H0L14.149 0z"/>
        <g transform="translate(13.094 21.792)">
            <path fill="#FFF" fill-rule="nonzero" d="M24.895 22.935c1.892-.27 4.067.104 6.37 1.226 4.163 2.029 8.171 6.76 12.024 14.194a.514.514 0 0 1-.205.686.487.487 0 0 1-.233.06h-16.99c-4.195 0-7.594-3.48-7.594-7.77 0-.41.031-.82.095-1.225.228-1.465.693-2.737 1.353-3.79-.426-2.09-.457-4.356-.094-6.797.474-3.186 1.429-6.075 2.863-8.665-2.603-.332-4.619-2.626-4.619-5.407C17.865 2.44 20.224 0 23.133 0c2.91 0 5.268 2.439 5.268 5.447 0 1.626-.689 3.086-1.781 4.084-.905 1.736-1.604 3.855-2.096 6.357-.55 2.792-.349 4.948.371 7.047z"/>
            <path fill="#FFBD66" fill-rule="nonzero" d="M.385 6.011a.435.435 0 0 1-.382-.376.433.433 0 0 1 .382-.48l17.41-2.102a.882.882 0 0 1 .8.33l1.66 2.13c.13.165.12.398-.022.553l-1.638 1.776a.883.883 0 0 1-.755.276L.385 6.011z"/>
            <ellipse cx="21.587" cy="3.555" fill="#635E59" rx="1" ry="1.016"/>
        </g>
        <path fill="#78706A" fill-rule="nonzero" d="M18.553 51.244c4.659 0 8.436-4.033 8.436-9.008 0-3.317-2.812-8.439-8.436-15.366-5.625 6.927-8.437 12.05-8.437 15.366 0 4.975 3.777 9.008 8.437 9.008z"/>
        <path fill="#5EAEC7" d="M23.019 47.683v4.069h-8.933v-4.07c0-1.163 1.46-2.492 2.436-3.04h4.06c.987.557 2.437 1.89 2.437 3.04z"/>
        <path fill="#E7E5E2" d="M12.609 38.675c.193-3.188 2.78-5.712 5.944-5.712 3.163 0 5.75 2.524 5.943 5.712.303.17.508.493.508.865v1.064a.991.991 0 0 1-.991.992h-.003l-.042-.001a6.028 6.028 0 0 1-3.434 3.21 1.983 1.983 0 0 1-1.979 1.869h-.005a1.983 1.983 0 0 1-1.98-1.87 6.028 6.028 0 0 1-3.433-3.21l-.042.002h-.003a.991.991 0 0 1-.99-.992V39.54c0-.372.204-.696.507-.865z"/>
        <path fill="#78706A" fill-rule="nonzero" d="M17.304 33.652a.198.198 0 0 1 .244-.142c.106.03.168.142.139.25-.037.134-.002.193.24.415.251.232.31.536.17.863a.197.197 0 0 1-.261.105.205.205 0 0 1-.103-.268c.072-.17.05-.285-.072-.398-.346-.319-.448-.49-.357-.825zm1.106-.109c.066-.09.19-.11.278-.043a.206.206 0 0 1 .042.284c-.081.113-.07.18.078.477.154.308.102.613-.142.867a.195.195 0 0 1-.281.002.206.206 0 0 1-.002-.287c.126-.132.146-.248.072-.398-.212-.425-.247-.621-.045-.902zm1.085-.011a.196.196 0 0 1 .277.047.206.206 0 0 1-.046.283c-.111.082-.12.15-.07.478.054.342-.088.616-.397.78a.196.196 0 0 1-.268-.087.205.205 0 0 1 .085-.274c.16-.085.214-.19.189-.355-.073-.471-.047-.67.23-.872z"/>
        <path fill="#E8CCC8" d="M16.964 41.765c0 .701-.533 1.27-1.19 1.27-.658 0-1.192-.569-1.192-1.27 0-.701.534-1.27 1.192-1.27.657 0 1.19.569 1.19 1.27zm5.559 0c0 .701-.534 1.27-1.191 1.27-.658 0-1.191-.569-1.191-1.27 0-.701.533-1.27 1.19-1.27.658 0 1.192.569 1.192 1.27z"/>
        <path fill="#FA96A0" d="M17.91 43.605a.64.64 0 0 1-.362-.624l.279-.793 1.096.496-.341.765a.57.57 0 0 1-.672.156z"/>
        <path fill="#D1BFA3" fill-rule="nonzero" d="M18.88 39.875c-.108.024-.213-.05-.235-.164-.023-.114.046-.226.153-.25.267-.06.49-.014.613.206.239.427.155.92-.22 1.26-.22.199-.527.27-.741.132a.22.22 0 0 1-.067-.29.192.192 0 0 1 .272-.072c.047.03.177 0 .278-.092.23-.209.275-.474.137-.722-.013-.023-.07-.035-.19-.008z"/>
        <path fill="#635E59" fill-rule="nonzero" d="M19.948 39.175a.213.213 0 0 0 .144.256c.107.029.215-.04.241-.154.112-.478.307-.686.602-.686.294 0 .489.208.601.686.027.114.134.183.24.154a.213.213 0 0 0 .145-.256c-.152-.65-.487-1.007-.986-1.007-.5 0-.835.357-.987 1.007z"/>
        <path fill="#635E59" d="M16.372 39.648c-.547.038-.7-.701-.536-1.183.031-.092.212-.508.533-.508a.54.54 0 0 1 .481.266c.236.47.12 1.384-.478 1.425zm3.152 2.635c-.17.361-.505.54-.971.54-.467 0-.803-.179-.972-.54a.218.218 0 0 1 .089-.284.193.193 0 0 1 .266.095c.095.203.289.306.617.306.327 0 .52-.103.616-.306a.193.193 0 0 1 .266-.095c.098.052.138.18.09.284z"/>
        <path fill="#E7E5E2" d="M24.36 44.896v1.205l-.001-.006h-.1v-1.81c0-.192-.144-.346-.322-.346-.178 0-.322.154-.322.345v1.811h-.122v-2.123c0-.19-.145-.345-.323-.345-.178 0-.322.155-.322.345v2.123h-.122V44.38c0-.19-.144-.345-.323-.345-.178 0-.322.155-.322.345v2.563a.255.255 0 0 1-.173-.111c-.079-.13-.046-.097-.167-.424-.122-.328-.235-.559-.507-.486-.31.083-.197.615-.078 1.303.078.457.345.91.546 1.249.2.338.582.831.715.831l.03 3.462h2.118v-3.285c0-.198.178-.267.178-.267.148-.056.26-.308.26-.65v-3.669c0-.19-.143-.345-.322-.345-.177 0-.321.155-.321.345z"/>
        <path fill="#C6C2BF" fill-rule="nonzero" d="M20.041 28.231c6.948 8.872 10.422 15.505 10.422 19.9 0 7.048-5.333 12.761-11.91 12.761-6.578 0-11.91-5.713-11.91-12.761 0-4.395 3.473-11.028 10.42-19.9v-1.477c-1.455-.102-2.62-.393-3.495-.875-1.02-.56-1.962-1.553-2.828-2.978 1.654-.221 3.042-.123 4.164.294.824.308 1.566 1.037 2.224 2.188a1.488 1.488 0 0 1 1.423-1.052h.003c.689 0 1.268.468 1.437 1.103.666-1.18 1.417-1.927 2.254-2.239 1.121-.417 2.509-.515 4.163-.294-.866 1.425-1.808 2.418-2.827 2.978-.884.486-2.064.779-3.54.878v1.474zm-.026.985a1.487 1.487 0 0 1-1.46 1.208h-.004c-.726 0-1.33-.52-1.461-1.208-4.319 5.57-6.478 9.76-6.478 12.567 0 4.664 3.555 8.445 7.94 8.445 4.386 0 7.94-3.78 7.94-8.445 0-2.808-2.158-6.997-6.477-12.567z"/>
    </g>
</svg>
