<svg width="62px" height="80px" viewBox="0 0 62 80" version="1.1" xmlns="http://www.w3.org/2000/svg" xmlns:xlink="http://www.w3.org/1999/xlink">
    <title>Hjelp</title>
    <g  stroke="none" stroke-width="1" fill="none" fill-rule="evenodd">
        <g>
            <g>
                <path d="M-1.13686838e-13,13.3217227 L-1.13686838e-13,75.9572312 C-1.13686838e-13,78.1898902 1.80341708,80 4.02895891,80 L57.9733167,80 C60.1965829,80 62,78.1898902 62,75.9572312 L62,4.04276884 C62,1.81010978 60.1965829,0 57.9733167,0 L14.0211411,0 L-1.13686838e-13,13.3217227 Z"  fill="#E4E4DB"></path>
                <path d="M14.1486296,0 L14.1486296,9.28457143 C14.1486296,11.52 12.3288148,13.3314286 10.083037,13.3314286 L0,13.3314286 L14.1486296,0 Z"  fill="#C9C9C9"></path>
            </g>
            <g transform="translate(19.000000, 28.000000)"></g>
            <circle stroke="#000" stroke-linecap="round" stroke-linejoin="round" cx="31" cy="40" r="11.4782609"></circle>
            <path d="M27.8695652,37.3913043 C27.8695652,35.6633043 29.2709565,34.2608696 31,34.2608696 C32.728,34.2608696 34.1304348,35.6633043 34.1304348,37.3913043 C34.1304348,39.1213913 32.728,40.5217391 31,40.5217391 L31,43.6521739" stroke="#000" stroke-linecap="round" stroke-linejoin="round"></path>
            <path d="M31.5217391,46.2608696 C31.5217391,46.5488696 31.288,46.7826087 31,46.7826087 C30.712,46.7826087 30.4782609,46.5488696 30.4782609,46.2608696 C30.4782609,45.9728696 30.712,45.7391304 31,45.7391304 C31.288,45.7391304 31.5217391,45.9728696 31.5217391,46.2608696 Z" stroke="#000" stroke-linejoin="round"></path>
        </g>
    </g>
</svg>