<svg width="62px" height="80px" viewBox="0 0 62 80" version="1.1" xmlns="http://www.w3.org/2000/svg" xmlns:xlink="http://www.w3.org/1999/xlink">
    <g id="Illustrations/ferie" stroke="none" stroke-width="1" fill="none" fill-rule="evenodd">
        <path d="M0,13.3217227 L0,75.9572312 C0,78.1898902 1.80341708,80 4.02895891,80 L57.9733167,80 C60.1965829,80 62,78.1898902 62,75.9572312 L62,4.04276884 C62,1.81010978 60.1965829,0 57.9733167,0 L14.0211411,0 L0,13.3217227 Z" id="Background" fill="#E4E4DB"></path>
        <path d="M14.1486296,0 L14.1486296,9.28457143 C14.1486296,11.52 12.3288148,13.3314286 10.083037,13.3314286 L0,13.3314286 L14.1486296,0 Z" id="Corner" fill="#C9C9C9"></path>
        <g id="Icon" transform="translate(19.000000, 28.000000)" stroke="#3E3832" stroke-linecap="round" stroke-linejoin="round">
            <path d="M23.5,17.201113 L17.5,17.201113 C15.049,17.201113 12.879,18.0233739 11.51,19.2880696" id="Stroke-8244"></path>
            <path d="M17.5,17.2173913 L14.184,8.4866087" id="Stroke-8245"></path>
            <path d="M11.6055,1.69513043 L11.2365,0.72573913" id="Stroke-8246"></path>
            <path d="M11.6055,1.69513043 C6.7275,3.71217391 3.5605,7.41965217 4.9845,11.1688696 L5.3525,12.1393043 L7.6765,11.1772174 L8.2385,9.82278261 L9.5365,10.4092174 L18.8325,6.564 L19.3935,5.2106087 L20.6915,5.79495652 L23.0155,4.83391304 L22.6475,3.86347826 C21.2225,0.113217391 16.4825,-0.321913043 11.6055,1.69513043 L11.6055,1.69513043 Z" id="Stroke-8247"></path>
            <path d="M23.5,23.4782609 C22.5,23.4782609 21.5,22.5433043 21.5,21.3913043 C21.5,22.5433043 20.5,23.4782609 19.5,23.4782609 C18.5,23.4782609 17.5,22.5433043 17.5,21.3913043 C17.5,22.5433043 16.5,23.4782609 15.5,23.4782609 C14.5,23.4782609 13.5,22.5433043 13.5,21.3913043 C13.5,22.5433043 12.5,23.4782609 11.5,23.4782609 C10.5,23.4782609 9.5,22.5433043 9.5,21.3913043 C9.5,22.5433043 8.5,23.4782609 7.5,23.4782609 C6.5,23.4782609 5.5,22.5433043 5.5,21.3913043 C5.5,22.5433043 4.5,23.4782609 3.5,23.4782609 C2.5,23.4782609 1.5,22.5433043 1.5,21.3913043 C1.5,22.1113043 1.037,22.7467826 0.5,23.1224348" id="Stroke-8248"></path>
        </g>
    </g>
</svg>