<svg xmlns="http://www.w3.org/2000/svg" width="62" height="80" viewBox="0 0 62 80">
    <g fill="none" fill-rule="evenodd">
        <path fill="#E4E4DB" d="M0 13.322v62.635A4.036 4.036 0 0 0 4.029 80h53.944A4.035 4.035 0 0 0 62 75.957V4.043A4.035 4.035 0 0 0 57.973 0H14.021L0 13.322z"/>
        <path fill="#C9C9C9" d="M14.149 0v9.285c0 2.235-1.82 4.046-4.066 4.046H0L14.149 0z"/>
        <g fill-rule="nonzero" transform="translate(11 18)">
            <path fill="#3E3832" d="M10.596 20.904l17.282 17.138c.22.219.22.573 0 .791a.567.567 0 0 1-.798 0L9.8 21.695a.556.556 0 0 1 0-.791.567.567 0 0 1 .797 0z"/>
            <path fill="#3E3832" d="M6.58 38.034h24.44c.311 0 .564.25.564.56 0 .308-.253.559-.564.559H6.58a.562.562 0 0 1-.564-.56c0-.309.253-.56.564-.56z"/>
            <path fill="#F5A096" d="M14.288 0C7.02 0 1.128 5.843 1.128 13.05h13.16V0zM1.128 13.797h33.464l-1.723 9.322H2.85z"/>
            <path fill="#FFBD66" d="M.752 13.05h34.592c.415 0 .752.335.752.747a.749.749 0 0 1-.752.745H.752A.749.749 0 0 1 0 13.797c0-.412.337-.746.752-.746zM2.632 22.373h30.456c.415 0 .752.334.752.746a.749.749 0 0 1-.752.745H2.632a.749.749 0 0 1-.752-.745c0-.412.337-.746.752-.746z"/>
            <path fill="#3E3832" d="M31.646 15.684a.567.567 0 0 1 .798 0c.22.218.22.572 0 .79l-22.6 22.412a.567.567 0 0 1-.797 0 .556.556 0 0 1 0-.79l22.599-22.412z"/>
            <path fill="#3E3832" d="M45.764 7.906a.58.58 0 0 1 .783.204.552.552 0 0 1-.21.764l-13.893 7.83a.58.58 0 0 1-.783-.204.552.552 0 0 1 .21-.764l13.893-7.83z"/>
            <ellipse cx="45.496" cy="8.949" fill="#78706A" rx="1.504" ry="1.492"/>
            <ellipse cx="7.52" cy="38.78" fill="#3E3832" rx="5.264" ry="5.22"/>
            <ellipse cx="31.208" cy="38.78" fill="#3E3832" rx="5.264" ry="5.22"/>
            <ellipse cx="7.52" cy="38.78" fill="#FFBD66" rx="3.384" ry="3.356"/>
            <ellipse cx="31.208" cy="38.78" fill="#FFBD66" rx="3.384" ry="3.356"/>
            <ellipse cx="31.584" cy="16.407" fill="#78706A" rx="1.504" ry="1.492"/>
            <ellipse cx="7.52" cy="38.78" fill="#E7E9E9" rx="1.504" ry="1.492"/>
            <ellipse cx="31.208" cy="38.78" fill="#E7E9E9" rx="1.504" ry="1.492"/>
            <path fill="#F5E3E0" d="M10.163 4.723a.186.186 0 0 1 .115-.238.188.188 0 0 1 .24.114l2.631 7.458a.187.187 0 0 1-.24.238l-7.52-2.61a.186.186 0 0 1-.114-.238.188.188 0 0 1 .24-.114l7.15 2.482-2.502-7.092z"/>
        </g>
    </g>
</svg>
