<?xml version="1.0" encoding="UTF-8"?>
<svg width="62px" height="80px" viewBox="0 0 62 80" version="1.1" xmlns="http://www.w3.org/2000/svg" xmlns:xlink="http://www.w3.org/1999/xlink">
    <!-- Generator: Sketch 52.6 (67491) - http://www.bohemiancoding.com/sketch -->
    <title>Illustrations/page Copy</title>
    <desc>Created with Sketch.</desc>
    <defs>
        <path d="M-1.13686838e-13,13.3217227 L-1.13686838e-13,75.9572312 C-1.13686838e-13,78.1898902 1.80341708,80 4.02895891,80 L57.9733167,80 C60.1965829,80 62,78.1898902 62,75.9572312 L62,4.04276884 C62,1.81010978 60.1965829,0 57.9733167,0 L14.0211411,0 L-1.13686838e-13,13.3217227 Z" id="path-1"></path>
        <path d="M7.78864294,2.55485974 L7.78864294,5.97424317 L0,5.97424317 L0,2.55485974 C0,1.57663748 1.27231058,0.459879795 2.12417535,0 C2.12417535,0 5.6644676,0 5.6644676,0 C6.52407262,0.46795643 7.78864294,1.58791329 7.78864294,2.55485974 Z" id="path-3"></path>
    </defs>
    <g id="Illustrations/page-Copy" stroke="none" stroke-width="1" fill="none" fill-rule="evenodd">
        <g id="Page">
            <g id="farger/-ark/-lys-grå">
                <mask id="mask-2" fill="white">
                    <use xlink:href="#path-1"></use>
                </mask>
                <g id="Mask"></g>
                <g id="V⚙️/farger/-ark/-lys-grå" mask="url(#mask-2)" fill="#E4E4DB">
                    <g transform="translate(-9.185185, -11.428571)">
                        <rect x="0" y="0" width="79" height="102"></rect>
                    </g>
                </g>
            </g>
            <path d="M14.1486296,0 L14.1486296,9.28457143 C14.1486296,11.52 12.3288148,13.3314286 10.083037,13.3314286 L0,13.3314286 L14.1486296,0 Z" id="Fill-59" fill="#C9C9C9"></path>
        </g>
        <g id="Illustrations/stork-with-baby" transform="translate(6.000000, 16.000000)">
            <g id="mennesker/BARN/-spedbarn-0-1-år/-adopsjon" transform="translate(3.252033, 7.317073)">
                <g id="Group-4" transform="translate(5.760163, 0.369063)" fill-rule="nonzero">
                    <path d="M22.2279109,20.0514754 C23.9167081,19.8142373 25.8592547,20.1417693 27.9146341,21.1226286 C31.6319148,22.8965732 35.2107962,27.0329743 38.6512783,33.5318319 L38.6512607,33.5318412 C38.7659234,33.7484319 38.6836329,34.0171453 38.4674597,34.1320294 C38.4035131,34.1660136 38.33223,34.1837826 38.2598446,34.1837826 L23.0894614,34.1837823 C19.3450519,34.1837823 16.3096083,31.1424759 16.3096083,27.3908343 C16.3096083,27.0323542 16.3379303,26.6744365 16.3943089,26.3204348 C16.5982912,25.0396299 17.013562,23.9274186 17.6022942,23.0075727 C17.2226219,21.1794227 17.194882,19.1985603 17.5190744,17.0649855 C17.942363,14.2792399 18.7941985,11.7538345 20.0745809,9.48876926 C17.7506174,9.19931357 15.9512195,7.19357852 15.9512195,4.76232155 C15.9512195,2.13216398 18.0570772,0 20.6547842,0 C23.2524913,0 25.358349,2.13216398 25.358349,4.76232155 C25.358349,6.18398006 24.7430927,7.46014267 23.7674663,8.33273913 C22.9598951,9.85031262 22.336074,11.7027677 21.8960027,13.8901045 C21.4049069,16.3310548 21.585047,18.2159515 22.2279109,20.0514754 Z" id="Path" fill="#FFFFFF"></path>
                    <path d="M0.34346133,5.25549725 C0.165216055,5.23443063 0.0247641285,5.09886506 0.00293817647,4.92682097 C-0.0233035553,4.71996929 0.129153853,4.53174985 0.34346133,4.50642107 L15.8875832,2.66927756 C16.1620072,2.63684368 16.4337749,2.74670695 16.6023438,2.9582227 L18.0855946,4.81936533 C18.2010206,4.96419876 18.1923441,5.16804751 18.0649986,5.30325418 L16.6024455,6.85609172 C16.4317972,7.03727428 16.1806832,7.12728195 15.928877,7.09752124 L0.34346133,5.25549725 Z" id="Triangle" fill="#FFBD66"></path>
                </g>
                <path d="M10.6341463,26.1178862 C14.7942424,26.1178862 18.1666667,22.592038 18.1666667,18.2426839 C18.1666667,15.3431144 15.6558266,10.8650582 10.6341463,4.80851519 C5.61246612,10.8650582 3.10162602,15.3431144 3.10162602,18.2426839 C3.10162602,22.592038 6.47405024,26.1178862 10.6341463,26.1178862 Z" id="Oval-Copy-2" fill="#78706A" fill-rule="nonzero"></path>
                <g id="mennesker/barn/-spedbarn-0-1-år/-kropp" transform="translate(4.873984, 10.135858)">
                    <g id="mennesker/X⚙️/⚙️-kropp/-barn/-blank-" transform="translate(1.770146, 10.178340)" fill-rule="evenodd" stroke-width="1">
                        <g id="Group">
                            <g id="+20/-Blå">
                                <mask id="mask-4" fill="white">
                                    <use xlink:href="#path-3"></use>
                                </mask>
                                <use id="Combined-Shape" fill="#D8A25D" xlink:href="#path-3"></use>
                                <g id="V⚙️/STYLING/farge/-Lys-blå/+20" mask="url(#mask-4)" fill="#5EAEC7">
                                    <g transform="translate(-14.561376, -18.586534)" id="Fill-70">
                                        <polygon points="0 39.6512732 40.642555 39.6512732 40.642555 0 0 0"></polygon>
                                    </g>
                                </g>
                            </g>
                        </g>
                    </g>
                    <path d="M0.452615029,4.98056668 C0.622942368,2.20134294 2.93088304,0 5.7529749,0 C8.57506677,0 10.8830074,2.20134294 11.0533348,4.98056668 C11.3234318,5.13211402 11.5059498,5.42122978 11.5059498,5.7529749 L11.5059498,6.63804796 C11.5059498,7.12686032 11.1096891,7.52312103 10.6208767,7.52312103 C10.607943,7.52312103 10.595074,7.5228436 10.5822755,7.52229438 C9.98547709,8.82319675 8.87849446,9.84138046 7.51748025,10.3206928 C7.44498353,11.2317536 6.68268017,11.9484863 5.7529749,11.9484863 C4.82326963,11.9484863 4.06096627,11.2317536 3.98846955,10.3206928 C2.62745534,9.84138046 1.52047271,8.82319675 0.923674331,7.52229438 C0.910875788,7.5228436 0.898006823,7.52312103 0.885073062,7.52312103 C0.396260707,7.52312103 1.65916238e-16,7.12686032 -1.11022302e-16,6.63804796 L-1.11022302e-16,5.7529749 C-1.51649363e-16,5.42122978 0.182518026,5.13211402 0.452615029,4.98056668 Z" id="Combined-Shape" fill="#E7E5E2" fill-rule="evenodd"></path>
                    <g id="Group" stroke-width="1" fill-rule="evenodd" transform="translate(3.982829, 0.000000)" fill="#78706A">
                        <path d="M1.21517356,0.529947499 C1.3026054,0.486207641 1.40894106,0.521626986 1.45268092,0.60905882 C1.49642078,0.696490654 1.46100143,0.80282632 1.3735696,0.846566177 C1.26464334,0.901059136 1.24757462,0.958297351 1.24757462,1.24809221 C1.24757462,1.54958399 1.08569101,1.76554701 0.790847158,1.86388211 C0.698106615,1.89481256 0.597851472,1.84470557 0.566921027,1.75196503 C0.535990583,1.65922448 0.586097569,1.55896934 0.678838112,1.5280389 C0.831617423,1.47708457 0.893545391,1.39446873 0.893545391,1.24809221 C0.893545391,0.832844396 0.943313552,0.665951946 1.21517356,0.529947499 Z" id="Path-5" fill-rule="nonzero" transform="translate(1.014602, 1.192113) rotate(-48.000000) translate(-1.014602, -1.192113) "></path>
                        <path d="M1.96592226,0.524412688 C2.05335409,0.48067283 2.15968976,0.516092175 2.20342962,0.603524009 C2.24716947,0.690955843 2.21175013,0.797291509 2.1243183,0.841031366 C2.01539203,0.895524324 1.99832331,0.95276254 1.99832331,1.2425574 C1.99832331,1.54404918 1.8364397,1.7600122 1.54159585,1.8583473 C1.44885531,1.88927775 1.34860017,1.83917076 1.31766972,1.74643022 C1.28673928,1.65368967 1.33684626,1.55343453 1.42958681,1.52250409 C1.58236612,1.47154976 1.64429409,1.38893392 1.64429409,1.2425574 C1.64429409,0.827309585 1.69406225,0.660417135 1.96592226,0.524412688 Z" id="Path-5-Copy" fill-rule="nonzero" transform="translate(1.765351, 1.186579) rotate(-27.000000) translate(-1.765351, -1.186579) "></path>
                        <path d="M2.71667095,0.518877877 C2.80410279,0.475138019 2.91043845,0.510557364 2.95417831,0.597989198 C2.99791817,0.685421032 2.96249882,0.791756698 2.87506699,0.835496555 C2.76614073,0.889989513 2.74907201,0.947227729 2.74907201,1.23702259 C2.74907201,1.53851436 2.58718839,1.75447739 2.29234455,1.85281249 C2.199604,1.88374293 2.09934886,1.83363595 2.06841842,1.74089541 C2.03748797,1.64815486 2.08759496,1.54789972 2.1803355,1.51696927 C2.33311481,1.46601495 2.39504278,1.3833991 2.39504278,1.23702259 C2.39504278,0.821774774 2.44481094,0.654882324 2.71667095,0.518877877 Z" id="Path-5-Copy-2" fill-rule="nonzero" transform="translate(2.516100, 1.181044) rotate(-9.000000) translate(-2.516100, -1.181044) "></path>
                    </g>
                    <g id="mennesker/X⚙️/⚙️-ansikt-barn/-smil-2" transform="translate(2.212683, 3.982829)">
                        <path d="M2.06517048,3.87206196 C2.06517048,4.51372729 1.60296787,5.03385304 1.03281738,5.03385304 C0.462434756,5.03385304 0,4.51372729 0,3.87206196 C0,3.230662 0.462434756,2.71053625 1.03281738,2.71053625 C1.60296787,2.71053625 2.06517048,3.230662 2.06517048,3.87206196" id="Fill-35-Copy-2" fill="#E8CCC8" fill-rule="evenodd"></path>
                        <path d="M3.11592242,5.58402979 C2.88680783,5.57392198 2.68541718,5.40644519 2.60414346,5.18148352 L2.54323493,4.41886002 L3.59552587,4.46528375 L3.59653042,5.22526448 C3.53332352,5.44385212 3.34494376,5.59413348 3.11592242,5.58402979 Z" id="Combined-Shape" fill="#FA96A0" fill-rule="evenodd" transform="translate(3.069883, 5.001685) rotate(23.000000) translate(-3.069883, -5.001685) "></path>
                        <path d="M6.88390159,3.87206196 C6.88390159,4.51372729 6.42169898,5.03385304 5.8515485,5.03385304 C5.28116587,5.03385304 4.81873111,4.51372729 4.81873111,3.87206196 C4.81873111,3.230662 5.28116587,2.71053625 5.8515485,2.71053625 C6.42169898,2.71053625 6.88390159,3.230662 6.88390159,3.87206196" id="Fill-35-Copy-3" fill="#E8CCC8" fill-rule="evenodd"></path>
                        <path d="M3.7255452,2.14275121 C3.63253003,2.16474149 3.54128043,2.09773898 3.52173352,1.99309692 C3.5021866,1.88845486 3.56174438,1.78579906 3.65475955,1.76380878 C3.88618074,1.70909709 4.07965622,1.75119139 4.18617303,1.95219364 C4.39310711,2.34324238 4.32101059,2.79387672 3.9947127,3.10601968 C3.80505119,3.28738575 3.53884774,3.35247687 3.35288174,3.22593317 C3.27155462,3.17059275 3.24550353,3.05156074 3.29469501,2.96006772 C3.34388649,2.8685747 3.44969272,2.83926723 3.53101985,2.89460764 C3.57172877,2.92230871 3.68411337,2.89482883 3.77176949,2.81100663 C3.97158847,2.61985587 4.01043269,2.37706272 3.89047482,2.15037512 C3.87918806,2.12907647 3.82929899,2.11822214 3.7255452,2.14275121 Z" id="Stroke-99-Copy" fill="#D1BFA3" fill-rule="nonzero"></path>
                        <path d="M4.65177198,0.821396187 C4.62871973,0.717661078 4.68478234,0.612543677 4.77699133,0.586609899 C4.86920032,0.560676122 4.96263801,0.623746563 4.98569025,0.727481672 C5.08297353,1.16525644 5.25187281,1.35526813 5.50712127,1.35526813 C5.76236974,1.35526813 5.93126901,1.16525644 6.0285523,0.727481672 C6.05160454,0.623746563 6.14504223,0.560676122 6.23725122,0.586609899 C6.3294602,0.612543677 6.38552282,0.717661078 6.36247057,0.821396187 C6.23029047,1.41620666 5.94026297,1.74248759 5.50712127,1.74248759 C5.07397958,1.74248759 4.78395208,1.41620666 4.65177198,0.821396187 Z" id="Path-4-Copy-4" fill="#635E59" fill-rule="nonzero" transform="translate(5.507121, 1.161635) scale(1, -1) translate(-5.507121, -1.161635) "></path>
                        <path d="M1.55127898,1.93479509 C1.07690169,1.96974606 0.944128509,1.29329004 1.08706458,0.852200021 C1.11394705,0.768140739 1.27098003,0.387219465 1.54898413,0.387219465 C1.8266604,0.387219465 1.9492707,0.595598001 1.96631812,0.631433801 C2.17055934,1.06190581 2.07056966,1.89718963 1.55127898,1.93479509" id="Fill-95-Copy-3" fill="#635E59" fill-rule="evenodd"></path>
                        <path d="M2.59963192,4.34599901 C2.55712568,4.25035997 2.59158379,4.13406382 2.67659628,4.0862443 C2.76160876,4.03842478 2.86498311,4.07719016 2.90748936,4.17282921 C2.99003343,4.35855336 3.15798095,4.45302384 3.4419508,4.45302384 C3.72592064,4.45302384 3.89386817,4.35855336 3.97641224,4.17282921 C4.01891848,4.07719016 4.12229283,4.03842478 4.20730531,4.0862443 C4.2923178,4.13406382 4.32677592,4.25035997 4.28426967,4.34599901 C4.13735036,4.67656748 3.84637111,4.84024331 3.4419508,4.84024331 C3.03753049,4.84024331 2.74655124,4.67656748 2.59963192,4.34599901 Z" id="Path-4-Copy-2" fill="#593A32" fill-rule="nonzero" transform="translate(3.441951, 4.453003) scale(1, -1) rotate(-180.000000) translate(-3.441951, -4.453003) "></path>
                    </g>
                </g>
                <rect id="Rectangle" fill="#C6C2BF" fill-rule="nonzero" x="9.30487805" y="2.58878905" width="2.65853659" height="5.32734275" rx="1.32760959"></rect>
                <path d="M10.4331167,3.56983617 C9.15863995,2.19314608 7.98855876,1.50447034 6.92287312,1.50380897 C5.85718747,1.50314759 4.66337795,1.84638149 3.34144456,2.53351065 C4.4942264,3.43950699 5.58188911,3.96721872 6.60443271,4.11664582 C7.6269763,4.26607292 8.90320429,4.08380304 10.4331167,3.56983617 Z" id="Path-24" fill="#C6C2BF" fill-rule="nonzero" transform="translate(6.887281, 2.835470) rotate(20.000000) translate(-6.887281, -2.835470) "></path>
                <path d="M17.9654868,3.56983617 C16.69101,2.19314608 15.5209288,1.50447034 14.4552432,1.50380897 C13.3895576,1.50314759 12.195748,1.84638149 10.8738146,2.53351065 C12.0265965,3.43950699 13.1142592,3.96721872 14.1368028,4.11664582 C15.1593464,4.26607292 16.4355744,4.08380304 17.9654868,3.56983617 Z" id="Path-24-Copy" fill="#C6C2BF" fill-rule="nonzero" transform="translate(14.419651, 2.835470) scale(-1, 1) rotate(20.000000) translate(-14.419651, -2.835470) "></path>
                <g id="Group" transform="translate(12.849593, 19.458708)" fill="#E7E5E2">
                    <path d="M2.96938302,1.1097217 L2.96938302,2.1629758 L2.9686904,2.15812879 L2.88003564,2.15812879 L2.88003564,0.574612394 C2.88003564,0.407875436 2.7512092,0.272644008 2.59236943,0.272644008 C2.43352965,0.272644008 2.30447234,0.407875436 2.30447234,0.574612394 L2.30447234,2.15812879 L2.19527,2.15812879 L2.19527,0.301968386 C2.19527,0.135473778 2.06644355,0 1.90760378,0 C1.74876401,0 1.61993756,0.135473778 1.61993756,0.301968386 L1.61993756,2.15812879 L1.51073522,2.15812879 L1.51073522,0.658707924 C1.51073522,0.491970966 1.38190878,0.356497188 1.22283813,0.356497188 C1.06399836,0.356497188 0.935171917,0.491970966 0.935171917,0.658707924 L0.935171917,2.89947815 C0.884611001,2.88929944 0.819505164,2.86457971 0.780487836,2.801811 C0.710071949,2.68766405 0.739623534,2.71747312 0.631113806,2.43101515 C0.522604078,2.14431483 0.421713117,1.94267944 0.179066895,2.00641755 C-0.0982100915,2.07912262 0.00291174044,2.54443506 0.108651008,3.14522128 C0.179066895,3.54485681 0.417326554,3.94134178 0.59625217,4.23725141 C0.774946914,4.53267634 1.11617538,4.9643021 1.23530521,4.9643021 L1.2623172,7.99101412 L3.15292607,7.99101412 L3.15292607,5.11843685 C3.15292607,4.94564114 3.31153497,4.88505358 3.31153497,4.88505358 C3.44428623,4.83682588 3.54471545,4.61628717 3.54471545,4.31649994 L3.54471545,1.1097217 C3.54471545,0.942984743 3.415889,0.807753315 3.25681836,0.807753315 C3.09820946,0.807753315 2.96938302,0.942984743 2.96938302,1.1097217 Z" id="Fill-1"></path>
                </g>
                <path d="M10.6341463,34.5528455 C4.76106949,34.5528455 0,29.5578939 0,23.3963089 C0,19.2885855 3.54471545,12.9446726 10.6341463,4.36456996 C17.7235772,12.9446726 21.2682927,19.2885855 21.2682927,23.3963089 C21.2682927,29.5578939 16.5072232,34.5528455 10.6341463,34.5528455 Z M10.6341463,25.2299957 C14.5495309,25.2299957 17.7235772,21.9245131 17.7235772,17.8469935 C17.7235772,15.1286472 15.3604336,10.9304695 10.6341463,5.25246042 C5.90785908,10.9304695 3.54471545,15.1286472 3.54471545,17.8469935 C3.54471545,21.9245131 6.71876177,25.2299957 10.6341463,25.2299957 Z" id="Shape" fill="#C6C2BF" fill-rule="nonzero"></path>
                <ellipse id="Oval" fill="#635E59" cx="25.0345528" cy="3.4766795" rx="1" ry="1"></ellipse>
            </g>
        </g>
    </g>
</svg>