<svg width="62px" height="80px" viewBox="0 0 62 80" version="1.1" xmlns="http://www.w3.org/2000/svg" xmlns:xlink="http://www.w3.org/1999/xlink">
    <g id="Illustrations/time" stroke="none" stroke-width="1" fill="none" fill-rule="evenodd">
        <path d="M-1.13686838e-13,13.3217227 L-1.13686838e-13,75.9572312 C-1.13686838e-13,78.1898902 1.80341708,80 4.02895891,80 L57.9733167,80 C60.1965829,80 62,78.1898902 62,75.9572312 L62,4.04276884 C62,1.81010978 60.1965829,0 57.9733167,0 L14.0211411,0 L-1.13686838e-13,13.3217227 Z" id="Background" fill="#E4E4DB"></path>
        <path d="M14.1486296,0 L14.1486296,9.28457143 C14.1486296,11.52 12.3288148,13.3314286 10.083037,13.3314286 L0,13.3314286 L14.1486296,0 Z" id="Corner" fill="#C9C9C9"></path>
        <g id="Icon" transform="translate(19.000000, 28.000000)" stroke="#3E3832" stroke-linejoin="round">
            <polyline id="Stroke-3639" stroke-linecap="round" points="15 12.5 11.5 12.5 11.5 7"></polyline>
            <path d="M23.5,19.5 C23.5,21.7 21.7,23.5 19.5,23.5 L4.5,23.5 C2.3,23.5 0.5,21.7 0.5,19.5 L0.5,4.5 C0.5,2.301 2.3,0.5 4.5,0.5 L19.5,0.5 C21.7,0.5 23.5,2.301 23.5,4.5 L23.5,19.5 L23.5,19.5 Z" id="Stroke-3640"></path>
            <path d="M20.5,12 C20.5,16.694 16.694,20.5 12,20.5 C7.306,20.5 3.5,16.694 3.5,12 C3.5,7.306 7.306,3.5 12,3.5 C16.694,3.5 20.5,7.306 20.5,12 L20.5,12 Z" id="Stroke-3641"></path>
        </g>
    </g>
</svg>