<?xml version="1.0" encoding="UTF-8"?>
<svg width="48px" height="48px" viewBox="0 -10 48 70" version="1.1" xmlns="http://www.w3.org/2000/svg" xmlns:xlink="http://www.w3.org/1999/xlink">
    <!-- Generator: Sketch 52.2 (67145) - http://www.bohemiancoding.com/sketch -->
    <title>Illustrations/item/money</title>
    <desc>Created with Sketch.</desc>
    <g id="Illustrations/item/money" stroke="none" stroke-width="1" fill="none" fill-rule="evenodd">
        <g id="Group-2" transform="translate(0.000000, 2.000000)">
            <g id="Bill" transform="translate(25.531915, 20.625000) rotate(8.000000) translate(-25.531915, -20.625000) translate(5.106383, 11.343750)">
                <path d="M1.22553196,17.336968 L39.6255319,17.336968 L39.6255319,1.22553196 L1.22553196,1.22553196 L1.22553196,17.336968 Z" id="Rectangle" stroke="#6AB889" stroke-width="2.45106393" fill="#9BD0B0"></path>
                <path d="M2.47582205,6.1875 C4.52686019,6.1875 6.18955513,4.52535713 6.18955513,2.475 C6.18955513,1.93664314 6.18955513,1.11164314 6.18955513,-1.15463195e-14 L-1.64313008e-14,-1.15463195e-14 L-1.64313008e-14,6.1875 C1.00845471,6.1875 1.83372872,6.1875 2.47582205,6.1875 Z" id="Oval" fill="#6AB889"></path>
                <path d="M37.1375363,6.18852756 C39.1878934,6.18852756 40.8500363,4.52583263 40.8500363,2.47479449 C40.8500363,1.93625882 40.8500363,1.1109848 40.8500363,-0.00102756286 L34.6625363,-0.00102756286 L34.6625363,6.18852756 C35.6706561,6.18852756 36.4956561,6.18852756 37.1375363,6.18852756 Z" id="Oval-Copy" fill="#6AB889" transform="translate(37.756286, 3.093750) rotate(90.000000) translate(-37.756286, -3.093750) "></path>
                <ellipse id="Oval" fill="#6AB889" cx="20.4255319" cy="9.28125" rx="5.57059961" ry="5.56875"></ellipse>
                <path d="M37.1373308,18.5625 C39.1883689,18.5625 40.8510638,16.9003571 40.8510638,14.85 C40.8510638,14.3116431 40.8510638,13.4866431 40.8510638,12.375 L34.6615087,12.375 L34.6615087,18.5625 C35.6699634,18.5625 36.4952374,18.5625 37.1373308,18.5625 Z" id="Oval-Copy-2" fill="#6AB889" transform="translate(37.756286, 15.468750) rotate(180.000000) translate(-37.756286, -15.468750) "></path>
                <path d="M2.47582205,18.5625 C4.52686019,18.5625 6.18955513,16.9003571 6.18955513,14.85 C6.18955513,14.3116431 6.18955513,13.4866431 6.18955513,12.375 L-1.64313008e-14,12.375 L-1.64313008e-14,18.5625 C1.00845471,18.5625 1.83372872,18.5625 2.47582205,18.5625 Z" id="Oval-Copy-3" fill="#6AB889" transform="translate(3.094778, 15.468750) scale(-1, 1) rotate(180.000000) translate(-3.094778, -15.468750) "></path>
                <path d="M17.0831721,11.347875 L17.0831721,7.30125 L17.8011605,7.30125 L17.8011605,9.1389375 L17.8197292,9.1389375 L19.2618956,7.30125 L20.0603482,7.30125 L18.8162476,8.8790625 L20.270793,11.347875 L19.47853,11.347875 L18.3829787,9.442125 L17.8011605,10.1660625 L17.8011605,11.347875 L17.0831721,11.347875 Z M20.7783366,11.347875 L20.7783366,7.30125 L22.1462282,7.30125 C22.3566742,7.30125 22.5526748,7.32187479 22.734236,7.363125 C22.9157972,7.40437521 23.0725977,7.47140579 23.2046422,7.56421875 C23.3366867,7.65703171 23.4408765,7.77974924 23.5172147,7.932375 C23.5935529,8.08500076 23.6317215,8.27474887 23.6317215,8.501625 C23.6317215,8.81100155 23.5584791,9.06056155 23.4119923,9.2503125 C23.2655054,9.44006345 23.0705364,9.57618709 22.8270793,9.6586875 L23.7926499,11.347875 L22.9880077,11.347875 L22.1152805,9.763875 L21.496325,9.763875 L21.496325,11.347875 L20.7783366,11.347875 Z M21.496325,9.194625 L22.0719536,9.194625 C22.3484218,9.194625 22.5598961,9.13687558 22.706383,9.021375 C22.8528698,8.90587442 22.9261122,8.73262616 22.9261122,8.501625 C22.9261122,8.26649882 22.8528698,8.10356295 22.706383,8.0128125 C22.5598961,7.92206205 22.3484218,7.8766875 22.0719536,7.8766875 L21.496325,7.8766875 L21.496325,9.194625 Z" id="KR" fill="#EFEFEF"></path>
            </g>
            <g id="Bill-2" transform="translate(21.446809, 12.375000) rotate(-7.000000) translate(-21.446809, -12.375000) translate(1.021277, 3.093750)">
                <path d="M1.22553196,17.336968 L39.6255319,17.336968 L39.6255319,1.22553196 L1.22553196,1.22553196 L1.22553196,17.336968 Z" id="Rectangle" stroke="#6AB889" stroke-width="2.45106393" fill="#9BD0B0"></path>
                <path d="M2.47582205,6.1875 C4.52686019,6.1875 6.18955513,4.52535713 6.18955513,2.475 C6.18955513,1.93664314 6.18955513,1.11164314 6.18955513,-1.15463195e-14 L-1.64313008e-14,-1.15463195e-14 L-1.64313008e-14,6.1875 C1.00845471,6.1875 1.83372872,6.1875 2.47582205,6.1875 Z" id="Oval" fill="#6AB889"></path>
                <path d="M37.1375363,6.18852756 C39.1878934,6.18852756 40.8500363,4.52583263 40.8500363,2.47479449 C40.8500363,1.93625882 40.8500363,1.1109848 40.8500363,-0.00102756286 L34.6625363,-0.00102756286 L34.6625363,6.18852756 C35.6706561,6.18852756 36.4956561,6.18852756 37.1375363,6.18852756 Z" id="Oval-Copy" fill="#6AB889" transform="translate(37.756286, 3.093750) rotate(90.000000) translate(-37.756286, -3.093750) "></path>
                <ellipse id="Oval" fill="#6AB889" cx="20.4255319" cy="9.28125" rx="5.57059961" ry="5.56875"></ellipse>
                <path d="M37.1373308,18.5625 C39.1883689,18.5625 40.8510638,16.9003571 40.8510638,14.85 C40.8510638,14.3116431 40.8510638,13.4866431 40.8510638,12.375 L34.6615087,12.375 L34.6615087,18.5625 C35.6699634,18.5625 36.4952374,18.5625 37.1373308,18.5625 Z" id="Oval-Copy-2" fill="#6AB889" transform="translate(37.756286, 15.468750) rotate(180.000000) translate(-37.756286, -15.468750) "></path>
                <path d="M2.47582205,18.5625 C4.52686019,18.5625 6.18955513,16.9003571 6.18955513,14.85 C6.18955513,14.3116431 6.18955513,13.4866431 6.18955513,12.375 L-1.64313008e-14,12.375 L-1.64313008e-14,18.5625 C1.00845471,18.5625 1.83372872,18.5625 2.47582205,18.5625 Z" id="Oval-Copy-3" fill="#6AB889" transform="translate(3.094778, 15.468750) scale(-1, 1) rotate(180.000000) translate(-3.094778, -15.468750) "></path>
                <path d="M17.0831721,11.347875 L17.0831721,7.30125 L17.8011605,7.30125 L17.8011605,9.1389375 L17.8197292,9.1389375 L19.2618956,7.30125 L20.0603482,7.30125 L18.8162476,8.8790625 L20.270793,11.347875 L19.47853,11.347875 L18.3829787,9.442125 L17.8011605,10.1660625 L17.8011605,11.347875 L17.0831721,11.347875 Z M20.7783366,11.347875 L20.7783366,7.30125 L22.1462282,7.30125 C22.3566742,7.30125 22.5526748,7.32187479 22.734236,7.363125 C22.9157972,7.40437521 23.0725977,7.47140579 23.2046422,7.56421875 C23.3366867,7.65703171 23.4408765,7.77974924 23.5172147,7.932375 C23.5935529,8.08500076 23.6317215,8.27474887 23.6317215,8.501625 C23.6317215,8.81100155 23.5584791,9.06056155 23.4119923,9.2503125 C23.2655054,9.44006345 23.0705364,9.57618709 22.8270793,9.6586875 L23.7926499,11.347875 L22.9880077,11.347875 L22.1152805,9.763875 L21.496325,9.763875 L21.496325,11.347875 L20.7783366,11.347875 Z M21.496325,9.194625 L22.0719536,9.194625 C22.3484218,9.194625 22.5598961,9.13687558 22.706383,9.021375 C22.8528698,8.90587442 22.9261122,8.73262616 22.9261122,8.501625 C22.9261122,8.26649882 22.8528698,8.10356295 22.706383,8.0128125 C22.5598961,7.92206205 22.3484218,7.8766875 22.0719536,7.8766875 L21.496325,7.8766875 L21.496325,9.194625 Z" id="KR" fill="#EFEFEF"></path>
            </g>
        </g>
        <g id="Group" transform="translate(2.000000, 31.000000)">
            <path d="M9.97255643,0.868572 C10.5544822,0.958442326 11,1.46147889 11,2.06857171 C11,2.7392032 10.4563458,3.28285743 9.78571429,3.28285743 L1.21428571,3.28285743 C0.543654232,3.28285743 8.21286698e-17,2.7392032 0,2.06857171 C-7.43474289e-17,1.46147889 0.445517845,0.958442326 1.02744357,0.868572 L9.97255643,0.868572 Z" id="Path" fill="#FFBD66"></path>
            <path d="M11,2.06857171 C11,2.7392032 10.4563458,3.28285743 9.78571429,3.28285743 L1.21428571,3.28285743 C0.543654232,3.28285743 8.21286698e-17,2.7392032 0,2.06857171 L11,2.06857171 Z" id="Path" fill="#FFA733"></path>
        </g>
        <g id="Coin-Copy-20" transform="translate(2.000000, 34.280000)">
            <path d="M9.97255643,0.014286 C10.5544822,0.104156326 11,0.607192886 11,1.21428571 C11,1.8849172 10.4563458,2.42857143 9.78571429,2.42857143 L1.21428571,2.42857143 C0.543654232,2.42857143 8.21286698e-17,1.8849172 0,1.21428571 C-7.43474289e-17,0.607192886 0.445517845,0.104156326 1.02744357,0.014286 L9.97255643,0.014286 Z" id="Path" fill="#FFBD66"></path>
            <path d="M11,1.21428571 C11,1.8849172 10.4563458,2.42857143 9.78571429,2.42857143 L1.21428571,2.42857143 C0.543654232,2.42857143 8.21286698e-17,1.8849172 0,1.21428571 L11,1.21428571 Z" id="Path" fill="#FFA733"></path>
        </g>
        <g id="Coin-Copy-20" transform="translate(2.000000, 36.700000)">
            <path d="M9.97255643,0.014286 C10.5544822,0.104156326 11,0.607192886 11,1.21428571 C11,1.8849172 10.4563458,2.42857143 9.78571429,2.42857143 L1.21428571,2.42857143 C0.543654232,2.42857143 8.21286698e-17,1.8849172 0,1.21428571 C-7.43474289e-17,0.607192886 0.445517845,0.104156326 1.02744357,0.014286 L9.97255643,0.014286 Z" id="Path" fill="#FFBD66"></path>
            <path d="M11,1.21428571 C11,1.8849172 10.4563458,2.42857143 9.78571429,2.42857143 L1.21428571,2.42857143 C0.543654232,2.42857143 8.21286698e-17,1.8849172 0,1.21428571 L11,1.21428571 Z" id="Path" fill="#FFA733"></path>
        </g>
        <g id="Coin-Copy-20" transform="translate(2.000000, 39.120000)">
            <path d="M9.97255643,0.014286 C10.5544822,0.104156326 11,0.607192886 11,1.21428571 C11,1.8849172 10.4563458,2.42857143 9.78571429,2.42857143 L1.21428571,2.42857143 C0.543654232,2.42857143 8.21286698e-17,1.8849172 0,1.21428571 C-7.43474289e-17,0.607192886 0.445517845,0.104156326 1.02744357,0.014286 L9.97255643,0.014286 Z" id="Path" fill="#FFBD66"></path>
            <path d="M11,1.21428571 C11,1.8849172 10.4563458,2.42857143 9.78571429,2.42857143 L1.21428571,2.42857143 C0.543654232,2.42857143 8.21286698e-17,1.8849172 0,1.21428571 L11,1.21428571 Z" id="Path" fill="#FFA733"></path>
        </g>
        <g id="Coin-Copy-20" transform="translate(2.000000, 41.550000)">
            <path d="M9.97255643,0.014286 C10.5544822,0.104156326 11,0.607192886 11,1.21428571 C11,1.8849172 10.4563458,2.42857143 9.78571429,2.42857143 L1.21428571,2.42857143 C0.543654232,2.42857143 8.21286698e-17,1.8849172 0,1.21428571 C-7.43474289e-17,0.607192886 0.445517845,0.104156326 1.02744357,0.014286 L9.97255643,0.014286 Z" id="Path" fill="#FFBD66"></path>
            <path d="M11,1.21428571 C11,1.8849172 10.4563458,2.42857143 9.78571429,2.42857143 L1.21428571,2.42857143 C0.543654232,2.42857143 8.21286698e-17,1.8849172 0,1.21428571 L11,1.21428571 Z" id="Path" fill="#FFA733"></path>
        </g>
        <g id="Coin-Copy-20" transform="translate(13.000000, 36.700000)">
            <path d="M9.97255643,0.014286 C10.5544822,0.104156326 11,0.607192886 11,1.21428571 C11,1.8849172 10.4563458,2.42857143 9.78571429,2.42857143 L1.21428571,2.42857143 C0.543654232,2.42857143 8.21286698e-17,1.8849172 0,1.21428571 C-7.43474289e-17,0.607192886 0.445517845,0.104156326 1.02744357,0.014286 L9.97255643,0.014286 Z" id="Path" fill="#FFBD66"></path>
            <path d="M11,1.21428571 C11,1.8849172 10.4563458,2.42857143 9.78571429,2.42857143 L1.21428571,2.42857143 C0.543654232,2.42857143 8.21286698e-17,1.8849172 0,1.21428571 L11,1.21428571 Z" id="Path" fill="#FFA733"></path>
        </g>
        <g id="Coin-Copy-20" transform="translate(13.000000, 39.120000)">
            <path d="M9.97255643,0.014286 C10.5544822,0.104156326 11,0.607192886 11,1.21428571 C11,1.8849172 10.4563458,2.42857143 9.78571429,2.42857143 L1.21428571,2.42857143 C0.543654232,2.42857143 8.21286698e-17,1.8849172 0,1.21428571 C-7.43474289e-17,0.607192886 0.445517845,0.104156326 1.02744357,0.014286 L9.97255643,0.014286 Z" id="Path" fill="#FFBD66"></path>
            <path d="M11,1.21428571 C11,1.8849172 10.4563458,2.42857143 9.78571429,2.42857143 L1.21428571,2.42857143 C0.543654232,2.42857143 8.21286698e-17,1.8849172 0,1.21428571 L11,1.21428571 Z" id="Path" fill="#FFA733"></path>
        </g>
        <g id="Coin-Copy-20" transform="translate(13.000000, 41.550000)">
            <path d="M9.97255643,0.014286 C10.5544822,0.104156326 11,0.607192886 11,1.21428571 C11,1.8849172 10.4563458,2.42857143 9.78571429,2.42857143 L1.21428571,2.42857143 C0.543654232,2.42857143 8.21286698e-17,1.8849172 0,1.21428571 C-7.43474289e-17,0.607192886 0.445517845,0.104156326 1.02744357,0.014286 L9.97255643,0.014286 Z" id="Path" fill="#FFBD66"></path>
            <path d="M11,1.21428571 C11,1.8849172 10.4563458,2.42857143 9.78571429,2.42857143 L1.21428571,2.42857143 C0.543654232,2.42857143 8.21286698e-17,1.8849172 0,1.21428571 L11,1.21428571 Z" id="Path" fill="#FFA733"></path>
        </g>
        <g id="Group" transform="translate(24.000000, 31.000000)">
            <path d="M9.97255643,0.868572 C10.5544822,0.958442326 11,1.46147889 11,2.06857171 C11,2.7392032 10.4563458,3.28285743 9.78571429,3.28285743 L1.21428571,3.28285743 C0.543654232,3.28285743 8.21286698e-17,2.7392032 0,2.06857171 C-7.43474289e-17,1.46147889 0.445517845,0.958442326 1.02744357,0.868572 L9.97255643,0.868572 Z" id="Path" fill="#FFBD66"></path>
            <path d="M11,2.06857171 C11,2.7392032 10.4563458,3.28285743 9.78571429,3.28285743 L1.21428571,3.28285743 C0.543654232,3.28285743 8.21286698e-17,2.7392032 0,2.06857171 L11,2.06857171 Z" id="Path" fill="#FFA733"></path>
        </g>
        <g id="Coin-Copy-20" transform="translate(24.000000, 34.280000)">
            <path d="M9.97255643,0.014286 C10.5544822,0.104156326 11,0.607192886 11,1.21428571 C11,1.8849172 10.4563458,2.42857143 9.78571429,2.42857143 L1.21428571,2.42857143 C0.543654232,2.42857143 8.21286698e-17,1.8849172 0,1.21428571 C-7.43474289e-17,0.607192886 0.445517845,0.104156326 1.02744357,0.014286 L9.97255643,0.014286 Z" id="Path" fill="#FFBD66"></path>
            <path d="M11,1.21428571 C11,1.8849172 10.4563458,2.42857143 9.78571429,2.42857143 L1.21428571,2.42857143 C0.543654232,2.42857143 8.21286698e-17,1.8849172 0,1.21428571 L11,1.21428571 Z" id="Path" fill="#FFA733"></path>
        </g>
        <g id="Coin-Copy-20" transform="translate(24.000000, 36.700000)">
            <path d="M9.97255643,0.014286 C10.5544822,0.104156326 11,0.607192886 11,1.21428571 C11,1.8849172 10.4563458,2.42857143 9.78571429,2.42857143 L1.21428571,2.42857143 C0.543654232,2.42857143 8.21286698e-17,1.8849172 0,1.21428571 C-7.43474289e-17,0.607192886 0.445517845,0.104156326 1.02744357,0.014286 L9.97255643,0.014286 Z" id="Path" fill="#FFBD66"></path>
            <path d="M11,1.21428571 C11,1.8849172 10.4563458,2.42857143 9.78571429,2.42857143 L1.21428571,2.42857143 C0.543654232,2.42857143 8.21286698e-17,1.8849172 0,1.21428571 L11,1.21428571 Z" id="Path" fill="#FFA733"></path>
        </g>
        <g id="Coin-Copy-20" transform="translate(24.000000, 39.120000)">
            <path d="M9.97255643,0.014286 C10.5544822,0.104156326 11,0.607192886 11,1.21428571 C11,1.8849172 10.4563458,2.42857143 9.78571429,2.42857143 L1.21428571,2.42857143 C0.543654232,2.42857143 8.21286698e-17,1.8849172 0,1.21428571 C-7.43474289e-17,0.607192886 0.445517845,0.104156326 1.02744357,0.014286 L9.97255643,0.014286 Z" id="Path" fill="#FFBD66"></path>
            <path d="M11,1.21428571 C11,1.8849172 10.4563458,2.42857143 9.78571429,2.42857143 L1.21428571,2.42857143 C0.543654232,2.42857143 8.21286698e-17,1.8849172 0,1.21428571 L11,1.21428571 Z" id="Path" fill="#FFA733"></path>
        </g>
        <g id="Coin-Copy-20" transform="translate(24.000000, 41.550000)">
            <path d="M9.97255643,0.014286 C10.5544822,0.104156326 11,0.607192886 11,1.21428571 C11,1.8849172 10.4563458,2.42857143 9.78571429,2.42857143 L1.21428571,2.42857143 C0.543654232,2.42857143 8.21286698e-17,1.8849172 0,1.21428571 C-7.43474289e-17,0.607192886 0.445517845,0.104156326 1.02744357,0.014286 L9.97255643,0.014286 Z" id="Path" fill="#FFBD66"></path>
            <path d="M11,1.21428571 C11,1.8849172 10.4563458,2.42857143 9.78571429,2.42857143 L1.21428571,2.42857143 C0.543654232,2.42857143 8.21286698e-17,1.8849172 0,1.21428571 L11,1.21428571 Z" id="Path" fill="#FFA733"></path>
        </g>
        <g id="Group" transform="translate(35.000000, 31.000000)">
            <path d="M9.97255643,0.868572 C10.5544822,0.958442326 11,1.46147889 11,2.06857171 C11,2.7392032 10.4563458,3.28285743 9.78571429,3.28285743 L1.21428571,3.28285743 C0.543654232,3.28285743 8.21286698e-17,2.7392032 0,2.06857171 C-7.43474289e-17,1.46147889 0.445517845,0.958442326 1.02744357,0.868572 L9.97255643,0.868572 Z" id="Path" fill="#FFBD66"></path>
            <path d="M11,2.06857171 C11,2.7392032 10.4563458,3.28285743 9.78571429,3.28285743 L1.21428571,3.28285743 C0.543654232,3.28285743 8.21286698e-17,2.7392032 0,2.06857171 L11,2.06857171 Z" id="Path" fill="#FFA733"></path>
        </g>
        <g id="Coin-Copy-20" transform="translate(35.000000, 34.280000)">
            <path d="M9.97255643,0.014286 C10.5544822,0.104156326 11,0.607192886 11,1.21428571 C11,1.8849172 10.4563458,2.42857143 9.78571429,2.42857143 L1.21428571,2.42857143 C0.543654232,2.42857143 8.21286698e-17,1.8849172 0,1.21428571 C-7.43474289e-17,0.607192886 0.445517845,0.104156326 1.02744357,0.014286 L9.97255643,0.014286 Z" id="Path" fill="#FFBD66"></path>
            <path d="M11,1.21428571 C11,1.8849172 10.4563458,2.42857143 9.78571429,2.42857143 L1.21428571,2.42857143 C0.543654232,2.42857143 8.21286698e-17,1.8849172 0,1.21428571 L11,1.21428571 Z" id="Path" fill="#FFA733"></path>
        </g>
        <g id="Coin-Copy-20" transform="translate(35.000000, 36.700000)">
            <path d="M9.97255643,0.014286 C10.5544822,0.104156326 11,0.607192886 11,1.21428571 C11,1.8849172 10.4563458,2.42857143 9.78571429,2.42857143 L1.21428571,2.42857143 C0.543654232,2.42857143 8.21286698e-17,1.8849172 0,1.21428571 C-7.43474289e-17,0.607192886 0.445517845,0.104156326 1.02744357,0.014286 L9.97255643,0.014286 Z" id="Path" fill="#FFBD66"></path>
            <path d="M11,1.21428571 C11,1.8849172 10.4563458,2.42857143 9.78571429,2.42857143 L1.21428571,2.42857143 C0.543654232,2.42857143 8.21286698e-17,1.8849172 0,1.21428571 L11,1.21428571 Z" id="Path" fill="#FFA733"></path>
        </g>
        <g id="Coin-Copy-20" transform="translate(35.000000, 39.120000)">
            <path d="M9.97255643,0.014286 C10.5544822,0.104156326 11,0.607192886 11,1.21428571 C11,1.8849172 10.4563458,2.42857143 9.78571429,2.42857143 L1.21428571,2.42857143 C0.543654232,2.42857143 8.21286698e-17,1.8849172 0,1.21428571 C-7.43474289e-17,0.607192886 0.445517845,0.104156326 1.02744357,0.014286 L9.97255643,0.014286 Z" id="Path" fill="#FFBD66"></path>
            <path d="M11,1.21428571 C11,1.8849172 10.4563458,2.42857143 9.78571429,2.42857143 L1.21428571,2.42857143 C0.543654232,2.42857143 8.21286698e-17,1.8849172 0,1.21428571 L11,1.21428571 Z" id="Path" fill="#FFA733"></path>
        </g>
        <g id="Coin-Copy-20" transform="translate(35.000000, 41.550000)">
            <path d="M9.97255643,0.014286 C10.5544822,0.104156326 11,0.607192886 11,1.21428571 C11,1.8849172 10.4563458,2.42857143 9.78571429,2.42857143 L1.21428571,2.42857143 C0.543654232,2.42857143 8.21286698e-17,1.8849172 0,1.21428571 C-7.43474289e-17,0.607192886 0.445517845,0.104156326 1.02744357,0.014286 L9.97255643,0.014286 Z" id="Path" fill="#FFBD66"></path>
            <path d="M11,1.21428571 C11,1.8849172 10.4563458,2.42857143 9.78571429,2.42857143 L1.21428571,2.42857143 C0.543654232,2.42857143 8.21286698e-17,1.8849172 0,1.21428571 L11,1.21428571 Z" id="Path" fill="#FFA733"></path>
        </g>
        <g id="Group" transform="translate(24.000000, 28.580000)">
            <path d="M9.97255643,0.868572 C10.5544822,0.958442326 11,1.46147889 11,2.06857171 C11,2.7392032 10.4563458,3.28285743 9.78571429,3.28285743 L1.21428571,3.28285743 C0.543654232,3.28285743 8.21286698e-17,2.7392032 0,2.06857171 C-7.43474289e-17,1.46147889 0.445517845,0.958442326 1.02744357,0.868572 L9.97255643,0.868572 Z" id="Path" fill="#FFBD66"></path>
            <path d="M11,2.06857171 C11,2.7392032 10.4563458,3.28285743 9.78571429,3.28285743 L1.21428571,3.28285743 C0.543654232,3.28285743 8.21286698e-17,2.7392032 0,2.06857171 L11,2.06857171 Z" id="Path" fill="#FFA733"></path>
        </g>
    </g>
</svg>