<svg xmlns="http://www.w3.org/2000/svg" width="62" height="80" viewBox="0 0 62 80">
    <g fill="none" fill-rule="evenodd">
        <path fill="#E4E4DB" d="M0 13.322v62.635A4.036 4.036 0 0 0 4.029 80h53.944A4.035 4.035 0 0 0 62 75.957V4.043A4.035 4.035 0 0 0 57.973 0H14.021L0 13.322z"/>
        <path fill="#C9C9C9" d="M14.149 0v9.285c0 2.235-1.82 4.046-4.066 4.046H0L14.149 0z"/>
        <g fill-rule="nonzero" transform="translate(7 21)">
            <circle cx="18.5" cy="18.5" r="18.5" fill="#FFF"/>
            <path fill="#66CBEC" d="M9.11 2.55A18.04 18.04 0 0 1 18.379 0a18.798 18.798 0 0 1 14.354 6.661c-4.398-1.17-8.906-.427-13.522 2.229-4.943 2.843-7.893 6.046-8.852 9.61-2.067-3.854-2.72-8.094-1.957-12.719.189-1.148.425-2.225.708-3.231z"/>
            <path fill="#FA96A0" d="M5.044 31.198a10.414 10.414 0 0 1-.4-3.553c.233-3.784 1.775-6.832 4.626-9.145 1.428 5.396 4.61 9.25 9.544 11.563 4.507 2.112 9.028 2.295 13.561.548C28.996 34.524 24.009 37 18.445 37c-5.28 0-10.042-2.23-13.401-5.802z"/>
            <circle cx="9.25" cy="18.5" r="4.625" fill="#ADDFF0"/>
        </g>
        <path fill="#A33C28" d="M54 34.29c0-.713-.591-1.29-1.32-1.29H34v25h18.679c.73 0 1.321-.577 1.321-1.29V34.29z"/>
        <path fill="#EEC55B" d="M39.455 51.314V48.67h1.015c.179 0 .315.008.41.025a.82.82 0 0 1 .332.124c.089.06.16.146.215.255.055.11.082.23.082.36a.804.804 0 0 1-.218.571c-.146.156-.41.234-.79.234h-.69v1.075h-.356zm.356-1.387h.696c.23 0 .393-.042.49-.126a.446.446 0 0 0 .145-.356.472.472 0 0 0-.086-.284.399.399 0 0 0-.224-.156 1.549 1.549 0 0 0-.333-.023h-.688v.945zm1.856 1.387L42.7 48.67h.383l1.102 2.644h-.406l-.314-.801h-1.125l-.296.8h-.378zm.777-1.086h.912l-.28-.732a7.147 7.147 0 0 1-.192-.548c-.034.17-.082.338-.145.505l-.295.775zm1.905.236l.336-.029a.72.72 0 0 0 .111.326.605.605 0 0 0 .271.205c.123.053.26.079.413.079.136 0 .256-.02.36-.06a.499.499 0 0 0 .232-.163.374.374 0 0 0 .077-.226.34.34 0 0 0-.074-.217.545.545 0 0 0-.242-.156 4.804 4.804 0 0 0-.48-.13 2.48 2.48 0 0 1-.519-.164.725.725 0 0 1-.287-.246.595.595 0 0 1-.095-.33c0-.133.039-.258.116-.374a.714.714 0 0 1 .338-.264c.148-.06.312-.09.494-.09.2 0 .375.032.527.095a.759.759 0 0 1 .484.695l-.341.025a.538.538 0 0 0-.187-.379c-.106-.085-.262-.128-.469-.128-.215 0-.372.04-.47.117a.347.347 0 0 0-.148.28c0 .095.034.173.104.234.069.062.248.125.537.189.29.064.488.12.596.169.157.07.272.16.347.27a.648.648 0 0 1 .112.375.71.71 0 0 1-.123.398.806.806 0 0 1-.353.29 1.25 1.25 0 0 1-.52.104c-.243 0-.447-.035-.611-.105a.854.854 0 0 1-.536-.79zm2.508 0l.336-.029a.72.72 0 0 0 .111.326.605.605 0 0 0 .271.205c.123.053.26.079.413.079.136 0 .256-.02.36-.06a.499.499 0 0 0 .232-.163.374.374 0 0 0 .077-.226.34.34 0 0 0-.074-.217.545.545 0 0 0-.242-.156 4.804 4.804 0 0 0-.48-.13 2.48 2.48 0 0 1-.519-.164.725.725 0 0 1-.287-.246.595.595 0 0 1-.095-.33c0-.133.039-.258.116-.374a.714.714 0 0 1 .338-.264c.148-.06.312-.09.494-.09.2 0 .375.032.527.095a.759.759 0 0 1 .484.695l-.341.025a.538.538 0 0 0-.187-.379c-.106-.085-.262-.128-.469-.128-.215 0-.372.04-.47.117a.347.347 0 0 0-.148.28c0 .095.034.173.104.234.069.062.248.125.537.189.29.064.488.12.596.169.157.07.272.16.347.27a.648.648 0 0 1 .112.375.71.71 0 0 1-.123.398.806.806 0 0 1-.353.29 1.25 1.25 0 0 1-.52.104c-.243 0-.447-.035-.611-.105a.854.854 0 0 1-.536-.79zM37.636 46.349V43.76h.362l1.402 2.033V43.76h.338v2.589h-.362l-1.401-2.034v2.034h-.339zm2.588-1.261c0-.43.119-.766.357-1.01.237-.242.544-.364.92-.364.247 0 .469.057.666.172.198.114.349.273.453.477.103.204.155.436.155.695 0 .262-.054.497-.164.705a1.1 1.1 0 0 1-.464.47c-.2.107-.416.16-.647.16a1.29 1.29 0 0 1-.674-.177 1.15 1.15 0 0 1-.45-.482 1.425 1.425 0 0 1-.152-.646zm.364.005c0 .312.086.558.26.737.172.18.389.27.65.27.265 0 .484-.09.656-.272.171-.181.257-.439.257-.772 0-.21-.036-.394-.11-.552a.828.828 0 0 0-.322-.365.893.893 0 0 0-.476-.13.917.917 0 0 0-.645.25c-.18.167-.27.445-.27.834zm2.648 1.256V43.76h1.182c.238 0 .419.023.543.07a.589.589 0 0 1 .296.246.719.719 0 0 1 .111.39.64.64 0 0 1-.184.465c-.122.126-.311.206-.567.24a.92.92 0 0 1 .213.129c.103.092.2.206.293.344l.464.705h-.444l-.353-.539a4.909 4.909 0 0 0-.255-.356.79.79 0 0 0-.18-.174.538.538 0 0 0-.16-.068 1.092 1.092 0 0 0-.197-.013h-.41v1.15h-.352zm.353-1.446h.758c.162 0 .288-.017.379-.049a.401.401 0 0 0 .278-.388.38.38 0 0 0-.137-.301c-.092-.08-.236-.119-.434-.119h-.844v.857zm3.58.43v-.303l1.13-.002v.96a2.01 2.01 0 0 1-.536.303 1.635 1.635 0 0 1-.568.102c-.262 0-.5-.055-.714-.163a1.097 1.097 0 0 1-.485-.473 1.451 1.451 0 0 1-.164-.69c0-.252.055-.487.163-.706.109-.218.265-.38.469-.486.203-.106.438-.159.704-.159.193 0 .367.03.523.091.156.06.278.145.367.253.088.109.156.25.202.424l-.319.085a.944.944 0 0 0-.149-.31.611.611 0 0 0-.255-.182.96.96 0 0 0-.367-.068c-.162 0-.301.024-.419.072a.782.782 0 0 0-.285.188.894.894 0 0 0-.168.256 1.32 1.32 0 0 0-.102.52c0 .231.041.424.123.58.082.155.201.27.358.346.156.075.322.113.498.113.153 0 .302-.029.448-.086.145-.057.256-.118.331-.183v-.482h-.784zm1.658 1.016V43.76h1.93v.306H49.18v.792h1.476v.304H49.18v.881h1.638v.306h-1.99zM45.151 38.357h-2.515v.261c0 .392.076 1.192.212 1.529.232.576.641 1.048 1.152 1.335.51-.287.92-.759 1.151-1.335.136-.337.213-1.137.213-1.529v-.26h-.213z"/>
    </g>
</svg>
