<svg width="62px" height="80px" viewBox="0 0 62 80" version="1.1" xmlns="http://www.w3.org/2000/svg" xmlns:xlink="http://www.w3.org/1999/xlink">
    <g id="Illustrations/beregning" stroke="none" stroke-width="1" fill="none" fill-rule="evenodd">
        <path d="M0,13.3217227 L0,75.9572312 C0,78.1898902 1.80341708,80 4.02895891,80 L57.9733167,80 C60.1965829,80 62,78.1898902 62,75.9572312 L62,4.04276884 C62,1.81010978 60.1965829,0 57.9733167,0 L14.0211411,0 L0,13.3217227 Z" id="Background" fill="#E4E4DB"></path>
        <path d="M14.1486296,0 L14.1486296,9.28457143 C14.1486296,11.52 12.3288148,13.3314286 10.083037,13.3314286 L0,13.3314286 L14.1486296,0 Z" id="Corner" fill="#C9C9C9"></path>
        <g id="Icon" transform="translate(22.000000, 28.000000)" stroke="#3E3832" stroke-linejoin="round">
            <path d="M18,21 C18,22.375 16.875,23.5 15.5,23.5 L2.5,23.5 C1.125,23.5 0,22.375 0,21 L0,3 C0,1.625 1.125,0.5 2.5,0.5 L15.5,0.5 C16.875,0.5 18,1.625 18,3 L18,21 L18,21 Z" id="Stroke-4860"></path>
            <path d="M16,5.606 C16,6.098 15.598,6.5 15.105,6.5 L2.894,6.5 C2.402,6.5 2,6.098 2,5.606 L2,3.395 C2,2.902 2.402,2.5 2.894,2.5 L15.105,2.5 C15.598,2.5 16,2.902 16,3.395 L16,5.606 L16,5.606 Z" id="Stroke-4861"></path>
            <path d="M0,15.5 L18,15.5" id="Stroke-4862"></path>
            <path d="M0,8.5 L18,8.5" id="Stroke-4863"></path>
            <path d="M9,8.5 L9,23.5" id="Stroke-4864"></path>
            <path d="M11.0999966,12 L16,12" id="Stroke-4866"></path>
            <path d="M2.9000001,17.8999996 L5.9000001,20.8999996" id="Stroke-4867"></path>
            <path d="M2.9000001,20.8999996 L5.9000001,17.8999996" id="Stroke-4868"></path>
            <path d="M11.5,20.3999996 L15.5,20.3999996" id="Stroke-4869"></path>
            <path d="M11.5,18.3999996 L15.5,18.3999996" id="Stroke-4870"></path>
            <path d="M2.4000001,12 L6.4000001,12" id="Stroke-4865"></path>
            <path d="M4.4000001,10 L4.4000001,14" id="Stroke-4871"></path>
        </g>
    </g>
</svg>