<?xml version="1.0" encoding="UTF-8"?>
<svg width="62px" height="80px" viewBox="0 0 62 80" version="1.1" xmlns="http://www.w3.org/2000/svg" xmlns:xlink="http://www.w3.org/1999/xlink">
    <!-- Generator: Sketch 52.1 (67048) - http://www.bohemiancoding.com/sketch -->
    <title>Illustrations/ferie</title>
    <desc>Created with Sketch.</desc>
    <defs>
        <path d="M-1.13686838e-13,13.3217227 L-1.13686838e-13,75.9572312 C-1.13686838e-13,78.1898902 1.80341708,80 4.02895891,80 L57.9733167,80 C60.1965829,80 62,78.1898902 62,75.9572312 L62,4.04276884 C62,1.81010978 60.1965829,0 57.9733167,0 L14.0211411,0 L-1.13686838e-13,13.3217227 Z" id="path-1"></path>
    </defs>
    <g id="Illustrations/ferie" stroke="none" stroke-width="1" fill="none" fill-rule="evenodd">
        <mask id="mask-2" fill="white">
            <use xlink:href="#path-1"></use>
        </mask>
        <g id="Mask"></g>
        <g id="farger/-ark/-lys-grå" mask="url(#mask-2)" fill="#E4E4DB">
            <g transform="translate(-9.185185, -11.428571)">
                <rect x="0" y="0" width="79" height="102"></rect>
            </g>
        </g>
        <path d="M14.1486296,0 L14.1486296,9.28457143 C14.1486296,11.52 12.3288148,13.3314286 10.083037,13.3314286 L0,13.3314286 L14.1486296,0 Z" id="Fill-59" fill="#C9C9C9" mask="url(#mask-2)"></path>
        <g id="Icons/vacation/outline/dark" mask="url(#mask-2)" stroke="#3E3832" stroke-linecap="round" stroke-linejoin="round">
            <g transform="translate(19.000000, 28.000000)">
                <path d="M23.5,16.4844 L17.5,16.4844 C15.049,16.4844 12.879,17.2724 11.51,18.4844" id="Stroke-8244"></path>
                <path d="M17.5,16.5 L14.184,8.133" id="Stroke-8245"></path>
                <path d="M11.6055,1.6245 L11.2365,0.6955" id="Stroke-8246"></path>
                <path d="M11.6055,1.6245 C6.7275,3.5575 3.5605,7.1105 4.9845,10.7035 L5.3525,11.6335 L7.6765,10.7115 L8.2385,9.4135 L9.5365,9.9755 L18.8325,6.2905 L19.3935,4.9935 L20.6915,5.5535 L23.0155,4.6325 L22.6475,3.7025 C21.2225,0.1085 16.4825,-0.3085 11.6055,1.6245 L11.6055,1.6245 Z" id="Stroke-8247"></path>
                <path d="M23.5,22.5 C22.5,22.5 21.5,21.604 21.5,20.5 C21.5,21.604 20.5,22.5 19.5,22.5 C18.5,22.5 17.5,21.604 17.5,20.5 C17.5,21.604 16.5,22.5 15.5,22.5 C14.5,22.5 13.5,21.604 13.5,20.5 C13.5,21.604 12.5,22.5 11.5,22.5 C10.5,22.5 9.5,21.604 9.5,20.5 C9.5,21.604 8.5,22.5 7.5,22.5 C6.5,22.5 5.5,21.604 5.5,20.5 C5.5,21.604 4.5,22.5 3.5,22.5 C2.5,22.5 1.5,21.604 1.5,20.5 C1.5,21.19 1.037,21.799 0.5,22.159" id="Stroke-8248"></path>
            </g>
        </g>
    </g>
</svg>