<svg width="62px" height="80px" viewBox="0 0 62 80" version="1.1" xmlns="http://www.w3.org/2000/svg" xmlns:xlink="http://www.w3.org/1999/xlink">
    <g id="Illustrations/hjemme-samtidig" stroke="none" stroke-width="1" fill="none" fill-rule="evenodd">
        <path d="M0,13.3217227 L0,75.9572312 C0,78.1898902 1.80341708,80 4.02895891,80 L57.9733167,80 C60.1965829,80 62,78.1898902 62,75.9572312 L62,4.04276884 C62,1.81010978 60.1965829,0 57.9733167,0 L14.0211411,0 L0,13.3217227 Z" id="Mask" fill="#E4E4DB"></path>
        <g id="Icon" transform="translate(19.000000, 28.000000)" fill="#3E3832">
            <path d="M12,23.5 C5.64872538,23.5 0.5,18.3512746 0.5,12 C0.5,5.64872538 5.64872538,0.5 12,0.5 C18.3512746,0.5 23.5,5.64872538 23.5,12 C23.5,18.3512746 18.3512746,23.5 12,23.5 Z M12,22.5 C17.7989899,22.5 22.5,17.7989899 22.5,12 C22.5,6.20101013 17.7989899,1.5 12,1.5 C6.20101013,1.5 1.5,6.20101013 1.5,12 C1.5,17.7989899 6.20101013,22.5 12,22.5 Z M11.5,18.5 L11.5,10.5 L10,10.5 C9.72385763,10.5 9.5,10.2761424 9.5,10 C9.5,9.72385763 9.72385763,9.5 10,9.5 L12,9.5 C12.2761424,9.5 12.5,9.72385763 12.5,10 L12.5,18.5 L15,18.5 C15.2761424,18.5 15.5,18.7238576 15.5,19 C15.5,19.2761424 15.2761424,19.5 15,19.5 L9,19.5 C8.72385763,19.5 8.5,19.2761424 8.5,19 C8.5,18.7238576 8.72385763,18.5 9,18.5 L11.5,18.5 Z M11.5,5 C12.0522847,5 12.5,5.44771525 12.5,6 C12.5,6.55228475 12.0522847,7 11.5,7 C10.9477153,7 10.5,6.55228475 10.5,6 C10.5,5.44771525 10.9477153,5 11.5,5 Z"></path>
        </g>
        <path d="M14.1486296,0 L14.1486296,9.28457143 C14.1486296,11.52 12.3288148,13.3314286 10.083037,13.3314286 L0,13.3314286 L14.1486296,0 Z" id="Corner" fill="#C9C9C9"></path>
    </g>
</svg>