<svg width="62px" height="80px" viewBox="0 0 62 80" version="1.1" xmlns="http://www.w3.org/2000/svg" xmlns:xlink="http://www.w3.org/1999/xlink">
    <g id="Illustrations/info" stroke="none" stroke-width="1" fill="none" fill-rule="evenodd">
        <path d="M-1.13686838e-13,13.3217227 L-1.13686838e-13,75.9572312 C-1.13686838e-13,78.1898902 1.80341708,80 4.02895891,80 L57.9733167,80 C60.1965829,80 62,78.1898902 62,75.9572312 L62,4.04276884 C62,1.81010978 60.1965829,0 57.9733167,0 L14.0211411,0 L-1.13686838e-13,13.3217227 Z" id="Background" fill="#E4E4DB"></path>
        <g id="Icon" transform="translate(26.259259, 29.074074)" fill="#515658">
            <polygon id="Fill-100" points="7.77303704 19.8015407 7.77303704 11.2030222 7.77303704 9.10228148 1.7197037 9.10228148 0 9.10228148 0 11.2030222 1.7197037 11.2030222 1.7197037 19.8015407 0 19.8015407 0 21.9022815 9.49214815 21.9022815 9.49214815 19.8015407"></polygon>
            <path d="M4.74642963,7.31081481 C6.7648,7.31081481 8.40213333,5.67407407 8.40213333,3.6557037 C8.40213333,1.63674074 6.7648,0 4.74642963,0 C2.72746667,0 1.09072593,1.63674074 1.09072593,3.6557037 C1.09072593,5.67407407 2.72746667,7.31081481 4.74642963,7.31081481" id="Fill-101"></path>
        </g>
        <path d="M14.1486296,0 L14.1486296,9.28457143 C14.1486296,11.52 12.3288148,13.3314286 10.083037,13.3314286 L0,13.3314286 L14.1486296,0 Z" id="Corner" fill="#C9C9C9"></path>
    </g>
</svg>