<?xml version="1.0" encoding="UTF-8"?>
<svg width="62px" height="80px" viewBox="0 0 62 80" version="1.1" xmlns="http://www.w3.org/2000/svg" xmlns:xlink="http://www.w3.org/1999/xlink">
    <!-- Generator: Sketch 52.1 (67048) - http://www.bohemiancoding.com/sketch -->
    <title>Illustrations/page Copy 3</title>
    <desc>Created with Sketch.</desc>
    <defs>
        <path d="M-1.13686838e-13,13.3217227 L-1.13686838e-13,75.9572312 C-1.13686838e-13,78.1898902 1.80341708,80 4.02895891,80 L57.9733167,80 C60.1965829,80 62,78.1898902 62,75.9572312 L62,4.04276884 C62,1.81010978 60.1965829,0 57.9733167,0 L14.0211411,0 L-1.13686838e-13,13.3217227 Z" id="path-1"></path>
    </defs>
    <g id="Illustrations/page-Copy-3" stroke="none" stroke-width="1" fill="none" fill-rule="evenodd">
        <mask id="mask-2" fill="white">
            <use xlink:href="#path-1"></use>
        </mask>
        <g id="Mask"></g>
        <g id="farger/-ark/-lys-grå" mask="url(#mask-2)" fill="#E4E4DB">
            <g transform="translate(-9.000000, -11.000000)">
                <rect x="0" y="0" width="79" height="102"></rect>
            </g>
        </g>
        <g id="dokumenter/-ark/-innhold/-info" mask="url(#mask-2)">
            <g transform="translate(15.000000, 19.000000)" id="Group">
                <g transform="translate(11.259259, 9.957143)">
                    <polygon id="Fill-100" fill="#515658" points="7.77303704 19.5717014 7.77303704 11.0729871 7.77303704 8.99663 1.7197037 8.99663 0 8.99663 0 11.0729871 1.7197037 11.0729871 1.7197037 19.5717014 0 19.5717014 0 21.6480586 9.49214815 21.6480586 9.49214815 19.5717014"></polygon>
                    <path d="M4.74642963,7.22595714 C6.7648,7.22595714 8.40213333,5.60821429 8.40213333,3.61327143 C8.40213333,1.61774286 6.7648,0 4.74642963,0 C2.72746667,0 1.09072593,1.61774286 1.09072593,3.61327143 C1.09072593,5.60821429 2.72746667,7.22595714 4.74642963,7.22595714" id="Fill-101" fill="#515658"></path>
                </g>
            </g>
        </g>
        <path d="M14.1486296,0 L14.1486296,9.28457143 C14.1486296,11.52 12.3288148,13.3314286 10.083037,13.3314286 L0,13.3314286 L14.1486296,0 Z" id="Fill-59" fill="#C9C9C9" mask="url(#mask-2)"></path>
    </g>
</svg>