<svg width="62px" height="80px" viewBox="0 0 62 80" version="1.1" xmlns="http://www.w3.org/2000/svg" xmlns:xlink="http://www.w3.org/1999/xlink">
    <g id="Illustrations/jobbe" stroke="none" stroke-width="1" fill="none" fill-rule="evenodd">
        <path d="M0,13.3217227 L0,75.9572312 C0,78.1898902 1.80341708,80 4.02895891,80 L57.9733167,80 C60.1965829,80 62,78.1898902 62,75.9572312 L62,4.04276884 C62,1.81010978 60.1965829,0 57.9733167,0 L14.0211411,0 L0,13.3217227 Z" id="Background" fill="#E4E4DB"></path>
        <path d="M14.1486296,0 L14.1486296,9.28457143 C14.1486296,11.52 12.3288148,13.3314286 10.083037,13.3314286 L0,13.3314286 L14.1486296,0 Z" id="Corner" fill="#C9C9C9"></path>
        <polyline id="Handle" stroke="#0A0A0A" stroke-linecap="round" stroke-linejoin="round" points="27.6111111 31.627907 27.6111111 28.2790698 35.3888889 28.2790698 35.3888889 31.627907"></polyline>
        <path d="M28.7222222,43.9069767 L19.2777778,43.9069767 L19.2777778,32.744186 C19.2777778,32.1274419 19.775,31.627907 20.3888889,31.627907 L42.6111111,31.627907 C43.225,31.627907 43.7222222,32.1274419 43.7222222,32.744186 L43.7222222,43.9069767 L34.2777778,43.9069767" id="Top" stroke="#0A0A0A" stroke-linecap="round" stroke-linejoin="round"></path>
        <path d="M42.6111111,46.6976744 L42.6111111,50.6046512 C42.6111111,51.2213953 42.1138889,51.7209302 41.5,51.7209302 L21.5,51.7209302 C20.8861111,51.7209302 20.3888889,51.2213953 20.3888889,50.6046512 L20.3888889,46.6976744" id="Bottom" stroke="#0A0A0A" stroke-linecap="round" stroke-linejoin="round"></path>
        <rect id="Rectangle" stroke="#0A0A0A" stroke-linecap="round" stroke-linejoin="round" x="28.7222222" y="41.6744186" width="5.55555556" height="4.46511628"></rect>
    </g>
</svg>