<svg width="62" height="80" viewBox="0 0 62 80" fill="none" xmlns="http://www.w3.org/2000/svg">
<path fill-rule="evenodd" clip-rule="evenodd" d="M0 13.7143V75.9572C0 78.1899 1.80342 80 4.02896 80H57.9733C60.1966 80 62 78.1899 62 75.9572V4.04277C62 1.81011 60.1966 0 57.9733 0H14.9259L0 13.7143Z" fill="#C4C4C4"/>
<path fill-rule="evenodd" clip-rule="evenodd" d="M0 13.7143V75.9572C0 78.1899 1.80342 80 4.02896 80H57.9733C60.1966 80 62 78.1899 62 75.9572V4.04277C62 1.81011 60.1966 0 57.9733 0H14.9259L0 13.7143Z" fill="url(#paint0_linear)"/>
<path fill-rule="evenodd" clip-rule="evenodd" d="M14.9259 0V9.55121C14.9259 11.8508 13.0061 13.7143 10.637 13.7143H0L14.9259 0Z" fill="#C9C9C9"/>
<path fill-rule="evenodd" clip-rule="evenodd" d="M43.3947 33.9177C42.2847 37.3972 40.1116 40.2853 37.3267 42.0528L37.4693 43.6023L37.4685 43.6653L35.9631 56.4375H26.4152L26.3755 56.1692L24.5297 43.6433L24.5981 42.0767C21.799 40.3139 19.6137 37.421 18.4973 33.9323C18.4595 33.9357 18.4211 33.9375 18.3823 33.9375C17.6603 33.9375 17.0882 33.328 17.0882 32.5895V28.4111C17.0882 27.9161 17.3452 27.4788 17.7322 27.2442C18.3359 19.4434 24.0072 13.3125 30.9434 13.3125C37.8609 13.3125 43.5208 19.4104 44.1503 27.1809C44.6021 27.3931 44.9118 27.8671 44.9118 28.4111V32.5895C44.9118 33.3283 44.3405 33.9375 43.6176 33.9375C43.5415 33.9375 43.467 33.9307 43.3947 33.9177Z" fill="#E7E9E9"/>
<path fill-rule="evenodd" clip-rule="evenodd" d="M36.9904 42.4852C36.9361 45.2744 34.2749 48.1359 31 48.1359C27.7108 48.1359 25.0407 45.2494 25.009 42.4488C23.3048 42.866 20.7033 44.1244 18.5561 46.2273C16.4768 48.2638 14.8235 51.3248 14.8235 53.6994V68H47.1765V53.6994C47.1765 51.32 45.4875 48.2537 43.3698 46.2149C41.252 44.1762 38.7056 42.9348 36.9904 42.4852Z" fill="#C1B5D0"/>
<path fill-rule="evenodd" clip-rule="evenodd" d="M24.9014 42.5456C23.3316 43.0961 20.6981 44.2994 18.7059 46.1267C12.8824 44.875 10.2941 41.9006 10.2941 41.9006C10.2941 41.9006 15.6594 36.8456 15.6627 28.0044V27.995C15.6627 17.6425 21.4489 10.5 30.9819 10.5C40.5161 10.5 46.3024 17.6425 46.3024 27.995H46.3367C46.3367 36.8425 51.7059 41.9006 51.7059 41.9006C51.7059 41.9006 49.1177 44.875 43.2941 46.125L43.2853 46.1267C41.3611 44.4359 38.5703 43.1318 37.052 42.5804L37.0537 42.5799L36.9934 41.9245L37.026 41.8702C39.8909 40.1001 42.1138 37.1181 43.1855 33.5149C43.3167 33.5853 43.4649 33.625 43.6217 33.625C44.1583 33.625 44.5924 33.1625 44.5924 32.5895V28.4111C44.5924 27.9209 44.2746 27.511 43.8467 27.4029C43.8463 27.3972 43.8459 27.3916 43.8455 27.3859C30.3005 28.8459 25.4213 19.8756 25.0208 19.875C25.0208 19.875 20.5225 23 18.3726 26.7154C18.3726 26.7154 18.0449 27.4168 18.0434 27.4404C17.6753 27.5874 17.4128 27.9661 17.4128 28.4111V32.5895C17.4128 33.1625 17.8481 33.625 18.3835 33.625C18.5021 33.625 18.6158 33.6024 18.7208 33.5609C19.8044 37.166 22.0414 40.1447 24.9198 41.9031L24.9304 41.9245L24.9033 42.5456H24.9014Z" fill="#FFD399"/>
<path fill-rule="evenodd" clip-rule="evenodd" d="M26.3738 30.4195C25.5377 30.4848 25.3037 29.2061 25.5556 28.371C25.603 28.2128 25.8797 27.4922 26.3697 27.4922C26.8592 27.4922 27.0753 27.886 27.1053 27.9538C27.4653 28.7679 27.2885 30.3475 26.3738 30.4195" fill="#3E3832"/>
<path fill-rule="evenodd" clip-rule="evenodd" d="M36.0711 30.4195C36.9072 30.4848 37.1412 29.2061 36.8893 28.371C36.8419 28.2128 36.5651 27.4922 36.0751 27.4922C35.5857 27.4922 35.3696 27.886 35.3395 27.9538C34.9796 28.7679 35.1564 30.3475 36.0711 30.4195" fill="#3E3832"/>
<path d="M31.5324 31.6796C32.0324 31.5969 32.3738 31.6488 32.4961 31.8101C32.9577 32.4198 32.8101 33.0649 32.0181 33.5944C31.6018 33.8727 31.0286 33.9706 30.7252 33.8263C30.5769 33.7558 30.4034 33.8278 30.3377 33.9873C30.272 34.1467 30.3391 34.3332 30.4875 34.4038C30.9889 34.6423 31.7601 34.5105 32.3285 34.1306C33.4047 33.411 33.6509 32.335 32.9517 31.4114C32.6558 31.0211 32.1321 30.9415 31.443 31.0555C31.2826 31.082 31.1726 31.2433 31.1973 31.4156C31.222 31.5879 31.372 31.7061 31.5324 31.6796Z" fill="#3E3832"/>
<path d="M35.1481 35.8699C35.1187 35.93 35.0514 36.0451 34.9432 36.1967C34.76 36.4533 34.5299 36.7105 34.2505 36.9504C33.4179 37.6652 32.3341 38.0786 30.9548 38.0408C29.6099 38.0039 28.531 37.597 27.6851 36.9407C27.3746 36.6997 27.1182 36.4417 26.9132 36.1845C26.7924 36.0328 26.7169 35.9178 26.6839 35.8578C26.6045 35.7137 26.4094 35.6543 26.2481 35.7253C26.0867 35.7962 26.0203 35.9706 26.0997 36.1147C26.1475 36.2016 26.2406 36.3434 26.3828 36.5219C26.6164 36.815 26.9068 37.1073 27.2583 37.38C28.2132 38.1209 29.4335 38.5812 30.9349 38.6223C32.4983 38.6652 33.7482 38.1884 34.7016 37.3699C35.0204 37.0963 35.2824 36.8033 35.4921 36.5096C35.6196 36.331 35.7025 36.1893 35.7448 36.1027C35.8167 35.9554 35.7415 35.784 35.5767 35.7197C35.4119 35.6554 35.22 35.7227 35.1481 35.8699Z" fill="#3E3832"/>
<defs>
<linearGradient id="paint0_linear" x1="31" y1="0" x2="31" y2="80" gradientUnits="userSpaceOnUse">
<stop stop-color="#E4E4DB"/>
<stop offset="0.0001" stop-color="#E5E5DC" stop-opacity="0.973958"/>
<stop offset="0.9999" stop-color="#E4E4DB"/>
<stop offset="1" stop-color="white"/>
</linearGradient>
</defs>
</svg>
