<svg width="174" height="252" viewBox="0 0 174 252" fill="none" xmlns="http://www.w3.org/2000/svg">
<path fill-rule="evenodd" clip-rule="evenodd" d="M0 43.2V239.265C0 246.298 5.0612 252 11.3071 252H162.699C168.939 252 174 246.298 174 239.265V12.7347C174 5.70185 168.939 0 162.699 0H41.8889L0 43.2Z" fill="#C6C2BF"/>
<path fill-rule="evenodd" clip-rule="evenodd" d="M41.8889 0V30.0863C41.8889 37.3301 36.5011 43.2 29.8522 43.2H0L41.8889 0Z" fill="#B7B1A9"/>
<path fill-rule="evenodd" clip-rule="evenodd" d="M121.93 106.937C118.802 118.071 112.678 127.313 104.83 132.969L105.232 137.927L105.229 138.129L100.987 179H74.0792L73.9674 178.141L68.7655 138.059L68.9582 133.045C61.0701 127.404 54.9113 118.147 51.7653 106.983C51.6586 106.994 51.5505 107 51.4412 107C49.4062 107 47.7941 105.049 47.7941 102.687V89.3154C47.7941 87.7314 48.5185 86.3321 49.6089 85.5815C51.3102 60.6189 67.2932 41 86.8406 41C106.335 41 122.286 60.5132 124.06 85.379C125.333 86.058 126.206 87.5747 126.206 89.3154V102.687C126.206 105.051 124.596 107 122.559 107C122.344 107 122.134 106.978 121.93 106.937Z" fill="#E7E9E9"/>
<path fill-rule="evenodd" clip-rule="evenodd" d="M103.882 134.353C103.729 143.278 96.2293 152.435 87 152.435C77.7305 152.435 70.2057 143.198 70.1163 134.236C65.3134 135.571 57.9821 139.598 51.9309 146.327C46.0711 152.844 41.4118 162.639 41.4118 170.238V216H132.588V170.238C132.588 162.624 127.828 152.812 121.86 146.288C115.892 139.764 108.716 135.791 103.882 134.353Z" fill="#C1B5D0"/>
<path fill-rule="evenodd" clip-rule="evenodd" d="M69.8131 134.546C65.3891 136.308 57.9674 140.158 52.3529 146.005C35.9412 142 28.6471 132.482 28.6471 132.482C28.6471 132.482 43.7675 116.306 43.7766 88.014V87.984C43.7766 54.856 60.0834 32 86.9489 32C113.818 32 130.125 54.856 130.125 87.984H130.222C130.222 116.296 145.353 132.482 145.353 132.482C145.353 132.482 138.059 142 121.647 146L121.622 146.005C116.199 140.595 108.334 136.422 104.055 134.657L104.06 134.656L103.89 132.558L103.982 132.385C112.056 126.72 118.321 117.178 121.341 105.648C121.711 105.873 122.128 106 122.57 106C124.082 106 125.306 104.52 125.306 102.686V89.3154C125.306 87.7468 124.41 86.4353 123.204 86.0893C123.203 86.0712 123.202 86.0531 123.201 86.035C85.0286 90.7068 71.2781 62.0018 70.1496 62C70.1496 62 57.4725 72 51.4137 83.8893C51.4137 83.8893 50.4903 86.1337 50.4858 86.2093C49.4485 86.6797 48.7087 87.8916 48.7087 89.3154V102.686C48.7087 104.52 49.9354 106 51.4443 106C51.7787 106 52.099 105.928 52.395 105.795C55.4486 117.331 61.7531 126.863 69.8647 132.49L69.8948 132.558L69.8184 134.546H69.8131Z" fill="#FFD399"/>
<path fill-rule="evenodd" clip-rule="evenodd" d="M73.9625 95.7423C71.6062 95.9514 70.9467 91.8596 71.6567 89.1873C71.7902 88.6809 72.5702 86.375 73.9511 86.375C75.3303 86.375 75.9394 87.6354 76.024 87.8521C77.0385 90.4572 76.5402 95.5121 73.9625 95.7423" fill="#3E3832"/>
<path fill-rule="evenodd" clip-rule="evenodd" d="M101.291 95.7423C103.648 95.9514 104.307 91.8596 103.597 89.1873C103.464 88.6809 102.684 86.375 101.303 86.375C99.9234 86.375 99.3143 87.6354 99.2297 87.8521C98.2152 90.4572 98.7135 95.5121 101.291 95.7423" fill="#3E3832"/>
<path d="M88.5003 99.7748C89.9094 99.5101 90.8717 99.6762 91.2164 100.192C92.5172 102.143 92.1011 104.208 89.8693 105.902C88.6959 106.793 87.0808 107.106 86.2257 106.644C85.8076 106.418 85.3186 106.649 85.1336 107.159C84.9485 107.67 85.1375 108.266 85.5556 108.492C86.9688 109.255 89.1421 108.834 90.7439 107.618C93.7768 105.315 94.4709 101.872 92.5004 98.9165C91.6665 97.6676 90.1904 97.4128 88.2484 97.7776C87.7965 97.8625 87.4865 98.3784 87.5561 98.9299C87.6257 99.4814 88.0484 99.8597 88.5003 99.7748Z" fill="#3E3832"/>
<path d="M98.6901 113.184C98.6073 113.376 98.4175 113.744 98.1125 114.229C97.5963 115.05 96.9479 115.874 96.1605 116.641C93.814 118.929 90.7598 120.252 86.8727 120.131C83.0824 120.013 80.0419 118.71 77.6581 116.61C76.7829 115.839 76.0603 115.013 75.4827 114.19C75.1421 113.705 74.9294 113.337 74.8364 113.145C74.6127 112.684 74.0628 112.494 73.6082 112.721C73.1535 112.948 72.9664 113.506 73.1901 113.967C73.3249 114.245 73.5871 114.699 73.988 115.27C74.6462 116.208 75.4646 117.143 76.4551 118.016C79.1462 120.387 82.5853 121.86 86.8164 121.991C91.2225 122.129 94.745 120.603 97.4317 117.984C98.3301 117.108 99.0685 116.17 99.6594 115.231C100.019 114.659 100.252 114.206 100.372 113.929C100.574 113.457 100.362 112.909 99.898 112.703C99.4336 112.497 98.8928 112.712 98.6901 113.184Z" fill="#3E3832"/>
</svg>
