<svg width="44" height="65" viewBox="0 0 44 65" fill="none" xmlns="http://www.w3.org/2000/svg">
<g id="file">
<g id="Mask">
<path fill-rule="evenodd" clip-rule="evenodd" d="M-9 8.71429V70.9572C-9 73.1899 -7.19658 75 -4.97104 75H48.9733C51.1966 75 53 73.1899 53 70.9572V-0.957231C53 -3.18989 51.1966 -5 48.9733 -5H5.92593L-9 8.71429Z" fill="#C4C4C4"/>
<path fill-rule="evenodd" clip-rule="evenodd" d="M-9 8.71429V70.9572C-9 73.1899 -7.19658 75 -4.97104 75H48.9733C51.1966 75 53 73.1899 53 70.9572V-0.957231C53 -3.18989 51.1966 -5 48.9733 -5H5.92593L-9 8.71429Z" fill="url(#paint0_linear)"/>
</g>
<path id="Fill 59" fill-rule="evenodd" clip-rule="evenodd" d="M5.92593 -5V4.55121C5.92593 6.85084 4.00613 8.71429 1.63698 8.71429H-9L5.92593 -5Z" fill="#C9C9C9"/>
</g>
<g id="female--front">
<g id=".atom--female+front">
<path id="head" fill-rule="evenodd" clip-rule="evenodd" d="M34.3947 30.9177C33.2847 34.3972 31.1116 37.2853 28.3267 39.0528L28.4693 40.6023L28.4685 40.6653L26.9631 53.4375H17.4152L17.3755 53.1692L15.5297 40.6433L15.5981 39.0767C12.7991 37.3139 10.6137 34.421 9.49736 30.9323C9.45951 30.9357 9.42115 30.9375 9.38236 30.9375C8.66028 30.9375 8.08824 30.328 8.08824 29.5895V25.4111C8.08824 24.9161 8.34527 24.4788 8.73219 24.2442C9.33587 16.4434 15.0073 10.3125 21.9434 10.3125C28.8609 10.3125 34.5208 16.4104 35.1503 24.1809C35.6021 24.3931 35.9118 24.8671 35.9118 25.4111V29.5895C35.9118 30.3283 35.3405 30.9375 34.6177 30.9375C34.5415 30.9375 34.467 30.9307 34.3947 30.9177Z" fill="white"/>
<g id="&#240;&#159;&#145;&#151;Body">
<path id="Mask_2" fill-rule="evenodd" clip-rule="evenodd" d="M27.9904 39.4852C27.9361 42.2744 25.2749 45.1359 22 45.1359C18.7108 45.1359 16.0407 42.2494 16.009 39.4488C14.3048 39.866 11.7033 41.1244 9.55613 43.2273C7.47683 45.2638 5.82353 48.3248 5.82353 50.6994V65H38.1765V50.6994C38.1765 48.32 36.4875 45.2537 34.3698 43.2149C32.2521 41.1762 29.7056 39.9348 27.9904 39.4852Z" fill="#4E737C"/>
<g id="Group">
<path id="Combined Shape" d="M35.78 59.122V65H7.02179C7.02179 60.2217 9.12961 56.7469 12.4412 54.6131C14.8132 53.1448 17.8057 52.4081 21.4247 52.4081C23.855 52.4081 25.9652 52.8296 27.7791 53.6247C27.9441 53.697 28.1372 53.6235 28.2104 53.4605C28.2836 53.2975 28.2092 53.1068 28.0442 53.0345C26.1448 52.2019 23.9443 51.7623 21.4247 51.7623C18.1735 51.7623 15.3942 52.3429 13.0906 53.5074L12.3364 50.527L9.63617 42.3992L12.173 40.462L14.8129 47.8789C14.8846 47.8956 14.9564 47.9121 15.028 47.9283C15.8963 47.2942 16.9703 46.9193 18.1329 46.9193C19.6946 46.9193 21.0964 47.5958 22.0545 48.6682C23.0126 47.5958 24.4143 46.9193 25.976 46.9193C27.1216 46.9193 28.181 47.2833 29.0425 47.9005C29.1265 47.8803 29.2105 47.8597 29.2945 47.8387L31.9201 40.462L34.4728 42.3992L31.2037 52.1926C31.1898 52.8667 31.0452 53.509 30.7939 54.0959C32.9514 55.2665 34.6834 56.9447 35.78 59.122Z" fill="#E3B0A8"/>
<path id="Combined Shape Copy 20" fill-rule="evenodd" clip-rule="evenodd" d="M19.3663 60.3375C18.2735 59.1222 17.9092 56.6916 19.3663 55.8815C20.2442 55.3933 21.1221 55.7161 22 56.5515C22.8779 55.7161 23.7558 55.3933 24.6337 55.8815C26.0908 56.6916 25.7265 59.1222 24.6337 60.3375C24.021 61.0188 22.092 62.7061 22 62.6622C21.908 62.7061 19.9789 61.0188 19.3663 60.3375Z" fill="#A13A28"/>
<path id="Combined Shape_2" d="M35.78 58.4132V65H27.3256C27.0021 65 26.7398 64.7166 26.7398 64.3671C26.7398 64.0175 27.0021 63.7341 27.3256 63.7341H30.5476V63.4177H25.8459C25.5303 63.4177 25.2752 63.1342 25.2752 62.785C25.2752 62.4353 25.5303 62.1518 25.8459 62.1518H30.5476V61.8354H24.9679C24.6525 61.8354 24.3965 61.5518 24.3965 61.2023C24.3965 60.8528 24.6525 60.5695 24.9679 60.5695H30.5476V60.2531H26.5221C26.1573 60.2531 25.8611 59.9698 25.8611 59.6203C25.8611 59.2705 26.1573 58.9872 26.5221 58.9872H31.7555L32.3875 58.6707H29.6688C29.3453 58.6707 29.083 58.3874 29.083 58.0378C29.083 57.6883 29.3453 57.4049 29.6688 57.4049H33.9477C34.1763 57.4049 34.3698 57.5548 34.6483 57.7214C34.7713 57.795 35.1485 58.0256 35.78 58.4132V58.4132Z" fill="white"/>
</g>
</g>
<g id="&#240;&#159;&#146;&#135;&#240;&#159;&#143;&#187;&#226;&#128;&#141;&#226;&#153;&#128;&#239;&#184;&#143;Hair">
<path id="Mask shape" fill-rule="evenodd" clip-rule="evenodd" d="M5.82409 50.6237L5.82353 24.8544C5.82353 15.27 12.9768 7.5 21.8027 7.5C30.6266 7.5 38.1765 14.1656 38.1765 23.75V24.8544C38.1765 24.8544 38.242 35.88 31.8464 41.2541C30.4363 40.625 28.9414 39.9032 28.0504 39.5799L27.9901 38.9245L28.0227 38.8702C30.8872 37.1001 33.1099 34.1181 34.1815 30.5149C34.3127 30.5853 34.4609 30.625 34.6177 30.625C35.1541 30.625 35.5882 30.1625 35.5882 29.5895V25.4111C35.5882 25.1894 35.5232 24.9841 35.4124 24.8158C35.2279 24.6272 34.9708 24.51 34.6861 24.5095C34.5561 24.5095 34.4324 24.5362 34.3183 24.5805C21.26 26.0754 16.7052 17.5006 16.3203 17.5C16.3203 17.5 10.8589 22.4378 9.94671 24.2504C9.94671 24.2504 9.88314 24.5992 9.80083 24.5418C9.68616 24.497 9.56355 24.4702 9.43299 24.4697C8.87044 24.4691 8.41292 24.9254 8.41178 25.489C8.41176 25.4614 8.41176 25.4338 8.41178 25.4063L8.41177 25.4111V29.5895C8.41177 30.1625 8.84701 30.625 9.38236 30.625C9.501 30.625 9.61463 30.6024 9.71967 30.5609C10.8031 34.166 13.0399 37.1447 15.9179 38.9031L15.9285 38.9245L15.9014 39.5456C12.5286 40.7284 5.89416 45.869 5.82409 50.6237Z" fill="#88392B"/>
</g>
<g id="&#240;&#159;&#153;&#130;Face">
<g id="Group_2">
<path id="Line 12" d="M18.8215 34.8728C18.6578 34.8383 18.554 34.6822 18.5897 34.5242C18.6253 34.3661 18.7869 34.2658 18.9506 34.3003C19.9405 34.5085 20.9299 34.6126 21.9191 34.6126C22.9083 34.6126 23.8977 34.5085 24.8876 34.3003C25.0513 34.2658 25.2129 34.3661 25.2486 34.5242C25.2842 34.6822 25.1804 34.8383 25.0167 34.8728C23.9846 35.0899 22.952 35.1986 21.9191 35.1986C20.8862 35.1986 19.8536 35.0899 18.8215 34.8728Z" fill="#3E3832"/>
<path id="Fill 42" fill-rule="evenodd" clip-rule="evenodd" d="M17.3738 27.4195C16.5377 27.4848 16.3036 26.2061 16.5556 25.371C16.603 25.2128 16.8797 24.4922 17.3697 24.4922C17.8591 24.4922 18.0752 24.886 18.1053 24.9538C18.4653 25.7679 18.2885 27.3475 17.3738 27.4195" fill="#3E3832"/>
<path id="Fill 44" fill-rule="evenodd" clip-rule="evenodd" d="M27.0711 27.4195C27.9072 27.4848 28.1412 26.2061 27.8893 25.371C27.8419 25.2128 27.5651 24.4922 27.0751 24.4922C26.5857 24.4922 26.3696 24.886 26.3395 24.9538C25.9796 25.7679 26.1564 27.3475 27.0711 27.4195" fill="#3E3832"/>
<path id="Stroke 46" d="M22.5323 28.6796C23.0323 28.5969 23.3738 28.6488 23.4961 28.8101C23.9577 29.4198 23.81 30.0649 23.0181 30.5944C22.6018 30.8727 22.0286 30.9706 21.7252 30.8263C21.5769 30.7558 21.4033 30.8278 21.3377 30.9873C21.272 31.1467 21.3391 31.3332 21.4874 31.4038C21.9889 31.6423 22.7601 31.5105 23.3285 31.1306C24.4046 30.411 24.6509 29.335 23.9517 28.4114C23.6558 28.0211 23.1321 27.9415 22.443 28.0555C22.2826 28.082 22.1726 28.2433 22.1973 28.4156C22.222 28.5879 22.372 28.7061 22.5323 28.6796Z" fill="#3E3832"/>
</g>
</g>
</g>
</g>
<defs>
<linearGradient id="paint0_linear" x1="22" y1="-5" x2="22" y2="75" gradientUnits="userSpaceOnUse">
<stop stop-color="#E4E4DB"/>
<stop offset="0.0001" stop-color="#E5E5DC" stop-opacity="0.973958"/>
<stop offset="0.9999" stop-color="#E4E4DB"/>
<stop offset="1" stop-color="white"/>
</linearGradient>
</defs>
</svg>
