<?xml version="1.0" encoding="UTF-8"?>
<svg width="62px" height="80px" viewBox="0 0 62 80" version="1.1" xmlns="http://www.w3.org/2000/svg" xmlns:xlink="http://www.w3.org/1999/xlink">
    <!-- Generator: Sketch 52.1 (67048) - http://www.bohemiancoding.com/sketch -->
    <title>Illustrations/sykdom</title>
    <desc>Created with Sketch.</desc>
    <defs>
        <path d="M-1.13686838e-13,13.3217227 L-1.13686838e-13,75.9572312 C-1.13686838e-13,78.1898902 1.80341708,80 4.02895891,80 L57.9733167,80 C60.1965829,80 62,78.1898902 62,75.9572312 L62,4.04276884 C62,1.81010978 60.1965829,0 57.9733167,0 L14.0211411,0 L-1.13686838e-13,13.3217227 Z" id="path-1"></path>
    </defs>
    <g id="Illustrations/sykdom" stroke="none" stroke-width="1" fill="none" fill-rule="evenodd">
        <mask id="mask-2" fill="white">
            <use xlink:href="#path-1"></use>
        </mask>
        <g id="Mask"></g>
        <g id="farger/-ark/-lys-grå" mask="url(#mask-2)" fill="#E4E4DB">
            <g transform="translate(-9.000000, -11.000000)">
                <rect x="0" y="0" width="79" height="102"></rect>
            </g>
        </g>
        <path d="M14.1486296,0 L14.1486296,9.28457143 C14.1486296,11.52 12.3288148,13.3314286 10.083037,13.3314286 L0,13.3314286 L14.1486296,0 Z" id="Fill-59" fill="#C9C9C9" mask="url(#mask-2)"></path>
        <g id="Icons/band-aid/outline/dark" mask="url(#mask-2)">
            <g transform="translate(18.000000, 30.000000)">
                <path d="M9.8896,2.1113 C7.7426,-0.0357 4.2596,-0.0357 2.1116,2.1113 C-0.0384,4.2613 -0.0364,7.7443 2.1116,9.8903 L14.1116,21.8903 C16.2586,24.0383 19.7416,24.0363 21.8896,21.8893 C24.0376,19.7443 24.0376,16.2583 21.8896,14.1123 L9.8896,2.1113 L9.8896,2.1113 Z" id="Stroke-7122" stroke="#3E3832" stroke-width="1" fill="none" stroke-linecap="round" stroke-linejoin="round"></path>
                <polygon id="Stroke-7123" stroke="#3E3832" stroke-width="1" fill="none" stroke-linecap="round" stroke-linejoin="round" points="18.3643 10.5869 10.5873 18.3659 5.6363 13.4149 13.4163 5.6359"></polygon>
                <path d="M4.2227,7.9658 C4.0947,7.9658 3.9667,8.0148 3.8687,8.1118 C3.6737,8.3078 3.6737,8.6238 3.8687,8.8198 C3.9667,8.9168 4.0947,8.9658 4.2227,8.9658 C4.3507,8.9658 4.4787,8.9168 4.5767,8.8198 C4.7727,8.6238 4.7727,8.3078 4.5767,8.1118 C4.4787,8.0148 4.3507,7.9658 4.2227,7.9658" id="Fill-7124" stroke="none" fill="#3E3832" fill-rule="evenodd"></path>
                <path d="M6.3438,5.8437 C6.2158,5.8437 6.0878,5.8927 5.9898,5.9907 C5.7948,6.1847 5.7948,6.5027 5.9898,6.6977 C6.0878,6.7957 6.2158,6.8447 6.3438,6.8447 C6.4718,6.8447 6.5998,6.7957 6.6968,6.6977 C6.8928,6.5027 6.8928,6.1847 6.6968,5.9907 C6.5998,5.8927 6.4718,5.8437 6.3438,5.8437" id="Fill-7125" stroke="none" fill="#3E3832" fill-rule="evenodd"></path>
                <path d="M3.8691,5.4902 C3.7411,5.4902 3.6131,5.5382 3.5151,5.6362 C3.3201,5.8312 3.3201,6.1472 3.5151,6.3442 C3.6131,6.4422 3.7411,6.4912 3.8691,6.4912 C3.9971,6.4912 4.1251,6.4422 4.2231,6.3442 C4.4191,6.1472 4.4191,5.8312 4.2231,5.6362 C4.1251,5.5382 3.9971,5.4902 3.8691,5.4902" id="Fill-7126" stroke="none" fill="#3E3832" fill-rule="evenodd"></path>
                <path d="M5.9902,3.3701 C5.8622,3.3701 5.7342,3.4191 5.6362,3.5161 C5.4412,3.7111 5.4412,4.0271 5.6362,4.2221 C5.7342,4.3211 5.8622,4.3701 5.9902,4.3701 C6.1182,4.3701 6.2462,4.3211 6.3442,4.2221 C6.5392,4.0271 6.5392,3.7111 6.3442,3.5161 C6.2462,3.4191 6.1182,3.3701 5.9902,3.3701" id="Fill-7127" stroke="none" fill="#3E3832" fill-rule="evenodd"></path>
                <path d="M6.6973,8.3174 C6.5693,8.3174 6.4413,8.3684 6.3443,8.4654 C6.1483,8.6614 6.1483,8.9774 6.3443,9.1724 C6.4413,9.2704 6.5693,9.3194 6.6973,9.3194 C6.8253,9.3194 6.9533,9.2704 7.0513,9.1724 C7.2463,8.9774 7.2463,8.6614 7.0513,8.4654 C6.9533,8.3684 6.8253,8.3174 6.6973,8.3174" id="Fill-7128" stroke="none" fill="#3E3832" fill-rule="evenodd"></path>
                <path d="M8.8184,6.1982 C8.6904,6.1982 8.5624,6.2472 8.4644,6.3442 C8.2694,6.5402 8.2694,6.8552 8.4644,7.0502 C8.5624,7.1492 8.6904,7.1982 8.8184,7.1982 C8.9464,7.1982 9.0744,7.1492 9.1724,7.0502 C9.3684,6.8552 9.3684,6.5402 9.1724,6.3442 C9.0744,6.2472 8.9464,6.1982 8.8184,6.1982" id="Fill-7129" stroke="none" fill="#3E3832" fill-rule="evenodd"></path>
                <path d="M8.4648,3.7217 C8.3368,3.7217 8.2088,3.7707 8.1108,3.8677 C7.9158,4.0657 7.9158,4.3817 8.1108,4.5767 C8.2088,4.6747 8.3368,4.7237 8.4648,4.7237 C8.5928,4.7237 8.7208,4.6747 8.8188,4.5767 C9.0138,4.3817 9.0138,4.0657 8.8188,3.8677 C8.7208,3.7707 8.5928,3.7217 8.4648,3.7217" id="Fill-7130" stroke="none" fill="#3E3832" fill-rule="evenodd"></path>
                <path d="M15.5361,19.2803 C15.4081,19.2803 15.2801,19.3283 15.1821,19.4263 C14.9871,19.6203 14.9871,19.9363 15.1821,20.1343 C15.2801,20.2313 15.4081,20.2783 15.5361,20.2783 C15.6641,20.2783 15.7921,20.2313 15.8901,20.1343 C16.0851,19.9363 16.0851,19.6203 15.8901,19.4263 C15.7921,19.3283 15.6641,19.2803 15.5361,19.2803" id="Fill-7131" stroke="none" fill="#3E3832" fill-rule="evenodd"></path>
                <path d="M17.6572,17.1572 C17.5292,17.1572 17.4012,17.2072 17.3042,17.3032 C17.1072,17.4992 17.1072,17.8152 17.3042,18.0112 C17.4012,18.1092 17.5292,18.1582 17.6572,18.1582 C17.7852,18.1582 17.9132,18.1092 18.0112,18.0112 C18.2062,17.8152 18.2062,17.4992 18.0112,17.3032 C17.9132,17.2072 17.7852,17.1572 17.6572,17.1572" id="Fill-7132" stroke="none" fill="#3E3832" fill-rule="evenodd"></path>
                <path d="M18.0107,19.6318 C17.8827,19.6318 17.7547,19.6808 17.6567,19.7778 C17.4617,19.9758 17.4617,20.2918 17.6567,20.4858 C17.7547,20.5828 17.8827,20.6318 18.0107,20.6318 C18.1387,20.6318 18.2667,20.5828 18.3647,20.4858 C18.5607,20.2918 18.5607,19.9758 18.3647,19.7778 C18.2667,19.6808 18.1387,19.6318 18.0107,19.6318" id="Fill-7133" stroke="none" fill="#3E3832" fill-rule="evenodd"></path>
                <path d="M20.1328,17.5117 C20.0048,17.5117 19.8768,17.5607 19.7798,17.6577 C19.5838,17.8527 19.5838,18.1687 19.7798,18.3657 C19.8768,18.4627 20.0048,18.5117 20.1328,18.5117 C20.2608,18.5117 20.3888,18.4627 20.4868,18.3657 C20.6818,18.1687 20.6818,17.8527 20.4868,17.6577 C20.3888,17.5607 20.2608,17.5117 20.1328,17.5117" id="Fill-7134" stroke="none" fill="#3E3832" fill-rule="evenodd"></path>
                <path d="M15.1826,16.8037 C15.0546,16.8037 14.9266,16.8527 14.8296,16.9497 C14.6336,17.1457 14.6336,17.4627 14.8296,17.6577 C14.9266,17.7547 15.0546,17.8037 15.1826,17.8037 C15.3106,17.8037 15.4386,17.7547 15.5366,17.6577 C15.7316,17.4627 15.7316,17.1457 15.5366,16.9497 C15.4386,16.8527 15.3106,16.8037 15.1826,16.8037" id="Fill-7135" stroke="none" fill="#3E3832" fill-rule="evenodd"></path>
                <path d="M17.3037,14.6826 C17.1757,14.6826 17.0477,14.7316 16.9497,14.8286 C16.7547,15.0256 16.7547,15.3406 16.9497,15.5366 C17.0477,15.6336 17.1757,15.6826 17.3037,15.6826 C17.4317,15.6826 17.5597,15.6336 17.6567,15.5366 C17.8537,15.3406 17.8537,15.0256 17.6567,14.8286 C17.5597,14.7316 17.4317,14.6826 17.3037,14.6826" id="Fill-7136" stroke="none" fill="#3E3832" fill-rule="evenodd"></path>
                <path d="M19.7793,15.0361 C19.6513,15.0361 19.5233,15.0851 19.4253,15.1821 C19.2303,15.3781 19.2303,15.6941 19.4253,15.8901 C19.5233,15.9871 19.6513,16.0361 19.7793,16.0361 C19.9073,16.0361 20.0343,15.9871 20.1313,15.8901 C20.3283,15.6941 20.3283,15.3781 20.1313,15.1821 C20.0343,15.0851 19.9073,15.0361 19.7793,15.0361" id="Fill-7137" stroke="none" fill="#3E3832" fill-rule="evenodd"></path>
            </g>
        </g>
    </g>
</svg>