<svg xmlns="http://www.w3.org/2000/svg" xmlns:xlink="http://www.w3.org/1999/xlink" width="117" height="93" viewBox="0 0 117 93">
    <defs>
        <path id="a" d="M.106 27.186A6.274 6.274 0 0 1 0 26.032C0 11.655 10.613 0 23.707 0 36.8 0 47.412 11.655 47.412 26.032c0 .095-.002.19-.006.285l.062-.001s.027 27.71-23.768 27.71C-.092 54.025 0 63.561 0 63.561V27.188l.106-.002z"/>
        <path id="c" d="M25.38 0h-7.618C13.654 0 0 9.553 0 18.25v22.88h51V18.25C51 9.553 37.108 0 33 0h-7.62z"/>
        <path id="e" d="M1.589 30.72a.541.541 0 0 0 .081-.273v-2c-.144-5.564 1.786-8.148 3.374-10.11 0 0-.965 4.275-.294 3.385 3.8-5.02 21.4-1.581 25.05-8.06.46 3.567-4.148 4.643-4.148 4.643 3.673.696 6.855-.784 7.718-2.542.283 1.433-.589 2.384-1.865 3.364 4.514-.855 4.587-3.966 4.587-3.966.643 4.127 5.27 2.542 5.27 9.298v5.988c0 .306.244.553.546.553h.54a.55.55 0 0 0 .545-.553v-4.448C43.273 10.42 34.5 0 22.423 0 10.894 0 0 10.39.006 24.143c-.001.011-.007.023-.007.035v6.269c0 .306.244.553.544.553h.58c.167 0 .31-.08.41-.198"/>
        <path id="g" d="M20.242 18.031c-4.751 0-8.602-1.564-8.602-3.492 0-1.929 3.85-3.492 8.602-3.492 4.75 0 8.602 1.563 8.602 3.492 0 1.928-3.851 3.492-8.602 3.492m.46-8.954c-3.002 0-5.043.018-8.981 1.996C2.615 15.643 0 0 0 0c0 25.732 12.461 32 20.564 32C28.795 32 42 27.019 42 0c-.55.43-3.894 14.267-13.228 10.838-3.623-1.33-5.07-1.76-8.07-1.76z"/>
        <path id="i" d="M64 60.159v9.73H42v-9.73c0-2.784 3.594-5.962 6-7.27h10c2.428 1.331 6 4.518 6 7.27z"/>
    </defs>
    <g fill="none" fill-rule="evenodd">
        <g transform="translate(64.47 3.13)">
            <mask id="b" fill="#fff">
                <use xlink:href="#a"/>
            </mask>
            <g fill="#8B5F26" mask="url(#b)">
                <path d="M-8.47-.938h65v74h-65z"/>
            </g>
        </g>
        <path fill="#E7E5E2" d="M75.688 53.448c.957 1.531 3.646 28.432 11.718 28.432 8.074 0 11.719-27.4 11.719-28.827-12.361-7.081-23.438.395-23.438.395z"/>
        <g transform="translate(62.563 51.875)">
            <mask id="d" fill="#fff">
                <use xlink:href="#c"/>
            </mask>
            <use fill="#D8A25D" xlink:href="#c"/>
            <g mask="url(#d)">
                <path fill="#A13A28" d="M-31.167 67.76h119v-93h-119z"/>
            </g>
        </g>
        <path fill="#FFF" d="M75.544 53.56c.985 1.58 5.41 9.448 11.936 14.295 6.48-4.773 12.173-13.23 12.173-14.703-12.715-7.311-24.109.408-24.109.408z"/>
        <path fill="#E7E5E2" d="M68.693 28.93s-.098.559-.225.467a1.522 1.522 0 0 0-.568-.116c-.87 0-1.577.73-1.579 1.631l-.008 6.24c-.002.903.701 1.635 1.572 1.636.349 0 .668-.12.93-.319 2.105 10.049 9.61 17.146 18.557 17.161 8.949.015 16.477-7.058 18.611-17.1.26.2.58.321.93.322.87 0 1.576-.73 1.577-1.63l.01-6.241c0-.902-.703-1.634-1.573-1.636-.2 0-.392.043-.568.114C86.178 31.85 79.139 18.13 78.544 18.13c0 0-8.44 7.9-9.85 10.8z"/>
        <g>
            <path fill="#635E59" d="M80.715 34.873c-1.362.104-1.743-1.922-1.333-3.246.077-.25.528-1.392 1.326-1.392.797 0 1.15.624 1.198.731.587 1.29.299 3.793-1.191 3.907M95.914 34.873c1.362.104 1.743-1.922 1.333-3.246-.077-.25-.528-1.392-1.326-1.392a1.34 1.34 0 0 0-1.198.731c-.587 1.29-.299 3.793 1.191 3.907"/>
            <path fill="#D1BFA3" fill-rule="nonzero" d="M88.746 37.203c.801-.124 1.348-.046 1.544.196.74.918.503 1.888-.766 2.685-.667.418-1.585.566-2.07.349a.469.469 0 0 0-.621.242c-.106.24.002.52.24.626.803.36 2.038.161 2.949-.41 1.723-1.083 2.118-2.702.998-4.091-.474-.588-1.313-.707-2.417-.536a.474.474 0 0 0 .143.94z"/>
            <path fill="#D19E9C" fill-rule="nonzero" d="M94.11 44.13c-.042.097-.14.285-.296.533a6.724 6.724 0 0 1-1.001 1.23c-1.204 1.168-2.77 1.843-4.764 1.78-1.944-.06-3.504-.724-4.727-1.795a7.058 7.058 0 0 1-1.115-1.235 4.33 4.33 0 0 1-.332-.534.469.469 0 0 0-.63-.216.477.477 0 0 0-.214.636c.069.142.203.373.409.665a8 8 0 0 0 1.265 1.4c1.38 1.21 3.145 1.962 5.315 2.03 2.26.07 4.067-.709 5.445-2.046.46-.446.84-.925 1.143-1.404.184-.292.304-.523.365-.665a.477.477 0 0 0-.243-.625.469.469 0 0 0-.62.245z"/>
        </g>
        <g>
            <path fill="#E7E5E2" d="M14 50.673C15.021 52.306 17.89 81 26.5 81 35.112 81 39 51.772 39 50.251c-13.185-7.553-25 .422-25 .422z"/>
            <path fill="#0F5FA9" d="M27 69.5L18.848 49C14.45 49 0 59.043 0 68.395V93h54V68.395C54 59.043 39.546 49 35.151 49L27 69.5z"/>
            <path fill="#3C84C5" d="M18.877 47.448c-2.373.819-5.874 3.035-5.874 3.035-.178 7.167 6.548 14.4 6.548 14.4l1.366-4.585 5.14 9.617 2.738.085 4.729-8.69 1.927 4.88c6.489-11.143 5.494-15.832 5.494-15.832C38.355 48.16 35.086 47 35.086 47l-7.75 20.36-8.459-19.912z"/>
            <path fill="#E7E5E2" d="M47.188 35.27C44.67 45.508 36.585 53 27 53c-9.586 0-17.67-7.492-20.188-17.73a2.27 2.27 0 0 1-.812.148c-1.103 0-2-.771-2-1.726v-6.965C4 25.772 4.897 25 6 25c.071 0 .142.003.211.01C7.663 13.132 16.417 4 27 4c10.582 0 19.337 9.132 20.789 21.01.07-.007.14-.01.211-.01 1.105 0 2 .772 2 1.727v6.965c0 .955-.895 1.726-2 1.726-.289 0-.564-.053-.812-.148z"/>
            <g>
                <path fill="#635E59" d="M19.03 27.625c-1.447.109-1.852-2.024-1.417-3.417.083-.264.562-1.465 1.41-1.465.847 0 1.221.656 1.273.769.623 1.358.317 3.993-1.266 4.113M35.18 27.625c1.447.109 1.852-2.024 1.416-3.417-.082-.264-.561-1.465-1.41-1.465-.846 0-1.22.656-1.272.769-.623 1.358-.318 3.993 1.266 4.113"/>
                <path stroke="#D1BFA3" stroke-linecap="round" d="M27.488 29.583c.864-.133 1.707-.1 2.104.385.965 1.185.688 2.554-.937 3.566-.813.505-1.963.712-2.668.4"/>
                <path stroke="#593A32" stroke-linecap="round" stroke-width="1.013" d="M33.722 37.568s-1.828 4.187-6.914 4.031c-5.086-.156-6.993-4.031-6.993-4.031"/>
            </g>
            <g>
                <g transform="translate(5)">
                    <mask id="f" fill="#fff">
                        <use xlink:href="#e"/>
                    </mask>
                    <use fill="#F6B873" xlink:href="#e"/>
                    <g fill="#F6B873" mask="url(#f)">
                        <path d="M-11.727-26h67v79h-67z"/>
                    </g>
                </g>
            </g>
            <g>
                <g transform="translate(5.9 25)">
                    <mask id="h" fill="#fff">
                        <use xlink:href="#g"/>
                    </mask>
                    <g fill="#F6B873" mask="url(#h)">
                        <path d="M-14-25h69v79h-69z"/>
                    </g>
                </g>
            </g>
        </g>
        <g>
            <g transform="translate(5 23.111)">
                <mask id="j" fill="#fff">
                    <use xlink:href="#i"/>
                </mask>
                <use fill="#D8A25D" xlink:href="#i"/>
                <g fill="#38A161" mask="url(#j)">
                    <path d="M.87 113h115V0H.87z"/>
                </g>
            </g>
            <path fill="#FFBD66" d="M51.467 93H63.6l1.9-15.583c-.22-.188-1.5-1.071-1.5-.945l-1.49 7.49-9.834.313L52 76.472s-1.533.932-2 1.417L51.467 93z"/>
            <path fill="#E7E5E2" d="M43.033 61c.514-7.818 7.019-14 14.967-14s14.453 6.182 14.967 14H73a2 2 0 0 1 2 2v2a2 2 0 0 1-2.796 1.835 15.04 15.04 0 0 1-9.206 9.312 5 5 0 0 1-9.996 0 15.04 15.04 0 0 1-9.206-9.312A2 2 0 0 1 41 65v-2a2 2 0 0 1 2.033-2z"/>
            <g transform="translate(48 59)">
                <path fill="#E8CCC8" d="M6 10a3 3 0 1 1-6 0 3 3 0 0 1 6 0M20 10a3 3 0 1 1-6 0 3 3 0 0 1 6 0"/>
                <path fill="#D1BFA3" fill-rule="nonzero" d="M10.824 5.534a.5.5 0 1 1-.206-.979c.673-.141 1.235-.033 1.544.487.601 1.01.392 2.173-.556 2.98-.551.468-1.324.636-1.865.309a.5.5 0 0 1 .518-.856c.118.072.445 0 .7-.216.58-.493.693-1.12.344-1.706-.033-.055-.178-.083-.48-.02z"/>
                <path fill="#635E59" fill-rule="nonzero" d="M1.553 3.224a.5.5 0 0 1 .894-.448c.24.48.728.724 1.553.724s1.313-.244 1.553-.724a.5.5 0 0 1 .894.448C6.02 4.077 5.175 4.5 4 4.5s-2.02-.423-2.447-1.276zM13.553 3.224a.5.5 0 0 1 .894-.448c.24.48.728.724 1.553.724s1.313-.244 1.553-.724a.5.5 0 1 1 .894.448C18.02 4.077 17.175 4.5 16 4.5s-2.02-.423-2.447-1.276z"/>
                <path fill="#FFF" d="M8.642 12.208c-.345.187-.715.498-1.108.93-.59.65-.357 1.841.47 2.002.828.161 1.102-.55 1.174-.918.048-.245-.13-.917-.536-2.014z"/>
                <ellipse cx="10" cy="12" fill="#593A32" rx="3" ry="1"/>
            </g>
            <g fill="#78706A" fill-rule="nonzero">
                <path d="M54.73 48.271a.5.5 0 0 1 .963.266c-.1.363-.003.523.645 1.106.659.593.811 1.369.446 2.207a.5.5 0 1 1-.917-.4c.197-.45.135-.764-.198-1.064-.911-.82-1.177-1.256-.94-2.115zM57.664 47.998a.5.5 0 0 1 .804.594c-.223.303-.19.487.206 1.264.402.79.267 1.568-.375 2.22a.5.5 0 0 1-.712-.702c.344-.35.4-.665.196-1.064-.557-1.093-.649-1.594-.12-2.312zM60.538 47.975a.5.5 0 0 1 .582.813c-.307.22-.331.404-.195 1.265.139.875-.231 1.575-1.043 1.996a.5.5 0 0 1-.46-.888c.436-.226.585-.51.515-.951-.192-1.212-.124-1.717.601-2.235z"/>
            </g>
        </g>
    </g>
</svg>
