<svg xmlns="http://www.w3.org/2000/svg" xmlns:xlink="http://www.w3.org/1999/xlink" width="117" height="93" viewBox="0 0 117 93">
    <defs>
        <path id="a" d="M.106 27.186A6.274 6.274 0 0 1 0 26.032C0 11.655 10.613 0 23.707 0 36.8 0 47.412 11.655 47.412 26.032c0 .095-.002.19-.006.285l.062-.001s.027 27.71-23.768 27.71C-.092 54.025 0 63.561 0 63.561V27.188l.106-.002z"/>
        <path id="c" d="M36.531 2.972C42.194 5.73 51 13.195 51 20.12V43H0V20.12C0 13.438 8.057 6.252 13.655 3.28a9.333 9.333 0 0 0-.433.275c.965 1.58 3.557 8.597 11.69 8.597S36.832 4.62 36.832 3.147c-.1-.06-.201-.118-.302-.175z"/>
        <path id="e" d="M52.364 49.543v8.013h-18v-8.013c0-2.293 2.94-4.91 4.909-5.987h8.182c1.986 1.096 4.909 3.72 4.909 5.987z"/>
    </defs>
    <g fill="none" fill-rule="evenodd">
        <g transform="translate(34.47 3)">
            <mask id="b" fill="#fff">
                <use xlink:href="#a"/>
            </mask>
            <g fill="#3E3832" mask="url(#b)">
                <path d="M-8.47-.938h65v74h-65z"/>
            </g>
        </g>
        <path fill="#E7E5E2" d="M45.688 53.318c.957 1.531 3.646 28.432 11.718 28.432 8.074 0 11.719-27.4 11.719-28.827-12.361-7.081-23.438.395-23.438.395z"/>
        <g transform="translate(32.563 49.875)">
            <mask id="d" fill="#fff">
                <use xlink:href="#c"/>
            </mask>
            <use fill="#D8A25D" xlink:href="#c"/>
            <g mask="url(#d)">
                <path fill="#0C5472" d="M-31.167 69.63h119v-93h-119z"/>
            </g>
        </g>
        <path fill="#E7E5E2" d="M38.693 28.8s-.098.559-.225.467a1.522 1.522 0 0 0-.568-.116c-.87 0-1.577.73-1.579 1.631l-.008 6.24c-.002.903.701 1.635 1.572 1.636.349 0 .668-.12.93-.319 2.105 10.049 9.61 17.146 18.557 17.161 8.949.015 16.477-7.058 18.611-17.1.26.2.58.321.93.322.87 0 1.576-.73 1.577-1.63l.01-6.241c0-.902-.703-1.634-1.573-1.636-.2 0-.392.043-.568.114C56.178 31.72 49.139 18 48.544 18c0 0-8.44 7.9-9.85 10.8z"/>
        <g>
            <path fill="#635E59" d="M50.715 34.743c-1.362.104-1.743-1.922-1.333-3.246.077-.25.528-1.392 1.326-1.392.797 0 1.15.624 1.198.731.587 1.29.299 3.793-1.191 3.907M65.914 34.743c1.362.104 1.743-1.922 1.333-3.246-.077-.25-.528-1.392-1.326-1.392a1.34 1.34 0 0 0-1.198.731c-.587 1.29-.299 3.793 1.191 3.907"/>
            <path fill="#D1BFA3" fill-rule="nonzero" d="M58.746 37.073c.801-.124 1.348-.046 1.544.196.74.918.503 1.888-.766 2.685-.667.418-1.585.566-2.07.349a.469.469 0 0 0-.621.242c-.106.24.002.52.24.626.803.36 2.038.161 2.949-.41 1.723-1.083 2.118-2.702.998-4.091-.474-.588-1.313-.707-2.417-.536a.474.474 0 0 0 .143.94z"/>
            <path fill="#D19E9C" fill-rule="nonzero" d="M64.11 44c-.042.097-.14.285-.296.533a6.724 6.724 0 0 1-1.001 1.23c-1.204 1.168-2.77 1.843-4.764 1.78-1.944-.06-3.504-.724-4.727-1.795a7.058 7.058 0 0 1-1.115-1.235 4.33 4.33 0 0 1-.332-.534.469.469 0 0 0-.63-.216.477.477 0 0 0-.214.636c.069.142.203.373.409.665a8 8 0 0 0 1.265 1.4c1.38 1.21 3.145 1.962 5.315 2.03 2.26.07 4.067-.709 5.445-2.046.46-.446.84-.925 1.143-1.404.184-.292.304-.523.365-.665a.477.477 0 0 0-.243-.625.469.469 0 0 0-.62.245z"/>
        </g>
        <g>
            <path fill="#9B9590" d="M58 52c7.732 0 14 6.02 14 13.447v13.106C72 85.979 65.732 92 58 92s-14-6.02-14-13.447V65.447C44 58.021 50.268 52 58 52z"/>
            <path fill="#C6C2BF" d="M37.352 58.653l4.035-3.403a1.08 1.08 0 0 1 1.473.085.985.985 0 0 1 .202.326L52.939 82.1c.193.515-.087 1.08-.626 1.267L47.78 84.94c-.541.188-1.14-.078-1.337-.594l-9.38-24.61a.963.963 0 0 1 .289-1.083zM78.648 58.653c.32.27.435.7.29 1.083l-9.38 24.61h-.001c-.197.516-.796.782-1.337.594l-4.533-1.573c-.539-.187-.819-.752-.626-1.267l9.877-26.44a.985.985 0 0 1 .202-.325 1.08 1.08 0 0 1 1.473-.085l4.035 3.403z"/>
            <g transform="translate(14.636 33.444)">
                <mask id="f" fill="#fff">
                    <use xlink:href="#e"/>
                </mask>
                <use fill="#D8A25D" xlink:href="#e"/>
                <g mask="url(#f)">
                    <path fill="#5C4378" d="M.711 93h94V0h-94z"/>
                </g>
            </g>
            <path fill="#FFBD66" d="M52.655 91h9.927l1.554-12.833c-.179-.155-1.227-.882-1.227-.778l-1.218 6.169-8.047.256-.553-6.425s-1.255.767-1.636 1.167L52.655 91z"/>
            <path fill="#E7E5E2" d="M46.023 65.255C46.408 58.975 51.623 54 58 54c6.377 0 11.592 4.974 11.977 11.255A2 2 0 0 1 71 67v2a2 2 0 0 1-2.087 1.998 12.038 12.038 0 0 1-6.926 6.324 4 4 0 0 1-7.974 0 12.038 12.038 0 0 1-6.926-6.324A2 2 0 0 1 45 69v-2a2 2 0 0 1 1.023-1.745z"/>
            <g fill="#78706A" fill-rule="nonzero">
                <path d="M55.484 55.356a.4.4 0 0 1 .771.213c-.073.265-.003.38.484.818.506.456.624 1.054.343 1.698a.4.4 0 0 1-.733-.32c.146-.333.1-.562-.145-.783-.698-.628-.903-.964-.72-1.626zM57.714 55.142a.4.4 0 1 1 .643.475c-.163.222-.139.355.159.938.309.607.205 1.208-.288 1.708a.4.4 0 1 1-.57-.56c.255-.26.295-.49.145-.785-.426-.836-.497-1.223-.09-1.776zM59.9 55.12a.4.4 0 0 1 .465.65c-.224.16-.242.295-.14.941.107.673-.178 1.213-.801 1.536a.4.4 0 1 1-.369-.71c.323-.167.432-.374.38-.7-.147-.927-.094-1.317.464-1.717z"/>
            </g>
            <g>
                <path fill="#E8CCC8" d="M54.8 71.333c0 1.381-1.074 2.5-2.4 2.5-1.325 0-2.4-1.119-2.4-2.5 0-1.38 1.075-2.5 2.4-2.5 1.326 0 2.4 1.12 2.4 2.5M66 71.333c0 1.381-1.074 2.5-2.4 2.5-1.325 0-2.4-1.119-2.4-2.5 0-1.38 1.075-2.5 2.4-2.5 1.326 0 2.4 1.12 2.4 2.5"/>
                <path fill="#D1BFA3" fill-rule="nonzero" d="M58.66 67.611a.4.4 0 0 1-.475-.322.417.417 0 0 1 .31-.493c.538-.118.987-.027 1.235.405.48.842.313 1.812-.445 2.483-.441.39-1.06.53-1.492.259a.427.427 0 0 1-.135-.573.391.391 0 0 1 .549-.14c.095.06.356 0 .56-.18.464-.412.554-.934.275-1.422-.026-.046-.142-.07-.383-.017z"/>
                <path fill="#635E59" fill-rule="nonzero" d="M51.212 66.232a.418.418 0 0 0 .291.505.4.4 0 0 0 .485-.303c.226-.942.619-1.35 1.212-1.35s.986.408 1.212 1.35a.4.4 0 0 0 .485.303.418.418 0 0 0 .291-.505c-.307-1.28-.981-1.982-1.988-1.982-1.007 0-1.68.702-1.988 1.982zM60.812 66.232a.418.418 0 0 0 .291.505.4.4 0 0 0 .485-.303c.226-.942.619-1.35 1.212-1.35s.986.408 1.212 1.35a.4.4 0 0 0 .485.303.418.418 0 0 0 .291-.505c-.307-1.28-.981-1.982-1.988-1.982-1.007 0-1.68.702-1.988 1.982z"/>
                <path fill="#593A32" d="M55.6 71.333h4.8c0 1.841-1.075 3.334-2.4 3.334s-2.4-1.493-2.4-3.334z"/>
                <path fill="#FA96A0" d="M57.933 74.667c-.626 0-1.125-.222-1.533-.834.076-.847.696-1.666 1.533-1.666.836 0 1.59.82 1.667 1.666-.408.612-1.041.834-1.667.834z"/>
            </g>
            <path fill="#C6C2BF" d="M72 93H44v-9.882C44 81.948 45.271 81 46.84 81h22.32c1.569 0 2.84.948 2.84 2.118V93z"/>
            <path fill="#FFF" d="M45.124 81h25.752C72.601 81 74 82.343 74 84s-1.399 3-3.124 3H45.124C43.399 87 42 85.657 42 84s1.399-3 3.124-3z"/>
        </g>
    </g>
</svg>
