<svg xmlns="http://www.w3.org/2000/svg" width="117" height="93" viewBox="0 0 117 93">
    <g fill="none" fill-rule="evenodd">
        <path fill="#333" d="M114.947 32.122a4.658 4.658 0 0 1 1.99 3.833 4.67 4.67 0 0 1-.938 2.818 4.67 4.67 0 0 1 .938 2.818c0 2.31-1.66 4.226-3.833 4.583-.49 2.284-2.25 4.087-4.489 4.605.099 2.18-1.334 4.195-3.5 4.722a4.491 4.491 0 0 1-3.426-.541 5.85 5.85 0 0 1-2.72.668c-2.522 0-4.678-1.593-5.547-3.843-.627-.097-1.248-.4-1.78-.959a3.081 3.081 0 0 0-2.512-.967 3.418 3.418 0 0 0-.061.117c-.566 1.127-1.552 1.678-2.561 1.745a3.34 3.34 0 0 0-.19.556c-.734 2.984-4.641 3.215-5.867.693-.732 1.571-2.306 2.658-4.13 2.658a4.524 4.524 0 0 1-3.364-1.503 4.489 4.489 0 0 1-2.182.563c-2.522 0-4.568-2.078-4.568-4.642 0-.449.063-.883.18-1.293a4.635 4.635 0 0 1-2.924-3.819 4.644 4.644 0 0 1-2.802-4.282 4.642 4.642 0 0 1 2.92-4.33c.106-1.465-.785-2.952-2.382-3.358-3.182-.81-3.182-5.407 0-6.216 2.4-.611 3.205-3.663 1.427-5.412-2.358-2.318-.096-6.298 3.058-5.382.52.15 1.03.162 1.504.062a4.75 4.75 0 0 1-.056-.729c0-1.734.936-3.247 2.323-4.043-.159-2.784 3.298-4.551 5.4-2.384.674-1.707 2.318-2.912 4.239-2.912.58 0 1.136.11 1.647.311a3.01 3.01 0 0 1 1.235-.985c1.016-2.057 4.146-2.522 5.528-.193 1.276 2.153 4.384 2.04 5.508-.198 1.444-2.878 5.627-2 5.941 1.09.157-.016.316-.025.476-.025 1.967 0 3.643 1.263 4.286 3.035a3.33 3.33 0 0 0 .125-.078c2.752-1.815 6.06 1.318 4.476 4.237-1.197 2.2.452 4.88 2.922 4.748 3.277-.173 4.6 4.223 1.792 5.944a3.305 3.305 0 0 0-.246.166c1.87.581 3.23 2.349 3.23 4.44 0 1.18-.434 2.256-1.147 3.075.046.2.072.403.08.607z"/>
        <path fill="#E7E5E2" d="M75.688 53.448c.957 1.531 3.646 28.432 11.718 28.432 8.074 0 11.719-27.4 11.719-28.827-12.361-7.081-23.438.395-23.438.395z"/>
        <path fill="#0F5FA9" d="M87.875 71.099L80.232 51.88c-4.122 0-17.67 9.416-17.67 18.183V93.13h50.626V70.063c0-8.767-13.551-18.183-17.671-18.183l-7.642 19.219z"/>
        <path fill="#3C84C5" d="M80.26 50.425c-2.225.767-5.507 2.845-5.507 2.845-.167 6.72 6.139 13.5 6.139 13.5l1.28-4.298 4.819 9.016 2.567.08 4.433-8.147 1.806 4.574c6.084-10.446 5.152-14.842 5.152-14.842-2.43-2.06-5.493-3.148-5.493-3.148L88.19 69.092l-7.93-18.667z"/>
        <path fill="#E7E5E2" d="M89.561 18.145c.245 1.877 1.79 3.323 3.659 3.323 1.699 0 3.13-1.197 3.56-2.826a4.17 4.17 0 0 1-.15 1.172c-1.088 3.964 4.522 7.02 7.272 4.057.442-.223 1.022-.172 1.737.155.52 1.721.88 3.537 1.054 5.42.088-.02.178-.03.28-.03.88 0 1.527.74 1.527 1.652v5.958c0 .914-.635 1.652-1.517 1.652-.352 0-.596-.12-.859-.32l-.06.263c-1.328 5.986-4.55 10.844-8.844 13.785-2.88 2.05-6.233 3.224-9.814 3.224-2.529 0-4.944-.586-7.16-1.652-5.737-2.583-10.124-8.27-11.676-15.623-.264.202-.495.323-.848.323-.881 0-1.41-.738-1.41-1.652v-6.221c1.803 1.489 5.75 1.044 6.48-1.988.724-3.014 4.345-4.025 6.418-1.793 2.751 2.963 7.473.122 6.387-3.84-.75-2.73 1.4-5.272 3.964-5.04z"/>
        <g>
            <g fill="#635E59">
                <path d="M80.68 34.801c-1.356.102-1.736-1.897-1.327-3.203.077-.248.526-1.375 1.32-1.375.795 0 1.145.616 1.194.722.584 1.273.297 3.744-1.187 3.856M95.82 34.801c1.357.102 1.737-1.897 1.328-3.203-.077-.248-.526-1.375-1.321-1.375-.794 0-1.145.616-1.193.722-.585 1.273-.298 3.744 1.186 3.856"/>
            </g>
            <path fill="#D1BFA3" fill-rule="nonzero" d="M88.68 37.1c.798-.123 1.343-.046 1.538.194.737.905.501 1.863-.762 2.649-.665.413-1.58.559-2.063.344a.469.469 0 0 0-.38.858c.8.354 2.031.158 2.938-.406 1.717-1.068 2.11-2.666.994-4.037-.472-.58-1.308-.698-2.407-.528a.469.469 0 1 0 .143.926z"/>
            <path fill="#D19E9C" fill-rule="nonzero" d="M94.024 43.935a4.27 4.27 0 0 1-.295.527 6.648 6.648 0 0 1-.998 1.214c-1.198 1.152-2.759 1.818-4.745 1.757-1.937-.06-3.49-.715-4.708-1.772a6.988 6.988 0 0 1-1.111-1.219 4.265 4.265 0 0 1-.33-.526.469.469 0 1 0-.842.414c.069.14.203.368.408.656a7.92 7.92 0 0 0 1.26 1.382c1.375 1.194 3.132 1.936 5.294 2.002 2.252.07 4.051-.699 5.424-2.018a7.58 7.58 0 0 0 1.138-1.386c.184-.288.303-.516.364-.656a.469.469 0 1 0-.86-.375z"/>
        </g>
        <g>
            <path fill="#F6B873" d="M52.28 70.375c-11.146 1.729-10.877 3.75-23.405 3.75-12.59 0-12.352-2.053-23.414-3.948-.016-.398-.024-40.173-.024-40.576 0-14.62 10.493-26.471 23.438-26.471 12.943 0 23.438 11.852 23.438 26.471 0 .47-.011 40.31-.033 40.774z"/>
            <path fill="#E7E5E2" d="M16.688 53.448c.957 1.531 3.646 28.432 11.718 28.432 8.074 0 11.719-27.4 11.719-28.827-12.361-7.081-23.438.395-23.438.395z"/>
            <path fill="#5EAEC7" d="M39.825 52.986c5.621 2.764 14.362 10.253 14.362 17.197V93.13H3.563V70.183c0-6.7 7.998-13.907 13.554-16.888-.281.172-.43.275-.43.275.958 1.586 3.531 8.623 11.603 8.623 8.074 0 11.835-7.555 11.835-9.032-.1-.06-.2-.118-.3-.175z"/>
            <path fill="#E7E5E2" d="M9.693 28.93s-.098.559-.225.467a1.522 1.522 0 0 0-.568-.116c-.87 0-1.577.73-1.579 1.631l-.008 6.24c-.002.903.701 1.635 1.572 1.636.349 0 .668-.12.93-.319 2.105 10.049 9.61 17.146 18.557 17.161 8.949.015 16.477-7.058 18.611-17.1.26.2.58.321.93.322.87 0 1.576-.73 1.577-1.63l.01-6.241c0-.902-.703-1.634-1.573-1.636-.2 0-.392.043-.568.114C27.178 31.85 20.139 18.13 19.544 18.13c0 0-8.44 7.9-9.85 10.8z"/>
            <g>
                <g fill="#635E59">
                    <path d="M21.68 34.801c-1.356.102-1.736-1.897-1.327-3.203.077-.248.526-1.375 1.32-1.375.795 0 1.145.616 1.194.722.584 1.273.297 3.744-1.187 3.856M36.82 34.801c1.357.102 1.737-1.897 1.328-3.203-.077-.248-.526-1.375-1.321-1.375-.794 0-1.145.616-1.193.722-.585 1.273-.298 3.744 1.186 3.856"/>
                </g>
                <path fill="#D1BFA3" fill-rule="nonzero" d="M29.68 37.1c.798-.123 1.343-.046 1.538.194.737.905.501 1.863-.762 2.649-.665.413-1.58.559-2.063.344a.469.469 0 0 0-.38.858c.8.354 2.031.158 2.938-.406 1.717-1.068 2.11-2.666.994-4.037-.472-.58-1.308-.698-2.407-.528a.469.469 0 1 0 .143.926z"/>
                <path fill="#D19E9C" fill-rule="nonzero" d="M35.024 43.935a4.27 4.27 0 0 1-.295.527 6.648 6.648 0 0 1-.998 1.214c-1.198 1.152-2.759 1.818-4.745 1.757-1.937-.06-3.49-.715-4.708-1.772a6.988 6.988 0 0 1-1.111-1.219 4.265 4.265 0 0 1-.33-.526.469.469 0 1 0-.842.414c.069.14.203.368.408.656a7.92 7.92 0 0 0 1.26 1.382c1.375 1.194 3.132 1.936 5.294 2.002 2.252.07 4.051-.699 5.424-2.018a7.58 7.58 0 0 0 1.138-1.386c.184-.288.303-.516.364-.656a.469.469 0 1 0-.86-.375z"/>
            </g>
        </g>
        <g>
            <path fill="#0C5472" d="M69 83.27V93H47v-9.73c0-2.784 3.594-5.961 6-7.27h10c2.428 1.332 6 4.518 6 7.27z"/>
            <path fill="#E7E5E2" d="M43.033 61c.514-7.818 7.019-14 14.967-14s14.453 6.182 14.967 14H73a2 2 0 0 1 2 2v2a2 2 0 0 1-2.796 1.835 15.04 15.04 0 0 1-9.206 9.312 5 5 0 0 1-9.996 0 15.04 15.04 0 0 1-9.206-9.312A2 2 0 0 1 41 65v-2a2 2 0 0 1 2.033-2z"/>
            <g fill="#E8CCC8">
                <path d="M54 69a3 3 0 1 1-6 0 3 3 0 0 1 6 0M68 69a3 3 0 1 1-6 0 3 3 0 0 1 6 0"/>
            </g>
            <path fill="#D1BFA3" fill-rule="nonzero" d="M58.824 64.534a.5.5 0 1 1-.206-.979c.673-.141 1.235-.033 1.544.487.601 1.01.392 2.173-.556 2.98-.551.468-1.324.636-1.865.309a.5.5 0 0 1 .518-.856c.118.072.445 0 .7-.216.58-.493.693-1.12.344-1.706-.033-.055-.178-.083-.48-.02z"/>
            <g fill="#635E59" fill-rule="nonzero">
                <path d="M49.515 61.121a.5.5 0 1 1 .97-.242c.283 1.13.773 1.621 1.515 1.621.742 0 1.232-.49 1.515-1.621a.5.5 0 1 1 .97.242C54.101 62.657 53.258 63.5 52 63.5c-1.258 0-2.101-.843-2.485-2.379zM61.515 61.121a.5.5 0 0 1 .97-.242c.283 1.13.773 1.621 1.515 1.621.742 0 1.232-.49 1.515-1.621a.5.5 0 0 1 .97.242C66.101 62.657 65.258 63.5 64 63.5c-1.258 0-2.101-.843-2.485-2.379z"/>
            </g>
            <g transform="translate(52 67)">
                <path fill="#91C823" d="M6.5.867C8 .867 9 0 10 0c1.668 0 3 1.12 3 3.034 0 1.916-2.015 3.468-4.5 3.468-.718 0-1.398.03-2 .002-.602.029-1.282-.002-2-.002C2.015 6.502 0 4.95 0 3.034 0 1.12 1.332 0 3 0c1 0 2 .867 3.5.867z"/>
                <ellipse cx="6.5" cy="3.5" fill="#FFF" rx="3.5" ry="2.5"/>
                <path fill="#FFF" fill-rule="nonzero" d="M9 3.5a.5.5 0 0 1 .5.5v2.778c0 1.401-1.486 2.722-3 2.722-1.625 0-3-1.115-3-2.722V4a.5.5 0 0 1 .5-.5h5zm-4.5 1v2.278c0 1.003.886 1.722 2 1.722.986 0 2-.901 2-1.722V4.5h-4z"/>
            </g>
            <path fill="#78706A" fill-rule="nonzero" d="M54.73 48.271a.5.5 0 1 1 .963.266c-.1.363-.003.523.645 1.106.659.593.811 1.369.446 2.207a.5.5 0 0 1-.917-.4c.197-.45.135-.764-.198-1.064-.911-.82-1.177-1.256-.94-2.115zm2.934-.273a.5.5 0 1 1 .804.594c-.223.303-.19.487.206 1.264.402.79.267 1.568-.375 2.22a.5.5 0 0 1-.712-.702c.344-.35.4-.665.196-1.064-.557-1.093-.649-1.594-.12-2.312zm2.874-.023a.5.5 0 0 1 .582.813c-.307.22-.331.404-.195 1.265.139.875-.231 1.575-1.043 1.996a.5.5 0 1 1-.46-.888c.436-.226.585-.51.515-.951-.192-1.212-.124-1.717.601-2.235z"/>
        </g>
    </g>
</svg>
