<svg xmlns="http://www.w3.org/2000/svg" width="117" height="93" viewBox="0 0 117 93">
    <g fill="none" fill-rule="evenodd">
        <path fill="#117938" d="M57.873 49h-8.066C45.457 49 31 59.22 31 68.523V93h54V68.523C85 59.22 70.29 49 65.942 49h-8.069z"/>
        <path fill="#FFF" d="M44.745 50.803c1.043 1.69 5.729 10.108 12.638 15.292 6.862-5.105 12.89-14.154 12.89-15.729-13.463-7.82-25.528.437-25.528.437z"/>
        <path fill="#E7E5E2" d="M78.188 35.27C75.67 45.508 67.585 53 58 53c-9.586 0-17.67-7.492-20.188-17.73a2.27 2.27 0 0 1-.812.148c-1.103 0-2-.771-2-1.726v-6.965c0-.955.897-1.727 2-1.727.071 0 .142.003.211.01C38.663 13.132 47.417 4 58 4c10.582 0 19.337 9.132 20.789 21.01.07-.007.14-.01.211-.01 1.105 0 2 .772 2 1.727v6.965c0 .955-.895 1.726-2 1.726-.289 0-.564-.053-.812-.148z"/>
        <path fill="#635E59" d="M50.03 27.625c-1.447.109-1.852-2.024-1.417-3.417.083-.264.562-1.465 1.41-1.465.847 0 1.221.656 1.273.769.623 1.358.317 3.993-1.266 4.113M66.18 27.625c1.447.109 1.852-2.024 1.416-3.417-.082-.264-.561-1.465-1.41-1.465-.846 0-1.22.656-1.272.769-.623 1.358-.318 3.993 1.266 4.113"/>
        <path stroke="#D1BFA3" stroke-linecap="round" d="M58.487 29.583c.865-.133 1.708-.1 2.104.385.965 1.185.688 2.554-.937 3.566-.812.505-1.962.712-2.667.4"/>
        <path stroke="#593A32" stroke-linecap="round" stroke-width="1.013" d="M64.722 37.568s-1.828 4.187-6.914 4.031c-5.086-.156-6.993-4.031-6.993-4.031"/>
        <path fill="#F6B873" d="M77.837 28.063c.328-.385.11-1.345.11-2.57C77.946 11.965 68.773 1 57.461 1 46.15 1 36.977 11.965 36.977 25.493c0 1.783.065 3.553.641 3.506.34-6.59 2.284-11.336 2.983-13.154 1.386-3.604 2.814-5.626 7.594-2.811 4.724 2.784 27.604-14.59 29.57 15.126-.065.07-.042.037.072-.097z"/>
        <g>
            <path fill="#9B9590" d="M58 52c7.732 0 14 6.02 14 13.447v13.106C72 85.979 65.732 92 58 92s-14-6.02-14-13.447V65.447C44 58.021 50.268 52 58 52z"/>
            <g fill="#C6C2BF">
                <path d="M37.352 55.653l4.035-3.403a1.08 1.08 0 0 1 1.473.085.985.985 0 0 1 .202.326L52.939 79.1c.193.515-.087 1.08-.626 1.267L47.78 81.94c-.541.188-1.14-.078-1.337-.594l-9.38-24.61a.963.963 0 0 1 .289-1.083zM78.648 55.653c.32.27.435.7.29 1.083l-9.38 24.61h-.001c-.197.516-.796.782-1.337.594l-4.533-1.573c-.539-.187-.819-.752-.626-1.267l9.877-26.44a.985.985 0 0 1 .202-.325 1.08 1.08 0 0 1 1.473-.085l4.035 3.403z"/>
            </g>
        </g>
        <g>
            <path fill="#5EAEC7" d="M67 82.987V91H49v-8.013c0-2.292 2.94-4.91 4.91-5.987h8.18c1.988 1.097 4.91 3.721 4.91 5.987z"/>
            <path fill="#FA96A0" d="M64.428 78.66c.863.765 1.712 1.696 2.163 2.618-.272.168-1.55.168-1.694-.233.15.387.05.845-.282 1.127a.97.97 0 0 1-1.338-.073c.22.464.052 1.03-.395 1.291a.97.97 0 0 1-1.071-.06.997.997 0 0 1-.635 1.08.969.969 0 0 1-.933-.147.984.984 0 0 1-.746.625.97.97 0 0 1-.872-.286.98.98 0 0 1-.878.55.978.978 0 0 1-.843-.487.969.969 0 0 1-.806.223.984.984 0 0 1-.746-.625.969.969 0 0 1-.933.146.997.997 0 0 1-.635-1.079.97.97 0 0 1-1.071.06 1.003 1.003 0 0 1-.395-1.291.97.97 0 0 1-1.338.073 1.005 1.005 0 0 1-.282-1.127c-.284.127-.612-.39-.88-.545.41-.64 1.068-1.294 1.747-1.865.564 2.168 3.23 3.81 6.435 3.81 3.192 0 5.85-1.63 6.428-3.784z"/>
            <path fill="#E7E5E2" d="M46.023 65.255C46.408 58.975 51.623 54 58 54c6.377 0 11.592 4.974 11.977 11.255A2 2 0 0 1 71 67v2a2 2 0 0 1-2.087 1.998 12.038 12.038 0 0 1-6.926 6.324 4 4 0 0 1-7.974 0 12.038 12.038 0 0 1-6.926-6.324A2 2 0 0 1 45 69v-2a2 2 0 0 1 1.023-1.745z"/>
            <path fill="#78706A" fill-rule="nonzero" d="M55.484 55.356a.4.4 0 0 1 .771.213c-.073.265-.003.38.484.818.506.456.624 1.054.343 1.698a.4.4 0 1 1-.733-.32c.146-.333.1-.562-.145-.783-.698-.628-.903-.964-.72-1.626zm2.23-.214a.4.4 0 1 1 .643.475c-.163.222-.139.355.159.938.309.607.205 1.208-.288 1.708a.4.4 0 0 1-.57-.56c.255-.26.295-.49.145-.785-.426-.836-.497-1.223-.09-1.776zm2.185-.022a.4.4 0 0 1 .466.65c-.224.16-.242.295-.14.941.107.673-.178 1.213-.801 1.536a.4.4 0 0 1-.369-.71c.323-.167.432-.374.38-.7-.147-.927-.094-1.317.464-1.717z"/>
            <g>
                <g fill="#E8CCC8">
                    <path d="M54.8 71.333c0 1.381-1.074 2.5-2.4 2.5-1.325 0-2.4-1.119-2.4-2.5 0-1.38 1.075-2.5 2.4-2.5 1.326 0 2.4 1.12 2.4 2.5M66 71.333c0 1.381-1.074 2.5-2.4 2.5-1.325 0-2.4-1.119-2.4-2.5 0-1.38 1.075-2.5 2.4-2.5 1.326 0 2.4 1.12 2.4 2.5"/>
                </g>
                <path fill="#FA96A0" d="M56.705 74.956a1.257 1.257 0 0 1-.73-1.227l.563-1.562 2.209.976-.688 1.507c-.334.38-.873.519-1.354.306z"/>
                <path fill="#D1BFA3" fill-rule="nonzero" d="M58.66 67.611a.4.4 0 0 1-.475-.322.417.417 0 0 1 .31-.493c.538-.118.987-.027 1.235.405.48.842.313 1.812-.445 2.483-.441.39-1.06.53-1.492.259a.427.427 0 0 1-.135-.573.391.391 0 0 1 .549-.14c.095.06.356 0 .56-.18.464-.412.554-.934.275-1.422-.026-.046-.142-.07-.383-.017z"/>
                <g fill="#635E59">
                    <path fill-rule="nonzero" d="M60.812 66.232a.418.418 0 0 0 .291.505.4.4 0 0 0 .485-.303c.226-.942.619-1.35 1.212-1.35s.986.408 1.212 1.35a.4.4 0 0 0 .485.303.418.418 0 0 0 .291-.505c-.307-1.28-.981-1.982-1.988-1.982-1.007 0-1.68.702-1.988 1.982z"/>
                    <path d="M53.606 67.164c-1.103.075-1.412-1.38-1.08-2.33.063-.18.428-1 1.074-1 .646 0 .93.448.97.525.475.926.243 2.724-.964 2.805"/>
                </g>
                <path fill="#593A32" fill-rule="nonzero" d="M59.958 72.353a.425.425 0 0 0-.18-.559.393.393 0 0 0-.536.186c-.192.4-.582.603-1.242.603s-1.05-.203-1.242-.603a.393.393 0 0 0-.537-.186.425.425 0 0 0-.179.559c.342.711 1.018 1.064 1.958 1.064s1.616-.353 1.958-1.064z"/>
            </g>
        </g>
        <g>
            <path fill="#C6C2BF" d="M73 93H43v-9.882C43 81.948 44.362 81 46.042 81h23.916c1.68 0 3.042.948 3.042 2.118V93z"/>
            <path fill="#FFF" d="M45.124 81h25.752C72.601 81 74 82.343 74 84s-1.399 3-3.124 3H45.124C43.399 87 42 85.657 42 84s1.399-3 3.124-3z"/>
        </g>
    </g>
</svg>
