<svg xmlns="http://www.w3.org/2000/svg" width="117" height="93" viewBox="0 0 117 93">
    <g fill="none" fill-rule="evenodd">
        <path fill="#E7E5E2" d="M77 50.673C78.021 52.306 80.89 81 89.5 81c8.612 0 12.5-29.228 12.5-30.749-13.185-7.553-25 .422-25 .422z"/>
        <path fill="#8B6D47" d="M101.68 50.18C107.676 53.128 117 61.116 117 68.523V93H63V68.523c0-7.147 8.531-14.834 14.458-18.014-.3.183-.458.294-.458.294C78.021 52.493 80.766 60 89.376 60 97.99 60 102 51.941 102 50.366a26.67 26.67 0 0 0-.32-.186z"/>
        <path fill="#E7E5E2" d="M110.188 35.27C107.67 45.508 99.585 53 90 53c-9.586 0-17.67-7.492-20.188-17.73a2.27 2.27 0 0 1-.812.148c-1.103 0-2-.771-2-1.726v-6.965c0-.955.897-1.727 2-1.727.071 0 .142.003.211.01C70.663 13.132 79.417 4 90 4c10.582 0 19.337 9.132 20.789 21.01.07-.007.14-.01.211-.01 1.105 0 2 .772 2 1.727v6.965c0 .955-.895 1.726-2 1.726-.289 0-.564-.053-.812-.148z"/>
        <g fill="#635E59">
            <path d="M82.03 27.625c-1.447.109-1.852-2.024-1.417-3.417.083-.264.562-1.465 1.41-1.465.847 0 1.221.656 1.273.769.623 1.358.317 3.993-1.266 4.113M98.18 27.625c1.447.109 1.852-2.024 1.416-3.417-.082-.264-.561-1.465-1.41-1.465-.846 0-1.22.656-1.272.769-.623 1.358-.318 3.993 1.266 4.113"/>
        </g>
        <path stroke="#D1BFA3" stroke-linecap="round" d="M90.487 29.583c.866-.133 1.709-.1 2.105.385.964 1.185.687 2.554-.938 3.566-.811.505-1.961.712-2.666.4"/>
        <path stroke="#593A32" stroke-linecap="round" stroke-width="1.013" d="M96.722 37.568s-1.828 4.187-6.914 4.031c-5.086-.156-6.993-4.031-6.993-4.031"/>
        <path fill="#F6B873" d="M85.188 35.012l5.183.374 5.243-.376A4 4 0 0 1 99.9 39v.703h-2.305l-.306-1.25-.21 1.25h-.839l-.153-.592-.166.592-5.424.222-7.66-.222-.17-.592-.297.592H80.9v-.7a4 4 0 0 1 4.288-3.99z"/>
        <path fill="#344144" d="M89.934 0c1.64 0 2.97 1.393 2.97 3.111v.017c5.927 1.042 11.014 4.946 14.727 12.242l1.274.428c1.002 2.016 1.296 4.391 1.492 6.786-5.664-1.607-12.495-2.41-20.492-2.41-11.999 0-20.33 2.562-20.33 2.562.132-2.442 0-4.664 1.167-6.938l1.57-.428c3.423-6.547 8.654-11.248 14.65-12.305C86.985 1.368 88.307 0 89.934 0z"/>
        <g>
            <path fill="#9B9590" d="M90 52c7.732 0 14 6.02 14 13.447v13.106C104 85.979 97.732 92 90 92s-14-6.02-14-13.447V65.447C76 58.021 82.268 52 90 52z"/>
            <g fill="#C6C2BF">
                <path d="M69.352 55.653l4.035-3.403a1.08 1.08 0 0 1 1.473.085.985.985 0 0 1 .202.326L84.939 79.1c.193.515-.087 1.08-.626 1.267L79.78 81.94c-.541.188-1.14-.078-1.337-.594l-9.38-24.61a.963.963 0 0 1 .289-1.083zM110.648 55.653c.32.27.435.7.29 1.083l-9.38 24.61h-.001c-.197.516-.796.782-1.337.594l-4.533-1.573c-.539-.187-.819-.752-.626-1.267l9.877-26.44a.985.985 0 0 1 .202-.325 1.08 1.08 0 0 1 1.473-.085l4.035 3.403z"/>
            </g>
        </g>
        <g>
            <path fill="#117938" d="M99 82.987V91H81v-8.013c0-2.292 2.94-4.91 4.91-5.987h8.18c1.988 1.097 4.91 3.721 4.91 5.987z"/>
            <path fill="#FA96A0" d="M96.428 78.66c.863.765 1.712 1.696 2.163 2.618-.272.168-1.55.168-1.694-.233.15.387.05.845-.282 1.127a.97.97 0 0 1-1.338-.073c.22.464.052 1.03-.395 1.291a.97.97 0 0 1-1.071-.06.997.997 0 0 1-.635 1.08.969.969 0 0 1-.933-.147.984.984 0 0 1-.746.625.97.97 0 0 1-.872-.286.98.98 0 0 1-.878.55.978.978 0 0 1-.843-.487.969.969 0 0 1-.806.223.984.984 0 0 1-.746-.625.969.969 0 0 1-.933.146.997.997 0 0 1-.635-1.079.97.97 0 0 1-1.071.06 1.003 1.003 0 0 1-.395-1.291.97.97 0 0 1-1.338.073 1.005 1.005 0 0 1-.282-1.127c-.284.127-.612-.39-.88-.545.41-.64 1.068-1.294 1.747-1.865.564 2.168 3.23 3.81 6.435 3.81 3.192 0 5.85-1.63 6.428-3.784z"/>
            <path fill="#E7E5E2" d="M78.023 65.255C78.408 58.975 83.623 54 90 54c6.377 0 11.592 4.974 11.977 11.255A2 2 0 0 1 103 67v2a2 2 0 0 1-2.087 1.998 12.038 12.038 0 0 1-6.926 6.324 4 4 0 0 1-7.974 0 12.038 12.038 0 0 1-6.926-6.324A2 2 0 0 1 77 69v-2a2 2 0 0 1 1.023-1.745z"/>
            <path fill="#78706A" fill-rule="nonzero" d="M87.484 55.356a.4.4 0 0 1 .771.213c-.073.265-.003.38.484.818.506.456.624 1.054.343 1.698a.4.4 0 1 1-.733-.32c.146-.333.1-.562-.145-.783-.698-.628-.903-.964-.72-1.626zm2.23-.214a.4.4 0 1 1 .643.475c-.163.222-.139.355.159.938.309.607.205 1.208-.288 1.708a.4.4 0 0 1-.57-.56c.255-.26.295-.49.145-.785-.426-.836-.497-1.223-.09-1.776zm2.185-.022a.4.4 0 0 1 .466.65c-.224.16-.242.295-.14.941.107.673-.178 1.213-.801 1.536a.4.4 0 0 1-.369-.71c.323-.167.432-.374.38-.7-.147-.927-.094-1.317.464-1.717z"/>
            <g>
                <g fill="#E8CCC8">
                    <path d="M86.8 71.333c0 1.381-1.074 2.5-2.4 2.5-1.325 0-2.4-1.119-2.4-2.5 0-1.38 1.075-2.5 2.4-2.5 1.326 0 2.4 1.12 2.4 2.5M98 71.333c0 1.381-1.074 2.5-2.4 2.5-1.325 0-2.4-1.119-2.4-2.5 0-1.38 1.075-2.5 2.4-2.5 1.326 0 2.4 1.12 2.4 2.5"/>
                </g>
                <path fill="#FA96A0" d="M88.705 74.956a1.257 1.257 0 0 1-.73-1.227l.563-1.562 2.209.976-.688 1.507c-.334.38-.873.519-1.354.306z"/>
                <path fill="#D1BFA3" fill-rule="nonzero" d="M90.66 67.611a.4.4 0 0 1-.475-.322.417.417 0 0 1 .31-.493c.538-.118.987-.027 1.235.405.48.842.313 1.812-.445 2.483-.441.39-1.06.53-1.492.259a.427.427 0 0 1-.135-.573.391.391 0 0 1 .549-.14c.095.06.356 0 .56-.18.464-.412.554-.934.275-1.422-.026-.046-.142-.07-.383-.017z"/>
                <g fill="#635E59">
                    <path fill-rule="nonzero" d="M92.812 66.232a.418.418 0 0 0 .291.505.4.4 0 0 0 .485-.303c.226-.942.619-1.35 1.212-1.35s.986.408 1.212 1.35a.4.4 0 0 0 .485.303.418.418 0 0 0 .291-.505c-.307-1.28-.981-1.982-1.988-1.982-1.007 0-1.68.702-1.988 1.982z"/>
                    <path d="M85.606 67.164c-1.103.075-1.412-1.38-1.08-2.33.063-.18.428-1 1.074-1 .646 0 .93.448.97.525.475.926.243 2.724-.964 2.805"/>
                </g>
                <path fill="#593A32" fill-rule="nonzero" d="M91.958 72.353a.425.425 0 0 0-.18-.559.393.393 0 0 0-.536.186c-.192.4-.582.603-1.242.603s-1.05-.203-1.242-.603a.393.393 0 0 0-.537-.186.425.425 0 0 0-.179.559c.342.711 1.018 1.064 1.958 1.064s1.616-.353 1.958-1.064z"/>
            </g>
        </g>
        <g>
            <path fill="#C6C2BF" d="M105 93H75v-9.882C75 81.948 76.362 81 78.042 81h23.916c1.68 0 3.042.948 3.042 2.118V93z"/>
            <path fill="#FFF" d="M77.124 81h25.752c1.725 0 3.124 1.343 3.124 3s-1.399 3-3.124 3H77.124C75.399 87 74 85.657 74 84s1.399-3 3.124-3z"/>
        </g>
        <g>
            <path fill="#194D62" d="M26.873 49.936h-8.066C14.457 49.936 0 59.938 0 69.044V93h54V69.044c0-9.106-14.71-19.108-19.058-19.108h-8.069z"/>
            <path fill="#CDD1D1" d="M13.745 51.7c1.043 1.656 5.729 9.893 12.638 14.968 6.862-4.997 12.89-13.853 12.89-15.395-13.463-7.654-25.528.428-25.528.428z"/>
            <path fill="#709CAA" d="M28.968 58.756v-4.905l-.724.038h-3.52L24 53.851v4.905l1.085.664-.998 5.328c.8.827 1.561 1.476 2.285 1.947a20.269 20.269 0 0 0 2.325-1.853l-.814-5.422 1.085-.664z"/>
            <path fill="#FFF" d="M38.918 48.957c-3.538 3.135-7.857 4.964-12.523 4.964-4.584 0-8.83-1.804-12.332-4.873-.042.28-.258 1.578-.258 1.866 0 3.446 5.686 7.87 9.33 10.767l2.125-7.218h2.562l2.043 7.218c3.42-2.793 9.291-7.215 9.291-10.767 0-.319-.188-1.645-.238-1.957z"/>
            <path fill="#E7E5E2" d="M47.188 35.27C44.67 45.508 36.585 53 27 53c-9.586 0-17.67-7.492-20.188-17.73a2.27 2.27 0 0 1-.812.148c-1.103 0-2-.771-2-1.726v-6.965C4 25.772 4.897 25 6 25c.071 0 .142.003.211.01C7.663 13.132 16.417 4 27 4c10.582 0 19.337 9.132 20.789 21.01.07-.007.14-.01.211-.01 1.105 0 2 .772 2 1.727v6.965c0 .955-.895 1.726-2 1.726-.289 0-.564-.053-.812-.148z"/>
            <g>
                <g fill="#635E59">
                    <path d="M19.03 27.625c-1.447.109-1.852-2.024-1.417-3.417.083-.264.562-1.465 1.41-1.465.847 0 1.221.656 1.273.769.623 1.358.317 3.993-1.266 4.113M35.18 27.625c1.447.109 1.852-2.024 1.416-3.417-.082-.264-.561-1.465-1.41-1.465-.846 0-1.22.656-1.272.769-.623 1.358-.318 3.993 1.266 4.113"/>
                </g>
                <path stroke="#D1BFA3" stroke-linecap="round" d="M27.488 29.583c.864-.133 1.707-.1 2.104.385.965 1.185.688 2.554-.937 3.566-.813.505-1.963.712-2.668.4"/>
                <path stroke="#593A32" stroke-linecap="round" stroke-width="1.013" d="M33.722 37.568s-1.828 4.187-6.914 4.031c-5.086-.156-6.993-4.031-6.993-4.031"/>
            </g>
            <path fill="#3E3832" d="M47.161 25.85C44.174-.63 22.391 15.742 17.795 13.034c-4.78-2.815-6.208-.793-7.594 2.81-.683 1.776-2.552 6.342-2.956 12.69.661 4.663 2.825 10.365 10.604 7.562 4.134-1.49 5.874-2.144 8.823-2.144 2.949 0 4.748.464 8.543 2.144 10.184 2.499 11.592-5.844 11.946-10.246zm.374-1.163C49.415 48.183 33.925 53 25.988 53c-6.25 0-15.514-3.596-18.995-17-.723-2.78-.559-5.337-.383-8.892-.026-.5-.033-1.057-.033-1.615C6.577 11.965 15.75 1 27.062 1 38.15 1 47.18 11.532 47.535 24.687zM18.9 39.214c0 1.775 3.582 4.441 8 4.441s8-2.666 8-4.44c0-1.776-3.582-3.215-8-3.215s-8 1.44-8 3.214z"/>
        </g>
        <g>
            <path fill="#5C4378" d="M69 83.27V93H47v-9.73c0-2.784 3.594-5.961 6-7.27h10c2.428 1.332 6 4.518 6 7.27z"/>
            <path fill="#FA96A0" d="M65.857 78.017c1.054.927 2.092 2.059 2.643 3.177-.333.204-1.895.204-2.07-.283.184.47.06 1.027-.345 1.37a1.192 1.192 0 0 1-1.636-.09c.269.565.065 1.25-.482 1.568a1.191 1.191 0 0 1-1.31-.073 1.21 1.21 0 0 1-.776 1.31 1.19 1.19 0 0 1-1.14-.176 1.2 1.2 0 0 1-.911.758 1.191 1.191 0 0 1-1.067-.346 1.196 1.196 0 1 1-2.103.076 1.19 1.19 0 0 1-.985.27 1.2 1.2 0 0 1-.911-.758 1.19 1.19 0 0 1-1.14.177 1.21 1.21 0 0 1-.777-1.31c-.371.275-.884.32-1.31.072a1.213 1.213 0 0 1-.481-1.567c-.433.456-1.15.5-1.636.089-.405-.343-.529-.9-.344-1.37-.348.155-.749-.473-1.076-.661.502-.777 1.305-1.571 2.135-2.264.69 2.632 3.949 4.625 7.865 4.625 3.9 0 7.15-1.977 7.857-4.594z"/>
            <path fill="#E7E5E2" d="M43.033 61c.514-7.818 7.019-14 14.967-14s14.453 6.182 14.967 14H73a2 2 0 0 1 2 2v2a2 2 0 0 1-2.796 1.835 15.04 15.04 0 0 1-9.206 9.312 5 5 0 0 1-9.996 0 15.04 15.04 0 0 1-9.206-9.312A2 2 0 0 1 41 65v-2a2 2 0 0 1 2.033-2z"/>
            <g fill="#E8CCC8">
                <path d="M54 69a3 3 0 1 1-6 0 3 3 0 0 1 6 0M68 69a3 3 0 1 1-6 0 3 3 0 0 1 6 0"/>
            </g>
            <path fill="#D1BFA3" fill-rule="nonzero" d="M58.824 64.534a.5.5 0 1 1-.206-.979c.673-.141 1.235-.033 1.544.487.601 1.01.392 2.173-.556 2.98-.551.468-1.324.636-1.865.309a.5.5 0 0 1 .518-.856c.118.072.445 0 .7-.216.58-.493.693-1.12.344-1.706-.033-.055-.178-.083-.48-.02z"/>
            <g fill="#635E59" fill-rule="nonzero">
                <path d="M49.515 62.879a.5.5 0 1 0 .97.242c.283-1.13.773-1.621 1.515-1.621.742 0 1.232.49 1.515 1.621a.5.5 0 1 0 .97-.242c-.384-1.536-1.227-2.38-2.485-2.38-1.258 0-2.101.844-2.485 2.38zM61.515 62.879a.5.5 0 0 0 .97.242c.283-1.13.773-1.621 1.515-1.621.742 0 1.232.49 1.515 1.621a.5.5 0 0 0 .97-.242c-.384-1.536-1.227-2.38-2.485-2.38-1.258 0-2.101.844-2.485 2.38z"/>
            </g>
            <path fill="#593A32" d="M55 69h6c0 2.21-1.343 4-3 4s-3-1.79-3-4z"/>
            <path fill="#FA96A0" d="M57.916 73c-.783 0-1.406-.267-1.916-1 .095-1.016.87-2 1.916-2 1.046 0 1.989.984 2.084 2-.51.733-1.302 1-2.084 1z"/>
            <path fill="#78706A" fill-rule="nonzero" d="M54.73 48.271a.5.5 0 1 1 .963.266c-.1.363-.003.523.645 1.106.659.593.811 1.369.446 2.207a.5.5 0 0 1-.917-.4c.197-.45.135-.764-.198-1.064-.911-.82-1.177-1.256-.94-2.115zm2.934-.273a.5.5 0 1 1 .804.594c-.223.303-.19.487.206 1.264.402.79.267 1.568-.375 2.22a.5.5 0 0 1-.712-.702c.344-.35.4-.665.196-1.064-.557-1.093-.649-1.594-.12-2.312zm2.874-.023a.5.5 0 0 1 .582.813c-.307.22-.331.404-.195 1.265.139.875-.231 1.575-1.043 1.996a.5.5 0 1 1-.46-.888c.436-.226.585-.51.515-.951-.192-1.212-.124-1.717.601-2.235z"/>
        </g>
    </g>
</svg>
