<svg xmlns="http://www.w3.org/2000/svg" xmlns:xlink="http://www.w3.org/1999/xlink" width="117" height="93" viewBox="0 0 117 93">
    <defs>
        <path id="a" d="M56.355 28.992a4.653 4.653 0 0 1 1.998 3.833c0 1.06-.351 2.037-.942 2.818.59.782.942 1.758.942 2.818 0 2.31-1.667 4.226-3.849 4.583-.492 2.284-2.258 4.087-4.506 4.605.099 2.18-1.34 4.195-3.514 4.722a4.524 4.524 0 0 1-3.439-.541 5.892 5.892 0 0 1-2.732.668c-2.531 0-4.696-1.593-5.567-3.843-.63-.097-1.253-.4-1.787-.959a3.1 3.1 0 0 0-2.523-.967 3.414 3.414 0 0 0-.061.117c-.568 1.127-1.558 1.678-2.571 1.745a3.33 3.33 0 0 0-.19.556c-.738 2.984-4.66 3.215-5.89.693-.736 1.571-2.316 2.658-4.146 2.658a4.55 4.55 0 0 1-3.378-1.503 4.52 4.52 0 0 1-2.19.563c-2.533 0-4.586-2.078-4.586-4.642 0-.449.063-.883.18-1.293a4.637 4.637 0 0 1-2.935-3.819 4.644 4.644 0 0 1-2.813-4.282 4.642 4.642 0 0 1 2.93-4.33c.107-1.465-.787-2.952-2.39-3.358-3.195-.81-3.195-5.407 0-6.216 2.41-.611 3.218-3.663 1.432-5.412-2.367-2.318-.096-6.298 3.07-5.382.522.15 1.034.162 1.51.062a4.732 4.732 0 0 1-.056-.729 4.65 4.65 0 0 1 2.332-4.043c-.16-2.784 3.311-4.551 5.42-2.384.678-1.707 2.328-2.912 4.257-2.912.583 0 1.14.11 1.653.311a3.02 3.02 0 0 1 1.24-.985c1.02-2.057 4.163-2.522 5.55-.193 1.281 2.153 4.401 2.04 5.53-.198 1.449-2.878 5.648-2 5.964 1.09.157-.016.317-.025.478-.025 1.974 0 3.657 1.263 4.303 3.035.042-.025.084-.051.125-.078 2.762-1.815 6.085 1.318 4.493 4.237-1.2 2.2.455 4.88 2.934 4.748 3.29-.173 4.619 4.223 1.799 5.944a3.319 3.319 0 0 0-.247.166 4.637 4.637 0 0 1 3.242 4.44c0 1.18-.435 2.256-1.15 3.075.045.2.072.403.08.607z"/>
        <path id="c" d="M47.027 67.245c-11.19 1.729-10.92 3.75-23.498 3.75-12.638 0-12.4-2.053-23.505-3.948C.008 66.65 0 26.874 0 26.471 0 11.851 10.533 0 23.53 0c12.993 0 23.529 11.852 23.529 26.471 0 .47-.011 40.31-.032 40.774z"/>
        <path id="e" d="M36.531 2.972C42.194 5.73 51 13.195 51 20.12V43H0V20.12C0 13.438 8.057 6.252 13.655 3.28a9.333 9.333 0 0 0-.433.275c.965 1.58 3.557 8.597 11.69 8.597S36.832 4.62 36.832 3.147c-.1-.06-.201-.118-.302-.175z"/>
        <path id="g" d="M64 60.159v9.73H42v-9.73c0-2.784 3.594-5.962 6-7.27h10c2.428 1.331 6 4.518 6 7.27z"/>
        <path id="i" d="M18.857 2.017c1.054.927 2.092 2.059 2.643 3.177-.333.204-1.895.204-2.07-.283.184.47.06 1.027-.345 1.37a1.192 1.192 0 0 1-1.636-.09c.269.565.065 1.25-.482 1.568a1.191 1.191 0 0 1-1.31-.073 1.21 1.21 0 0 1-.776 1.31 1.19 1.19 0 0 1-1.14-.176 1.2 1.2 0 0 1-.911.758 1.191 1.191 0 0 1-1.067-.346 1.196 1.196 0 1 1-2.103.076 1.19 1.19 0 0 1-.985.27 1.2 1.2 0 0 1-.911-.758 1.19 1.19 0 0 1-1.14.177 1.21 1.21 0 0 1-.777-1.31c-.371.275-.884.32-1.31.072a1.213 1.213 0 0 1-.481-1.567c-.433.456-1.15.5-1.636.089-.405-.343-.529-.9-.344-1.37-.348.155-.749-.473-1.076-.661.502-.777 1.305-1.571 2.135-2.264C3.825 4.618 7.084 6.61 11 6.61c3.9 0 7.15-1.977 7.857-4.594z"/>
    </defs>
    <g fill="none" fill-rule="evenodd">
        <g transform="translate(58.824 3.13)">
            <mask id="b" fill="#fff">
                <use xlink:href="#a"/>
            </mask>
            <use fill="#333" xlink:href="#a"/>
            <g fill="#3E3832" mask="url(#b)">
                <path d="M-2.824-2.813h65v74h-65z"/>
            </g>
        </g>
        <path fill="#E7E5E2" d="M75.688 53.448c.957 1.531 3.646 28.432 11.718 28.432 8.074 0 11.719-27.4 11.719-28.827-12.361-7.081-23.438.395-23.438.395z"/>
        <path fill="#0F5FA9" d="M88.063 71.038l-7.7-19.163c-4.152 0-17.8 9.388-17.8 18.13v23h51v-23c0-8.742-13.651-18.13-17.802-18.13l-7.698 19.163z"/>
        <path fill="#3C84C5" d="M80.39 50.424c-2.24.765-5.546 2.836-5.546 2.836-.169 6.7 6.184 13.46 6.184 13.46l1.29-4.284 4.854 8.99 2.586.079 4.466-8.123 1.82 4.56c6.128-10.415 5.189-14.798 5.189-14.798-2.447-2.055-5.534-3.139-5.534-3.139L88.38 69.036l-7.99-18.612z"/>
        <path fill="#E7E5E2" d="M89.561 18.145c.245 1.877 1.79 3.323 3.659 3.323 1.699 0 3.13-1.197 3.56-2.826a4.17 4.17 0 0 1-.15 1.172c-1.088 3.964 4.522 7.02 7.272 4.057.442-.223 1.022-.172 1.737.155.52 1.721.88 3.537 1.054 5.42.088-.02.178-.03.28-.03.88 0 1.527.74 1.527 1.652v5.958c0 .914-.635 1.652-1.517 1.652-.352 0-.596-.12-.859-.32l-.06.263c-1.328 5.986-4.55 10.844-8.844 13.785-2.88 2.05-6.233 3.224-9.814 3.224-2.529 0-4.944-.586-7.16-1.652-5.737-2.583-10.124-8.27-11.676-15.623-.264.202-.495.323-.848.323-.881 0-1.41-.738-1.41-1.652v-6.221c1.803 1.489 5.75 1.044 6.48-1.988.724-3.014 4.345-4.025 6.418-1.793 2.751 2.963 7.473.122 6.387-3.84-.75-2.73 1.4-5.272 3.964-5.04z"/>
        <g>
            <path fill="#635E59" d="M80.715 34.873c-1.362.104-1.743-1.922-1.333-3.246.077-.25.528-1.392 1.326-1.392.797 0 1.15.624 1.198.731.587 1.29.299 3.793-1.191 3.907M95.914 34.873c1.362.104 1.743-1.922 1.333-3.246-.077-.25-.528-1.392-1.326-1.392a1.34 1.34 0 0 0-1.198.731c-.587 1.29-.299 3.793 1.191 3.907"/>
            <path fill="#D1BFA3" fill-rule="nonzero" d="M88.746 37.203c.801-.124 1.348-.046 1.544.196.74.918.503 1.888-.766 2.685-.667.418-1.585.566-2.07.349a.469.469 0 0 0-.621.242c-.106.24.002.52.24.626.803.36 2.038.161 2.949-.41 1.723-1.083 2.118-2.702.998-4.091-.474-.588-1.313-.707-2.417-.536a.474.474 0 0 0 .143.94z"/>
            <path fill="#D19E9C" fill-rule="nonzero" d="M94.11 44.13c-.042.097-.14.285-.296.533a6.724 6.724 0 0 1-1.001 1.23c-1.204 1.168-2.77 1.843-4.764 1.78-1.944-.06-3.504-.724-4.727-1.795a7.058 7.058 0 0 1-1.115-1.235 4.33 4.33 0 0 1-.332-.534.469.469 0 0 0-.63-.216.477.477 0 0 0-.214.636c.069.142.203.373.409.665a8 8 0 0 0 1.265 1.4c1.38 1.21 3.145 1.962 5.315 2.03 2.26.07 4.067-.709 5.445-2.046.46-.446.84-.925 1.143-1.404.184-.292.304-.523.365-.665a.477.477 0 0 0-.243-.625.469.469 0 0 0-.62.245z"/>
        </g>
        <g>
            <g transform="translate(5.47 3.13)">
                <mask id="d" fill="#fff">
                    <use xlink:href="#c"/>
                </mask>
                <g fill="#F6B873" mask="url(#d)">
                    <path d="M-9.412-.938h65v74h-65z"/>
                </g>
            </g>
            <path fill="#E7E5E2" d="M16.688 53.448c.957 1.531 3.646 28.432 11.718 28.432 8.074 0 11.719-27.4 11.719-28.827-12.361-7.081-23.438.395-23.438.395z"/>
            <g transform="translate(3.563 50.005)">
                <mask id="f" fill="#fff">
                    <use xlink:href="#e"/>
                </mask>
                <use fill="#D8A25D" xlink:href="#e"/>
                <g mask="url(#f)">
                    <path fill="#5EAEC7" d="M-31.167 69.63h119v-93h-119z"/>
                </g>
            </g>
            <path fill="#E7E5E2" d="M9.693 28.93s-.098.559-.225.467a1.522 1.522 0 0 0-.568-.116c-.87 0-1.577.73-1.579 1.631l-.008 6.24c-.002.903.701 1.635 1.572 1.636.349 0 .668-.12.93-.319 2.105 10.049 9.61 17.146 18.557 17.161 8.949.015 16.477-7.058 18.611-17.1.26.2.58.321.93.322.87 0 1.576-.73 1.577-1.63l.01-6.241c0-.902-.703-1.634-1.573-1.636-.2 0-.392.043-.568.114C27.178 31.85 20.139 18.13 19.544 18.13c0 0-8.44 7.9-9.85 10.8z"/>
            <g>
                <path fill="#635E59" d="M21.715 34.873c-1.362.104-1.743-1.922-1.333-3.246.077-.25.528-1.392 1.326-1.392.797 0 1.15.624 1.198.731.587 1.29.299 3.793-1.191 3.907M36.914 34.873c1.362.104 1.743-1.922 1.333-3.246-.077-.25-.528-1.392-1.326-1.392a1.34 1.34 0 0 0-1.198.731c-.587 1.29-.299 3.793 1.191 3.907"/>
                <path fill="#D1BFA3" fill-rule="nonzero" d="M29.746 37.203c.801-.124 1.348-.046 1.544.196.74.918.503 1.888-.766 2.685-.667.418-1.585.566-2.07.349a.469.469 0 0 0-.621.242c-.106.24.002.52.24.626.803.36 2.038.161 2.949-.41 1.723-1.083 2.118-2.702.998-4.091-.474-.588-1.313-.707-2.417-.536a.474.474 0 0 0 .143.94z"/>
                <path fill="#D19E9C" fill-rule="nonzero" d="M35.11 44.13c-.042.097-.14.285-.296.533a6.724 6.724 0 0 1-1.001 1.23c-1.204 1.168-2.77 1.843-4.764 1.78-1.944-.06-3.504-.724-4.727-1.795a7.058 7.058 0 0 1-1.115-1.235 4.33 4.33 0 0 1-.332-.534.469.469 0 0 0-.63-.216.477.477 0 0 0-.214.636c.069.142.203.373.409.665a8 8 0 0 0 1.265 1.4c1.38 1.21 3.145 1.962 5.315 2.03 2.26.07 4.067-.709 5.445-2.046.46-.446.84-.925 1.143-1.404.184-.292.304-.523.365-.665a.477.477 0 0 0-.243-.625.469.469 0 0 0-.62.245z"/>
            </g>
        </g>
        <g>
            <g transform="translate(47 76)">
                <g transform="translate(-42 -52.889)">
                    <mask id="h" fill="#fff">
                        <use xlink:href="#g"/>
                    </mask>
                    <use fill="#D8A25D" xlink:href="#g"/>
                    <g fill="#C86151" mask="url(#h)">
                        <path d="M.87 113h115V0H.87z"/>
                    </g>
                </g>
                <use fill="#FA96A0" xlink:href="#i"/>
            </g>
            <path fill="#E7E5E2" d="M43.033 61c.514-7.818 7.019-14 14.967-14s14.453 6.182 14.967 14H73a2 2 0 0 1 2 2v2a2 2 0 0 1-2.796 1.835 15.04 15.04 0 0 1-9.206 9.312 5 5 0 0 1-9.996 0 15.04 15.04 0 0 1-9.206-9.312A2 2 0 0 1 41 65v-2a2 2 0 0 1 2.033-2z"/>
            <path stroke="#593A32" stroke-linecap="round" d="M56 70c.333.667 1 1 2 1s1.667-.333 2-1"/>
            <path fill="#E8CCC8" d="M54 69a3 3 0 1 1-6 0 3 3 0 0 1 6 0M68 69a3 3 0 1 1-6 0 3 3 0 0 1 6 0"/>
            <path fill="#D1BFA3" fill-rule="nonzero" d="M58.824 64.534a.5.5 0 1 1-.206-.979c.673-.141 1.235-.033 1.544.487.601 1.01.392 2.173-.556 2.98-.551.468-1.324.636-1.865.309a.5.5 0 0 1 .518-.856c.118.072.445 0 .7-.216.58-.493.693-1.12.344-1.706-.033-.055-.178-.083-.48-.02z"/>
            <path fill="#635E59" fill-rule="nonzero" d="M49.515 61.121a.5.5 0 1 1 .97-.242c.283 1.13.773 1.621 1.515 1.621.742 0 1.232-.49 1.515-1.621a.5.5 0 1 1 .97.242C54.101 62.657 53.258 63.5 52 63.5c-1.258 0-2.101-.843-2.485-2.379zM61.515 61.121a.5.5 0 0 1 .97-.242c.283 1.13.773 1.621 1.515 1.621.742 0 1.232-.49 1.515-1.621a.5.5 0 0 1 .97.242C66.101 62.657 65.258 63.5 64 63.5c-1.258 0-2.101-.843-2.485-2.379z"/>
            <g transform="translate(52 67)">
                <path fill="#91C823" d="M6.5.867C8 .867 9 0 10 0c1.668 0 3 1.12 3 3.034 0 1.916-2.015 3.468-4.5 3.468-.718 0-1.398.03-2 .002-.602.029-1.282-.002-2-.002C2.015 6.502 0 4.95 0 3.034 0 1.12 1.332 0 3 0c1 0 2 .867 3.5.867z"/>
                <ellipse cx="6.5" cy="3.5" fill="#FFF" rx="3.5" ry="2.5"/>
            </g>
            <path fill="#FFF" fill-rule="nonzero" d="M61 70.5a.5.5 0 0 1 .5.5v2.778c0 1.401-1.486 2.722-3 2.722-1.625 0-3-1.115-3-2.722V71a.5.5 0 0 1 .5-.5h5zm-4.5 1v2.278c0 1.003.886 1.722 2 1.722.986 0 2-.901 2-1.722V71.5h-4z"/>
            <g fill="#78706A" fill-rule="nonzero">
                <path d="M54.73 48.271a.5.5 0 0 1 .963.266c-.1.363-.003.523.645 1.106.659.593.811 1.369.446 2.207a.5.5 0 1 1-.917-.4c.197-.45.135-.764-.198-1.064-.911-.82-1.177-1.256-.94-2.115zM57.664 47.998a.5.5 0 0 1 .804.594c-.223.303-.19.487.206 1.264.402.79.267 1.568-.375 2.22a.5.5 0 0 1-.712-.702c.344-.35.4-.665.196-1.064-.557-1.093-.649-1.594-.12-2.312zM60.538 47.975a.5.5 0 0 1 .582.813c-.307.22-.331.404-.195 1.265.139.875-.231 1.575-1.043 1.996a.5.5 0 0 1-.46-.888c.436-.226.585-.51.515-.951-.192-1.212-.124-1.717.601-2.235z"/>
            </g>
        </g>
    </g>
</svg>
