<svg xmlns="http://www.w3.org/2000/svg" xmlns:xlink="http://www.w3.org/1999/xlink" width="117" height="93" viewBox="0 0 117 93">
    <defs>
        <path id="a" d="M38.68 3.18C44.676 6.128 54 14.116 54 21.523V46H0V21.523C0 14.376 8.531 6.689 14.458 3.509c-.3.183-.458.294-.458.294C15.021 5.493 17.766 13 26.376 13 34.99 13 39 4.941 39 3.366a26.67 26.67 0 0 0-.32-.186z"/>
        <path id="c" d="M4.288.012L9.47.386 14.714.01A4 4 0 0 1 19 4v.703h-2.305l-.306-1.25-.21 1.25h-.839l-.153-.592-.166.592-5.424.222-7.66-.222-.17-.592-.297.592H0v-.7A4 4 0 0 1 4.288.012z"/>
        <path id="e" d="M26.873 0h-8.066C14.457 0 0 10.002 0 19.107v23.957h54V19.107C54 10.002 39.29 0 34.942 0h-8.069z"/>
        <path id="g" d="M41.837 28.063c.328-.385.11-1.345.11-2.57C41.946 11.965 32.773 1 21.461 1 10.15 1 .977 11.965.977 25.493c0 1.783.065 3.553.641 3.506.34-6.59 2.284-11.336 2.983-13.154 1.386-3.604 2.814-5.626 7.594-2.811 4.724 2.784 27.604-14.59 29.57 15.126-.065.07-.042.037.072-.097z"/>
        <path id="i" d="M13 17.214C13 15.44 16.582 14 21 14s8 1.44 8 3.214c0 1.775-3.582 4.441-8 4.441s-8-2.666-8-4.44zm7.772-5.262c-2.949 0-4.689.654-8.823 2.144C-.736 18.666.348.108.348.108c0 27.263 12.854 29.92 20.814 29.92C29.25 30.028 42 28.487 42 2c-.562.796.612 15.359-12.685 12.096-3.795-1.68-5.594-2.144-8.543-2.144z"/>
        <path id="k" d="M52.364 49.543v8.013h-18v-8.013c0-2.293 2.94-4.91 4.909-5.987h8.182c1.986 1.096 4.909 3.72 4.909 5.987z"/>
        <path id="m" d="M15.428 1.66c.863.765 1.712 1.696 2.163 2.618-.272.168-1.55.168-1.694-.233.15.387.05.845-.282 1.127a.97.97 0 0 1-1.338-.073c.22.464.052 1.03-.395 1.291a.97.97 0 0 1-1.071-.06.997.997 0 0 1-.635 1.08.969.969 0 0 1-.933-.147.984.984 0 0 1-.746.625.97.97 0 0 1-.872-.286.98.98 0 0 1-.878.55.978.978 0 0 1-.843-.487.969.969 0 0 1-.806.223.984.984 0 0 1-.746-.625.969.969 0 0 1-.933.146.997.997 0 0 1-.635-1.079.97.97 0 0 1-1.071.06 1.003 1.003 0 0 1-.395-1.291.97.97 0 0 1-1.338.073 1.005 1.005 0 0 1-.282-1.127c-.284.127-.612-.39-.88-.545.41-.64 1.068-1.294 1.747-1.865.564 2.168 3.23 3.81 6.435 3.81 3.192 0 5.85-1.63 6.428-3.784z"/>
        <path id="n" d="M22 7.27V17H0V7.27C0 4.486 3.594 1.309 6 0h10c2.428 1.332 6 4.518 6 7.27z"/>
    </defs>
    <g fill="none" fill-rule="evenodd">
        <path fill="#E7E5E2" d="M77 50.673C78.021 52.306 80.89 81 89.5 81c8.612 0 12.5-29.228 12.5-30.749-13.185-7.553-25 .422-25 .422z"/>
        <g transform="translate(63 47)">
            <mask id="b" fill="#fff">
                <use xlink:href="#a"/>
            </mask>
            <use fill="#D8A25D" xlink:href="#a"/>
            <g fill="#8B6D47" mask="url(#b)">
                <path d="M-33 75H93V-25H-33z"/>
            </g>
        </g>
        <path fill="#E7E5E2" d="M110.188 35.27C107.67 45.508 99.585 53 90 53c-9.586 0-17.67-7.492-20.188-17.73a2.27 2.27 0 0 1-.812.148c-1.103 0-2-.771-2-1.726v-6.965c0-.955.897-1.727 2-1.727.071 0 .142.003.211.01C70.663 13.132 79.417 4 90 4c10.582 0 19.337 9.132 20.789 21.01.07-.007.14-.01.211-.01 1.105 0 2 .772 2 1.727v6.965c0 .955-.895 1.726-2 1.726-.289 0-.564-.053-.812-.148z"/>
        <path fill="#635E59" d="M82.03 27.625c-1.447.109-1.852-2.024-1.417-3.417.083-.264.562-1.465 1.41-1.465.847 0 1.221.656 1.273.769.623 1.358.317 3.993-1.266 4.113M98.18 27.625c1.447.109 1.852-2.024 1.416-3.417-.082-.264-.561-1.465-1.41-1.465-.846 0-1.22.656-1.272.769-.623 1.358-.318 3.993 1.266 4.113"/>
        <path stroke="#D1BFA3" stroke-linecap="round" d="M90.487 29.583c.866-.133 1.709-.1 2.105.385.964 1.185.687 2.554-.938 3.566-.811.505-1.961.712-2.666.4"/>
        <path stroke="#593A32" stroke-linecap="round" stroke-width="1.013" d="M96.722 37.568s-1.828 4.187-6.914 4.031c-5.086-.156-6.993-4.031-6.993-4.031"/>
        <g fill="#344144">
            <path d="M109.753 22.584c-.196-2.395-.601-4.77-1.604-6.786l-1.273-.428C102.474 6.722 96.144 2.84 88.772 2.84c-7.058 0-13.312 5.064-17.215 12.53l-1.57.428c-1.167 2.274-1.162 4.496-1.293 6.938 0 0 8.457-2.563 20.455-2.563 11.997 0 20.604 2.411 20.604 2.411-.042-.14.044.138 0 0"/>
            <path d="M92.15 3.111C92.15 1.393 90.818 0 89.177 0c-1.64 0-2.972 1.393-2.972 3.111 0 1.718 1.331 3.111 2.972 3.111 1.64 0 2.971-1.393 2.971-3.111"/>
        </g>
        <g>
            <g transform="translate(80.9 35)">
                <mask id="d" fill="#fff">
                    <use xlink:href="#c"/>
                </mask>
                <use fill="#3E3832" xlink:href="#c"/>
                <g fill="#F6B873" mask="url(#d)">
                    <path d="M-34-45h69v79h-69z"/>
                </g>
            </g>
        </g>
        <g>
            <path fill="#E7E5E2" d="M14 50.673C15.021 52.306 17.89 81 26.5 81 35.112 81 39 51.772 39 50.251c-13.185-7.553-25 .422-25 .422z"/>
            <g transform="translate(0 49.936)">
                <mask id="f" fill="#fff">
                    <use xlink:href="#e"/>
                </mask>
                <use fill="#FFF" xlink:href="#e"/>
                <g fill="#194D62" mask="url(#f)">
                    <path d="M-33 71.574H93v-98H-33z"/>
                </g>
            </g>
            <path fill="#CDD1D1" d="M13.745 51.7c1.043 1.656 5.729 9.893 12.638 14.968 6.862-4.997 12.89-13.853 12.89-15.395-13.463-7.654-25.528.428-25.528.428z"/>
            <path fill="#709CAA" d="M28.968 58.756v-4.905l-.724.038h-3.52L24 53.851v4.905l1.085.664-.998 5.328c.8.827 1.561 1.476 2.285 1.947a20.269 20.269 0 0 0 2.325-1.853l-.814-5.422 1.085-.664z"/>
            <path fill="#FFF" d="M38.918 48.957c-3.538 3.135-7.857 4.964-12.523 4.964-4.584 0-8.83-1.804-12.332-4.873-.042.28-.258 1.578-.258 1.866 0 3.446 5.686 7.87 9.33 10.767l2.125-7.218h2.562l2.043 7.218c3.42-2.793 9.291-7.215 9.291-10.767 0-.319-.188-1.645-.238-1.957z"/>
            <path fill="#E7E5E2" d="M47.188 35.27C44.67 45.508 36.585 53 27 53c-9.586 0-17.67-7.492-20.188-17.73a2.27 2.27 0 0 1-.812.148c-1.103 0-2-.771-2-1.726v-6.965C4 25.772 4.897 25 6 25c.071 0 .142.003.211.01C7.663 13.132 16.417 4 27 4c10.582 0 19.337 9.132 20.789 21.01.07-.007.14-.01.211-.01 1.105 0 2 .772 2 1.727v6.965c0 .955-.895 1.726-2 1.726-.289 0-.564-.053-.812-.148z"/>
            <g>
                <path fill="#635E59" d="M19.03 27.625c-1.447.109-1.852-2.024-1.417-3.417.083-.264.562-1.465 1.41-1.465.847 0 1.221.656 1.273.769.623 1.358.317 3.993-1.266 4.113M35.18 27.625c1.447.109 1.852-2.024 1.416-3.417-.082-.264-.561-1.465-1.41-1.465-.846 0-1.22.656-1.272.769-.623 1.358-.318 3.993 1.266 4.113"/>
                <path stroke="#D1BFA3" stroke-linecap="round" d="M27.488 29.583c.864-.133 1.707-.1 2.104.385.965 1.185.688 2.554-.937 3.566-.813.505-1.963.712-2.668.4"/>
                <path stroke="#593A32" stroke-linecap="round" stroke-width="1.013" d="M33.722 37.568s-1.828 4.187-6.914 4.031c-5.086-.156-6.993-4.031-6.993-4.031"/>
            </g>
            <g transform="translate(5)">
                <mask id="h" fill="#fff">
                    <use xlink:href="#g"/>
                </mask>
                <use fill="#3E3832" xlink:href="#g"/>
                <g fill="#3E3832" mask="url(#h)">
                    <path d="M-11.727-22h67v79h-67z"/>
                </g>
            </g>
            <g>
                <g transform="translate(5.9 22)">
                    <mask id="j" fill="#fff">
                        <use xlink:href="#i"/>
                    </mask>
                    <g fill="#3E3832" mask="url(#j)">
                        <path d="M-11-20.357h69v85h-69z"/>
                    </g>
                </g>
            </g>
        </g>
        <g>
            <path fill="#9B9590" d="M90 52c7.732 0 14 6.02 14 13.447v13.106C104 85.979 97.732 92 90 92s-14-6.02-14-13.447V65.447C76 58.021 82.268 52 90 52z"/>
            <path fill="#C6C2BF" d="M69.352 55.653l4.035-3.403a1.08 1.08 0 0 1 1.473.085.985.985 0 0 1 .202.326L84.939 79.1c.193.515-.087 1.08-.626 1.267L79.78 81.94c-.541.188-1.14-.078-1.337-.594l-9.38-24.61a.963.963 0 0 1 .289-1.083zM110.648 55.653c.32.27.435.7.29 1.083l-9.38 24.61h-.001c-.197.516-.796.782-1.337.594l-4.533-1.573c-.539-.187-.819-.752-.626-1.267l9.877-26.44a.985.985 0 0 1 .202-.325 1.08 1.08 0 0 1 1.473-.085l4.035 3.403z"/>
            <g transform="translate(81 77)">
                <g transform="translate(-34.364 -43.556)">
                    <mask id="l" fill="#fff">
                        <use xlink:href="#k"/>
                    </mask>
                    <use fill="#D8A25D" xlink:href="#k"/>
                    <g mask="url(#l)">
                        <path fill="#117938" d="M.711 93h94V0h-94z"/>
                    </g>
                </g>
                <use fill="#FA96A0" xlink:href="#m"/>
            </g>
            <path fill="#E7E5E2" d="M78.023 65.255C78.408 58.975 83.623 54 90 54c6.377 0 11.592 4.974 11.977 11.255A2 2 0 0 1 103 67v2a2 2 0 0 1-2.087 1.998 12.038 12.038 0 0 1-6.926 6.324 4 4 0 0 1-7.974 0 12.038 12.038 0 0 1-6.926-6.324A2 2 0 0 1 77 69v-2a2 2 0 0 1 1.023-1.745z"/>
            <g fill="#78706A" fill-rule="nonzero">
                <path d="M87.484 55.356a.4.4 0 0 1 .771.213c-.073.265-.003.38.484.818.506.456.624 1.054.343 1.698a.4.4 0 0 1-.733-.32c.146-.333.1-.562-.145-.783-.698-.628-.903-.964-.72-1.626zM89.714 55.142a.4.4 0 1 1 .643.475c-.163.222-.139.355.159.938.309.607.205 1.208-.288 1.708a.4.4 0 1 1-.57-.56c.255-.26.295-.49.145-.785-.426-.836-.497-1.223-.09-1.776zM91.9 55.12a.4.4 0 0 1 .465.65c-.224.16-.242.295-.14.941.107.673-.178 1.213-.801 1.536a.4.4 0 1 1-.369-.71c.323-.167.432-.374.38-.7-.147-.927-.094-1.317.464-1.717z"/>
            </g>
            <path fill="#E8CCC8" d="M86.8 71.333c0 1.381-1.074 2.5-2.4 2.5-1.325 0-2.4-1.119-2.4-2.5 0-1.38 1.075-2.5 2.4-2.5 1.326 0 2.4 1.12 2.4 2.5"/>
            <path fill="#FA96A0" d="M88.685 74.956a1.205 1.205 0 0 1-.716-1.209l.588-1.56 2.21.937-.715 1.507c-.34.383-.886.53-1.367.325z"/>
            <path fill="#E8CCC8" d="M98 71.333c0 1.381-1.074 2.5-2.4 2.5-1.325 0-2.4-1.119-2.4-2.5 0-1.38 1.075-2.5 2.4-2.5 1.326 0 2.4 1.12 2.4 2.5"/>
            <path fill="#D1BFA3" fill-rule="nonzero" d="M90.66 67.611a.4.4 0 0 1-.475-.322.417.417 0 0 1 .31-.493c.538-.118.987-.027 1.235.405.48.842.313 1.812-.445 2.483-.441.39-1.06.53-1.492.259a.427.427 0 0 1-.135-.573.391.391 0 0 1 .549-.14c.095.06.356 0 .56-.18.464-.412.554-.934.275-1.422-.026-.046-.142-.07-.383-.017z"/>
            <path fill="#635E59" fill-rule="nonzero" d="M92.812 66.232a.418.418 0 0 0 .291.505.4.4 0 0 0 .485-.303c.226-.942.619-1.35 1.212-1.35s.986.408 1.212 1.35a.4.4 0 0 0 .485.303.418.418 0 0 0 .291-.505c-.307-1.28-.981-1.982-1.988-1.982-1.007 0-1.68.702-1.988 1.982z"/>
            <path fill="#635E59" d="M85.606 67.164c-1.103.075-1.412-1.38-1.08-2.33.063-.18.428-1 1.074-1 .646 0 .93.448.97.525.475.926.243 2.724-.964 2.805"/>
            <path fill="#593A32" fill-rule="nonzero" d="M91.958 72.353a.425.425 0 0 0-.18-.559.393.393 0 0 0-.536.186c-.192.4-.582.603-1.242.603s-1.05-.203-1.242-.603a.393.393 0 0 0-.537-.186.425.425 0 0 0-.179.559c.342.711 1.018 1.064 1.958 1.064s1.616-.353 1.958-1.064z"/>
            <path fill="#C6C2BF" d="M105 93H75v-9.882C75 81.948 76.362 81 78.042 81h23.916c1.68 0 3.042.948 3.042 2.118V93z"/>
            <path fill="#FFF" d="M77.124 81h25.752c1.725 0 3.124 1.343 3.124 3s-1.399 3-3.124 3H77.124C75.399 87 74 85.657 74 84s1.399-3 3.124-3z"/>
        </g>
        <g>
            <g transform="translate(47 76)">
                <mask id="o" fill="#fff">
                    <use xlink:href="#n"/>
                </mask>
                <use fill="#D8A25D" xlink:href="#n"/>
                <g fill="#5EAEC7" mask="url(#o)">
                    <path d="M-41.13 60.111h115v-113h-115z"/>
                </g>
            </g>
            <path fill="#E7E5E2" d="M43.033 61c.514-7.818 7.019-14 14.967-14s14.453 6.182 14.967 14H73a2 2 0 0 1 2 2v2a2 2 0 0 1-2.796 1.835 15.04 15.04 0 0 1-9.206 9.312 5 5 0 0 1-9.996 0 15.04 15.04 0 0 1-9.206-9.312A2 2 0 0 1 41 65v-2a2 2 0 0 1 2.033-2z"/>
            <path fill="#E8CCC8" d="M54 69a3 3 0 1 1-6 0 3 3 0 0 1 6 0M68 69a3 3 0 1 1-6 0 3 3 0 0 1 6 0"/>
            <path fill="#D1BFA3" fill-rule="nonzero" d="M58.824 64.534a.5.5 0 1 1-.206-.979c.673-.141 1.235-.033 1.544.487.601 1.01.392 2.173-.556 2.98-.551.468-1.324.636-1.865.309a.5.5 0 0 1 .518-.856c.118.072.445 0 .7-.216.58-.493.693-1.12.344-1.706-.033-.055-.178-.083-.48-.02z"/>
            <path fill="#635E59" fill-rule="nonzero" d="M49.515 62.879a.5.5 0 1 0 .97.242c.283-1.13.773-1.621 1.515-1.621.742 0 1.232.49 1.515 1.621a.5.5 0 1 0 .97-.242c-.384-1.536-1.227-2.38-2.485-2.38-1.258 0-2.101.844-2.485 2.38zM61.515 62.879a.5.5 0 0 0 .97.242c.283-1.13.773-1.621 1.515-1.621.742 0 1.232.49 1.515 1.621a.5.5 0 0 0 .97-.242c-.384-1.536-1.227-2.38-2.485-2.38-1.258 0-2.101.844-2.485 2.38z"/>
            <path fill="#593A32" d="M55 69h6c0 2.21-1.343 4-3 4s-3-1.79-3-4z"/>
            <path fill="#FA96A0" d="M57.916 73c-.783 0-1.406-.267-1.916-1 .095-1.016.87-2 1.916-2 1.046 0 1.989.984 2.084 2-.51.733-1.302 1-2.084 1z"/>
            <g fill="#78706A" fill-rule="nonzero">
                <path d="M54.73 48.271a.5.5 0 0 1 .963.266c-.1.363-.003.523.645 1.106.659.593.811 1.369.446 2.207a.5.5 0 1 1-.917-.4c.197-.45.135-.764-.198-1.064-.911-.82-1.177-1.256-.94-2.115zM57.664 47.998a.5.5 0 0 1 .804.594c-.223.303-.19.487.206 1.264.402.79.267 1.568-.375 2.22a.5.5 0 0 1-.712-.702c.344-.35.4-.665.196-1.064-.557-1.093-.649-1.594-.12-2.312zM60.538 47.975a.5.5 0 0 1 .582.813c-.307.22-.331.404-.195 1.265.139.875-.231 1.575-1.043 1.996a.5.5 0 0 1-.46-.888c.436-.226.585-.51.515-.951-.192-1.212-.124-1.717.601-2.235z"/>
            </g>
        </g>
    </g>
</svg>
