<?xml version="1.0" encoding="UTF-8"?>
<svg width="100px" height="100px" viewBox="0 0 100 100" version="1.1" xmlns="http://www.w3.org/2000/svg" xmlns:xlink="http://www.w3.org/1999/xlink">
    <!-- Generator: Sketch 55.1 (78136) - https://sketchapp.com -->
    <title>ikon/dokumentasjon</title>
    <desc>Created with Sketch.</desc>
    <g stroke="none" stroke-width="1" fill="none" fill-rule="evenodd">
        <circle fill="#C1B5D0" cx="50" cy="50" r="50"></circle>
        <path d="M35.9375,27.3660714 L35.9375,73.5620075 C35.9375,75.2190591 37.2555216,76.5625 38.8820516,76.5625 L78.3071115,76.5625 C79.9319784,76.5625 81.25,75.2190591 81.25,73.5620075 L81.25,20.1879925 C81.25,18.5309409 79.9319784,17.1875 78.3071115,17.1875 L46.8460648,17.1875 L35.9375,27.3660714 Z"   fill="#FFFFFF"></path>
        <path d="M46.8460648,17.1875 L46.920373,23.991482 C46.920373,25.825494 45.5135778,27.3116438 43.7774948,27.3116438 L35.982873,27.3116438 L46.8460648,17.1875 Z" fill="#C9C9C9"></path>
        <polygon fill="#8F9395" points="44.72 39.44 73.28 39.44 73.28 36.92 44.72 36.92"></polygon>
        <polygon fill="#8F9395" points="44.72 45.32 73.28 45.32 73.28 42.8 44.72 42.8"></polygon>
        <polygon fill="#8F9395" points="44.72 51.2 73.28 51.2 73.28 48.68 44.72 48.68"></polygon>
        <polygon fill="#8F9395" points="44.72 57.08 73.28 57.08 73.28 54.56 44.72 54.56"></polygon>
        <polygon fill="#8F9395" points="44.72 62.96 73.28 62.96 73.28 60.44 44.72 60.44"></polygon>
        <polygon fill="#8F9395" points="44.72 33.56 73.28 33.56 73.28 31.04 44.72 31.04"></polygon>
        <path d="M16.8035876,59.8650998 L19.2979096,59.8650998 C19.9797643,59.8650998 20.8836946,62.6312785 23.2137474,62.6312785 C24.7671159,62.6312785 29.0083668,62.6312785 35.9375,62.6312785 L35.8981437,45.577911 C35.143177,45.577911 34.5779934,45.577911 34.2025927,45.577911 C33.6394917,45.577911 33.8499566,44.7459431 34.60431,44.2657562 C35.3623343,43.7846717 38.9147701,42.3432134 38.9147701,42.3432134 C38.9147701,42.3432134 43.1077639,40.4224656 42.3534104,38.6453252 C41.5981393,36.8735701 38.8395183,37.6858489 38.8395183,37.6858489 C38.8395183,37.6858489 34.4886792,38.5896774 32.4146661,39.0914054 C29.79003,39.7241751 27.0974929,41.0525997 25.1556201,42.4177096 C23.2137474,43.7828196 20.7194254,46.4754566 19.5507989,46.4754566 C18.7717146,46.4754566 17.8559775,46.4754566 16.8035876,46.4754566 L16.8035876,59.8650998 Z"   fill="#E9E7E7"></path>
        <path d="M0.279645113,44.6803653 L15.8878505,44.6803653 L15.8878505,62.6312785 L1.60919862,62.6312785 C0.558965125,58.5965368 0,54.3635451 0,50 C0,48.203073 0.0947909045,46.4282855 0.279645113,44.6803653 Z"   fill="#561D5B"></path>
        <polygon fill="#7C7086" points="11.3091649 62.6312785 16.8035876 62.6312785 16.8035876 44.6803653 11.3091649 44.6803653"></polygon>
        <path d="M13.7895304,60.7171727 C14.4149789,60.7171727 14.9204658,60.2199324 14.9204658,59.6069087 C14.9204658,58.9956801 14.4149789,58.4993373 13.7895304,58.4993373 C13.164082,58.4993373 12.6576794,58.9956801 12.6576794,59.6069087 C12.6576794,60.2199324 13.164082,60.7171727 13.7895304,60.7171727"   fill="#38363A"></path>
    </g>
</svg>