<?xml version="1.0" encoding="UTF-8"?>
<svg width="84px" height="84px" viewBox="0 0 84 84" version="1.1" xmlns="http://www.w3.org/2000/svg" xmlns:xlink="http://www.w3.org/1999/xlink">
    <!-- Generator: Sketch 52.1 (67048) - http://www.bohemiancoding.com/sketch -->
    <title>Illustrations/spotlight/family</title>
    <desc>Created with Sketch.</desc>
    <defs>
        <circle  cx="41.6666667" cy="41.6666667" r="41.6666667"></circle>
    </defs>
    <g  stroke="none" stroke-width="1" fill="none" fill-rule="evenodd">
        <g  transform="translate(-138.000000, 0.000000)">
            <g  transform="translate(138.000000, 0.000000)">
                <g  stroke-width="1">
                    <mask  fill="white">
                        <use xlink:href="#path-1"></use>
                    </mask>
                    <g ></g>
                    <g  mask="url(#mask-2)" fill="#CCE1F3">
                        <g transform="translate(-10.833333, 0.000000)" >
                            <polygon points="0 83.3333333 105 83.3333333 105 0 0 0"></polygon>
                        </g>
                    </g>
                </g>
                <g  transform="translate(23.333333, 16.666667)">
                    <path d="M34.8206667,4.50976776 L2.47798551,4.50976776 C1.14316667,4.50976776 0.063057971,5.58285519 0.063057971,6.90867486 L0.063057971,47.4189208 C0.063057971,47.6661885 0.10092029,47.9066257 0.171137681,48.1306694 C0.288855072,48.5070355 0.498130435,48.842418 0.772115942,49.114959 C0.825123188,49.1668716 0.882949275,49.2208333 0.944217391,49.2686475 C1.30012319,49.5623634 1.74483333,49.7536202 2.23015942,49.8041667 C2.31276812,49.8123634 2.39537681,49.8171448 2.47798551,49.8171448 L34.8206667,49.8171448 C36.1554855,49.8171448 37.236971,48.7426913 37.236971,47.4189208 L37.236971,6.90867486 C37.236971,5.58285519 36.1554855,4.50976776 34.8206667,4.50976776"  fill="#515658"></path>
                    <path d="M3.05452536,13.3648907 L3.05452536,44.5322404 C3.05452536,45.6456284 3.96253261,46.5445355 5.08119203,46.5445355 L32.2174601,46.5445355 C33.336808,46.5445355 34.2448152,45.6456284 34.2448152,44.5322404 L34.2448152,8.74740437 C34.2448152,7.63606557 33.336808,6.73579235 32.2174601,6.73579235 L10.109308,6.73579235 L3.05452536,13.3648907 Z"  fill="#FFFFFF"></path>
                    <path d="M10.1093768,6.73606557 L10.1093768,11.3515027 C10.1093768,12.4635246 9.20205797,13.3651639 8.08271014,13.3651639 L3.0545942,13.3651639 L10.1093768,6.73606557 Z"  fill="#C0C0BE"></path>
                    <path d="M18.6505652,5.63606557 C18.2182464,5.63606557 17.8685362,5.29043716 17.8685362,4.86147541 C17.8685362,4.43251366 18.2182464,4.08483607 18.6505652,4.08483607 C19.0808188,4.08483607 19.4319058,4.43251366 19.4319058,4.86147541 C19.4319058,5.29043716 19.0808188,5.63606557 18.6505652,5.63606557 M23.4783551,2.46461749 L20.5691522,2.46461749 L20.5691522,1.93114754 C20.5691522,0.879234973 19.7093333,0.0267759563 18.6505652,0.0267759563 C17.5883551,0.0267759563 16.7306014,0.879234973 16.7306014,1.93114754 L16.7306014,2.46461749 L13.8213986,2.46461749 C12.3874493,2.46461749 11.2233551,3.61967213 11.2233551,5.0431694 L11.2233551,8.1442623 L26.0757101,8.1442623 L26.0757101,5.0431694 C26.0757101,3.61967213 24.9123043,2.46461749 23.4783551,2.46461749"  fill="#2F3237"></path>
                    <g  transform="translate(1.376812, 10.928962)" stroke-width="1">
                        <g  transform="translate(6.746032, 8.769841)">
                            <polygon  fill="#A59D96" points="4.93094444 3.76563492 20.4953889 3.76563492 20.4953889 2.02650794 4.93094444 2.02650794"></polygon>
                            <polygon  fill="#A59D96" points="4.93094444 7.69924603 20.4953889 7.69924603 20.4953889 5.96079365 4.93094444 5.96079365"></polygon>
                            <polygon  fill="#A59D96" points="4.93094444 11.6328571 20.4953889 11.6328571 20.4953889 9.89507937 4.93094444 9.89507937"></polygon>
                            <polygon  fill="#A59D96" points="4.93094444 15.5678175 20.4953889 15.5678175 20.4953889 13.8293651 4.93094444 13.8293651"></polygon>
                            <path d="M3.1875,1.35230952 L2.51289683,1.35230952 L0.674603175,1.35230952 L0,1.35230952 L0,2.0269127 L0,3.76603968 L0,4.44064286 L0.674603175,4.44064286 L2.51289683,4.44064286 L3.1875,4.44064286 L3.1875,3.76603968 L3.1875,2.0269127 L3.1875,1.35230952 Z M0.674603175,3.76603968 L2.51289683,3.76603968 L2.51289683,2.0269127 L0.674603175,2.0269127 L0.674603175,3.76603968 Z"  fill="#A59D96"></path>
                            <path d="M3.1875,5.28625794 L2.51289683,5.28625794 L0.674603175,5.28625794 L0,5.28625794 L0,5.96086111 L0,7.69931349 L0,8.37391667 L0.674603175,8.37391667 L2.51289683,8.37391667 L3.1875,8.37391667 L3.1875,7.69931349 L3.1875,5.96086111 L3.1875,5.28625794 Z M0.674603175,7.69931349 L2.51289683,7.69931349 L2.51289683,5.96086111 L0.674603175,5.96086111 L0.674603175,7.69931349 Z"  fill="#A59D96"></path>
                            <path d="M3.1875,9.22027381 L2.51289683,9.22027381 L0.674603175,9.22027381 L0,9.22027381 L0,9.89487698 L0,11.6326548 L0,12.3072579 L0.674603175,12.3072579 L2.51289683,12.3072579 L3.1875,12.3072579 L3.1875,11.6326548 L3.1875,9.89487698 L3.1875,9.22027381 Z M0.674603175,11.6326548 L2.51289683,11.6326548 L2.51289683,9.89487698 L0.674603175,9.89487698 L0.674603175,11.6326548 Z"  fill="#A59D96"></path>
                            <path d="M3.1875,13.1548968 L2.51289683,13.1548968 L0.674603175,13.1548968 L0,13.1548968 L0,13.8295 L0,15.5679524 L0,16.2425556 L0.674603175,16.2425556 L2.51289683,16.2425556 L3.1875,16.2425556 L3.1875,15.5679524 L3.1875,13.8295 L3.1875,13.1548968 Z M0.674603175,15.5679524 L2.51289683,15.5679524 L2.51289683,13.8295 L0.674603175,13.8295 L0.674603175,15.5679524 Z"  fill="#A59D96"></path>
                            <polyline stroke="#2F3237" stroke-width="1.66666667" points="0.024015873 1.15829365 1.74425397 3.1247619 4.16473016 0"></polyline>
                            <polyline stroke="#2F3237" stroke-width="1.66666667" points="0.024015873 5.18978968 1.74425397 7.15625794 4.16473016 4.03149603"></polyline>
                        </g>
                    </g>
                </g>
            </g>
        </g>
    </g>
</svg>