<?xml version="1.0" encoding="UTF-8"?>
<svg width="100px" height="100px" viewBox="0 0 100 100" version="1.1" xmlns="http://www.w3.org/2000/svg" xmlns:xlink="http://www.w3.org/1999/xlink">
    <!-- Generator: Sketch 55.1 (78136) - https://sketchapp.com -->
    <title>ikon/hva skjer naar</title>
    <desc>Created with Sketch.</desc>
    <g id="ikon/hva-skjer-naar" stroke="none" stroke-width="1" fill="none" fill-rule="evenodd">
        <circle id="Mask" fill="#C1B5D0" cx="50" cy="50" r="50"></circle>
        <polygon id="Fill-138" fill="#EFEFEF" points="20 80.5013938 79.5845849 80.5013938 79.5845849 20 20 20"></polygon>
        <path d="M26.7272918,24.255155 C26.7272918,25.560149 25.6508003,26.6173399 24.3239075,26.6173399 C22.9962347,26.6173399 21.9220834,25.560149 21.9220834,24.255155 C21.9220834,22.9516954 22.9962347,21.8906686 24.3239075,21.8906686 C25.6508003,21.8906686 26.7272918,22.9516954 26.7272918,24.255155" id="Fill-140" fill="#838688"></path>
        <path d="M77.6625015,24.255155 C77.6625015,25.560149 76.587221,26.6173399 75.2598973,26.6173399 C73.9302326,26.6173399 72.857293,25.560149 72.857293,24.255155 C72.857293,22.9516954 73.9302326,21.8906686 75.2598973,21.8906686 C76.587221,21.8906686 77.6625015,22.9516954 77.6625015,24.255155" id="Fill-141" fill="#838688"></path>
        <path d="M33.7216207,36.7888603 L63.914388,36.7888603 C67.9522021,36.7888603 71.2254972,40.0621554 71.2254972,44.0999695 C71.2254972,48.1377836 67.9522021,51.4110787 63.914388,51.4110787 L34.9301568,51.4110787 C30.8923427,51.4110787 27.6190476,54.6843738 27.6190476,58.7221879 C27.6190476,62.760002 30.8923427,66.033297 34.9301568,66.033297 L67.6376973,66.033297" id="Path-3" stroke="#838688" stroke-width="2"></path>
        <ellipse id="Oval" stroke="#838688" stroke-width="2" fill="#EFEFEF" cx="33.4332409" cy="36.7888603" rx="3.87612885" ry="3.77347571"></ellipse>
        <ellipse id="Oval-Copy-2" stroke="#838688" stroke-width="2" fill="#EFEFEF" cx="40.2164664" cy="51.8827631" rx="3.87612885" ry="3.77347571"></ellipse>
        <ellipse id="Oval-Copy-4" stroke="#838688" stroke-width="2" fill="#EFEFEF" cx="47.9687241" cy="66.033297" rx="3.87612885" ry="3.77347571"></ellipse>
        <ellipse id="Oval-Copy" stroke="#838688" stroke-width="2" fill="#EFEFEF" cx="51.8448529" cy="36.7888603" rx="3.87612885" ry="3.77347571"></ellipse>
        <ellipse id="Oval-Copy-3" stroke="#838688" stroke-width="2" fill="#EFEFEF" cx="58.6280784" cy="51.8827631" rx="3.87612885" ry="3.77347571"></ellipse>
        <ellipse id="Oval-Copy-5" stroke="#838688" stroke-width="2" fill="#EFEFEF" cx="66.3803361" cy="66.033297" rx="3.87612885" ry="3.77347571"></ellipse>
        <polygon id="Fill-138" fill="#EFEFEF" points="20 80.5013938 79.5845849 80.5013938 79.5845849 20 20 20"></polygon>
        <path d="M26.7272918,24.255155 C26.7272918,25.560149 25.6508003,26.6173399 24.3239075,26.6173399 C22.9962347,26.6173399 21.9220834,25.560149 21.9220834,24.255155 C21.9220834,22.9516954 22.9962347,21.8906686 24.3239075,21.8906686 C25.6508003,21.8906686 26.7272918,22.9516954 26.7272918,24.255155" id="Fill-140" fill="#838688"></path>
        <path d="M77.6625015,24.255155 C77.6625015,25.560149 76.587221,26.6173399 75.2598973,26.6173399 C73.9302326,26.6173399 72.857293,25.560149 72.857293,24.255155 C72.857293,22.9516954 73.9302326,21.8906686 75.2598973,21.8906686 C76.587221,21.8906686 77.6625015,22.9516954 77.6625015,24.255155" id="Fill-141" fill="#838688"></path>
        <path d="M33.7216207,36.7888603 L63.914388,36.7888603 C67.9522021,36.7888603 71.2254972,40.0621554 71.2254972,44.0999695 C71.2254972,48.1377836 67.9522021,51.4110787 63.914388,51.4110787 L34.9301568,51.4110787 C30.8923427,51.4110787 27.6190476,54.6843738 27.6190476,58.7221879 C27.6190476,62.760002 30.8923427,66.033297 34.9301568,66.033297 L67.6376973,66.033297" id="Path-3" stroke="#838688" stroke-width="2"></path>
        <ellipse id="Oval" stroke="#838688" stroke-width="2" fill="#EFEFEF" cx="33.4332409" cy="36.7888603" rx="3.87612885" ry="3.77347571"></ellipse>
        <ellipse id="Oval-Copy-2" stroke="#838688" stroke-width="2" fill="#EFEFEF" cx="40.2164664" cy="51.8827631" rx="3.87612885" ry="3.77347571"></ellipse>
        <ellipse id="Oval-Copy-4" stroke="#838688" stroke-width="2" fill="#EFEFEF" cx="47.9687241" cy="66.033297" rx="3.87612885" ry="3.77347571"></ellipse>
        <ellipse id="Oval-Copy" stroke="#838688" stroke-width="2" fill="#EFEFEF" cx="51.8448529" cy="36.7888603" rx="3.87612885" ry="3.77347571"></ellipse>
        <ellipse id="Oval-Copy-3" stroke="#838688" stroke-width="2" fill="#EFEFEF" cx="58.6280784" cy="51.8827631" rx="3.87612885" ry="3.77347571"></ellipse>
        <ellipse id="Oval-Copy-5" stroke="#838688" stroke-width="2" fill="#EFEFEF" cx="66.3803361" cy="66.033297" rx="3.87612885" ry="3.77347571"></ellipse>
    </g>
</svg>