<?xml version="1.0" encoding="UTF-8"?>
<svg width="100px" height="100px" viewBox="0 0 100 100" version="1.1" xmlns="http://www.w3.org/2000/svg" xmlns:xlink="http://www.w3.org/1999/xlink">
    <!-- Generator: Sketch 55.1 (78136) - https://sketchapp.com -->
    <title>ikon/inntektsopplysninger</title>
    <desc>Created with Sketch.</desc>
    <g  stroke="none" stroke-width="1" fill="none" fill-rule="evenodd">
        <circle  fill="#C1B5D0" cx="50" cy="50" r="50"></circle>
        <path d="M33.1313678,80.5404929 C31.5492605,80.5404929 30.2666667,79.1816929 30.2666667,77.5055835 L30.2666667,22.3253347 C30.2666667,20.6500783 31.5492605,19.2904253 33.1313678,19.2904253 L70.7227202,19.2904253 C72.3048275,19.2904253 73.5874214,20.6500783 73.5874214,22.3253347 L73.5874214,77.5055835 C73.5874214,79.1816929 72.3048275,80.5404929 70.7227202,80.5404929 L33.1313678,80.5404929 Z"  fill="#FFFFFF"></path>
        <polygon  fill="#627282" points="33.4756115 68.7939046 70.3784766 68.7939046 70.3784766 22.6465934 33.4756115 22.6465934"></polygon>
        <rect  fill="#627282" x="54" y="42" width="13" height="13"></rect>
        <rect  fill="#627282" x="54" y="33" width="7" height="24"></rect>
        <rect  fill="#627282" transform="translate(57.500000, 45.000000) rotate(-270.000000) translate(-57.500000, -45.000000) " x="54" y="33" width="7" height="24"></rect>
        <path d="M55.938225,74.666772 C55.938225,76.5200699 54.5009666,78.0233669 52.7288689,78.0233669 C50.9567712,78.0233669 49.5203354,76.5200699 49.5203354,74.666772 C49.5203354,72.813474 50.9567712,71.3110307 52.7288689,71.3110307 C54.5009666,71.3110307 55.938225,72.813474 55.938225,74.666772"  fill="#627282"></path>
        <path d="M25.5905605,93.6471689 C20.8262174,90.9770175 16.5437074,87.549384 12.9061561,83.5273937 L14.4015727,79.3804083 L28.7018648,84.5803735 L25.5905605,93.6471689 Z"  fill="#561D5B"></path>
        <polygon  fill="#7C7086" points="14.4015727 79.3804083 28.7018648 84.5803735 27.1764471 89.0251604 12.876155 83.8251952"></polygon>
        <path d="M15.1199,82.1778548 C15.2971071,81.6618026 15.8470876,81.3914504 16.3475779,81.5738765 C16.8488664,81.7554809 17.1114841,82.3216591 16.934277,82.8377113 C16.7578681,83.3537635 16.2078876,83.6241157 15.7065991,83.4416896 C15.2053106,83.2592635 14.9426929,82.6930852 15.1199,82.1778548"  fill="#37363A"></path>
        <path d="M25.6157476,75.2339948 L25.8416467,75.4024513 C26.9128715,76.1987165 28.4079565,75.9521948 29.1814414,74.8494209 L37.1262255,63.5390035 C37.9005087,62.4370513 37.6602414,60.8971122 36.5898149,60.1000252 L36.3631175,59.9323904 C35.2934892,59.1353035 33.797606,59.382647 33.0233228,60.4845991 L25.079337,71.7958383 C24.3050538,72.8977904 24.5453211,74.4369078 25.6157476,75.2339948"  fill="#E7E6E2"></path>
        <path d="M30.1770738,64.5373343 L30.1770738,64.1930257 L30.1770738,55.9024996 L29.4538773,55.9024996 C29.2934331,55.9024996 29.1409712,55.9682387 29.0300172,56.0882126 C27.8294791,57.378343 20.7451871,64.9975083 19.475203,66.4388387 C19.3387057,66.5941474 19.2389269,66.778217 19.1822526,66.979543 L15.565472,79.8036039 L26.5571004,83.800543 C26.5571004,83.800543 26.7335092,82.9525083 26.9099181,81.9836778 C27.0863269,81.0156691 29.5640331,77.9900257 30.1770738,76.4772039 C30.7901145,74.9643822 31.0080313,72.2493561 31.9571269,70.8975952 C32.9070207,69.5458343 30.1770738,64.5373343 30.1770738,64.5373343"  fill="#E7E6E2"></path>
        <path d="M61.5918333,35.327 L61.5896667,35.3248333 L59.4240833,33.15925 C59.3230189,33.0571888 59.1852998,32.9999997 59.0416667,32.9999997 L44.9583333,32.9999997 C44.8144206,32.9999997 44.6764357,33.0573293 44.5748333,33.15925 L42.4081667,35.3248333 L42.406,35.327 C42.310712,35.4317715 42.2554663,35.5668166 42.25,35.7083333 L42.25,58.4583333 C42.25,58.7574876 42.4925124,58.9999997 42.7916667,58.9999997 L49.8333333,58.9999997 L49.8333333,54.125 C49.8333333,53.8258458 50.0758458,53.5833333 50.375,53.5833333 L53.625,53.5833333 C53.9241542,53.5833333 54.1666667,53.8258458 54.1666667,54.125 L54.1666667,58.9999997 L61.2083333,58.9999997 C61.5074876,58.9999997 61.75,58.7574876 61.75,58.4583333 L61.75,35.7083333 C61.7442166,35.5664768 61.6881511,35.4313053 61.5918333,35.327 Z"  fill="#FFFFFF"></path>
        <polygon  fill="#627282" points="59.5833333 40.5833333 56.3333333 40.5833333 56.3333333 37.3333333 59.5833333 37.3333333"></polygon>
        <polygon  fill="#627282" points="59.5833333 46 56.3333333 46 56.3333333 42.75 59.5833333 42.75"></polygon>
        <polygon  fill="#627282" points="59.5833333 51.4166667 56.3333333 51.4166667 56.3333333 48.1666667 59.5833333 48.1666667"></polygon>
        <polygon  fill="#627282" points="54.1666667 40.5833333 49.8333333 40.5833333 49.8333333 37.3333333 54.1666667 37.3333333"></polygon>
        <polygon  fill="#627282" points="54.1666667 46 49.8333333 46 49.8333333 42.75 54.1666667 42.75"></polygon>
        <polygon  fill="#627282" points="54.1666667 51.4166667 49.8333333 51.4166667 49.8333333 48.1666667 54.1666667 48.1666667"></polygon>
        <polygon  fill="#627282" points="47.6666667 40.5833333 44.4166667 40.5833333 44.4166667 37.3333333 47.6666667 37.3333333"></polygon>
        <polygon  fill="#627282" points="47.6666667 46 44.4166667 46 44.4166667 42.75 47.6666667 42.75"></polygon>
        <polygon  fill="#627282" points="47.6666667 51.4166667 44.4166667 51.4166667 44.4166667 48.1666667 47.6666667 48.1666667"></polygon>
        <polygon  fill="#627282" points="44.09925 35.1666667 45.1825833 34.0833333 58.8174167 34.0833333 59.90075 35.1666667"></polygon>
        <path d="M71.1601994,50.661485 L71.1601994,50.661485 C72.0627649,50.661485 72.7923882,51.3166899 72.7923882,52.1253869 L72.7923882,67.6975767 C72.7923882,68.5062737 72.0627649,69.161485 71.1601994,69.161485 C70.2598606,69.161485 69.5294951,68.5062737 69.5294951,67.6975767 L69.5294951,52.1253869 C69.5294951,51.3166899 70.2598606,50.661485 71.1601994,50.661485"  fill="#E7E6E2" transform="translate(71.160942, 59.911482) rotate(-15.000000) translate(-71.160942, -59.911482) "></path>
        <path d="M67.7854472,48.7382987 L67.7854472,48.7382987 C68.6865283,48.7382987 69.4168938,49.4881952 69.4168938,50.416784 L69.4168938,70.6074812 C69.4168938,71.5353064 68.6865283,72.2859666 67.7854472,72.2859666 C66.8836239,72.2859666 66.1532584,71.5353064 66.1532584,70.6074812 L66.1532584,50.416784 C66.1532584,49.4881952 66.8836239,48.7382987 67.7854472,48.7382987"  fill="#E7E6E2" transform="translate(67.785076, 60.512133) rotate(-15.000000) translate(-67.785076, -60.512133) "></path>
        <path d="M64.2740823,46.8329023 L64.2740823,46.8329023 C65.1751634,46.8329023 65.9062711,47.5858534 65.9062711,48.5121513 L65.9062711,72.7119695 C65.9062711,73.639031 65.1751634,74.3896912 64.2740823,74.3896912 C63.3730013,74.3896912 62.6426358,73.639031 62.6426358,72.7119695 L62.6426358,48.5121513 C62.6426358,47.5858534 63.3730013,46.8329023 64.2740823,46.8329023"  fill="#E7E6E2" transform="translate(64.274453, 60.611297) rotate(-15.000000) translate(-64.274453, -60.611297) "></path>
        <path d="M59.2945351,45.1208935 L59.2945351,45.1208935 C60.1963583,45.1208935 60.9267239,45.9010346 60.9267239,46.8607823 L60.9267239,63.5902992 C60.9267239,64.5516293 60.1963583,65.330188 59.2945351,65.330188 C58.3927118,65.330188 57.6623463,64.5516293 57.6623463,63.5902992 L57.6623463,46.8607823 C57.6623463,45.9010346 58.3927118,45.1208935 59.2945351,45.1208935"  fill="#E7E6E2" transform="translate(59.294535, 55.225541) rotate(-15.000000) translate(-59.294535, -55.225541) "></path>
        <path d="M72.5397463,73.5498298 L72.5397463,71.7383498 C72.5397463,71.2428625 73.5399154,70.8296249 73.5399154,70.8296249 L71.4589183,56.2807402 L61.6385172,56.2807402 L59.9485233,61.0585106 C59.9485233,61.0585106 59.5352429,61.1679556 59.1219626,60.6194041 C58.7086823,60.0688628 57.4680731,57.4886147 57.4680731,57.4886147 C57.4680731,57.4886147 55.8157199,54.442728 54.2878118,54.9912795 C52.7629763,55.5398309 53.4620193,57.5436688 53.4620193,57.5436688 C53.4620193,57.5436688 54.2401847,60.7036436 54.6711331,62.2106677 C55.2150039,64.1163367 56.4832675,66.0545077 57.5326001,67.4839253 C58.5811645,68.9100264 60.5845755,70.994124 61.2843867,70.994124 L61.4441679,73.5498298 L72.5397463,73.5498298 Z"  fill="#E7E6E2" transform="translate(63.421001, 64.237504) rotate(-15.000000) translate(-63.421001, -64.237504) "></path>
        <path d="M83.6027786,87.0255259 C79.7892309,90.488607 75.4384331,93.3706173 70.6902147,95.5317275 L63.375,76.3629822 L77.675292,71.163017 L83.6027786,87.0255259 L83.6027786,87.0255259 Z"  fill="#561D5B"></path>
        <polygon  fill="#7C7086" transform="translate(70.639010, 73.872350) scale(-1, 1) translate(-70.639010, -73.872350) " points="64.2515727 69.0499735 78.5518648 74.2499387 77.0264471 78.6947257 62.726155 73.4947604"></polygon>
        <path d="M75.2199,71.84742 C75.3971071,71.3313678 75.9470876,71.0610157 76.4475779,71.2434417 C76.9488664,71.4250461 77.2114841,71.9912243 77.034277,72.5072765 C76.8578681,73.0233287 76.3078876,73.2936809 75.8065991,73.1112548 C75.3053106,72.9288287 75.0426929,72.3626504 75.2199,71.84742"  fill="#37363A" transform="translate(76.127088, 72.177348) scale(-1, 1) translate(-76.127088, -72.177348) "></path>
    </g>
</svg>