<svg xmlns="http://www.w3.org/2000/svg" xmlns:xlink="http://www.w3.org/1999/xlink" width="62" height="80" viewBox="0 0 62 80">
    <defs>
        <path id="a" d="M0 13.322v62.635A4.036 4.036 0 0 0 4.029 80h53.944A4.035 4.035 0 0 0 62 75.957V4.043A4.035 4.035 0 0 0 57.973 0H14.021L0 13.322z"/>
        <path id="c" d="M3.471 40H.53A.528.528 0 0 1 0 39.471V36.53a.528.528 0 1 1 1.057 0v2.413h2.414a.529.529 0 0 1 0 1.058zm11.92 0H9.943c-.337 0-.61-.299-.61-.667 0-.368.273-.666.61-.666h5.448c.336 0 .609.298.609.666 0 .368-.273.667-.61.667zm9.333 0h-5.448c-.338 0-.61-.299-.61-.667 0-.368.272-.666.61-.666h5.448c.338 0 .61.298.61.666 0 .368-.272.667-.61.667zm8.053 0h-4.22c-.309 0-.557-.299-.557-.667 0-.368.248-.666.557-.666h4.22c.307 0 .556.298.556.666 0 .368-.249.667-.556.667zm6.694 0H36.53a.528.528 0 1 1 0-1.058h2.414V36.53a.528.528 0 1 1 1.057 0v2.942a.529.529 0 0 1-.529.529zm-.138-28c-.368 0-.666-.25-.666-.557v-4.22c0-.307.298-.556.666-.556.368 0 .667.249.667.556v4.22c0 .308-.299.557-.667.557zm0 9.333c-.368 0-.666-.271-.666-.61v-5.447c0-.338.298-.61.666-.61.368 0 .667.272.667.61v5.448c0 .338-.299.61-.667.61zm0 9.334c-.368 0-.666-.272-.666-.61V24.61c0-.337.298-.609.666-.609.368 0 .667.272.667.61v5.447c0 .338-.299.61-.667.61zM39.471 4a.529.529 0 0 1-.528-.529V1.058h-2.414a.528.528 0 1 1 0-1.058h2.942c.292 0 .529.236.529.529V3.47a.529.529 0 0 1-.529.529zM11.443 1.333h-4.22c-.307 0-.556-.298-.556-.666 0-.368.249-.667.556-.667h4.22c.308 0 .557.299.557.667 0 .368-.25.666-.557.666zm9.28 0h-5.447c-.338 0-.61-.298-.61-.666 0-.368.272-.667.61-.667h5.448c.338 0 .61.299.61.667 0 .368-.272.666-.61.666zm9.334 0H24.61c-.337 0-.609-.298-.609-.666 0-.368.272-.667.61-.667h5.447c.338 0 .61.299.61.667 0 .368-.272.666-.61.666zM.53 4A.529.529 0 0 1 0 3.471V.53C0 .236.237 0 .529 0H3.47a.528.528 0 1 1 0 1.058H1.057V3.47A.529.529 0 0 1 .53 4zm.138 12C.299 16 0 15.727 0 15.39V9.944c0-.337.299-.61.667-.61.368 0 .666.273.666.61v5.448c0 .336-.298.609-.666.609zm0 9.333c-.368 0-.667-.271-.667-.61v-5.447c0-.338.299-.61.667-.61.368 0 .666.272.666.61v5.448c0 .338-.298.61-.666.61zm0 8c-.368 0-.667-.249-.667-.556v-4.22C0 28.248.299 28 .667 28c.368 0 .666.248.666.557v4.22c0 .307-.298.556-.666.556z"/>
    </defs>
    <g fill="none" fill-rule="evenodd">
        <g>
            <mask id="b" fill="#fff">
                <use xlink:href="#a"/>
            </mask>
        </g>
        <path fill="#C9C9C9" d="M14.149 0v9.285c0 2.235-1.82 4.046-4.066 4.046H0L14.149 0z"/>
        <g fill="#f00" transform="translate(11 24)">
            <use fill="#969662" xlink:href="#c"/>
            <path fill="#3E3832" d="M16.934 24.072v-2.296H13v-1.092l3.528-5.516h1.918v5.362h1.12v1.246h-1.12v2.296h-1.512zm-2.338-3.542h2.338v-2.016a29.553 29.553 0 0 1 .07-1.848h-.056c-.112.233-.229.462-.35.686l-.378.7-1.624 2.478zm8.918 3.71c-.933 0-1.67-.399-2.212-1.197-.541-.798-.812-1.953-.812-3.465 0-1.512.27-2.653.812-3.423.541-.77 1.279-1.155 2.212-1.155.933 0 1.67.387 2.212 1.162.541.775.812 1.913.812 3.416 0 1.512-.27 2.667-.812 3.465-.541.798-1.279 1.197-2.212 1.197zm0-1.26c.215 0 .413-.058.595-.175.182-.117.338-.31.469-.581.13-.27.233-.62.308-1.05.075-.43.112-.961.112-1.596 0-.625-.037-1.15-.112-1.575-.075-.425-.177-.768-.308-1.029-.13-.261-.287-.446-.469-.553a1.15 1.15 0 0 0-.595-.161 1.15 1.15 0 0 0-.595.161c-.182.107-.338.292-.469.553-.13.261-.233.604-.308 1.029-.075.425-.112.95-.112 1.575 0 .635.037 1.167.112 1.596.075.43.177.78.308 1.05.13.27.287.464.469.581.182.117.38.175.595.175z"/>
        </g>
    </g>
</svg>
