<?xml version="1.0" encoding="UTF-8"?>
<svg width="54px" height="72px" viewBox="0 0 54 72" version="1.1" xmlns="http://www.w3.org/2000/svg" xmlns:xlink="http://www.w3.org/1999/xlink">
    <defs></defs>
    <g id="Page-1" stroke="none" stroke-width="1" fill="none" fill-rule="evenodd">
        <g id="page">
            <path d="M0,12.6050073 L0,68 C2.705415e-16,70.209139 1.790861,72 4,72 L50,72 C52.209139,72 54,70.209139 54,68 L54,4 C54,1.790861 52.209139,-4.05812251e-16 50,0 L12.1622278,0 L0,12.6050073 Z" id="Path-2" fill="#E4E4DC"></path>
            <g id="Group" transform="translate(7.000000, 18.000000)">
                <path d="M0.08,0.5 L40.08,0.5 L40.08,40.5 L0.08,40.5 L0.08,0.5 Z" id="Shape" stroke="#969662" stroke-width="0.833" stroke-linecap="round" stroke-linejoin="round" stroke-dasharray="4.167"></path>
                <path d="M17.55,23.933 L17.55,22.02 L14.27,22.02 L14.27,21.11 L17.21,16.513 L18.809,16.513 L18.809,20.981 L19.742,20.981 L19.742,22.02 L18.809,22.02 L18.809,23.933 L17.549,23.933 L17.55,23.933 Z M15.6,20.98 L17.549,20.98 L17.549,19.3 C17.5522638,18.7861873 17.5716066,18.2726026 17.607,17.76 L17.56,17.76 C17.467,17.955 17.37,18.145 17.269,18.332 L16.954,18.915 L15.6,20.98 Z M23.032,24.072 C22.254,24.072 21.64,23.739 21.189,23.074 C20.738,22.409 20.512,21.447 20.512,20.187 C20.512,18.927 20.738,17.977 21.189,17.334 C21.639,16.693 22.254,16.372 23.032,16.372 C23.81,16.372 24.424,16.695 24.875,17.34 C25.326,17.986 25.552,18.935 25.552,20.187 C25.552,21.447 25.326,22.409 24.875,23.074 C24.425,23.739 23.81,24.072 23.032,24.072 Z M23.032,23.022 C23.2080547,23.0228944 23.3805057,22.9721326 23.528,22.876 C23.68,22.779 23.81,22.617 23.918,22.392 C24.028,22.166 24.113,21.875 24.175,21.517 C24.238,21.159 24.269,20.716 24.269,20.187 C24.269,19.666 24.238,19.228 24.175,18.874 C24.1305329,18.5776847 24.0443445,18.2891559 23.919,18.017 C23.809,17.799 23.679,17.646 23.528,17.557 C23.3780325,17.4677018 23.2065379,17.4210248 23.032,17.422 C22.8575563,17.4207225 22.6860682,17.4670519 22.536,17.556 C22.385,17.646 22.254,17.799 22.146,18.016 C22.0202209,18.2884193 21.9336935,18.5772929 21.889,18.874 C21.8205058,19.308211 21.7890592,19.7474601 21.795,20.187 C21.795,20.716 21.826,21.159 21.889,21.517 C21.951,21.875 22.036,22.167 22.145,22.392 C22.255,22.617 22.385,22.779 22.536,22.876 C22.6834943,22.9721326 22.8559453,23.0228944 23.032,23.022 Z" id="Shape" fill="#3E3832" fill-rule="nonzero"></path>
            </g>
            <path d="M12,0 L11.9999999,8.35730809 C12.0002583,9.32349367 11.6370512,10.2501852 10.9903348,10.9333816 C10.3436184,11.616578 9.46640864,12.0002728 8.55181358,11.9999999 L0,12 L12,0 Z" id="Shape" fill="#C9C9C9" fill-rule="nonzero"></path>
        </g>
    </g>
</svg>