<?xml version="1.0" encoding="UTF-8"?>
<svg width="100px" height="100px" viewBox="0 0 100 100" version="1.1" xmlns="http://www.w3.org/2000/svg" xmlns:xlink="http://www.w3.org/1999/xlink">
    <!-- Generator: Sketch 55.1 (78136) - https://sketchapp.com -->
    <title>ikon/planlegge</title>
    <desc>Created with Sketch.</desc>
    <g id="ikon/planlegge" stroke="none" stroke-width="1" fill="none" fill-rule="evenodd">
        <circle id="Mask" fill="#C1B5D0" cx="50" cy="50" r="50"></circle>
        <path d="M75.741466,66.8524412 C75.741466,70.4934796 72.7898212,73.4451244 69.1487828,73.4451244 L29.5926833,73.4451244 C25.9516448,73.4451244 23,70.4934796 23,66.8524412 L23,34.9878054 L75.741466,34.9878054 L75.741466,66.8524412 Z" id="Bottom" fill="#FFFFFF"></path>
        <path d="M29.5926833,27.2963416 L69.1487828,27.2963416 C72.7898212,27.2963416 75.741466,30.2479865 75.741466,33.8890249 L75.741466,38.2841471 L23,38.2841471 L23,33.8890249 C23,30.2479865 25.9516448,27.2963416 29.5926833,27.2963416 Z" id="Top" fill="#BA3A26"></path>
        <circle id="Oval" fill="#BA3A26" cx="62.0067093" cy="33.3396346" r="1.64817081"></circle>
        <circle id="Oval-Copy" fill="#C1B5D0" cx="36.7347568" cy="33.3396346" r="1.64817081"></circle>
        <rect id="Rectangle" fill="#C6C2BF" x="30.6914638" y="44.8768303" width="37.3585384" height="2.19756108" rx="1.09878054"></rect>
        <rect id="Rectangle-Copy" fill="#C6C2BF" x="59.8091482" y="51.4695136" width="8.24085407" height="2.19756108" rx="1.09878054"></rect>
        <rect id="Rectangle-Copy-4" fill="#C6C2BF" x="30.6914638" y="51.4695136" width="18.129879" height="2.19756108" rx="1.09878054"></rect>
        <rect id="Rectangle-Copy-2" fill="#C6C2BF" x="30.6914638" y="58.0621968" width="37.3585384" height="2.19756108" rx="1.09878054"></rect>
        <rect id="Rectangle-Copy-3" fill="#C6C2BF" x="30.6914638" y="64.6548801" width="37.3585384" height="2.19756108" rx="1.09878054"></rect>
        <circle id="Oval" fill="#FFA733" cx="54.3152455" cy="52.5682941" r="3.29634163"></circle>
        <path d="M59.8823541,31.6428571 L69.8737048,31.6428571 C71.0241502,32.3229456 72.0529263,33.2504476 72.8746611,34.4107321 C75.9973507,38.8199504 74.9483852,44.9217336 70.5309369,48.0386055 C66.112868,51.1554774 60.0003163,50.1078467 56.8776266,45.6986284 C53.7543163,41.28941 54.8045232,35.1876268 59.2219714,32.0707549 C59.43822,31.9181738 59.6585308,31.7755726 59.8823541,31.6428571 L59.8823541,31.6428571 Z" id="Path" fill="#FFFFFF"></path>
        <path d="M73.7074325,35.8214286 L56.0445597,35.8214286 C56.7421647,34.3680943 57.810077,33.0669621 59.2219714,32.0707549 C61.2535792,30.637289 63.6437233,30.0846691 65.9366693,30.3347908 C66.2460442,31.1016681 66.9973214,31.6428571 67.875,31.6428571 C68.3381354,31.6428571 68.7660745,31.4921639 69.11246,31.2371346 C70.5703059,31.933327 71.875526,32.9999595 72.8746611,34.4107321 C73.1961854,34.8647223 73.4734836,35.3366565 73.7074325,35.8214286 L73.7074325,35.8214286 Z" id="Path" fill="#BA3A26"></path>
        <path d="M73.7597196,44.1785714 C73.2867066,45.1963891 72.6336045,46.1421781 71.8092827,46.9642857 L57.9436129,46.9642857 C57.5594604,46.5793585 57.2023754,46.1571717 56.8776266,45.6986284 C56.5319034,45.2105664 56.2373165,44.7017661 55.9927723,44.1785714 L73.7597196,44.1785714 L73.7597196,44.1785714 Z" id="Path" fill="#C6C2BF"></path>
        <path d="M72.958481,34.3174941 C76.1679121,38.8185712 75.0898086,45.0474749 70.5496534,48.2292816 C66.0088603,51.4110884 59.7265155,50.3416319 56.5170845,45.8405549 C53.3070155,41.3394779 54.3863948,35.1105742 58.92655,31.9287674 C63.4667052,28.7469607 69.74905,29.8164171 72.958481,34.3174941 Z" id="Fill-95" fill="#B6EDFE" opacity="0.61156064"></path>
        <path d="M71.5603175,45.0333127 C69.8508247,47.2153804 67.0985688,48.5244443 64.11476,48.278902 C59.4202645,47.8922742 55.9306567,43.8055491 56.3201557,39.1506252 C56.7092408,34.4953568 60.8310779,31.03482 65.5251594,31.4211033 C67.4654896,31.5807761 69.2000189,32.3727204 70.539844,33.5757132 C69.3739468,32.6803561 67.9420908,32.0981689 66.3630319,31.9682257 C62.0166601,31.6105559 58.2001443,34.8147568 57.8398803,39.1251904 C57.4792331,43.4353051 60.7103515,47.2193099 65.0571065,47.5772986 C67.6027085,47.7867801 69.9662931,46.774228 71.5603175,45.0333127 L71.5603175,45.0333127 Z" id="Path" fill="#FFFFFF" opacity="0.998628162"></path>
        <path d="M82.5636172,64.3426568 C81.5403759,65.0592115 80.1267207,64.8176194 79.4039448,63.8044501 L71.6792379,52.9707492 C70.9564621,51.9575799 71.1988759,50.5548275 72.2214793,49.8382728 C73.2440828,49.121718 74.6577379,49.3633102 75.3805138,50.3764794 L83.1058586,61.2101804 C83.8279966,62.2233496 83.5862207,63.626102 82.5636172,64.3426568" id="Fill-97" fill="#C52C35"></path>
        <path d="M59.6548121,32.2151363 C55.45595,35.1578807 54.4550362,40.9390167 57.4226914,45.1011058 C60.3903466,49.2631949 66.2216741,50.2554936 70.4205362,47.3133817 C74.6193983,44.3706373 75.6203121,38.5895013 72.6526569,34.4274122 C69.6850017,30.2653231 63.8536741,29.272392 59.6548121,32.2151363 M71.2925879,48.5365211 C66.4136914,51.9554929 59.6382259,50.8031868 56.1882948,45.9656516 C52.7396397,41.1287488 53.9032259,34.4116012 58.7827603,30.991997 C63.6616569,27.5723927 70.4371224,28.7253312 73.8870534,33.562234 C77.3357086,38.3997692 76.1721224,45.1169168 71.2925879,48.5365211" id="Fill-99" fill="#2F3238"></path>
        <path d="M73.5478655,51.6987854 C72.8665552,52.1762778 72.1303828,52.3065605 71.6481069,51.6304819 L70.037331,49.3714054 C69.5550552,48.6946944 69.7177276,47.7605802 70.3990379,47.2830878 C71.0809862,46.8055954 72.0232103,46.9656028 72.5054862,47.6416814 L74.1162621,49.9007579 C74.5979,50.5768365 74.2291759,51.221293 73.5478655,51.6987854" id="Fill-101" fill="#2F3238"></path>
        <path d="M72.5815914,53.2820363 L79.8725052,63.5066973 C80.1136431,63.8450528 80.5844362,63.9253727 80.9250914,63.6863103 C81.2663845,63.4472479 81.3467638,62.980507 81.1056259,62.6421515 L74.1285741,52.8570364 C73.5499707,53.2466196 73.0051776,53.3503398 72.5815914,53.2820363" id="Fill-103" fill="#D94C56"></path>
        <path d="M89.0513121,57.1313836 L89.0513121,57.1313836 C89.8270362,57.1313836 90.4541224,57.6740174 90.4541224,58.3437715 L90.4541224,71.2404925 C90.4541224,71.9102467 89.8270362,72.4528804 89.0513121,72.4528804 C88.2775017,72.4528804 87.6497776,71.9102467 87.6497776,71.2404925 L87.6497776,58.3437715 C87.6497776,57.6740174 88.2775017,57.1313836 89.0513121,57.1313836" id="Fill-105" fill="#E7E6E2"></path>
        <path d="M85.9731672,55.0410422 L85.9731672,55.0410422 C86.7476155,55.0410422 87.3753397,55.6620985 87.3753397,56.4311458 L87.3753397,73.1528652 C87.3753397,73.9212801 86.7476155,74.5429688 85.9731672,74.5429688 C85.198081,74.5429688 84.5703569,73.9212801 84.5703569,73.1528652 L84.5703569,56.4311458 C84.5703569,55.6620985 85.198081,55.0410422 85.9731672,55.0410422" id="Fill-107" fill="#E7E6E2"></path>
        <path d="M82.8931724,52.6810916 L82.8931724,52.6810916 C83.6676207,52.6810916 84.2959828,53.3046776 84.2959828,54.0718276 L84.2959828,74.1138581 C84.2959828,74.8816406 83.6676207,75.5033293 82.8931724,75.5033293 C82.1187241,75.5033293 81.491,74.8816406 81.491,74.1138581 L81.491,54.0718276 C81.491,53.3046776 82.1187241,52.6810916 82.8931724,52.6810916" id="Fill-109" fill="#E7E6E2"></path>
        <path d="M79.8131776,50.6049801 L79.8131776,50.6049801 C80.5882638,50.6049801 81.2159879,51.2285661 81.2159879,51.9957161 L81.2159879,65.3680321 C81.2159879,66.1364469 80.5882638,66.7587681 79.8131776,66.7587681 C79.0380914,66.7587681 78.4103672,66.1364469 78.4103672,65.3680321 L78.4103672,51.9957161 C78.4103672,51.2285661 79.0380914,50.6049801 79.8131776,50.6049801" id="Fill-111" fill="#E7E6E2"></path>
        <path d="M88.8663121,74.8897358 L88.8663121,73.1625416 C88.8663121,72.6901087 89.6968983,72.2960985 89.6968983,72.2960985 L87.9687431,58.4241547 L79.8134328,58.4241547 L78.4099845,62.9796216 C78.4099845,62.9796216 78.0667776,63.0839742 77.7235707,62.5609462 C77.3803638,62.0360208 76.3501052,59.5758283 76.3501052,59.5758283 C76.3501052,59.5758283 74.9779155,56.6716629 73.7090707,57.1946909 C72.4427776,57.717719 73.0232948,59.6283209 73.0232948,59.6283209 C73.0232948,59.6283209 73.669519,62.6412661 74.0273983,64.0781703 C74.4790534,65.895171 75.5322776,67.7431613 76.4036914,69.10607 C77.2744672,70.4658165 78.9381914,72.4529436 79.5193466,72.4529436 L79.6520362,74.8897358 L88.8663121,74.8897358 Z" id="Fill-113" fill="#E7E6E2"></path>
        <path d="M78.0563793,91.3924371 L78.0563793,74.8898623 L90.5349483,74.8898623 L90.5349483,79.279385 C87.1146644,84.0062419 82.887858,88.1112093 78.0563793,91.3924371 L78.0563793,91.3924371 Z" id="Path" fill="#561D5B"></path>
        <polygon id="Fill-117" fill="#7C7086" points="78.0563793 78.6256867 90.5349483 78.6256867 90.5349483 74.8898623 78.0563793 74.8898623"></polygon>
        <path d="M89.2338241,76.7848429 C89.2338241,76.3509889 88.8784966,75.9993522 88.4408759,75.9993522 C88.0038931,75.9993522 87.6498414,76.3509889 87.6498414,76.7848429 C87.6498414,77.2180645 88.0038931,77.5703337 88.4408759,77.5703337 C88.8784966,77.5703337 89.2338241,77.2180645 89.2338241,76.7848429" id="Fill-118" fill="#2F3237"></path>
        <path d="M11.0905897,48.4169131 L11.0905897,48.4169131 C10.3024172,48.4169131 9.66493448,49.0715689 9.66493448,49.8781262 L9.66493448,70.9501098 C9.66493448,71.7573393 10.3024172,72.4119951 11.0905897,72.4119951 C11.8761414,72.4119951 12.5149345,71.7573393 12.5149345,70.9501098 L12.5149345,49.8781262 C12.5149345,49.0715689 11.8761414,48.4169131 11.0905897,48.4169131" id="Fill-201" fill="#E7E6E2"></path>
        <path d="M14.2180552,46.6026967 L14.2180552,46.6026967 C13.4318483,46.6026967 12.7930552,47.2560082 12.7930552,48.0639098 L12.7930552,69.133877 C12.7930552,69.9417787 13.4318483,70.5957623 14.2180552,70.5957623 C15.0055724,70.5957623 15.6437103,69.9417787 15.6437103,69.133877 L15.6437103,48.0639098 C15.6437103,47.2560082 15.0055724,46.6026967 14.2180552,46.6026967" id="Fill-202" fill="#E7E6E2"></path>
        <path d="M17.3476828,45.2816902 L17.3476828,45.2816902 C16.5608207,45.2816902 15.9220276,45.9376902 15.9220276,46.7442475 L15.9220276,67.815559 C15.9220276,68.6227885 16.5608207,69.2767721 17.3476828,69.2767721 C18.1345448,69.2767721 18.7726828,68.6227885 18.7726828,67.815559 L18.7726828,46.7442475 C18.7726828,45.9376902 18.1345448,45.2816902 17.3476828,45.2816902" id="Fill-203" fill="#E7E6E2"></path>
        <path d="M20.4767207,47.0079918 L20.4767207,47.0079918 C19.6898586,47.0079918 19.0517207,47.6639918 19.0517207,48.4705492 L19.0517207,63.6929754 C19.0517207,64.500877 19.6898586,65.1548607 20.4767207,65.1548607 C21.2642379,65.1548607 21.9023759,64.500877 21.9023759,63.6929754 L21.9023759,48.4705492 C21.9023759,47.6639918 21.2642379,47.0079918 20.4767207,47.0079918" id="Fill-204" fill="#E7E6E2"></path>
        <path d="M11.2783621,74.9739574 L11.2783621,73.157859 C11.2783621,72.6611541 10.4351552,72.2471213 10.4351552,72.2471213 L12.1903621,57.6625475 L20.4769828,57.6625475 L21.9019828,62.451482 C21.9019828,62.451482 22.2511897,62.5610393 22.6003966,62.0119082 C22.9489483,61.4600885 23.9959138,58.8730557 23.9959138,58.8730557 C23.9959138,58.8730557 25.3894655,55.8195639 26.6788448,56.3693672 C27.9649483,56.9191705 27.3752931,58.9274984 27.3752931,58.9274984 C27.3752931,58.9274984 26.7194655,62.0959246 26.3551897,63.6062033 C25.896569,65.5170721 24.8266724,67.4602033 23.9415345,68.8931869 C23.0563966,70.3228098 21.3660517,72.4117934 20.7757414,72.4117934 L20.6407759,74.9739574 L11.2783621,74.9739574 Z" id="Fill-205" fill="#E7E6E2"></path>
        <path d="M9.58310345,79.4418476 L9.58310345,74.9736885 L22.262,74.9736885 L22.262,91.606882 C17.3534509,88.3279891 13.057741,84.2035665 9.58310345,79.4418476 L9.58310345,79.4418476 Z" id="Path" fill="#561D5B"></path>
        <polygon id="Fill-207" fill="#7C7086" points="9.58310345 78.9009508 22.262 78.9009508 22.262 74.9736885 9.58310345 74.9736885"></polygon>
        <path d="M10.9050448,76.966423 C10.9050448,76.5100459 11.2660448,76.1403738 11.7109069,76.1403738 C12.1544586,76.1403738 12.5148034,76.5100459 12.5148034,76.966423 C12.5148034,77.4221279 12.1544586,77.7924721 11.7109069,77.7924721 C11.2660448,77.7924721 10.9050448,77.4221279 10.9050448,76.966423" id="Fill-208" fill="#38363A"></path>
    </g>
</svg>