<svg xmlns="http://www.w3.org/2000/svg" xmlns:xlink="http://www.w3.org/1999/xlink" width="68" height="96" viewBox="0 0 68 96">
    <defs>
        <path  d="M60.695 29.992h-.053C60.642 13.428 48.701 0 33.968 0 19.237 0 7.296 13.428 7.296 29.992v.015C7.291 44.153 0 52.241 0 52.241s7.2 8.836 33.969 8.836H34.021c26.771 0 33.971-8.836 33.971-8.836s-7.297-8.093-7.297-22.249"/>
        <path  d="M38.68.18C44.676 3.128 54 11.116 54 18.523V43H0V18.523C0 11.376 8.531 3.689 14.458.509c-.3.183-.458.294-.458.294C15.021 2.493 17.766 10 26.376 10 34.99 10 39 1.941 39 .366a26.67 26.67 0 0 0-.32-.186z"/>
    </defs>
    <g fill="none" fill-rule="evenodd">
        <g>
            <mask  fill="#fff">
                <use xlink:href="#a"/>
            </mask>
            <use fill="#E57F68" xlink:href="#a"/>
            <g fill="#D2654C" mask="url(#b)">
                <path d="M0-2h69v79H0z"/>
            </g>
        </g>
        <path fill="#E7E5E2" d="M21 53.673C22.021 55.306 24.89 84 33.5 84 42.112 84 46 54.772 46 53.251c-13.185-7.553-25 .422-25 .422z"/>
        <g transform="translate(7 53)">
            <mask  fill="#fff">
                <use xlink:href="#c"/>
            </mask>
            <use fill="#D8A25D" xlink:href="#c"/>
            <g mask="url(#d)">
                <path fill="#5C4378" d="M-33 72H93V-28H-33z"/>
            </g>
        </g>
        <path fill="#D2242A" d="M53.748 79H38.25A1.26 1.26 0 0 1 37 77.73V69.27c0-.702.56-1.271 1.251-1.271h15.497c.691 0 1.252.57 1.252 1.271v8.458c0 .703-.56 1.271-1.252 1.271"/>
        <path fill="#FFF" d="M49.864 74.008a3.772 3.772 0 0 1-3.78 3.763c-2.091 0-3.784-1.686-3.784-3.763s1.693-3.763 3.784-3.763a3.772 3.772 0 0 1 3.78 3.763M41.184 75.667h-.737l.788-1.923h.74zM50.48 75.667h-.456l.788-1.923h.457zM51.743 75.667h-.194l.787-1.923h.193z"/>
        <path fill="#C52D35" d="M43.21 75.658h.581c.03 0 .054-.023.054-.052v-1.8a.052.052 0 0 0-.054-.051h-.586c-.04 0-.068.03-.068.068l-.23.566a.046.046 0 0 0 .04.064h.165c.025 0 .047.019.047.046v1.107c0 .029.023.052.052.052"/>
        <path fill="#C52D35" d="M44.472 75.658h.583c.03 0 .055-.023.055-.052v-1.8c0-.028-.025-.051-.055-.051h-.906a.068.068 0 0 0-.068.068l-.232.566-.08.064h.464c.103 0 .187.081.187.186v.967c0 .029.023.052.052.052M47.076 73.755h-.582a.053.053 0 0 0-.053.052v1.799c0 .029.024.052.053.052h.588c.04 0 .068-.03.068-.068l.23-.566c.015-.031-.007-.065-.043-.065h-.16a.045.045 0 0 1-.046-.045v-1.107c0-.03-.026-.052-.055-.052"/>
        <path fill="#C52D35" d="M44.681 75.658h.383c.037 0 .067-.031.067-.067l.23-.568a.046.046 0 0 0-.042-.065h-.161l-.477.7zM48.634 73.755h.693c.034 0 .058.032.043.062l-.733 1.812c-.005.018-.022.029-.042.029h-.627l.621-1.872a.05.05 0 0 1 .045-.031"/>
        <path fill="#C52D35" d="M47.766 73.755h-.979c-.069 0 .282.067.306.13l.693 1.713c.014.038.05.06.089.06h.593l-.61-1.839a.094.094 0 0 0-.092-.064M46.488 74.365c0 .383-.049.406-.049.406s-.055-.367-.34-.367c-.28 0-.343.162-.343.283 0 .14.142.272.222.272h.51l-.301.664a.061.061 0 0 1-.056.035h-.232c-.242 0-.875-.316-.875-.928 0-.613.47-.975.863-.975a.58.58 0 0 1 .6.61z"/>
        <path fill="#5A1F57" d="M46.931 69.746h-1.606a.214.214 0 0 1-.215-.214v-.27c0-.117.096-.213.215-.213h1.606c.12 0 .215.096.215.214v.27a.214.214 0 0 1-.215.213"/>
        <path fill="#C2B5CF" d="M45.663 69.5h.93V67h-.93z"/>
        <path fill="#E7E5E2" d="M13.54 27.52s-.105.596-.24.498a1.623 1.623 0 0 0-.607-.123c-.928-.001-1.682.778-1.684 1.74L11 36.29c-.002.962.749 1.743 1.678 1.745.371 0 .712-.128.99-.34C15.916 48.413 23.92 55.982 33.465 56c9.545.015 17.575-7.529 19.851-18.24.278.213.619.343.991.344.929 0 1.683-.778 1.684-1.74l.01-6.657c0-.962-.75-1.742-1.678-1.744-.214 0-.418.045-.606.121C32.189 30.635 24.68 16.001 24.046 16c0 0-9.003 8.427-10.506 11.52z"/>
        <g>
            <path fill="#635E59" d="M26.326 33.783c-1.447.109-1.852-2.024-1.416-3.417.082-.264.56-1.466 1.409-1.466.847 0 1.22.657 1.273.77.623 1.358.317 3.993-1.266 4.113M42.475 33.783c1.447.109 1.852-2.024 1.416-3.417-.082-.264-.56-1.466-1.409-1.466-.847 0-1.22.657-1.273.77-.623 1.358-.317 3.993 1.266 4.113"/>
            <path fill="#D1BFA3" fill-rule="nonzero" d="M34.86 36.235c.85-.131 1.431-.049 1.64.207.785.965.534 1.987-.814 2.825-.709.44-1.684.596-2.2.367a.5.5 0 1 0-.405.915c.853.378 2.166.169 3.133-.433 1.832-1.14 2.251-2.843 1.061-4.306-.504-.618-1.395-.744-2.568-.563a.5.5 0 1 0 .152.988z"/>
            <path fill="#D19E9C" fill-rule="nonzero" d="M40.559 43.525a4.554 4.554 0 0 1-.315.562 7.091 7.091 0 0 1-1.064 1.296c-1.279 1.228-2.943 1.939-5.062 1.874-2.065-.064-3.722-.763-5.021-1.891a7.454 7.454 0 0 1-1.186-1.3 4.55 4.55 0 0 1-.352-.561.5.5 0 0 0-.898.441c.074.15.217.393.435.7a8.449 8.449 0 0 0 1.345 1.475c1.467 1.273 3.34 2.065 5.647 2.135 2.401.074 4.32-.745 5.785-2.152.49-.47.892-.974 1.214-1.48.196-.306.323-.55.388-.698a.5.5 0 1 0-.916-.4z"/>
        </g>
    </g>
</svg>
