<?xml version="1.0" encoding="UTF-8"?>
<svg width="117px" height="93px" viewBox="0 0 117 93" version="1.1" xmlns="http://www.w3.org/2000/svg" xmlns:xlink="http://www.w3.org/1999/xlink">
    <title>Familie</title>
    <defs>
        <path d="M38.6802028,3.1795359 C44.6759883,6.12817 54,14.1159048 54,21.5227615 L54,46 L0,46 L0,21.5227615 C0,14.3762456 8.53127381,6.68896814 14.4584356,3.50888945 C14.1582065,3.69232486 14,3.80289687 14,3.80289687 C15.0212984,5.49391057 17.7662804,13 26.3764968,13 C34.988577,13 39,4.94149184 39,3.36624439 C38.8933094,3.30295977 38.7867085,3.2407279 38.6802028,3.1795359 Z" ></path>
        <path d="M4.28758936,0.0124200798 L9.47076282,0.386043384 L14.7141663,0.0103977729 C16.9176579,-0.147463798 18.8319127,1.51084692 18.9897743,3.71433843 C18.9965893,3.80946395 19,3.90480277 19,4.00017209 L19,4.70335396 L16.6951984,4.70335396 L16.3890786,3.45335396 L16.1790448,4.70335396 L15.3404837,4.70335396 L15.187085,4.11059162 L15.0212529,4.70335396 L9.59702387,4.92494561 L1.93643188,4.70335396 L1.76722717,4.11059162 L1.47042847,4.70335396 L3.55271368e-15,4.70335396 L5.32907052e-15,4.00206823 C5.05852902e-15,1.79292923 1.790861,0.00206822983 4,0.00206822983 C4.09595625,0.00206822983 4.19188144,0.00552108044 4.28758936,0.0124200798 Z" ></path>
        <path d="M26.8734173,-1.10134124e-13 L18.8070065,-1.10134124e-13 C14.4573443,-1.10134124e-13 0,10.2195759 0,19.5227615 L0,44 L54,44 L54,19.5227615 C54,10.2195759 39.2904869,-1.10134124e-13 34.9418214,-1.10134124e-13 L26.8734173,-1.10134124e-13 Z" ></path>
        <path d="M40.8598774,27.0630829 C41.1877369,26.6781947 40.9688277,25.7182428 40.9688277,24.4932697 C40.9688277,10.9648885 31.7971387,0 20.4849014,0 C9.17168895,0 0,10.9648885 0,24.4932697 C0,26.2760487 0.0643627295,28.0458657 0.640701716,27.9990029 C0.979939364,21.4093013 2.92460342,16.6632006 3.62381671,14.8445267 C5.00956578,11.2410797 6.43822333,9.2190015 11.2176436,12.0337583 C15.9414779,14.8176056 38.8215825,-2.55651307 40.7885465,27.1604587 C40.7223378,27.2290922 40.7461148,27.1966337 40.8598774,27.0630829 Z" ></path>
        <path d="M13,17.2142857 C13,15.4391705 16.5815953,14 21,14 C25.4184047,14 29,15.4391705 29,17.2142857 C29,18.9894009 25.4184047,21.6550682 21,21.6550682 C16.5815953,21.6550682 13,18.9894009 13,17.2142857 Z M20.7720108,11.9520159 C17.8232963,11.9520159 16.0830381,12.6060703 11.9491653,14.0956266 C-0.736080919,18.6666231 0.347781848,0.107602504 0.347781848,0.107602504 C0.347781848,27.3711238 13.2015276,30.0279753 21.1623477,30.0279753 C29.2487743,30.0279753 42,28.4867745 42,2 C41.4375304,2.79619211 42.6119065,17.3585143 29.314835,14.0956266 C25.5197573,12.4157036 23.7207253,11.9520159 20.7720108,11.9520159 Z" ></path>
        <path d="M52.3636364,49.5425962 L52.3636364,57.5555556 L34.3636364,57.5555556 L34.3636364,49.5425962 C34.3636364,47.2502369 37.304019,44.6332347 39.2727273,43.5555556 C39.2727273,43.5555556 47.4545455,43.5555556 47.4545455,43.5555556 C49.4411419,44.6521614 52.3636364,47.2766605 52.3636364,49.5425962 Z" ></path>
        <path d="M15.4284517,1.66075863 C16.2905687,2.42487619 17.1400579,3.35631593 17.5909091,4.27777778 C17.3186906,4.44552968 16.0401691,4.44552968 15.896916,4.04461575 C16.0477967,4.43201809 15.9467324,4.88996071 15.6149368,5.17243365 C15.2168085,5.5113786 14.6311422,5.47451577 14.2768444,5.09902961 C14.4963593,5.5634077 14.3293769,6.12823173 13.8824522,6.39002977 C13.5346607,6.59375789 13.1149981,6.55677621 12.8108665,6.33003184 C12.8774023,6.7875733 12.6208629,7.24487544 12.1757725,7.40923942 C11.848899,7.52994802 11.4998316,7.46330551 11.2428379,7.26337342 C11.1235498,7.57876457 10.8488663,7.8246583 10.4970928,7.88759073 C10.1654948,7.94691374 9.84346204,7.8296946 9.62466682,7.60248063 C9.46364407,7.92849229 9.13127929,8.15228473 8.74739686,8.15228473 C8.3887364,8.15228473 8.07504631,7.95693359 7.90405056,7.66538152 C7.68918316,7.85075686 7.39752279,7.9411645 7.09806138,7.88759073 C6.7462879,7.8246583 6.47160438,7.57876457 6.35231626,7.26337342 C6.09532256,7.46330551 5.74625517,7.52994802 5.41938165,7.40923942 C4.9742913,7.24487544 4.71775184,6.7875733 4.78428765,6.33003184 C4.48015609,6.55677621 4.0604935,6.59375789 3.71270198,6.39002977 C3.26577722,6.12823173 3.09879487,5.5634077 3.31830975,5.09902961 C2.96401194,5.47451577 2.37834569,5.5113786 1.98021741,5.17243365 C1.64842174,4.88996071 1.5473575,4.43201809 1.69823817,4.04461575 C1.41400088,4.17172429 1.08610601,3.65451293 0.818181818,3.5 C1.22890045,2.85971469 1.88558116,2.20609754 2.56476922,1.63513147 C3.12938477,3.80296256 5.79582243,5.44444444 9,5.44444444 C12.1915393,5.44444444 14.8495723,3.81588605 15.4284517,1.66075863 Z" ></path>
        <path d="M22,7.26997787 L22,17 L0,17 L0,7.26997787 C0,4.48639876 3.59380098,1.30861036 6,0 C6,0 16,0 16,0 C18.4280623,1.33159282 22,4.51848462 22,7.26997787 Z" ></path>
    </defs>
    <g stroke="none" stroke-width="1" fill="none" fill-rule="evenodd">
        <g  transform="translate(56.000000, -3.000000)">
            <g  transform="translate(7.000000, 7.000000)">
                <path d="M14,46.6727743 C15.0212984,48.305927 17.8897836,77 26.5,77 C35.1120801,77 39,47.7724102 39,46.2510626 C25.8148886,38.6977852 14,46.6727743 14,46.6727743 Z"  fill="#E7E5E2"></path>
                <g  transform="translate(0.000000, 43.000000)">
                    <mask  fill="white">
                        <use xlink:href="#path-1"></use>
                    </mask>
                    <use  fill="#D8A25D" fill-rule="evenodd" xlink:href="#path-1"></use>
                    <g  mask="url(#mask-2)" fill="#8B6D47" fill-rule="evenodd">
                        <g transform="translate(-33.000000, -25.000000)" >
                            <polygon points="0 100 126 100 126 0 0 0"></polygon>
                        </g>
                    </g>
                </g>
                <path d="M47.1877763,31.2697604 C44.6696923,41.5076369 36.5846657,49 26.9995001,49 C17.4144517,49 9.33018844,41.5078202 6.8122362,31.270136 C6.56409826,31.365206 6.28926952,31.418 6,31.418 C4.89687138,31.418 4,30.647 4,29.692 L4,22.727 C4,21.772 4.89687138,21 6,21 C6.0713989,21 6.14191802,21.0032205 6.21137317,21.0095028 C7.66308315,9.13181755 16.4165119,0 26.9995001,0 C37.5824993,0 46.3367677,9.13183661 47.7886097,21.00954 C47.8580845,21.0032332 47.9286104,21 48,21 C49.1054461,21 50,21.772 50,22.727 L50,29.692 C50,30.647 49.1054461,31.418 48,31.418 C47.710957,31.418 47.4360746,31.3650669 47.1877763,31.2697604 Z"  fill="#E7E5E2"></path>
            </g>
            <g  transform="translate(14.000000, 25.000000)">
                <g  transform="translate(10.000000, 0.000000)">
                    <path d="M2.0304,5.6246 C0.5834,5.7336 0.1784,3.6006 0.6134,2.2076 C0.6964,1.9436 1.1754,0.7426 2.0234,0.7426 C2.8704,0.7426 3.2444,1.3986 3.2964,1.5116 C3.9194,2.8696 3.6134,5.5046 2.0304,5.6246"  fill="#635E59"></path>
                    <path d="M18.1798,5.6246 C19.6268,5.7336 20.0318,3.6006 19.5958,2.2076 C19.5138,1.9436 19.0348,0.7426 18.1868,0.7426 C17.3398,0.7426 16.9658,1.3986 16.9138,1.5116 C16.2908,2.8696 16.5958,5.5046 18.1798,5.6246"  fill="#635E59"></path>
                    <path d="M10.4875,7.5831 C11.3525,7.4501 12.1955,7.4821 12.5915,7.9681 C13.5565,9.1531 13.2795,10.5221 11.6545,11.5341 C10.8425,12.0391 9.6925,12.2461 8.9875,11.9341" stroke="#D1BFA3" stroke-linecap="round"></path>
                    <path d="M16.7218,15.568 C16.7218,15.568 14.8938,19.755 9.8078,19.599 C4.7218,19.443 2.8148,15.568 2.8148,15.568" stroke="#593A32" stroke-width="1.013" stroke-linecap="round"></path>
                </g>
            </g>
            <g  transform="translate(12.000000, 3.000000)" fill="#344144">
                <g >
                    <path d="M41.7534953,22.5841 C41.5567525,20.1891 41.1518063,17.8141 40.1489912,15.7981 L38.8758935,15.3701 C34.4740129,6.7221 28.143862,2.8401 20.7717386,2.8401 C13.7138305,2.8401 7.46008466,7.9041 3.55674633,15.3701 L1.98662443,15.7981 C0.819538688,18.0721 0.82526906,20.2941 0.694425568,22.7361 C0.694425568,22.7361 9.15054437,20.1731 21.1489881,20.1731 C33.1455216,20.1731 41.7534953,22.5841 41.7534953,22.5841 C41.7105175,22.4441 41.7974282,22.7221 41.7534953,22.5841" ></path>
                    <path d="M24.1492198,3.111 C24.1492198,1.393 22.8188184,0 21.178022,0 C19.5372255,0 18.2058691,1.393 18.2058691,3.111 C18.2058691,4.829 19.5372255,6.222 21.178022,6.222 C22.8188184,6.222 24.1492198,4.829 24.1492198,3.111" ></path>
                </g>
            </g>
            <g  transform="translate(12.900000, 27.000000)">
                <g  transform="translate(12.000000, 11.000000)">
                    <mask  fill="white">
                        <use xlink:href="#path-3"></use>
                    </mask>
                    <use  fill="#3E3832" xlink:href="#path-3"></use>
                    <g  mask="url(#mask-4)" fill="#F6B873">
                        <g transform="translate(-34.000000, -45.000000)" >
                            <rect x="0" y="0" width="69" height="79"></rect>
                        </g>
                    </g>
                </g>
            </g>
        </g>
        <g  transform="translate(-7.000000, -3.000000)">
            <g  transform="translate(7.000000, 7.000000)">
                <path d="M14,46.6727743 C15.0212984,48.305927 17.8897836,77 26.5,77 C35.1120801,77 39,47.7724102 39,46.2510626 C25.8148886,38.6977852 14,46.6727743 14,46.6727743 Z"  fill="#E7E5E2"></path>
                <g  transform="translate(0.000000, 43.000000)">
                    <g >
                        <g >
                            <g  transform="translate(0.000000, 2.000000)">
                                <mask  fill="white">
                                    <use xlink:href="#path-5"></use>
                                </mask>
                                <use  fill="#FFFFFF" xlink:href="#path-5"></use>
                                <g  mask="url(#mask-6)" fill="#194D62">
                                    <g transform="translate(-33.000000, -27.000000)" >
                                        <polygon points="0 100 126 100 126 0 0 0"></polygon>
                                    </g>
                                </g>
                            </g>
                            <path d="M13.7454545,3.80289687 C14.7882931,5.49391057 19.473852,13.9106404 26.382983,19.0952303 C33.245276,13.9897542 39.2727273,4.94149184 39.2727273,3.36624439 C25.8095299,-4.45463786 13.7454545,3.80289687 13.7454545,3.80289687 Z"  fill="#CDD1D1"></path>
                        </g>
                        <path d="M28.968,11.0119667 L28.968,6 L28.244,6.03926115 L24.724,6.03926115 L24,6 L24,11.0119667 L25.085,11.6895021 L24.0871395,17.134299 C24.8868413,17.9789889 25.6484088,18.6419218 26.371842,19.1230978 C27.2518126,18.5016057 28.0268279,17.8706306 28.6968881,17.2301725 L27.883,11.6895021 L28.968,11.0119667 Z"  fill="#709CAA"></path>
                        <path d="M38.9184053,1 C35.3798802,4.2029008 31.0605247,6.07164035 26.3951663,6.07164035 C21.8114026,6.07164035 17.5653791,4.22803055 14.0630035,1.09252317 C14.0206569,1.3780885 13.8050669,2.70528726 13.8050669,2.99884842 C13.8050669,6.52044013 19.4907994,11.0404009 23.1346747,14 L25.2599762,6.62503181 L27.8224082,6.62503181 L29.8647962,14 C33.2845442,11.1466312 39.1564325,6.6278127 39.1564325,2.99884842 C39.1564325,2.67330394 38.9679818,1.31869091 38.9184053,1 Z"  fill="#FFFFFF"></path>
                    </g>
                </g>
                <path d="M47.1877763,31.2697604 C44.6696923,41.5076369 36.5846657,49 26.9995001,49 C17.4144517,49 9.33018844,41.5078202 6.8122362,31.270136 C6.56409826,31.365206 6.28926952,31.418 6,31.418 C4.89687138,31.418 4,30.647 4,29.692 L4,22.727 C4,21.772 4.89687138,21 6,21 C6.0713989,21 6.14191802,21.0032205 6.21137317,21.0095028 C7.66308315,9.13181755 16.4165119,0 26.9995001,0 C37.5824993,0 46.3367677,9.13183661 47.7886097,21.00954 C47.8580845,21.0032332 47.9286104,21 48,21 C49.1054461,21 50,21.772 50,22.727 L50,29.692 C50,30.647 49.1054461,31.418 48,31.418 C47.710957,31.418 47.4360746,31.3650669 47.1877763,31.2697604 Z"  fill="#E7E5E2"></path>
            </g>
            <g  transform="translate(14.000000, 25.000000)">
                <g  transform="translate(10.000000, 0.000000)">
                    <path d="M2.0304,5.6246 C0.5834,5.7336 0.1784,3.6006 0.6134,2.2076 C0.6964,1.9436 1.1754,0.7426 2.0234,0.7426 C2.8704,0.7426 3.2444,1.3986 3.2964,1.5116 C3.9194,2.8696 3.6134,5.5046 2.0304,5.6246"  fill="#635E59"></path>
                    <path d="M18.1798,5.6246 C19.6268,5.7336 20.0318,3.6006 19.5958,2.2076 C19.5138,1.9436 19.0348,0.7426 18.1868,0.7426 C17.3398,0.7426 16.9658,1.3986 16.9138,1.5116 C16.2908,2.8696 16.5958,5.5046 18.1798,5.6246"  fill="#635E59"></path>
                    <path d="M10.4875,7.5831 C11.3525,7.4501 12.1955,7.4821 12.5915,7.9681 C13.5565,9.1531 13.2795,10.5221 11.6545,11.5341 C10.8425,12.0391 9.6925,12.2461 8.9875,11.9341" stroke="#D1BFA3" stroke-linecap="round"></path>
                    <path d="M16.7218,15.568 C16.7218,15.568 14.8938,19.755 9.8078,19.599 C4.7218,19.443 2.8148,15.568 2.8148,15.568" stroke="#593A32" stroke-width="1.013" stroke-linecap="round"></path>
                </g>
            </g>
            <g  transform="translate(12.000000, 3.000000)">
                <g  transform="translate(0.977273, 1.000000)">
                    <mask  fill="white">
                        <use xlink:href="#path-7"></use>
                    </mask>
                    <use  fill="#3E3832" xlink:href="#path-7"></use>
                    <g  mask="url(#mask-8)" fill="#3E3832">
                        <g transform="translate(-12.704545, -23.000000)" >
                            <rect x="0" y="0" width="67" height="79"></rect>
                        </g>
                    </g>
                </g>
            </g>
            <g  transform="translate(12.900000, 27.000000)">
                <g  transform="translate(0.000000, -2.000000)">
                    <mask  fill="white">
                        <use xlink:href="#path-9"></use>
                    </mask>
                    <g ></g>
                    <g  mask="url(#mask-10)" fill="#3E3832">
                        <g transform="translate(-11.000000, -20.357143)" >
                            <rect x="0" y="0" width="69" height="85"></rect>
                        </g>
                    </g>
                </g>
            </g>
        </g>
        <g  transform="translate(63.000000, 47.000000)">
            <path d="M27,5 C34.7319865,5 41,11.0205081 41,18.4471812 L41,31.5528188 C41,38.9794919 34.7319865,45 27,45 C19.2680135,45 13,38.9794919 13,31.5528188 L13,18.4471812 C13,11.0205081 19.2680135,5 27,5 Z"  fill="#9B9590" fill-rule="evenodd"></path>
            <path d="M6.3518509,8.65278816 L10.3873988,5.24969389 C10.8188582,4.88585313 11.4782193,4.92412578 11.860123,5.33517825 C11.9485832,5.43039008 12.0170463,5.54088786 12.0617994,5.66067897 L21.9393217,32.0999425 C22.1315591,32.6145062 21.8519765,33.1804432 21.3132502,33.3672495 L16.7803862,34.9397864 C16.2389344,35.1275378 15.6402422,34.8615673 15.4431698,34.3457246 L15.4429197,34.3450692 L6.0627134,9.73636306 C5.91652304,9.35286859 6.03117159,8.92321041 6.3518509,8.65278816 Z"  fill="#C6C2BF" fill-rule="evenodd"></path>
            <path d="M47.6481491,8.65278816 C47.9688284,8.92321041 48.083477,9.35286859 47.9372866,9.73636306 L38.5570803,34.3450692 C38.556997,34.3452877 38.5569137,34.3455062 38.5568302,34.3457246 C38.3597578,34.8615673 37.7610656,35.1275378 37.2196138,34.9397864 L32.6867498,33.3672495 C32.1480235,33.1804432 31.8684409,32.6145062 32.0606783,32.0999425 L41.9382006,5.66067897 C41.9829537,5.54088786 42.0514168,5.43039008 42.139877,5.33517825 C42.5217807,4.92412578 43.1811418,4.88585313 43.6126012,5.24969389 L47.6481491,8.65278816 Z"  fill="#C6C2BF" fill-rule="evenodd"></path>
            <g  transform="translate(14.000000, 7.000000)">
                <g  transform="translate(4.000000, 23.000000)">
                    <g  stroke-width="1" fill-rule="evenodd" transform="translate(-34.363636, -43.555556)">
                        <g >
                            <mask  fill="white">
                                <use xlink:href="#path-11"></use>
                            </mask>
                            <use  fill="#D8A25D" xlink:href="#path-11"></use>
                            <g  mask="url(#mask-12)">
                                <g transform="translate(0.711462, 0.000000)" >
                                    <g>
                                        <polygon  fill="#117938" points="0 93 94 93 94 0 0 0"></polygon>
                                    </g>
                                </g>
                            </g>
                        </g>
                    </g>
                    <mask  fill="white">
                        <use xlink:href="#path-13"></use>
                    </mask>
                    <use  fill="#FA96A0" fill-rule="evenodd" xlink:href="#path-13"></use>
                </g>
                <path d="M1.02277439,11.2545888 C1.40766315,4.97437564 6.62291773,0 13,0 C19.3770823,0 24.5923368,4.97437564 24.9772256,11.2545888 C25.5875639,11.5970404 26,12.2503554 26,13 L26,15 C26,16.1045695 25.1045695,17 24,17 C23.9707736,17 23.9416936,16.9993731 23.9127727,16.998132 C22.5641871,19.9377817 20.062738,22.2385719 16.9872535,23.3216743 C16.8234327,25.3803987 15.1008554,27 13,27 C10.8991446,27 9.17656733,25.3803987 9.01274646,23.3216743 C5.93726203,22.2385719 3.43581288,19.9377817 2.0872273,16.998132 C2.05830643,16.9993731 2.02922643,17 2,17 C0.8954305,17 1.3527075e-16,16.1045695 0,15 L0,13 C-9.18049873e-17,12.2503554 0.412436066,11.5970404 1.02277439,11.2545888 Z"  fill="#E7E5E2" fill-rule="evenodd"></path>
                <g  stroke-width="1" fill-rule="evenodd" transform="translate(10.000000, 1.000000)" stroke="#78706A" stroke-linecap="round" stroke-linejoin="round">
                    <path d="M1.92489205,0.55525429 C1.41914493,0.808266338 1.41914493,1.23917748 1.41914493,1.82031453 C1.41914493,2.32633863 1.16627136,2.66368802 0.660524237,2.83236272"  stroke-width="0.8" transform="translate(1.292708, 1.693809) rotate(-48.000000) translate(-1.292708, -1.693809) "></path>
                    <path d="M3.62135922,0.542747275 C3.11561209,0.795759323 3.11561209,1.22667047 3.11561209,1.80780752 C3.11561209,2.31383161 2.86273853,2.65118101 2.3569914,2.81985571"  stroke-width="0.8" transform="translate(2.989175, 1.681301) rotate(-27.000000) translate(-2.989175, -1.681301) "></path>
                    <path d="M5.31782639,0.53024026 C4.81207926,0.783252308 4.81207926,1.21416345 4.81207926,1.7953005 C4.81207926,2.3013246 4.5592057,2.63867399 4.05345857,2.80734869"  stroke-width="0.8" transform="translate(4.685642, 1.668794) rotate(-9.000000) translate(-4.685642, -1.668794) "></path>
                </g>
                <g  transform="translate(5.000000, 9.000000)">
                    <path d="M4.8,8.33304778 C4.8,9.71397297 3.72571942,10.8333333 2.40053957,10.8333333 C1.07482014,10.8333333 0,9.71397297 0,8.33304778 C0,6.9526937 1.07482014,5.83333333 2.40053957,5.83333333 C3.72571942,5.83333333 4.8,6.9526937 4.8,8.33304778"  fill="#E8CCC8" fill-rule="evenodd"></path>
                    <path d="M7.17375296,12.0557116 C6.65120261,12.0557116 6.20661416,11.7078929 6.04181268,11.2223783 L5.97348318,9.55571164 L8.37348318,9.55571164 L8.30518738,11.2223783 C8.14046641,11.7078929 7.69609064,12.0557116 7.17375296,12.0557116 Z"  fill="#FA96A0" fill-rule="evenodd" transform="translate(7.173483, 10.805712) rotate(23.000000) translate(-7.173483, -10.805712) "></path>
                    <path d="M16,8.33304778 C16,9.71397297 14.9257194,10.8333333 13.6005396,10.8333333 C12.2748201,10.8333333 11.2,9.71397297 11.2,8.33304778 C11.2,6.9526937 12.2748201,5.83333333 13.6005396,5.83333333 C14.9257194,5.83333333 16,6.9526937 16,8.33304778"  fill="#E8CCC8" fill-rule="evenodd"></path>
                    <path d="M8.57688582,4.20364542 C8.90955664,4.13082251 9.23376647,4.14834381 9.38606433,4.41444856 C9.75719421,5.06383174 9.65066263,5.81341486 9.02570299,6.36697844 C8.71341546,6.64348646 8.27113634,6.75682737 8,6.58599469"Copy" stroke="#D1BFA3" stroke-width="1" stroke-linecap="round"></path>
                    <path d="M11.2,1.66666667 C11.4666667,2.77777778 12,3.33333333 12.8,3.33333333 C13.6,3.33333333 14.1333333,2.77777778 14.4,1.66666667"  stroke="#635E59" stroke-width="1" stroke-linecap="round" transform="translate(12.800000, 2.500000) scale(1, -1) translate(-12.800000, -2.500000) "></path>
                    <path d="M3.60558083,4.16386415 C2.50300311,4.23908197 2.19440327,2.78328391 2.52662433,1.83401598 C2.58910628,1.65311236 2.95409227,0.833333333 3.60024701,0.833333333 C4.24563977,0.833333333 4.5306184,1.28178388 4.57024109,1.35890595 C5.04495147,2.2853229 4.81254912,4.08293358 3.60558083,4.16386415"  fill="#635E59" fill-rule="evenodd"></path>
                    <path d="M6.4,9.16666667 C6.66666667,9.72222222 7.2,10 8,10 C8.8,10 9.33333333,9.72222222 9.6,9.16666667"  stroke="#593A32" stroke-width="1" stroke-linecap="round" transform="translate(8.000000, 9.583333) scale(1, -1) rotate(-180.000000) translate(-8.000000, -9.583333) "></path>
                </g>
            </g>
            <path d="M42,46 L12,46 L12,36.1176471 C12,34.9481029 13.361931,34 15.041958,34 L38.958042,34 C40.638069,34 42,34.9481029 42,36.1176471 L42,46 Z"  fill="#C6C2BF" fill-rule="evenodd"></path>
            <path d="M14.1236609,34 L39.8763391,34 C41.6014894,34 43,35.3431458 43,37 C43,38.6568542 41.6014894,40 39.8763391,40 L14.1236609,40 C12.3985106,40 11,38.6568542 11,37 C11,35.3431458 12.3985106,34 14.1236609,34 Z"  fill="#FFFFFF" fill-rule="evenodd"></path>
        </g>
        <g  transform="translate(41.000000, 47.000000)">
            <g  transform="translate(6.000000, 29.000000)" fill-rule="evenodd" stroke-width="1">
                <g >
                    <g >
                        <mask  fill="white">
                            <use xlink:href="#path-15"></use>
                        </mask>
                        <use  fill="#D8A25D" xlink:href="#path-15"></use>
                        <g  mask="url(#mask-16)" fill="#5EAEC7">
                            <g transform="translate(-41.130435, -52.888889)" >
                                <polygon points="0 113 115 113 115 0 0 0"></polygon>
                            </g>
                        </g>
                    </g>
                </g>
            </g>
            <path d="M2.03278723,14.0002633 C2.54724459,6.18210699 9.05166807,0 17,0 C24.9483319,0 31.4527554,6.18210699 31.9672128,14.0002633 C31.9781209,14.000088 31.9890501,14 32,14 C33.1045695,14 34,14.8954305 34,16 L34,18 C34,19.1045695 33.1045695,20 32,20 C31.7169683,20 31.4476682,19.9412083 31.2036457,19.8351711 C29.7265199,24.1756086 26.3157453,27.6218099 21.9978741,29.1472227 C21.9199939,31.8405517 19.71218,34 17,34 C14.28782,34 12.0800061,31.8405517 12.0021259,29.1472227 C7.68425475,27.6218099 4.27348013,24.1756086 2.79635431,19.8351711 C2.55233179,19.9412083 2.28303166,20 2,20 C0.8954305,20 1.3527075e-16,19.1045695 0,18 L0,16 C-1.3527075e-16,14.8954305 0.8954305,14 2,14 C2.01094985,14 2.02187915,14.000088 2.03278723,14.0002633 Z"  fill="#E7E5E2" fill-rule="evenodd"></path>
            <g  transform="translate(7.000000, 12.000000)">
                <path d="M6,9.99965734 C6,11.6567676 4.65714928,13 3.00067446,13 C1.34352518,13 0,11.6567676 0,9.99965734 C0,8.34323244 1.34352518,7 3.00067446,7 C4.65714928,7 6,8.34323244 6,9.99965734"  fill="#E8CCC8" fill-rule="evenodd"></path>
                <path d="M20,9.99965734 C20,11.6567676 18.6571493,13 17.0006745,13 C15.3435252,13 14,11.6567676 14,9.99965734 C14,8.34323244 15.3435252,7 17.0006745,7 C18.6571493,7 20,8.34323244 20,9.99965734"  fill="#E8CCC8" fill-rule="evenodd"></path>
                <path d="M10.7211073,5.0443745 C11.1369458,4.95698702 11.5422081,4.97801258 11.7325804,5.29733827 C12.1964928,6.07659809 12.0633283,6.97609784 11.2821287,7.64037413 C10.8917693,7.97218375 10.3389204,8.10819284 10,7.90319363"Copy" stroke="#D1BFA3" stroke-width="1" stroke-linecap="round"></path>
                <path d="M2,2 C2.33333333,3.33333333 3,4 4,4 C5,4 5.66666667,3.33333333 6,2"  stroke="#635E59" stroke-width="1" stroke-linecap="round" transform="translate(4.000000, 3.000000) scale(1, -1) translate(-4.000000, -3.000000) "></path>
                <path d="M14,2 C14.3333333,3.33333333 15,4 16,4 C17,4 17.6666667,3.33333333 18,2"  stroke="#635E59" stroke-width="1" stroke-linecap="round" transform="translate(16.000000, 3.000000) scale(1, -1) translate(-16.000000, -3.000000) "></path>
                <path d="M7,10 L13,10 C13,12.209139 11.6568542,14 10,14 C8.34314575,14 7,12.209139 7,10 Z"  fill="#593A32" fill-rule="evenodd"></path>
                <path d="M9.91580636,14 C9.13339003,14 8.50979509,13.7334663 8,13 C8.09514253,11.9835588 8.87005695,11 9.91580636,11 C10.9615558,11 11.9048575,11.9835588 12,13 C11.4902049,13.7334663 10.6982227,14 9.91580636,14 Z"  fill="#FA96A0" fill-rule="evenodd"></path>
            </g>
            <g  stroke-width="1" fill-rule="evenodd" transform="translate(13.000000, 1.000000)" stroke="#78706A" stroke-linecap="round" stroke-linejoin="round">
                <path d="M2.60182154,0.527124392 C1.93515488,0.860457726 1.93515488,1.42816606 1.93515488,2.19379106 C1.93515488,2.86045773 1.60182154,3.30490217 0.935154877,3.52712439"  transform="translate(1.768488, 2.027124) rotate(-48.000000) translate(-1.768488, -2.027124) "></path>
                <path d="M4.83782509,0.510149917 C4.17115843,0.84348325 4.17115843,1.41119158 4.17115843,2.17681658 C4.17115843,2.84348325 3.83782509,3.28792769 3.17115843,3.51014992"  transform="translate(4.004492, 2.010150) rotate(-27.000000) translate(-4.004492, -2.010150) "></path>
                <path d="M7.07382864,0.493175442 C6.40716197,0.826508775 6.40716197,1.39421711 6.40716197,2.15984211 C6.40716197,2.82650877 6.07382864,3.27095322 5.40716197,3.49317544"  transform="translate(6.240495, 1.993175) rotate(-9.000000) translate(-6.240495, -1.993175) "></path>
            </g>
        </g>
    </g>
</svg>