<svg xmlns="http://www.w3.org/2000/svg" width="100" height="100" viewBox="0 0 100 100">
    <g fill="none" fill-rule="evenodd">
        <circle cx="50" cy="50" r="50" fill="#C1B5D0"/>
        <path fill="#FFF" d="M28 30.943v45.126C28 77.688 29.28 79 30.86 79h38.282C70.72 79 72 77.688 72 76.069V23.931C72 22.312 70.72 21 69.142 21h-30.55L28 30.943z"/>
        <path fill="#C9C9C9" d="M38.593 21v6.925c0 1.667-1.363 3.018-3.044 3.018H28L38.593 21z"/>
        <path fill="#3E3832" d="M59.592 39.327l-.002-.002-2.166-2.166a.537.537 0 0 0-.382-.159H42.958a.542.542 0 0 0-.383.16l-2.167 2.165-.002.002a.601.601 0 0 0-.156.381v22.75c0 .3.243.542.542.542h7.041v-4.875c0-.3.243-.542.542-.542h3.25c.3 0 .542.243.542.542V63h7.041c.3 0 .542-.243.542-.542v-22.75a.598.598 0 0 0-.158-.381zm-13.925 16.09h-3.25v-3.25h3.25v3.25zm0-5.417h-3.25v-3.25h3.25V50zm0-5.417h-3.25v-3.25h3.25v3.25zm6.5 10.834h-4.334v-3.25h4.334v3.25zm0-5.417h-4.334v-3.25h4.334V50zm0-5.417h-4.334v-3.25h4.334v3.25zm5.416 10.834h-3.25v-3.25h3.25v3.25zm0-5.417h-3.25v-3.25h3.25V50zm0-5.417h-3.25v-3.25h3.25v3.25zM42.1 39.167l1.084-1.084h13.634l1.084 1.084H42.099z"/>
        <path fill="#E9E7E7" d="M24.23 72.105a2.37 2.37 0 0 0 3.374-.56l8.028-11.453c.783-1.116.54-2.675-.542-3.482l-.229-.17c-1.08-.807-2.592-.557-3.375.56L23.46 68.452c-.783 1.116-.54 2.674.542 3.481l.228.17z"/>
        <path fill="#E9E7E7" d="M28.727 58.545v-8.392h-1.163a.601.601 0 0 0-.44.188c-1.242 1.306-8.578 9.018-9.894 10.477a1.394 1.394 0 0 0-.303.547l-3.745 12.98 11.382 4.047s.183-.859.365-1.84c.183-.98 2.749-4.042 3.383-5.573.635-1.531 1.233-3.385 1.233-5.046 0-1.66-.818-6.663-.818-6.663v-.725zM65.502 62.575l.014.25c.067 1.179 1.063 2.08 2.225 2.012l7.535-.438c1.163-.068 2.05-1.079 1.984-2.258l-.014-.25c-.067-1.18-1.064-2.082-2.225-2.014l-7.536.439c-1.162.068-2.05 1.08-1.983 2.259"/>
        <path fill="#E9E7E7" d="M63.935 59.288l.014.249c.067 1.18 1.063 2.081 2.225 2.014l7.535-.44c1.162-.067 2.05-1.078 1.985-2.258l-.015-.249c-.067-1.18-1.063-2.081-2.225-2.014l-7.535.44c-1.162.067-2.05 1.078-1.984 2.258"/>
        <path fill="#E9E7E7" d="M62.007 56.066l.015.25c.066 1.179 1.062 2.081 2.224 2.014l7.535-.44c1.163-.067 2.05-1.079 1.984-2.258l-.014-.25c-.067-1.18-1.063-2.08-2.225-2.013l-7.535.44c-1.162.066-2.05 1.078-1.984 2.257"/>
        <path fill="#E9E7E7" d="M63.214 50.229l-.045.245c-.214 1.162.54 2.28 1.683 2.498l7.419 1.41c1.144.218 2.245-.547 2.46-1.709l.045-.245c.214-1.16-.54-2.279-1.683-2.496l-7.418-1.412c-1.145-.218-2.246.548-2.46 1.709"/>
        <path fill="#E9E7E7" d="M67.895 55.89l-2.834-4.328-1.888-1.059 10.501-.332c.161.035 11.753 8.589 12.729 10.288.104.183.167.387.181.598l.976 13.461-11.075 3.88s-.153-.899-.36-1.872c-.265-1.247-2.227-6.826-2.529-8.454-.3-1.628-1.28-3.819-2.456-5.008-1.539-1.556-3.245-7.174-3.245-7.174"/>
        <path fill="#C3242A" d="M82.08 59.691l-.456 1.126c-.256.634.123 1.384.845 1.675l.033.014c.723.292 1.515.015 1.772-.62l.454-1.125c.256-.633-.121-1.383-.844-1.675l-.033-.014c-.723-.292-1.516-.014-1.772.62"/>
        <path fill="#E8D7BD" d="M55.507 51.599l-3.459-3.387 4.84-.033 1.15.464-1.383 3.42z"/>
        <path fill="#5D5C5A" d="M52.048 48.213l1.555-.036-.461 1.14z"/>
        <path fill="#EDC55C" d="M55.481 51.155c.087-.215.366-.269.482-.556a.44.44 0 0 0 .03-.13l.275.111 26.016 10.511-.46 1.14-26.017-10.51-.255-.104s-.158-.247-.07-.462M56.522 49.215c.116-.286-.047-.52.04-.734.087-.215.371-.284.371-.284l.256.103 26.016 10.511-.46 1.14-26.017-10.51-.274-.111a.432.432 0 0 0 .068-.115"/>
        <path fill="#D8A25D" d="M56.022 49.817c.122-.303.333-.31.467-.474l.274.111 25.981 10.497-.46 1.14-25.982-10.497-.274-.11c.018-.21-.129-.363-.006-.667"/>
        <path fill="#5D5C5A" fill-rule="nonzero" d="M83.205 58.812l-1.382 3.42.927.374 1.382-3.42z"/>
        <path fill="#E9E7E7" fill-rule="nonzero" d="M65.934 53.039a2.834 2.834 0 0 1 4.05 0l7.52 7.635a2.938 2.938 0 0 1 0 4.11 2.834 2.834 0 0 1-4.049 0l-7.521-7.634a2.938 2.938 0 0 1 0-4.111z"/>
        <path fill="#561D5B" d="M21.161 90.85a50.284 50.284 0 0 1-11.91-11.869l1.698-4.742 14.506 5.31-3.852 11.301h-.442z"/>
        <path fill="#7C7086" d="M10.747 73.408l15.526 5.374-1.656 4.593L9.09 78.001z"/>
        <path fill="#37363A" d="M11.592 76.454a.815.815 0 0 1 1.044-.506c.426.152.65.627.499 1.06a.814.814 0 0 1-1.044.505.833.833 0 0 1-.499-1.059"/>
        <path fill="#561D5B" d="M90.75 78.981A50.284 50.284 0 0 1 78.838 90.85h-.442l-3.852-11.3 14.506-5.311 1.698 4.742z"/>
        <path fill="#7C7086" d="M89.253 73.408l-15.526 5.374 1.656 4.593 15.526-5.374z"/>
        <path fill="#37363A" d="M88.408 76.454a.815.815 0 0 0-1.044-.506.833.833 0 0 0-.499 1.06c.15.432.618.658 1.044.505a.833.833 0 0 0 .499-1.059"/>
    </g>
</svg>
