<svg xmlns="http://www.w3.org/2000/svg" width="100" height="100" viewBox="0 0 100 100">
    <g fill="none" fill-rule="evenodd">
        <circle cx="50" cy="50" r="50" fill="#C1B5D0"/>
        <path fill="#FFF" d="M33.131 80.54c-1.582 0-2.864-1.358-2.864-3.034v-55.18c0-1.676 1.282-3.036 2.864-3.036h37.592c1.582 0 2.864 1.36 2.864 3.035v55.18c0 1.677-1.282 3.035-2.864 3.035H33.13z"/>
        <path fill="#627282" d="M33.476 68.794h36.902V22.647H33.476z"/>
        <rect width="18" height="18" x="48" y="36" stroke="#FFF" stroke-width="2" rx="3"/>
        <path fill="#627282" d="M54 42h13v13H54z"/>
        <path fill="#627282" d="M54 33h7v24h-7z"/>
        <path fill="#627282" d="M69.5 41.5v7h-24v-7zM55.938 74.667c0 1.853-1.437 3.356-3.21 3.356-1.771 0-3.208-1.503-3.208-3.356 0-1.854 1.437-3.356 3.209-3.356s3.21 1.502 3.21 3.356"/>
        <path fill="#561D5B" d="M25.59 93.647a50.213 50.213 0 0 1-12.684-10.12l1.496-4.147 14.3 5.2-3.111 9.067z"/>
        <path fill="#7C7086" d="M14.402 79.38l14.3 5.2-1.526 4.445-14.3-5.2z"/>
        <path fill="#37363A" d="M15.12 82.178a.955.955 0 0 1 1.228-.604.998.998 0 0 1 .586 1.264.955.955 0 0 1-1.227.604.998.998 0 0 1-.587-1.264"/>
        <path fill="#E7E6E2" d="M25.616 75.234l.226.168a2.348 2.348 0 0 0 3.34-.553l7.944-11.31c.775-1.102.534-2.642-.536-3.439l-.227-.168a2.348 2.348 0 0 0-3.34.553l-7.944 11.31c-.774 1.103-.534 2.642.537 3.439"/>
        <path fill="#E7E6E2" d="M30.177 64.537V55.903h-.723a.574.574 0 0 0-.424.185c-1.2 1.29-8.285 8.91-9.555 10.35-.136.156-.236.34-.293.542l-3.617 12.824L26.557 83.8s.177-.848.353-1.817c.176-.968 2.654-3.994 3.267-5.507.613-1.513.831-4.228 1.78-5.58.95-1.351-1.78-6.36-1.78-6.36M68.766 50.977c.872-.234 1.746.21 1.956.991l4.03 15.042c.21.781-.326 1.603-1.198 1.836-.87.234-1.744-.21-1.954-.991l-4.03-15.042c-.21-.781.326-1.603 1.196-1.836M64.738 49.14c.87-.234 1.77.301 2.01 1.198l5.226 19.503c.24.896-.27 1.81-1.141 2.044-.871.233-1.771-.303-2.011-1.2l-5.226-19.502c-.24-.897.271-1.81 1.142-2.044M60.708 47.302c.87-.233 1.771.305 2.011 1.2l6.264 23.375c.24.896-.272 1.81-1.143 2.043-.87.234-1.77-.303-2.01-1.198l-6.263-23.375c-.24-.895.27-1.811 1.141-2.045M56.68 45.465c.87-.233 1.778.331 2.026 1.258l4.33 16.16c.249.928-.255 1.87-1.126 2.103-.871.233-1.778-.33-2.027-1.258l-4.33-16.16c-.248-.927.255-1.87 1.126-2.103"/>
        <path fill="#E7E6E2" d="M74.64 70.872l-.47-1.75c-.128-.478.731-1.136.731-1.136l-5.775-13.515-9.486 2.542-.396 5.053s-.37.212-.912-.21c-.542-.425-2.408-2.597-2.408-2.597s-2.384-2.514-3.718-1.589c-1.331.925-.137 2.68-.137 2.68s1.57 2.85 2.376 4.194c1.018 1.7 2.745 3.244 4.128 4.353 1.382 1.106 3.857 2.601 4.533 2.42l.816 2.427 10.717-2.872z"/>
        <path fill="#561D5B" d="M83.603 87.026a50.065 50.065 0 0 1-12.913 8.506l-7.315-19.169 14.3-5.2 5.928 15.863z"/>
        <path fill="#7C7086" d="M77.026 69.05l-14.3 5.2 1.526 4.445 14.3-5.2z"/>
        <path fill="#37363A" d="M77.034 71.847a.955.955 0 0 0-1.227-.604.998.998 0 0 0-.587 1.264.955.955 0 0 0 1.228.604.998.998 0 0 0 .586-1.264"/>
    </g>
</svg>
