<svg xmlns="http://www.w3.org/2000/svg" width="100" height="100" viewBox="0 0 100 100">
    <g fill="none" fill-rule="evenodd">
        <circle cx="50" cy="50" r="50" fill="#C1B5D0"/>
        <path fill="#FFF" d="M28 30.943v45.126C28 77.688 29.28 79 30.86 79h38.282C70.72 79 72 77.688 72 76.069V23.931C72 22.312 70.72 21 69.142 21h-30.55L28 30.943z"/>
        <path fill="#C9C9C9" d="M38.593 21v6.925c0 1.667-1.363 3.018-3.044 3.018H28L38.593 21z"/>
        <path fill="#CBC9C7" d="M41.424 47.198c1.533.03 2.81-1.2 2.84-2.731a2.793 2.793 0 0 0-2.73-2.84 2.794 2.794 0 0 0-2.84 2.731 2.796 2.796 0 0 0 2.73 2.84"/>
        <path fill="#515658" d="M41.43 46.82a2.223 2.223 0 0 0 2.257-2.182 2.23 2.23 0 0 0-2.173-2.27 2.229 2.229 0 0 0-2.275 2.202 2.22 2.22 0 0 0 2.19 2.25"/>
        <path fill="#515658" d="M40.425 48.55c-.143-.048-.253-.08-.36-.121-2.075-.779-3.162-3.006-2.484-5.099.669-2.07 2.865-3.248 4.976-2.666 1.76.484 2.968 2.075 2.989 3.936.02 1.774-1.191 3.39-2.937 3.906-.208.062-.342.107-.345.392-.036 2.617-.1 5.232-.143 7.847-.05 3.118 2.207 5.653 5.307 5.983 3.35.357 6.908-2.361 6.414-6.808-.789-.278-1.574-.496-2.31-.826-1.425-.64-2.657-1.556-3.578-2.843-.448-.624-.776-1.305-.762-2.09.056-3.336.095-6.673.207-10.007.06-1.772.968-3.084 2.533-3.917.223-.12.37-.256.486-.484a1.874 1.874 0 0 1 2.177-.943c.867.243 1.454 1.032 1.422 1.912a1.93 1.93 0 0 1-1.575 1.823c-.7.132-1.274-.113-1.782-.592-.922.56-1.402 1.367-1.425 2.433-.066 3.142-.115 6.282-.194 9.425-.015.585.159 1.071.51 1.517.605.766 1.367 1.34 2.206 1.82 2.852 1.63 6.55.88 8.555-1.737.294-.383.459-.794.459-1.293-.002-1.096.035-2.193.057-3.29.04-2.102.091-4.204.12-6.307.013-1.04-.467-1.82-1.32-2.394-.488.437-1.018.65-1.634.556-.948-.143-1.622-.898-1.653-1.818-.032-.962.583-1.757 1.521-1.964.896-.197 1.767.276 2.17 1.166.048.112.146.23.252.29 1.71.964 2.556 2.419 2.516 4.384-.059 3.084-.142 6.17-.167 9.254-.008 1.096-.379 2.006-1.086 2.8-1.381 1.555-3.12 2.498-5.135 2.96-.22.052-.442.09-.642.13-.058.782-.065 1.54-.173 2.281-.587 4.083-4.696 7.052-8.775 6.366-3.914-.66-6.624-3.915-6.555-7.88.045-2.605.1-5.209.152-7.815l.006-.288"/>
        <path fill="#A59D96" d="M38.96 44.594a2.422 2.422 0 1 0 4.844.001 2.422 2.422 0 0 0-4.845-.001"/>
        <path fill="#E9E7E7" d="M24.23 72.105a2.37 2.37 0 0 0 3.374-.56l8.028-11.453c.783-1.116.54-2.675-.542-3.482l-.229-.17c-1.08-.807-2.592-.557-3.375.56L23.46 68.452c-.783 1.116-.54 2.674.542 3.481l.228.17z"/>
        <path fill="#E9E7E7" d="M28.727 58.545v-8.392h-1.163a.601.601 0 0 0-.44.188c-1.242 1.306-8.578 9.018-9.894 10.477a1.394 1.394 0 0 0-.303.547l-3.745 12.98 11.382 4.047s.183-.859.365-1.84c.183-.98 2.749-4.042 3.383-5.573.635-1.531 1.233-3.385 1.233-5.046 0-1.66-.818-6.663-.818-6.663v-.725zM65.502 62.575l.014.25c.067 1.179 1.063 2.08 2.225 2.012l7.535-.438c1.163-.068 2.05-1.079 1.984-2.258l-.014-.25c-.067-1.18-1.064-2.082-2.225-2.014l-7.536.439c-1.162.068-2.05 1.08-1.983 2.259"/>
        <path fill="#E9E7E7" d="M63.935 59.288l.014.249c.067 1.18 1.063 2.081 2.225 2.014l7.535-.44c1.162-.067 2.05-1.078 1.985-2.258l-.015-.249c-.067-1.18-1.063-2.081-2.225-2.014l-7.535.44c-1.162.067-2.05 1.078-1.984 2.258"/>
        <path fill="#E9E7E7" d="M62.007 56.066l.015.25c.066 1.179 1.062 2.081 2.224 2.014l7.535-.44c1.163-.067 2.05-1.079 1.984-2.258l-.014-.25c-.067-1.18-1.063-2.08-2.225-2.013l-7.535.44c-1.162.066-2.05 1.078-1.984 2.257"/>
        <path fill="#E9E7E7" d="M63.214 50.229l-.045.245c-.214 1.162.54 2.28 1.683 2.498l7.419 1.41c1.144.218 2.245-.547 2.46-1.709l.045-.245c.214-1.16-.54-2.279-1.683-2.496l-7.418-1.412c-1.145-.218-2.246.548-2.46 1.709"/>
        <path fill="#E9E7E7" d="M67.895 55.89l-2.834-4.328-1.888-1.059 10.501-.332c.161.035 11.753 8.589 12.729 10.288.104.183.167.387.181.598l.976 13.461-11.075 3.88s-.153-.899-.36-1.872c-.265-1.247-2.227-6.826-2.529-8.454-.3-1.628-1.28-3.819-2.456-5.008-1.539-1.556-3.245-7.174-3.245-7.174"/>
        <path fill="#E9E7E7" d="M77.427 65.906l.203-.206a2.515 2.515 0 0 0-.009-3.519l-9.847-9.954a2.427 2.427 0 0 0-3.469.007l-.2.206a2.515 2.515 0 0 0 .007 3.52l9.848 9.954c.96.97 2.512.966 3.468-.008"/>
        <path fill="#C3242A" d="M82.08 59.691l-.456 1.126c-.256.634.123 1.384.845 1.675l.033.014c.723.292 1.515.015 1.772-.62l.454-1.125c.256-.633-.121-1.383-.844-1.675l-.033-.014c-.723-.292-1.516-.014-1.772.62"/>
        <path fill="#E8D7BD" d="M55.507 51.599l-3.459-3.387 4.84-.033 1.15.464-1.383 3.42z"/>
        <path fill="#5D5C5A" d="M52.048 48.213l1.555-.036-.461 1.14z"/>
        <path fill="#EDC55C" d="M55.481 51.155c.087-.215.366-.269.482-.556a.44.44 0 0 0 .03-.13l.275.111 26.016 10.511-.46 1.14-26.017-10.51-.255-.104s-.158-.247-.07-.462M56.522 49.215c.116-.286-.047-.52.04-.734.087-.215.371-.284.371-.284l.256.103 26.016 10.511-.46 1.14-26.017-10.51-.274-.111a.432.432 0 0 0 .068-.115"/>
        <path fill="#D8A25D" d="M56.022 49.817c.122-.303.333-.31.467-.474l.274.111 25.981 10.497-.46 1.14-25.982-10.497-.274-.11c.018-.21-.129-.363-.006-.667"/>
        <path fill="#5D5C5A" fill-rule="nonzero" d="M83.205 58.812l-1.382 3.42.927.374 1.382-3.42z"/>
        <path fill="#E9E7E7" fill-rule="nonzero" d="M65.934 53.039a2.834 2.834 0 0 1 4.05 0l7.52 7.635a2.938 2.938 0 0 1 0 4.11 2.834 2.834 0 0 1-4.049 0l-7.521-7.634a2.938 2.938 0 0 1 0-4.111z"/>
        <path fill="#561D5B" d="M21.161 90.85a50.284 50.284 0 0 1-11.91-11.869l1.698-4.742 14.506 5.31-3.852 11.301h-.442z"/>
        <path fill="#7C7086" d="M10.747 73.408l15.526 5.374-1.656 4.593L9.09 78.001z"/>
        <path fill="#37363A" d="M11.592 76.454a.815.815 0 0 1 1.044-.506c.426.152.65.627.499 1.06a.814.814 0 0 1-1.044.505.833.833 0 0 1-.499-1.059"/>
        <path fill="#561D5B" d="M90.75 78.981A50.284 50.284 0 0 1 78.838 90.85h-.442l-3.852-11.3 14.506-5.311 1.698 4.742z"/>
        <path fill="#7C7086" d="M89.253 73.408l-15.526 5.374 1.656 4.593 15.526-5.374z"/>
        <path fill="#37363A" d="M88.408 76.454a.815.815 0 0 0-1.044-.506.833.833 0 0 0-.499 1.06c.15.432.618.658 1.044.505a.833.833 0 0 0 .499-1.059"/>
    </g>
</svg>
