<svg xmlns="http://www.w3.org/2000/svg" width="100" height="100" viewBox="0 0 100 100">
    <g fill="none" fill-rule="evenodd">
        <circle cx="50" cy="50" r="50" fill="#C1B5D0"/>
        <path fill="#FFF" d="M32.131 80.54c-1.582 0-2.864-1.358-2.864-3.034v-55.18c0-1.676 1.282-3.036 2.864-3.036h37.592c1.582 0 2.864 1.36 2.864 3.035v55.18c0 1.677-1.282 3.035-2.864 3.035H32.13z"/>
        <path fill="#627282" d="M32.476 68.794h36.902V22.647H32.476zM54.938 74.667c0 1.853-1.437 3.356-3.21 3.356-1.771 0-3.208-1.503-3.208-3.356 0-1.854 1.437-3.356 3.209-3.356s3.21 1.502 3.21 3.356"/>
        <path fill="#561D5B" d="M24.755 93.168a50.236 50.236 0 0 1-12.56-10.443l1.207-3.345 14.3 5.2-2.947 8.588z"/>
        <path fill="#7C7086" d="M13.85 84.543a50.3 50.3 0 0 1-1.613-1.77l1.165-3.393 14.3 5.2-1.526 4.445-12.325-4.482z"/>
        <path fill="#37363A" d="M14.12 82.178a.955.955 0 0 1 1.228-.604.998.998 0 0 1 .586 1.264.955.955 0 0 1-1.227.604.998.998 0 0 1-.587-1.264"/>
        <path fill="#E7E6E2" d="M24.616 75.234l.226.168a2.348 2.348 0 0 0 3.34-.553l7.944-11.31c.775-1.102.534-2.642-.536-3.439l-.227-.168a2.348 2.348 0 0 0-3.34.553l-7.944 11.31c-.774 1.103-.534 2.642.537 3.439"/>
        <path fill="#E7E6E2" d="M29.177 64.537V55.903h-.723a.574.574 0 0 0-.424.185c-1.2 1.29-8.285 8.91-9.555 10.35-.136.156-.236.34-.293.542l-3.617 12.824L25.557 83.8s.177-.848.353-1.817c.176-.968 2.654-3.994 3.267-5.507.613-1.513.831-4.228 1.78-5.58.95-1.351-1.78-6.36-1.78-6.36M82.15 59.194c.871-.233 1.746.21 1.955.992l4.03 15.041c.21.782-.326 1.603-1.197 1.837-.87.233-1.745-.21-1.954-.992l-4.03-15.042c-.21-.78.326-1.603 1.195-1.836M78.121 57.357c.87-.233 1.77.302 2.01 1.199l5.226 19.503c.24.896-.27 1.81-1.14 2.043-.872.233-1.772-.303-2.012-1.199L76.98 59.401c-.24-.897.271-1.81 1.142-2.044M74.091 55.52c.87-.233 1.772.305 2.012 1.2l6.263 23.375c.24.895-.272 1.81-1.142 2.043-.87.233-1.77-.303-2.01-1.199L72.95 57.564c-.24-.895.27-1.81 1.141-2.044M70.063 53.683c.87-.234 1.778.33 2.026 1.258l4.33 16.16c.25.928-.255 1.869-1.126 2.102-.871.234-1.778-.33-2.027-1.258l-4.33-16.16c-.248-.926.255-1.869 1.127-2.102"/>
        <path fill="#E7E6E2" d="M88.023 79.09l-.47-1.75c-.128-.479.732-1.137.732-1.137L82.509 62.69l-9.486 2.542-.396 5.052s-.37.213-.912-.21c-.541-.425-2.407-2.596-2.407-2.596s-2.385-2.515-3.719-1.59c-1.33.925-.137 2.68-.137 2.68s1.57 2.85 2.376 4.195c1.019 1.7 2.745 3.244 4.129 4.353 1.382 1.106 3.856 2.6 4.532 2.42l.816 2.427 10.718-2.872z"/>
        <path fill="#561D5B" d="M78.896 90.81l-2.138-6.23 13.487-4.904a50.287 50.287 0 0 1-11.35 11.134z"/>
        <path fill="#7C7086" d="M90.917 78.744a50.232 50.232 0 0 1-3.75 4.702l-9.532 3.466-1.526-4.445 14.3-5.2.508 1.477z"/>
        <path fill="#37363A" d="M89.03 81.254a.978.978 0 0 1-.427-.53.998.998 0 0 1 .587-1.263.943.943 0 0 1 1.024.257 50.21 50.21 0 0 1-1.183 1.536z"/>
        <path fill="#FFF" d="M58.29 44.379c0 4.498-3.54 8.149-7.907 8.149-4.376 0-7.917-3.651-7.917-8.15 0-4.497 3.541-8.148 7.917-8.148 4.368 0 7.908 3.65 7.908 8.149M40.133 47.97h-1.544l1.65-4.163h1.546zM59.583 47.97h-.959l1.651-4.163h.957zM62.222 47.97h-.405l1.645-4.163h.407z"/>
        <path fill="#627282" d="M44.372 47.95h1.214c.065 0 .114-.049.114-.112v-3.896a.111.111 0 0 0-.114-.113h-1.225a.143.143 0 0 0-.143.148l-.483 1.225c-.028.064.02.14.085.14h.346c.052 0 .096.04.096.1v2.396a.11.11 0 0 0 .11.113"/>
        <path fill="#627282" d="M47.01 47.95h1.219c.065 0 .117-.049.117-.112v-3.896a.114.114 0 0 0-.117-.113h-1.892a.146.146 0 0 0-.145.148l-.483 1.225-.167.14h.967c.218 0 .392.176.392.402v2.094a.11.11 0 0 0 .11.113M52.46 43.83H51.24a.112.112 0 0 0-.111.113v3.895c0 .063.05.113.111.113h1.232c.08 0 .14-.065.14-.147l.484-1.226a.099.099 0 0 0-.091-.14h-.338c-.054 0-.093-.046-.093-.097v-2.398c0-.064-.058-.113-.115-.113"/>
        <path fill="#627282" d="M47.448 47.95h.802c.076 0 .14-.066.14-.145l.482-1.23a.098.098 0 0 0-.089-.137h-.338l-.997 1.513zM55.719 43.83h1.45c.07 0 .12.069.091.135l-1.536 3.923c-.01.04-.046.063-.089.063h-1.31l1.301-4.054a.099.099 0 0 1 .093-.067"/>
        <path fill="#627282" d="M53.903 43.83h-2.048c-.145 0 .589.145.639.28l1.45 3.713c.03.08.104.128.184.128h1.244l-1.28-3.982a.194.194 0 0 0-.189-.14M49.972 43.83c.677 0 1.257.48 1.257 1.321 0 .83-.104.88-.104.88s-.115-.796-.71-.796c-.585 0-.72.352-.72.614 0 .304.299.59.468.59h1.066l-.63 1.436a.128.128 0 0 1-.117.076h-.484c-.507 0-1.832-.685-1.832-2.01 0-1.327.983-2.111 1.806-2.111"/>
    </g>
</svg>
