<?xml version="1.0" encoding="UTF-8"?>
<svg width="39px" height="40px" viewBox="0 0 39 40" version="1.1" xmlns="http://www.w3.org/2000/svg" xmlns:xlink="http://www.w3.org/1999/xlink">
    <!-- Generator: Sketch 52.1 (67048) - http://www.bohemiancoding.com/sketch -->
    <title>police-officer</title>
    <desc>Created with Sketch.</desc>
    <g id="Symbols" stroke="none" stroke-width="1" fill="none" fill-rule="evenodd">
        <g id="Fakta-beregning-a-milli" transform="translate(-535.000000, -288.000000)" fill="#050505" fill-rule="nonzero">
            <g id="Stacked-Group" transform="translate(117.000000, 279.000000)">
                <g id="Situation-5" transform="translate(374.000000, 0.000000)">
                    <g id="police-officer" transform="translate(44.652174, 9.000000)">
                        <path d="M33.1577174,28.0238286 L24.6720652,25.5464 C26.1520109,24.1295429 27.3435326,22.2404 27.55,19.9850286 C28.6296196,19.5972571 29.3546196,18.3759429 29.3546196,16.8 C29.3546196,15.2406286 28.6438043,14.0276 27.5815217,13.6282286 L27.5815217,11.2982857 C27.7013043,11.2005143 27.8084783,11.1010857 27.9093478,11 L9.91673913,11 C10.0176087,11.1010857 10.1247826,11.2005143 10.2445652,11.2982857 L10.2445652,13.6249143 C9.7512825,13.8132151 9.33045236,14.1666112 9.04673913,14.6308 C8.67478261,15.2174286 8.47146739,15.988 8.47146739,16.8 C8.47146739,18.3759429 9.19646739,19.5972571 10.276087,19.9850286 C10.4841304,22.2437143 11.6772283,24.1361714 13.1603261,25.5530286 L4.60217391,28.0470286 C1.84004337,29.1462109 0.00937505557,31.9233527 0,35.0285714 L0,40 L16.548913,40 L16.548913,27.8349143 C17.453587,28.2326286 18.287337,28.4447429 18.9130435,28.4447429 C19.53875,28.4447429 20.3725,28.2326286 21.2771739,27.8349143 L21.2771739,40 L37.826087,40 L37.826087,35.0285714 C37.826087,31.938 35.977337,29.1308 33.1577174,28.0238286 Z M18.9130435,26.7876 C16.7979348,26.7876 11.8206522,23.6191429 11.8206522,19.2857143 C11.8206522,18.8281069 11.4678331,18.4571429 11.0326087,18.4571429 C10.2524457,18.4571429 10.0475543,17.3733714 10.0475543,16.8 C10.0475543,16.3194286 10.1610326,15.8637143 10.3580435,15.5505143 C10.5897283,15.1842857 10.8545109,15.1428571 11.0326087,15.1428571 C11.4678331,15.1428571 11.8206522,14.7718931 11.8206522,14.3142857 L11.8206522,12.2693714 C13.3368478,12.9686857 15.5811957,13.4857143 18.9130435,13.4857143 C22.2448913,13.4857143 24.4892391,12.9670286 26.0054348,12.2693714 L26.0054348,14.3142857 C26.0054348,14.7718931 26.3582539,15.1428571 26.7934783,15.1428571 C27.5736413,15.1428571 27.7785326,16.2266286 27.7785326,16.8 C27.7785326,17.3733714 27.5736413,18.4571429 26.7934783,18.4571429 C26.3582539,18.4571429 26.0054348,18.8281069 26.0054348,19.2857143 C26.0054348,23.6191429 21.0281522,26.7876 18.9130435,26.7876 Z M30.7336957,34.2 C30.7344126,34.4773555 30.6023096,34.7364636 30.3822283,34.8893714 L28.0180978,36.5465143 C27.8857065,36.6409714 27.7344022,36.6857143 27.5815217,36.6857143 C27.4286413,36.6857143 27.277337,36.6409714 27.1449457,36.5465143 L24.7808152,34.8893714 C24.5607339,34.7364636 24.4286309,34.4773555 24.4293478,34.2 L24.4293478,30.8857143 C24.4293478,30.4281069 24.7821669,30.0571429 25.2173913,30.0571429 L29.9456522,30.0571429 C30.3808766,30.0571429 30.7336957,30.4281069 30.7336957,30.8857143 L30.7336957,34.2 Z" id="Shape"></path>
                        <path d="M15.804997,14.0012569 L15.6032606,14.0032487 L15.4015242,14.0012569 C14.7710981,13.9972732 14.1249112,13.9873141 13.6583959,14.5749043 C13.3794323,14.9234748 13.2391625,15.3995224 13.2391625,15.99508 C13.2366287,16.3508863 13.3844855,16.6813734 13.6270367,16.8620498 C13.869588,17.0427262 14.1699844,17.046143 14.4150694,16.871013 C14.6601545,16.6958831 14.8126941,16.3688128 14.8152279,16.0130064 C14.9649541,15.9891045 15.2108203,15.9910963 15.3889157,15.9930881 L15.6032606,15.99508 L15.8176055,15.9930881 C16.008979,15.9862144 16.200507,15.9928642 16.3912933,16.0130064 C16.3952103,16.5630354 16.7511999,17.0049091 17.1864183,16.9999588 C17.6216367,16.9950085 17.9712757,16.545109 17.9673587,15.99508 C17.9673587,15.3995224 17.8270889,14.9234748 17.5481253,14.5749043 C17.08161,13.9873141 16.4338471,13.9952814 15.804997,14.0012569 Z" id="Shape"></path>
                        <path d="M22.4245625,14.0012569 L22.2228261,14.0032487 L22.0210897,14.0012569 C21.3922395,13.9972732 20.7444766,13.9873141 20.2779612,14.5749044 C19.9989975,14.923475 19.8587277,15.3995228 19.8587277,15.9950805 C19.8561939,16.350887 20.0040507,16.6813741 20.246602,16.8620506 C20.4891533,17.042727 20.7895497,17.0461438 21.0346348,16.8710138 C21.2797199,16.6958838 21.4322595,16.3688135 21.4347933,16.013007 C21.6255796,15.9928648 21.8171076,15.986215 22.0084812,15.9930887 L22.2228261,15.9950805 L22.437171,15.9930887 C22.6285446,15.986215 22.8200726,15.9928648 23.0108589,16.013007 C23.0133927,16.3688135 23.1659323,16.6958838 23.4110174,16.8710138 C23.6561025,17.0461438 23.9564989,17.042727 24.1990502,16.8620506 C24.4416015,16.6813741 24.5894583,16.350887 24.5869245,15.9950805 C24.5869245,15.3995228 24.4466546,14.923475 24.167691,14.5749044 C23.7011756,13.9873141 23.0518366,13.9952814 22.4245625,14.0012569 Z" id="Shape"></path>
                        <path d="M8.35326087,9 L30.4184783,9 C30.8537027,9 31.2065217,8.63368752 31.2065217,8.18181818 L31.2065217,4.90909091 C31.2065217,4.45722157 30.8537027,4.09090909 30.4184783,4.09090909 C28.38375,4.09090909 27.1906522,3.26127273 25.8068478,2.30236364 C24.25125,1.224 22.4891848,0 19.3858696,0 C16.3755435,0 14.8010326,1.16836364 13.4109239,2.19927273 C12.0413043,3.21381818 10.8592391,4.09090909 8.35326087,4.09090909 C7.91803647,4.09090909 7.56521739,4.45722157 7.56521739,4.90909091 L7.56521739,8.18181818 C7.56521739,8.63368752 7.91803647,9 8.35326087,9 Z M17.8097826,3.27272727 C17.8097826,2.82085793 18.1626017,2.45454545 18.5978261,2.45454545 L20.173913,2.45454545 C20.6091374,2.45454545 20.9619565,2.82085793 20.9619565,3.27272727 L20.9619565,4.90909091 C20.9619565,5.12672727 20.8784239,5.33454545 20.7318478,5.48836364 L19.9438043,6.30654545 C19.6351753,6.62523801 19.1365638,6.62523801 18.8279348,6.30654545 L18.0398913,5.48836364 C17.8927735,5.33422322 17.8100965,5.12609316 17.8097826,4.90909091 L17.8097826,3.27272727 Z" id="Shape"></path>
                    </g>
                </g>
            </g>
        </g>
    </g>
</svg>