<svg xmlns="http://www.w3.org/2000/svg" width="148" height="118" viewBox="0 0 148 118">
    <g fill="none" fill-rule="nonzero">
        <g transform="translate(33)">
            <ellipse cx="16" cy="28.848" fill="#F6B873" rx="8.727" ry="10.424"/>
            <ellipse cx="15.758" cy="28.121" fill="#F8CEA0" rx="5.576" ry="6.788"/>
            <g transform="rotate(-20 92.514 14.944)">
                <ellipse cx="6.059" cy="6.788" fill="#F6B873" rx="6.059" ry="6.788"/>
                <ellipse cx="6.059" cy="8.061" fill="#F8CEA0" rx="3.463" ry="3.818"/>
                <ellipse cx="5.843" cy="2.121" fill="#F8CEA0" rx="1.082" ry="1.273"/>
                <ellipse cx="8.44" cy="3.394" fill="#F8CEA0" rx="1.082" ry="1.273"/>
                <ellipse cx="3.246" cy="3.394" fill="#F8CEA0" rx="1.082" ry="1.273"/>
            </g>
            <g transform="rotate(20 -70.453 71.313)">
                <ellipse cx="6.059" cy="6.788" fill="#F6B873" rx="6.059" ry="6.788"/>
                <ellipse cx="6.059" cy="8.061" fill="#F8CEA0" rx="3.463" ry="3.818"/>
                <ellipse cx="5.843" cy="2.121" fill="#F8CEA0" rx="1.082" ry="1.273"/>
                <ellipse cx="8.44" cy="3.394" fill="#F8CEA0" rx="1.082" ry="1.273"/>
                <ellipse cx="3.246" cy="3.394" fill="#F8CEA0" rx="1.082" ry="1.273"/>
            </g>
            <ellipse cx="16" cy="12.848" fill="#F6B873" rx="11.152" ry="10.424"/>
            <ellipse cx="11.879" cy="10.424" fill="#3E3832" rx="1" ry="1.697" transform="rotate(10 11.879 10.424)"/>
            <ellipse cx="19.152" cy="10.424" fill="#3E3832" rx="1" ry="1.697" transform="scale(-1 1) rotate(10 0 -208.479)"/>
            <circle cx="15.758" cy="15.758" r="5.576" fill="#F8CEA0"/>
            <g transform="matrix(-1 0 0 1 27.636 0)">
                <circle cx="3.879" cy="3.879" r="3.879" fill="#F6B873"/>
                <circle cx="3.448" cy="3.448" r="1.724" fill="#F8CEA0"/>
            </g>
            <g transform="translate(3.394 .97)">
                <ellipse cx="4.121" cy="3.879" fill="#F6B873" rx="4.121" ry="3.879"/>
                <ellipse cx="3.663" cy="3.448" fill="#F8CEA0" rx="1.832" ry="1.724"/>
            </g>
            <circle cx="16.242" cy="14.303" r="1.697" fill="#8B5F26"/>
            <path fill="#F6B873" d="M10.182 20.848c-2.77.84-4.849 2.101-6.234 3.782-2.078 2.522-2.493 5.043-2.493 6.303 0 1.26.623 2.522 2.493 2.522 1.247 0 2.078-.7 2.494-2.101.83-3.362 1.662-5.603 2.493-6.724a6.19 6.19 0 0 0 1.247-3.782zM21.818 20.848c2.77.84 4.849 2.101 6.234 3.782 2.078 2.522 2.493 5.043 2.493 6.303 0 1.26-.623 2.522-2.493 2.522-1.247 0-2.078-.7-2.494-2.101-.83-3.362-1.662-5.603-2.493-6.724a6.19 6.19 0 0 1-1.247-3.782z"/>
            <path stroke="#8B5F26" stroke-linecap="round" stroke-linejoin="round" stroke-width=".5" d="M16.123 9.472V3.619"/>
        </g>
        <g fill="#D4CDDC" transform="translate(0 9)">
            <path d="M5.19 37.631h138.846v5.19H5.19zM0 83.048h147.929v10.381H0z"/>
            <path d="M5.19 31.143V109H0V31.143zM18.167 38.929v54.5h-5.19v-54.5zM70.071 38.929v54.5h-5.19v-54.5zM31.143 38.929v54.5h-5.19v-54.5zM83.048 38.929v54.5h-5.19v-54.5zM121.976 38.929v54.5h-5.19v-54.5zM44.119 38.929v54.5h-5.19v-54.5zM96.024 38.929v54.5h-5.19v-54.5zM134.952 38.929v54.5h-5.19v-54.5zM57.095 38.929v54.5h-5.19v-54.5zM109 38.929v54.5h-5.19v-54.5zM147.929 31.143V109h-5.19V31.143z"/>
            <path d="M107.702 2.595a1.298 1.298 0 0 1 0-2.595c20.783 0 37.631 16.848 37.631 37.631a1.298 1.298 0 0 1-2.595 0c0-19.35-15.686-35.036-35.036-35.036z"/>
            <path d="M96.483 19.413a.649.649 0 0 1-.918-.918c7.855-7.855 20.59-7.855 28.444 0a.649.649 0 1 1-.917.918c-7.348-7.348-19.262-7.348-26.61 0z"/>
            <path d="M109 .649a.649.649 0 0 1 1.298 0v18.166a.649.649 0 1 1-1.298 0V.65zM96.024 25.92l-2.406 1.33.46-2.817-1.947-1.995 2.69-.41 1.203-2.564 1.203 2.563 2.69.411-1.947 1.995.46 2.817z"/>
            <circle cx="109.649" cy="24.006" r="3.244"/>
            <path d="M123.274 19.464l3.702 2.69-1.414 4.353h-4.576l-1.415-4.353z"/>
        </g>
    </g>
</svg>
