<svg xmlns="http://www.w3.org/2000/svg" xmlns:xlink="http://www.w3.org/1999/xlink" width="56" height="61" viewBox="0 0 56 61">
    <g fill="none" fill-rule="evenodd">
        <path fill="#3B2C70" d="M4.786 30.774c-.699-.704-4.005-3.123-3.305-3.828L.359 23.374 26.839.528a1.782 1.782 0 0 1 2.532 0l26.477 22.846-5.997 13.071c.698.704-21.929 12.367-22.627 13.073L4.786 30.774z"/>
        <path fill="#DCDCD2" d="M50.576 47.768H5.921a.56.56 0 0 1-.557-.56V16.884c0-.309.249-.56.557-.56h44.655c.306 0 .554.251.554.56V47.21c0 .306-.248.559-.554.559"/>
        <g transform="translate(20.551 21.35)">
            <ellipse fill="#5C4378" id="a" cx="8.077" cy="8.133" rx="8.077" ry="8.133"/>
            <path fill="#FFF" d="M6.625 9.643L11.37 5.03a1.005 1.005 0 0 1 1.427.025 1.022 1.022 0 0 1-.025 1.437L7.262 11.85c-.4.39-1.04.378-1.427-.025a1.017 1.017 0 0 1-.149-.146L3.602 9.178a1.022 1.022 0 0 1 .124-1.433 1.005 1.005 0 0 1 1.422.126l1.477 1.772z"/>
        </g>
        <path fill="#7055A6" d="M2.597 60.653H47.77c1.158 0-47.268-37.24-47.268-37.24v35.13c0 1.165.938 2.11 2.095 2.11"/>
        <path fill="#5A398F" d="M53.899 60.653H8.725c-1.157 0 47.269-37.24 47.269-37.24v35.13c0 1.165-.938 2.11-2.095 2.11"/>
    </g>
</svg>
