<svg width="23px" height="22px" viewBox="0 0 23 22" version="1.1" xmlns="http://www.w3.org/2000/svg" xmlns:xlink="http://www.w3.org/1999/xlink">
    <g stroke="none" stroke-width="1" fill="none" fill-rule="evenodd">
        <g id="Fakta-første" transform="translate(-139.000000, -406.000000)" fill="#3E3832" fill-rule="nonzero">
            <g id="Group-7" transform="translate(70.000000, 403.000000)">
                <g id="Icons/check" transform="translate(65.000000, 0.000000)">
                    <path d="M25.7357069,3.91494828 C25.5533367,3.76971758 25.3206726,3.70302327 25.0890577,3.72958309 C24.8574429,3.75614291 24.6459158,3.87377368 24.5011552,4.05651724 L13.2433448,18.2327586 L9.54408621,14.5335 C9.32214112,14.3113978 8.99856531,14.2245733 8.69524664,14.3057323 C8.39192798,14.3868913 8.15494779,14.6237039 8.07357423,14.926965 C7.99220066,15.2302262 8.07879629,15.5538634 8.30074138,15.7759655 L12.6972931,20.1733966 C12.8741276,20.351702 13.1189364,20.4456127 13.3696533,20.4313197 C13.6203702,20.4170266 13.8529201,20.2959023 14.0083448,20.0986552 L25.8790345,5.15037931 C26.1801807,4.76952342 26.1160501,4.2167417 25.7357069,3.91494828 Z" id="Shape"></path>
                    <path d="M21.2767241,13.4141379 C20.8036062,13.5223712 20.5076486,13.9934634 20.6154828,14.4666724 C20.7333103,14.981069 20.7931034,15.5077759 20.7931034,16.0344828 C20.7931034,19.9131207 17.6372586,23.0689655 13.7586207,23.0689655 C9.87998276,23.0689655 6.72413793,19.9131207 6.72413793,16.0344828 C6.72413793,12.1558448 9.87998276,9 13.7586207,9 C14.856,9 15.9076552,9.2462069 16.884569,9.7307069 C17.1671175,9.88222796 17.5097406,9.86795392 17.7787069,9.69345615 C18.0476732,9.51895838 18.2003453,9.2118988 18.1771328,8.89212778 C18.1539202,8.57235676 17.9585028,8.29056537 17.6671552,8.15674138 C16.4534475,7.55119696 15.1149972,7.23773761 13.7586207,7.24137931 C8.91010345,7.24137931 4.96551724,11.1850862 4.96551724,16.0344828 C4.96551724,20.883 8.91010345,24.8275862 13.7586207,24.8275862 C18.6071379,24.8275862 22.5517241,20.883 22.5517241,16.0344828 C22.5517241,15.3767586 22.4769828,14.7172759 22.3301379,14.0745 C22.278398,13.8470193 22.138209,13.6495029 21.940546,13.5255923 C21.742883,13.4016817 21.5040164,13.3615764 21.2767241,13.4141379 Z" id="Shape"></path>
                </g>
            </g>
        </g>
    </g>
</svg>