<?xml version="1.0" encoding="UTF-8"?>
<svg width="26px" height="24px" viewBox="0 0 26 24" version="1.1" xmlns="http://www.w3.org/2000/svg" xmlns:xlink="http://www.w3.org/1999/xlink">
    <!-- Generator: Sketch 52.4 (67378) - http://www.bohemiancoding.com/sketch -->
    <title>Icons/check/outline/dark</title>
    <desc>Created with Sketch.</desc>
    <g id="Veiviser" stroke="none" stroke-width="1" fill="none" fill-rule="evenodd">
        <g id="Veiviser---Rett-til-foreldrepenger-2" transform="translate(-334.000000, -1567.000000)">
            <g id="Group-23" transform="translate(272.000000, 1270.000000)">
                <g id="Group-9-Copy" transform="translate(59.000000, 237.000000)">
                    <g id="Group-21">
                        <g id="Group-18" transform="translate(3.153465, 53.000000)">
                            <g id="icon/-feedback/-check-circle-2" transform="translate(0.000000, 7.000000)">
                                <g id="check-circle-2">
                                    <path d="M12.5,0 C5.60729167,0 0,5.384 0,12 C0,18.616 5.60729167,24 12.5,24 C19.3916667,24 25,18.616 25,12 C25,5.384 19.3916667,0 12.5,0 Z M18.0635417,8.866 L10.2510417,15.866 C10.1510417,15.955 10.0229167,16 9.89583333,16 C9.76145833,16 9.62916667,15.951 9.52708333,15.854 L6.92291667,13.354 C6.71979167,13.159 6.71979167,12.842 6.92291667,12.647 C7.12604167,12.452 7.45625,12.452 7.659375,12.647 L9.90729167,14.805 L17.3520833,8.135 C17.5614583,7.947 17.8916667,7.956 18.0885417,8.158 C18.2854167,8.36 18.2739583,8.677 18.0635417,8.866 Z" id="Shape" fill="#9BD0B0" fill-rule="nonzero"></path>
                                    <path d="M18.0635417,8.866 L10.2510417,15.866 C10.1510417,15.955 10.0229167,16 9.89583333,16 C9.76145833,16 9.62916667,15.951 9.52708333,15.854 L6.92291667,13.354 C6.71979167,13.159 6.71979167,12.842 6.92291667,12.647 C7.12604167,12.452 7.45625,12.452 7.659375,12.647 L9.90729167,14.805 L17.3520833,8.135 C17.5614583,7.947 17.8916667,7.956 18.0885417,8.158 C18.2854167,8.36 18.2739583,8.677 18.0635417,8.866 Z" id="Path" fill="#3E3832"></path>
                                </g>
                            </g>
                        </g>
                    </g>
                </g>
            </g>
        </g>
    </g>
</svg>