<?xml version="1.0" encoding="UTF-8"?>
<svg role="img" aria-hidden="true" width="50px" height="37px" viewBox="0 0 50 37" version="1.1" xmlns="http://www.w3.org/2000/svg" xmlns:xlink="http://www.w3.org/1999/xlink">
    <title>Penger</title>
    <g stroke="none" stroke-width="1" fill="none" fill-rule="evenodd">
        <g transform="translate(6.000000, 0.000000)">
            <rect fill="#E3B0A8" x="0" y="0" width="44" height="24"></rect>
            <rect fill="#F1D8D4" x="34.8333333" y="0" width="5.5" height="24"></rect>
        </g>
        <g transform="translate(4.000000, 2.000000)">
            <g>
                <rect fill="#9BD0B0" x="0" y="0" width="44" height="24"></rect>
                <rect fill="#CDE7D8" x="34.8333333" y="0" width="5.5" height="24"></rect>
            </g>
            <path d="M5.5,10.9552254 L5.5,3.81887328 L6.60865669,3.81887328 L10.8984338,9.42183459 L10.8984338,3.81887328 L11.9346657,3.81887328 L11.9346657,10.9552254 L10.826009,10.9552254 L6.53623188,5.34739618 L6.53623188,10.9552254 L5.5,10.9552254 Z M13.4221599,7.47953958 C13.4221599,6.29500954 13.7861373,5.36768247 14.5141032,4.69753055 C15.242069,4.02737863 16.1817251,3.69230769 17.3330996,3.69230769 C18.0870642,3.69230769 18.7667364,3.84970179 19.3721365,4.1644947 C19.9775367,4.47928761 20.4390081,4.9182062 20.7565646,5.48126363 C21.0741211,6.04432105 21.232897,6.68282184 21.232897,7.39678515 C21.232897,8.12048432 21.0657645,8.76790952 20.7314945,9.33908017 C20.3972244,9.91025081 19.9236824,10.3426789 19.310854,10.6363775 C18.6980256,10.930076 18.0369237,11.0769231 17.3275284,11.0769231 C16.5587074,11.0769231 15.8716071,10.9146611 15.266207,10.5901323 C14.6608068,10.2656036 14.2021209,9.82262843 13.8901356,9.26119365 C13.5781502,8.69975887 13.4221599,8.10588012 13.4221599,7.47953958 Z M14.5363877,7.4941433 C14.5363877,8.35414456 14.8010142,9.03158822 15.3302751,9.5264946 C15.8595359,10.021401 16.5234234,10.2688505 17.3219573,10.2688505 C18.1353477,10.2688505 18.8048062,10.0189671 19.330353,9.51919274 C19.8558997,9.01941842 20.1186692,8.31033368 20.1186692,7.39191725 C20.1186692,6.81101074 20.006319,6.30394213 19.7816152,5.87069621 C19.5569115,5.4374503 19.2282176,5.10156805 18.7955236,4.8630394 C18.3628296,4.62451075 17.8772169,4.50524821 17.3386707,4.50524821 C16.5735638,4.50524821 15.9152474,4.73484888 15.3637019,5.1940571 C14.8121564,5.65326532 14.5363877,6.41995305 14.5363877,7.4941433 Z M22.5811127,10.9552254 L22.5811127,3.81887328 L23.6619137,3.81887328 L23.6619137,7.35784189 L27.717703,3.81887328 L29.1829126,3.81887328 L25.756662,6.71041022 L29.3333333,10.9552254 L27.9071217,10.9552254 L24.9989871,7.34323817 L23.6619137,8.48232848 L23.6619137,10.9552254 L22.5811127,10.9552254 Z" fill="#117938"></path>
        </g>
        <g transform="translate(2.000000, 4.000000)">
            <rect fill="#C2EAF7" x="0" y="0" width="44" height="24"></rect>
            <rect fill="#E0F5FB" x="34.8333333" y="0" width="5.5" height="24"></rect>
        </g>
        <g transform="translate(0.000000, 6.000000)">
            <g>
                <rect fill="#9BD0B0" x="0" y="0" width="44" height="24"></rect>
                <rect fill="#CDE7D8" x="34.8333333" y="0" width="5.5" height="24"></rect>
            </g>
            <path d="M5.5,10.9552254 L5.5,3.81887328 L6.60865669,3.81887328 L10.8984338,9.42183459 L10.8984338,3.81887328 L11.9346657,3.81887328 L11.9346657,10.9552254 L10.826009,10.9552254 L6.53623188,5.34739618 L6.53623188,10.9552254 L5.5,10.9552254 Z M13.4221599,7.47953958 C13.4221599,6.29500954 13.7861373,5.36768247 14.5141032,4.69753055 C15.242069,4.02737863 16.1817251,3.69230769 17.3330996,3.69230769 C18.0870642,3.69230769 18.7667364,3.84970179 19.3721365,4.1644947 C19.9775367,4.47928761 20.4390081,4.9182062 20.7565646,5.48126363 C21.0741211,6.04432105 21.232897,6.68282184 21.232897,7.39678515 C21.232897,8.12048432 21.0657645,8.76790952 20.7314945,9.33908017 C20.3972244,9.91025081 19.9236824,10.3426789 19.310854,10.6363775 C18.6980256,10.930076 18.0369237,11.0769231 17.3275284,11.0769231 C16.5587074,11.0769231 15.8716071,10.9146611 15.266207,10.5901323 C14.6608068,10.2656036 14.2021209,9.82262843 13.8901356,9.26119365 C13.5781502,8.69975887 13.4221599,8.10588012 13.4221599,7.47953958 Z M14.5363877,7.4941433 C14.5363877,8.35414456 14.8010142,9.03158822 15.3302751,9.5264946 C15.8595359,10.021401 16.5234234,10.2688505 17.3219573,10.2688505 C18.1353477,10.2688505 18.8048062,10.0189671 19.330353,9.51919274 C19.8558997,9.01941842 20.1186692,8.31033368 20.1186692,7.39191725 C20.1186692,6.81101074 20.006319,6.30394213 19.7816152,5.87069621 C19.5569115,5.4374503 19.2282176,5.10156805 18.7955236,4.8630394 C18.3628296,4.62451075 17.8772169,4.50524821 17.3386707,4.50524821 C16.5735638,4.50524821 15.9152474,4.73484888 15.3637019,5.1940571 C14.8121564,5.65326532 14.5363877,6.41995305 14.5363877,7.4941433 Z M22.5811127,10.9552254 L22.5811127,3.81887328 L23.6619137,3.81887328 L23.6619137,7.35784189 L27.717703,3.81887328 L29.1829126,3.81887328 L25.756662,6.71041022 L29.3333333,10.9552254 L27.9071217,10.9552254 L24.9989871,7.34323817 L23.6619137,8.48232848 L23.6619137,10.9552254 L22.5811127,10.9552254 Z" fill="#117938"></path>
        </g>
        <circle fill="#FECB86" fill-rule="nonzero" cx="9.5" cy="29.5" r="7.5"></circle>
        <circle fill="#FECB86" fill-rule="nonzero" cx="21.5" cy="29.5" r="7.5"></circle>
        <path d="M32.5,37 C29.4624339,37 27,34.5375661 27,31.5 C27,28.4624339 29.4624339,26 32.5,26 C35.5375661,26 38,28.4624339 38,31.5 C38,34.5375661 35.5375661,37 32.5,37 Z M32.5,33.3333333 C33.512522,33.3333333 34.3333333,32.512522 34.3333333,31.5 C34.3333333,30.487478 33.512522,29.6666667 32.5,29.6666667 C31.487478,29.6666667 30.6666667,30.487478 30.6666667,31.5 C30.6666667,32.512522 31.487478,33.3333333 32.5,33.3333333 Z" fill="#F0F2F2" fill-rule="nonzero"></path>
    </g>
</svg>