<?xml version="1.0" encoding="UTF-8"?>
<svg width="46px" height="37px" viewBox="0 0 46 37" version="1.1" xmlns="http://www.w3.org/2000/svg" xmlns:xlink="http://www.w3.org/1999/xlink">
    <title>Penger</title>
    <g stroke="none" stroke-width="1" fill="none" fill-rule="evenodd">
        <g transform="translate(-8.000000, -26.000000)">
            <g transform="translate(8.000000, 20.000000)">
                <g stroke-width="1" fill-rule="evenodd" transform="translate(3.538462, 6.708333)">
                    <rect fill="#E3B0A8" x="0" y="0" width="42.4615385" height="23.0479167"></rect>
                    <rect fill="#F1D8D4" x="33.6153846" y="0" width="5.30769231" height="23.0479167"></rect>
                </g>
                <g stroke-width="1" fill-rule="evenodd" transform="translate(1.769231, 8.481250)">
                    <rect fill="#C2EAF7" x="0" y="0" width="42.4615385" height="23.0479167"></rect>
                    <rect fill="#E0F5FB" x="33.6153846" y="0" width="5.30769231" height="23.0479167"></rect>
                </g>
                <g stroke-width="1" fill-rule="evenodd" transform="translate(0.000000, 10.254167)">
                    <g>
                        <rect fill="#9BD0B0" x="0" y="0" width="42.4615385" height="23.0479167"></rect>
                        <rect fill="#CDE7D8" x="33.6153846" y="0" width="5.30769231" height="23.0479167"></rect>
                    </g>
                    <path d="M5.30769231,10.5206301 L5.30769231,3.66737805 L6.37758478,3.66737805 L10.5173697,9.04806911 L10.5173697,3.66737805 L11.5173697,3.66737805 L11.5173697,10.5206301 L10.4474773,10.5206301 L6.30769231,5.13526423 L6.30769231,10.5206301 L5.30769231,10.5206301 Z M12.9528536,7.1828252 C12.9528536,6.04528564 13.3041046,5.15474577 14.006617,4.51117886 C14.7091295,3.86761196 15.6159305,3.54583333 16.7270471,3.54583333 C17.4546494,3.54583333 18.1105568,3.69698358 18.6947891,3.99928862 C19.2790214,4.30159365 19.7243574,4.72310028 20.0308106,5.26382114 C20.3372637,5.804542 20.490488,6.41771337 20.490488,7.10335366 C20.490488,7.79834358 20.3291993,8.42008533 20.006617,8.96859756 C19.6840348,9.51710979 19.2270501,9.93238341 18.6356493,10.2144309 C18.0442485,10.4964784 17.406262,10.6375 16.7216708,10.6375 C15.9797316,10.6375 15.3166558,10.481675 14.7324235,10.1700203 C14.1481912,9.85836565 13.7055433,9.4329634 13.4044665,8.89380081 C13.1033897,8.35463823 12.9528536,7.78431873 12.9528536,7.1828252 Z M14.0281224,7.19684959 C14.0281224,8.02273448 14.2834962,8.67330386 14.7942514,9.14857724 C15.3050067,9.62385061 15.9456813,9.86148374 16.7162945,9.86148374 C17.5012446,9.86148374 18.1472955,9.62151324 18.6544665,9.14156504 C19.1616375,8.66161684 19.4152192,7.98066159 19.4152192,7.09867886 C19.4152192,6.54081699 19.3067973,6.05386387 19.0899504,5.63780488 C18.8731034,5.22174589 18.5559023,4.89918814 18.1383375,4.67012195 C17.7207727,4.44105577 17.2521394,4.32652439 16.7324235,4.32652439 C15.9940685,4.32652439 15.3587702,4.54701677 14.8265095,4.98800813 C14.2942488,5.42899949 14.0281224,6.16527262 14.0281224,7.19684959 Z M21.7915633,10.5206301 L21.7915633,3.66737805 L22.834574,3.66737805 L22.834574,7.06595528 L26.7485525,3.66737805 L28.162531,3.66737805 L24.8560794,6.44420732 L28.3076923,10.5206301 L26.9313482,10.5206301 L24.1248966,7.05193089 L22.834574,8.14583333 L22.834574,10.5206301 L21.7915633,10.5206301 Z" fill="#117938"></path>
                </g>
                <ellipse fill="#FECB86" fill-rule="nonzero" cx="8.84615385" cy="35.075" rx="7.07692308" ry="7.09166667"></ellipse>
                <path d="M19.4615385,42.1666667 C16.5301809,42.1666667 14.1538462,39.7853812 14.1538462,36.8479167 C14.1538462,33.9104522 16.5301809,31.5291667 19.4615385,31.5291667 C22.392896,31.5291667 24.7692308,33.9104522 24.7692308,36.8479167 C24.7692308,39.7853812 22.392896,42.1666667 19.4615385,42.1666667 Z M19.4615385,38.6208333 C20.4386576,38.6208333 21.2307692,37.8270715 21.2307692,36.8479167 C21.2307692,35.8687618 20.4386576,35.075 19.4615385,35.075 C18.4844193,35.075 17.6923077,35.8687618 17.6923077,36.8479167 C17.6923077,37.8270715 18.4844193,38.6208333 19.4615385,38.6208333 Z" fill="#F0F2F2" fill-rule="nonzero"></path>
            </g>
        </g>
    </g>
</svg>