<?xml version="1.0" encoding="UTF-8"?>
<svg width="48px" height="37px" viewBox="0 0 48 37" version="1.1" xmlns="http://www.w3.org/2000/svg" xmlns:xlink="http://www.w3.org/1999/xlink">
    <title>Adopsjon</title>
    <g stroke="none" stroke-width="1" fill="none" fill-rule="evenodd">
        <g transform="translate(-614.000000, -361.000000)">
            <g transform="translate(87.000000, 211.000000)">
                <g transform="translate(527.000000, 150.000000)">
                    <g>
                        <g transform="translate(6.127568, 0.395201)" fill-rule="nonzero">
                            <path d="M23.6456911,21.4715916 C25.4422063,21.2175515 27.5086558,21.5682805 29.6951351,22.6186077 C33.649518,24.5181893 37.456674,28.9475449 41.1166031,35.9066746 L41.1165844,35.9066846 C41.2385606,36.138615 41.1510213,36.4263596 40.9210599,36.5493802 C40.8530344,36.5857712 40.7772047,36.6047988 40.7002023,36.6047988 L24.5621946,36.6047984 C20.5789525,36.6047984 17.3498968,33.3480959 17.3498968,29.3307499 C17.3498968,28.9468809 17.3800253,28.5636142 17.44,28.1845409 C17.656993,26.8130249 18.0987513,25.6220429 18.7250352,24.6370502 C18.3211459,22.6794241 18.2916366,20.55827 18.6365073,18.273588 C19.0867948,15.2905461 19.9929636,12.5862825 21.3550137,10.1607974 C18.882819,9.85084142 16.9686486,7.70305314 16.9686486,5.09960597 C16.9686486,2.28317136 19.2088259,0 21.9722245,0 C24.7356232,0 26.9758004,2.28317136 26.9758004,5.09960597 C26.9758004,6.62195136 26.3213008,7.9884963 25.2834452,8.92289312 C24.4243641,10.5479465 23.7607533,12.5315991 23.2926126,14.8738507 C22.7701928,17.4876778 22.9618229,19.5060695 23.6456911,21.4715916 Z" fill="#FFFFFF"></path>
                            <path d="M0.365368593,5.62771012 C0.17575416,5.60515148 0.0263436784,5.45998467 0.00312558449,5.27575582 C-0.0247899443,5.05425418 0.137391775,4.85270437 0.365368593,4.82558172 L16.9009534,2.85832522 C17.1928812,2.82359425 17.4819832,2.94123843 17.6613041,3.16773447 L19.2391623,5.16068979 C19.3619506,5.31578083 19.3527206,5.53406687 19.2172525,5.67884936 L17.6614123,7.34166433 C17.4798794,7.53567888 17.2127484,7.63206121 16.9448811,7.60019274 L0.365368593,5.62771012 Z" fill="#FFBD66"></path>
                        </g>
                        <path d="M11.3124324,27.9676471 C15.7378752,27.9676471 19.3254054,24.1920859 19.3254054,19.5346951 C19.3254054,16.4297679 16.6544144,11.63456 11.3124324,5.14907121 C5.97045045,11.63456 3.29945946,16.4297679 3.29945946,19.5346951 C3.29945946,24.1920859 6.88698966,27.9676471 11.3124324,27.9676471 Z" fill="#3E3832" fill-rule="nonzero"></path>
                        <g transform="translate(5.184865, 10.853715)">
                            <path d="M10.3697297,13.7800622 L10.3697297,17.5893189 L1.88540541,17.5893189 L1.88540541,13.7800622 C1.88540541,12.6903044 3.27135873,11.4462156 4.19931204,10.9339009 C4.19931204,10.9339009 8.0558231,10.9339009 8.0558231,10.9339009 C8.99220802,11.4552131 10.3697297,12.7028659 10.3697297,13.7800622 Z" fill="#5EAEC7"></path>
                            <path d="M0.482150826,5.34922142 C0.664087863,2.36419181 3.12207823,0 6.12756757,0 C9.13305691,0 11.5910473,2.36419181 11.7729843,5.34922142 C12.0607037,5.51062656 12.2551351,5.81858716 12.2551351,6.17195967 L12.2551351,7.13887624 C12.2551351,7.65951657 11.8330728,8.08157895 11.3124324,8.08157895 C11.2986554,8.08157895 11.2849474,8.08128341 11.2713144,8.08069833 C10.6358243,9.47779583 9.45722074,10.5713493 8.00811691,11.0864114 C7.93824214,12.0640355 7.12299148,12.8354489 6.12756757,12.8354489 C5.13214366,12.8354489 4.31689299,12.0640355 4.24701823,11.0864114 C2.7979144,10.5713493 1.61931081,9.47779583 0.983820774,8.08069833 C0.970187773,8.08128341 0.956479751,8.08157895 0.942702703,8.08157895 C0.422062376,8.08157895 -3.80961053e-17,7.65951657 -3.33066907e-16,7.13887624 L0,6.17195967 C-4.32756506e-17,5.81858716 0.194431462,5.51062656 0.482150826,5.34922142 Z" fill="#E7E5E2"></path>
                            <g transform="translate(4.242162, 0.000000)" fill="#78706A" fill-rule="nonzero">
                                <path d="M1.29830997,0.5717116 C1.39207342,0.524548645 1.50570783,0.561936664 1.55211953,0.655220078 C1.59853122,0.748503491 1.56014504,0.862357767 1.46638159,0.909520722 C1.34956713,0.968278318 1.3310415,1.02955459 1.32972736,1.33940207 C1.32836019,1.66175585 1.15414125,1.89339672 0.838168442,1.99987324 C0.738781968,2.0333645 0.63172123,1.98024494 0.599041592,1.88122739 C0.566361954,1.78220984 0.620438529,1.67479023 0.719825003,1.64129897 C0.883552716,1.58612601 0.950199516,1.49751266 0.950863289,1.34100748 C0.952746312,0.897026213 1.00676247,0.718359803 1.29830997,0.5717116 Z" transform="translate(1.080667, 1.280606) rotate(-48.000000) translate(-1.080667, -1.280606) "></path>
                                <path d="M2.0967488,0.563845533 C2.19019925,0.516618458 2.30352795,0.554208229 2.34987552,0.647804638 C2.39622309,0.741401046 2.35803866,0.855561036 2.26458821,0.902788111 C2.14816369,0.961625592 2.12974035,1.02306811 2.12867134,1.33383039 C2.12755918,1.6571359 1.95403394,1.88932158 1.63907504,1.99585913 C1.54000749,2.02936958 1.43322085,1.97600704 1.4005604,1.87667058 C1.36789996,1.77733411 1.42173356,1.6696404 1.52080112,1.63612995 C1.68400345,1.58092536 1.75038488,1.4921036 1.75092484,1.33513635 C1.75245663,0.889844262 1.80617452,0.710693114 2.0967488,0.563845533 Z" transform="translate(1.880299, 1.274661) rotate(-27.000000) translate(-1.880299, -1.274661) "></path>
                                <path d="M2.89453896,0.557260475 C2.98774487,0.510160279 3.10097818,0.548051147 3.14745263,0.641892097 C3.19392708,0.735733047 3.15604375,0.849988421 3.06283784,0.897088617 C2.94671798,0.955768026 2.92845341,1.01726644 2.92804509,1.32850874 C2.92762028,1.65231363 2.75485554,1.88448797 2.44060921,1.9905162 C2.34176579,2.02386645 2.23503097,1.97019236 2.20221033,1.87063175 C2.16938969,1.77107115 2.22291172,1.66332562 2.32175515,1.62997537 C2.48458825,1.57503469 2.55067875,1.48621727 2.550885,1.32900757 C2.55147009,0.883027662 2.60472506,0.703713537 2.89453896,0.557260475 Z" transform="translate(2.679930, 1.268715) rotate(-9.000000) translate(-2.679930, -1.268715) "></path>
                            </g>
                            <g transform="translate(2.356757, 4.278483)">
                                <path d="M2.26248649,3.96142256 C2.26248649,4.61789644 1.75612289,5.1500258 1.13149757,5.1500258 C0.506617927,5.1500258 0,4.61789644 0,3.96142256 C0,3.30522018 0.506617927,2.77309082 1.13149757,2.77309082 C1.75612289,2.77309082 2.26248649,3.30522018 2.26248649,3.96142256" fill="#E8CCC8"></path>
                                <path d="M3.39446028,5.72314696 C3.14625328,5.71866569 2.93221403,5.55071998 2.8499376,5.32019603 L2.80376044,4.5331227 L3.94374016,4.55370454 L3.92502146,5.3396062 C3.8507775,5.56730424 3.64256627,5.7276264 3.39446028,5.72314696 Z" fill="#FA96A0" transform="translate(3.373750, 5.128181) rotate(23.000000) translate(-3.373750, -5.128181) "></path>
                                <path d="M7.54162162,3.96142256 C7.54162162,4.61789644 7.03525802,5.1500258 6.4106327,5.1500258 C5.78575306,5.1500258 5.27913514,4.61789644 5.27913514,3.96142256 C5.27913514,3.30522018 5.78575306,2.77309082 6.4106327,2.77309082 C7.03525802,2.77309082 7.54162162,3.30522018 7.54162162,3.96142256" fill="#E8CCC8"></path>
                                <path d="M4.08150114,2.19220226 C3.97959887,2.21470004 3.87963086,2.14615123 3.85821634,2.03909421 C3.83680182,1.93203718 3.90205003,1.82701227 4.0039523,1.80451448 C4.25748455,1.74854014 4.46944558,1.79160591 4.58613951,1.99724695 C4.81284503,2.39732042 4.73386007,2.85835464 4.37638617,3.17770132 C4.16860351,3.36325302 3.87696574,3.42984633 3.67323169,3.30038221 C3.58413419,3.24376464 3.55559406,3.12198557 3.60948552,3.02838105 C3.66337698,2.93477653 3.77929244,2.90479268 3.86838993,2.96141026 C3.91298838,2.98975063 4.03611072,2.96163656 4.13214192,2.87587988 C4.35105253,2.68031769 4.39360812,2.43192128 4.26218891,2.20000212 C4.24982375,2.17821193 4.19516805,2.1671071 4.08150114,2.19220226 Z" fill="#D1BFA3" fill-rule="nonzero"></path>
                                <path d="M5.09622394,0.840352613 C5.07096918,0.734223474 5.13238828,0.626680142 5.23340734,0.600147857 C5.3344264,0.573615573 5.43679156,0.638141572 5.46204633,0.74427071 C5.56862451,1.19214858 5.75366121,1.38654541 6.0332973,1.38654541 C6.31293339,1.38654541 6.49797009,1.19214858 6.60454827,0.74427071 C6.62980303,0.638141572 6.7321682,0.573615573 6.83318726,0.600147857 C6.93420632,0.626680142 6.99562542,0.734223474 6.97037065,0.840352613 C6.82556144,1.4488903 6.50782337,1.78270124 6.0332973,1.78270124 C5.55877123,1.78270124 5.24103315,1.4488903 5.09622394,0.840352613 Z" fill="#635E59" fill-rule="nonzero" transform="translate(6.033297, 1.188444) scale(1, -1) translate(-6.033297, -1.188444) "></path>
                                <path d="M1.6994954,1.97944687 C1.1797939,2.01520445 1.03433494,1.32313698 1.19092779,0.871867347 C1.22037874,0.78586812 1.39241538,0.396155831 1.69698129,0.396155831 C2.00118804,0.396155831 2.1355131,0.609343389 2.15418932,0.646006218 C2.3779447,1.08641279 2.26840153,1.94097353 1.6994954,1.97944687" fill="#635E59"></path>
                                <path d="M2.84801286,4.44629728 C2.80144538,4.34845104 2.83919578,4.22947098 2.93233076,4.18054786 C3.02546573,4.13162475 3.13871695,4.17128477 3.18528443,4.269131 C3.27571515,4.45914135 3.45970916,4.55579205 3.77081081,4.55579205 C4.08191246,4.55579205 4.26590647,4.45914135 4.35633719,4.269131 C4.40290467,4.17128477 4.51615589,4.13162475 4.60929087,4.18054786 C4.70242584,4.22947098 4.74017625,4.34845104 4.69360876,4.44629728 C4.53265209,4.7844947 4.21387132,4.95194788 3.77081081,4.95194788 C3.3277503,4.95194788 3.00896954,4.7844947 2.84801286,4.44629728 Z" fill="#593A32" fill-rule="nonzero" transform="translate(3.770811, 4.555770) scale(1, -1) rotate(-180.000000) translate(-3.770811, -4.555770) "></path>
                            </g>
                        </g>
                        <rect fill="#7F756C" fill-rule="nonzero" x="9.89837838" y="2.77213622" width="2.82810811" height="5.70464396" rx="1.41405405"></rect>
                        <path d="M11.1029465,3.83021693 C9.74301454,2.35427494 8.49577944,1.61474453 7.36124125,1.61162571 C6.22670306,1.60850689 4.95654133,1.97306614 3.55075607,2.70530346 C4.78006585,3.67732778 5.93919346,4.24444022 7.02813889,4.40664076 C8.11708433,4.5688413 9.47535354,4.37670003 11.1029465,3.83021693 Z" fill="#7F756C" fill-rule="nonzero" transform="translate(7.326851, 3.036966) rotate(20.000000) translate(-7.326851, -3.036966) "></path>
                        <path d="M19.1152119,3.83021693 C17.7552799,2.35427494 16.5080448,1.61474453 15.3735067,1.61162571 C14.2389685,1.60850689 12.9688067,1.97306614 11.5630215,2.70530346 C12.7923313,3.67732778 13.9514589,4.24444022 15.0404043,4.40664076 C16.1293497,4.5688413 17.4876189,4.37670003 19.1152119,3.83021693 Z" fill="#7F756C" fill-rule="nonzero" transform="translate(15.339117, 3.036966) scale(-1, 1) rotate(20.000000) translate(-15.339117, -3.036966) "></path>
                        <g transform="translate(13.669189, 20.836842)" fill="#E7E5E2">
                            <path d="M3.1587815,1.18831611 L3.1587815,2.31616538 L3.15804471,2.31097509 L3.06373521,2.31097509 L3.06373521,0.615308472 C3.06373521,0.436762614 2.92669173,0.291953619 2.75772056,0.291953619 C2.58874938,0.291953619 2.45146031,0.436762614 2.45146031,0.615308472 L2.45146031,2.31097509 L2.33529262,2.31097509 L2.33529262,0.323354853 C2.33529262,0.145068509 2.19824914,0 2.02927797,0 C1.86030679,0 1.72326331,0.145068509 1.72326331,0.323354853 L1.72326331,2.31097509 L1.60709563,2.31097509 L1.60709563,0.705359944 C1.60709563,0.526814086 1.47005215,0.381745577 1.30083538,0.381745577 C1.1318642,0.381745577 0.99482072,0.526814086 0.99482072,0.705359944 L0.99482072,3.10482942 C0.941034838,3.09392982 0.871776304,3.06745936 0.830270304,3.00024515 C0.755363024,2.8780139 0.786799522,2.90993416 0.671368632,2.60318823 C0.555937743,2.29618278 0.448611576,2.08026685 0.190488459,2.14851912 C-0.104474303,2.22637342 0.00309746226,2.72464093 0.11558118,3.36797695 C0.190488459,3.79591608 0.443945221,4.22048152 0.634283389,4.53734851 C0.82437596,4.85369648 1.18736927,5.3158915 1.31409765,5.3158915 L1.34283257,8.55696594 L3.35403162,8.55696594 L3.35403162,5.48094261 C3.35403162,5.2959089 3.5227572,5.23103031 3.5227572,5.23103031 C3.66397584,5.17938696 3.77081081,4.94322892 3.77081081,4.6222097 L3.77081081,1.18831611 C3.77081081,1.00977025 3.63376733,0.864961256 3.46455056,0.864961256 C3.29582498,0.864961256 3.1587815,1.00977025 3.1587815,1.18831611 Z"></path>
                        </g>
                        <path d="M11.3124324,37 C5.06474852,37 0,31.6512883 0,25.0533181 C0,20.6546713 3.77081081,13.86146 11.3124324,4.67368421 C18.8540541,13.86146 22.6248649,20.6546713 22.6248649,25.0533181 C22.6248649,31.6512883 17.5601163,37 11.3124324,37 Z M11.3124324,27.0168731 C15.477555,27.0168731 18.8540541,23.4772844 18.8540541,19.1109806 C18.8540541,16.2001114 16.3401802,11.7046039 11.3124324,5.6244582 C6.28468468,11.7046039 3.77081081,16.2001114 3.77081081,19.1109806 C3.77081081,23.4772844 7.14730982,27.0168731 11.3124324,27.0168731 Z" fill="#7F756C" fill-rule="nonzero"></path>
                        <ellipse fill="#635E59" cx="26.6313514" cy="3.72291022" rx="1" ry="1"></ellipse>
                    </g>
                </g>
            </g>
        </g>
    </g>
</svg>