<svg width="24px" height="24px" viewBox="0 0 24 24" version="1.1" xmlns="http://www.w3.org/2000/svg" xmlns:xlink="http://www.w3.org/1999/xlink">
    <g stroke="none" stroke-width="1" fill="none" fill-rule="evenodd" stroke-linecap="round" stroke-linejoin="round">
        <g  transform="translate(-583.000000, -326.000000)" stroke="#111111">
            <g  transform="translate(151.000000, 326.000000)">
                <g  transform="translate(416.000000, 0.000000)">
                    <g  transform="translate(16.000000, 0.000000)">
                        <path d="M7.492,10.012 C8.272,9.231 8.272,7.965 7.492,7.184 L5.37,5.063 C4.99490398,4.68775199 4.48607337,4.47692707 3.9555,4.47692707 C3.42492663,4.47692707 2.91609602,4.68775199 2.541,5.063 L1.378,6.226 C0.369466242,7.23392853 0.211338539,8.81311391 1,10.001 C4.42518247,15.1561534 8.84484656,19.5758175 14,23.001 C15.1880865,23.7866949 16.7649205,23.628301 17.773,22.622 L18.937,21.458 C19.7177639,20.6770003 19.7177639,19.4109997 18.937,18.63 L16.816,16.509 C16.0350003,15.7282361 14.7689997,15.7282361 13.988,16.509 L13.281,17.217 C10.9107258,15.2660577 8.73521258,13.0898746 6.785,10.719 L7.492,10.012 Z M23.5,0.501 L13.5,10.501 L23.5,0.501 Z M17,0.5 L23.5,0.5 L23.5,7 L17,0.5 Z" ></path>
                    </g>
                </g>
            </g>
        </g>
    </g>
</svg>