<svg width="13px" height="27px" viewBox="0 0 13 27" version="1.1" xmlns="http://www.w3.org/2000/svg" xmlns:xlink="http://www.w3.org/1999/xlink">
    <title>Tåteflaske</title>
    <g stroke="none" stroke-width="1" fill="none" fill-rule="evenodd">
        <g transform="translate(-58.000000, -105.000000)" fill-rule="nonzero">
            <g transform="translate(20.000000, 56.000000)">
                <g transform="translate(12.000000, 15.000000)">
                    <g>
                        <g transform="translate(26.000000, 34.000000)">
                            <g>
                                <g transform="translate(0.410320, 0.372037)">
                                    <path d="M3.45679044,6.17302191 L8.92181248,6.17302191 C9.80546808,6.17302191 10.5218125,6.88936631 10.5218125,7.77302191 L10.5218125,8.41775715 L1.85679044,8.41775715 L1.85679044,7.77302191 C1.85679044,6.88936631 2.57313484,6.17302191 3.45679044,6.17302191 Z" fill="#634689"></path>
                                    <path d="M2.65255777,8.41775715 L9.72604515,8.41775715 L9.72604515,9.45879378 C9.72604515,10.4139246 10.6102311,11.8011262 11.494417,13.102422 C12.3786029,14.4037178 12.3786029,15.3476655 12.3786029,17.2665685 L12.3786029,25.3346024 C12.3786029,25.9095511 11.5868759,26.3756391 10.6102311,26.3756391 L1.76837185,26.3756391 C0.791727043,26.3756391 0,25.9095511 0,25.3346024 L0,17.2665685 C0,15.3476655 0,14.4037178 0.884185923,13.102422 C1.76837185,11.8011262 2.65255777,10.4139246 2.65255777,9.45879378 L2.65255777,8.41775715 Z" fill="#D8D8D8"></path>
                                    <path d="M6.18930146,0 C7.32560398,0 7.92230587,0.959882656 7.92230587,1.66838423 C7.92230587,2.30787028 7.63067269,2.85759053 7.04740634,3.31754497 C8.12581681,4.26477858 8.66502204,5.09416482 8.66502204,5.8057037 L8.66502204,6.17302191 L3.71358088,6.17302191 L3.71358088,5.8057037 C3.71358088,5.09416482 4.23952268,4.26477858 5.29140629,3.31754497 C4.7346668,2.85759053 4.45629705,2.30787028 4.45629705,1.66838423 C4.45629705,0.959882656 5.05299894,0 6.18930146,0 Z" fill="#F5E3E0"></path>
                                </g>
                                <path d="M2.16625551,14.808521 L4.64197609,14.808521" stroke="#979797" stroke-width="0.8" stroke-linecap="square"></path>
                                <path d="M2.16625551,18.1756238 L4.64197609,18.1756238" stroke="#979797" stroke-width="0.8" stroke-linecap="square"></path>
                                <path d="M2.16625551,21.5427267 L4.64197609,21.5427267" stroke="#979797" stroke-width="0.8" stroke-linecap="square"></path>
                                <path d="M2.16625551,24.9098296 L4.64197609,24.9098296" stroke="#979797" stroke-width="0.8" stroke-linecap="square"></path>
                            </g>
                            <polygon fill="#FFFFFF" points="9.86206897 15.2419355 11.2068966 15.2419355 11.2068966 25.2580645 9.86206897 25.2580645"></polygon>
                        </g>
                    </g>
                </g>
            </g>
        </g>
    </g>
</svg>