<svg xmlns="http://www.w3.org/2000/svg" width="29" height="33" viewBox="0 0 29 33">
    <g fill="none" fill-rule="evenodd" stroke="#050505" stroke-linecap="round" stroke-linejoin="round">
        <path d="M12.241 1h2.621m-1.31 0v4.05m10.482 0L26 7.075m-.983-1.013l-2.534 2.611M7 11.8l1.966 2.025M13.552 28v-2.7M7 25.3l1.966-2.025m13.758-4.725h-2.62m0 6.75l-1.966-2.025M20.103 11.8l-1.965 2.025M14.5 5v13.5H1C1 25.925 7.044 32 14.5 32 21.955 32 28 25.956 28 18.5 28 11.045 21.955 5 14.5 5z"/>
    </g>
</svg>
