<?xml version="1.0" encoding="UTF-8"?>
<svg width="26px" height="24px" viewBox="0 0 26 24" version="1.1" xmlns="http://www.w3.org/2000/svg" xmlns:xlink="http://www.w3.org/1999/xlink">
    <!-- Generator: Sketch 52.4 (67378) - http://www.bohemiancoding.com/sketch -->
    <title>Icons/check/outline/dark Copy 3</title>
    <desc>Created with Sketch.</desc>
    <g id="Veiviser" stroke="none" stroke-width="1" fill="none" fill-rule="evenodd">
        <g id="Veiviser---Ikke-rett-til-foreldrepenger" transform="translate(-334.000000, -1460.000000)">
            <g id="Group-23" transform="translate(272.000000, 1296.000000)">
                <g id="Group-9-Copy" transform="translate(59.000000, 35.000000)">
                    <g id="Group-21">
                        <g id="Group-18" transform="translate(3.153465, 53.000000)">
                            <g id="icon/-feedback/-report-problem-circle" transform="translate(0.000000, 76.000000)">
                                <path d="M12.7133371,-0.00417391304 L12.4905058,-0.00208690833 C9.14260242,0.054262219 5.9914427,1.35342265 3.61856181,3.65643236 C1.22828923,5.9761381 -0.0554360701,9.01272996 0.00217395595,12.2079342 C0.121741934,18.8206086 5.51860569,24.0005543 12.2883272,24.0005543 L12.5089845,23.9984673 C19.515668,23.8826386 25.1190583,18.4042512 24.9984034,11.7894897 C24.8788354,5.17681529 19.4819716,-0.00417391304 12.7133371,-0.00417391304 Z" id="Shape" fill="#FFB249" fill-rule="nonzero"></path>
                                <path d="M11.9565217,6.25669565 C11.9565217,5.96869565 12.2,5.73495652 12.5,5.73495652 C12.798913,5.73495652 13.0434783,5.96869565 13.0434783,6.25669565 L13.0434783,13.5610435 C13.0434783,13.8490435 12.798913,14.0827826 12.5,14.0827826 C12.2,14.0827826 11.9565217,13.8490435 11.9565217,13.5610435 L11.9565217,6.25669565 Z" id="Path" fill="#3E3832" fill-rule="evenodd"></path>
                                <path d="M12.5195652,18.2566957 C12.5130435,18.2566957 12.5065217,18.2566957 12.5,18.2566957 C11.9076087,18.2566957 11.4228261,17.8017391 11.4130435,17.232 C11.4021739,16.656 11.8804348,16.1801739 12.4804348,16.1707826 C12.4869565,16.1707826 12.4934783,16.1697391 12.5,16.1697391 C13.0923913,16.1697391 13.576087,16.6257391 13.5869565,17.1954783 C13.5978261,17.7714783 13.1184783,18.2462609 12.5195652,18.2566957 Z" id="Path" fill="#3E3832" fill-rule="evenodd"></path>
                            </g>
                        </g>
                    </g>
                </g>
            </g>
        </g>
    </g>
</svg>