<?xml version="1.0" encoding="UTF-8"?>
<svg width="738px" height="186px" viewBox="0 0 738 186" version="1.1" xmlns="http://www.w3.org/2000/svg" xmlns:xlink="http://www.w3.org/1999/xlink">
    <!-- Generator: Sketch 52.4 (67378) - http://www.bohemiancoding.com/sketch -->
    <title>Group 22</title>
    <desc>Created with Sketch.</desc>
    <defs>
        <path d="M29.231997,9.05240445 L29.231997,21.1679978 L0,21.1679978 L0,9.05240445 C0,5.5863576 4.77518089,1.62945066 7.97236281,0 C7.97236281,0 21.2596342,0 21.2596342,0 C24.4858665,1.65806788 29.231997,5.62631015 29.231997,9.05240445 Z" id="path-1"></path>
    </defs>
    <g id="Veiviser" stroke="none" stroke-width="1" fill="none" fill-rule="evenodd">
        <g id="Veiviser---Rett-til-foreldrepenger-2" transform="translate(-272.000000, -1271.000000)">
            <g id="Group-23" transform="translate(272.000000, 1270.000000)">
                <g id="Group-22">
                    <rect id="Rectangle" fill="#C1B5D0" fill-rule="nonzero" x="0" y="1" width="738" height="182"></rect>
                    <rect id="Rectangle-Copy" fill="#826BA1" fill-rule="nonzero" x="0" y="183" width="738" height="4"></rect>
                    <g id="Group-20" transform="translate(56.740741, 0.000000)">
                        <g id="Illustrations/item/cloud" transform="translate(597.879287, 15.000000)" fill="#D4CDDE">
                            <path d="M0,19.1092368 C0,13.0785282 5.12236596,8.18967292 11.4411246,8.18967292 C12.4629941,8.18967292 13.4535738,8.31753286 14.396259,8.55740472 C16.9258437,3.49679425 22.3364627,0 28.6028115,0 C36.8090989,0 43.5478092,5.9970049 44.2702471,13.6496787 C49.0734268,13.6494549 52.9152012,17.3160963 52.9152012,21.8391278 C52.9152012,25.8971056 49.8228273,29.2657463 45.7644984,29.9155669 L45.7644984,30.0288007 L10.010984,30.0288007 C4.36720371,29.272632 0,24.6776925 0,19.1092368 Z" id="Item"></path>
                        </g>
                        <g id="Illustrations/item/cloud" transform="translate(354.104252, 42.000000)" fill="#D4CDDE">
                            <path d="M0,19.1092368 C0,13.0785282 5.12236596,8.18967292 11.4411246,8.18967292 C12.4629941,8.18967292 13.4535738,8.31753286 14.396259,8.55740472 C16.9258437,3.49679425 22.3364627,0 28.6028115,0 C36.8090989,0 43.5478092,5.9970049 44.2702471,13.6496787 C49.0734268,13.6494549 52.9152012,17.3160963 52.9152012,21.8391278 C52.9152012,25.8971056 49.8228273,29.2657463 45.7644984,29.9155669 L45.7644984,30.0288007 L10.010984,30.0288007 C4.36720371,29.272632 0,24.6776925 0,19.1092368 Z" id="Item"></path>
                        </g>
                        <g id="Illustrations/item/cloud" transform="translate(466.534979, 15.000000)" fill="#D4CDDE">
                            <path d="M0,19.1092368 C0,13.0785282 5.12236596,8.18967292 11.4411246,8.18967292 C12.4629941,8.18967292 13.4535738,8.31753286 14.396259,8.55740472 C16.9258437,3.49679425 22.3364627,0 28.6028115,0 C36.8090989,0 43.5478092,5.9970049 44.2702471,13.6496787 C49.0734268,13.6494549 52.9152012,17.3160963 52.9152012,21.8391278 C52.9152012,25.8971056 49.8228273,29.2657463 45.7644984,29.9155669 L45.7644984,30.0288007 L10.010984,30.0288007 C4.36720371,29.272632 0,24.6776925 0,19.1092368 Z" id="Item"></path>
                        </g>
                        <g id="mennesker/BARN/-spedbarn-0-1-år/-adopsjon" transform="translate(440.266118, 68.000000)">
                            <g id="Group-4" stroke-width="1" fill-rule="evenodd" transform="translate(20.697375, -1.512000)">
                                <path d="M79.8691714,68.2918199 C85.9373458,67.4838284 92.9172902,68.5993453 100.302665,71.9399806 C113.659572,77.9817257 126.519183,92.0695847 138.881499,114.203558 L138.881435,114.20359 C139.293441,114.94126 138.997755,115.85645 138.221003,116.247726 C137.99123,116.36347 137.735097,116.423988 137.475002,116.423988 L82.9648886,116.423987 C69.5105031,116.423987 58.6035686,106.065829 58.6035686,93.2883935 C58.6035686,92.0674728 58.7053351,90.8484676 58.9079145,89.6427999 C59.6408621,85.2806025 61.1330101,81.4926051 63.2484386,78.3597708 C61.8842027,72.1334112 61.7845277,65.3869401 62.9494138,58.1203576 C64.4703712,48.632595 67.5311805,40.0315055 72.1318417,32.3170894 C63.7813924,31.3312539 57.3158087,24.5000709 57.3158087,16.2196347 C57.3158087,7.2617778 64.8825614,0 74.216624,0 C83.5506866,0 91.1174394,7.2617778 91.1174394,16.2196347 C91.1174394,21.0615551 88.9067049,25.4079418 85.4010911,28.3798528 C82.4993322,33.5484428 80.2578223,39.8575812 78.6765614,47.3072678 C76.9119593,55.6207179 77.5592375,62.0403466 79.8691714,68.2918199 Z" id="Path" fill="#E7E9E9" fill-rule="nonzero"></path>
                                <path d="M1.23412281,17.8993049 C0.593653154,17.8275557 0.0889822908,17.3658431 0.0105574348,16.779891 C-0.0837341695,16.0753903 0.464074709,15.4343478 1.23412281,15.3480824 L57.0871511,9.09109276 C58.0732095,8.98062861 59.0497231,9.35480371 59.6554239,10.0751894 L64.9850301,16.4139159 C65.3997781,16.9071932 65.3686016,17.6014664 64.9110245,18.0619567 L59.6557894,23.3506499 C59.0426171,23.967726 58.1403161,24.2742764 57.2355278,24.1729166 L1.23412281,17.8993049 Z" id="Triangle" fill="#FFBD66" fill-rule="nonzero"></path>
                            </g>
                            <path d="M38.2105391,86.1839911 C53.1585669,86.1839911 65.2763376,74.1755686 65.2763376,59.3624287 C65.2763376,49.4870021 56.2544048,34.2355254 38.2105391,13.6079986 C20.1666734,34.2355254 11.1447406,49.4870021 11.1447406,59.3624287 C11.1447406,74.1755686 23.2625113,86.1839911 38.2105391,86.1839911 Z" id="Oval-Copy-2" fill="#78706A" fill-rule="nonzero"></path>
                            <g id="mennesker/BARN/-spedbarn-0-1-år/-kropp" transform="translate(17.513164, 31.751997)">
                                <g id="mennesker/⚙️/kropp/-barn/-blank-" transform="translate(6.358153, 34.775996)" fill-rule="evenodd" stroke-width="1">
                                    <g id="Group">
                                        <g id="+20/-Blå">
                                            <mask id="mask-2" fill="white">
                                                <use xlink:href="#path-1"></use>
                                            </mask>
                                            <use id="Combined-Shape" fill="#D8A25D" xlink:href="#path-1"></use>
                                            <g id="⚙️/farge/-Lys-blå/+20" mask="url(#mask-2)" fill="#5EAEC7">
                                                <g transform="translate(-54.651125, -65.855993)" id="Fill-70">
                                                    <polygon points="0 141.18674 152.609073 141.18674 152.609073 0 0 0"></polygon>
                                                </g>
                                            </g>
                                        </g>
                                    </g>
                                </g>
                                <path d="M1.62866168,16.9724606 C2.26343275,7.49778052 10.5432125,0 20.6639979,0 C30.7847832,0 39.064563,7.49778052 39.6993341,16.9724606 C40.6671557,17.4767201 41.3279957,18.4891853 41.3279957,19.655998 L41.3279957,22.6799977 C41.3279957,24.3501066 39.974105,25.7039973 38.303996,25.7039973 L38.0089055,25.7039973 C35.8651035,30.1470888 31.8900054,33.6245825 27.0029055,35.2620277 C26.755371,38.3749804 24.1507605,40.8239958 20.9741517,40.8239958 L20.3538441,40.8239958 C17.1772353,40.8239958 14.5726247,38.3749804 14.3250903,35.2620277 C9.4379903,33.6245825 5.46289222,30.1470888 3.3190902,25.7039973 L3.02399969,25.7039973 C1.35389078,25.7039973 6.48618563e-16,24.3501066 4.4408921e-16,22.6799977 L4.4408921e-16,19.655998 C3.01195869e-16,18.4891853 0.660839997,17.4767201 1.62866168,16.9724606 Z" id="Combined-Shape" fill="#E7E5E2" fill-rule="evenodd"></path>
                                <g id="Group" stroke-width="1" fill-rule="evenodd" transform="translate(14.305845, 0.000000)" fill="#78706A">
                                    <path d="M4.28765465,1.76406272 C4.58942815,1.61800342 4.96416963,1.75171154 5.12466318,2.06270817 C5.28515674,2.37370481 5.17062671,2.74422185 4.86885321,2.89028116 C4.49289107,3.07224799 4.4382209,3.27186337 4.46346983,4.2900376 C4.48973788,5.34930815 3.94275205,6.0939749 2.92080619,6.41377967 C2.59936209,6.51437145 2.24459305,6.3295891 2.12840736,6.00105672 C2.01222166,5.67252435 2.17861648,5.32465049 2.50006058,5.22405871 C3.02960252,5.05834539 3.2388499,4.77347592 3.22609656,4.25919212 C3.1899173,2.80024759 3.34932198,2.21821864 4.28765465,1.76406272 Z" id="Path-5" fill-rule="nonzero" transform="translate(3.644321, 4.073054) rotate(-48.000000) translate(-3.644321, -4.073054) "></path>
                                    <path d="M7.00718124,1.78204952 C7.31496844,1.6372222 7.69558372,1.76705398 7.85730925,2.07203691 C8.01903479,2.37701984 7.90062842,2.74166309 7.59284122,2.88649041 C7.20938695,3.06692239 7.15275133,3.26334358 7.17329066,4.26394134 C7.19465902,5.30492599 6.63434499,6.03912512 5.59291834,6.35775738 C5.26534673,6.45798036 4.90531139,6.27786636 4.7887569,5.9554615 C4.6722024,5.63305664 4.84326557,5.29044908 5.17083718,5.1902261 C5.71047349,5.02512034 5.92481952,4.74425522 5.91444502,4.23884937 C5.88501416,2.8050902 6.0501496,2.2323747 7.00718124,1.78204952 Z" id="Path-5-Copy" fill-rule="nonzero" transform="translate(6.340923, 4.054141) rotate(-27.000000) translate(-6.340923, -4.054141) "></path>
                                    <path d="M9.73917073,1.7754238 C10.0516564,1.62815869 10.4341043,1.75220538 10.5933921,2.05248983 C10.7526798,2.35277428 10.6284884,2.71558489 10.3160027,2.86285 C9.92669485,3.04631908 9.86700879,3.24166633 9.87485412,4.23304135 C9.8830161,5.26443101 9.3080902,5.99884817 8.25297272,6.32726608 C7.92109478,6.43056705 7.56006367,6.25643922 7.44658716,5.9383407 C7.33311066,5.62024217 7.51016,5.27863038 7.84203794,5.17532941 C8.38876844,5.00515301 8.60870418,4.72420448 8.60474148,4.22345707 C8.59349989,2.80291319 8.76752966,2.23332904 9.73917073,1.7754238 Z" id="Path-5-Copy-2" fill-rule="nonzero" transform="translate(9.037527, 4.035231) rotate(-9.000000) translate(-9.037527, -4.035231) "></path>
                                </g>
                                <g id="mennesker/BARN/-ansikt-barn/-smil-2" transform="translate(7.947691, 13.607999)">
                                    <path d="M7.55999922,12.8795573 C7.55999922,15.0139151 5.86800749,16.7439983 3.78084943,16.7439983 C1.69284155,16.7439983 0,15.0139151 0,12.8795573 C0,10.7460823 1.69284155,9.01599907 3.78084943,9.01599907 C5.86800749,9.01599907 7.55999922,10.7460823 7.55999922,12.8795573" id="Fill-35-Copy-2" fill="#E8CCC8" fill-rule="evenodd"></path>
                                    <path d="M11.3179069,18.6215927 C10.492098,18.6150146 9.78529223,18.0736135 9.51898191,17.3236182 L9.39085633,14.7553079 L13.1836803,14.7855202 L13.095891,17.3521106 C12.8414427,18.0979577 12.1433798,18.6281681 11.3179069,18.6215927 Z" id="Combined-Shape" fill="#FA96A0" fill-rule="evenodd" transform="translate(11.287268, 16.688481) rotate(23.000000) translate(-11.287268, -16.688481) "></path>
                                    <path d="M25.1999974,12.8795573 C25.1999974,15.0139151 23.5080057,16.7439983 21.4208476,16.7439983 C19.3328397,16.7439983 17.6399982,15.0139151 17.6399982,12.8795573 C17.6399982,10.7460823 19.3328397,9.01599907 21.4208476,9.01599907 C23.5080057,9.01599907 25.1999974,10.7460823 25.1999974,12.8795573" id="Fill-35-Copy-3" fill="#E8CCC8" fill-rule="evenodd"></path>
                                    <path d="M13.6381568,7.12738775 C13.2976548,7.20053356 12.9636161,6.97766455 12.8920604,6.62959589 C12.8205048,6.28152722 13.0385288,5.94006543 13.3790308,5.86691962 C14.2261976,5.68493328 14.9344561,5.82495068 15.3243837,6.49354018 C16.0819103,7.79427727 15.8179855,9.29321268 14.6235021,10.3314872 C13.9292055,10.9347613 12.9547107,11.1512725 12.2739423,10.7303529 C11.976227,10.5462752 11.8808614,10.1503416 12.0609373,9.84601029 C12.2410133,9.54167901 12.6283397,9.44419418 12.9260551,9.62827182 C13.0750788,9.72041331 13.4864867,9.62900757 13.8073707,9.35019154 C14.5388509,8.71437085 14.6810485,7.90677316 14.241917,7.15274701 C14.2005994,7.08190175 14.0179698,7.04579724 13.6381568,7.12738775 Z" id="Stroke-99-Copy" fill="#D1BFA3" fill-rule="nonzero"></path>
                                    <path d="M17.0288085,2.73219266 C16.9444208,2.38714078 17.14965,2.037491 17.4872008,1.95122803 C17.8247515,1.86496506 18.1668002,2.07475492 18.2511879,2.41980681 C18.6073142,3.87596771 19.2256062,4.50799954 20.1599979,4.50799954 C21.0943896,4.50799954 21.7126816,3.87596771 22.0688079,2.41980681 C22.1531956,2.07475492 22.4952443,1.86496506 22.8327951,1.95122803 C23.1703458,2.037491 23.3755751,2.38714078 23.2911874,2.73219266 C22.8073138,4.71069808 21.7456059,5.7959994 20.1599979,5.7959994 C18.5743899,5.7959994 17.5126821,4.71069808 17.0288085,2.73219266 Z" id="Path-4-Copy-4" fill="#635E59" fill-rule="nonzero" transform="translate(20.159998, 3.863923) scale(1, -1) translate(-20.159998, -3.863923) "></path>
                                    <path d="M5.67878923,6.43566776 C3.9422295,6.55192441 3.45618479,4.30184316 3.97943292,2.8346548 C4.07784197,2.5550502 4.65269485,1.28799987 5.67038846,1.28799987 C6.68688195,1.28799987 7.13572324,1.98112496 7.19812898,2.10032482 C7.94579775,3.5321947 7.57976408,6.31058149 5.67878923,6.43566776" id="Fill-95-Copy-3" fill="#635E59" fill-rule="evenodd"></path>
                                    <path d="M9.51650989,14.4560041 C9.36090668,14.1378819 9.487048,13.7510485 9.79825442,13.5919875 C10.1094608,13.4329264 10.4878848,13.5618709 10.643488,13.879993 C10.9456583,14.4977633 11.5604662,14.8119985 12.5999987,14.8119985 C13.6395312,14.8119985 14.2543391,14.4977633 14.5565094,13.879993 C14.7121126,13.5618709 15.0905366,13.4329264 15.401743,13.5919875 C15.7129494,13.7510485 15.8390907,14.1378819 15.6834875,14.4560041 C15.1456579,15.5555669 14.0804659,16.0999983 12.5999987,16.0999983 C11.1195315,16.0999983 10.0543395,15.5555669 9.51650989,14.4560041 Z" id="Path-4-Copy-2" fill="#593A32" fill-rule="nonzero" transform="translate(12.599999, 14.811928) scale(1, -1) rotate(-180.000000) translate(-12.599999, -14.811928) "></path>
                                </g>
                            </g>
                            <rect id="Rectangle" fill="#C6C2BF" fill-rule="nonzero" x="33.4342217" y="6.04799938" width="9.55263478" height="18.1439981" rx="4.53599953"></rect>
                            <path d="M37.3717,9.18821172 C32.9030957,4.5460193 28.7658852,2.25587675 24.9600685,2.31778405 C21.1542517,2.37969136 16.8701605,3.62809875 12.1077946,6.06300624 C16.1701376,9.09910975 20.0227021,10.8424722 23.6654882,11.2930935 C27.3082743,11.7437149 31.8770116,11.0420876 37.3717,9.18821172 Z" id="Path-24" fill="#C6C2BF" fill-rule="nonzero" transform="translate(24.739747, 6.870914) rotate(20.000000) translate(-24.739747, -6.870914) "></path>
                            <path d="M64.4521197,9.18821172 C59.9835154,4.5460193 55.8463049,2.25587675 52.0404882,2.31778405 C48.2346714,2.37969136 43.9505802,3.62809875 39.1882143,6.06300624 C43.2505573,9.09910975 47.1031218,10.8424722 50.7459079,11.2930935 C54.388694,11.7437149 58.9574312,11.0420876 64.4521197,9.18821172 Z" id="Path-24-Copy" fill="#C6C2BF" fill-rule="nonzero" transform="translate(51.820167, 6.870914) scale(-1, 1) rotate(20.000000) translate(-51.820167, -6.870914) "></path>
                            <g id="Group" stroke-width="1" fill-rule="evenodd" transform="translate(46.171068, 63.503993)" fill="#E7E5E2">
                                <path d="M10.669566,3.77951813 L10.669566,7.36671746 L10.6670773,7.35020941 L10.3485236,7.35020941 L10.3485236,1.95702937 C10.3485236,1.38915244 9.88562536,0.928577832 9.31488341,0.928577832 C8.74414147,0.928577832 8.28041364,1.38915244 8.28041364,1.95702937 L8.28041364,7.35020941 L7.88802856,7.35020941 L7.88802856,1.02845154 C7.88802856,0.461400007 7.4251303,0 6.85438835,0 C6.28364641,0 5.82074815,0.461400007 5.82074815,1.02845154 L5.82074815,7.35020941 L5.42836306,7.35020941 L5.42836306,2.24344404 C5.42836306,1.67556711 4.9654648,1.2141671 4.39389329,1.2141671 C3.82315135,1.2141671 3.36025309,1.67556711 3.36025309,2.24344404 L3.36025309,9.87511571 C3.17857797,9.84044881 2.94464013,9.75625775 2.80444335,9.5424785 C2.55142548,9.15371391 2.65761003,9.25523842 2.26771364,8.27961265 C1.87781726,7.30316147 1.51529658,6.61642658 0.643421896,6.83350744 C-0.352887803,7.08112819 0.0104624451,8.66590103 0.390404029,10.7120739 C0.643421896,12.0731626 1.49953481,13.4235211 2.14244906,14.4313376 C2.78453375,15.4375033 4.01063344,16.9075452 4.4386899,16.9075452 L4.53574921,27.2159972 L11.3290715,27.2159972 L11.3290715,17.4325012 C11.3290715,16.8439892 11.8989839,16.6376385 11.8989839,16.6376385 C12.3759848,16.4733834 12.7368464,15.7222671 12.7368464,14.7012442 L12.7368464,3.77951813 C12.7368464,3.21164119 12.2739481,2.75106659 11.7023766,2.75106659 C11.1324642,2.75106659 10.669566,3.21164119 10.669566,3.77951813 Z" id="Fill-1"></path>
                            </g>
                            <path d="M38.2105391,114.911988 C17.1074411,114.911988 0,97.9000562 0,76.9147747 C0,62.924587 12.7368464,41.3183283 38.2105391,12.0959988 C63.6842318,41.3183283 76.4210782,62.924587 76.4210782,76.9147747 C76.4210782,97.9000562 59.3136371,114.911988 38.2105391,114.911988 Z M38.2105391,83.1599914 C52.2792711,83.1599914 63.6842318,71.9020953 63.6842318,58.0147766 C63.6842318,48.7565642 55.1930009,34.4583048 38.2105391,15.1199984 C21.2280773,34.4583048 12.7368464,48.7565642 12.7368464,58.0147766 C12.7368464,71.9020953 24.1418071,83.1599914 38.2105391,83.1599914 Z" id="Shape" fill="#C6C2BF" fill-rule="nonzero"></path>
                        </g>
                        <g id="gjenstander/familie/ball" transform="translate(617.366255, 128.000000)">
                            <g id="Group">
                                <ellipse id="Oval" fill="#E7E9E9" fill-rule="nonzero" cx="28.6195901" cy="27.1132959" rx="28.6195901" ry="27.1132959"></ellipse>
                                <path d="M14.1117629,3.73680882 C18.3657673,1.36218062 23.3247639,-1.42108547e-14 28.6195901,-1.42108547e-14 C37.4111108,-1.42108547e-14 45.2767754,3.75542667 50.5267084,9.66534551 C43.8749999,8.0913137 37.0066007,9.21243035 29.9215109,13.0286955 C22.185423,17.1956098 17.5672201,21.8904766 16.0669019,27.1132959 C12.8316958,21.4646926 11.8103342,15.2512289 13.0028171,8.47290497 C13.298934,6.7897139 13.6685826,5.21101518 14.1117629,3.73680882 Z" id="Combined-Shape" fill="#66CBEC" fill-rule="nonzero"></path>
                                <path d="M7.80543862,45.7226673 C7.27806397,43.998646 7.07133473,42.2632666 7.18525091,40.516529 C7.54696315,34.9702023 9.94166382,30.5024579 14.3693529,27.1132959 C16.587753,35.0213405 21.528806,40.6699439 29.1925119,44.0591058 C36.1935299,47.1552038 43.2144702,47.4229263 50.2553329,44.8622733 C45.0077274,50.5983956 37.2609033,54.2265918 28.6195901,54.2265918 C20.4186796,54.2265918 13.0234066,50.9587921 7.80543862,45.7226673 Z" id="Combined-Shape" fill="#FA96A0" fill-rule="nonzero"></path>
                                <ellipse id="Oval-Copy" fill="#FFFFFF" fill-rule="nonzero" cx="14.3097951" cy="27.1132959" rx="7.15489753" ry="6.77832398"></ellipse>
                            </g>
                        </g>
                        <g id="gjenstander/familie/byggeklosser" transform="translate(170.222222, 117.000000)" fill-rule="nonzero">
                            <polygon id="Triangle" fill="#BA3A26" points="24.1919979 0 38.0159967 12.9599989 10.3679991 12.9599989"></polygon>
                            <path d="M31.1039973,25.9199978 C31.1039973,22.3411929 28.0093898,19.4399983 24.1919979,19.4399983 C20.3746061,19.4399983 17.2799985,22.3411929 17.2799985,25.9199978 L13.8239988,25.9199978 L13.8239988,12.9599989 L34.559997,12.9599989 L34.559997,25.9199978 L31.1039973,25.9199978 Z" id="Combined-Shape" fill="#66CBEC"></path>
                            <rect id="Rectangle" fill="#FF9100" x="8.63999926" y="25.9199978" width="31.1039973" height="6.47999944"></rect>
                            <rect id="Rectangle-Copy-2" fill="#005B82" x="3.4559997" y="45.3599961" width="41.4719964" height="6.47999944"></rect>
                            <rect id="Rectangle" fill="#91C823" x="8.63999926" y="32.3999972" width="6.9119994" height="12.9599989"></rect>
                            <rect id="Rectangle-Copy-3" fill="#FA96A0" x="3.4559997" y="51.8399955" width="6.9119994" height="12.9599989"></rect>
                            <rect id="Rectangle-Copy-4" fill="#3E3832" x="20.7359982" y="51.8399955" width="6.9119994" height="12.9599989"></rect>
                            <rect id="Rectangle-Copy-5" fill="#A2AD00" x="36.2879969" y="51.8399955" width="6.9119994" height="12.9599989"></rect>
                            <rect id="Rectangle-Copy" fill="#634689" x="32.8319972" y="32.3999972" width="6.9119994" height="12.9599989"></rect>
                        </g>
                        <g id="gjenstander/familie/hest" transform="translate(61.994513, 126.500000) scale(-1, 1) translate(-61.994513, -126.500000) translate(0.000000, 69.000000)">
                            <g id="Group" transform="translate(0.000000, 1.400000)">
                                <path d="M32.3661011,10.1258569 L34.7763519,8.51984291 C38.769786,5.85891179 44.2738985,6.78247451 47.0701312,10.582678 L62.2592127,31.2253091 L59.848962,32.8313231 C55.8555278,35.4922542 50.3514153,34.5686915 47.5551827,30.7684881 L32.3661011,10.1258569 Z" id="Rectangle-Copy-3" fill="#59514B" fill-rule="nonzero"></path>
                                <path d="M4.55903811,25.5409727 L28.7436363,8.13396981 C31.335754,6.26827821 35.0264264,6.75548589 36.9869836,9.22217861 C37.0923735,9.35477582 37.191506,9.49177341 37.2840866,9.63276424 L46.0577319,22.9941398 C47.7799988,25.6169783 46.9418278,29.0718255 44.1856246,30.7107569 C44.0374648,30.7988577 43.8852556,30.8806363 43.7294494,30.9558495 L16.6867846,44.0103055 C11.3813772,46.5714143 4.8990214,44.85476 1.74653039,40.0538347 C-1.40596062,35.2529093 -0.185655029,28.9559927 4.55903811,25.5409727 Z" id="Rectangle" fill="#D8A25D" fill-rule="nonzero"></path>
                                <path d="M97.0983034,43.1267885 L99.6464731,41.7267885 C103.868419,39.4071926 109.267,40.7837439 111.704541,44.8014018 L122.002846,61.7754995 L119.454676,63.1754994 C115.232731,65.4950953 109.83415,64.1185441 107.396608,60.1008861 L97.0983034,43.1267885 Z" id="Rectangle" fill="#59514B" fill-rule="nonzero"></path>
                                <path d="M44.4283946,20.0470272 L58.1657851,38.6460726 C61.9035838,43.7066761 60.6226405,50.6925734 55.3047181,54.2495109 C55.0188529,54.4407142 54.7241818,54.6197086 54.4215805,54.7859619 L51.2264566,56.5414077 C45.5971957,59.6342022 38.3990877,57.7988005 35.1490324,52.4419232 C34.9743255,52.153964 34.8131807,51.8587439 34.666077,51.5571404 L24.608514,30.9363464 C22.1039748,25.8013463 24.1330486,19.6963211 29.2850359,16.8657474 C34.4370232,14.0351736 41.007503,15.415484 44.4283946,20.0470272 Z" id="Rectangle-Copy" fill="#D8A25D" fill-rule="nonzero"></path>
                                <path d="M52.962711,39.1999993 L88.2711849,39.1999993 C98.0213508,39.1999993 105.925422,46.7216154 105.925422,55.999999 C105.925422,65.2783827 98.0213508,72.7999988 88.2711849,72.7999988 L52.962711,72.7999988 C43.2125451,72.7999988 35.308474,65.2783827 35.308474,55.999999 C35.308474,46.7216154 43.2125451,39.1999993 52.962711,39.1999993 Z" id="Rectangle" fill="#D8A25D" fill-rule="nonzero"></path>
                                <polygon id="Rectangle" fill="#D8A25D" fill-rule="nonzero" transform="translate(43.347186, 78.299483) rotate(30.000000) translate(-43.347186, -78.299483) " points="37.7802239 67.080409 49.4073423 66.833812 48.9141482 89.5185573 37.2870298 89.7651544"></polygon>
                                <polygon id="Rectangle-Copy-2" fill="#D8A25D" fill-rule="nonzero" transform="translate(96.309897, 78.299483) rotate(-30.000000) translate(-96.309897, -78.299483) " points="90.2497407 66.833812 101.876859 67.080409 102.370053 89.7651544 90.7429348 89.5185573"></polygon>
                                <path d="M31.0266563,80.4396525 C39.8737371,90.4473701 53.9771594,96.9230314 69.8646761,96.9230314 C85.7922797,96.9230314 99.9267743,90.4146505 108.769558,80.3638397 C109.894107,79.0856642 113.517831,77.1949598 115.793288,79.4481895 C118.447198,82.0761758 121.445018,83.9023296 123.001629,85.1290979 C124.433398,86.2574778 122.903051,89.5590169 121.677779,90.8588692 C109.531089,103.744905 90.8350533,111.999998 69.8646761,111.999998 C49.455235,111.999998 31.2000901,104.180629 19.040284,91.882924 C17.8808666,90.7103583 16.742654,87.2547017 18.764578,85.2721429 C20.201449,83.8632465 22.4443591,81.98207 24.6068496,79.5436153 C26.2115215,77.7341646 29.8763993,79.1384949 31.0266563,80.4396525 Z" id="Path" fill="#A2AD00" fill-rule="nonzero"></path>
                                <ellipse id="Oval" fill="#59514B" fill-rule="nonzero" cx="20.5966098" cy="22.3999996" rx="2.94237283" ry="4.19999993"></ellipse>
                                <polygon id="Rectangle" fill="#59514B" fill-rule="nonzero" transform="translate(13.145713, 33.381912) rotate(-32.000000) translate(-13.145713, -33.381912) " points="9.98739284 21.9580089 15.7921778 22.0859728 16.3040334 44.8058152 10.4992484 44.6778513"></polygon>
                                <polygon id="Triangle" fill="#D8A25D" fill-rule="nonzero" points="32.3661011 0 38.2508468 11.1999998 26.4813555 11.1999998"></polygon>
                                <path d="M64.7322023,40.5999993 L76.5016936,40.5999993 C79.7517489,40.5999993 82.3864393,43.1072047 82.3864393,46.1999992 L82.3864393,57.399999 C82.3864393,60.4927936 79.7517489,62.9999989 76.5016936,62.9999989 L64.7322023,62.9999989 C61.482147,62.9999989 58.8474566,60.4927936 58.8474566,57.399999 L58.8474566,46.1999992 C58.8474566,43.1072047 61.482147,40.5999993 64.7322023,40.5999993 Z" id="Rectangle" fill="#59514B" fill-rule="nonzero"></path>
                                <path d="M59.5830498,36.3999994 L81.6508461,36.3999994 C83.6821306,36.3999994 85.3288121,37.9670027 85.3288121,39.8999993 L85.3288121,41.2999993 C85.3288121,43.2329959 83.6821306,44.7999992 81.6508461,44.7999992 L59.5830498,44.7999992 C57.5517653,44.7999992 55.9050838,43.2329959 55.9050838,41.2999993 L55.9050838,39.8999993 C55.9050838,37.9670027 57.5517653,36.3999994 59.5830498,36.3999994 Z" id="Rectangle" fill="#FF9100" fill-rule="nonzero"></path>
                            </g>
                        </g>
                        <g id="Illustrations/item/star" transform="translate(306.905775, 63.087512) scale(-1, -1) rotate(-20.000000) translate(-306.905775, -63.087512) translate(296.184518, 52.873803)" fill="#D4CDDE">
                            <polygon id="Item" points="7.13436597 12.9336329 0.550660957 11.1277718 6.32461148 7.1711608 6.41009953 0.556076767 11.8747514 4.38095195 18.5112909 2.09846628 16.1146809 8.41898013 20.1307999 13.6234104 13.1849617 13.7048276 9.03052013 19.2038281"></polygon>
                        </g>
                        <g id="Illustrations/item/star" transform="translate(661.822099, 15.087512) scale(-1, -1) rotate(-20.000000) translate(-661.822099, -15.087512) translate(651.100841, 4.873803)" fill="#D4CDDE">
                            <polygon id="Item" points="7.13436597 12.9336329 0.550660957 11.1277718 6.32461148 7.1711608 6.41009953 0.556076767 11.8747514 4.38095195 18.5112909 2.09846628 16.1146809 8.41898013 20.1307999 13.6234104 13.1849617 13.7048276 9.03052013 19.2038281"></polygon>
                        </g>
                        <g id="Illustrations/item/star" transform="translate(419.569711, 21.305084) scale(-1, -1) rotate(-140.000000) translate(-419.569711, -21.305084) translate(404.433818, 6.885730)" fill="#D4CDDE">
                            <polygon id="Item" points="10.1919516 18.753768 0.786658523 16.1352694 9.03515941 10.3981833 9.1572852 0.806311326 16.9639308 6.35238044 26.4447017 3.04277616 23.0209732 12.2075214 28.758286 19.7539455 18.8356598 19.8720004 12.9007433 27.8455513"></polygon>
                        </g>
                        <g id="Illustrations/item/star" transform="translate(565.624580, 50.305084) scale(-1, -1) rotate(-140.000000) translate(-565.624580, -50.305084) translate(550.488688, 35.885730)" fill="#D4CDDE">
                            <polygon id="Item" points="10.1919516 18.753768 0.786658523 16.1352694 9.03515941 10.3981833 9.1572852 0.806311326 16.9639308 6.35238044 26.4447017 3.04277616 23.0209732 12.2075214 28.758286 19.7539455 18.8356598 19.8720004 12.9007433 27.8455513"></polygon>
                        </g>
                    </g>
                </g>
            </g>
        </g>
    </g>
</svg>