<?xml version="1.0" encoding="UTF-8"?>
<svg width="40px" height="25px" viewBox="0 0 40 25" version="1.1" xmlns="http://www.w3.org/2000/svg" xmlns:xlink="http://www.w3.org/1999/xlink">
    <!-- Generator: Sketch 52.1 (67048) - http://www.bohemiancoding.com/sketch -->
    <title>NAV logo / sort</title>
    <desc>Created with Sketch.</desc>
    <defs>
        <polygon id="path-1" points="3.31955556 6.38482353 3.31955556 0.101147059 0.0834814815 0.101147059 0.0834814815 6.38482353 3.31955556 6.38482353"></polygon>
    </defs>
    <g id="Symbols" stroke="none" stroke-width="1" fill="none" fill-rule="evenodd">
        <g id="NAV-logo-/-sort">
            <g id="Page-1">
                <path d="M18.5643111,24.8444118 C11.6545333,24.8444118 6.05171852,19.2830882 6.05171852,12.4230882 C6.05171852,5.56235294 11.6545333,0 18.5643111,0 C25.4766074,0 31.0800148,5.56235294 31.0800148,12.4230882 C31.0800148,19.2830882 25.4766074,24.8444118 18.5643111,24.8444118 Z" id="Fill-1" fill="#3E3832"></path>
                <polygon id="Fill-3" fill="#3E3832" points="0 17.8468824 2.55777778 11.5632059 5.01540741 11.5632059 2.46088889 17.8468824"></polygon>
                <polygon id="Fill-5" fill="#3E3832" points="31.5620741 17.8468824 34.0871111 11.5632059 35.426963 11.5632059 32.9020741 17.8468824"></polygon>
                <g id="Group-9" transform="translate(36.444444, 11.462059)">
                    <mask id="mask-2" fill="white">
                        <use xlink:href="#path-1"></use>
                    </mask>
                    <g id="Clip-8"></g>
                    <polygon id="Fill-7" fill="#3E3832" mask="url(#mask-2)" points="0.0834814815 6.38482353 2.60807407 0.101147059 3.31962963 0.101147059 0.794740741 6.38482353"></polygon>
                </g>
                <path d="M29.2385778,11.5632059 L27.0139852,11.5632059 C27.0139852,11.5632059 26.8606519,11.5632059 26.8064296,11.6976176 L25.5753185,15.4386471 L24.3452444,11.6976176 C24.2910222,11.5632059 24.1368,11.5632059 24.1368,11.5632059 L19.8594667,11.5632059 C19.7668741,11.5632059 19.6892444,11.6399706 19.6892444,11.7312941 L19.6892444,13.0017353 C19.6892444,11.9939412 18.6089481,11.5632059 17.9763556,11.5632059 C16.559763,11.5632059 15.6114667,12.4893824 15.3162074,13.8974706 C15.3002074,12.9633529 15.2219852,12.6286471 14.9685037,12.2858529 C14.8520593,12.1179118 14.683763,11.9767353 14.5005037,11.8599706 C14.1231704,11.6405588 13.7843556,11.5632059 13.0562074,11.5632059 L12.2012444,11.5632059 C12.2012444,11.5632059 12.0467259,11.5632059 11.9922074,11.6976176 L11.2142815,13.6112941 L11.2142815,11.7312941 C11.2142815,11.6399706 11.1372444,11.5632059 11.0448,11.5632059 L9.06642963,11.5632059 C9.06642963,11.5632059 8.91368889,11.5632059 8.85813333,11.6976176 L8.04939259,13.6874706 C8.04939259,13.6874706 7.96865185,13.8864412 8.15324444,13.8864412 L8.91368889,13.8864412 L8.91368889,17.6782059 C8.91368889,17.7723235 8.98835556,17.8468824 9.08361481,17.8468824 L11.0448,17.8468824 C11.1372444,17.8468824 11.2142815,17.7723235 11.2142815,17.6782059 L11.2142815,13.8864412 L11.9787259,13.8864412 C12.4173926,13.8864412 12.5102815,13.8983529 12.6809481,13.9773235 C12.783763,14.0158529 12.8763556,14.0937941 12.9268741,14.1836471 C13.0302815,14.3768824 13.0562074,14.6089412 13.0562074,15.2932059 L13.0562074,17.6782059 C13.0562074,17.7723235 13.1323556,17.8468824 13.2264296,17.8468824 L15.1061333,17.8468824 C15.1061333,17.8468824 15.3185778,17.8468824 15.4025778,17.6386471 L15.8191704,16.6165882 C16.3730963,17.3867353 17.2848,17.8468824 18.417837,17.8468824 L18.6653926,17.8468824 C18.6653926,17.8468824 18.8791704,17.8468824 18.963763,17.6386471 L19.6892444,15.8551176 L19.6892444,17.6782059 C19.6892444,17.7723235 19.7668741,17.8468824 19.8594667,17.8468824 L21.7782815,17.8468824 C21.7782815,17.8468824 21.9899852,17.8468824 22.0750222,17.6386471 C22.0750222,17.6386471 22.8424296,15.7473235 22.8453926,15.7330588 L22.8465778,15.7330588 C22.8760593,15.5757059 22.675763,15.5757059 22.675763,15.5757059 L21.9908741,15.5757059 L21.9908741,12.3304118 L24.1456889,17.6386471 C24.229837,17.8468824 24.4419852,17.8468824 24.4419852,17.8468824 L26.7088,17.8468824 C26.7088,17.8468824 26.9221333,17.8468824 27.0062815,17.6386471 L29.3951704,11.7667353 C29.477837,11.5632059 29.2385778,11.5632059 29.2385778,11.5632059 L29.2385778,11.5632059 Z M19.6892444,15.5757059 L18.4003556,15.5757059 C17.8873185,15.5757059 17.4699852,15.1633529 17.4699852,14.6535 C17.4699852,14.1445294 17.8873185,13.7295294 18.4003556,13.7295294 L18.7608,13.7295294 C19.2725037,13.7295294 19.6892444,14.1445294 19.6892444,14.6535 L19.6892444,15.5757059 Z" id="Fill-10" fill="#FEFEFE"></path>
            </g>
        </g>
    </g>
</svg>