<svg xmlns="http://www.w3.org/2000/svg" width="370" height="164" viewBox="0 0 370 164">
    <g fill="none" fill-rule="evenodd">
        <path fill="#EFEFEF" d="M25 105h102V1H25z"/>
        <path fill="#838688" d="M37 9.002a4 4 0 1 1-8-.003 4 4 0 0 1 8 .003M124 9.002A3.998 3.998 0 0 1 120 13a4 4 0 1 1 4-3.998"/>
        <path fill="#E9C264" d="M68.7 76.775c3.48.696-24.379-.49-28.224 0C36.634 77.27 38.41 52 38.41 52h28.224S65.213 76.088 68.7 76.775"/>
        <path fill="#DAB25B" d="M67.006 73H38.5c.37 2.347.991 3.912 2.015 3.795 3.854-.455 31.771.636 28.284 0-.874-.157-1.434-1.648-1.793-3.795"/>
        <path fill="#E9C264" d="M110.7 61.778c3.477.69-24.38-.493-28.223 0C78.632 62.272 80.41 37 80.41 37h28.222s-1.416 24.089 2.068 24.778"/>
        <path fill="#DAB25B" d="M109.48 58H80.6c.375 2.35 1.003 3.916 2.044 3.797 3.901-.455 32.18.632 28.652 0-.886-.162-1.457-1.647-1.817-3.797"/>
        <path fill="#E9C264" d="M76.7 37.779c3.483.688-24.378-.495-28.224 0C44.634 38.267 46.41 13 46.41 13h28.223S73.216 37.087 76.7 37.779"/>
        <path fill="#DAB25B" d="M75.01 34H46.5c.37 2.348.99 3.917 2.015 3.797 3.854-.456 31.775.632 28.284 0-.871-.159-1.435-1.651-1.79-3.797"/>
        <g>
            <path fill="#9BBDCD" d="M217.949 128.871H344.08V3.192H217.95z"/>
            <path stroke="#403A33" stroke-linecap="round" stroke-linejoin="round" stroke-width="4" d="M217.949 128.871H344.08V3.192H217.95z"/>
            <path fill="#FFF" d="M312.45 49.61c.036-4.425 3.666-7.98 8.106-7.944 4.44.038 8.008 3.653 7.972 8.077-.037 4.424-3.667 7.982-8.107 7.944-4.44-.037-8.008-3.654-7.972-8.078"/>
            <path fill="#FFF" d="M302.194 52.297c.028-3.258 2.699-5.876 5.969-5.85 3.27.028 5.897 2.691 5.87 5.95-.028 3.257-2.7 5.875-5.968 5.849-3.27-.028-5.9-2.691-5.871-5.95"/>
            <path fill="#FFF" d="M292.776 43.547c.036-4.397 3.643-7.932 8.056-7.894 4.414.037 7.96 3.63 7.923 8.028-.037 4.396-3.644 7.93-8.057 7.894-4.412-.036-7.959-3.632-7.922-8.028M317.366 40.185a3.197 3.197 0 0 1 3.229-3.163 3.197 3.197 0 0 1 3.175 3.216 3.197 3.197 0 0 1-3.228 3.164 3.197 3.197 0 0 1-3.176-3.217"/>
            <path fill="#FFF" d="M306.435 37.71c.028-3.226 2.674-5.82 5.912-5.791 3.237.026 5.84 2.662 5.811 5.889-.026 3.227-2.672 5.82-5.91 5.793-3.237-.028-5.84-2.664-5.813-5.89"/>
            <path fill="#FFF" d="M305.623 44.868c-.033 3.958 3.159 7.191 7.13 7.224 3.97.033 7.217-3.147 7.25-7.105.034-3.956-3.158-7.189-7.13-7.222-3.97-.033-7.217 3.146-7.25 7.103"/>
            <path fill="#635E59" d="M318.062 107.288L278.73 55.895l-34.758 60.757z"/>
            <path fill="#74706C" d="M342.42 83.227l-25.56-42.74-33.03 73.887 58.59-9.475z"/>
            <path fill="#EDEDEC" d="M217.95 106.242c52.841 10.851 56.327-6.365 126.13-6.365v28.995H217.95v-22.63z"/>
            <path fill="#FFF" d="M277.272 21.283a8.509 8.509 0 0 1-1.889 11.915c-3.824 2.77-9.177 1.928-11.957-1.882-2.782-3.81-1.935-9.145 1.889-11.915 3.824-2.77 9.177-1.928 11.957 1.882"/>
            <path fill="#FFF" d="M264.674 21.832c3.784 5.186 2.632 12.446-2.571 16.219-5.207 3.77-12.494 2.623-16.278-2.564-3.784-5.186-2.633-12.448 2.57-16.217 5.208-3.773 12.494-2.625 16.279 2.562"/>
            <path fill="#FFF" d="M267.509 12.772a5.654 5.654 0 0 1-1.255 7.915c-2.541 1.84-6.098 1.282-7.944-1.25a5.652 5.652 0 0 1 1.255-7.915 5.699 5.699 0 0 1 7.944 1.25"/>
            <path stroke="#403A33" stroke-linecap="round" stroke-linejoin="round" stroke-width="3" d="M217.95 66.032h63.066V3.192h-63.065z"/>
            <path stroke="#514C47" stroke-linecap="round" stroke-linejoin="round" stroke-width="3" d="M281.016 66.032h63.066V3.192h-63.066zM217.95 128.871h63.066V66.032h-63.065zM281.016 128.871h63.066V66.032h-63.066z"/>
            <path stroke="#514C47" stroke-linecap="round" stroke-linejoin="round" stroke-width="6" d="M201.105 128.871h159.821"/>
            <path stroke="#514C47" stroke-linecap="round" stroke-linejoin="round" stroke-width="4" d="M217.949 128.871H344.08V3.192H217.95z"/>
        </g>
        <g>
            <path fill="#117938" d="M172.283 95.44h-12.584c-6.786 0-29.339 15.943-29.339 30.456v38.184h84.24v-38.184c0-14.513-22.947-30.456-29.73-30.456h-12.587z"/>
            <path fill="#FFF" d="M151.803 98.253c1.627 2.638 8.936 15.768 19.714 23.856 10.706-7.965 20.108-22.08 20.108-24.538-21.002-12.2-39.822.682-39.822.682z"/>
            <path fill="#E7E5E2" d="M203.973 74.02c-3.928 15.972-16.54 27.66-31.494 27.66-14.952 0-27.564-11.688-31.492-27.659a3.54 3.54 0 0 1-1.267.231c-1.72 0-3.12-1.203-3.12-2.692V60.694c0-1.49 1.4-2.694 3.12-2.694.111 0 .221.005.33.015 2.264-18.53 15.92-32.775 32.43-32.775 16.509 0 30.165 14.246 32.43 32.775.109-.01.219-.015.33-.015 1.724 0 3.12 1.204 3.12 2.694V71.56c0 1.49-1.396 2.692-3.12 2.692-.45 0-.88-.082-1.267-.231z"/>
            <path fill="#635E59" d="M160.047 62.094c-2.257.17-2.889-3.157-2.21-5.33.13-.412.877-2.286 2.2-2.286 1.32 0 1.904 1.024 1.985 1.2.972 2.119.495 6.23-1.975 6.416M185.24 62.094c2.258.17 2.89-3.157 2.21-5.33-.128-.412-.876-2.286-2.199-2.286-1.32 0-1.904 1.024-1.985 1.2-.972 2.119-.497 6.23 1.974 6.416"/>
            <path stroke="#D1BFA3" stroke-linecap="round" stroke-width="1.56" d="M173.24 65.15c1.35-.208 2.665-.158 3.283.6 1.505 1.849 1.073 3.984-1.462 5.563-1.267.788-3.06 1.11-4.16.624"/>
            <path stroke="#593A32" stroke-linecap="round" stroke-width="1.58" d="M182.966 77.606s-2.852 6.532-10.786 6.288c-7.934-.243-10.909-6.288-10.909-6.288"/>
            <path fill="#F6B873" d="M203.426 62.778c.511-.6.17-2.098.17-4.008 0-21.105-14.308-38.21-31.955-38.21-17.649 0-31.956 17.105-31.956 38.21 0 2.78.1 5.542.999 5.468.53-10.28 3.563-17.683 4.654-20.52 2.161-5.622 4.39-8.776 11.846-4.385 7.37 4.342 43.062-22.761 46.13 23.597-.103.107-.066.057.112-.152z"/>
            <g>
                <path fill="#9B9590" d="M172.48 100.12c12.062 0 21.84 9.392 21.84 20.978v20.444c0 11.586-9.778 20.978-21.84 20.978s-21.84-9.392-21.84-20.978v-20.444c0-11.586 9.778-20.978 21.84-20.978z"/>
                <g fill="#C6C2BF">
                    <path d="M140.269 105.818l6.295-5.308a1.685 1.685 0 0 1 2.298.133c.138.148.245.32.314.508l15.41 41.245c.3.803-.137 1.685-.977 1.977l-7.072 2.453c-.844.293-1.778-.122-2.086-.927l-14.633-38.39a1.502 1.502 0 0 1 .45-1.69zM204.691 105.818c.5.422.68 1.092.451 1.69l-14.633 38.39v.001c-.308.805-1.242 1.22-2.086.927l-7.072-2.453c-.84-.292-1.276-1.174-.976-1.977l15.409-41.245c.07-.187.176-.36.314-.508a1.685 1.685 0 0 1 2.298-.133l6.295 5.308z"/>
                </g>
            </g>
            <g>
                <path fill="#5EAEC7" d="M186.52 148.46v12.5h-28.08v-12.5c0-3.576 4.587-7.659 7.658-9.34h12.764c3.099 1.71 7.658 5.805 7.658 9.34z"/>
                <path fill="#FA96A0" d="M182.508 141.71c1.345 1.193 2.67 2.646 3.374 4.083-.425.262-2.42.262-2.643-.363a1.568 1.568 0 0 1-.44 1.759 1.514 1.514 0 0 1-2.087-.115 1.564 1.564 0 0 1-.615 2.014 1.512 1.512 0 0 1-1.672-.093 1.555 1.555 0 0 1-.99 1.683 1.51 1.51 0 0 1-1.456-.227 1.535 1.535 0 0 1-1.164.974 1.515 1.515 0 0 1-1.36-.445c-.252.508-.77.858-1.37.858-.559 0-1.048-.305-1.315-.76-.335.29-.79.43-1.257.347a1.535 1.535 0 0 1-1.163-.974 1.51 1.51 0 0 1-1.456.227 1.555 1.555 0 0 1-.99-1.683 1.512 1.512 0 0 1-1.672.093 1.564 1.564 0 0 1-.615-2.014 1.514 1.514 0 0 1-2.088.115 1.568 1.568 0 0 1-.44-1.76c-.443.199-.955-.608-1.373-.849.641-.999 1.666-2.018 2.725-2.91.88 3.383 5.04 5.943 10.039 5.943 4.979 0 9.125-2.54 10.028-5.902z"/>
                <path fill="#E7E5E2" d="M153.796 120.797c.6-9.797 8.736-17.557 18.684-17.557s18.084 7.76 18.684 17.557a3.12 3.12 0 0 1 1.596 2.723v3.12a3.12 3.12 0 0 1-3.256 3.117 18.78 18.78 0 0 1-10.804 9.865 6.24 6.24 0 0 1-12.44 0 18.78 18.78 0 0 1-10.804-9.865 3.12 3.12 0 0 1-3.256-3.117v-3.12a3.12 3.12 0 0 1 1.596-2.723z"/>
                <path fill="#78706A" fill-rule="nonzero" d="M168.555 105.355a.624.624 0 0 1 1.203.332c-.114.414-.004.594.755 1.277.79.711.974 1.645.536 2.65a.624.624 0 1 1-1.144-.5c.227-.52.156-.877-.227-1.222-1.088-.98-1.408-1.504-1.123-2.537zm3.478-.333a.624.624 0 0 1 1.005.741c-.255.346-.217.553.246 1.463.483.947.32 1.884-.449 2.665a.624.624 0 1 1-.889-.876c.398-.404.46-.763.226-1.223-.664-1.304-.775-1.908-.139-2.77zm3.41-.035a.624.624 0 1 1 .726 1.015c-.35.25-.377.459-.217 1.468.166 1.05-.279 1.89-1.251 2.396a.624.624 0 0 1-.575-1.108c.504-.262.674-.583.593-1.093-.229-1.446-.148-2.054.724-2.678z"/>
                <g>
                    <g fill="#E8CCC8">
                        <path d="M167.488 130.28c0 2.154-1.676 3.9-3.743 3.9-2.068 0-3.745-1.746-3.745-3.9s1.677-3.9 3.745-3.9c2.067 0 3.743 1.746 3.743 3.9M184.96 130.28c0 2.154-1.676 3.9-3.743 3.9-2.068 0-3.745-1.746-3.745-3.9s1.677-3.9 3.745-3.9c2.067 0 3.743 1.746 3.743 3.9"/>
                    </g>
                    <path fill="#FA96A0" d="M170.46 135.932c-.75-.332-1.186-1.113-1.138-1.915l.877-2.437 3.446 1.524-1.073 2.35a1.82 1.82 0 0 1-2.112.478z"/>
                    <path fill="#D1BFA3" fill-rule="nonzero" d="M173.508 124.474a.625.625 0 0 1-.739-.503.65.65 0 0 1 .483-.77c.839-.183 1.54-.042 1.926.633.75 1.313.49 2.826-.694 3.874-.687.609-1.653.827-2.327.402a.666.666 0 0 1-.21-.892.61.61 0 0 1 .856-.22c.148.093.555 0 .873-.28.724-.642.865-1.458.43-2.219-.04-.071-.222-.108-.598-.025z"/>
                    <g fill="#635E59">
                        <path fill-rule="nonzero" d="M176.867 122.322a.652.652 0 0 0 .454.788.623.623 0 0 0 .756-.473c.353-1.47.966-2.107 1.891-2.107s1.538.638 1.89 2.107c.084.349.423.56.757.473a.652.652 0 0 0 .454-.788c-.479-1.997-1.53-3.092-3.101-3.092-1.57 0-2.622 1.095-3.101 3.092z"/>
                        <path d="M165.625 123.776c-1.72.117-2.202-2.154-1.683-3.635.097-.282.666-1.561 1.674-1.561 1.007 0 1.452.7 1.514.82.74 1.445.378 4.25-1.505 4.376"/>
                    </g>
                    <path fill="#593A32" fill-rule="nonzero" d="M175.534 131.87a.663.663 0 0 0-.279-.871.613.613 0 0 0-.837.29c-.3.624-.908.941-1.938.941-1.03 0-1.639-.317-1.938-.94a.613.613 0 0 0-.837-.291.663.663 0 0 0-.28.872c.534 1.11 1.589 1.659 3.055 1.659 1.466 0 2.521-.55 3.054-1.66z"/>
                </g>
            </g>
            <g>
                <path fill="#C6C2BF" d="M195.88 164.08h-46.8v-15.416c0-1.825 2.125-3.304 4.745-3.304h37.31c2.62 0 4.745 1.479 4.745 3.304v15.416z"/>
                <path fill="#FFF" d="M152.393 145.36h40.174c2.691 0 4.873 2.095 4.873 4.68 0 2.585-2.182 4.68-4.873 4.68h-40.174c-2.691 0-4.873-2.095-4.873-4.68 0-2.585 2.182-4.68 4.873-4.68z"/>
            </g>
        </g>
    </g>
</svg>
