<svg xmlns="http://www.w3.org/2000/svg" xmlns:xlink="http://www.w3.org/1999/xlink" width="370" height="164" viewBox="0 0 370 164">
    <defs>
        <path id="a" d="M87.24 45.155a7.26 7.26 0 0 1 3.093 5.97c0 1.65-.544 3.172-1.458 4.39a7.284 7.284 0 0 1 1.458 4.389c0 3.598-2.581 6.581-5.958 7.137-.761 3.558-3.495 6.365-6.976 7.173.153 3.396-2.073 6.533-5.44 7.355a6.967 6.967 0 0 1-5.323-.844 9.077 9.077 0 0 1-4.23 1.04c-3.918 0-7.269-2.48-8.618-5.985-.976-.15-1.94-.623-2.766-1.493-1.097-1.155-2.531-1.621-3.905-1.506-.033.06-.065.12-.095.181-.88 1.757-2.412 2.615-3.98 2.72a5.21 5.21 0 0 0-.294.864c-1.143 4.648-7.214 5.008-9.12 1.08-1.137 2.447-3.583 4.14-6.417 4.14a7.023 7.023 0 0 1-5.23-2.34 6.964 6.964 0 0 1-3.39.876c-3.92 0-7.099-3.237-7.099-7.23 0-.699.098-1.375.28-2.014-2.443-.94-4.242-3.213-4.544-5.948-2.559-1.093-4.355-3.667-4.355-6.67 0-3.072 1.882-5.697 4.537-6.744.165-2.281-1.22-4.598-3.7-5.23-4.947-1.26-4.947-8.42 0-9.681 3.729-.951 4.98-5.705 2.216-8.428-3.665-3.611-.15-9.81 4.754-8.384.806.234 1.6.252 2.336.097a7.414 7.414 0 0 1-.087-1.135 7.25 7.25 0 0 1 3.61-6.298c-.246-4.336 5.126-7.088 8.392-3.713 1.049-2.658 3.603-4.534 6.588-4.534.903 0 1.766.171 2.56.484a4.68 4.68 0 0 1 1.92-1.535c1.579-3.203 6.444-3.927 8.59-.3 1.984 3.353 6.814 3.178 8.56-.309 2.245-4.483 8.745-3.114 9.234 1.698.243-.025.49-.038.74-.038 3.057 0 5.661 1.967 6.661 4.726.065-.04.13-.08.194-.122 4.276-2.827 9.419 2.054 6.955 6.6-1.859 3.427.704 7.6 4.543 7.395 5.092-.27 7.15 6.577 2.784 9.258-.133.081-.26.167-.382.258 2.905.905 5.018 3.658 5.018 6.914a7.28 7.28 0 0 1-1.781 4.79c.071.312.112.629.124.946z"/>
        <path id="c" d="M72.8 104.734c-17.324 2.693-16.906 5.84-36.375 5.84-19.566 0-19.197-3.196-36.388-6.148C.012 103.806 0 41.856 0 41.23 0 18.459 16.306 0 36.425 0 56.54 0 72.85 18.46 72.85 41.229c0 .73-.017 62.783-.05 63.505z"/>
        <path id="e" d="M56.75 4.616c8.796 4.28 22.476 15.876 22.476 26.628v35.533H0V31.244C0 20.87 12.517 9.71 21.213 5.094c-.44.266-.673.427-.673.427 1.498 2.454 5.526 13.35 18.158 13.35 12.635 0 18.52-11.698 18.52-13.984a39.23 39.23 0 0 0-.469-.271z"/>
        <path id="g" d="M99.84 95.82v15.497H65.52V95.82c0-4.433 5.606-9.495 9.36-11.579h15.6c3.788 2.12 9.36 7.197 9.36 11.58z"/>
        <path id="i" d="M29.417 3.212c1.644 1.478 3.263 3.28 4.123 5.062-.519.324-2.957.324-3.23-.451.288.749.095 1.635-.538 2.18a1.832 1.832 0 0 1-2.55-.141c.418.898.1 1.99-.753 2.497a1.826 1.826 0 0 1-2.043-.116c.127.885-.362 1.77-1.21 2.087a1.826 1.826 0 0 1-1.78-.282 1.883 1.883 0 0 1-1.422 1.207 1.835 1.835 0 0 1-1.663-.551 1.865 1.865 0 0 1-1.673 1.063 1.86 1.86 0 0 1-1.608-.942c-.41.359-.965.534-1.536.43a1.883 1.883 0 0 1-1.422-1.207 1.826 1.826 0 0 1-1.779.282c-.849-.318-1.338-1.202-1.211-2.087-.58.438-1.38.51-2.043.116-.852-.506-1.17-1.599-.752-2.497a1.832 1.832 0 0 1-2.551.142 1.962 1.962 0 0 1-.538-2.181c-.542.245-1.167-.755-1.678-1.054.783-1.238 2.035-2.502 3.33-3.607 1.077 4.193 6.16 7.368 12.27 7.368 6.085 0 11.153-3.15 12.257-7.318z"/>
    </defs>
    <g fill="none" fill-rule="evenodd">
        <path fill="#EFEFEF" d="M1 105h102V1H1z"/>
        <path fill="#838688" d="M13 9.002a4 4 0 1 1-8-.003 4 4 0 0 1 8 .003M100 9.002A3.998 3.998 0 0 1 96 13a4 4 0 1 1 4-3.998"/>
        <path fill="#E9C264" d="M44.7 76.775c3.48.696-24.379-.49-28.224 0C12.634 77.27 14.41 52 14.41 52h28.224S41.213 76.088 44.7 76.775"/>
        <path fill="#DAB25B" d="M43.006 73H14.5c.37 2.347.991 3.912 2.015 3.795 3.854-.455 31.771.636 28.284 0-.874-.157-1.434-1.648-1.793-3.795"/>
        <path fill="#E9C264" d="M86.7 61.778c3.477.69-24.38-.493-28.223 0C54.632 62.272 56.41 37 56.41 37h28.222s-1.416 24.089 2.068 24.778"/>
        <path fill="#DAB25B" d="M84.827 58H56.6c.367 2.35.98 3.916 1.998 3.797 3.813-.455 31.454.632 28.005 0-.866-.162-1.424-1.647-1.776-3.797"/>
        <path fill="#E9C264" d="M52.7 37.779c3.483.688-24.378-.495-28.224 0C20.634 38.267 22.41 13 22.41 13h28.223S49.216 37.087 52.7 37.779"/>
        <path fill="#DAB25B" d="M50.837 34H22.7c.365 2.348.977 3.917 1.99 3.797 3.803-.456 31.358.632 27.913 0-.86-.159-1.416-1.651-1.766-3.797"/>
        <g>
            <path fill="#C4E8F5" d="M223.845 128.871h126.131V3.192h-126.13z"/>
            <path stroke="#403A33" stroke-linecap="round" stroke-linejoin="round" stroke-width="4" d="M223.845 128.871h126.131V3.192h-126.13z"/>
            <path fill="#B7BE34" d="M223.845 91.628c51.475-7.926 46.011 25.32 126.131 8.249v28.995h-126.13V91.628z"/>
            <path fill="#FFF" d="M319.98 41.438c0-4.71-3.833-8.529-8.562-8.529-4.727 0-8.56 3.819-8.56 8.529 0 4.712 3.833 8.53 8.56 8.53 4.729 0 8.562-3.818 8.562-8.53"/>
            <path fill="#FFF" d="M309.466 48.377c0-6.412-5.217-11.611-11.652-11.611s-11.654 5.2-11.654 11.611c0 6.412 5.219 11.61 11.654 11.61s11.652-5.198 11.652-11.61"/>
            <path fill="#FFF" d="M317.106 54.044c0-3.131-2.546-5.666-5.688-5.666-3.14 0-5.686 2.535-5.686 5.666 0 3.129 2.546 5.666 5.686 5.666 3.142 0 5.688-2.537 5.688-5.666"/>
            <path stroke="#403A33" stroke-linecap="round" stroke-linejoin="round" stroke-width="3" d="M223.845 66.032h63.066V3.192h-63.066z"/>
            <path stroke="#514C47" stroke-linecap="round" stroke-linejoin="round" stroke-width="3" d="M286.91 66.032h63.066V3.192h-63.065zM223.845 128.871h63.066V66.032h-63.066z"/>
            <path stroke="#514C47" stroke-linecap="round" stroke-linejoin="round" stroke-width="3" d="M286.91 128.871h63.066V66.032h-63.065z"/>
            <path stroke="#514C47" stroke-linecap="round" stroke-linejoin="round" stroke-width="6" d="M207 128.871h159.822"/>
            <path fill="#FFF" d="M247.636 19.109c0 4.424-3.6 8.01-8.04 8.01-4.44 0-8.04-3.586-8.04-8.01 0-4.424 3.6-8.012 8.04-8.012 4.44 0 8.04 3.588 8.04 8.012"/>
            <path fill="#FFF" d="M257.868 16.336c0 3.258-2.651 5.897-5.92 5.897s-5.92-2.64-5.92-5.897c0-3.259 2.651-5.898 5.92-5.898s5.92 2.64 5.92 5.898"/>
            <path fill="#FFF" d="M267.36 25.007c0 4.397-3.577 7.961-7.99 7.961-4.414 0-7.99-3.564-7.99-7.961 0-4.398 3.576-7.962 7.99-7.962 4.413 0 7.99 3.564 7.99 7.962M242.797 28.574a3.197 3.197 0 0 1-3.201 3.19 3.197 3.197 0 0 1-3.202-3.19 3.197 3.197 0 0 1 3.202-3.19 3.197 3.197 0 0 1 3.201 3.19"/>
            <path fill="#FFF" d="M253.749 30.957c0 3.227-2.624 5.841-5.862 5.841-3.237 0-5.861-2.614-5.861-5.841 0-3.225 2.624-5.842 5.86-5.842 3.239 0 5.863 2.617 5.863 5.842"/>
            <path fill="#FFF" d="M254.501 23.792c0-3.956-3.218-7.164-7.19-7.164-3.972 0-7.19 3.208-7.19 7.164 0 3.958 3.218 7.165 7.19 7.165 3.972 0 7.19-3.207 7.19-7.165"/>
            <path stroke="#514C47" stroke-linecap="round" stroke-linejoin="round" stroke-width="4" d="M223.845 128.871h126.131V3.192h-126.13z"/>
        </g>
        <g>
            <g transform="translate(174.73 23.883)">
                <mask id="b" fill="#fff">
                    <use xlink:href="#a"/>
                </mask>
                <use fill="#333" xlink:href="#a"/>
                <g fill="#3E3832" mask="url(#b)">
                    <path d="M-4.37-4.38H96.291v115.224H-4.37z"/>
                </g>
            </g>
            <path fill="#E7E5E2" d="M201.073 102.38c1.493 2.388 5.688 44.353 18.28 44.353 12.596 0 18.282-42.746 18.282-44.97-19.283-11.047-36.562.616-36.562.616z"/>
            <path fill="#0F5FA9" d="M220.21 129.67l-11.96-29.759c-6.45 0-27.652 14.58-27.652 28.155v35.718h79.225v-35.718c0-13.575-21.206-28.155-27.654-28.155l-11.959 29.76z"/>
            <path fill="#3C84C5" d="M208.293 97.659c-3.481 1.187-8.618 4.404-8.618 4.404-.26 10.406 9.607 20.904 9.607 20.904l2.004-6.655 7.54 13.96 4.018.124 6.937-12.615 2.828 7.083c9.52-16.175 8.061-22.981 8.061-22.981-3.801-3.191-8.596-4.875-8.596-4.875l-11.37 29.555-12.411-28.904z"/>
            <path fill="#E7E5E2" d="M222.715 47.306c.383 2.928 2.791 5.184 5.708 5.184 2.65 0 4.884-1.867 5.554-4.409.01.595-.065 1.21-.235 1.83-1.696 6.182 7.055 10.95 11.345 6.328.69-.349 1.594-.269 2.71.241a43.027 43.027 0 0 1 1.645 8.456c.136-.03.277-.046.435-.046 1.372 0 2.383 1.153 2.383 2.576v9.295c0 1.425-.99 2.577-2.367 2.577-.548 0-.93-.187-1.34-.5-.03.138-.062.275-.094.411-2.07 9.338-7.097 16.917-13.795 21.505-4.492 3.196-9.725 5.029-15.31 5.029-3.945 0-7.714-.914-11.17-2.577-8.95-4.03-15.794-12.901-18.214-24.372-.412.315-.772.504-1.323.504-1.375 0-2.2-1.152-2.2-2.577v-9.705c2.812 2.322 8.971 1.629 10.109-3.102 1.13-4.702 6.778-6.28 10.011-2.796 4.292 4.622 11.659.19 9.964-5.992-1.168-4.259 2.185-8.224 6.184-7.86z"/>
            <g>
                <path fill="#635E59" d="M208.947 73.272c-2.13.159-2.725-2.954-2.084-4.987.12-.385.826-2.14 2.074-2.14 1.246 0 1.797.96 1.873 1.124.917 1.982.467 5.828-1.863 6.003M232.714 73.272c2.13.159 2.726-2.954 2.084-4.987-.12-.385-.826-2.14-2.074-2.14a2.095 2.095 0 0 0-1.873 1.124c-.917 1.982-.467 5.828 1.863 6.003"/>
                <path fill="#D1BFA3" fill-rule="nonzero" d="M221.506 76.85c1.252-.19 2.108-.07 2.414.302 1.156 1.41.786 2.9-1.197 4.124-1.043.643-2.479.87-3.239.536a.738.738 0 0 0-.97.372c-.165.368.003.8.375.962 1.256.551 3.187.247 4.611-.631 2.696-1.663 3.313-4.15 1.561-6.284-.74-.902-2.053-1.086-3.779-.823a.73.73 0 0 0-.615.832.735.735 0 0 0 .839.61z"/>
                <path fill="#D19E9C" fill-rule="nonzero" d="M229.894 87.49a6.63 6.63 0 0 1-.463.82 10.367 10.367 0 0 1-1.566 1.89c-1.882 1.793-4.332 2.83-7.45 2.735-3.04-.092-5.478-1.113-7.39-2.76a10.912 10.912 0 0 1-1.745-1.896 6.63 6.63 0 0 1-.518-.82.739.739 0 0 0-.985-.332.727.727 0 0 0-.336.977c.108.218.319.574.64 1.021a12.368 12.368 0 0 0 1.98 2.153c2.157 1.858 4.916 3.013 8.31 3.116 3.534.107 6.359-1.088 8.514-3.142a11.82 11.82 0 0 0 1.787-2.158c.288-.447.475-.803.57-1.02a.727.727 0 0 0-.38-.96.738.738 0 0 0-.968.376z"/>
            </g>
            <g>
                <g transform="translate(91.433 23.883)">
                    <mask id="d" fill="#fff">
                        <use xlink:href="#c"/>
                    </mask>
                    <g fill="#F6B873" mask="url(#d)">
                        <path d="M-14.57-1.46H86.093v115.224H-14.57z"/>
                    </g>
                </g>
                <path fill="#E7E5E2" d="M109.033 102.38c1.493 2.388 5.688 44.353 18.28 44.353 12.596 0 18.282-42.746 18.282-44.97-19.283-11.047-36.562.616-36.562.616z"/>
                <g transform="translate(88.558 97.008)">
                    <mask id="f" fill="#fff">
                        <use xlink:href="#e"/>
                    </mask>
                    <use fill="#D8A25D" xlink:href="#e"/>
                    <g mask="url(#f)">
                        <path fill="#5EAEC7" d="M-48.416 108.476h184.704V-36.292H-48.416z"/>
                    </g>
                </g>
                <path fill="#E7E5E2" d="M98.122 64.132s-.154.87-.352.727a2.374 2.374 0 0 0-.887-.18c-1.356-.001-2.46 1.138-2.462 2.544l-.013 9.735c-.003 1.407 1.094 2.55 2.453 2.552a2.38 2.38 0 0 0 1.45-.498c3.284 15.676 14.99 26.747 28.95 26.77 13.96.023 25.703-11.01 29.033-26.675.406.31.904.5 1.449.502 1.358.002 2.46-1.137 2.462-2.543l.015-9.736c.001-1.407-1.096-2.549-2.454-2.552-.313 0-.612.067-.887.178-31.482 3.731-42.463-17.672-43.391-17.673 0 0-13.167 12.325-15.366 16.849z"/>
                <g>
                    <path fill="#635E59" d="M116.907 73.272c-2.13.159-2.725-2.954-2.084-4.987.12-.385.826-2.14 2.074-2.14 1.246 0 1.797.96 1.873 1.124.917 1.982.467 5.828-1.863 6.003M140.674 73.272c2.13.159 2.726-2.954 2.084-4.987-.12-.385-.826-2.14-2.074-2.14a2.095 2.095 0 0 0-1.873 1.124c-.917 1.982-.467 5.828 1.863 6.003"/>
                    <path fill="#D1BFA3" fill-rule="nonzero" d="M129.466 76.85c1.252-.19 2.108-.07 2.414.302 1.156 1.41.786 2.9-1.197 4.124-1.043.643-2.479.87-3.239.536a.738.738 0 0 0-.97.372c-.165.368.003.8.375.962 1.256.551 3.187.247 4.611-.631 2.696-1.663 3.313-4.15 1.561-6.284-.74-.902-2.053-1.086-3.779-.823a.73.73 0 0 0-.615.832.735.735 0 0 0 .839.61z"/>
                    <path fill="#D19E9C" fill-rule="nonzero" d="M137.854 87.49a6.63 6.63 0 0 1-.463.82 10.367 10.367 0 0 1-1.566 1.89c-1.882 1.793-4.332 2.83-7.45 2.735-3.04-.092-5.478-1.113-7.39-2.76a10.912 10.912 0 0 1-1.745-1.896 6.63 6.63 0 0 1-.518-.82.739.739 0 0 0-.985-.332.727.727 0 0 0-.336.977c.108.218.319.574.64 1.021a12.368 12.368 0 0 0 1.98 2.153c2.157 1.858 4.916 3.013 8.31 3.116 3.534.107 6.359-1.088 8.514-3.142a11.82 11.82 0 0 0 1.787-2.158c.288-.447.475-.803.57-1.02a.727.727 0 0 0-.38-.96.738.738 0 0 0-.968.376z"/>
                </g>
            </g>
            <g>
                <g transform="translate(156.32 137.56)">
                    <g transform="translate(-65.52 -84.24)">
                        <mask id="h" fill="#fff">
                            <use xlink:href="#g"/>
                        </mask>
                        <use fill="#D8A25D" xlink:href="#g"/>
                        <g fill="#C86151" mask="url(#h)">
                            <path d="M1.357 181h178.6V0H1.357z"/>
                        </g>
                    </g>
                    <use fill="#FA96A0" xlink:href="#i"/>
                </g>
                <path fill="#E7E5E2" d="M150.131 114.16c.803-12.196 10.95-21.84 23.349-21.84 12.4 0 22.546 9.644 23.349 21.84h.051a3.12 3.12 0 0 1 3.12 3.12v3.12a3.12 3.12 0 0 1-4.362 2.863 23.464 23.464 0 0 1-14.361 14.527 7.8 7.8 0 0 1-15.594 0 23.464 23.464 0 0 1-14.36-14.527 3.12 3.12 0 0 1-4.362-2.863l-.001-3.12a3.12 3.12 0 0 1 3.171-3.12z"/>
                <path stroke="#593A32" stroke-linecap="round" stroke-width="1.56" d="M170.36 128.2c.52 1.04 1.56 1.56 3.12 1.56s2.6-.52 3.12-1.56"/>
                <path fill="#E8CCC8" d="M167.24 126.64a4.68 4.68 0 1 1-9.36.001 4.68 4.68 0 0 1 9.36-.002M189.08 126.64a4.68 4.68 0 1 1-9.36.001 4.68 4.68 0 0 1 9.36-.002"/>
                <path fill="#D1BFA3" fill-rule="nonzero" d="M174.765 119.673a.78.78 0 0 1-.32-1.527c1.048-.22 1.925-.05 2.408.759.938 1.575.611 3.39-.868 4.648-.86.731-2.066.993-2.909.483a.78.78 0 0 1 .808-1.334c.184.111.694 0 1.09-.337.906-.77 1.083-1.748.539-2.662-.051-.086-.277-.13-.748-.03z"/>
                <path fill="#635E59" fill-rule="nonzero" d="M160.243 114.35a.78.78 0 0 1 1.514-.38c.44 1.764 1.206 2.53 2.363 2.53s1.922-.766 2.363-2.53a.78.78 0 0 1 1.514.38c-.6 2.396-1.914 3.71-3.877 3.71-1.963 0-3.278-1.314-3.877-3.71zM178.963 114.35a.78.78 0 1 1 1.514-.38c.44 1.764 1.206 2.53 2.363 2.53s1.922-.766 2.363-2.53a.78.78 0 0 1 1.514.38c-.6 2.396-1.914 3.71-3.877 3.71-1.963 0-3.278-1.314-3.877-3.71z"/>
                <g transform="translate(164.12 123.52)">
                    <path fill="#91C823" d="M10.14 1.352C12.48 1.352 14.04 0 15.6 0c2.602 0 4.68 1.746 4.68 4.734 0 2.987-3.143 5.41-7.02 5.41-1.12 0-2.18.047-3.12.003-.94.044-2-.004-3.12-.004-3.877 0-7.02-2.422-7.02-5.41C0 1.747 2.078 0 4.68 0c1.56 0 3.12 1.352 5.46 1.352z"/>
                    <ellipse cx="10.14" cy="5.46" fill="#FFF" rx="5.46" ry="3.9"/>
                </g>
                <path fill="#FFF" fill-rule="nonzero" d="M178.16 128.98c.43 0 .78.35.78.78v4.333c0 2.186-2.318 4.247-4.68 4.247-2.535 0-4.68-1.74-4.68-4.247v-4.333c0-.43.35-.78.78-.78h7.8zm-7.02 1.56v3.553c0 1.565 1.383 2.687 3.12 2.687 1.538 0 3.12-1.406 3.12-2.687v-3.553h-6.24z"/>
                <g fill="#78706A" fill-rule="nonzero">
                    <path d="M168.378 94.303a.78.78 0 0 1 1.504.415c-.157.567-.005.815 1.006 1.725 1.027.925 1.265 2.136.695 3.443a.78.78 0 1 1-1.43-.624c.306-.702.21-1.192-.309-1.66-1.422-1.28-1.836-1.959-1.466-3.3zM172.955 93.877a.78.78 0 1 1 1.256.927c-.35.473-.297.759.32 1.971.628 1.232.417 2.447-.584 3.463a.78.78 0 1 1-1.112-1.094c.538-.546.624-1.038.307-1.66-.869-1.705-1.012-2.488-.187-3.607zM177.44 93.84a.78.78 0 0 1 .907 1.27c-.478.341-.517.63-.304 1.973.216 1.365-.36 2.456-1.626 3.113a.78.78 0 1 1-.72-1.384c.681-.353.914-.795.805-1.485-.3-1.89-.194-2.678.937-3.487z"/>
                </g>
            </g>
        </g>
    </g>
</svg>
