<svg xmlns="http://www.w3.org/2000/svg" xmlns:xlink="http://www.w3.org/1999/xlink" width="370" height="164" viewBox="0 0 370 164">
    <defs>
        <path id="a" d="M60.341 4.96c9.354 4.6 23.899 17.06 23.899 28.616V71.76H0V33.576c0-11.15 13.309-23.141 22.555-28.102-.468.286-.715.459-.715.459C23.433 8.57 27.715 20.28 41.147 20.28c13.435 0 19.693-12.571 19.693-15.029a41.606 41.606 0 0 0-.499-.29z"/>
        <path id="c" d="M6.689.02l8.085.582 8.18-.586A6.24 6.24 0 0 1 29.64 6.24v1.097h-3.595l-.478-1.95-.328 1.95h-1.308l-.24-.924-.258.924-8.462.346-11.95-.346-.264-.924-.463.924H0V6.243A6.24 6.24 0 0 1 6.689.02z"/>
        <path id="e" d="M41.923 0H29.339C22.553 0 0 15.724 0 30.038V67.7h84.24V30.038C84.24 15.724 61.293 0 54.51 0H41.922z"/>
        <path id="g" d="M64.848 43.778c.508-.6.169-2.098.169-4.008 0-21.105-14.216-38.21-31.75-38.21-17.536 0-31.752 17.105-31.752 38.21 0 2.78.1 5.542.993 5.468.526-10.28 3.54-17.683 4.624-20.52 2.148-5.622 4.362-8.776 11.77-4.385C26.224 24.675 61.69-2.428 64.737 43.93c-.102.107-.065.057.111-.152z"/>
        <path id="i" d="M20.28 26.854c0-2.769 5.587-5.014 12.48-5.014 6.893 0 12.48 2.245 12.48 5.014 0 2.77-5.587 6.928-12.48 6.928-6.893 0-12.48-4.159-12.48-6.928zm12.124-8.209c-4.6 0-7.314 1.02-13.763 3.344C-1.15 29.12.543.168.543.168c0 42.531 20.051 46.676 32.47 46.676 12.615 0 32.507-2.405 32.507-43.724-.877 1.242.955 23.96-19.789 18.87-5.92-2.622-8.727-3.345-13.327-3.345z"/>
        <path id="k" d="M82.221 78.075v12.628H53.958V78.075c0-3.612 4.617-7.737 7.708-9.435h12.847c3.12 1.728 7.708 5.864 7.708 9.435z"/>
        <path id="m" d="M24.226 2.617c1.353 1.204 2.687 2.672 3.395 4.124-.427.265-2.435.265-2.66-.367.237.61.078 1.332-.442 1.777a1.52 1.52 0 0 1-2.102-.115 1.583 1.583 0 0 1-.619 2.034 1.517 1.517 0 0 1-1.682-.094 1.572 1.572 0 0 1-.998 1.7 1.516 1.516 0 0 1-1.465-.23 1.546 1.546 0 0 1-1.17.984 1.521 1.521 0 0 1-1.37-.45 1.537 1.537 0 0 1-1.378.867 1.534 1.534 0 0 1-1.324-.767 1.517 1.517 0 0 1-1.266.35 1.546 1.546 0 0 1-1.17-.984c-.404.316-.952.42-1.466.23a1.572 1.572 0 0 1-.997-1.7 1.517 1.517 0 0 1-1.682.094 1.583 1.583 0 0 1-.62-2.034 1.52 1.52 0 0 1-2.1.115 1.588 1.588 0 0 1-.443-1.777c-.447.2-.962-.615-1.382-.858.645-1.01 1.676-2.04 2.742-2.94.887 3.417 5.074 6.004 10.105 6.004 5.011 0 9.185-2.566 10.094-5.963z"/>
        <path id="n" d="M34.32 11.58v15.497H0V11.58C0 7.146 5.606 2.084 9.36 0h15.6c3.788 2.12 9.36 7.197 9.36 11.58z"/>
    </defs>
    <g fill="none" fill-rule="evenodd">
        <path fill="#EFEFEF" d="M1 105h102V1H1z"/>
        <path fill="#838688" d="M13 9.002a4 4 0 1 1-8-.003 4 4 0 0 1 8 .003M100 9.002A3.998 3.998 0 0 1 96 13a4 4 0 1 1 4-3.998"/>
        <path fill="#E9C264" d="M44.7 76.775c3.48.696-24.379-.49-28.224 0C12.634 77.27 14.41 52 14.41 52h28.224S41.213 76.088 44.7 76.775"/>
        <path fill="#DAB25B" d="M43.006 73H14.5c.37 2.347.991 3.912 2.015 3.795 3.854-.455 31.771.636 28.284 0-.874-.157-1.434-1.648-1.793-3.795"/>
        <path fill="#E9C264" d="M86.7 61.778c3.477.69-24.38-.493-28.223 0C54.632 62.272 56.41 37 56.41 37h28.222s-1.416 24.089 2.068 24.778"/>
        <path fill="#DAB25B" d="M84.827 58H56.6c.367 2.35.98 3.916 1.998 3.797 3.813-.455 31.454.632 28.005 0-.866-.162-1.424-1.647-1.776-3.797"/>
        <path fill="#E9C264" d="M52.7 37.779c3.483.688-24.378-.495-28.224 0C20.634 38.267 22.41 13 22.41 13h28.223S49.216 37.087 52.7 37.779"/>
        <path fill="#DAB25B" d="M50.837 34H22.7c.365 2.348.977 3.917 1.99 3.797 3.803-.456 31.358.632 27.913 0-.86-.159-1.416-1.651-1.766-3.797"/>
        <g>
            <path fill="#B0CAC9" d="M226.48 129.067h123.783V3.387H226.48z"/>
            <path fill="#98B5B4" d="M307.372 129.065h42.89V77.113h-42.89z"/>
            <path fill="#98B5B4" d="M257.874 129.065h55.037V88.938h-55.037z"/>
            <path fill="#98B5B4" d="M292.503 129.067h29.744V53.716h-29.744zM226.48 129.067h12.555V72.594H226.48z"/>
            <path fill="#98B5B4" d="M239.035 129.067h18.839v-27.115h-18.84z"/>
            <path fill="#FFF" d="M265.14 105.855h6.314v-5.524h-6.314zM276.433 105.855h6.31v-5.524h-6.31zM287.732 105.855h6.303v-5.524h-6.303zM299.015 105.855h6.314v-5.524h-6.314zM265.14 116.296h6.314v-5.528h-6.314zM276.433 116.296h6.31v-5.528h-6.31zM287.732 116.296h6.303v-5.528h-6.303zM299.015 116.296h6.314v-5.528h-6.314z"/>
            <path stroke="#403A33" stroke-linecap="round" stroke-linejoin="round" stroke-width="3" d="M224.132 66.225h63.065V3.385h-63.065z"/>
            <path stroke="#514C47" stroke-linecap="round" stroke-linejoin="round" stroke-width="3" d="M287.197 66.225h63.066V3.385h-63.066zM224.132 129.067h63.065v-62.84h-63.065zM287.197 129.067h63.066v-62.84h-63.066z"/>
            <path stroke="#514C47" stroke-linecap="round" stroke-linejoin="round" stroke-width="6" d="M207.287 129.066h159.822"/>
            <path stroke="#514C47" stroke-linecap="round" stroke-linejoin="round" stroke-width="4" d="M224.132 129.065h126.13V3.385h-126.13z"/>
            <path fill="#DEDEDA" d="M219.873 9.889H354.8v-10.2H219.873zM219.873 22.018H354.8v-10.2H219.873zM219.873 34.146H354.8V23.95H219.873z"/>
        </g>
        <g>
            <path fill="#E7E5E2" d="M203.12 98.05c1.593 2.547 6.068 47.31 19.5 47.31 13.435 0 19.5-45.595 19.5-47.968-20.569-11.783-39 .658-39 .658z"/>
            <g transform="translate(181.28 92.32)">
                <mask id="b" fill="#fff">
                    <use xlink:href="#a"/>
                </mask>
                <use fill="#D8A25D" xlink:href="#a"/>
                <g fill="#8B6D47" mask="url(#b)">
                    <path d="M-51.48 117h196.56V-39H-51.48z"/>
                </g>
            </g>
            <path fill="#E7E5E2" d="M254.893 74.02c-3.928 15.972-16.54 27.66-31.494 27.66-14.952 0-27.564-11.688-31.492-27.659a3.54 3.54 0 0 1-1.267.231c-1.72 0-3.12-1.203-3.12-2.692V60.694c0-1.49 1.4-2.694 3.12-2.694.111 0 .221.005.33.015 2.264-18.53 15.92-32.775 32.43-32.775 16.509 0 30.165 14.246 32.43 32.775.109-.01.219-.015.33-.015 1.725 0 3.12 1.204 3.12 2.694V71.56c0 1.49-1.395 2.692-3.12 2.692-.45 0-.88-.082-1.267-.231z"/>
            <path fill="#635E59" d="M210.967 62.094c-2.257.17-2.889-3.157-2.21-5.33.13-.412.877-2.286 2.2-2.286 1.32 0 1.904 1.024 1.985 1.2.972 2.119.495 6.23-1.975 6.416M236.16 62.094c2.258.17 2.89-3.157 2.21-5.33-.128-.412-.876-2.286-2.199-2.286-1.32 0-1.904 1.024-1.985 1.2-.972 2.119-.497 6.23 1.974 6.416"/>
            <path stroke="#D1BFA3" stroke-linecap="round" stroke-width="1.56" d="M224.16 65.15c1.35-.208 2.665-.158 3.283.6 1.505 1.849 1.073 3.984-1.462 5.563-1.267.788-3.06 1.11-4.16.624"/>
            <path stroke="#593A32" stroke-linecap="round" stroke-width="1.58" d="M233.886 77.606s-2.852 6.532-10.786 6.288c-7.934-.243-10.909-6.288-10.909-6.288"/>
            <g fill="#344144">
                <path d="M253.798 54.231c-.305-3.736-.932-7.441-2.487-10.586l-1.973-.668c-6.823-13.49-16.635-19.546-28.062-19.546-10.94 0-20.633 7.9-26.683 19.546l-2.434.668c-1.809 3.547-1.8 7.014-2.003 10.823 0 0 13.107-3.998 31.705-3.998 18.595 0 31.937 3.761 31.937 3.761-.066-.218.068.215 0 0"/>
                <path d="M226.512 23.853c0-2.68-2.063-4.853-4.606-4.853-2.543 0-4.607 2.173-4.607 4.853 0 2.68 2.064 4.853 4.607 4.853s4.606-2.173 4.606-4.853"/>
            </g>
            <g>
                <g transform="translate(209.204 73.6)">
                    <mask id="d" fill="#fff">
                        <use xlink:href="#c"/>
                    </mask>
                    <use fill="#3E3832" xlink:href="#c"/>
                    <g fill="#F6B873" mask="url(#d)">
                        <path d="M-53.04-70.2H54.6V53.04H-53.04z"/>
                    </g>
                </g>
            </g>
            <g>
                <path fill="#E7E5E2" d="M104.84 98.05c1.593 2.547 6.068 47.31 19.5 47.31 13.435 0 19.5-45.595 19.5-47.968-20.569-11.783-39 .658-39 .658z"/>
                <g transform="translate(83 96.936)">
                    <mask id="f" fill="#fff">
                        <use xlink:href="#e"/>
                    </mask>
                    <use fill="#FFF" xlink:href="#e"/>
                    <g fill="#194D62" mask="url(#f)">
                        <path d="M-51.48 112.457h196.56v-154H-51.48z"/>
                    </g>
                </g>
                <path fill="#CDD1D1" d="M104.443 99.71c1.627 2.602 8.936 15.552 19.714 23.53 10.706-7.856 20.108-21.778 20.108-24.202-21.002-12.033-39.822.672-39.822.672z"/>
                <path fill="#709CAA" d="M128.19 110.802v-7.712l-1.13.06h-5.49l-1.13-.06v7.712l1.693 1.042-1.557 8.378c1.247 1.3 2.436 2.32 3.564 3.06a31.662 31.662 0 0 0 3.627-2.913l-1.27-8.525 1.693-1.042z"/>
                <path fill="#FFF" d="M143.713 95.397c-5.52 4.928-12.259 7.804-19.537 7.804-7.15 0-13.774-2.837-19.238-7.661-.066.439-.402 2.481-.402 2.933 0 5.418 8.87 12.373 14.554 16.926l3.316-11.347h3.997l3.186 11.347c5.335-4.39 14.495-11.343 14.495-16.926 0-.501-.294-2.585-.371-3.076z"/>
                <path fill="#E7E5E2" d="M156.613 74.02c-3.928 15.972-16.54 27.66-31.494 27.66-14.952 0-27.564-11.688-31.492-27.659a3.54 3.54 0 0 1-1.267.231c-1.72 0-3.12-1.203-3.12-2.692V60.694c0-1.49 1.4-2.694 3.12-2.694.111 0 .221.005.33.015 2.264-18.53 15.92-32.775 32.43-32.775 16.509 0 30.165 14.246 32.43 32.775.109-.01.219-.015.33-.015 1.724 0 3.12 1.204 3.12 2.694V71.56c0 1.49-1.396 2.692-3.12 2.692-.45 0-.88-.082-1.267-.231z"/>
                <g>
                    <path fill="#635E59" d="M112.687 62.094c-2.257.17-2.889-3.157-2.21-5.33.13-.412.877-2.286 2.2-2.286 1.32 0 1.904 1.024 1.985 1.2.972 2.119.495 6.23-1.975 6.416M137.88 62.094c2.258.17 2.89-3.157 2.21-5.33-.128-.412-.876-2.286-2.199-2.286-1.32 0-1.904 1.024-1.985 1.2-.972 2.119-.497 6.23 1.974 6.416"/>
                    <path stroke="#D1BFA3" stroke-linecap="round" stroke-width="1.56" d="M125.88 65.15c1.35-.208 2.665-.158 3.283.6 1.505 1.849 1.073 3.984-1.462 5.563-1.267.788-3.06 1.11-4.16.624"/>
                    <path stroke="#593A32" stroke-linecap="round" stroke-width="1.58" d="M135.606 77.606s-2.852 6.532-10.786 6.288c-7.934-.243-10.909-6.288-10.909-6.288"/>
                </g>
                <g transform="translate(90.8 19)">
                    <mask id="h" fill="#fff">
                        <use xlink:href="#g"/>
                    </mask>
                    <use fill="#3E3832" xlink:href="#g"/>
                    <g fill="#3E3832" mask="url(#h)">
                        <path d="M-18.177-34.32h104.65V88.92h-104.65z"/>
                    </g>
                </g>
                <g>
                    <g transform="translate(92.204 53.32)">
                        <mask id="j" fill="#fff">
                            <use xlink:href="#i"/>
                        </mask>
                        <g fill="#3E3832" mask="url(#j)">
                            <path d="M-17.16-31.757H90.48V100.5H-17.16z"/>
                        </g>
                    </g>
                </g>
            </g>
            <g>
                <path fill="#9B9590" d="M223.4 100.12c12.062 0 21.84 9.392 21.84 20.978v20.444c0 11.586-9.778 20.978-21.84 20.978s-21.84-9.392-21.84-20.978v-20.444c0-11.586 9.778-20.978 21.84-20.978z"/>
                <path fill="#C6C2BF" d="M191.189 105.818l6.295-5.308a1.685 1.685 0 0 1 2.298.133c.138.148.245.32.314.508l15.41 41.245c.3.803-.137 1.685-.977 1.977l-7.072 2.453c-.844.293-1.778-.122-2.086-.927l-14.633-38.39a1.502 1.502 0 0 1 .45-1.69zM255.611 105.818c.5.422.68 1.092.451 1.69l-14.633 38.39v.001c-.308.805-1.242 1.22-2.086.927l-7.072-2.453c-.84-.292-1.276-1.174-.976-1.977l15.409-41.245c.07-.187.176-.36.314-.508a1.685 1.685 0 0 1 2.298-.133l6.295 5.308z"/>
                <g transform="translate(209.36 139.12)">
                    <g transform="translate(-53.958 -68.64)">
                        <mask id="l" fill="#fff">
                            <use xlink:href="#k"/>
                        </mask>
                        <use fill="#D8A25D" xlink:href="#k"/>
                        <g mask="url(#l)">
                            <path fill="#117938" d="M1.117 146.765h146.765V0H1.117z"/>
                        </g>
                    </g>
                    <use fill="#FA96A0" xlink:href="#m"/>
                </g>
                <path fill="#E7E5E2" d="M204.716 120.797c.6-9.797 8.736-17.557 18.684-17.557s18.084 7.76 18.684 17.557a3.12 3.12 0 0 1 1.596 2.723v3.12a3.12 3.12 0 0 1-3.256 3.117 18.78 18.78 0 0 1-10.804 9.865 6.24 6.24 0 0 1-12.44 0 18.78 18.78 0 0 1-10.804-9.865 3.12 3.12 0 0 1-3.256-3.117v-3.12a3.12 3.12 0 0 1 1.596-2.723z"/>
                <g fill="#78706A" fill-rule="nonzero">
                    <path d="M219.475 105.355a.624.624 0 1 1 1.203.332c-.114.414-.004.594.755 1.277.79.711.974 1.645.536 2.65a.624.624 0 1 1-1.144-.5c.227-.52.156-.877-.227-1.222-1.088-.98-1.408-1.504-1.123-2.537zM222.953 105.022a.624.624 0 0 1 1.005.741c-.255.346-.217.553.246 1.463.483.947.32 1.884-.449 2.665a.624.624 0 0 1-.889-.876c.398-.404.46-.763.226-1.223-.664-1.304-.775-1.908-.139-2.77zM226.363 104.987a.624.624 0 1 1 .726 1.015c-.35.25-.377.459-.217 1.468.166 1.05-.279 1.89-1.251 2.396a.624.624 0 1 1-.575-1.108c.504-.262.674-.583.593-1.093-.229-1.446-.148-2.054.724-2.678z"/>
                </g>
                <path fill="#E8CCC8" d="M218.468 130.094c0 2.123-1.689 3.845-3.773 3.845-2.085 0-3.775-1.722-3.775-3.845s1.69-3.844 3.775-3.844c2.084 0 3.773 1.721 3.773 3.844"/>
                <path fill="#FA96A0" d="M221.45 135.666a1.89 1.89 0 0 1-1.138-1.875l.903-2.402 3.474 1.475-1.1 2.317a1.89 1.89 0 0 1-2.139.485z"/>
                <path fill="#E8CCC8" d="M236.081 130.094c0 2.123-1.69 3.845-3.773 3.845-2.085 0-3.775-1.722-3.775-3.845s1.69-3.844 3.775-3.844c2.084 0 3.773 1.721 3.773 3.844"/>
                <path fill="#D1BFA3" fill-rule="nonzero" d="M224.537 124.371a.63.63 0 0 1-.745-.495.64.64 0 0 1 .486-.759c.846-.181 1.554-.042 1.943.623.756 1.295.493 2.786-.7 3.819-.693.6-1.666.815-2.346.397a.648.648 0 0 1-.213-.88c.18-.303.567-.4.864-.217.149.092.56 0 .88-.277.73-.632.873-1.436.434-2.186-.041-.07-.224-.106-.603-.025z"/>
                <path fill="#635E59" fill-rule="nonzero" d="M227.923 122.25a.642.642 0 0 0 .457.777.628.628 0 0 0 .763-.466c.356-1.449.973-2.078 1.906-2.078.933 0 1.55.63 1.906 2.078a.628.628 0 0 0 .763.466.642.642 0 0 0 .457-.777c-.483-1.968-1.543-3.048-3.126-3.048s-2.643 1.08-3.126 3.048z"/>
                <path fill="#635E59" d="M216.59 123.683c-1.734.116-2.22-2.123-1.697-3.583.099-.278.673-1.539 1.689-1.539 1.015 0 1.463.69 1.525.809.747 1.424.381 4.188-1.517 4.313"/>
                <path fill="#593A32" fill-rule="nonzero" d="M226.58 131.662a.646.646 0 0 0-.282-.86.624.624 0 0 0-.844.287c-.302.615-.915.927-1.953.927s-1.652-.312-1.954-.927a.624.624 0 0 0-.844-.286.646.646 0 0 0-.281.86c.537 1.093 1.6 1.635 3.079 1.635 1.478 0 2.541-.542 3.078-1.636z"/>
                <path fill="#C6C2BF" d="M246.8 164.08H200v-15.416c0-1.825 2.125-3.304 4.745-3.304h37.31c2.62 0 4.745 1.479 4.745 3.304v15.416z"/>
                <path fill="#FFF" d="M203.313 145.36h40.174c2.691 0 4.873 2.095 4.873 4.68 0 2.585-2.182 4.68-4.873 4.68h-40.174c-2.691 0-4.873-2.095-4.873-4.68 0-2.585 2.182-4.68 4.873-4.68z"/>
            </g>
            <g>
                <g transform="translate(156.32 137.56)">
                    <mask id="o" fill="#fff">
                        <use xlink:href="#n"/>
                    </mask>
                    <use fill="#D8A25D" xlink:href="#n"/>
                    <g fill="#5EAEC7" mask="url(#o)">
                        <path d="M-64.163 96.76h178.6v-181h-178.6z"/>
                    </g>
                </g>
                <path fill="#E7E5E2" d="M150.131 114.16c.803-12.196 10.95-21.84 23.349-21.84 12.4 0 22.546 9.644 23.349 21.84h.051a3.12 3.12 0 0 1 3.12 3.12v3.12a3.12 3.12 0 0 1-4.362 2.863 23.464 23.464 0 0 1-14.361 14.527 7.8 7.8 0 0 1-15.594 0 23.464 23.464 0 0 1-14.36-14.527 3.12 3.12 0 0 1-4.362-2.863l-.001-3.12a3.12 3.12 0 0 1 3.171-3.12z"/>
                <path fill="#E8CCC8" d="M167.24 126.64a4.68 4.68 0 1 1-9.36.001 4.68 4.68 0 0 1 9.36-.002M189.08 126.64a4.68 4.68 0 1 1-9.36.001 4.68 4.68 0 0 1 9.36-.002"/>
                <path fill="#D1BFA3" fill-rule="nonzero" d="M174.765 119.673a.78.78 0 0 1-.32-1.527c1.048-.22 1.925-.05 2.408.759.938 1.575.611 3.39-.868 4.648-.86.731-2.066.993-2.909.483a.78.78 0 0 1 .808-1.334c.184.111.694 0 1.09-.337.906-.77 1.083-1.748.539-2.662-.051-.086-.277-.13-.748-.03z"/>
                <path fill="#635E59" fill-rule="nonzero" d="M160.243 117.09a.78.78 0 0 0 1.514.379c.44-1.764 1.206-2.53 2.363-2.53s1.922.766 2.363 2.53a.78.78 0 0 0 1.514-.378c-.6-2.397-1.914-3.711-3.877-3.711-1.963 0-3.278 1.314-3.877 3.71zM178.963 117.09a.78.78 0 1 0 1.514.379c.44-1.764 1.206-2.53 2.363-2.53s1.922.766 2.363 2.53a.78.78 0 0 0 1.514-.378c-.6-2.397-1.914-3.711-3.877-3.711-1.963 0-3.278 1.314-3.877 3.71z"/>
                <path fill="#593A32" d="M168.8 126.64h9.36c0 3.446-2.095 6.24-4.68 6.24-2.585 0-4.68-2.794-4.68-6.24z"/>
                <path fill="#FA96A0" d="M173.349 132.88c-1.22 0-2.194-.416-2.989-1.56.148-1.586 1.357-3.12 2.989-3.12 1.631 0 3.103 1.534 3.251 3.12-.795 1.144-2.03 1.56-3.251 1.56z"/>
                <g fill="#78706A" fill-rule="nonzero">
                    <path d="M168.378 94.303a.78.78 0 0 1 1.504.415c-.157.567-.005.815 1.006 1.725 1.027.925 1.265 2.136.695 3.443a.78.78 0 1 1-1.43-.624c.306-.702.21-1.192-.309-1.66-1.422-1.28-1.836-1.959-1.466-3.3zM172.955 93.877a.78.78 0 1 1 1.256.927c-.35.473-.297.759.32 1.971.628 1.232.417 2.447-.584 3.463a.78.78 0 1 1-1.112-1.094c.538-.546.624-1.038.307-1.66-.869-1.705-1.012-2.488-.187-3.607zM177.44 93.84a.78.78 0 0 1 .907 1.27c-.478.341-.517.63-.304 1.973.216 1.365-.36 2.456-1.626 3.113a.78.78 0 1 1-.72-1.384c.681-.353.914-.795.805-1.485-.3-1.89-.194-2.678.937-3.487z"/>
                </g>
            </g>
        </g>
    </g>
</svg>
