<svg xmlns="http://www.w3.org/2000/svg" xmlns:xlink="http://www.w3.org/1999/xlink" width="370" height="164" viewBox="0 0 370 164">
    <defs>
        <path id="a" d="M.164 42.342A9.83 9.83 0 0 1 0 40.544C0 18.153 16.43 0 36.7 0c20.266 0 36.697 18.153 36.697 40.544 0 .15-.004.297-.01.444l.095-.001s.042 43.158-36.793 43.158C-.143 84.145 0 98.999 0 98.999V42.345l.164-.003z"/>
        <path id="c" d="M56.75 4.616c8.796 4.28 22.476 15.876 22.476 26.628v35.533H0V31.244C0 20.87 12.517 9.71 21.213 5.094c-.44.266-.673.427-.673.427 1.498 2.454 5.526 13.35 18.158 13.35 12.635 0 18.52-11.698 18.52-13.984a39.23 39.23 0 0 0-.469-.271z"/>
        <path id="e" d="M82.221 78.075v12.628H53.958V78.075c0-3.612 4.617-7.737 7.708-9.435h12.847c3.12 1.728 7.708 5.864 7.708 9.435z"/>
    </defs>
    <g fill="none" fill-rule="evenodd">
        <path fill="#EFEFEF" d="M24 105h102V1H24z"/>
        <path fill="#838688" d="M36 9.002a4 4 0 1 1-8-.003 4 4 0 0 1 8 .003M123 9.002A3.998 3.998 0 0 1 119 13a4 4 0 1 1 4-3.998"/>
        <path fill="#E9C264" d="M67.7 76.775c3.48.696-24.379-.49-28.224 0C35.634 77.27 37.41 52 37.41 52h28.224S64.213 76.088 67.7 76.775"/>
        <path fill="#DAB25B" d="M66.006 73H37.5c.37 2.347.991 3.912 2.015 3.795 3.854-.455 31.771.636 28.284 0-.874-.157-1.434-1.648-1.793-3.795"/>
        <path fill="#E9C264" d="M109.7 61.778c3.477.69-24.38-.493-28.223 0C77.632 62.272 79.41 37 79.41 37h28.222s-1.416 24.089 2.068 24.778"/>
        <path fill="#DAB25B" d="M108.48 58H79.6c.375 2.35 1.003 3.916 2.044 3.797 3.901-.455 32.18.632 28.652 0-.886-.162-1.457-1.647-1.817-3.797"/>
        <path fill="#E9C264" d="M75.7 37.779c3.483.688-24.378-.495-28.224 0C43.634 38.267 45.41 13 45.41 13h28.223S72.216 37.087 75.7 37.779"/>
        <path fill="#DAB25B" d="M74.01 34H45.5c.37 2.348.99 3.917 2.015 3.797 3.854-.456 31.775.632 28.284 0-.871-.159-1.435-1.651-1.79-3.797"/>
        <g>
            <path fill="#C4E8F5" d="M214.845 128.871h126.131V3.192h-126.13z"/>
            <path stroke="#403A33" stroke-linecap="round" stroke-linejoin="round" stroke-width="4" d="M214.845 128.871h126.131V3.192h-126.13z"/>
            <path fill="#B7BE34" d="M214.845 91.628c51.475-7.926 46.011 25.32 126.131 8.249v28.995h-126.13V91.628z"/>
            <path fill="#FFF" d="M310.98 41.438c0-4.71-3.833-8.529-8.562-8.529-4.727 0-8.56 3.819-8.56 8.529 0 4.712 3.833 8.53 8.56 8.53 4.729 0 8.562-3.818 8.562-8.53"/>
            <path fill="#FFF" d="M300.466 48.377c0-6.412-5.217-11.611-11.652-11.611s-11.654 5.2-11.654 11.611c0 6.412 5.219 11.61 11.654 11.61s11.652-5.198 11.652-11.61"/>
            <path fill="#FFF" d="M308.106 54.044c0-3.131-2.546-5.666-5.688-5.666-3.14 0-5.686 2.535-5.686 5.666 0 3.129 2.546 5.666 5.686 5.666 3.142 0 5.688-2.537 5.688-5.666"/>
            <path stroke="#403A33" stroke-linecap="round" stroke-linejoin="round" stroke-width="3" d="M214.845 66.032h63.066V3.192h-63.066z"/>
            <path stroke="#514C47" stroke-linecap="round" stroke-linejoin="round" stroke-width="3" d="M277.91 66.032h63.066V3.192h-63.065zM214.845 128.871h63.066V66.032h-63.066z"/>
            <path stroke="#514C47" stroke-linecap="round" stroke-linejoin="round" stroke-width="3" d="M277.91 128.871h63.066V66.032h-63.065z"/>
            <path stroke="#514C47" stroke-linecap="round" stroke-linejoin="round" stroke-width="6" d="M198 128.871h159.822"/>
            <path fill="#FFF" d="M238.636 19.109c0 4.424-3.6 8.01-8.04 8.01-4.44 0-8.04-3.586-8.04-8.01 0-4.424 3.6-8.012 8.04-8.012 4.44 0 8.04 3.588 8.04 8.012"/>
            <path fill="#FFF" d="M248.868 16.336c0 3.258-2.651 5.897-5.92 5.897s-5.92-2.64-5.92-5.897c0-3.259 2.651-5.898 5.92-5.898s5.92 2.64 5.92 5.898"/>
            <path fill="#FFF" d="M258.36 25.007c0 4.397-3.577 7.961-7.99 7.961-4.414 0-7.99-3.564-7.99-7.961 0-4.398 3.576-7.962 7.99-7.962 4.413 0 7.99 3.564 7.99 7.962M233.797 28.574a3.197 3.197 0 0 1-3.201 3.19 3.197 3.197 0 0 1-3.202-3.19 3.197 3.197 0 0 1 3.202-3.19 3.197 3.197 0 0 1 3.201 3.19"/>
            <path fill="#FFF" d="M244.749 30.957c0 3.227-2.624 5.841-5.862 5.841-3.237 0-5.861-2.614-5.861-5.841 0-3.225 2.624-5.842 5.86-5.842 3.239 0 5.863 2.617 5.863 5.842"/>
            <path fill="#FFF" d="M245.501 23.792c0-3.956-3.218-7.164-7.19-7.164-3.972 0-7.19 3.208-7.19 7.164 0 3.958 3.218 7.165 7.19 7.165 3.972 0 7.19-3.207 7.19-7.165"/>
            <path stroke="#514C47" stroke-linecap="round" stroke-linejoin="round" stroke-width="4" d="M214.845 128.871h126.131V3.192h-126.13z"/>
        </g>
        <g>
            <g transform="translate(134.673 23.68)">
                <mask id="b" fill="#fff">
                    <use xlink:href="#a"/>
                </mask>
                <g fill="#3E3832" mask="url(#b)">
                    <path d="M-13.113-1.46H87.55v115.224H-13.113z"/>
                </g>
            </g>
            <path fill="#E7E5E2" d="M152.273 102.176c1.493 2.389 5.688 44.354 18.28 44.354 12.596 0 18.282-42.745 18.282-44.97-19.283-11.047-36.562.616-36.562.616z"/>
            <g transform="translate(131.798 96.805)">
                <mask id="d" fill="#fff">
                    <use xlink:href="#c"/>
                </mask>
                <use fill="#D8A25D" xlink:href="#c"/>
                <g mask="url(#d)">
                    <path fill="#0C5472" d="M-48.416 108.476h184.704V-36.292H-48.416z"/>
                </g>
            </g>
            <path fill="#E7E5E2" d="M141.362 63.929s-.154.87-.352.727a2.374 2.374 0 0 0-.887-.18c-1.356-.001-2.46 1.138-2.462 2.545l-.013 9.735c-.003 1.407 1.094 2.548 2.453 2.551a2.38 2.38 0 0 0 1.45-.498c3.284 15.676 14.99 26.747 28.95 26.771 13.96.023 25.703-11.011 29.033-26.676.406.31.904.501 1.449.502 1.358.002 2.46-1.137 2.462-2.543l.015-9.736c.001-1.407-1.096-2.549-2.454-2.551-.313 0-.612.066-.887.177-31.482 3.731-42.463-17.672-43.391-17.673 0 0-13.167 12.325-15.366 16.849z"/>
            <g>
                <path fill="#635E59" d="M160.147 73.069c-2.13.159-2.725-2.954-2.084-4.987.12-.385.826-2.14 2.074-2.14 1.246 0 1.797.96 1.873 1.125.917 1.981.467 5.827-1.863 6.002M183.914 73.069c2.13.159 2.726-2.954 2.084-4.987-.12-.385-.826-2.14-2.074-2.14a2.095 2.095 0 0 0-1.873 1.125c-.917 1.981-.467 5.827 1.863 6.002"/>
                <path fill="#D1BFA3" fill-rule="nonzero" d="M172.706 76.648c1.252-.192 2.108-.072 2.414.301 1.156 1.41.786 2.9-1.197 4.124-1.043.643-2.479.87-3.239.536a.738.738 0 0 0-.97.372c-.165.368.003.8.375.962 1.256.552 3.187.247 4.611-.631 2.696-1.663 3.313-4.15 1.561-6.284-.74-.902-2.053-1.086-3.779-.823a.73.73 0 0 0-.615.832.735.735 0 0 0 .839.61z"/>
                <path fill="#D19E9C" fill-rule="nonzero" d="M181.094 87.287a6.63 6.63 0 0 1-.463.82 10.367 10.367 0 0 1-1.566 1.89c-1.882 1.793-4.332 2.83-7.45 2.735-3.04-.092-5.478-1.113-7.39-2.759a10.912 10.912 0 0 1-1.745-1.897 6.63 6.63 0 0 1-.518-.82.739.739 0 0 0-.985-.332.727.727 0 0 0-.336.977c.108.218.319.574.64 1.022a12.368 12.368 0 0 0 1.98 2.152c2.157 1.858 4.916 3.013 8.31 3.116 3.534.108 6.359-1.088 8.514-3.141a11.82 11.82 0 0 0 1.787-2.158c.288-.448.475-.804.57-1.021a.727.727 0 0 0-.38-.96.738.738 0 0 0-.968.376z"/>
            </g>
            <g>
                <path fill="#9B9590" d="M171.48 100.12c12.062 0 21.84 9.392 21.84 20.978v20.444c0 11.586-9.778 20.978-21.84 20.978s-21.84-9.392-21.84-20.978v-20.444c0-11.586 9.778-20.978 21.84-20.978z"/>
                <path fill="#C6C2BF" d="M139.269 110.498l6.295-5.308a1.685 1.685 0 0 1 2.298.133c.138.148.245.32.314.508l15.41 41.245c.3.803-.137 1.685-.977 1.977l-7.072 2.453c-.844.293-1.778-.122-2.086-.927l-14.633-38.39a1.502 1.502 0 0 1 .45-1.69zM203.691 110.498c.5.422.68 1.092.451 1.69l-14.633 38.39v.001c-.308.805-1.242 1.22-2.086.927l-7.072-2.453c-.84-.292-1.276-1.174-.976-1.977l15.409-41.245c.07-.187.176-.36.314-.508a1.685 1.685 0 0 1 2.298-.133l6.295 5.308z"/>
                <g transform="translate(103.482 70.48)">
                    <mask id="f" fill="#fff">
                        <use xlink:href="#e"/>
                    </mask>
                    <use fill="#D8A25D" xlink:href="#e"/>
                    <g mask="url(#f)">
                        <path fill="#5C4378" d="M1.117 146.765h146.765V0H1.117z"/>
                    </g>
                </g>
                <path fill="#FFBD66" d="M163.178 161.183h15.588l2.441-20.224c-.282-.245-1.927-1.39-1.927-1.226l-1.913 9.721-12.635.405-.868-10.126s-1.97 1.209-2.57 1.838l1.884 19.612z"/>
                <path fill="#E7E5E2" d="M152.796 120.797c.6-9.797 8.736-17.557 18.684-17.557s18.084 7.76 18.684 17.557a3.12 3.12 0 0 1 1.596 2.723v3.12a3.12 3.12 0 0 1-3.256 3.117 18.78 18.78 0 0 1-10.804 9.865 6.24 6.24 0 0 1-12.44 0 18.78 18.78 0 0 1-10.804-9.865 3.12 3.12 0 0 1-3.256-3.117v-3.12a3.12 3.12 0 0 1 1.596-2.723z"/>
                <g fill="#78706A" fill-rule="nonzero">
                    <path d="M167.555 105.355a.624.624 0 1 1 1.203.332c-.114.414-.004.594.755 1.277.79.711.974 1.645.536 2.65a.624.624 0 1 1-1.144-.5c.227-.52.156-.877-.227-1.222-1.088-.98-1.408-1.504-1.123-2.537zM171.033 105.022a.624.624 0 0 1 1.005.741c-.255.346-.217.553.246 1.463.483.947.32 1.884-.449 2.665a.624.624 0 0 1-.889-.876c.398-.404.46-.763.226-1.223-.664-1.304-.775-1.908-.139-2.77zM174.443 104.987a.624.624 0 1 1 .726 1.015c-.35.25-.377.459-.217 1.468.166 1.05-.279 1.89-1.251 2.396a.624.624 0 1 1-.575-1.108c.504-.262.674-.583.593-1.093-.229-1.446-.148-2.054.724-2.678z"/>
                </g>
                <g>
                    <path fill="#E8CCC8" d="M166.548 130.094c0 2.123-1.689 3.845-3.773 3.845-2.085 0-3.775-1.722-3.775-3.845s1.69-3.844 3.775-3.844c2.084 0 3.773 1.721 3.773 3.844M184.161 130.094c0 2.123-1.69 3.845-3.773 3.845-2.085 0-3.775-1.722-3.775-3.845s1.69-3.844 3.775-3.844c2.084 0 3.773 1.721 3.773 3.844"/>
                    <path fill="#D1BFA3" fill-rule="nonzero" d="M172.617 124.371a.63.63 0 0 1-.745-.495.64.64 0 0 1 .486-.759c.846-.181 1.554-.042 1.943.623.756 1.295.493 2.786-.7 3.819-.693.6-1.666.815-2.346.397a.648.648 0 0 1-.213-.88c.18-.303.567-.4.864-.217.149.092.56 0 .88-.277.73-.632.873-1.436.434-2.186-.041-.07-.224-.106-.603-.025z"/>
                    <path fill="#635E59" fill-rule="nonzero" d="M160.906 122.25a.642.642 0 0 0 .458.777.628.628 0 0 0 .762-.466c.356-1.449.973-2.078 1.906-2.078.933 0 1.55.63 1.906 2.078a.628.628 0 0 0 .763.466.642.642 0 0 0 .458-.777c-.483-1.968-1.544-3.048-3.127-3.048-1.583 0-2.643 1.08-3.126 3.048zM176.003 122.25a.642.642 0 0 0 .457.777.628.628 0 0 0 .763-.466c.356-1.449.973-2.078 1.906-2.078.933 0 1.55.63 1.906 2.078a.628.628 0 0 0 .763.466.642.642 0 0 0 .457-.777c-.483-1.968-1.543-3.048-3.126-3.048s-2.643 1.08-3.126 3.048z"/>
                    <path fill="#593A32" d="M167.806 130.094h7.549c0 2.831-1.69 5.126-3.774 5.126-2.085 0-3.775-2.295-3.775-5.126z"/>
                    <path fill="#FA96A0" d="M171.475 135.22c-.985 0-1.77-.342-2.41-1.281.12-1.303 1.094-2.563 2.41-2.563 1.315 0 2.502 1.26 2.622 2.563-.642.94-1.638 1.281-2.622 1.281z"/>
                </g>
                <path fill="#C6C2BF" d="M193.32 164.08h-43.68v-15.416c0-1.825 1.983-3.304 4.43-3.304h34.82c2.447 0 4.43 1.479 4.43 3.304v15.416z"/>
                <path fill="#FFF" d="M151.393 145.36h40.174c2.691 0 4.873 2.095 4.873 4.68 0 2.585-2.182 4.68-4.873 4.68h-40.174c-2.691 0-4.873-2.095-4.873-4.68 0-2.585 2.182-4.68 4.873-4.68z"/>
            </g>
        </g>
    </g>
</svg>
