<svg xmlns="http://www.w3.org/2000/svg" width="370" height="164" viewBox="0 0 370 164">
    <g fill="none" fill-rule="evenodd">
        <path fill="#EFEFEF" d="M24 105h102V1H24z"/>
        <path fill="#838688" d="M36 9.002a4 4 0 1 1-8-.003 4 4 0 0 1 8 .003M123 9.002A3.998 3.998 0 0 1 119 13a4 4 0 1 1 4-3.998"/>
        <path fill="#E9C264" d="M67.7 76.775c3.48.696-24.379-.49-28.224 0C35.634 77.27 37.41 52 37.41 52h28.224S64.213 76.088 67.7 76.775"/>
        <path fill="#DAB25B" d="M66.006 73H37.5c.37 2.347.991 3.912 2.015 3.795 3.854-.455 31.771.636 28.284 0-.874-.157-1.434-1.648-1.793-3.795"/>
        <path fill="#E9C264" d="M109.7 61.778c3.477.69-24.38-.493-28.223 0C77.632 62.272 79.41 37 79.41 37h28.222s-1.416 24.089 2.068 24.778"/>
        <path fill="#DAB25B" d="M108.48 58H79.6c.375 2.35 1.003 3.916 2.044 3.797 3.901-.455 32.18.632 28.652 0-.886-.162-1.457-1.647-1.817-3.797"/>
        <path fill="#E9C264" d="M75.7 37.779c3.483.688-24.378-.495-28.224 0C43.634 38.267 45.41 13 45.41 13h28.223S72.216 37.087 75.7 37.779"/>
        <path fill="#DAB25B" d="M74.01 34H45.5c.37 2.348.99 3.917 2.015 3.797 3.854-.456 31.775.632 28.284 0-.871-.159-1.435-1.651-1.79-3.797"/>
        <g>
            <path fill="#C4E8F5" d="M214.845 128.871h126.131V3.192h-126.13z"/>
            <path stroke="#403A33" stroke-linecap="round" stroke-linejoin="round" stroke-width="4" d="M214.845 128.871h126.131V3.192h-126.13z"/>
            <path fill="#B7BE34" d="M214.845 91.628c51.475-7.926 46.011 25.32 126.131 8.249v28.995h-126.13V91.628z"/>
            <path fill="#FFF" d="M310.98 41.438c0-4.71-3.833-8.529-8.562-8.529-4.727 0-8.56 3.819-8.56 8.529 0 4.712 3.833 8.53 8.56 8.53 4.729 0 8.562-3.818 8.562-8.53"/>
            <path fill="#FFF" d="M300.466 48.377c0-6.412-5.217-11.611-11.652-11.611s-11.654 5.2-11.654 11.611c0 6.412 5.219 11.61 11.654 11.61s11.652-5.198 11.652-11.61"/>
            <path fill="#FFF" d="M308.106 54.044c0-3.131-2.546-5.666-5.688-5.666-3.14 0-5.686 2.535-5.686 5.666 0 3.129 2.546 5.666 5.686 5.666 3.142 0 5.688-2.537 5.688-5.666"/>
            <path stroke="#403A33" stroke-linecap="round" stroke-linejoin="round" stroke-width="3" d="M214.845 66.032h63.066V3.192h-63.066z"/>
            <path stroke="#514C47" stroke-linecap="round" stroke-linejoin="round" stroke-width="3" d="M277.91 66.032h63.066V3.192h-63.065zM214.845 128.871h63.066V66.032h-63.066z"/>
            <path stroke="#514C47" stroke-linecap="round" stroke-linejoin="round" stroke-width="3" d="M277.91 128.871h63.066V66.032h-63.065z"/>
            <path stroke="#514C47" stroke-linecap="round" stroke-linejoin="round" stroke-width="6" d="M198 128.871h159.822"/>
            <path fill="#FFF" d="M238.636 19.109c0 4.424-3.6 8.01-8.04 8.01-4.44 0-8.04-3.586-8.04-8.01 0-4.424 3.6-8.012 8.04-8.012 4.44 0 8.04 3.588 8.04 8.012"/>
            <path fill="#FFF" d="M248.868 16.336c0 3.258-2.651 5.897-5.92 5.897s-5.92-2.64-5.92-5.897c0-3.259 2.651-5.898 5.92-5.898s5.92 2.64 5.92 5.898"/>
            <path fill="#FFF" d="M258.36 25.007c0 4.397-3.577 7.961-7.99 7.961-4.414 0-7.99-3.564-7.99-7.961 0-4.398 3.576-7.962 7.99-7.962 4.413 0 7.99 3.564 7.99 7.962M233.797 28.574a3.197 3.197 0 0 1-3.201 3.19 3.197 3.197 0 0 1-3.202-3.19 3.197 3.197 0 0 1 3.202-3.19 3.197 3.197 0 0 1 3.201 3.19"/>
            <path fill="#FFF" d="M244.749 30.957c0 3.227-2.624 5.841-5.862 5.841-3.237 0-5.861-2.614-5.861-5.841 0-3.225 2.624-5.842 5.86-5.842 3.239 0 5.863 2.617 5.863 5.842"/>
            <path fill="#FFF" d="M245.501 23.792c0-3.956-3.218-7.164-7.19-7.164-3.972 0-7.19 3.208-7.19 7.164 0 3.958 3.218 7.165 7.19 7.165 3.972 0 7.19-3.207 7.19-7.165"/>
            <path stroke="#514C47" stroke-linecap="round" stroke-linejoin="round" stroke-width="4" d="M214.845 128.871h126.131V3.192h-126.13z"/>
        </g>
        <g>
            <path fill="#3E3832" d="M134.723 64.29c0-22.428 16.49-40.61 36.838-40.61 20.343 0 36.922 18.132 36.922 40.56v.492s.042 43.227-36.932 43.227c-36.972 0-36.829 14.879-36.829 14.879V66.093v-1.804z"/>
            <path fill="#E7E5E2" d="M152.273 102.176c1.493 2.389 5.688 44.354 18.28 44.354 12.596 0 18.282-42.745 18.282-44.97-19.283-11.047-36.562.616-36.562.616z"/>
            <path fill="#0C5472" d="M188.367 101.455c8.77 4.312 22.406 15.995 22.406 26.827v35.798h-78.975v-35.798c0-10.452 12.476-21.694 21.145-26.345-.44.268-.67.43-.67.43 1.493 2.473 5.508 13.45 18.1 13.45 12.595 0 18.462-11.785 18.462-14.089a39.005 39.005 0 0 0-.468-.273z"/>
            <path fill="#F5A096" d="M194.441 105.112a56.73 56.73 0 0 1 6.287 5.147l-7.21 21.76a12.798 12.798 0 0 1-1.02 4.765c5.376 2.93 9.692 7.132 12.425 12.582v14.714H133.26c0-11.961 5.252-20.66 13.505-26.001 5.91-3.676 13.367-5.52 22.386-5.52 6.056 0 11.314 1.055 15.834 3.046a.817.817 0 0 0 1.075-.411.806.806 0 0 0-.414-1.067c-4.733-2.084-10.217-3.184-16.495-3.184-8.102 0-15.028 1.453-20.768 4.368l-1.88-7.46-5.568-16.838a55.853 55.853 0 0 1 6.222-5.364l5.518 15.572c.178.042.357.084.536.124a13.037 13.037 0 0 1 7.737-2.526 13.04 13.04 0 0 1 9.772 4.378 13.04 13.04 0 0 1 9.772-4.378c2.855 0 5.495.912 7.641 2.457l.628-.155 5.68-16.009z"/>
            <path fill="#A13A28" d="M164.66 152.894c-2.445-2.789-3.26-8.366 0-10.225 1.965-1.12 3.93-.38 5.894 1.537 1.964-1.917 3.929-2.658 5.893-1.537 3.26 1.859 2.445 7.436 0 10.225-1.37 1.563-5.687 5.435-5.893 5.334-.206.1-4.523-3.77-5.894-5.334z"/>
            <path fill="#E6E5E2" fill-rule="nonzero" d="M204.923 147.592v16.488h-22.81c-.873 0-1.58-.71-1.58-1.584 0-.875.707-1.585 1.58-1.585h8.693v-.792H178.12c-.852 0-1.54-.71-1.54-1.584 0-.875.688-1.585 1.54-1.585h12.685v-.792h-15.054c-.851 0-1.542-.71-1.542-1.585s.69-1.584 1.542-1.584h15.054v-.792h-10.861c-.984 0-1.784-.709-1.784-1.584 0-.875.8-1.585 1.784-1.585h14.12l1.705-.792h-7.335c-.873 0-1.58-.71-1.58-1.584 0-.875.707-1.584 1.58-1.584h11.544c.617 0 1.139.375 1.89.792.332.184 1.35.761 3.054 1.732z"/>
            <path fill="#E7E5E2" d="M141.362 63.929s-.154.87-.352.727a2.374 2.374 0 0 0-.887-.18c-1.356-.001-2.46 1.138-2.462 2.545l-.013 9.735c-.003 1.407 1.094 2.548 2.453 2.551a2.38 2.38 0 0 0 1.45-.498c3.284 15.676 14.99 26.747 28.95 26.771 13.96.023 25.703-11.011 29.033-26.676.406.31.904.501 1.449.502 1.358.002 2.46-1.137 2.462-2.543l.015-9.736c.001-1.407-1.096-2.549-2.454-2.551-.313 0-.612.066-.887.177-31.482 3.731-42.463-17.672-43.391-17.673 0 0-13.167 12.325-15.366 16.849z"/>
            <g>
                <g fill="#635E59">
                    <path d="M160.061 73.087c-2.116.16-2.708-2.96-2.07-4.997.12-.386.82-2.144 2.06-2.144 1.239 0 1.786.96 1.862 1.126.911 1.986.463 5.84-1.852 6.015M183.68 73.087c2.116.16 2.708-2.96 2.07-4.997-.12-.386-.82-2.144-2.06-2.144-1.239 0-1.786.96-1.862 1.126-.91 1.986-.463 5.84 1.852 6.015"/>
                </g>
                <path fill="#D1BFA3" fill-rule="nonzero" d="M172.542 76.674c1.244-.192 2.094-.072 2.399.302 1.149 1.412.781 2.906-1.19 4.132-1.037.645-2.463.872-3.218.537a.731.731 0 1 0-.592 1.338c1.248.552 3.168.247 4.582-.633 2.68-1.667 3.292-4.159 1.552-6.298-.737-.904-2.04-1.088-3.756-.824a.731.731 0 0 0 .223 1.446z"/>
                <path fill="#D19E9C" fill-rule="nonzero" d="M180.877 87.336a6.66 6.66 0 0 1-.46.821 10.371 10.371 0 0 1-1.556 1.895c-1.87 1.797-4.305 2.836-7.403 2.741-3.02-.093-5.444-1.116-7.344-2.765a10.902 10.902 0 0 1-1.734-1.901 6.654 6.654 0 0 1-.515-.821.731.731 0 1 0-1.313.645c.108.219.317.575.636 1.024a12.357 12.357 0 0 0 1.967 2.157c2.145 1.862 4.886 3.02 8.258 3.123 3.512.108 6.32-1.09 8.461-3.148a11.824 11.824 0 0 0 1.776-2.163c.286-.449.473-.805.568-1.023a.731.731 0 1 0-1.34-.585z"/>
            </g>
        </g>
    </g>
</svg>
