<svg xmlns="http://www.w3.org/2000/svg" xmlns:xlink="http://www.w3.org/1999/xlink" width="370" height="164" viewBox="0 0 370 164">
    <defs>
        <path id="a" d="M41.923 0H29.339C22.553 0 0 15.943 0 30.456V68.64h84.24V30.456C84.24 15.943 61.293 0 54.51 0H41.922z"/>
        <path id="c" d="M64.848 43.778c.508-.6.169-2.098.169-4.008 0-21.105-14.216-38.21-31.75-38.21-17.536 0-31.752 17.105-31.752 38.21 0 2.78.1 5.542.993 5.468.526-10.28 3.54-17.683 4.624-20.52 2.148-5.622 4.362-8.776 11.77-4.385C26.224 24.675 61.69-2.428 64.737 43.93c-.102.107-.065.057.111-.152z"/>
        <path id="e" d="M82.221 78.075v12.628H53.958V78.075c0-3.612 4.617-7.737 7.708-9.435h12.847c3.12 1.728 7.708 5.864 7.708 9.435z"/>
        <path id="g" d="M24.226 2.617c1.353 1.204 2.687 2.672 3.395 4.124-.427.265-2.435.265-2.66-.367.237.61.078 1.332-.442 1.777a1.52 1.52 0 0 1-2.102-.115 1.583 1.583 0 0 1-.619 2.034 1.517 1.517 0 0 1-1.682-.094 1.572 1.572 0 0 1-.998 1.7 1.516 1.516 0 0 1-1.465-.23 1.546 1.546 0 0 1-1.17.984 1.521 1.521 0 0 1-1.37-.45 1.537 1.537 0 0 1-1.378.867 1.534 1.534 0 0 1-1.324-.767 1.517 1.517 0 0 1-1.266.35 1.546 1.546 0 0 1-1.17-.984c-.404.316-.952.42-1.466.23a1.572 1.572 0 0 1-.997-1.7 1.517 1.517 0 0 1-1.682.094 1.583 1.583 0 0 1-.62-2.034 1.52 1.52 0 0 1-2.1.115 1.588 1.588 0 0 1-.443-1.777c-.447.2-.962-.615-1.382-.858.645-1.01 1.676-2.04 2.742-2.94.887 3.417 5.074 6.004 10.105 6.004 5.011 0 9.185-2.566 10.094-5.963z"/>
    </defs>
    <g fill="none" fill-rule="evenodd">
        <path fill="#EFEFEF" d="M25 105h102V1H25z"/>
        <path fill="#838688" d="M37 9.002a4 4 0 1 1-8-.003 4 4 0 0 1 8 .003M124 9.002A3.998 3.998 0 0 1 120 13a4 4 0 1 1 4-3.998"/>
        <path fill="#E9C264" d="M68.7 76.775c3.48.696-24.379-.49-28.224 0C36.634 77.27 38.41 52 38.41 52h28.224S65.213 76.088 68.7 76.775"/>
        <path fill="#DAB25B" d="M67.006 73H38.5c.37 2.347.991 3.912 2.015 3.795 3.854-.455 31.771.636 28.284 0-.874-.157-1.434-1.648-1.793-3.795"/>
        <path fill="#E9C264" d="M110.7 61.778c3.477.69-24.38-.493-28.223 0C78.632 62.272 80.41 37 80.41 37h28.222s-1.416 24.089 2.068 24.778"/>
        <path fill="#DAB25B" d="M109.48 58H80.6c.375 2.35 1.003 3.916 2.044 3.797 3.901-.455 32.18.632 28.652 0-.886-.162-1.457-1.647-1.817-3.797"/>
        <path fill="#E9C264" d="M76.7 37.779c3.483.688-24.378-.495-28.224 0C44.634 38.267 46.41 13 46.41 13h28.223S73.216 37.087 76.7 37.779"/>
        <path fill="#DAB25B" d="M75.01 34H46.5c.37 2.348.99 3.917 2.015 3.797 3.854-.456 31.775.632 28.284 0-.871-.159-1.435-1.651-1.79-3.797"/>
        <g>
            <path fill="#9BBDCD" d="M217.949 128.871H344.08V3.192H217.95z"/>
            <path stroke="#403A33" stroke-linecap="round" stroke-linejoin="round" stroke-width="4" d="M217.949 128.871H344.08V3.192H217.95z"/>
            <path fill="#FFF" d="M312.45 49.61c.036-4.425 3.666-7.98 8.106-7.944 4.44.038 8.008 3.653 7.972 8.077-.037 4.424-3.667 7.982-8.107 7.944-4.44-.037-8.008-3.654-7.972-8.078"/>
            <path fill="#FFF" d="M302.194 52.297c.028-3.258 2.699-5.876 5.969-5.85 3.27.028 5.897 2.691 5.87 5.95-.028 3.257-2.7 5.875-5.968 5.849-3.27-.028-5.9-2.691-5.871-5.95"/>
            <path fill="#FFF" d="M292.776 43.547c.036-4.397 3.643-7.932 8.056-7.894 4.414.037 7.96 3.63 7.923 8.028-.037 4.396-3.644 7.93-8.057 7.894-4.412-.036-7.959-3.632-7.922-8.028M317.366 40.185a3.197 3.197 0 0 1 3.229-3.163 3.197 3.197 0 0 1 3.175 3.216 3.197 3.197 0 0 1-3.228 3.164 3.197 3.197 0 0 1-3.176-3.217"/>
            <path fill="#FFF" d="M306.435 37.71c.028-3.226 2.674-5.82 5.912-5.791 3.237.026 5.84 2.662 5.811 5.889-.026 3.227-2.672 5.82-5.91 5.793-3.237-.028-5.84-2.664-5.813-5.89"/>
            <path fill="#FFF" d="M305.623 44.868c-.033 3.958 3.159 7.191 7.13 7.224 3.97.033 7.217-3.147 7.25-7.105.034-3.956-3.158-7.189-7.13-7.222-3.97-.033-7.217 3.146-7.25 7.103"/>
            <path fill="#635E59" d="M318.062 107.288L278.73 55.895l-34.758 60.757z"/>
            <path fill="#74706C" d="M342.42 83.227l-25.56-42.74-33.03 73.887 58.59-9.475z"/>
            <path fill="#EDEDEC" d="M217.95 106.242c52.841 10.851 56.327-6.365 126.13-6.365v28.995H217.95v-22.63z"/>
            <path fill="#FFF" d="M277.272 21.283a8.509 8.509 0 0 1-1.889 11.915c-3.824 2.77-9.177 1.928-11.957-1.882-2.782-3.81-1.935-9.145 1.889-11.915 3.824-2.77 9.177-1.928 11.957 1.882"/>
            <path fill="#FFF" d="M264.674 21.832c3.784 5.186 2.632 12.446-2.571 16.219-5.207 3.77-12.494 2.623-16.278-2.564-3.784-5.186-2.633-12.448 2.57-16.217 5.208-3.773 12.494-2.625 16.279 2.562"/>
            <path fill="#FFF" d="M267.509 12.772a5.654 5.654 0 0 1-1.255 7.915c-2.541 1.84-6.098 1.282-7.944-1.25a5.652 5.652 0 0 1 1.255-7.915 5.699 5.699 0 0 1 7.944 1.25"/>
            <path stroke="#403A33" stroke-linecap="round" stroke-linejoin="round" stroke-width="3" d="M217.95 66.032h63.066V3.192h-63.065z"/>
            <path stroke="#514C47" stroke-linecap="round" stroke-linejoin="round" stroke-width="3" d="M281.016 66.032h63.066V3.192h-63.066zM217.95 128.871h63.066V66.032h-63.065zM281.016 128.871h63.066V66.032h-63.066z"/>
            <path stroke="#514C47" stroke-linecap="round" stroke-linejoin="round" stroke-width="6" d="M201.105 128.871h159.821"/>
            <path stroke="#514C47" stroke-linecap="round" stroke-linejoin="round" stroke-width="4" d="M217.949 128.871H344.08V3.192H217.95z"/>
        </g>
        <g>
            <path fill="#E7E5E2" d="M152.2 98.05c1.593 2.547 6.068 47.31 19.5 47.31 13.435 0 19.5-45.595 19.5-47.968-20.569-11.783-39 .658-39 .658z"/>
            <g transform="translate(130.36 95.44)">
                <mask id="b" fill="#fff">
                    <use xlink:href="#a"/>
                </mask>
                <use fill="#D8A25D" xlink:href="#a"/>
                <g mask="url(#b)">
                    <path fill="#117938" d="M-51.48 113.63h196.685V-42.12H-51.48z"/>
                </g>
            </g>
            <path fill="#FFF" d="M151.803 98.253c1.627 2.638 8.936 15.768 19.714 23.856 10.706-7.965 20.108-22.08 20.108-24.538-21.002-12.2-39.822.682-39.822.682z"/>
            <path fill="#E7E5E2" d="M203.973 74.02c-3.928 15.972-16.54 27.66-31.494 27.66-14.952 0-27.564-11.688-31.492-27.659a3.54 3.54 0 0 1-1.267.231c-1.72 0-3.12-1.203-3.12-2.692V60.694c0-1.49 1.4-2.694 3.12-2.694.111 0 .221.005.33.015 2.264-18.53 15.92-32.775 32.43-32.775 16.509 0 30.165 14.246 32.43 32.775.109-.01.219-.015.33-.015 1.724 0 3.12 1.204 3.12 2.694V71.56c0 1.49-1.396 2.692-3.12 2.692-.45 0-.88-.082-1.267-.231z"/>
            <g>
                <path fill="#635E59" d="M160.047 62.094c-2.257.17-2.889-3.157-2.21-5.33.13-.412.877-2.286 2.2-2.286 1.32 0 1.904 1.024 1.985 1.2.972 2.119.495 6.23-1.975 6.416M185.24 62.094c2.258.17 2.89-3.157 2.21-5.33-.128-.412-.876-2.286-2.199-2.286-1.32 0-1.904 1.024-1.985 1.2-.972 2.119-.497 6.23 1.974 6.416"/>
                <path stroke="#D1BFA3" stroke-linecap="round" stroke-width="1.56" d="M173.24 65.15c1.35-.208 2.665-.158 3.283.6 1.505 1.849 1.073 3.984-1.462 5.563-1.267.788-3.06 1.11-4.16.624"/>
                <path stroke="#593A32" stroke-linecap="round" stroke-width="1.58" d="M182.966 77.606s-2.852 6.532-10.786 6.288c-7.934-.243-10.909-6.288-10.909-6.288"/>
            </g>
            <g transform="translate(138.16 19)">
                <mask id="d" fill="#fff">
                    <use xlink:href="#c"/>
                </mask>
                <use fill="#3E3832" xlink:href="#c"/>
                <g fill="#F6B873" mask="url(#d)">
                    <path d="M-18.177-34.32h104.65V88.92h-104.65z"/>
                </g>
            </g>
            <g>
                <path fill="#9B9590" d="M172.48 100.12c12.062 0 21.84 9.392 21.84 20.978v20.444c0 11.586-9.778 20.978-21.84 20.978s-21.84-9.392-21.84-20.978v-20.444c0-11.586 9.778-20.978 21.84-20.978z"/>
                <path fill="#C6C2BF" d="M140.269 105.818l6.295-5.308a1.685 1.685 0 0 1 2.298.133c.138.148.245.32.314.508l15.41 41.245c.3.803-.137 1.685-.977 1.977l-7.072 2.453c-.844.293-1.778-.122-2.086-.927l-14.633-38.39a1.502 1.502 0 0 1 .45-1.69zM204.691 105.818c.5.422.68 1.092.451 1.69l-14.633 38.39v.001c-.308.805-1.242 1.22-2.086.927l-7.072-2.453c-.84-.292-1.276-1.174-.976-1.977l15.409-41.245c.07-.187.176-.36.314-.508a1.685 1.685 0 0 1 2.298-.133l6.295 5.308z"/>
                <g transform="translate(158.44 139.12)">
                    <g transform="translate(-53.958 -68.64)">
                        <mask id="f" fill="#fff">
                            <use xlink:href="#e"/>
                        </mask>
                        <use fill="#D8A25D" xlink:href="#e"/>
                        <g fill="#5EAEC7" mask="url(#f)">
                            <path d="M1.117 146.765h146.765V0H1.117z"/>
                        </g>
                    </g>
                    <use fill="#FA96A0" xlink:href="#g"/>
                </g>
                <path fill="#E7E5E2" d="M153.796 120.797c.6-9.797 8.736-17.557 18.684-17.557s18.084 7.76 18.684 17.557a3.12 3.12 0 0 1 1.596 2.723v3.12a3.12 3.12 0 0 1-3.256 3.117 18.78 18.78 0 0 1-10.804 9.865 6.24 6.24 0 0 1-12.44 0 18.78 18.78 0 0 1-10.804-9.865 3.12 3.12 0 0 1-3.256-3.117v-3.12a3.12 3.12 0 0 1 1.596-2.723z"/>
                <g fill="#78706A" fill-rule="nonzero">
                    <path d="M168.555 105.355a.624.624 0 1 1 1.203.332c-.114.414-.004.594.755 1.277.79.711.974 1.645.536 2.65a.624.624 0 1 1-1.144-.5c.227-.52.156-.877-.227-1.222-1.088-.98-1.408-1.504-1.123-2.537zM172.033 105.022a.624.624 0 0 1 1.005.741c-.255.346-.217.553.246 1.463.483.947.32 1.884-.449 2.665a.624.624 0 0 1-.889-.876c.398-.404.46-.763.226-1.223-.664-1.304-.775-1.908-.139-2.77zM175.443 104.987a.624.624 0 1 1 .726 1.015c-.35.25-.377.459-.217 1.468.166 1.05-.279 1.89-1.251 2.396a.624.624 0 1 1-.575-1.108c.504-.262.674-.583.593-1.093-.229-1.446-.148-2.054.724-2.678z"/>
                </g>
                <path fill="#E8CCC8" d="M167.548 130.094c0 2.123-1.689 3.845-3.773 3.845-2.085 0-3.775-1.722-3.775-3.845s1.69-3.844 3.775-3.844c2.084 0 3.773 1.721 3.773 3.844"/>
                <path fill="#FA96A0" d="M170.53 135.666a1.89 1.89 0 0 1-1.138-1.875l.903-2.402 3.474 1.475-1.1 2.317a1.89 1.89 0 0 1-2.139.485z"/>
                <path fill="#E8CCC8" d="M185.161 130.094c0 2.123-1.69 3.845-3.773 3.845-2.085 0-3.775-1.722-3.775-3.845s1.69-3.844 3.775-3.844c2.084 0 3.773 1.721 3.773 3.844"/>
                <path fill="#D1BFA3" fill-rule="nonzero" d="M173.617 124.371a.63.63 0 0 1-.745-.495.64.64 0 0 1 .486-.759c.846-.181 1.554-.042 1.943.623.756 1.295.493 2.786-.7 3.819-.693.6-1.666.815-2.346.397a.648.648 0 0 1-.213-.88c.18-.303.567-.4.864-.217.149.092.56 0 .88-.277.73-.632.873-1.436.434-2.186-.041-.07-.224-.106-.603-.025z"/>
                <path fill="#635E59" fill-rule="nonzero" d="M177.003 122.25a.642.642 0 0 0 .457.777.628.628 0 0 0 .763-.466c.356-1.449.973-2.078 1.906-2.078.933 0 1.55.63 1.906 2.078a.628.628 0 0 0 .763.466.642.642 0 0 0 .457-.777c-.483-1.968-1.543-3.048-3.126-3.048s-2.643 1.08-3.126 3.048z"/>
                <path fill="#635E59" d="M165.67 123.683c-1.734.116-2.22-2.123-1.697-3.583.099-.278.673-1.539 1.689-1.539 1.015 0 1.463.69 1.525.809.747 1.424.381 4.188-1.517 4.313"/>
                <path fill="#593A32" fill-rule="nonzero" d="M175.66 131.662a.646.646 0 0 0-.282-.86.624.624 0 0 0-.844.287c-.302.615-.915.927-1.953.927s-1.652-.312-1.954-.927a.624.624 0 0 0-.844-.286.646.646 0 0 0-.281.86c.537 1.093 1.6 1.635 3.079 1.635 1.478 0 2.541-.542 3.078-1.636z"/>
                <path fill="#C6C2BF" d="M195.88 164.08h-46.8v-15.416c0-1.825 2.125-3.304 4.745-3.304h37.31c2.62 0 4.745 1.479 4.745 3.304v15.416z"/>
                <path fill="#FFF" d="M152.393 145.36h40.174c2.691 0 4.873 2.095 4.873 4.68 0 2.585-2.182 4.68-4.873 4.68h-40.174c-2.691 0-4.873-2.095-4.873-4.68 0-2.585 2.182-4.68 4.873-4.68z"/>
            </g>
        </g>
    </g>
</svg>
