<svg xmlns="http://www.w3.org/2000/svg" xmlns:xlink="http://www.w3.org/1999/xlink" width="68" height="96" viewBox="0 0 68 96">
    <defs>
        <path id="a" d="M1.589 30.72a.541.541 0 0 0 .081-.273v-2c-.144-5.564 1.786-8.148 3.374-10.11 0 0-.965 4.275-.294 3.385 3.8-5.02 21.4-1.581 25.05-8.06.46 3.567-4.148 4.643-4.148 4.643 3.673.696 6.855-.784 7.718-2.542.283 1.433-.589 2.384-1.865 3.364 4.514-.855 4.587-3.966 4.587-3.966.643 4.127 5.27 2.542 5.27 9.298v5.988c0 .306.244.553.546.553h.54a.55.55 0 0 0 .545-.553v-4.448C43.273 10.42 34.5 0 22.423 0 10.894 0 0 10.39.006 24.143c-.001.011-.007.023-.007.035v6.269c0 .306.244.553.544.553h.58c.167 0 .31-.08.41-.198"/>
        <path id="c" d="M20.242 18.031c-4.751 0-8.602-1.564-8.602-3.492 0-1.929 3.85-3.492 8.602-3.492 4.75 0 8.602 1.563 8.602 3.492 0 1.928-3.851 3.492-8.602 3.492m.46-8.954c-3.002 0-5.043.018-8.981 1.996C2.615 15.643 0 0 0 0c0 25.732 12.461 32 20.564 32C28.795 32 42 27.019 42 0c-.55.43-3.894 14.267-13.228 10.838-3.623-1.33-5.07-1.76-8.07-1.76z"/>
    </defs>
    <g fill="none" fill-rule="evenodd">
        <path fill="#E7E5E2" d="M21 53.673C22.021 55.306 24.89 84 33.5 84 42.112 84 46 54.772 46 53.251c-13.185-7.553-25 .422-25 .422z"/>
        <path fill="#0F5FA9" d="M34 72.5L25.848 52C21.45 52 7 62.043 7 71.395V96h54V71.395C61 62.043 46.546 52 42.151 52L34 72.5z"/>
        <path fill="#3C84C5" d="M25.877 50.448c-2.373.819-5.874 3.035-5.874 3.035-.178 7.167 6.548 14.4 6.548 14.4l1.366-4.585 5.14 9.617 2.738.085 4.729-8.69 1.927 4.88c6.489-11.143 5.494-15.832 5.494-15.832C45.355 51.16 42.086 50 42.086 50l-7.75 20.36-8.459-19.912z"/>
        <path fill="#E7E5E2" d="M54.188 38.27C51.67 48.508 43.585 56 34 56c-9.586 0-17.67-7.492-20.188-17.73a2.27 2.27 0 0 1-.812.148c-1.103 0-2-.771-2-1.726v-6.965c0-.955.897-1.727 2-1.727.071 0 .142.003.211.01C14.663 16.132 23.417 7 34 7c10.582 0 19.337 9.132 20.789 21.01.07-.007.14-.01.211-.01 1.105 0 2 .772 2 1.727v6.965c0 .955-.895 1.726-2 1.726-.289 0-.564-.053-.812-.148z"/>
        <g>
            <path fill="#635E59" d="M26.03 30.625c-1.447.109-1.852-2.024-1.417-3.417.083-.264.562-1.465 1.41-1.465.847 0 1.221.656 1.273.769.623 1.358.317 3.993-1.266 4.113M42.18 30.625c1.447.109 1.852-2.024 1.416-3.417-.082-.264-.561-1.465-1.41-1.465-.846 0-1.22.656-1.272.769-.623 1.358-.318 3.993 1.266 4.113"/>
            <path stroke="#D1BFA3" stroke-linecap="round" d="M34.487 32.583c.865-.133 1.708-.1 2.104.385.965 1.185.688 2.554-.937 3.566-.812.505-1.962.712-2.667.4"/>
            <path stroke="#593A32" stroke-linecap="round" stroke-width="1.013" d="M40.722 40.568s-1.828 4.187-6.914 4.031c-5.086-.156-6.993-4.031-6.993-4.031"/>
        </g>
        <g>
            <g transform="translate(12 3)">
                <mask id="b" fill="#fff">
                    <use xlink:href="#a"/>
                </mask>
                <use fill="#F6B873" xlink:href="#a"/>
                <g fill="#F6B873" mask="url(#b)">
                    <path d="M-11.727-26h67v79h-67z"/>
                </g>
            </g>
        </g>
        <g>
            <g transform="translate(12.9 28)">
                <mask id="d" fill="#fff">
                    <use xlink:href="#c"/>
                </mask>
                <g fill="#F6B873" mask="url(#d)">
                    <path d="M-14-25h69v79h-69z"/>
                </g>
            </g>
        </g>
    </g>
</svg>
