<?xml version="1.0" encoding="UTF-8"?>
<svg role="img" aria-hidden="true" width="100px" height="100px" viewBox="0 0 100 100" version="1.1" xmlns="http://www.w3.org/2000/svg" xmlns:xlink="http://www.w3.org/1999/xlink">
    <!-- Generator: Sketch 55.1 (78136) - https://sketchapp.com -->
    <title>ikon/kan soke/far1</title>
    <desc>Created with Sketch.</desc>
    <defs>
        <ellipse id="path-1" cx="30.5" cy="76.2" rx="6.42857143" ry="6.4"></ellipse>
    </defs>
    <g id="ikon/kan-soke/far1" stroke="none" stroke-width="1" fill="none" fill-rule="evenodd">
        <circle id="Mask" fill="#C1B5D0" cx="50" cy="50" r="50"></circle>
        <path d="M47,62.6727743 C48.0212984,64.305927 50.8897836,93 59.5,93 C68.1120801,93 72,63.7724102 72,62.2510626 C58.8148886,54.6977852 47,62.6727743 47,62.6727743 Z" id="Neck" fill="#E7E5E2"></path>
        <path d="M87,83.6308664 C77.8540257,93.6871636 64.6642338,100 50,100 C44.0313138,100 38.3068954,98.9541647 33,97.0357492 L33,80.3948024 C33,71.0433218 47.4509727,61 51.8478733,61 L60,81.5 L68.1511233,61 C72.5460171,61 87,71.0433218 87,80.3948024 L87,83.6308664 L87,83.6308664 Z" id="Path" fill="#0F5FA9"></path>
        <path d="M51.8769674,59.4483431 C49.504307,60.2665692 46.0034748,62.4825049 46.0034748,62.4825049 C45.8253966,69.6503899 52.5511941,76.8821637 52.5511941,76.8821637 L53.9171466,72.2978558 L59.05671,81.9148148 L61.794791,82 L66.5236422,73.3099903 L68.4505924,78.1890838 C74.9396386,67.0466374 73.9452829,62.3580897 73.9452829,62.3580897 C71.3543994,60.1600877 68.0862012,59 68.0862012,59 L60.3361967,79.3592593 L51.8769674,59.4483431 Z" id="Collar" fill="#3C84C5"></path>
        <path d="M80.1877763,47.2697604 C77.6696923,57.5076369 69.5846657,65 59.9995001,65 C50.4144517,65 42.3301884,57.5078202 39.8122362,47.270136 C39.5640983,47.365206 39.2892695,47.418 39,47.418 C37.8968714,47.418 37,46.647 37,45.692 L37,38.727 C37,37.772 37.8968714,37 39,37 C39.0713989,37 39.141918,37.0032205 39.2113732,37.0095028 C40.6630831,25.1318176 49.4165119,16 59.9995001,16 C70.5824993,16 79.3367677,25.1318366 80.7886097,37.00954 C80.8580845,37.0032332 80.9286104,37 81,37 C82.1054461,37 83,37.772 83,38.727 L83,45.692 C83,46.647 82.1054461,47.418 81,47.418 C80.710957,47.418 80.4360746,47.3650669 80.1877763,47.2697604 L80.1877763,47.2697604 Z" id="Head" fill="#E7E5E2"></path>
        <path d="M52.0304,39.6246 C50.5834,39.7336 50.1784,37.6006 50.6134,36.2076 C50.6964,35.9436 51.1754,34.7426 52.0234,34.7426 C52.8704,34.7426 53.2444,35.3986 53.2964,35.5116 C53.9194,36.8696 53.6134,39.5046 52.0304,39.6246" id="Left" fill="#635E59"></path>
        <path d="M68.1798,39.6246 C69.6268,39.7336 70.0318,37.6006 69.5958,36.2076 C69.5138,35.9436 69.0348,34.7426 68.1868,34.7426 C67.3398,34.7426 66.9658,35.3986 66.9138,35.5116 C66.2908,36.8696 66.5958,39.5046 68.1798,39.6246" id="Right" fill="#635E59"></path>
        <path d="M60.4875,41.5831 C61.3525,41.4501 62.1955,41.4821 62.5915,41.9681 C63.5565,43.1531 63.2795,44.5221 61.6545,45.5341 C60.8425,46.0391 59.6925,46.2461 58.9875,45.9341" id="Nose" stroke="#D1BFA3" stroke-linecap="round"></path>
        <path d="M59.6013386,46.0771691 C62.602762,46.0771691 64.0493429,46.5073036 67.672497,47.8379709 C77.005676,51.2672625 80.3499101,37.4291525 80.8999996,37 C80.8999996,64.0189293 67.6951804,69 59.4642073,69 C51.361086,69 38.8999996,62.7324539 38.8999996,37 C38.8999996,37 41.5154688,52.6431038 50.620783,48.072679 C54.5594423,46.0948459 56.5999153,46.0771691 59.6013386,46.0771691 Z" id="Path" fill="#F6B873"></path>
        <path d="M39.6703485,40.4470706 C39.5264719,34.883148 41.4559955,32.2991464 43.0435657,30.3365882 C43.0435657,30.3365882 42.0788039,34.6115171 42.7498997,33.7224521 C46.5498195,28.7027936 64.1490848,32.1407786 67.8002007,25.6627328 C68.2594233,29.2290158 63.6524148,30.3045137 63.6524148,30.3045137 C67.3252107,31.0011317 70.5072493,29.5206932 71.3695236,27.7626099 C71.6533351,29.195939 70.7812062,30.1471482 69.5050402,31.127425 C74.0194158,30.2724392 74.0923396,27.1612131 74.0923396,27.1612131 C74.7348571,31.2877975 79.3625603,29.7031169 79.3625603,36.4588076 L79.4639511,40.4470706 C79.4639511,40.6089073 79.9427854,39.4753251 80.9004538,37.0463239 C81.1803234,21.46714 72.4988566,12 60.4220888,12 C48.8952056,12 38.8497807,22.9478448 38.8566753,36.7017894 C38.8566753,37.0194056 38.9354415,37.6192207 38.9691891,37.9125856 C39.4831286,42.380221 39.6899537,45.3734161 39.5896645,46.8921707 C39.6720515,45.8759629 39.6989462,43.7275962 39.6703485,40.4470706 Z" id="Hair" fill="#F6B873"></path>
        <path d="M11.5236607,77.5886892 C10.9675893,77.0257523 8.33589286,75.0932457 8.89276786,74.5303087 L8.1136245,71.7 L29.0752679,53.4222027 C29.6321429,52.8592658 30.53375,52.8592658 31.0914286,53.4222027 L52.2806428,71.7 L47.391875,82.1198039 C47.9471429,82.6819286 29.9383036,92.0008507 29.3822321,92.5646 L11.5236607,77.5886892 Z" id="Back" fill="#0C576F"></path>
        <path d="M20.7936277,90.5876794 C17.5423157,88.2439609 14.5839483,85.5191998 11.9839479,82.4788185 L11.9839479,66.2852794 C11.9839479,66.0420794 12.1816265,65.8444794 12.4267157,65.8444794 L47.96868,65.8444794 C48.2121622,65.8444794 48.4098407,66.0420794 48.4098407,66.2852794 L48.4098407,90.1476794 C48.4098407,90.3884794 48.2121622,90.5876794 47.96868,90.5876794 L20.7936277,90.5876794 L20.7936277,90.5876794 Z" id="Path" fill="#DCDCD2"></path>
        <mask id="mask-2" fill="white">
            <use xlink:href="#path-1"></use>
        </mask>
        <use id="Circle" fill="#0C5EA8" xlink:href="#path-1"></use>
        <path d="M29.3444931,77.3876967 L33.1200771,73.7578623 C33.4393203,73.4509429 33.9480361,73.4597831 34.2563256,73.7776074 C34.5646152,74.0954317 34.5557355,74.6018866 34.2364923,74.9088059 L29.851783,79.1242516 C29.5326807,79.4310355 29.024273,79.4223385 28.7159427,79.1049271 C28.6732745,79.0714631 28.633393,79.0331653 28.5970985,78.9901033 L26.9380187,77.0216767 C26.6527494,76.683217 26.6970937,76.1786125 27.0370644,75.8946111 C27.3770351,75.6106096 27.8838923,75.6547568 28.1691616,75.9932165 L29.3444931,77.3876967 Z" id="Mark" fill="#FFFFFF"></path>
        <path d="M8.1136245,77.3149739 L8.1136245,71.7 C8.1136245,71.7 37.3958617,93.962925 44.3039747,99.6791115 C29.1550103,97.9612198 16.0587914,89.4737384 8.1136245,77.3149739 L8.1136245,77.3149739 Z" id="Path" fill="#4C92D9"></path>
        <path d="M24.501727,93.0187976 C35.6533794,84.3417676 52.2806428,71.7 52.2806428,71.7 L52.2806428,99.344 C52.2806428,99.5593128 52.2393962,99.7651222 52.1643335,99.9539994 C51.4467017,99.9845629 50.7251536,100 50,100 C40.6863876,100 31.96754,97.4535093 24.501727,93.0187976 L24.501727,93.0187976 Z" id="Path" fill="#2C79C5"></path>
        <path d="M59.1417302,55.031014 C63.8926787,55.031014 67.7438367,53.4673888 67.7438367,51.5387675 C67.7438367,49.6101462 63.8926787,48.046521 59.1417302,48.046521 C54.3907817,48.046521 50.5396236,49.6101462 50.5396236,51.5387675 C50.5396236,53.4673888 54.3907817,55.031014 59.1417302,55.031014 Z" id="Path" fill="#E7E5E2"></path>
        <path d="M66.7218,49.568 C66.7218,49.568 64.8938,53.755 59.8078,53.599 C54.7218,53.443 52.8148,49.568 52.8148,49.568" id="Mouth" stroke="#593A32" stroke-width="1.013" stroke-linecap="round"></path>
    </g>
</svg>
