<svg xmlns="http://www.w3.org/2000/svg" xmlns:xlink="http://www.w3.org/1999/xlink" width="68" height="96" viewBox="0 0 68 96">
    <defs>
        <path id="a" d="M26.873 0h-8.066C14.457 0 0 10.002 0 19.107v23.957h54V19.107C54 10.002 39.29 0 34.942 0h-8.069z"/>
        <path id="c" d="M41.837 28.063c.328-.385.11-1.345.11-2.57C41.946 11.965 32.773 1 21.461 1 10.15 1 .977 11.965.977 25.493c0 1.783.065 3.553.641 3.506.34-6.59 2.284-11.336 2.983-13.154 1.386-3.604 2.814-5.626 7.594-2.811 4.724 2.784 27.604-14.59 29.57 15.126-.065.07-.042.037.072-.097z"/>
        <path id="e" d="M13 17.214C13 15.44 16.582 14 21 14s8 1.44 8 3.214c0 1.775-3.582 4.441-8 4.441s-8-2.666-8-4.44zm7.772-5.262c-2.949 0-4.689.654-8.823 2.144C-.736 18.666.348.108.348.108c0 27.263 12.854 29.92 20.814 29.92C29.25 30.028 42 28.487 42 2c-.562.796.612 15.359-12.685 12.096-3.795-1.68-5.594-2.144-8.543-2.144z"/>
    </defs>
    <g fill="none" fill-rule="evenodd">
        <path fill="#E7E5E2" d="M21 53.673C22.021 55.306 24.89 84 33.5 84 42.112 84 46 54.772 46 53.251c-13.185-7.553-25 .422-25 .422z"/>
        <g transform="translate(7 52.936)">
            <mask id="b" fill="#fff">
                <use xlink:href="#a"/>
            </mask>
            <use fill="#FFF" xlink:href="#a"/>
            <g fill="#194D62" mask="url(#b)">
                <path d="M-33 71.574H93v-98H-33z"/>
            </g>
        </g>
        <path fill="#CDD1D1" d="M20.745 54.7c1.043 1.656 5.729 9.893 12.638 14.968 6.862-4.997 12.89-13.853 12.89-15.395-13.463-7.654-25.528.428-25.528.428z"/>
        <path fill="#709CAA" d="M35.968 61.756v-4.905l-.724.038h-3.52L31 56.851v4.905l1.085.664-.998 5.328c.8.827 1.561 1.476 2.285 1.947a20.269 20.269 0 0 0 2.325-1.853l-.814-5.422 1.085-.664z"/>
        <path fill="#FFF" d="M45.918 51.957c-3.538 3.135-7.857 4.964-12.523 4.964-4.584 0-8.83-1.804-12.332-4.873-.042.28-.258 1.578-.258 1.866 0 3.446 5.686 7.87 9.33 10.767l2.125-7.218h2.562l2.043 7.218c3.42-2.793 9.291-7.215 9.291-10.767 0-.319-.188-1.645-.238-1.957z"/>
        <path fill="#E7E5E2" d="M54.188 38.27C51.67 48.508 43.585 56 34 56c-9.586 0-17.67-7.492-20.188-17.73a2.27 2.27 0 0 1-.812.148c-1.103 0-2-.771-2-1.726v-6.965c0-.955.897-1.727 2-1.727.071 0 .142.003.211.01C14.663 16.132 23.417 7 34 7c10.582 0 19.337 9.132 20.789 21.01.07-.007.14-.01.211-.01 1.105 0 2 .772 2 1.727v6.965c0 .955-.895 1.726-2 1.726-.289 0-.564-.053-.812-.148z"/>
        <g>
            <path fill="#635E59" d="M26.03 30.625c-1.447.109-1.852-2.024-1.417-3.417.083-.264.562-1.465 1.41-1.465.847 0 1.221.656 1.273.769.623 1.358.317 3.993-1.266 4.113M42.18 30.625c1.447.109 1.852-2.024 1.416-3.417-.082-.264-.561-1.465-1.41-1.465-.846 0-1.22.656-1.272.769-.623 1.358-.318 3.993 1.266 4.113"/>
            <path stroke="#D1BFA3" stroke-linecap="round" d="M34.487 32.583c.865-.133 1.708-.1 2.104.385.965 1.185.688 2.554-.937 3.566-.812.505-1.962.712-2.667.4"/>
            <path stroke="#593A32" stroke-linecap="round" stroke-width="1.013" d="M40.722 40.568s-1.828 4.187-6.914 4.031c-5.086-.156-6.993-4.031-6.993-4.031"/>
        </g>
        <g transform="translate(12 3)">
            <mask id="d" fill="#fff">
                <use xlink:href="#c"/>
            </mask>
            <use fill="#3E3832" xlink:href="#c"/>
            <g fill="#3E3832" mask="url(#d)">
                <path d="M-11.727-22h67v79h-67z"/>
            </g>
        </g>
        <g>
            <g transform="translate(12.9 25)">
                <mask id="f" fill="#fff">
                    <use xlink:href="#e"/>
                </mask>
                <g fill="#3E3832" mask="url(#f)">
                    <path d="M-11-20.357h69v85h-69z"/>
                </g>
            </g>
        </g>
    </g>
</svg>
