<?xml version="1.0" encoding="UTF-8"?>
<svg width="100px" height="100px" viewBox="0 0 100 100" version="1.1" xmlns="http://www.w3.org/2000/svg" xmlns:xlink="http://www.w3.org/1999/xlink">
    <!-- Generator: Sketch 55.1 (78136) - https://sketchapp.com -->
    <title>ikon/kan soke/far2</title>
    <desc>Created with Sketch.</desc>
    <defs>
        <ellipse id="path-1" cx="30.5" cy="76.2" rx="6.42857143" ry="6.4"></ellipse>
    </defs>
    <g id="ikon/kan-soke/far2" stroke="none" stroke-width="1" fill="none" fill-rule="evenodd">
        <circle id="Mask" fill="#C1B5D0" cx="50" cy="50" r="50"></circle>
        <path d="M87,83.6308664 C77.8540257,93.6871636 64.6642338,100 50,100 C44.0313138,100 38.3068954,98.9541647 33,97.0357492 L33,81.0435538 C33,71.9383083 47.4573443,61.9361702 51.8070065,61.9361702 L67.9418214,61.9361702 C72.2904869,61.9361702 87,71.9383083 87,81.0435538 L87,83.6308664 L87,83.6308664 Z" id="Path" fill="#194D62"></path>
        <path d="M46.7454545,63.7007076 C47.7882931,65.3557423 52.473852,73.5933928 59.382983,78.6676722 C66.245276,73.6708233 72.2727273,64.8150771 72.2727273,63.2733456 C58.8095299,55.6188651 46.7454545,63.7007076 46.7454545,63.7007076 Z" id="Neck" fill="#CDD1D1"></path>
        <path d="M61.968,70.756393 L61.968,65.8510638 L61.244,65.8894896 L57.724,65.8894896 L57,65.8510638 L57,70.756393 L58.085,71.4195127 L57.0871395,76.7484629 C57.8868413,77.5751806 58.6484088,78.2240085 59.371842,78.6949467 C60.2518126,78.0866779 61.0268279,77.4691278 61.6968881,76.8422964 L60.883,71.4195127 L61.968,70.756393 Z" id="Tie" fill="#709CAA"></path>
        <path d="M71.9184053,60.9574468 C68.3798802,64.0922008 64.0605247,65.9211799 59.3951663,65.9211799 C54.8114026,65.9211799 50.5653791,64.1167959 47.0630035,61.0480014 C47.0206569,61.3274909 46.8050669,62.6264514 46.8050669,62.9137665 C46.8050669,66.3604308 52.4907994,70.7842221 56.1346747,73.6808511 L58.2599762,66.4627971 L60.8224082,66.4627971 L62.8647962,73.6808511 C66.2845442,70.8881922 72.1564325,66.4655188 72.1564325,62.9137665 C72.1564325,62.5951485 71.9679818,61.2693571 71.9184053,60.9574468 Z" id="Collar" fill="#FFFFFF"></path>
        <path d="M80.1877763,47.2697604 C77.6696923,57.5076369 69.5846657,65 59.9995001,65 C50.4144517,65 42.3301884,57.5078202 39.8122362,47.270136 C39.5640983,47.365206 39.2892695,47.418 39,47.418 C37.8968714,47.418 37,46.647 37,45.692 L37,38.727 C37,37.772 37.8968714,37 39,37 C39.0713989,37 39.141918,37.0032205 39.2113732,37.0095028 C40.6630831,25.1318176 49.4165119,16 59.9995001,16 C70.5824993,16 79.3367677,25.1318366 80.7886097,37.00954 C80.8580845,37.0032332 80.9286104,37 81,37 C82.1054461,37 83,37.772 83,38.727 L83,45.692 C83,46.647 82.1054461,47.418 81,47.418 C80.710957,47.418 80.4360746,47.3650669 80.1877763,47.2697604 L80.1877763,47.2697604 Z" id="Head" fill="#E7E5E2"></path>
        <path d="M52.0304,39.6246 C50.5834,39.7336 50.1784,37.6006 50.6134,36.2076 C50.6964,35.9436 51.1754,34.7426 52.0234,34.7426 C52.8704,34.7426 53.2444,35.3986 53.2964,35.5116 C53.9194,36.8696 53.6134,39.5046 52.0304,39.6246" id="Left" fill="#635E59"></path>
        <path d="M68.1798,39.6246 C69.6268,39.7336 70.0318,37.6006 69.5958,36.2076 C69.5138,35.9436 69.0348,34.7426 68.1868,34.7426 C67.3398,34.7426 66.9658,35.3986 66.9138,35.5116 C66.2908,36.8696 66.5958,39.5046 68.1798,39.6246" id="Right" fill="#635E59"></path>
        <path d="M60.4875,41.5831 C61.3525,41.4501 62.1955,41.4821 62.5915,41.9681 C63.5565,43.1531 63.2795,44.5221 61.6545,45.5341 C60.8425,46.0391 59.6925,46.2461 58.9875,45.9341" id="Nose" stroke="#D1BFA3" stroke-linecap="round"></path>
        <path d="M59.6720106,45.9520159 C56.7232961,45.9520159 54.9830379,46.6060703 50.849165,48.0956266 C38.1639188,52.6666231 40.4103072,34.6206 39.7540319,35.3411838 C39.6298955,41.0469977 39.0387868,44.3279893 39.9925801,48 C43.4742237,61.4039854 52.7385694,65 58.9875001,65 C67.0739267,65 83.0000001,60 80.4105299,35.3411838 C79.8480603,36.1373759 81.5119063,51.3585143 68.2148347,48.0956266 C64.4197571,46.4157036 62.6207251,45.9520159 59.6720106,45.9520159 Z" id="Beard" fill="#3E3832"></path>
        <path d="M51.8999998,51.2142857 C51.8999998,49.4391705 55.481595,48 59.8999998,48 C64.3184045,48 67.8999998,49.4391705 67.8999998,51.2142857 C67.8999998,52.9894009 64.3184045,55.6550682 59.8999998,55.6550682 C55.481595,55.6550682 51.8999998,52.9894009 51.8999998,51.2142857 Z" id="Mouth" fill="#E7E5E2"></path>
        <path d="M80.4371505,40.0630829 C80.7650101,39.6781947 80.5461008,38.7182428 80.5461008,37.4932697 C80.5461008,23.9648885 71.3744119,13 60.0621746,13 C48.7489621,13 39.5772731,23.9648885 39.5772731,37.4932697 C39.5772731,39.2760487 39.6416359,41.0458657 40.2179748,40.9990029 C40.5572125,34.4093013 42.5018766,29.6632006 43.2010898,27.8445267 C44.5868389,24.2410797 46.0154965,22.2190015 50.7949167,25.0337583 C55.518751,27.8176056 78.3988556,10.4434869 80.3658196,40.1604587 C80.299611,40.2290922 80.323388,40.1966337 80.4371505,40.0630829 Z" id="Top" fill="#3E3832"></path>
        <path d="M11.5236607,77.5886892 C10.9675893,77.0257523 8.33589286,75.0932457 8.89276786,74.5303087 L8.1136245,71.7 L29.0752679,53.4222027 C29.6321429,52.8592658 30.53375,52.8592658 31.0914286,53.4222027 L52.2806428,71.7 L47.391875,82.1198039 C47.9471429,82.6819286 29.9383036,92.0008507 29.3822321,92.5646 L11.5236607,77.5886892 Z" id="Back" fill="#0C576F"></path>
        <path d="M20.7936277,90.5876794 C17.5423157,88.2439609 14.5839483,85.5191998 11.9839479,82.4788185 L11.9839479,66.2852794 C11.9839479,66.0420794 12.1816265,65.8444794 12.4267157,65.8444794 L47.96868,65.8444794 C48.2121622,65.8444794 48.4098407,66.0420794 48.4098407,66.2852794 L48.4098407,90.1476794 C48.4098407,90.3884794 48.2121622,90.5876794 47.96868,90.5876794 L20.7936277,90.5876794 L20.7936277,90.5876794 Z" id="Path" fill="#DCDCD2"></path>
        <path d="M66.7218,49.568 C66.7218,49.568 64.8938,53.755 59.8078,53.599 C54.7218,53.443 52.8148,49.568 52.8148,49.568" id="Mouth" stroke="#593A32" stroke-width="1.013" stroke-linecap="round"></path>
        <mask id="mask-2" fill="white">
            <use xlink:href="#path-1"></use>
        </mask>
        <use id="Circle" fill="#0C5EA8" xlink:href="#path-1"></use>
        <path d="M29.3444931,77.3876967 L33.1200771,73.7578623 C33.4393203,73.4509429 33.9480361,73.4597831 34.2563256,73.7776074 C34.5646152,74.0954317 34.5557355,74.6018866 34.2364923,74.9088059 L29.851783,79.1242516 C29.5326807,79.4310355 29.024273,79.4223385 28.7159427,79.1049271 C28.6732745,79.0714631 28.633393,79.0331653 28.5970985,78.9901033 L26.9380187,77.0216767 C26.6527494,76.683217 26.6970937,76.1786125 27.0370644,75.8946111 C27.3770351,75.6106096 27.8838923,75.6547568 28.1691616,75.9932165 L29.3444931,77.3876967 Z" id="Mark" fill="#FFFFFF"></path>
        <path d="M8.1136245,77.3149739 L8.1136245,71.7 C8.1136245,71.7 37.3958617,93.962925 44.3039747,99.6791115 C29.1550103,97.9612198 16.0587914,89.4737384 8.1136245,77.3149739 L8.1136245,77.3149739 Z" id="Path" fill="#4C92D9"></path>
        <path d="M24.501727,93.0187976 C35.6533794,84.3417676 52.2806428,71.7 52.2806428,71.7 L52.2806428,99.344 C52.2806428,99.5593128 52.2393962,99.7651222 52.1643335,99.9539994 C51.4467017,99.9845629 50.7251536,100 50,100 C40.6863876,100 31.96754,97.4535093 24.501727,93.0187976 L24.501727,93.0187976 Z" id="Path" fill="#2C79C5"></path>
    </g>
</svg>