<?xml version="1.0" encoding="UTF-8"?>
<svg width="100px" height="100px" viewBox="0 0 100 100" version="1.1" xmlns="http://www.w3.org/2000/svg" xmlns:xlink="http://www.w3.org/1999/xlink">
    <!-- Generator: Sketch 55.1 (78136) - https://sketchapp.com -->
    <title>ikon/kan soke/far4</title>
    <desc>Created with Sketch.</desc>
    <defs>
        <ellipse id="path-1" cx="30.5" cy="76.2" rx="6.42857143" ry="6.4"></ellipse>
    </defs>
    <g id="ikon/kan-soke/far4" stroke="none" stroke-width="1" fill="none" fill-rule="evenodd">
        <circle id="Mask" fill="#C1B5D0" cx="50" cy="50" r="50"></circle>
        <path d="M47,62.6727743 C48.0212984,64.305927 50.8897836,93 59.5,93 C68.1120801,93 72,63.7724102 72,62.2510626 C58.8148886,54.6977852 47,62.6727743 47,62.6727743 Z" id="Neck" fill="#E7E5E2"></path>
        <path d="M87,83.6308664 C77.8540257,93.6871636 64.6642338,100 50,100 C44.0313138,100 38.3068954,98.9541647 33,97.0357492 L33,80.5227615 C33,73.3762456 41.5312738,65.6889681 47.4584356,62.5088895 C47.1582065,62.6923249 47,62.8028969 47,62.8028969 C48.0212984,64.4939106 50.7662804,72 59.3764968,72 C67.988577,72 72,63.9414918 72,62.3662444 C71.8933094,62.3029598 71.7867085,62.2407279 71.6802028,62.1795359 C77.6759883,65.12817 87,73.1159048 87,80.5227615 L87,83.6308664 L87,83.6308664 Z" id="Path" fill="#8B6D47"></path>
        <path d="M80.1877763,47.2697604 C77.6696923,57.5076369 69.5846657,65 59.9995001,65 C50.4144517,65 42.3301884,57.5078202 39.8122362,47.270136 C39.5640983,47.365206 39.2892695,47.418 39,47.418 C37.8968714,47.418 37,46.647 37,45.692 L37,38.727 C37,37.772 37.8968714,37 39,37 C39.0713989,37 39.141918,37.0032205 39.2113732,37.0095028 C40.6630831,25.1318176 49.4165119,16 59.9995001,16 C70.5824993,16 79.3367677,25.1318366 80.7886097,37.00954 C80.8580845,37.0032332 80.9286104,37 81,37 C82.1054461,37 83,37.772 83,38.727 L83,45.692 C83,46.647 82.1054461,47.418 81,47.418 C80.710957,47.418 80.4360746,47.3650669 80.1877763,47.2697604 L80.1877763,47.2697604 Z" id="Head" fill="#E7E5E2"></path>
        <path d="M52.0304,39.6246 C50.5834,39.7336 50.1784,37.6006 50.6134,36.2076 C50.6964,35.9436 51.1754,34.7426 52.0234,34.7426 C52.8704,34.7426 53.2444,35.3986 53.2964,35.5116 C53.9194,36.8696 53.6134,39.5046 52.0304,39.6246" id="Left" fill="#635E59"></path>
        <path d="M68.1798,39.6246 C69.6268,39.7336 70.0318,37.6006 69.5958,36.2076 C69.5138,35.9436 69.0348,34.7426 68.1868,34.7426 C67.3398,34.7426 66.9658,35.3986 66.9138,35.5116 C66.2908,36.8696 66.5958,39.5046 68.1798,39.6246" id="Right" fill="#635E59"></path>
        <path d="M60.4875,41.5831 C61.3525,41.4501 62.1955,41.4821 62.5915,41.9681 C63.5565,43.1531 63.2795,44.5221 61.6545,45.5341 C60.8425,46.0391 59.6925,46.2461 58.9875,45.9341" id="Nose" stroke="#D1BFA3" stroke-linecap="round"></path>
        <path d="M66.7218,49.568 C66.7218,49.568 64.8938,53.755 59.8078,53.599 C54.7218,53.443 52.8148,49.568 52.8148,49.568" id="Mouth" stroke="#593A32" stroke-width="1.013" stroke-linecap="round"></path>
        <path d="M55.187589,47.0124201 L60.3707624,47.3860434 L65.614166,47.0103978 C67.8176575,46.8525362 69.7319124,48.5108469 69.8897739,50.7143384 C69.8965889,50.809464 69.8999996,50.9048028 69.8999996,51.0001721 L69.8999996,51.703354 L67.5951981,51.703354 L67.2890783,50.453354 L67.0790444,51.703354 L66.2404834,51.703354 L66.0870846,51.1105916 L65.9212525,51.703354 L60.4970235,51.9249456 L52.8364315,51.703354 L52.6672268,51.1105916 L52.3704281,51.703354 L50.8999996,51.703354 L50.8999996,51.0020682 C50.8999996,48.7929292 52.6908606,47.0020682 54.8999996,47.0020682 C54.9959559,47.0020682 55.0918811,47.0055211 55.187589,47.0124201 Z" id="Moustache" fill="#F6B873"></path>
        <path d="M59.9335964,12 C61.5743929,12 62.9047942,13.393 62.9047942,15.111 C62.9047942,15.1166881 62.9047796,15.1223727 62.9047505,15.1280536 C68.8313624,16.17022 73.9176844,20.0739458 77.631468,27.3701 L78.9045656,27.7981 C79.9073807,29.8141 80.2006854,32.1891 80.3974282,34.5841 C74.7332068,32.9767667 67.9022515,32.1731 59.9045625,32.1731 C47.9061188,32.1731 39.575844,34.7361 39.575844,34.7361 C39.7066875,32.2941 39.5751131,30.0721 40.7421989,27.7981 L42.3123208,27.3701 C45.7354419,20.8226218 50.9662171,16.1224765 56.9617608,15.0650849 C56.9852298,13.3682491 58.3074421,12 59.9335964,12 Z" id="Hat" fill="#344144"></path>
        <path d="M73.4941546,94.1476361 C66.5000881,97.8774552 58.5154099,99.9938528 50.0369626,99.9999866 C47.5408281,97.571534 46,94.235011 46,90.5528188 L46,77.4471812 C46,70.0205081 52.2680135,64 60,64 C67.7319865,64 74,70.0205081 74,77.4471812 L74,90.5528188 C74,91.7978579 73.82384,93.0033773 73.4941546,94.1476361 L73.4941546,94.1476361 Z" id="Path" fill="#9B9590"></path>
        <path d="M39.3518509,67.6527882 L43.3873988,64.2496939 C43.8188582,63.8858531 44.4782193,63.9241258 44.860123,64.3351783 C44.9485832,64.4303901 45.0170463,64.5408879 45.0617994,64.660679 L54.9393217,91.0999425 C55.1315591,91.6145062 54.8519765,92.1804432 54.3132502,92.3672495 L49.7803862,93.9397864 C49.2389344,94.1275378 48.6402422,93.8615673 48.4431698,93.3457246 L48.4429197,93.3450692 L39.0627134,68.7363631 C38.916523,68.3528686 39.0311716,67.9232104 39.3518509,67.6527882 Z" id="Left" fill="#C6C2BF"></path>
        <path d="M80.6481491,67.6527882 C80.9688284,67.9232104 81.083477,68.3528686 80.9372866,68.7363631 L71.5570803,93.3450692 C71.556997,93.3452877 71.5569137,93.3455062 71.5568302,93.3457246 C71.3597578,93.8615673 70.7610656,94.1275378 70.2196138,93.9397864 L65.6867498,92.3672495 C65.1480235,92.1804432 64.8684409,91.6145062 65.0606783,91.0999425 L74.9382006,64.660679 C74.9829537,64.5408879 75.0514168,64.4303901 75.139877,64.3351783 C75.5217807,63.9241258 76.1811418,63.8858531 76.6126012,64.2496939 L80.6481491,67.6527882 Z" id="Right" fill="#C6C2BF"></path>
        <path d="M69,96.2635293 C63.4331423,98.5522326 57.3622083,99.8653898 51,99.9901993 L51,94.9870406 C51,92.6946813 53.9403826,90.0776791 55.9090909,89 L64.0909091,89 C66.0775056,90.0966059 69,92.721105 69,94.9870406 L69,96.2635293 Z" id="Path" fill="#5EAEC7"></path>
        <path d="M66.4284517,90.6607586 C67.2905687,91.4248762 68.1400579,92.3563159 68.5909091,93.2777778 C68.3186906,93.4455297 67.0401691,93.4455297 66.896916,93.0446158 C67.0477967,93.4320181 66.9467324,93.8899607 66.6149368,94.1724336 C66.2168085,94.5113786 65.6311422,94.4745158 65.2768444,94.0990296 C65.4963593,94.5634077 65.3293769,95.1282317 64.8824522,95.3900298 C64.5346607,95.5937579 64.1149981,95.5567762 63.8108665,95.3300318 C63.8774023,95.7875733 63.6208629,96.2448754 63.1757725,96.4092394 C62.848899,96.529948 62.4998316,96.4633055 62.2428379,96.2633734 C62.1235498,96.5787646 61.8488663,96.8246583 61.4970928,96.8875907 C61.1654948,96.9469137 60.843462,96.8296946 60.6246668,96.6024806 C60.4636441,96.9284923 60.1312793,97.1522847 59.7473969,97.1522847 C59.3887364,97.1522847 59.0750463,96.9569336 58.9040506,96.6653815 C58.6891832,96.8507569 58.3975228,96.9411645 58.0980614,96.8875907 C57.7462879,96.8246583 57.4716044,96.5787646 57.3523163,96.2633734 C57.0953226,96.4633055 56.7462552,96.529948 56.4193817,96.4092394 C55.9742913,96.2448754 55.7177518,95.7875733 55.7842877,95.3300318 C55.4801561,95.5567762 55.0604935,95.5937579 54.712702,95.3900298 C54.2657772,95.1282317 54.0987949,94.5634077 54.3183098,94.0990296 C53.9640119,94.4745158 53.3783457,94.5113786 52.9802174,94.1724336 C52.6484217,93.8899607 52.5473575,93.4320181 52.6982382,93.0446158 C52.4140009,93.1717243 52.086106,92.6545129 51.8181818,92.5 C52.2289005,91.8597147 52.8855812,91.2060975 53.5647692,90.6351315 C54.1293848,92.8029626 56.7958224,94.4444444 60,94.4444444 C63.1915393,94.4444444 65.8495723,92.815886 66.4284517,90.6607586 L66.4284517,90.6607586 Z" id="Pattern" fill="#FA96A0"></path>
        <path d="M48.0227744,77.2545888 C48.4076632,70.9743756 53.6229177,66 60,66 C66.3770823,66 71.5923368,70.9743756 71.9772256,77.2545888 C72.5875639,77.5970404 73,78.2503554 73,79 L73,81 C73,82.1045695 72.1045695,83 71,83 C70.9707736,83 70.9416936,82.9993731 70.9127727,82.998132 C69.5641871,85.9377817 67.062738,88.2385719 63.9872535,89.3216743 C63.8234327,91.3803987 62.1008554,93 60,93 C57.8991446,93 56.1765673,91.3803987 56.0127465,89.3216743 C52.937262,88.2385719 50.4358129,85.9377817 49.0872273,82.998132 C49.0583064,82.9993731 49.0292264,83 49,83 C47.8954305,83 47,82.1045695 47,81 L47,79 C47,78.2503554 47.4124361,77.5970404 48.0227744,77.2545888 Z" id="Head" fill="#E7E5E2"></path>
        <path d="M56.8,83.3330478 C56.8,84.713973 55.7257194,85.8333333 54.4005396,85.8333333 C53.0748201,85.8333333 52,84.713973 52,83.3330478 C52,81.9526937 53.0748201,80.8333333 54.4005396,80.8333333 C55.7257194,80.8333333 56.8,81.9526937 56.8,83.3330478" id="Left" fill="#E8CCC8"></path>
        <path d="M68,83.3330478 C68,84.713973 66.9257194,85.8333333 65.6005396,85.8333333 C64.2748201,85.8333333 63.2,84.713973 63.2,83.3330478 C63.2,81.9526937 64.2748201,80.8333333 65.6005396,80.8333333 C66.9257194,80.8333333 68,81.9526937 68,83.3330478" id="Right" fill="#E8CCC8"></path>
        <path d="M59.1966544,87.0417648 C58.6707799,87.0339337 58.2183594,86.6815763 58.0455245,86.196557 L57.9527824,84.5390443 L60.3680494,84.5750113 L60.3232972,86.2304764 C60.1645134,86.7105575 59.7223148,87.0495927 59.1966544,87.0417648 Z" id="Tongue" fill="#FA96A0" transform="translate(59.160416, 85.790471) rotate(23.000000) translate(-59.160416, -85.790471) "></path>
        <path d="M60.6591481,79.6114056 C60.4429563,79.6587308 60.2308682,79.514535 60.185436,79.2893353 C60.1400039,79.0641355 60.2784318,78.8432104 60.4946236,78.7958852 C61.0325074,78.6781404 61.4821953,78.7687314 61.7297685,79.2013075 C62.2107377,80.0428818 62.0431664,81.01269 61.2847642,81.6844515 C60.8439409,82.0747686 60.225214,82.214851 59.7929801,81.9425168 C59.6039544,81.8234189 59.5434048,81.5672507 59.6577388,81.3703489 C59.7720727,81.1734472 60.0179943,81.1103747 60.2070199,81.2294726 C60.3016382,81.2890879 60.5628496,81.2299486 60.7665855,81.0495552 C61.2310174,80.6381805 61.3213016,80.1156664 61.0424879,79.627813 C61.0162545,79.5819762 60.9002992,79.5586167 60.6591481,79.6114056 Z" id="Nose" fill="#D1BFA3" fill-rule="nonzero"></path>
        <path d="M62.811943,76.7677232 C62.7583635,76.5444753 62.8886678,76.3182526 63.1029857,76.2624406 C63.3173037,76.2066287 63.5344775,76.3423623 63.588057,76.5656102 C63.814169,77.5077433 64.2067354,77.9166667 64.8,77.9166667 C65.3932646,77.9166667 65.785831,77.5077433 66.011943,76.5656102 C66.0655225,76.3423623 66.2826963,76.2066287 66.4970143,76.2624406 C66.7113322,76.3182526 66.8416365,76.5444753 66.788057,76.7677232 C66.4808356,78.0478122 65.8067354,78.75 64.8,78.75 C63.7932646,78.75 63.1191644,78.0478122 62.811943,76.7677232 Z" id="Right" fill="#635E59" fill-rule="nonzero" transform="translate(64.800000, 77.499951) scale(1, -1) translate(-64.800000, -77.499951) "></path>
        <path d="M55.6055808,79.1638641 C54.5030031,79.239082 54.1944033,77.7832839 54.5266243,76.834016 C54.5891063,76.6531124 54.9540923,75.8333333 55.600247,75.8333333 C56.2456398,75.8333333 56.5306184,76.2817839 56.5702411,76.3589059 C57.0449515,77.2853229 56.8125491,79.0829336 55.6055808,79.1638641" id="Left" fill="#635E59"></path>
        <path d="M58.0422291,84.3530057 C57.9434334,84.1471813 58.0235232,83.8969009 58.2211146,83.7939887 C58.418706,83.6910765 58.6589752,83.7745033 58.7577709,83.9803277 C58.949625,84.3800238 59.3399793,84.5833333 60,84.5833333 C60.6600207,84.5833333 61.050375,84.3800238 61.2422291,83.9803277 C61.3410248,83.7745033 61.581294,83.6910765 61.7788854,83.7939887 C61.9764768,83.8969009 62.0565666,84.1471813 61.9577709,84.3530057 C61.6162917,85.0644206 60.9399793,85.4166667 60,85.4166667 C59.0600207,85.4166667 58.3837083,85.0644206 58.0422291,84.3530057 Z" id="Mouth" fill="#593A32" fill-rule="nonzero" transform="translate(60.000000, 84.583288) scale(1, -1) rotate(-180.000000) translate(-60.000000, -84.583288) "></path>
        <path d="M45,99.7531238 L45,95.1176471 C45,93.9481029 46.361931,93 48.041958,93 L71.958042,93 C72.876716,93 73.7002751,93.2834953 74.2580453,93.7316717 C67.0738057,97.7253102 58.802544,100 50,100 C48.312503,100 46.6445312,99.9164028 45,99.7531238 Z" id="Path" fill="#C6C2BF"></path>
        <path d="M74.6347383,93.5201355 C70.1434448,96.0679219 65.2189105,97.9405354 59.9991075,99 L47.1236609,99 C45.3985106,99 44,97.6568542 44,96 C44,94.3431458 45.3985106,93 47.1236609,93 L72.8763391,93 C73.5284395,93 74.1338694,93.1919103 74.6347383,93.5201325 L74.6347383,93.5201355 Z" id="Path" fill="#FFFFFF"></path>
        <path d="M11.5236607,77.5886892 C10.9675893,77.0257523 8.33589286,75.0932457 8.89276786,74.5303087 L8.1136245,71.7 L29.0752679,53.4222027 C29.6321429,52.8592658 30.53375,52.8592658 31.0914286,53.4222027 L52.2806428,71.7 L47.391875,82.1198039 C47.9471429,82.6819286 29.9383036,92.0008507 29.3822321,92.5646 L11.5236607,77.5886892 Z" id="Back" fill="#0C576F"></path>
        <path d="M20.7936277,90.5876794 C17.5423157,88.2439609 14.5839483,85.5191998 11.9839479,82.4788185 L11.9839479,66.2852794 C11.9839479,66.0420794 12.1816265,65.8444794 12.4267157,65.8444794 L47.96868,65.8444794 C48.2121622,65.8444794 48.4098407,66.0420794 48.4098407,66.2852794 L48.4098407,90.1476794 C48.4098407,90.3884794 48.2121622,90.5876794 47.96868,90.5876794 L20.7936277,90.5876794 L20.7936277,90.5876794 Z" id="Path" fill="#DCDCD2"></path>
        <mask id="mask-2" fill="white">
            <use xlink:href="#path-1"></use>
        </mask>
        <use id="Circle" fill="#0C5EA8" xlink:href="#path-1"></use>
        <path d="M29.3444931,77.3876967 L33.1200771,73.7578623 C33.4393203,73.4509429 33.9480361,73.4597831 34.2563256,73.7776074 C34.5646152,74.0954317 34.5557355,74.6018866 34.2364923,74.9088059 L29.851783,79.1242516 C29.5326807,79.4310355 29.024273,79.4223385 28.7159427,79.1049271 C28.6732745,79.0714631 28.633393,79.0331653 28.5970985,78.9901033 L26.9380187,77.0216767 C26.6527494,76.683217 26.6970937,76.1786125 27.0370644,75.8946111 C27.3770351,75.6106096 27.8838923,75.6547568 28.1691616,75.9932165 L29.3444931,77.3876967 Z" id="Mark" fill="#FFFFFF"></path>
        <path d="M8.1136245,77.3149739 L8.1136245,71.7 C8.1136245,71.7 37.3958617,93.962925 44.3039747,99.6791115 C29.1550103,97.9612198 16.0587914,89.4737384 8.1136245,77.3149739 L8.1136245,77.3149739 Z" id="Path" fill="#4C92D9"></path>
        <path d="M24.501727,93.0187976 C35.6533794,84.3417676 52.2806428,71.7 52.2806428,71.7 L52.2806428,99.344 C52.2806428,99.5593128 52.2393962,99.7651222 52.1643335,99.9539994 C51.4467017,99.9845629 50.7251536,100 50,100 C40.6863876,100 31.96754,97.4535093 24.501727,93.0187976 L24.501727,93.0187976 Z" id="Path" fill="#2C79C5"></path>
        <path d="M58.7459283,67.1975226 C58.943498,67.0986836 59.1837848,67.1787207 59.2826237,67.3762905 C59.3814627,67.5738602 59.3014256,67.814147 59.1038559,67.912986 C58.8577151,68.0361237 58.8191449,68.165465 58.8191449,68.8203145 C58.8191449,69.5015956 58.4533365,69.9896074 57.7870777,70.2118153 C57.5775118,70.2817088 57.3509652,70.168482 57.2810717,69.9589162 C57.2111782,69.7493503 57.3244049,69.5228037 57.5339708,69.4529102 C57.8792063,69.3377687 58.0191449,69.1510816 58.0191449,68.8203145 C58.0191449,67.8819789 58.1316061,67.5048519 58.7459283,67.1975226 Z" id="Left" fill="#78706A" fill-rule="nonzero" transform="translate(58.292698, 68.693819) rotate(-48.000000) translate(-58.292698, -68.693819) "></path>
        <path d="M60.4423954,67.1850156 C60.6399652,67.0861766 60.8802519,67.1662137 60.9790909,67.3637835 C61.0779299,67.5613532 60.9978928,67.80164 60.800323,67.900479 C60.5541823,68.0236167 60.5156121,68.1529579 60.5156121,68.8078075 C60.5156121,69.4890886 60.1498036,69.9771004 59.4835448,70.1993082 C59.273979,70.2692018 59.0474324,70.155975 58.9775389,69.9464092 C58.9076453,69.7368433 59.0208721,69.5102967 59.230438,69.4404032 C59.5756734,69.3252617 59.7156121,69.1385746 59.7156121,68.8078075 C59.7156121,67.8694718 59.8280732,67.4923449 60.4423954,67.1850156 Z" id="Center" fill="#78706A" fill-rule="nonzero" transform="translate(59.989165, 68.681312) rotate(-27.000000) translate(-59.989165, -68.681312) "></path>
        <path d="M62.1388626,67.1725086 C62.3364323,67.0736696 62.5767191,67.1537067 62.6755581,67.3512765 C62.774397,67.5488462 62.6943599,67.789133 62.4967902,67.8879719 C62.2506495,68.0111097 62.2120793,68.1404509 62.2120793,68.7953005 C62.2120793,69.4765816 61.8462708,69.9645933 61.180012,70.1868012 C60.9704462,70.2566948 60.7438996,70.143468 60.674006,69.9339021 C60.6041125,69.7243363 60.7173393,69.4977897 60.9269051,69.4278962 C61.2721406,69.3127546 61.4120793,69.1260676 61.4120793,68.7953005 C61.4120793,67.8569648 61.5245404,67.4798379 62.1388626,67.1725086 Z" id="Right" fill="#78706A" fill-rule="nonzero" transform="translate(61.685632, 68.668805) rotate(-9.000000) translate(-61.685632, -68.668805) "></path>
    </g>
</svg>