<svg xmlns="http://www.w3.org/2000/svg" xmlns:xlink="http://www.w3.org/1999/xlink" width="68" height="96" viewBox="0 0 68 96">
    <defs>
        <path id="a" d="M56.355 28.992a4.653 4.653 0 0 1 1.998 3.833c0 1.06-.351 2.037-.942 2.818.59.782.942 1.758.942 2.818 0 2.31-1.667 4.226-3.849 4.583-.492 2.284-2.258 4.087-4.506 4.605.099 2.18-1.34 4.195-3.514 4.722a4.524 4.524 0 0 1-3.439-.541 5.892 5.892 0 0 1-2.732.668c-2.531 0-4.696-1.593-5.567-3.843-.63-.097-1.253-.4-1.787-.959a3.1 3.1 0 0 0-2.523-.967 3.414 3.414 0 0 0-.061.117c-.568 1.127-1.558 1.678-2.571 1.745a3.33 3.33 0 0 0-.19.556c-.738 2.984-4.66 3.215-5.89.693-.736 1.571-2.316 2.658-4.146 2.658a4.55 4.55 0 0 1-3.378-1.503 4.52 4.52 0 0 1-2.19.563c-2.533 0-4.586-2.078-4.586-4.642 0-.449.063-.883.18-1.293a4.637 4.637 0 0 1-2.935-3.819 4.644 4.644 0 0 1-2.813-4.282 4.642 4.642 0 0 1 2.93-4.33c.107-1.465-.787-2.952-2.39-3.358-3.195-.81-3.195-5.407 0-6.216 2.41-.611 3.218-3.663 1.432-5.412-2.367-2.318-.096-6.298 3.07-5.382.522.15 1.034.162 1.51.062a4.732 4.732 0 0 1-.056-.729 4.65 4.65 0 0 1 2.332-4.043c-.16-2.784 3.311-4.551 5.42-2.384.678-1.707 2.328-2.912 4.257-2.912.583 0 1.14.11 1.653.311a3.02 3.02 0 0 1 1.24-.985c1.02-2.057 4.163-2.522 5.55-.193 1.281 2.153 4.401 2.04 5.53-.198 1.449-2.878 5.648-2 5.964 1.09.157-.016.317-.025.478-.025 1.974 0 3.657 1.263 4.303 3.035.042-.025.084-.051.125-.078 2.762-1.815 6.085 1.318 4.493 4.237-1.2 2.2.455 4.88 2.934 4.748 3.29-.173 4.619 4.223 1.799 5.944a3.319 3.319 0 0 0-.247.166 4.637 4.637 0 0 1 3.242 4.44c0 1.18-.435 2.256-1.15 3.075.045.2.072.403.08.607z"/>
    </defs>
    <g fill="none" fill-rule="evenodd">
        <g transform="translate(4.824 6)">
            <mask id="b" fill="#fff">
                <use xlink:href="#a"/>
            </mask>
            <use fill="#333" xlink:href="#a"/>
            <g fill="#3E3832" mask="url(#b)">
                <path d="M-2.824-2.813h65v74h-65z"/>
            </g>
        </g>
        <path fill="#E7E5E2" d="M21.688 56.318c.957 1.531 3.646 28.432 11.718 28.432 8.074 0 11.719-27.4 11.719-28.827-12.361-7.081-23.438.395-23.438.395z"/>
        <path fill="#0F5FA9" d="M34.063 73.908l-7.7-19.163c-4.152 0-17.8 9.388-17.8 18.13v23h51v-23c0-8.742-13.651-18.13-17.802-18.13l-7.699 19.163z"/>
        <path fill="#3C84C5" d="M26.39 53.294c-2.24.765-5.546 2.836-5.546 2.836-.169 6.7 6.184 13.46 6.184 13.46l1.29-4.284 4.854 8.99 2.586.079 4.466-8.123 1.82 4.56c6.128-10.415 5.189-14.798 5.189-14.798-2.447-2.055-5.534-3.139-5.534-3.139L34.38 71.906l-7.99-18.612z"/>
        <path fill="#E7E5E2" d="M35.561 21.015c.245 1.877 1.79 3.323 3.659 3.323 1.699 0 3.13-1.197 3.56-2.826a4.17 4.17 0 0 1-.15 1.172c-1.088 3.964 4.522 7.02 7.272 4.057.442-.223 1.022-.172 1.737.155.52 1.721.88 3.537 1.054 5.42.088-.02.178-.03.28-.03.88 0 1.527.74 1.527 1.652v5.958c0 .914-.635 1.652-1.517 1.652-.352 0-.596-.12-.859-.32l-.06.263c-1.328 5.986-4.55 10.844-8.844 13.785-2.88 2.05-6.233 3.224-9.814 3.224-2.529 0-4.944-.586-7.16-1.652-5.737-2.583-10.124-8.27-11.676-15.623-.264.202-.495.323-.848.323-.881 0-1.41-.738-1.41-1.652v-6.221c1.803 1.489 5.75 1.044 6.48-1.988.724-3.014 4.345-4.025 6.418-1.793 2.751 2.963 7.473.122 6.387-3.84-.75-2.73 1.4-5.272 3.964-5.04z"/>
        <g>
            <path fill="#635E59" d="M26.715 37.743c-1.362.104-1.743-1.922-1.333-3.246.077-.25.528-1.392 1.326-1.392.797 0 1.15.624 1.198.731.587 1.29.299 3.793-1.191 3.907M41.914 37.743c1.362.104 1.743-1.922 1.333-3.246-.077-.25-.528-1.392-1.326-1.392a1.34 1.34 0 0 0-1.198.731c-.587 1.29-.299 3.793 1.191 3.907"/>
            <path fill="#D1BFA3" fill-rule="nonzero" d="M34.746 40.073c.801-.124 1.348-.046 1.544.196.74.918.503 1.888-.766 2.685-.667.418-1.585.566-2.07.349a.469.469 0 0 0-.621.242c-.106.24.002.52.24.626.803.36 2.038.161 2.949-.41 1.723-1.083 2.118-2.702.998-4.091-.474-.588-1.313-.707-2.417-.536a.474.474 0 0 0 .143.94z"/>
            <path fill="#D19E9C" fill-rule="nonzero" d="M40.11 47c-.042.097-.14.285-.296.533a6.724 6.724 0 0 1-1.001 1.23c-1.204 1.168-2.77 1.843-4.764 1.78-1.944-.06-3.504-.724-4.727-1.795a7.058 7.058 0 0 1-1.115-1.235 4.33 4.33 0 0 1-.332-.534.469.469 0 0 0-.63-.216.477.477 0 0 0-.214.636c.069.142.203.373.409.665a8 8 0 0 0 1.265 1.4c1.38 1.21 3.145 1.962 5.315 2.03 2.26.07 4.067-.709 5.445-2.046.46-.446.84-.925 1.143-1.404.184-.292.304-.523.365-.665a.477.477 0 0 0-.243-.625.469.469 0 0 0-.62.245z"/>
        </g>
    </g>
</svg>
