<svg xmlns="http://www.w3.org/2000/svg" xmlns:xlink="http://www.w3.org/1999/xlink" width="68" height="96" viewBox="0 0 68 96">
    <defs>
        <path id="a" d="M.106 27.186A6.274 6.274 0 0 1 0 26.032C0 11.655 10.613 0 23.707 0 36.8 0 47.412 11.655 47.412 26.032c0 .095-.002.19-.006.285l.062-.001s.027 27.71-23.768 27.71C-.092 54.025 0 63.561 0 63.561V27.188l.106-.002z"/>
        <path id="c" d="M36.531 2.972C42.194 5.73 51 13.195 51 20.12V43H0V20.12C0 13.438 8.057 6.252 13.655 3.28a9.333 9.333 0 0 0-.433.275c.965 1.58 3.557 8.597 11.69 8.597S36.832 4.62 36.832 3.147c-.1-.06-.201-.118-.302-.175z"/>
    </defs>
    <g fill="none" fill-rule="evenodd">
        <g transform="translate(10.47 6)">
            <mask id="b" fill="#fff">
                <use xlink:href="#a"/>
            </mask>
            <g fill="#3E3832" mask="url(#b)">
                <path d="M-8.47-.938h65v74h-65z"/>
            </g>
        </g>
        <path fill="#E7E5E2" d="M21.688 56.318c.957 1.531 3.646 28.432 11.718 28.432 8.074 0 11.719-27.4 11.719-28.827-12.361-7.081-23.438.395-23.438.395z"/>
        <g transform="translate(8.563 52.875)">
            <mask id="d" fill="#fff">
                <use xlink:href="#c"/>
            </mask>
            <use fill="#D8A25D" xlink:href="#c"/>
            <g mask="url(#d)">
                <path fill="#0C5472" d="M-31.167 69.63h119v-93h-119z"/>
            </g>
            <g mask="url(#d)">
                <path fill="#F5A096" fill-rule="nonzero" d="M47.222 33.595V43H.944c0-7.645 3.392-13.205 8.721-16.62 3.817-2.348 8.633-3.527 14.457-3.527 3.91 0 7.306.674 10.225 1.947a.53.53 0 0 0 .694-.263.513.513 0 0 0-.267-.682c-3.057-1.332-6.598-2.035-10.652-2.035-5.232 0-9.705.929-13.412 2.792l-1.213-4.769L5.152 6.84l4.082-3.1 4.248 11.867.346.08a8.477 8.477 0 0 1 4.996-1.615 8.46 8.46 0 0 1 6.311 2.798 8.46 8.46 0 0 1 6.31-2.798c1.844 0 3.549.582 4.935 1.57l.406-.1L41.01 3.74l4.108 3.1-5.26 15.67a8.109 8.109 0 0 1-.66 3.045c3.472 1.872 6.259 4.558 8.023 8.041z"/>
                <path fill="#A13A28" d="M21.222 35.85c-1.58-1.782-2.105-5.347 0-6.535 1.269-.716 2.537-.243 3.806.982 1.268-1.225 2.537-1.698 3.806-.982 2.105 1.188 1.579 4.753 0 6.535-.886 1-3.673 3.474-3.806 3.41-.133.064-2.92-2.41-3.806-3.41z"/>
                <path fill="#E6E5E2" fill-rule="nonzero" d="M47.222 32.461V43h-14.73c-.563 0-1.02-.453-1.02-1.013 0-.559.457-1.012 1.02-1.012h5.614v-.507h-8.192c-.55 0-.994-.453-.994-1.012 0-.56.444-1.013.994-1.013h8.192v-.506h-9.722c-.549 0-.995-.454-.995-1.013 0-.56.446-1.013.995-1.013h9.722v-.506h-7.014c-.635 0-1.151-.453-1.151-1.013 0-.56.516-1.012 1.151-1.012h9.118l1.102-.507h-4.737c-.564 0-1.02-.453-1.02-1.012 0-.56.456-1.013 1.02-1.013h7.455c.398 0 .735.24 1.22.506.215.118.872.487 1.972 1.107z"/>
            </g>
        </g>
        <path fill="#E7E5E2" d="M14.693 31.8s-.098.559-.225.467a1.522 1.522 0 0 0-.568-.116c-.87 0-1.577.73-1.579 1.631l-.008 6.24c-.002.903.701 1.635 1.572 1.636.349 0 .668-.12.93-.319 2.105 10.049 9.61 17.146 18.557 17.161 8.949.015 16.477-7.058 18.611-17.1.26.2.58.321.93.322.87 0 1.576-.73 1.577-1.63l.01-6.241c0-.902-.703-1.634-1.573-1.636-.2 0-.392.043-.568.114C32.178 34.72 25.139 21 24.544 21c0 0-8.44 7.9-9.85 10.8z"/>
        <g>
            <path fill="#635E59" d="M26.715 37.743c-1.362.104-1.743-1.922-1.333-3.246.077-.25.528-1.392 1.326-1.392.797 0 1.15.624 1.198.731.587 1.29.299 3.793-1.191 3.907M41.914 37.743c1.362.104 1.743-1.922 1.333-3.246-.077-.25-.528-1.392-1.326-1.392a1.34 1.34 0 0 0-1.198.731c-.587 1.29-.299 3.793 1.191 3.907"/>
            <path fill="#D1BFA3" fill-rule="nonzero" d="M34.746 40.073c.801-.124 1.348-.046 1.544.196.74.918.503 1.888-.766 2.685-.667.418-1.585.566-2.07.349a.469.469 0 0 0-.621.242c-.106.24.002.52.24.626.803.36 2.038.161 2.949-.41 1.723-1.083 2.118-2.702.998-4.091-.474-.588-1.313-.707-2.417-.536a.474.474 0 0 0 .143.94z"/>
            <path fill="#D19E9C" fill-rule="nonzero" d="M40.11 47c-.042.097-.14.285-.296.533a6.724 6.724 0 0 1-1.001 1.23c-1.204 1.168-2.77 1.843-4.764 1.78-1.944-.06-3.504-.724-4.727-1.795a7.058 7.058 0 0 1-1.115-1.235 4.33 4.33 0 0 1-.332-.534.469.469 0 0 0-.63-.216.477.477 0 0 0-.214.636c.069.142.203.373.409.665a8 8 0 0 0 1.265 1.4c1.38 1.21 3.145 1.962 5.315 2.03 2.26.07 4.067-.709 5.445-2.046.46-.446.84-.925 1.143-1.404.184-.292.304-.523.365-.665a.477.477 0 0 0-.243-.625.469.469 0 0 0-.62.245z"/>
        </g>
    </g>
</svg>
