<?xml version="1.0" encoding="UTF-8"?>
<svg width="100px" height="100px" viewBox="0 0 100 100" version="1.1" xmlns="http://www.w3.org/2000/svg" xmlns:xlink="http://www.w3.org/1999/xlink">
    <!-- Generator: Sketch 55.1 (78136) - https://sketchapp.com -->
    <title>ikon/kan soke/mor2</title>
    <desc>Created with Sketch.</desc>
    <defs>
        <ellipse id="path-1" cx="30.5" cy="76.2" rx="6.42857143" ry="6.4"></ellipse>
    </defs>
    <g id="ikon/kan-soke/mor2" stroke="none" stroke-width="1" fill="none" fill-rule="evenodd">
        <circle id="Mask" fill="#C1B5D0" cx="50" cy="50" r="50"></circle>
        <path d="M36.4374673,36.0315625 C36.4374673,21.655 47.0088437,10 60.0520937,10 C73.092475,10 83.7199082,21.623351 83.7199082,35.9999135 C83.7199082,36.0636944 83.7199082,36.1689014 83.7199082,36.3155347 C83.7199082,36.3155347 83.7470179,64.0253125 60.0454054,64.0253125 C36.3457054,64.0253125 36.4374673,73.5625 36.4374673,73.5625 L36.4374673,37.1875 C36.4374673,36.6805734 36.4374673,36.2952609 36.4374673,36.0315625 Z" id="Hair" fill="#3E3832"></path>
        <path d="M47.6875,60.3182259 C48.6449673,61.8493066 51.3341721,88.75 59.40625,88.75 C67.4800751,88.75 71.125,61.3491346 71.125,59.9228712 C58.763958,52.8416736 47.6875,60.3182259 47.6875,60.3182259 Z" id="Neck" fill="#E7E5E2"></path>
        <path d="M85.1875,85.52239 C76.1528531,94.4723912 63.7219477,100 50,100 C44.6127016,100 39.4244023,99.1479838 34.5625,97.5713495 L34.5625,77.0525889 C34.5625,70.3527303 42.5605692,63.1459076 48.1172834,60.1645839 C47.8358186,60.3365546 47.6875,60.4402158 47.6875,60.4402158 C48.6449673,62.0255412 51.2183879,69.0625 59.2904658,69.0625 C67.3642909,69.0625 71.125,61.5076486 71.125,60.0308541 C71.0249775,59.9715248 70.9250392,59.9131824 70.8251901,59.8558149 C76.446239,62.6201594 85.1875,70.1086608 85.1875,77.0525889 L85.1875,85.52239 Z" id="Path" fill="#0C5472"></path>
        <path d="M80.7938327,89.3949255 C72.3055104,96.0393594 61.6152838,100 50,100 C44.9897866,100 40.1516893,99.2630836 35.588183,97.8917258 C36.1504801,91.3024842 39.3645909,86.4344921 44.1567764,83.3325765 C47.9457321,80.9764792 52.7259528,79.7943432 58.5068638,79.7943432 C62.3888793,79.7943432 65.7596403,80.47068 68.6572239,81.7466375 C68.9207516,81.8626825 69.2291687,81.7447305 69.3460928,81.4831842 C69.4630169,81.221638 69.3441713,80.9155398 69.0806436,80.7994948 C66.04658,79.463438 62.5315754,78.7581589 58.5068638,78.7581589 C53.3134906,78.7581589 48.8738353,79.6897713 45.1941153,81.5583882 L43.9894455,76.775911 L40.4200562,65.9829784 C41.6868309,64.7125337 43.0540063,63.5492786 44.4084787,62.5444862 L47.9452686,72.5265236 C48.0598961,72.553368 48.1744497,72.5798222 48.2889294,72.6058862 C49.6758969,71.5883968 51.3914557,70.9868421 53.2485795,70.9868421 C55.743179,70.9868421 57.9823461,72.0722552 59.5127841,73.7931929 C61.0432221,72.0722552 63.2823892,70.9868421 65.7769886,70.9868421 C67.6067994,70.9868421 69.2991786,71.5708326 70.675231,72.5612635 C70.8094232,72.5287934 70.9436154,72.4957378 71.0778077,72.4620966 L74.7187653,62.2000427 C76.0770875,63.1602879 77.4490392,64.2657449 78.7486695,65.499607 L74.127494,79.448565 C74.1052793,80.5302025 73.8743197,81.5609651 73.4729687,82.5027879 C76.5231729,84.1651843 79.0409355,86.465798 80.7938327,89.3949255 L80.7938327,89.3949255 Z" id="Path" fill="#F5A096"></path>
        <path d="M55.6284723,92.8292403 C54.0609929,91.0416541 53.5384998,87.4664818 55.6284723,86.2747577 C56.8877315,85.5567149 58.1469908,86.0315201 59.40625,87.2603494 C60.6655092,86.0315201 61.9247685,85.5567149 63.1840277,86.2747577 C65.2740002,87.4664818 64.7515071,91.0416541 63.1840277,92.8292403 C62.3051919,93.8314831 59.538176,96.3133167 59.40625,96.2487643 C59.274324,96.3133167 56.5073081,93.8314831 55.6284723,92.8292403 Z" id="Heart" fill="#A13A28"></path>
        <path d="M65.773884,97.4609375 L64.2567689,97.4609375 C63.7109503,97.4609375 63.2697368,97.0060614 63.2697368,96.445731 C63.2697368,95.8845636 63.7109503,95.4296875 64.2567689,95.4296875 L70.9129523,95.4296875 C69.247334,96.1977044 67.5322834,96.8768156 65.773884,97.4609375 Z" id="Path" fill="#E6E5E2" fill-rule="nonzero"></path>
        <path d="M71.9807135,94.921875 L62.7381787,94.921875 C62.1928083,94.921875 61.75,94.4669052 61.75,93.9060407 C61.75,93.3451763 62.1928083,92.890625 62.7381787,92.890625 L72.3881579,92.890625 L72.3881579,92.3828125 L65.4262206,92.3828125 C64.7952253,92.3828125 64.2828947,91.9282612 64.2828947,91.3673968 C64.2828947,90.8061138 64.7952253,90.3515625 65.4262206,90.3515625 L74.4771777,90.3515625 L75.5702924,89.84375 L70.8684211,89.84375 C70.3088694,89.84375 69.8552632,89.3890392 69.8552632,88.828125 C69.8552632,88.2672108 70.3088694,87.8125 70.8684211,87.8125 L78.2686045,87.8125 C78.6639225,87.8125 78.9986679,88.0530311 79.4802632,88.3203125 C79.6656753,88.4232147 80.1848129,88.7173884 81.0376758,89.2028334 C78.2453285,91.4165764 75.2109601,93.3383046 71.9807135,94.921875 L71.9807135,94.921875 Z" id="Path" fill="#E6E5E2" fill-rule="nonzero"></path>
        <path d="M40.69344,35.8006515 C40.69344,35.8006515 40.5951846,36.3587518 40.4679791,36.2669292 C40.2907686,36.1951076 40.1012763,36.1523783 39.899502,36.1514691 C39.0301179,36.15056 38.3230306,36.880595 38.3212761,37.7824564 L38.3125,44.0228636 C38.3107487,44.924725 39.0143269,45.6565782 39.8854655,45.6583965 C40.2337455,45.6583965 40.5530752,45.5383908 40.8145045,45.3392903 C42.9199754,55.3879536 50.4242246,62.4845233 59.372476,62.5 C68.3207273,62.5145248 75.848663,55.4415925 77.9830842,45.4002023 C78.2436362,45.5993028 78.562966,45.7211268 78.9121232,45.7220359 C79.7823845,45.7229451 80.4894718,44.9929101 80.4903491,44.0919578 L80.5,37.8506414 C80.5008765,36.9487801 79.7972983,36.2169268 78.927037,36.2151085 C78.7261399,36.2151085 78.534893,36.2578379 78.3585598,36.3287503 C58.1776212,38.7206831 51.1383302,25.0009091 50.5435347,25 C50.5435347,25 42.1032282,32.9005125 40.69344,35.8006515 Z" id="Head" fill="#E7E5E2"></path>
        <path d="M52.6803437,41.6711875 C51.3237812,41.773375 50.9440937,39.7736875 51.3528437,38.46775 C51.4297187,38.22025 51.8787812,37.093375 52.6737812,37.093375 C53.4678437,37.093375 53.8184687,37.7093125 53.8672187,37.81525 C54.4512812,39.088375 54.1644062,41.5586875 52.6803437,41.6711875" id="Left" fill="#635E59"></path>
        <path d="M67.8204063,41.6711875 C69.1769688,41.773375 69.5566563,39.7736875 69.1479063,38.46775 C69.0710313,38.22025 68.6219688,37.093375 67.8269688,37.093375 C67.0329063,37.093375 66.6822813,37.7093125 66.6335313,37.81525 C66.0494688,39.088375 66.3363438,41.5586875 67.8204063,41.6711875" id="Right" fill="#635E59"></path>
        <path d="M60.6805671,43.9701993 C61.478366,43.84739 62.0232277,43.9244617 62.2183586,44.1639404 C62.954883,45.0691405 62.7193003,46.0268016 61.4556906,46.8129613 C60.7913193,47.2261479 59.8768341,47.3715742 59.3927002,47.1573192 C59.1559636,47.0525507 58.879119,47.159532 58.7743505,47.3962685 C58.669582,47.6330051 58.7765632,47.9098497 59.0132998,48.0146183 C59.8134511,48.3687278 61.0439541,48.1730465 61.9508676,47.6090178 C63.6680383,46.5406735 64.061019,44.9431778 62.945347,43.5719996 C62.473221,42.992572 61.6374778,42.8743546 60.5379329,43.0436132 C60.2820632,43.0830006 60.1065696,43.3223537 60.145957,43.5782233 C60.1853443,43.834093 60.4246974,44.0095866 60.6805671,43.9701993 Z" id="Nose" fill="#D1BFA3" fill-rule="nonzero"></path>
        <path d="M66.023939,50.8051008 C65.9816557,50.9019498 65.8846912,51.087383 65.7288568,51.3316372 C65.4650679,51.7450992 65.1338152,52.1596163 64.7314892,52.5461625 C63.5325876,53.6980414 61.9721128,54.3641072 59.9860272,54.3031891 C58.0494733,54.2437903 56.4959738,53.5880029 55.2779882,52.5305022 C54.8308005,52.1422371 54.4616024,51.7264299 54.1665012,51.3119652 C53.9924802,51.0675556 53.8838205,50.8822439 53.8362973,50.7856773 C53.721986,50.5533982 53.441019,50.4577664 53.2087398,50.5720777 C52.9764607,50.686389 52.8808289,50.967356 52.9951402,51.1996352 C53.0639932,51.3395436 53.1979884,51.5680631 53.4028033,51.8557223 C53.7390953,52.3280388 54.1572763,52.7990128 54.6633561,53.2384101 C56.0382974,54.4321856 57.7954434,55.1739395 59.9572853,55.2402484 C62.2085107,55.309299 64.0082751,54.541096 65.3810116,53.2222001 C65.8400102,52.7812041 66.2173073,52.3090688 66.519203,51.8358784 C66.7027795,51.5481413 66.8221793,51.3198033 66.8831235,51.1802117 C66.9867075,50.9429544 66.878344,50.666648 66.6410867,50.563064 C66.4038294,50.45948 66.127523,50.5678435 66.023939,50.8051008 Z" id="Mouth" fill="#D19E9C" fill-rule="nonzero"></path>
        <path d="M11.5236607,77.5886892 C10.9675893,77.0257523 8.33589286,75.0932457 8.89276786,74.5303087 L8.1136245,71.7 L29.0752679,53.4222027 C29.6321429,52.8592658 30.53375,52.8592658 31.0914286,53.4222027 L52.2806428,71.7 L47.391875,82.1198039 C47.9471429,82.6819286 29.9383036,92.0008507 29.3822321,92.5646 L11.5236607,77.5886892 Z" id="Back" fill="#0C576F"></path>
        <path d="M20.7936277,90.5876794 C17.5423157,88.2439609 14.5839483,85.5191998 11.9839479,82.4788185 L11.9839479,66.2852794 C11.9839479,66.0420794 12.1816265,65.8444794 12.4267157,65.8444794 L47.96868,65.8444794 C48.2121622,65.8444794 48.4098407,66.0420794 48.4098407,66.2852794 L48.4098407,90.1476794 C48.4098407,90.3884794 48.2121622,90.5876794 47.96868,90.5876794 L20.7936277,90.5876794 L20.7936277,90.5876794 Z" id="Path" fill="#DCDCD2"></path>
        <mask id="mask-2" fill="white">
            <use xlink:href="#path-1"></use>
        </mask>
        <use id="Circle" fill="#0C5EA8" xlink:href="#path-1"></use>
        <path d="M29.3444931,77.3876967 L33.1200771,73.7578623 C33.4393203,73.4509429 33.9480361,73.4597831 34.2563256,73.7776074 C34.5646152,74.0954317 34.5557355,74.6018866 34.2364923,74.9088059 L29.851783,79.1242516 C29.5326807,79.4310355 29.024273,79.4223385 28.7159427,79.1049271 C28.6732745,79.0714631 28.633393,79.0331653 28.5970985,78.9901033 L26.9380187,77.0216767 C26.6527494,76.683217 26.6970937,76.1786125 27.0370644,75.8946111 C27.3770351,75.6106096 27.8838923,75.6547568 28.1691616,75.9932165 L29.3444931,77.3876967 Z" id="Mark" fill="#FFFFFF"></path>
        <path d="M8.1136245,77.3149739 L8.1136245,71.7 C8.1136245,71.7 37.3958617,93.962925 44.3039747,99.6791115 C29.1550103,97.9612198 16.0587914,89.4737384 8.1136245,77.3149739 L8.1136245,77.3149739 Z" id="Path" fill="#4C92D9"></path>
        <path d="M24.501727,93.0187976 C35.6533794,84.3417676 52.2806428,71.7 52.2806428,71.7 L52.2806428,99.344 C52.2806428,99.5593128 52.2393962,99.7651222 52.1643335,99.9539994 C51.4467017,99.9845629 50.7251536,100 50,100 C40.6863876,100 31.96754,97.4535093 24.501727,93.0187976 L24.501727,93.0187976 Z" id="Path" fill="#2C79C5"></path>
    </g>
</svg>