<?xml version="1.0" encoding="UTF-8"?>
<svg width="100px" height="100px" viewBox="0 0 100 100" version="1.1" xmlns="http://www.w3.org/2000/svg" xmlns:xlink="http://www.w3.org/1999/xlink">
    <!-- Generator: Sketch 55.1 (78136) - https://sketchapp.com -->
    <title>ikon/kan soke/mor4</title>
    <desc>Created with Sketch.</desc>
    <defs>
        <ellipse id="path-1" cx="30.5" cy="76.2" rx="6.42857143" ry="6.4"></ellipse>
    </defs>
    <g id="ikon/kan-soke/mor4" stroke="none" stroke-width="1" fill="none" fill-rule="evenodd">
        <circle id="Mask" fill="#C1B5D0" cx="50" cy="50" r="50"></circle>
        <path d="M86.9469312,38.9919538 C88.1486982,39.8280937 88.9375,41.2328159 88.9375,42.824825 C88.9375,43.884799 88.5878229,44.8617484 87.9993984,45.6431323 C88.5878229,46.4245162 88.9375,47.4014656 88.9375,48.4614396 C88.9375,50.7713705 87.2768628,52.6870127 85.1036347,53.0436452 C84.6139462,55.3281418 82.854794,57.1305583 80.6154209,57.6492442 C80.7137181,59.8297382 79.2812533,61.8439469 77.115226,62.3714811 C75.8995094,62.6671023 74.6808419,62.4387929 73.6893816,61.8298054 C72.8737199,62.2566144 71.9485915,62.4975493 70.9682691,62.4975493 C68.4466907,62.4975493 66.2907262,60.9046488 65.4224353,58.654851 C64.794894,58.5583207 64.1744915,58.2547822 63.6428832,57.696328 C62.9366266,56.9546321 62.0139499,56.6553743 61.1300924,56.7290548 C61.1090308,56.7672707 61.0885665,56.8061506 61.0687207,56.8456939 C60.5030325,57.973422 59.5168846,58.524347 58.5076188,58.591458 C58.4304055,58.7657932 58.3667721,58.9510858 58.3186251,59.1468168 C57.5835254,62.1308693 53.6770033,62.3619054 52.4508177,59.8399251 C51.71895,61.4109879 50.1449451,62.4975493 48.3215447,62.4975493 C46.9898439,62.4975493 45.7914895,61.9188313 44.9566109,60.9954186 C44.3084147,61.3542373 43.5652808,61.5581136 42.7754425,61.5581136 C40.2528903,61.5581136 38.207303,59.4800817 38.207303,56.9163615 C38.207303,56.467469 38.2700165,56.0334668 38.3870232,55.6229025 C36.8155608,55.0190689 35.6573902,53.5598636 35.4630877,51.8041888 C33.8169899,51.1024997 32.6612007,49.4495246 32.6612007,47.5220038 C32.6612007,45.5490858 33.8720737,43.8637979 35.5802025,43.1918318 C35.6867704,41.7270403 34.7960521,40.2395728 33.1994037,39.8338964 C30.0168654,39.0241028 30.0168654,34.4274436 33.1994037,33.61765 C35.5990173,33.0070167 36.4041265,29.9547899 34.6256764,28.2065 C32.2676586,25.8879725 34.5295439,21.9075832 37.6843517,22.823533 C38.203384,22.9742189 38.713832,22.9856268 39.1876717,22.8862478 C39.1507996,22.6487518 39.1316533,22.405268 39.1316533,22.1572382 C39.1316533,20.4226413 40.0680803,18.9103824 41.4550841,18.1136585 C41.2961625,15.3296713 44.7528939,13.5625141 46.8543177,15.7296908 C47.5292716,14.0230809 49.1729395,12.8183073 51.0936715,12.8183073 C51.6743878,12.8183073 52.2297776,12.9284359 52.7407258,13.1292659 C53.0700272,12.679321 53.4997597,12.3508081 53.9757144,12.1437271 C54.9919542,10.0874439 58.1223175,9.62244821 59.5037955,11.9509982 C60.7803233,14.104185 63.8879893,13.9914527 65.0119993,11.7527773 C66.4556689,8.87474868 70.6386632,9.75344149 70.9531709,12.8432308 C71.1096943,12.8267527 71.2685659,12.8183073 71.4293796,12.8183073 C73.3959578,12.8183073 75.0720874,14.0812811 75.7153999,15.8527447 C75.7571279,15.8277803 75.7986167,15.8017041 75.8398396,15.7745018 C78.5916306,13.9595119 81.900805,17.0934696 80.3155441,20.0122965 C79.1194347,22.2124551 80.7684758,24.8917259 83.23834,24.7602049 C86.515162,24.5873487 87.8388317,28.9829686 85.029731,30.7040149 C84.9443037,30.7563654 84.8624999,30.8117401 84.7843108,30.8698849 C86.6535045,31.4510931 88.0131496,33.2187313 88.0131496,35.3093389 C88.0131496,36.4892071 87.5800902,37.5662065 86.8667812,38.3851252 C86.9126275,38.5848219 86.9391057,38.7881506 86.9469312,38.9919538 L86.9469312,38.9919538 Z" id="Hair" fill="#333333"></path>
        <path d="M47.6875,60.3182259 C48.6449673,61.8493066 51.3341721,88.75 59.40625,88.75 C67.4800751,88.75 71.125,61.3491346 71.125,59.9228712 C58.763958,52.8416736 47.6875,60.3182259 47.6875,60.3182259 Z" id="Neck" fill="#E7E5E2"></path>
        <path d="M85.1875,85.52239 C76.1528531,94.4723912 63.7219477,100 50,100 C44.6127016,100 39.4244023,99.1479838 34.5625,97.5713495 L34.5625,76.9326272 C34.5625,68.1656142 48.1102869,58.75 52.2323813,58.75 L59.875,77.96875 L67.516678,58.75 C71.636891,58.75 85.1875,68.1656142 85.1875,76.9326272 L85.1875,85.52239 L85.1875,85.52239 Z" id="Path" fill="#0F5FA9"></path>
        <path d="M52.259657,57.2953216 C50.0352878,58.0624086 46.7532576,60.1398483 46.7532576,60.1398483 C46.5863093,66.8597405 52.8917445,73.6395285 52.8917445,73.6395285 L54.1723249,69.3417398 L58.9906656,78.3576389 L61.5576165,78.4375 L65.9909146,70.2906159 L67.7974304,74.8647661 C73.8809112,64.4187226 72.9487027,60.0232091 72.9487027,60.0232091 C70.5197495,57.9625822 67.4558136,56.875 67.4558136,56.875 L60.1901844,75.9618056 L52.259657,57.2953216 Z" id="Collar" fill="#3C84C5"></path>
        <path d="M61.5611967,25.0149075 C61.806092,26.8916494 63.3502431,28.3377568 65.2196743,28.3377568 C66.9188997,28.3377568 68.3508063,27.1408409 68.7798684,25.5116597 C68.7861469,25.8932471 68.7386586,26.2868117 68.6297399,26.6843626 C67.5420931,30.6475869 73.1517439,33.7039124 75.9019887,30.7412712 C76.3444401,30.5175506 76.9235927,30.5690324 77.6394466,30.8957165 C78.1595474,32.6172972 78.5182938,34.4330847 78.6934971,36.3161885 C78.7806124,36.2969483 78.8709848,36.2865682 78.9725152,36.2865682 C79.8521166,36.2865682 80.5,37.0259576 80.5,37.9381912 L80.5,43.896387 C80.5,44.8095808 79.8650928,45.54801 78.9827108,45.54801 C78.6311482,45.54801 78.3870641,45.4280962 78.1242546,45.2280617 C78.1043116,45.315983 78.0839579,45.4036982 78.0631963,45.4912042 C76.7363017,51.4770898 73.514252,56.3351815 69.220498,59.2764052 C66.3409391,61.325231 62.9867303,62.5 59.4060646,62.5 C56.8774739,62.5 54.4617632,61.914156 52.2463612,60.8483678 C46.5092459,58.2652383 42.1220297,52.5780965 40.5703599,45.2253673 C40.3062014,45.427019 40.0754103,45.54801 39.7222721,45.54801 C38.840817,45.54801 38.3125,44.8095808 38.3125,43.896387 L38.3125,37.6749639 C40.1148608,39.1638465 44.0628483,38.719146 44.7920567,35.6867477 C45.516239,32.6725989 49.1371506,31.6615236 51.209905,33.8944738 C53.9610654,36.857115 58.6833567,34.0156121 57.5966254,30.0533417 C56.8478812,27.3234942 58.9971696,24.7816076 61.5611967,25.0149075 L61.5611967,25.0149075 Z" id="Head" fill="#E7E5E2"></path>
        <path d="M52.6803437,41.6711875 C51.3237812,41.773375 50.9440937,39.7736875 51.3528437,38.46775 C51.4297187,38.22025 51.8787812,37.093375 52.6737812,37.093375 C53.4678437,37.093375 53.8184687,37.7093125 53.8672187,37.81525 C54.4512812,39.088375 54.1644062,41.5586875 52.6803437,41.6711875" id="Left" fill="#635E59"></path>
        <path d="M67.8204063,41.6711875 C69.1769688,41.773375 69.5566563,39.7736875 69.1479063,38.46775 C69.0710313,38.22025 68.6219688,37.093375 67.8269688,37.093375 C67.0329063,37.093375 66.6822813,37.7093125 66.6335313,37.81525 C66.0494688,39.088375 66.3363438,41.5586875 67.8204063,41.6711875" id="Right" fill="#635E59"></path>
        <path d="M60.6805671,43.9701993 C61.478366,43.84739 62.0232277,43.9244617 62.2183586,44.1639404 C62.954883,45.0691405 62.7193003,46.0268016 61.4556906,46.8129613 C60.7913193,47.2261479 59.8768341,47.3715742 59.3927002,47.1573192 C59.1559636,47.0525507 58.879119,47.159532 58.7743505,47.3962685 C58.669582,47.6330051 58.7765632,47.9098497 59.0132998,48.0146183 C59.8134511,48.3687278 61.0439541,48.1730465 61.9508676,47.6090178 C63.6680383,46.5406735 64.061019,44.9431778 62.945347,43.5719996 C62.473221,42.992572 61.6374778,42.8743546 60.5379329,43.0436132 C60.2820632,43.0830006 60.1065696,43.3223537 60.145957,43.5782233 C60.1853443,43.834093 60.4246974,44.0095866 60.6805671,43.9701993 Z" id="Nose" fill="#D1BFA3" fill-rule="nonzero"></path>
        <path d="M66.023939,50.8051008 C65.9816557,50.9019498 65.8846912,51.087383 65.7288568,51.3316372 C65.4650679,51.7450992 65.1338152,52.1596163 64.7314892,52.5461625 C63.5325876,53.6980414 61.9721128,54.3641072 59.9860272,54.3031891 C58.0494733,54.2437903 56.4959738,53.5880029 55.2779882,52.5305022 C54.8308005,52.1422371 54.4616024,51.7264299 54.1665012,51.3119652 C53.9924802,51.0675556 53.8838205,50.8822439 53.8362973,50.7856773 C53.721986,50.5533982 53.441019,50.4577664 53.2087398,50.5720777 C52.9764607,50.686389 52.8808289,50.967356 52.9951402,51.1996352 C53.0639932,51.3395436 53.1979884,51.5680631 53.4028033,51.8557223 C53.7390953,52.3280388 54.1572763,52.7990128 54.6633561,53.2384101 C56.0382974,54.4321856 57.7954434,55.1739395 59.9572853,55.2402484 C62.2085107,55.309299 64.0082751,54.541096 65.3810116,53.2222001 C65.8400102,52.7812041 66.2173073,52.3090688 66.519203,51.8358784 C66.7027795,51.5481413 66.8221793,51.3198033 66.8831235,51.1802117 C66.9867075,50.9429544 66.878344,50.666648 66.6410867,50.563064 C66.4038294,50.45948 66.127523,50.5678435 66.023939,50.8051008 Z" id="Mouth" fill="#D19E9C" fill-rule="nonzero"></path>
        <path d="M11.5236607,77.5886892 C10.9675893,77.0257523 8.33589286,75.0932457 8.89276786,74.5303087 L8.1136245,71.7 L29.0752679,53.4222027 C29.6321429,52.8592658 30.53375,52.8592658 31.0914286,53.4222027 L52.2806428,71.7 L47.391875,82.1198039 C47.9471429,82.6819286 29.9383036,92.0008507 29.3822321,92.5646 L11.5236607,77.5886892 Z" id="Back" fill="#0C576F"></path>
        <path d="M20.7936277,90.5876794 C17.5423157,88.2439609 14.5839483,85.5191998 11.9839479,82.4788185 L11.9839479,66.2852794 C11.9839479,66.0420794 12.1816265,65.8444794 12.4267157,65.8444794 L47.96868,65.8444794 C48.2121622,65.8444794 48.4098407,66.0420794 48.4098407,66.2852794 L48.4098407,90.1476794 C48.4098407,90.3884794 48.2121622,90.5876794 47.96868,90.5876794 L20.7936277,90.5876794 L20.7936277,90.5876794 Z" id="Path" fill="#DCDCD2"></path>
        <mask id="mask-2" fill="white">
            <use xlink:href="#path-1"></use>
        </mask>
        <use id="Circle" fill="#0C5EA8" xlink:href="#path-1"></use>
        <path d="M29.3444931,77.3876967 L33.1200771,73.7578623 C33.4393203,73.4509429 33.9480361,73.4597831 34.2563256,73.7776074 C34.5646152,74.0954317 34.5557355,74.6018866 34.2364923,74.9088059 L29.851783,79.1242516 C29.5326807,79.4310355 29.024273,79.4223385 28.7159427,79.1049271 C28.6732745,79.0714631 28.633393,79.0331653 28.5970985,78.9901033 L26.9380187,77.0216767 C26.6527494,76.683217 26.6970937,76.1786125 27.0370644,75.8946111 C27.3770351,75.6106096 27.8838923,75.6547568 28.1691616,75.9932165 L29.3444931,77.3876967 Z" id="Mark" fill="#FFFFFF"></path>
        <path d="M8.1136245,77.3149739 L8.1136245,71.7 C8.1136245,71.7 37.3958617,93.962925 44.3039747,99.6791115 C29.1550103,97.9612198 16.0587914,89.4737384 8.1136245,77.3149739 L8.1136245,77.3149739 Z" id="Path" fill="#4C92D9"></path>
        <path d="M24.501727,93.0187976 C35.6533794,84.3417676 52.2806428,71.7 52.2806428,71.7 L52.2806428,99.344 C52.2806428,99.5593128 52.2393962,99.7651222 52.1643335,99.9539994 C51.4467017,99.9845629 50.7251536,100 50,100 C40.6863876,100 31.96754,97.4535093 24.501727,93.0187976 L24.501727,93.0187976 Z" id="Path" fill="#2C79C5"></path>
    </g>
</svg>