<svg xmlns="http://www.w3.org/2000/svg" xmlns:xlink="http://www.w3.org/1999/xlink" width="34" height="46" viewBox="0 0 34 46">
    <defs>
        <path id="a" d="M64 60.159v9.73H42v-9.73c0-2.784 3.594-5.962 6-7.27h10c2.428 1.331 6 4.518 6 7.27z"/>
    </defs>
    <g fill="none" fill-rule="evenodd">
        <g transform="translate(-36 -23.889)">
            <mask id="b" fill="#fff">
                <use xlink:href="#a"/>
            </mask>
            <use fill="#D8A25D" xlink:href="#a"/>
            <g fill="#38A161" mask="url(#b)">
                <path d="M.87 113h115V0H.87z"/>
            </g>
        </g>
        <path fill="#FFBD66" d="M10.467 46H22.6l1.9-15.583c-.22-.188-1.5-1.071-1.5-.945l-1.49 7.49-9.834.313L11 29.472s-1.533.932-2 1.417L10.467 46z"/>
        <path fill="#E7E5E2" d="M2.033 14C2.547 6.182 9.052 0 17 0s14.453 6.182 14.967 14H32a2 2 0 0 1 2 2v2a2 2 0 0 1-2.796 1.835 15.04 15.04 0 0 1-9.206 9.312 5 5 0 0 1-9.996 0 15.04 15.04 0 0 1-9.206-9.312A2 2 0 0 1 0 18v-2a2 2 0 0 1 2.033-2z"/>
        <g transform="translate(7 12)">
            <path fill="#E8CCC8" d="M6 10a3 3 0 1 1-6 0 3 3 0 0 1 6 0M20 10a3 3 0 1 1-6 0 3 3 0 0 1 6 0"/>
            <path fill="#D1BFA3" fill-rule="nonzero" d="M10.824 5.534a.5.5 0 1 1-.206-.979c.673-.141 1.235-.033 1.544.487.601 1.01.392 2.173-.556 2.98-.551.468-1.324.636-1.865.309a.5.5 0 0 1 .518-.856c.118.072.445 0 .7-.216.58-.493.693-1.12.344-1.706-.033-.055-.178-.083-.48-.02z"/>
            <path fill="#635E59" fill-rule="nonzero" d="M1.553 3.224a.5.5 0 0 1 .894-.448c.24.48.728.724 1.553.724s1.313-.244 1.553-.724a.5.5 0 0 1 .894.448C6.02 4.077 5.175 4.5 4 4.5s-2.02-.423-2.447-1.276zM13.553 3.224a.5.5 0 0 1 .894-.448c.24.48.728.724 1.553.724s1.313-.244 1.553-.724a.5.5 0 1 1 .894.448C18.02 4.077 17.175 4.5 16 4.5s-2.02-.423-2.447-1.276z"/>
            <path fill="#FFF" d="M8.642 12.208c-.345.187-.715.498-1.108.93-.59.65-.357 1.841.47 2.002.828.161 1.102-.55 1.174-.918.048-.245-.13-.917-.536-2.014z"/>
            <ellipse cx="10" cy="12" fill="#593A32" rx="3" ry="1"/>
        </g>
        <g fill="#78706A" fill-rule="nonzero">
            <path d="M13.73 1.271a.5.5 0 0 1 .963.266c-.1.363-.003.523.645 1.106.659.593.811 1.369.446 2.207a.5.5 0 1 1-.917-.4c.197-.45.135-.764-.198-1.064-.911-.82-1.177-1.256-.94-2.115zM16.664.998a.5.5 0 0 1 .804.594c-.223.303-.19.487.206 1.264.402.79.267 1.568-.375 2.22a.5.5 0 0 1-.712-.702c.344-.35.4-.665.196-1.064-.557-1.093-.649-1.594-.12-2.312zM19.538.975a.5.5 0 0 1 .582.813c-.307.22-.331.404-.195 1.265.139.875-.231 1.575-1.043 1.996a.5.5 0 0 1-.46-.888c.436-.226.585-.51.515-.951-.192-1.212-.124-1.717.601-2.235z"/>
        </g>
    </g>
</svg>
