<svg xmlns="http://www.w3.org/2000/svg" xmlns:xlink="http://www.w3.org/1999/xlink" width="180" height="115" viewBox="0 0 180 115">
    <defs>
        <path  d="M.098 6.146l1.38 1.222L4.847 5.93l3.15-.125-1.448-2.168-1.8-.987v-.672L2.77.517H.099v5.629z"/>
        <path  d="M.444 4.988l1.813 1.605 3.369-1.437 3.15-.126-1.449-2.167-1.799-.987v-.672L4.925.759H.445v4.229z"/>
        <path  d="M10.101 2.807L2.751.383.57.24l4.265 4.49H10.1V2.808z"/>
        <path  d="M5.547 5.747l.128-.133L.572.24 2.75.383l6.918 2.28v3.084H5.547z"/>
        <path  d="M6.108 6.764l-1.044-.516.61-.634L.573.24 2.75.383l6.485 2.138v4.243H6.108z"/>
    </defs>
    <g fill="none" fill-rule="evenodd">
        <path fill="#585B5C" d="M109.296 42.04H70.582a2.883 2.883 0 0 0-2.892 2.875v48.57a2.846 2.846 0 0 0 .847 2.033 2.886 2.886 0 0 0 2.045.843h38.714a2.883 2.883 0 0 0 2.892-2.876v-48.57a2.883 2.883 0 0 0-2.892-2.874"/>
        <path fill="#FFF" d="M71.273 52.656v37.37A2.42 2.42 0 0 0 73.7 92.44h32.48a2.42 2.42 0 0 0 2.426-2.413V47.121a2.42 2.42 0 0 0-2.426-2.413H79.715l-8.442 7.948z"/>
        <path fill="#CCCAC8" d="M79.715 44.708v5.535a2.42 2.42 0 0 1-2.426 2.413h-6.015l8.441-7.948zM83.656 65.154h18.027V63.15H83.656zM83.656 69.684h18.027v-2H83.656zM83.656 74.215h18.027v-2.002H83.656zM83.656 78.745h18.027v-2H83.656zM78.729 65.154h2.128V63.15h-2.128zM78.729 69.684h2.128v-2h-2.128zM78.729 74.215h2.128v-2.002h-2.128zM78.729 78.745h2.128v-2h-2.128z"/>
        <path stroke="#8DC63F" d="M78.459 62.633l1.366 1.555 1.928-2.473"/>
        <path fill="#37363A" d="M89.939 43.391a.932.932 0 0 1-.935-.93c0-.513.418-.929.935-.929.516 0 .934.416.934.93 0 .512-.418.929-.934.929m5.78-3.803h-3.483v-.638a2.29 2.29 0 0 0-2.297-2.285 2.29 2.29 0 0 0-2.297 2.285v.638H84.16a3.1 3.1 0 0 0-3.11 3.092v3.72h17.778v-3.72a3.1 3.1 0 0 0-3.11-3.092"/>
        <path fill="#BDD1D0" d="M51.855 99.636l13.952 4.9-3.705 10.43h-15.97z"/>
        <path fill="#6E9DAA" d="M51.855 99.636l13.952 4.9-1.489 4.19-13.951-4.901z"/>
        <path fill="#37363A" d="M52.556 102.272a.94.94 0 0 1 1.198-.569c.489.171.745.705.572 1.191a.94.94 0 0 1-1.77-.622"/>
        <path fill="#BDD1D0" d="M128.025 99.636l-13.951 4.9 3.704 10.43h15.97z"/>
        <path fill="#6E9DAA" d="M128.025 99.636l-13.951 4.9 1.488 4.19 13.952-4.901z"/>
        <path fill="#37363A" d="M127.325 102.272a.94.94 0 0 0-1.199-.569.932.932 0 0 0-.572 1.191.94.94 0 0 0 1.77-.622"/>
        <path fill="#E7E6E2" d="M62.796 95.728l.22.158a2.342 2.342 0 0 0 3.259-.521l7.75-10.66a2.313 2.313 0 0 0-.523-3.242l-.22-.158a2.342 2.342 0 0 0-3.26.52l-7.75 10.662a2.312 2.312 0 0 0 .524 3.24"/>
        <path fill="#E7E6E2" d="M67.246 85.646v-8.139h-.706a.57.57 0 0 0-.413.175c-1.171 1.216-8.083 8.397-9.322 9.756-.133.146-.23.32-.286.51l-3.528 12.086 10.723 3.768s.172-.8.344-1.713c.173-.912 2.59-3.764 3.188-5.19.598-1.426.81-3.985 1.737-5.259.926-1.274-1.737-5.994-1.737-5.994"/>
        <path fill="#C5232A" d="M117.62 86.855l.919-2.157a.488.488 0 0 1 .64-.258l1.184.5a.484.484 0 0 1 .26.636l-.918 2.157a.489.489 0 0 1-.64.257l-1.185-.5a.484.484 0 0 1-.26-.635"/>
        <path fill="#E9D8BD" d="M98.4 75.692l-4.27.001 2.971 3.05 1.1-1.407z"/>
        <g transform="translate(98.177 75.306)">
            <mask  fill="#fff">
                <use xlink:href="#a"/>
            </mask>
            <path fill="#EEC85D" d="M20.571 10.152l.433-1.016L.531.516.098 1.534z" mask="url(#b)"/>
        </g>
        <g transform="translate(97.398 76.08)">
            <mask  fill="#fff">
                <use xlink:href="#c"/>
            </mask>
            <path fill="#E2B954" d="M.444 1.776l20.473 8.618.433-1.017L.877.76z" mask="url(#d)"/>
        </g>
        <path fill="#EEC85D" d="M118.315 86.475l-20.473-8.619-.433 1.017 20.473 8.619zM98.04 75.933c-.082.192.108.422-.001.678a.325.325 0 0 1-.067.1l.303.128.433-1.017-.282-.12s-.305.039-.387.23"/>
        <path fill="#E2B954" d="M97.972 76.711c-.135.14-.364.128-.479.398-.115.27.053.426.046.62l.303.127.434-1.017-.304-.128z"/>
        <path fill="#EEC85D" d="M97.54 77.728a.318.318 0 0 1-.026.117c-.11.256-.408.281-.49.473-.082.192.103.436.103.436l.282.119.433-1.017-.303-.128z"/>
        <path fill="#5C5B5A" d="M94.13 75.694l1.051 1.078.46-1.078zM117.882 87.492l1.298-3.05.418.175-1.298 3.05z"/>
        <g fill="#E7E6E2">
            <path d="M105.144 89.213l.014.233a2.002 2.002 0 0 0 2.118 1.877l7.171-.409a2 2 0 0 0 1.889-2.106l-.013-.232a2.003 2.003 0 0 0-2.118-1.878l-7.173.409a2 2 0 0 0-1.888 2.106"/>
            <path d="M103.653 86.148l.014.232a2.003 2.003 0 0 0 2.117 1.878l7.172-.41a2 2 0 0 0 1.889-2.105l-.014-.233a2.003 2.003 0 0 0-2.117-1.878l-7.173.41a1.999 1.999 0 0 0-1.888 2.106"/>
            <path d="M101.818 83.144l.014.232a2.002 2.002 0 0 0 2.117 1.879l7.172-.41a2 2 0 0 0 1.889-2.106l-.014-.232a2.003 2.003 0 0 0-2.118-1.879l-7.172.41a2 2 0 0 0-1.888 2.106"/>
            <path d="M102.967 77.7l-.043.229a1.996 1.996 0 0 0 1.602 2.329l7.061 1.316a2.006 2.006 0 0 0 2.342-1.594l.043-.229a1.996 1.996 0 0 0-1.602-2.328l-7.061-1.316a2.006 2.006 0 0 0-2.342 1.593"/>
            <path d="M107.422 82.98l-2.697-4.037-1.797-.987 9.995-.31c.153.033 11.187 8.01 12.115 9.594.1.17.159.361.173.558l.928 12.553-10.541 3.617s-.146-.838-.343-1.745c-.252-1.163-2.119-6.365-2.406-7.883-.287-1.518-1.218-3.562-2.338-4.67-1.465-1.451-3.09-6.69-3.09-6.69"/>
            <path d="M116.495 92.32l.193-.192a2.312 2.312 0 0 0-.008-3.282l-9.373-9.282a2.343 2.343 0 0 0-3.301.007l-.192.192a2.312 2.312 0 0 0 .007 3.281l9.374 9.283c.913.904 2.39.901 3.3-.007"/>
        </g>
        <g>
            <path fill="#C5232A" d="M117.62 86.855l.919-2.157a.488.488 0 0 1 .64-.258l1.184.5a.484.484 0 0 1 .26.636l-.918 2.157a.489.489 0 0 1-.64.257l-1.185-.5a.484.484 0 0 1-.26-.635"/>
            <path fill="#E9D8BD" d="M98.4 75.692l-4.27.001 2.971 3.05 1.1-1.407z"/>
            <g transform="translate(109.08 80.727)">
                <mask  fill="#fff">
                    <use xlink:href="#e"/>
                </mask>
                <path fill="#EEC85D" d="M9.668 4.73l.433-1.016-20.473-8.619-.433 1.017z" mask="url(#f)"/>
            </g>
            <g transform="translate(109.08 80.727)">
                <mask  fill="#fff">
                    <use xlink:href="#g"/>
                </mask>
                <path fill="#E2B954" d="M-11.237-2.871L9.236 5.747l.433-1.017-20.473-8.618z" mask="url(#h)"/>
            </g>
            <g transform="translate(109.08 80.727)">
                <mask  fill="#fff">
                    <use xlink:href="#i"/>
                </mask>
                <path fill="#EEC85D" d="M9.236 5.748l-20.473-8.62-.433 1.018L8.803 6.764z" mask="url(#j)"/>
            </g>
            <path fill="#EEC85D" d="M98.04 75.933c-.082.192.108.422-.001.678a.325.325 0 0 1-.067.1l.303.128.433-1.017-.282-.12s-.305.039-.387.23"/>
            <path fill="#E2B954" d="M97.972 76.711c-.135.14-.364.128-.479.398-.115.27.053.426.046.62l.303.127.434-1.017-.304-.128z"/>
            <path fill="#EEC85D" d="M97.54 77.728a.318.318 0 0 1-.026.117c-.11.256-.408.281-.49.473-.082.192.103.436.103.436l.282.119.433-1.017-.303-.128z"/>
            <path fill="#5C5B5A" d="M94.13 75.694l1.051 1.078.46-1.078zM117.882 87.492l1.298-3.05.418.175-1.298 3.05z"/>
        </g>
        <g>
            <path fill="#C1C0B9" d="M151.962 54.508l-4.117-1.598a1.514 1.514 0 0 1-.87-1.972l.422-1.047c.313-.777 1.218-1.162 2.01-.854l4.117 1.597a1.515 1.515 0 0 1 .87 1.973l-.421 1.047c-.314.777-1.219 1.162-2.011.854z"/>
            <path fill="#C1C0B9" d="M148.934 50.565c-2.2 5.876-8.84 8.89-14.83 6.73-5.991-2.158-9.064-8.671-6.863-14.547 2.2-5.876 8.84-8.89 14.831-6.731 5.99 2.158 9.062 8.672 6.862 14.548"/>
            <path fill="#2D2623" d="M146.424 49.66c-1.69 4.517-6.795 6.833-11.4 5.174-4.603-1.659-6.965-6.665-5.273-11.182 1.691-4.517 6.795-6.832 11.4-5.173 4.603 1.659 6.964 6.665 5.273 11.181"/>
            <path fill="#A5A49E" d="M137.788 37.055l.028.89-.028-.89c-4.016.122-7.505 2.591-8.89 6.29-1.862 4.97.747 10.5 5.814 12.325a9.91 9.91 0 0 0 3.676.588c4.015-.123 7.504-2.592 8.89-6.29 1.86-4.97-.748-10.5-5.815-12.326a9.926 9.926 0 0 0-3.675-.587m.028.89a9.011 9.011 0 0 1 3.334.534c4.604 1.659 6.965 6.665 5.274 11.181-1.287 3.437-4.55 5.6-8.064 5.707a9.025 9.025 0 0 1-3.335-.533c-4.604-1.659-6.966-6.665-5.274-11.182 1.287-3.436 4.55-5.599 8.065-5.706"/>
            <path fill="#6B635F" d="M139.982 40.202a8.66 8.66 0 0 1 3.771.74 8.15 8.15 0 0 0-5.883-2.24c-4.468.136-7.978 3.798-7.839 8.181.07 2.227 1.072 4.209 2.624 5.605a8.239 8.239 0 0 1-.973-3.622c-.147-4.64 3.57-8.52 8.3-8.664"/>
            <path fill="#FFF" d="M129.75 43.652c1.287-3.436 4.55-5.599 8.065-5.706a9.002 9.002 0 0 1 3.335.533c.467.168.905.38 1.325.613a10.55 10.55 0 0 1 1.934.231 9.79 9.79 0 0 0-2.946-1.681 9.904 9.904 0 0 0-3.675-.587l.027.891-.027-.89h-.002c-4.014.121-7.503 2.59-8.888 6.29-1.758 4.694.472 9.884 4.994 11.985a10.126 10.126 0 0 1-1.016-1.628c-3.138-2.231-4.528-6.306-3.125-10.051"/>
        </g>
        <g>
            <path fill="#84748A" d="M58.567 25.72l-11.706-6.758-9.6-5.542-4.676-2.7-2.68 4.641-18.92 32.77-2.68 4.643 4.676 2.7 9.6 5.543 11.706 6.759c2.583 1.491 5.878.622 7.358-1.942l18.92-32.77c1.48-2.564.586-5.852-1.998-7.343"/>
            <path fill="#38363A" d="M28.014 65.52l1.785 1.03 25.287-43.798-1.785-1.031z"/>
            <path fill="#CE2128" d="M13.846 60.979l-.47-1.39-1.439.288 1.94-3.36 1.909 1.102z"/>
        </g>
    </g>
</svg>
