<svg xmlns="http://www.w3.org/2000/svg" width="180" height="115" viewBox="0 0 180 115">
    <g fill="none" fill-rule="evenodd">
        <path fill="#FFF" d="M61.192 93.051c-2.315 0-4.192-1.929-4.192-4.309V10.4c0-2.378 1.877-4.309 4.192-4.309h55.012c2.315 0 4.192 1.93 4.192 4.31v78.341c0 2.38-1.877 4.31-4.192 4.31H61.192z"/>
        <path fill="#627282" d="M61.696 76.374H115.7V10.856H61.696zM94.568 84.712c0 2.631-2.103 4.766-4.696 4.766-2.594 0-4.696-2.135-4.696-4.766 0-2.631 2.102-4.764 4.696-4.764 2.593 0 4.696 2.133 4.696 4.764"/>
        <g>
            <path fill="#F5F5F5" d="M76.913 35.78h36.063v-3.985H76.913zM76.913 44.801h36.063v-3.984H76.913zM76.913 53.821h36.063v-3.986H76.913zM76.913 62.84h36.063v-3.984H76.913z"/>
            <path fill="#FFF" d="M67.055 35.78h4.257v-3.985h-4.257zM67.055 44.801h4.257v-3.984h-4.257zM67.055 53.821h4.257v-3.986h-4.257zM67.055 62.84h4.257v-3.984h-4.257z"/>
            <path stroke="#8DC63F" stroke-width="1.996" d="M66.514 30.763l2.735 3.095 3.856-4.924"/>
        </g>
        <g>
            <path fill="#561D5B" d="M32.783 91.404l20.927 7.383-5.557 15.71H24.2z"/>
            <path fill="#7C7086" d="M32.783 91.404l20.927 7.383-2.232 6.31-20.928-7.382z"/>
            <path fill="#37363A" d="M33.834 95.376a1.408 1.408 0 0 1 2.655.937 1.407 1.407 0 0 1-2.655-.937"/>
            <path fill="#E7E6E2" d="M49.194 85.517l.33.24a3.503 3.503 0 0 0 4.888-.786l11.626-16.058a3.494 3.494 0 0 0-.785-4.882l-.331-.238a3.503 3.503 0 0 0-4.888.784L48.41 80.637a3.493 3.493 0 0 0 .785 4.88"/>
            <path fill="#E7E6E2" d="M55.869 70.33V58.073H54.81a.853.853 0 0 0-.62.263c-1.758 1.832-12.125 12.65-13.983 14.695-.2.221-.346.482-.43.768l-5.292 18.207 16.085 5.675s.259-1.204.517-2.58c.258-1.374 3.884-5.67 4.78-7.818.898-2.147 1.217-6.002 2.606-7.921 1.39-1.92-2.605-9.03-2.605-9.03"/>
        </g>
        <g>
            <path fill="#E7E6E2" d="M116.386 68c1.321 0 2.389.93 2.389 2.078v22.109c0 1.148-1.068 2.078-2.389 2.078-1.317 0-2.386-.93-2.386-2.078V70.078c0-1.148 1.069-2.078 2.386-2.078M111.389 64a2.384 2.384 0 0 1 2.387 2.383v28.666a2.384 2.384 0 0 1-2.387 2.383A2.385 2.385 0 0 1 109 95.049V66.383A2.384 2.384 0 0 1 111.389 64M106.387 60a2.388 2.388 0 0 1 2.39 2.384v34.358a2.385 2.385 0 0 1-2.39 2.382A2.384 2.384 0 0 1 104 96.742V62.384A2.387 2.387 0 0 1 106.387 60M101.389 56c1.32 0 2.388 1.108 2.388 2.47v23.752c0 1.365-1.069 2.47-2.388 2.47-1.32 0-2.389-1.105-2.389-2.47V58.47c0-1.362 1.069-2.47 2.389-2.47"/>
            <path fill="#E7E6E2" d="M117.153 97.442v-2.571c0-.704 1.463-1.29 1.463-1.29l-3.045-20.656H101.2l-2.474 6.783s-.604.155-1.21-.624c-.604-.781-2.42-4.445-2.42-4.445s-2.418-4.324-4.653-3.545c-2.232.779-1.209 3.624-1.209 3.624s1.139 4.486 1.77 6.626c.795 2.705 2.651 5.457 4.187 7.486 1.534 2.025 4.466 4.984 5.49 4.984l.234 3.628h16.238z"/>
            <path fill="#561D5B" d="M99 114.314h21.247V97H99z"/>
            <path fill="#7C7086" d="M99 103.404h21.247V97H99z"/>
            <path fill="#2F3237" d="M117.697 101.347a1.349 1.349 0 0 0-2.697 0 1.35 1.35 0 0 0 2.697 0"/>
        </g>
    </g>
</svg>
