<svg xmlns="http://www.w3.org/2000/svg" width="132" height="109" viewBox="0 0 132 109">
    <g fill="none" fill-rule="evenodd">
        <path fill="#BDBEC3" d="M37.192 87.051c-2.315 0-4.192-1.929-4.192-4.309V4.4C33 2.022 34.877.091 37.192.091h55.012c2.315 0 4.192 1.93 4.192 4.31v78.341c0 2.38-1.877 4.31-4.192 4.31H37.192z"/>
        <path fill="#627282" d="M37.696 70.374H91.7V4.856H37.696zM70.568 78.712c0 2.631-2.103 4.766-4.696 4.766-2.594 0-4.696-2.135-4.696-4.766 0-2.631 2.102-4.764 4.696-4.764 2.593 0 4.696 2.133 4.696 4.764"/>
        <g>
            <path fill="#561D5B" d="M8.783 85.404l20.927 7.383-5.557 15.71H.2z"/>
            <path fill="#7C7086" d="M8.783 85.404l20.927 7.383-2.232 6.31L6.55 91.715z"/>
            <path fill="#37363A" d="M9.834 89.376a1.408 1.408 0 0 1 2.655.937 1.407 1.407 0 0 1-2.655-.937"/>
            <path fill="#561D5B" d="M123.038 85.404l-20.927 7.383 5.557 15.71h23.954z"/>
            <path fill="#7C7086" d="M123.038 85.404l-20.927 7.383 2.232 6.31 20.927-7.382z"/>
            <path fill="#37363A" d="M121.987 89.376a1.41 1.41 0 0 0-1.798-.858 1.407 1.407 0 1 0 1.798.858"/>
            <path fill="#E7E6E2" d="M25.194 79.517l.33.24a3.503 3.503 0 0 0 4.888-.786l11.626-16.058a3.494 3.494 0 0 0-.785-4.882l-.331-.238a3.503 3.503 0 0 0-4.888.784L24.41 74.637a3.493 3.493 0 0 0 .785 4.88"/>
            <path fill="#E7E6E2" d="M31.869 64.33V52.073H30.81a.853.853 0 0 0-.62.263c-1.758 1.832-12.125 12.65-13.983 14.695-.2.221-.346.482-.43.768l-5.292 18.207 16.085 5.675s.259-1.204.517-2.58c.258-1.374 3.884-5.67 4.78-7.818.898-2.147 1.217-6.002 2.606-7.921 1.39-1.92-2.605-9.03-2.605-9.03M88.717 69.705l.02.35a3.008 3.008 0 0 0 3.177 2.828l10.757-.616a3.008 3.008 0 0 0 2.833-3.172l-.02-.35a3.009 3.009 0 0 0-3.177-2.83l-10.759.617a3.008 3.008 0 0 0-2.831 3.173"/>
            <path fill="#E7E6E2" d="M86.48 65.087l.02.35a3.01 3.01 0 0 0 3.176 2.83l10.759-.618a3.008 3.008 0 0 0 2.832-3.172l-.02-.35a3.009 3.009 0 0 0-3.177-2.83l-10.758.618a3.006 3.006 0 0 0-2.832 3.172"/>
            <path fill="#E7E6E2" d="M83.727 60.562l.02.35a3.008 3.008 0 0 0 3.177 2.83l10.758-.618a3.007 3.007 0 0 0 2.832-3.172l-.02-.35a3.009 3.009 0 0 0-3.177-2.829l-10.757.617a3.007 3.007 0 0 0-2.833 3.172"/>
            <path fill="#E7E6E2" d="M85.45 52.363l-.064.344a3.006 3.006 0 0 0 2.403 3.508l10.592 1.982a3.01 3.01 0 0 0 3.512-2.4l.065-.345a3.005 3.005 0 0 0-2.403-3.507l-10.592-1.983a3.01 3.01 0 0 0-3.512 2.4"/>
            <path fill="#E7E6E2" d="M92.133 60.315l-4.046-6.08-2.696-1.487 14.993-.466c.23.049 16.78 12.064 18.173 14.451.15.257.238.544.26.84l1.392 18.908-15.812 5.45s-.219-1.263-.514-2.63c-.379-1.751-3.179-9.588-3.61-11.874-.43-2.287-1.827-5.365-3.506-7.035-2.198-2.185-4.634-10.077-4.634-10.077"/>
            <path fill="#E7E6E2" d="M105.743 74.384l.289-.29a3.492 3.492 0 0 0-.012-4.942L91.96 55.169a3.505 3.505 0 0 0-4.952.01l-.287.29a3.492 3.492 0 0 0 .01 4.943l14.062 13.983a3.503 3.503 0 0 0 4.95-.01"/>
        </g>
        <g>
            <path stroke="#FFF" stroke-linecap="square" stroke-width="1.931" d="M64.75 13.494v45.769"/>
            <path fill="#EFEFEF" d="M53.426 18.287l21.349-.368 4.2 2.951-4.094 3.094-21.348.368zM76.12 27.817l-21.338-.735-4.251 2.874 4.038 3.16 21.338.735z"/>
        </g>
    </g>
</svg>
