<svg xmlns="http://www.w3.org/2000/svg" xmlns:xlink="http://www.w3.org/1999/xlink" width="140" height="105" viewBox="0 0 140 105">
    <defs>
        <path id="a" d="M29.09 7.637c5.1 7.215 3.386 17.2-3.829 22.3-7.216 5.1-17.2 3.386-22.3-3.83-5.1-7.214-3.385-17.198 3.83-22.299 7.215-5.1 17.198-3.386 22.298 3.83z"/>
    </defs>
    <g fill="none" fill-rule="evenodd">
        <path fill="#FFF" d="M25 83.313h82.425V0H25z"/>
        <path fill="#838688" d="M34.306 5.86c0 1.797-1.49 3.252-3.325 3.252-1.836 0-3.322-1.455-3.322-3.252 0-1.795 1.486-3.256 3.322-3.256s3.325 1.46 3.325 3.256M104.766 5.86c0 1.797-1.487 3.252-3.323 3.252-1.84 0-3.324-1.455-3.324-3.252 0-1.795 1.484-3.256 3.324-3.256 1.836 0 3.323 1.46 3.323 3.256"/>
        <g stroke="#838688" stroke-width="2" transform="translate(35.54 17.923)">
            <path d="M8.442 5.196h41.812c5.56 0 10.068 4.508 10.068 10.068s-4.507 10.068-10.068 10.068H10.068C4.508 25.332 0 29.839 0 35.4c0 5.56 4.507 10.067 10.068 10.067h45.291"/>
            <ellipse cx="8.043" cy="5.196" fill="#FFF" rx="5.362" ry="5.196"/>
            <ellipse cx="17.426" cy="25.981" fill="#FFF" rx="5.362" ry="5.196"/>
            <ellipse cx="28.15" cy="45.467" fill="#FFF" rx="5.362" ry="5.196"/>
            <ellipse cx="33.512" cy="5.196" fill="#FFF" rx="5.362" ry="5.196"/>
            <ellipse cx="42.896" cy="25.981" fill="#FFF" rx="5.362" ry="5.196"/>
            <ellipse cx="53.62" cy="45.467" fill="#FFF" rx="5.362" ry="5.196"/>
        </g>
        <g>
            <g transform="translate(75.787 10.76)">
                <mask id="b" fill="#fff">
                    <use xlink:href="#a"/>
                </mask>
                <use fill="#FFF" xlink:href="#a"/>
                <path stroke="#838688" stroke-width="5" d="M-1.26 9.662h15c6.627 0 12 5.373 12 12 0 6.628-5.373 12-12 12H5.512" mask="url(#b)"/>
            </g>
            <path fill="#B6EDFE" fill-opacity=".7" d="M105.693 17.82c5.419 7.666 3.598 18.275-4.067 23.694-7.667 5.419-18.275 3.597-23.694-4.068C72.512 29.78 74.335 19.17 82 13.752c7.666-5.419 18.274-3.597 23.693 4.069z"/>
            <path fill="#C52C35" d="M122.533 69.025a3.879 3.879 0 0 1-5.388-.921L103.973 49.57a3.831 3.831 0 0 1 .925-5.36 3.878 3.878 0 0 1 5.387.922l13.172 18.534a3.832 3.832 0 0 1-.924 5.359"/>
            <path fill="#2F3238" d="M83.114 14.535c-7.022 5.106-8.695 15.137-3.733 22.358 4.963 7.221 14.715 8.943 21.736 3.838 7.022-5.105 8.696-15.136 3.733-22.357-4.963-7.222-14.714-8.944-21.736-3.839m-5.797 23.858C71.55 30 73.496 18.346 81.656 12.413c8.159-5.933 19.489-3.933 25.258 4.46 5.767 8.393 3.821 20.047-4.338 25.98-8.16 5.932-19.49 3.933-25.259-4.46z"/>
            <path fill="#2F3238" d="M106.245 46.998c-1.037.776-2.158.988-2.893-.112L100.9 43.21c-.734-1.1-.486-2.62.551-3.398 1.039-.777 2.474-.516 3.208.584l2.453 3.676c.733 1.1.172 2.149-.866 2.926"/>
            <path fill="#D94C56" d="M104.657 51.156l12.9 18.015c.428.596 1.26.738 1.863.317a1.308 1.308 0 0 0 .32-1.84l-12.346-17.241c-1.023.686-1.987.869-2.737.749"/>
            <path fill="#FFF" d="M104 36.386a14.519 14.519 0 0 1-12.678 5.564c-7.993-.663-13.935-7.67-13.271-15.649.662-7.98 7.68-13.913 15.673-13.25a14.47 14.47 0 0 1 8.538 3.693 13.396 13.396 0 0 0-7.111-2.756c-7.401-.613-13.9 4.88-14.513 12.27-.614 7.388 4.888 13.875 12.289 14.489A13.434 13.434 0 0 0 104 36.386z" opacity=".999"/>
        </g>
        <g>
            <path fill="#C52C35" d="M121.635 68.19a3.865 3.865 0 0 1-5.38-.922l-13.153-18.572a3.848 3.848 0 0 1 .924-5.37 3.864 3.864 0 0 1 5.379.922l13.154 18.573a3.849 3.849 0 0 1-.924 5.37"/>
            <path fill="#2F3238" d="M106.284 46.515c-1.16.819-2.413 1.042-3.235-.117l-2.742-3.873a2.565 2.565 0 0 1 .616-3.58 2.576 2.576 0 0 1 3.586.615l2.743 3.873c.82 1.159.192 2.264-.968 3.082"/>
            <path fill="#D94C56" d="M104.639 49.23l12.414 17.527a1.286 1.286 0 0 0 2.1-1.482l-11.88-16.774c-.985.668-1.913.846-2.634.728"/>
            <path fill="#E7E6E2" d="M132.682 55.828c1.32 0 2.389.93 2.389 2.079v22.108c0 1.148-1.068 2.079-2.389 2.079-1.318 0-2.386-.93-2.386-2.079V57.907c0-1.148 1.068-2.079 2.386-2.079M127.44 52.245a2.384 2.384 0 0 1 2.388 2.383v28.666a2.384 2.384 0 0 1-2.387 2.383 2.385 2.385 0 0 1-2.389-2.383V54.628a2.384 2.384 0 0 1 2.389-2.383M122.196 48.2a2.388 2.388 0 0 1 2.39 2.383v34.358a2.385 2.385 0 0 1-2.39 2.382 2.384 2.384 0 0 1-2.387-2.382V50.583a2.387 2.387 0 0 1 2.387-2.384M116.952 44.64a2.387 2.387 0 0 1 2.389 2.384v22.924a2.386 2.386 0 0 1-2.389 2.384 2.386 2.386 0 0 1-2.388-2.384V47.024a2.387 2.387 0 0 1 2.388-2.384"/>
            <path fill="#E7E6E2" d="M132.367 86.271v-2.96c0-.81 1.414-1.486 1.414-1.486l-2.942-23.78h-13.886l-2.39 7.809s-.584.179-1.169-.718c-.584-.9-2.338-5.117-2.338-5.117s-2.337-4.979-4.497-4.082c-2.156.896-1.168 4.172-1.168 4.172s1.1 5.165 1.71 7.628c.769 3.115 2.562 6.283 4.046 8.62 1.482 2.33 4.315 5.737 5.305 5.737l.226 4.177h15.689z"/>
            <path fill="#561D5B" d="M113.96 103.586h21.248V86.27h-21.247z"/>
            <path fill="#7C7086" d="M113.96 92.676h21.248V86.27h-21.247z"/>
            <path fill="#2F3237" d="M132.993 89.52a1.349 1.349 0 0 0-2.697 0 1.35 1.35 0 0 0 2.697 0"/>
            <g>
                <path fill="#E7E6E2" d="M3.631 40.521a2.474 2.474 0 0 0-2.476 2.472v35.645a2.475 2.475 0 1 0 4.95 0V42.993a2.474 2.474 0 0 0-2.474-2.472M9.063 37.453a2.473 2.473 0 0 0-2.475 2.471v35.641a2.474 2.474 0 0 0 2.475 2.473 2.474 2.474 0 0 0 2.476-2.473v-35.64a2.473 2.473 0 0 0-2.476-2.472M14.499 35.218a2.477 2.477 0 0 0-2.477 2.474v35.643a2.474 2.474 0 0 0 2.477 2.472 2.473 2.473 0 0 0 2.475-2.472V37.692a2.476 2.476 0 0 0-2.475-2.474M19.933 38.138a2.476 2.476 0 0 0-2.475 2.474v25.75a2.474 2.474 0 0 0 2.475 2.473 2.474 2.474 0 0 0 2.476-2.473v-25.75a2.476 2.476 0 0 0-2.476-2.474"/>
                <path fill="#E7E6E2" d="M3.957 85.444v-3.072c0-.84-1.464-1.54-1.464-1.54L5.54 56.16h14.393l2.475 8.1s.606.186 1.213-.743c.605-.933 2.424-5.31 2.424-5.31s2.42-5.165 4.66-4.235c2.233.93 1.209 4.328 1.209 4.328s-1.14 5.36-1.772 7.914c-.796 3.232-2.655 6.52-4.192 8.943-1.537 2.419-4.473 5.952-5.498 5.952l-.235 4.334H3.958z"/>
                <path fill="#561D5B" d="M1.013 103.406h22.021V85.444H1.013z"/>
                <path fill="#7C7086" d="M1.013 92.087h22.021v-6.643H1.013z"/>
                <path fill="#38363A" d="M3.309 88.815a1.399 1.399 0 1 1 2.797.002 1.399 1.399 0 0 1-2.797-.002"/>
            </g>
        </g>
    </g>
</svg>
