<svg xmlns="http://www.w3.org/2000/svg" width="140" height="102" viewBox="0 0 140 102">
    <g fill="none" fill-rule="evenodd">
        <g fill-rule="nonzero">
            <path fill="#E6E6E6" d="M27 80.325C27 82.355 28.616 84 30.609 84h75.782c1.993 0 3.609-1.645 3.609-3.675V25.2H27v55.125z"/>
            <path fill="#E86C60" d="M106.391 7H30.61C28.616 7 27 8.63 27 10.64V25.2h83V10.64c0-2.01-1.616-3.64-3.609-3.64z"/>
            <path fill="#444" d="M43.881 16.38V1.82C43.881.815 44.67 0 45.64 0h3.517c.971 0 1.758.815 1.758 1.82v14.56c0 1.005-.787 1.82-1.758 1.82H45.64c-.971 0-1.759-.815-1.759-1.82zM86.085 16.38V1.82c0-1.005.787-1.82 1.758-1.82h3.517c.971 0 1.759.815 1.759 1.82v14.56c0 1.005-.788 1.82-1.759 1.82h-3.517c-.97 0-1.758-.815-1.758-1.82z"/>
            <path fill="#B3B3B3" d="M67.797 68.6H48.178v-4.262c5.213-5.442 9.664-9.987 11.134-11.945 2.493-3.321 2.049-6.15.873-7.226-2.32-2.125-6.193-.157-8.858 2.121l-3.225-3.945c2.53-2.226 5.03-4.143 10.02-4.143 5.194 0 8.888 3.094 8.888 7.85 0 2.874-1.048 5.105-2.793 7.356-1.49 1.921-8.648 9.04-8.648 9.04h12.228V68.6zM69.203 56.028c0-5.675 1.168-9.898 3.502-12.67 2.335-2.772 5.83-4.158 10.487-4.158 1.59 0 2.837.098 3.74.294v4.845a14.89 14.89 0 0 0-3.358-.393c-3.233 0-6.306.793-7.825 3.727-.636 1.229-1.011 2.975-1.126 5.237.003 0 1.967-3.335 6.298-3.335 5.266 0 7.977 3.713 7.977 9.081 0 6.027-3.436 9.944-9.504 9.944-6.786 0-10.19-5.266-10.19-12.572zm10.077 7.728c2.77 0 3.912-2.137 3.912-5.021 0-2.692-1.168-4.511-3.798-4.511-2.51 0-4.332 1.95-4.332 3.981 0 2.8 1.533 5.55 4.218 5.55z"/>
        </g>
        <path fill="#B1CAC9" d="M109.28 14.719c5.465 7.716 3.63 18.394-4.1 23.849-7.732 5.454-18.43 3.62-23.894-4.095-5.466-7.717-3.628-18.395 4.102-23.85 7.731-5.454 18.428-3.62 23.893 4.096z"/>
        <path fill="#C52C35" d="M125.635 66.19a3.865 3.865 0 0 1-5.38-.922l-13.153-18.572a3.848 3.848 0 0 1 .924-5.37 3.864 3.864 0 0 1 5.379.922l13.154 18.573a3.849 3.849 0 0 1-.924 5.37"/>
        <path fill="#2F3238" d="M86.628 11.115c-7.149 5.044-8.853 14.955-3.8 22.09s14.982 8.836 22.131 3.792c7.15-5.044 8.854-14.955 3.8-22.09-5.052-7.135-14.981-8.837-22.13-3.792m19.815 27.98c-8.307 5.86-19.844 3.885-25.718-4.408-5.872-8.292-3.89-19.807 4.418-25.67 8.307-5.861 19.844-3.885 25.718 4.407 5.872 8.293 3.89 19.808-4.418 25.67"/>
        <path fill="#2F3238" d="M110.284 44.515c-1.16.819-2.413 1.042-3.235-.117l-2.742-3.873a2.565 2.565 0 0 1 .616-3.58 2.576 2.576 0 0 1 3.586.615l2.743 3.873c.82 1.159.192 2.264-.968 3.082"/>
        <path fill="#D94C56" d="M108.639 47.23l12.414 17.527a1.286 1.286 0 0 0 2.1-1.482l-11.88-16.774c-.985.668-1.913.846-2.634.728"/>
        <path fill="#E7E6E2" d="M136.682 53.828c1.32 0 2.389.93 2.389 2.079v22.108c0 1.148-1.068 2.079-2.389 2.079-1.318 0-2.386-.93-2.386-2.079V55.907c0-1.148 1.068-2.079 2.386-2.079M131.44 50.245a2.384 2.384 0 0 1 2.388 2.383v28.666a2.384 2.384 0 0 1-2.387 2.383 2.385 2.385 0 0 1-2.389-2.383V52.628a2.384 2.384 0 0 1 2.389-2.383M126.196 46.2a2.388 2.388 0 0 1 2.39 2.383v34.358a2.385 2.385 0 0 1-2.39 2.382 2.384 2.384 0 0 1-2.387-2.382V48.583a2.387 2.387 0 0 1 2.387-2.384M120.952 42.64a2.387 2.387 0 0 1 2.389 2.384v22.924a2.386 2.386 0 0 1-2.389 2.384 2.386 2.386 0 0 1-2.388-2.384V45.024a2.387 2.387 0 0 1 2.388-2.384"/>
        <path fill="#E7E6E2" d="M136.367 84.271v-2.96c0-.81 1.414-1.486 1.414-1.486l-2.942-23.78h-13.886l-2.39 7.809s-.584.179-1.169-.718c-.584-.9-2.338-5.117-2.338-5.117s-2.337-4.979-4.497-4.082c-2.156.896-1.168 4.172-1.168 4.172s1.1 5.165 1.71 7.628c.769 3.115 2.562 6.283 4.046 8.62 1.482 2.33 4.315 5.737 5.305 5.737l.226 4.177h15.689z"/>
        <path fill="#561D5B" d="M117.96 101.586h21.248V84.27h-21.247z"/>
        <path fill="#7C7086" d="M117.96 90.676h21.248V84.27h-21.247z"/>
        <path fill="#2F3237" d="M136.993 87.52a1.349 1.349 0 0 0-2.697 0 1.35 1.35 0 0 0 2.697 0"/>
        <g>
            <path fill="#E7E6E2" d="M2.631 38.521a2.474 2.474 0 0 0-2.476 2.472v35.645a2.475 2.475 0 1 0 4.95 0V40.993a2.474 2.474 0 0 0-2.474-2.472M8.063 35.453a2.473 2.473 0 0 0-2.475 2.471v35.641a2.474 2.474 0 0 0 2.475 2.473 2.474 2.474 0 0 0 2.476-2.473v-35.64a2.473 2.473 0 0 0-2.476-2.472M13.499 33.218a2.477 2.477 0 0 0-2.477 2.474v35.643a2.474 2.474 0 0 0 2.477 2.472 2.473 2.473 0 0 0 2.475-2.472V35.692a2.476 2.476 0 0 0-2.475-2.474M18.933 36.138a2.476 2.476 0 0 0-2.475 2.474v25.75a2.474 2.474 0 0 0 2.475 2.473 2.474 2.474 0 0 0 2.476-2.473v-25.75a2.476 2.476 0 0 0-2.476-2.474"/>
            <path fill="#E7E6E2" d="M2.957 83.444v-3.072c0-.84-1.464-1.54-1.464-1.54L4.54 54.16h14.393l2.475 8.1s.606.186 1.213-.743c.605-.933 2.424-5.31 2.424-5.31s2.42-5.165 4.66-4.235c2.233.93 1.209 4.328 1.209 4.328s-1.14 5.36-1.772 7.914c-.796 3.232-2.655 6.52-4.192 8.943-1.537 2.419-4.473 5.952-5.498 5.952l-.235 4.334H2.958z"/>
            <path fill="#561D5B" d="M.013 101.406h22.021V83.444H.013z"/>
            <path fill="#7C7086" d="M.013 90.087h22.021v-6.643H.013z"/>
            <path fill="#38363A" d="M2.309 86.815a1.399 1.399 0 1 1 2.797.002 1.399 1.399 0 0 1-2.797-.002"/>
        </g>
    </g>
</svg>
