<svg xmlns="http://www.w3.org/2000/svg" width="180" height="115" viewBox="0 0 180 115">
    <g fill="none" fill-rule="evenodd">
        <path fill="#FFF" d="M61.192 93.051c-2.315 0-4.192-1.929-4.192-4.309V10.4c0-2.378 1.877-4.309 4.192-4.309h55.012c2.315 0 4.192 1.93 4.192 4.31v78.341c0 2.38-1.877 4.31-4.192 4.31H61.192z"/>
        <path fill="#627282" d="M61.696 76.374H115.7V10.856H61.696zM94.568 84.712c0 2.631-2.103 4.766-4.696 4.766-2.594 0-4.696-2.135-4.696-4.766 0-2.631 2.102-4.764 4.696-4.764 2.593 0 4.696 2.133 4.696 4.764"/>
        <path fill="#561D5B" d="M32.783 91.404l20.927 7.383-5.557 15.71H24.2z"/>
        <path fill="#7C7086" d="M32.783 91.404l20.927 7.383-2.232 6.31-20.928-7.382z"/>
        <path fill="#37363A" d="M33.834 95.376a1.408 1.408 0 0 1 2.655.937 1.407 1.407 0 0 1-2.655-.937"/>
        <path fill="#E7E6E2" d="M49.194 85.517l.33.24a3.503 3.503 0 0 0 4.888-.786l11.626-16.058a3.494 3.494 0 0 0-.785-4.882l-.331-.238a3.503 3.503 0 0 0-4.888.784L48.41 80.637a3.493 3.493 0 0 0 .785 4.88"/>
        <path fill="#E7E6E2" d="M55.869 70.33V58.073H54.81a.853.853 0 0 0-.62.263c-1.758 1.832-12.125 12.65-13.983 14.695-.2.221-.346.482-.43.768l-5.292 18.207 16.085 5.675s.259-1.204.517-2.58c.258-1.374 3.884-5.67 4.78-7.818.898-2.147 1.217-6.002 2.606-7.921 1.39-1.92-2.605-9.03-2.605-9.03"/>
        <g>
            <g transform="rotate(8 -194.634 549.117)">
                <path fill="#9BD0B0" stroke="#6AB889" stroke-width="2.064" d="M1.032 14.879h31.979V1.032H1.032v13.847z"/>
                <path fill="#6AB889" d="M2.063 5.304c1.71 0 3.095-1.425 3.095-3.183V0H0v5.304h2.063zM28.885 2.121c0 1.758 1.385 3.183 3.094 3.183h2.064V0h-5.158v2.121z"/>
                <ellipse cx="17.021" cy="7.955" fill="#6AB889" rx="4.642" ry="4.773"/>
                <path fill="#6AB889" d="M31.98 10.607c-1.71 0-3.095 1.425-3.095 3.182v2.122h5.158v-5.304h-2.064zM2.063 10.607c1.71 0 3.095 1.425 3.095 3.182v2.122H0v-5.304h2.063z"/>
                <path fill="#EFEFEF" d="M14.236 9.727V6.258h.598v1.575h.016l1.202-1.575h.665L15.68 7.611l1.212 2.116h-.66l-.913-1.634-.485.62v1.014h-.598zm3.08 0V6.258h1.14c.175 0 .338.018.49.053.15.036.281.093.391.173.11.08.197.184.26.315.064.131.096.294.096.488 0 .265-.06.48-.183.642-.122.162-.285.28-.487.35l.804 1.448h-.67l-.728-1.358h-.515v1.358h-.599zm.598-1.846h.48c.23 0 .406-.05.528-.148.122-.1.183-.248.183-.446 0-.201-.06-.341-.183-.419-.122-.078-.298-.117-.529-.117h-.48v1.13z"/>
            </g>
            <g transform="rotate(-7 277.994 -549.24)">
                <path fill="#9BD0B0" stroke="#6AB889" stroke-width="2.064" d="M1.032 14.879h31.979V1.032H1.032v13.847z"/>
                <path fill="#6AB889" d="M2.063 5.304c1.71 0 3.095-1.425 3.095-3.183V0H0v5.304h2.063zM28.885 2.121c0 1.758 1.385 3.183 3.094 3.183h2.064V0h-5.158v2.121z"/>
                <ellipse cx="17.021" cy="7.955" fill="#6AB889" rx="4.642" ry="4.773"/>
                <path fill="#6AB889" d="M31.98 10.607c-1.71 0-3.095 1.425-3.095 3.182v2.122h5.158v-5.304h-2.064zM2.063 10.607c1.71 0 3.095 1.425 3.095 3.182v2.122H0v-5.304h2.063z"/>
                <path fill="#EFEFEF" d="M14.236 9.727V6.258h.598v1.575h.016l1.202-1.575h.665L15.68 7.611l1.212 2.116h-.66l-.913-1.634-.485.62v1.014h-.598zm3.08 0V6.258h1.14c.175 0 .338.018.49.053.15.036.281.093.391.173.11.08.197.184.26.315.064.131.096.294.096.488 0 .265-.06.48-.183.642-.122.162-.285.28-.487.35l.804 1.448h-.67l-.728-1.358h-.515v1.358h-.599zm.598-1.846h.48c.23 0 .406-.05.528-.148.122-.1.183-.248.183-.446 0-.201-.06-.341-.183-.419-.122-.078-.298-.117-.529-.117h-.48v1.13z"/>
            </g>
        </g>
        <g>
            <path fill="#FFBD66" d="M78.977 50.602c.485.077.856.508.856 1.028 0 .575-.453 1.041-1.012 1.041H71.68c-.56 0-1.012-.466-1.012-1.04 0-.521.37-.952.856-1.03h7.454z"/>
            <path fill="#FFA733" d="M79.833 51.63c0 .575-.453 1.041-1.012 1.041H71.68c-.56 0-1.012-.466-1.012-1.04h9.166z"/>
            <path fill="#FFBD66" d="M78.977 52.44c.485.078.856.509.856 1.03 0 .574-.453 1.04-1.012 1.04H71.68c-.56 0-1.012-.466-1.012-1.04 0-.521.37-.952.856-1.03h7.454z"/>
            <path fill="#FFA733" d="M79.833 53.47c0 .574-.453 1.04-1.012 1.04H71.68c-.56 0-1.012-.466-1.012-1.04h9.166z"/>
            <path fill="#FFBD66" d="M78.977 55.012c.485.077.856.508.856 1.029 0 .575-.453 1.04-1.012 1.04H71.68c-.56 0-1.012-.465-1.012-1.04 0-.52.37-.952.856-1.029h7.454z"/>
            <path fill="#FFA733" d="M79.833 56.04c0 .576-.453 1.042-1.012 1.042H71.68c-.56 0-1.012-.466-1.012-1.041h9.166z"/>
            <path fill="#FFBD66" d="M78.977 56.727c.485.077.856.508.856 1.028 0 .575-.453 1.04-1.012 1.04H71.68c-.56 0-1.012-.465-1.012-1.04 0-.52.37-.951.856-1.028h7.454z"/>
            <path fill="#FFA733" d="M79.833 57.755c0 .575-.453 1.04-1.012 1.04H71.68c-.56 0-1.012-.465-1.012-1.04h9.166z"/>
            <path fill="#FFBD66" d="M78.977 58.44c.485.078.856.509.856 1.03 0 .574-.453 1.04-1.012 1.04H71.68c-.56 0-1.012-.466-1.012-1.04 0-.521.37-.952.856-1.03h7.454z"/>
            <path fill="#FFA733" d="M79.833 59.47c0 .574-.453 1.04-1.012 1.04H71.68c-.56 0-1.012-.466-1.012-1.04h9.166z"/>
            <path fill="#FFBD66" d="M88.144 55.012c.485.077.856.508.856 1.029 0 .575-.453 1.04-1.012 1.04h-7.143c-.559 0-1.012-.465-1.012-1.04 0-.52.372-.952.857-1.029h7.454z"/>
            <path fill="#FFA733" d="M89 56.04c0 .576-.453 1.042-1.012 1.042h-7.143c-.559 0-1.012-.466-1.012-1.041H89z"/>
            <path fill="#FFBD66" d="M88.144 56.727c.485.077.856.508.856 1.028 0 .575-.453 1.04-1.012 1.04h-7.143c-.559 0-1.012-.465-1.012-1.04 0-.52.372-.951.857-1.028h7.454z"/>
            <path fill="#FFA733" d="M89 57.755c0 .575-.453 1.04-1.012 1.04h-7.143c-.559 0-1.012-.465-1.012-1.04H89z"/>
            <path fill="#FFBD66" d="M88.144 58.44c.485.078.856.509.856 1.03 0 .574-.453 1.04-1.012 1.04h-7.143c-.559 0-1.012-.466-1.012-1.04 0-.521.372-.952.857-1.03h7.454z"/>
            <path fill="#FFA733" d="M89 59.47c0 .574-.453 1.04-1.012 1.04h-7.143c-.559 0-1.012-.466-1.012-1.04H89z"/>
            <path fill="#FFBD66" d="M97.31 50.602c.485.077.857.508.857 1.028 0 .575-.453 1.041-1.012 1.041h-7.143c-.559 0-1.012-.466-1.012-1.04 0-.521.371-.952.856-1.03h7.454z"/>
            <path fill="#FFA733" d="M98.167 51.63c0 .575-.453 1.041-1.012 1.041h-7.143c-.559 0-1.012-.466-1.012-1.04h9.167z"/>
            <path fill="#FFBD66" d="M97.31 52.44c.485.078.857.509.857 1.03 0 .574-.453 1.04-1.012 1.04h-7.143c-.559 0-1.012-.466-1.012-1.04 0-.521.371-.952.856-1.03h7.454z"/>
            <path fill="#FFA733" d="M98.167 53.47c0 .574-.453 1.04-1.012 1.04h-7.143c-.559 0-1.012-.466-1.012-1.04h9.167z"/>
            <g>
                <path fill="#FFBD66" d="M97.31 55.012c.485.077.857.508.857 1.029 0 .575-.453 1.04-1.012 1.04h-7.143c-.559 0-1.012-.465-1.012-1.04 0-.52.371-.952.856-1.029h7.454z"/>
                <path fill="#FFA733" d="M98.167 56.04c0 .576-.453 1.042-1.012 1.042h-7.143c-.559 0-1.012-.466-1.012-1.041h9.167z"/>
            </g>
            <g>
                <path fill="#FFBD66" d="M97.31 56.727c.485.077.857.508.857 1.028 0 .575-.453 1.04-1.012 1.04h-7.143c-.559 0-1.012-.465-1.012-1.04 0-.52.371-.951.856-1.028h7.454z"/>
                <path fill="#FFA733" d="M98.167 57.755c0 .575-.453 1.04-1.012 1.04h-7.143c-.559 0-1.012-.465-1.012-1.04h9.167z"/>
            </g>
            <g>
                <path fill="#FFBD66" d="M97.31 58.44c.485.078.857.509.857 1.03 0 .574-.453 1.04-1.012 1.04h-7.143c-.559 0-1.012-.466-1.012-1.04 0-.521.371-.952.856-1.03h7.454z"/>
                <path fill="#FFA733" d="M98.167 59.47c0 .574-.453 1.04-1.012 1.04h-7.143c-.559 0-1.012-.466-1.012-1.04h9.167z"/>
            </g>
            <g>
                <path fill="#FFBD66" d="M106.477 50.602c.485.077.856.508.856 1.028 0 .575-.453 1.041-1.012 1.041H99.18c-.56 0-1.012-.466-1.012-1.04 0-.521.37-.952.856-1.03h7.454z"/>
                <path fill="#FFA733" d="M107.333 51.63c0 .575-.453 1.041-1.012 1.041H99.18c-.56 0-1.012-.466-1.012-1.04h9.166z"/>
            </g>
            <g>
                <path fill="#FFBD66" d="M106.477 52.44c.485.078.856.509.856 1.03 0 .574-.453 1.04-1.012 1.04H99.18c-.56 0-1.012-.466-1.012-1.04 0-.521.37-.952.856-1.03h7.454z"/>
                <path fill="#FFA733" d="M107.333 53.47c0 .574-.453 1.04-1.012 1.04H99.18c-.56 0-1.012-.466-1.012-1.04h9.166z"/>
            </g>
            <g>
                <path fill="#FFBD66" d="M106.477 55.012c.485.077.856.508.856 1.029 0 .575-.453 1.04-1.012 1.04H99.18c-.56 0-1.012-.465-1.012-1.04 0-.52.37-.952.856-1.029h7.454z"/>
                <path fill="#FFA733" d="M107.333 56.04c0 .576-.453 1.042-1.012 1.042H99.18c-.56 0-1.012-.466-1.012-1.041h9.166z"/>
            </g>
            <g>
                <path fill="#FFBD66" d="M106.477 56.727c.485.077.856.508.856 1.028 0 .575-.453 1.04-1.012 1.04H99.18c-.56 0-1.012-.465-1.012-1.04 0-.52.37-.951.856-1.028h7.454z"/>
                <path fill="#FFA733" d="M107.333 57.755c0 .575-.453 1.04-1.012 1.04H99.18c-.56 0-1.012-.465-1.012-1.04h9.166z"/>
            </g>
            <g>
                <path fill="#FFBD66" d="M106.477 58.44c.485.078.856.509.856 1.03 0 .574-.453 1.04-1.012 1.04H99.18c-.56 0-1.012-.466-1.012-1.04 0-.521.37-.952.856-1.03h7.454z"/>
                <path fill="#FFA733" d="M107.333 59.47c0 .574-.453 1.04-1.012 1.04H99.18c-.56 0-1.012-.466-1.012-1.04h9.166z"/>
            </g>
            <g>
                <path fill="#FFBD66" d="M97.31 48.03c.485.077.857.508.857 1.029 0 .575-.453 1.04-1.012 1.04h-7.143c-.559 0-1.012-.465-1.012-1.04 0-.52.371-.952.856-1.029h7.454z"/>
                <path fill="#FFA733" d="M98.167 49.059c0 .575-.453 1.04-1.012 1.04h-7.143c-.559 0-1.012-.465-1.012-1.04h9.167z"/>
            </g>
        </g>
        <g>
            <path fill="#E7E6E2" d="M116.386 68c1.321 0 2.389.93 2.389 2.078v22.109c0 1.148-1.068 2.078-2.389 2.078-1.317 0-2.386-.93-2.386-2.078V70.078c0-1.148 1.069-2.078 2.386-2.078M111.389 64a2.384 2.384 0 0 1 2.387 2.383v28.666a2.384 2.384 0 0 1-2.387 2.383A2.385 2.385 0 0 1 109 95.049V66.383A2.384 2.384 0 0 1 111.389 64M106.387 60a2.388 2.388 0 0 1 2.39 2.384v34.358a2.385 2.385 0 0 1-2.39 2.382A2.384 2.384 0 0 1 104 96.742V62.384A2.387 2.387 0 0 1 106.387 60M101.389 56c1.32 0 2.388 1.108 2.388 2.47v23.752c0 1.365-1.069 2.47-2.388 2.47-1.32 0-2.389-1.105-2.389-2.47V58.47c0-1.362 1.069-2.47 2.389-2.47"/>
            <path fill="#E7E6E2" d="M117.153 97.442v-2.571c0-.704 1.463-1.29 1.463-1.29l-3.045-20.656H101.2l-2.474 6.783s-.604.155-1.21-.624c-.604-.781-2.42-4.445-2.42-4.445s-2.418-4.324-4.653-3.545c-2.232.779-1.209 3.624-1.209 3.624s1.139 4.486 1.77 6.626c.795 2.705 2.651 5.457 4.187 7.486 1.534 2.025 4.466 4.984 5.49 4.984l.234 3.628h16.238z"/>
            <path fill="#561D5B" d="M99 114.314h21.247V97H99z"/>
            <path fill="#7C7086" d="M99 103.404h21.247V97H99z"/>
            <path fill="#2F3237" d="M117.697 101.347a1.349 1.349 0 0 0-2.697 0 1.35 1.35 0 0 0 2.697 0"/>
        </g>
    </g>
</svg>
