<svg xmlns="http://www.w3.org/2000/svg" width="180" height="115" viewBox="0 0 180 115">
    <g fill="none" fill-rule="evenodd">
        <path fill="#FFF" d="M60.192 93.051c-2.315 0-4.192-1.929-4.192-4.309V10.4c0-2.378 1.877-4.309 4.192-4.309h55.012c2.315 0 4.192 1.93 4.192 4.31v78.341c0 2.38-1.877 4.31-4.192 4.31H60.192z"/>
        <path fill="#627282" d="M60.696 76.374H114.7V10.856H60.696zM93.568 84.712c0 2.631-2.103 4.766-4.696 4.766-2.594 0-4.696-2.135-4.696-4.766 0-2.631 2.102-4.764 4.696-4.764 2.593 0 4.696 2.133 4.696 4.764"/>
        <g>
            <g transform="rotate(8 -195.134 541.967)">
                <path fill="#9BD0B0" stroke="#6AB889" stroke-width="2.064" d="M1.032 14.879h31.979V1.032H1.032v13.847z"/>
                <path fill="#6AB889" d="M2.063 5.304c1.71 0 3.095-1.425 3.095-3.183V0H0v5.304h2.063zM28.885 2.121c0 1.758 1.385 3.183 3.094 3.183h2.064V0h-5.158v2.121z"/>
                <ellipse cx="17.021" cy="7.955" fill="#6AB889" rx="4.642" ry="4.773"/>
                <path fill="#6AB889" d="M31.98 10.607c-1.71 0-3.095 1.425-3.095 3.182v2.122h5.158v-5.304h-2.064zM2.063 10.607c1.71 0 3.095 1.425 3.095 3.182v2.122H0v-5.304h2.063z"/>
                <path fill="#EFEFEF" d="M14.236 9.727V6.258h.598v1.575h.016l1.202-1.575h.665L15.68 7.611l1.212 2.116h-.66l-.913-1.634-.485.62v1.014h-.598zm3.08 0V6.258h1.14c.175 0 .338.018.49.053.15.036.281.093.391.173.11.08.197.184.26.315.064.131.096.294.096.488 0 .265-.06.48-.183.642-.122.162-.285.28-.487.35l.804 1.448h-.67l-.728-1.358h-.515v1.358h-.599zm.598-1.846h.48c.23 0 .406-.05.528-.148.122-.1.183-.248.183-.446 0-.201-.06-.341-.183-.419-.122-.078-.298-.117-.529-.117h-.48v1.13z"/>
            </g>
            <g transform="rotate(-7 277.494 -541.064)">
                <path fill="#9BD0B0" stroke="#6AB889" stroke-width="2.064" d="M1.032 14.879h31.979V1.032H1.032v13.847z"/>
                <path fill="#6AB889" d="M2.063 5.304c1.71 0 3.095-1.425 3.095-3.183V0H0v5.304h2.063zM28.885 2.121c0 1.758 1.385 3.183 3.094 3.183h2.064V0h-5.158v2.121z"/>
                <ellipse cx="17.021" cy="7.955" fill="#6AB889" rx="4.642" ry="4.773"/>
                <path fill="#6AB889" d="M31.98 10.607c-1.71 0-3.095 1.425-3.095 3.182v2.122h5.158v-5.304h-2.064zM2.063 10.607c1.71 0 3.095 1.425 3.095 3.182v2.122H0v-5.304h2.063z"/>
                <path fill="#EFEFEF" d="M14.236 9.727V6.258h.598v1.575h.016l1.202-1.575h.665L15.68 7.611l1.212 2.116h-.66l-.913-1.634-.485.62v1.014h-.598zm3.08 0V6.258h1.14c.175 0 .338.018.49.053.15.036.281.093.391.173.11.08.197.184.26.315.064.131.096.294.096.488 0 .265-.06.48-.183.642-.122.162-.285.28-.487.35l.804 1.448h-.67l-.728-1.358h-.515v1.358h-.599zm.598-1.846h.48c.23 0 .406-.05.528-.148.122-.1.183-.248.183-.446 0-.201-.06-.341-.183-.419-.122-.078-.298-.117-.529-.117h-.48v1.13z"/>
            </g>
        </g>
        <g>
            <path fill="#FFBD66" d="M77.977 50.602c.485.077.856.508.856 1.028 0 .575-.453 1.041-1.012 1.041H70.68c-.56 0-1.012-.466-1.012-1.04 0-.521.37-.952.856-1.03h7.454z"/>
            <path fill="#FFA733" d="M78.833 51.63c0 .575-.453 1.041-1.012 1.041H70.68c-.56 0-1.012-.466-1.012-1.04h9.166z"/>
            <path fill="#FFBD66" d="M77.977 52.44c.485.078.856.509.856 1.03 0 .574-.453 1.04-1.012 1.04H70.68c-.56 0-1.012-.466-1.012-1.04 0-.521.37-.952.856-1.03h7.454z"/>
            <path fill="#FFA733" d="M78.833 53.47c0 .574-.453 1.04-1.012 1.04H70.68c-.56 0-1.012-.466-1.012-1.04h9.166z"/>
            <path fill="#FFBD66" d="M77.977 55.012c.485.077.856.508.856 1.029 0 .575-.453 1.04-1.012 1.04H70.68c-.56 0-1.012-.465-1.012-1.04 0-.52.37-.952.856-1.029h7.454z"/>
            <path fill="#FFA733" d="M78.833 56.04c0 .576-.453 1.042-1.012 1.042H70.68c-.56 0-1.012-.466-1.012-1.041h9.166z"/>
            <path fill="#FFBD66" d="M77.977 56.727c.485.077.856.508.856 1.028 0 .575-.453 1.04-1.012 1.04H70.68c-.56 0-1.012-.465-1.012-1.04 0-.52.37-.951.856-1.028h7.454z"/>
            <path fill="#FFA733" d="M78.833 57.755c0 .575-.453 1.04-1.012 1.04H70.68c-.56 0-1.012-.465-1.012-1.04h9.166z"/>
            <path fill="#FFBD66" d="M77.977 58.44c.485.078.856.509.856 1.03 0 .574-.453 1.04-1.012 1.04H70.68c-.56 0-1.012-.466-1.012-1.04 0-.521.37-.952.856-1.03h7.454z"/>
            <path fill="#FFA733" d="M78.833 59.47c0 .574-.453 1.04-1.012 1.04H70.68c-.56 0-1.012-.466-1.012-1.04h9.166z"/>
            <path fill="#FFBD66" d="M87.144 55.012c.485.077.856.508.856 1.029 0 .575-.453 1.04-1.012 1.04h-7.143c-.559 0-1.012-.465-1.012-1.04 0-.52.372-.952.857-1.029h7.454z"/>
            <path fill="#FFA733" d="M88 56.04c0 .576-.453 1.042-1.012 1.042h-7.143c-.559 0-1.012-.466-1.012-1.041H88z"/>
            <path fill="#FFBD66" d="M87.144 56.727c.485.077.856.508.856 1.028 0 .575-.453 1.04-1.012 1.04h-7.143c-.559 0-1.012-.465-1.012-1.04 0-.52.372-.951.857-1.028h7.454z"/>
            <path fill="#FFA733" d="M88 57.755c0 .575-.453 1.04-1.012 1.04h-7.143c-.559 0-1.012-.465-1.012-1.04H88z"/>
            <path fill="#FFBD66" d="M87.144 58.44c.485.078.856.509.856 1.03 0 .574-.453 1.04-1.012 1.04h-7.143c-.559 0-1.012-.466-1.012-1.04 0-.521.372-.952.857-1.03h7.454z"/>
            <path fill="#FFA733" d="M88 59.47c0 .574-.453 1.04-1.012 1.04h-7.143c-.559 0-1.012-.466-1.012-1.04H88z"/>
            <path fill="#FFBD66" d="M96.31 50.602c.485.077.857.508.857 1.028 0 .575-.453 1.041-1.012 1.041h-7.143c-.559 0-1.012-.466-1.012-1.04 0-.521.371-.952.856-1.03h7.454z"/>
            <path fill="#FFA733" d="M97.167 51.63c0 .575-.453 1.041-1.012 1.041h-7.143c-.559 0-1.012-.466-1.012-1.04h9.167z"/>
            <path fill="#FFBD66" d="M96.31 52.44c.485.078.857.509.857 1.03 0 .574-.453 1.04-1.012 1.04h-7.143c-.559 0-1.012-.466-1.012-1.04 0-.521.371-.952.856-1.03h7.454z"/>
            <path fill="#FFA733" d="M97.167 53.47c0 .574-.453 1.04-1.012 1.04h-7.143c-.559 0-1.012-.466-1.012-1.04h9.167z"/>
            <g>
                <path fill="#FFBD66" d="M96.31 55.012c.485.077.857.508.857 1.029 0 .575-.453 1.04-1.012 1.04h-7.143c-.559 0-1.012-.465-1.012-1.04 0-.52.371-.952.856-1.029h7.454z"/>
                <path fill="#FFA733" d="M97.167 56.04c0 .576-.453 1.042-1.012 1.042h-7.143c-.559 0-1.012-.466-1.012-1.041h9.167z"/>
            </g>
            <g>
                <path fill="#FFBD66" d="M96.31 56.727c.485.077.857.508.857 1.028 0 .575-.453 1.04-1.012 1.04h-7.143c-.559 0-1.012-.465-1.012-1.04 0-.52.371-.951.856-1.028h7.454z"/>
                <path fill="#FFA733" d="M97.167 57.755c0 .575-.453 1.04-1.012 1.04h-7.143c-.559 0-1.012-.465-1.012-1.04h9.167z"/>
            </g>
            <g>
                <path fill="#FFBD66" d="M96.31 58.44c.485.078.857.509.857 1.03 0 .574-.453 1.04-1.012 1.04h-7.143c-.559 0-1.012-.466-1.012-1.04 0-.521.371-.952.856-1.03h7.454z"/>
                <path fill="#FFA733" d="M97.167 59.47c0 .574-.453 1.04-1.012 1.04h-7.143c-.559 0-1.012-.466-1.012-1.04h9.167z"/>
            </g>
            <g>
                <path fill="#FFBD66" d="M105.477 50.602c.485.077.856.508.856 1.028 0 .575-.453 1.041-1.012 1.041H98.18c-.56 0-1.012-.466-1.012-1.04 0-.521.37-.952.856-1.03h7.454z"/>
                <path fill="#FFA733" d="M106.333 51.63c0 .575-.453 1.041-1.012 1.041H98.18c-.56 0-1.012-.466-1.012-1.04h9.166z"/>
            </g>
            <g>
                <path fill="#FFBD66" d="M105.477 52.44c.485.078.856.509.856 1.03 0 .574-.453 1.04-1.012 1.04H98.18c-.56 0-1.012-.466-1.012-1.04 0-.521.37-.952.856-1.03h7.454z"/>
                <path fill="#FFA733" d="M106.333 53.47c0 .574-.453 1.04-1.012 1.04H98.18c-.56 0-1.012-.466-1.012-1.04h9.166z"/>
            </g>
            <g>
                <path fill="#FFBD66" d="M105.477 55.012c.485.077.856.508.856 1.029 0 .575-.453 1.04-1.012 1.04H98.18c-.56 0-1.012-.465-1.012-1.04 0-.52.37-.952.856-1.029h7.454z"/>
                <path fill="#FFA733" d="M106.333 56.04c0 .576-.453 1.042-1.012 1.042H98.18c-.56 0-1.012-.466-1.012-1.041h9.166z"/>
            </g>
            <g>
                <path fill="#FFBD66" d="M105.477 56.727c.485.077.856.508.856 1.028 0 .575-.453 1.04-1.012 1.04H98.18c-.56 0-1.012-.465-1.012-1.04 0-.52.37-.951.856-1.028h7.454z"/>
                <path fill="#FFA733" d="M106.333 57.755c0 .575-.453 1.04-1.012 1.04H98.18c-.56 0-1.012-.465-1.012-1.04h9.166z"/>
            </g>
            <g>
                <path fill="#FFBD66" d="M105.477 58.44c.485.078.856.509.856 1.03 0 .574-.453 1.04-1.012 1.04H98.18c-.56 0-1.012-.466-1.012-1.04 0-.521.37-.952.856-1.03h7.454z"/>
                <path fill="#FFA733" d="M106.333 59.47c0 .574-.453 1.04-1.012 1.04H98.18c-.56 0-1.012-.466-1.012-1.04h9.166z"/>
            </g>
            <g>
                <path fill="#FFBD66" d="M96.31 48.03c.485.077.857.508.857 1.029 0 .575-.453 1.04-1.012 1.04h-7.143c-.559 0-1.012-.465-1.012-1.04 0-.52.371-.952.856-1.029h7.454z"/>
                <path fill="#FFA733" d="M97.167 49.059c0 .575-.453 1.04-1.012 1.04h-7.143c-.559 0-1.012-.465-1.012-1.04h9.167z"/>
            </g>
        </g>
        <g>
            <g fill="#E7E6E2">
                <path d="M128.47 62.65c1.275-.343 2.547.28 2.844 1.389l5.722 21.355c.297 1.109-.493 2.284-1.769 2.626-1.273.34-2.546-.281-2.843-1.39l-5.722-21.356c-.297-1.109.494-2.284 1.767-2.625M122.606 60.08a2.384 2.384 0 0 1 2.923 1.683l7.42 27.69a2.384 2.384 0 0 1-1.69 2.919 2.385 2.385 0 0 1-2.924-1.684L120.915 63a2.384 2.384 0 0 1 1.691-2.92M116.74 57.51a2.388 2.388 0 0 1 2.925 1.684l8.892 33.188a2.385 2.385 0 0 1-1.69 2.919 2.384 2.384 0 0 1-2.923-1.683L115.05 60.43a2.387 2.387 0 0 1 1.69-2.921M110.876 54.94c1.275-.342 2.594.452 2.947 1.768l6.147 22.942c.354 1.319-.393 2.663-1.667 3.004-1.275.342-2.594-.449-2.947-1.767l-6.147-22.943c-.353-1.316.393-2.663 1.667-3.004"/>
                <path d="M136.83 90.89l-.666-2.484c-.182-.68 1.08-1.625 1.08-1.625l-8.288-19.164-13.882 3.72-.633 7.192s-.544.307-1.33-.29c-.786-.598-3.488-3.666-3.488-3.666s-3.455-3.552-5.413-2.22c-1.954 1.33-.23 3.813-.23 3.813s2.262 4.038 3.425 5.942c1.469 2.407 3.974 4.585 5.982 6.148 2.006 1.558 5.604 3.657 6.593 3.392l1.165 3.445 15.685-4.203z"/>
            </g>
            <path fill="#561D5B" d="M141.427 91.404L120.5 98.787l5.557 15.71h23.954z"/>
            <path fill="#7C7086" d="M140.478 88.404l-20.928 7.383 2.233 6.31 20.927-7.382z"/>
            <path fill="#37363A" d="M140.49 92.376a1.408 1.408 0 0 0-2.656.937 1.407 1.407 0 0 0 2.655-.937"/>
        </g>
        <g>
            <path fill="#561D5B" d="M37.783 91.404l20.927 7.383-5.557 15.71H29.2z"/>
            <path fill="#561D5B" d="M37.783 91.404l20.927 7.383-5.557 15.71H29.2z"/>
            <path fill="#7C7086" d="M37.783 91.404l20.927 7.383-2.232 6.31-20.928-7.382z"/>
            <path fill="#37363A" d="M38.834 95.376a1.408 1.408 0 0 1 2.655.937 1.407 1.407 0 0 1-2.655-.937"/>
            <path fill="#E7E6E2" d="M54.194 85.517l.33.24a3.503 3.503 0 0 0 4.888-.786l11.626-16.058a3.494 3.494 0 0 0-.785-4.882l-.331-.238a3.503 3.503 0 0 0-4.888.784L53.41 80.637a3.493 3.493 0 0 0 .785 4.88"/>
            <path fill="#E7E6E2" d="M60.869 70.33V58.073H59.81a.853.853 0 0 0-.62.263c-1.758 1.832-12.125 12.65-13.983 14.695-.2.221-.346.482-.43.768l-5.292 18.207 16.085 5.675s.259-1.204.517-2.58c.258-1.374 3.884-5.67 4.78-7.818.898-2.147 1.217-6.002 2.606-7.921 1.39-1.92-2.605-9.03-2.605-9.03"/>
        </g>
    </g>
</svg>
