<svg xmlns="http://www.w3.org/2000/svg" width="180" height="115" viewBox="0 0 180 115">
    <g fill="none" fill-rule="evenodd">
        <path fill="#8C8F92" d="M118.15 115a7.503 7.503 0 0 1 14.7 0h-14.7z"/>
        <path fill="#E2D1B6" d="M148.082 80.722l-3.067-4.99-1.46 5.668 2.448.273z"/>
        <path fill="#E9C264" d="M150.673 108.221l1.51-.227-4.034-26.817-1.509.225z"/>
        <path fill="#DAB25B" d="M145.132 81.629l4.032 26.815 1.509-.223-4.033-26.819z"/>
        <path fill="#E9C264" d="M149.164 108.444l-4.032-26.815-1.512.225 4.035 26.816zM147.539 80.474c-.284.042-.422.434-.797.489a.479.479 0 0 1-.169-.007l.067.446 1.51-.225-.064-.416s-.262-.329-.547-.287"/>
        <path fill="#DAB25B" d="M146.573 80.955c-.26-.057-.411-.332-.811-.274-.402.06-.464.368-.698.502l.068.446 1.508-.227-.067-.447z"/>
        <path fill="#E9C264" d="M145.065 81.182a.455.455 0 0 1-.16.054c-.378.055-.622-.273-.907-.231-.283.04-.436.433-.436.433l.057.416 1.513-.225-.067-.447z"/>
        <path fill="#545757" d="M145.017 75.731l-.517 2.007 1.6-.24z"/>
        <path fill="#C52C35" d="M156.807 96.777l4.52 1.044a.697.697 0 0 1 .524.843l-.606 2.62a.708.708 0 0 1-.846.528l-4.519-1.044a.706.706 0 0 1-.529-.844l.611-2.621a.702.702 0 0 1 .845-.526"/>
        <path fill="#E2D1B6" d="M165.78 71.303l-1.474-5.664-3.053 4.99 2.262.976z"/>
        <path fill="#50808B" d="M160.213 98.357l1.509.223 3.99-26.824-1.51-.224z"/>
        <path fill="#0C576F" d="M162.692 71.309l-3.99 26.824 1.51.224 3.99-26.823z"/>
        <path fill="#50808B" d="M158.703 98.133l3.991-26.824-1.512-.223-3.99 26.824zM165.334 70.908c-.283-.044-.53.289-.91.233a.418.418 0 0 1-.155-.055l-.066.446 1.508.224.064-.416s-.157-.39-.44-.432"/>
        <path fill="#0C576F" d="M164.268 71.086c-.232-.13-.293-.44-.695-.499-.404-.059-.553.218-.812.277l-.069.446 1.51.222.066-.446z"/>
        <path fill="#50808B" d="M162.76 70.864a.425.425 0 0 1-.165.004c-.381-.056-.517-.44-.802-.487-.286-.04-.548.288-.548.288l-.063.418 1.512.222.065-.445z"/>
        <path fill="#545757" d="M164.306 65.638l-1.08 1.768 1.6.238zM155.92 97.48l5.891 1.361-.185.802-5.891-1.363z"/>
        <path fill="#E2D1B6" d="M158.283 85.859l-2.05-5.484-2.524 5.282 2.351.736z"/>
        <path fill="#97AB48" d="M156.164 100.018l1.526.065.572-13.766-1.524-.067z"/>
        <path fill="#727D31" d="M155.214 86.183l-.572 13.766 1.522.068.574-13.767z"/>
        <path fill="#97AB48" d="M154.64 99.949l.571-13.766-1.523-.068-.573 13.769zM157.798 85.511c-.287-.013-.495.344-.878.325a.487.487 0 0 1-.163-.036l-.021.45 1.526.067.021-.42s-.197-.374-.485-.386"/>
        <path fill="#727D31" d="M156.757 85.8c-.247-.11-.339-.407-.744-.424-.407-.018-.527.273-.78.355l-.019.454 1.524.065.02-.45z"/>
        <path fill="#97AB48" d="M155.233 85.73a.41.41 0 0 1-.164.026c-.385-.016-.562-.392-.85-.4-.288-.013-.514.338-.514.338l-.016.42 1.525.072.02-.455z"/>
        <path fill="#545757" d="M156.233 80.375l-.895 1.869 1.622.072z"/>
        <path fill="#78706A" d="M163.184 93.52H142.37l2.495 21.391h15.82z"/>
        <g>
            <path fill="#ABB2BA" d="M116.81 90.978v9.21a3.508 3.508 0 0 1-3.508 3.508H11.083a3.509 3.509 0 0 1-3.509-3.509v-9.209h109.237z"/>
            <path fill="#506572" d="M7.575 90.978V33.696a3.509 3.509 0 0 1 3.509-3.509h102.218a3.508 3.508 0 0 1 3.509 3.51v57.281H7.575z"/>
            <path fill="#627282" d="M11.094 87.494V35.37c0-.99.803-1.793 1.793-1.793h98.611c.99 0 1.793.803 1.793 1.793v52.124H11.094z"/>
            <path fill="#ABB2BA" d="M49.388 113.221h25.61v-9.524h-25.61z"/>
            <path fill="#ABB2BA" d="M39.512 114.963h45.362v-3.085H39.512z"/>
            <path fill="#959BA5" d="M63.02 98.165a.828.828 0 1 1-1.656 0 .828.828 0 0 1 1.657 0"/>
        </g>
        <g>
            <path fill="#E7E5E2" d="M91.826 60.887c-2.341 9.66-9.938 16.737-18.947 16.737-9.01 0-16.607-7.078-18.948-16.74a2.13 2.13 0 0 1-.744.133c-1.034 0-1.874-.723-1.874-1.618v-6.53c0-.895.84-1.619 1.874-1.619.07 0 .138.003.205.01 1.38-11.14 9.579-19.697 19.487-19.697 9.908 0 18.106 8.556 19.487 19.696.065-.006.13-.009.196-.009 1.037 0 1.876.724 1.876 1.62v6.529c0 .895-.84 1.618-1.876 1.618-.26 0-.51-.046-.736-.13z"/>
            <path fill="#A13A28" d="M61.87 74.96c-5.554 2.689-14.307 10.218-14.307 17.196V115h50.624V92.156c0-7.031-9.043-14.623-14.648-17.256-10.664-1.523-10.664-1.564-21.67.06z"/>
            <path fill="#F6B873" d="M85.725 30.383c6.184 5.271 7.896 13.968 7.646 18.933-.298 5.928-1.006 12.41-7.041 17.048-6.58 5.055-20.338 5.188-27.506.07-3.555-2.537-5.8-8.155-6.758-17.528-1.206-11.78 6.268-23.018 20.667-22.968 2.505.008 4.729.361 6.698.981.596-1.136 1.845-1.919 3.29-1.919 1.865 0 3.405 1.307 3.631 2.996 28.019 8.028 2.84 38.737 18.362 51.852-23.855-5.39.78-39.809-18.504-50.385a3.33 3.33 0 0 1-.485.92z"/>
        </g>
        <g>
            <g fill="#EFEFEF" transform="matrix(-1 0 0 1 172 2)">
                <path d="M2.663 24.304C1.265 25.788.42 27.71.42 29.81c0 4.7 4.224 8.508 9.436 8.508.686 0 1.354-.067 1.999-.193.427 1.529 1.961 2.66 3.788 2.66.28 0 .552-.027.816-.078 1.463 2.95 4.743 5.007 8.56 5.007 3.427 0 6.424-1.66 8.058-4.136.57.292 1.227.46 1.928.46 1.498 0 2.799-.762 3.455-1.878.367.057.744.088 1.13.088 3.694 0 6.69-2.7 6.69-6.032 0-.663-.121-1.3-.34-1.898a3.46 3.46 0 0 0 1.026-1.579c.064.002.129.005.194.005 3.128 0 5.664-2.287 5.664-5.107 0-2.066-1.361-3.844-3.319-4.648a3.225 3.225 0 0 0-.359-1.922 7.819 7.819 0 0 0 1.12-4.023c0-4.497-3.869-8.176-8.768-8.485-.14-2.393-2.336-4.294-5.025-4.294-.724 0-1.412.139-2.034.387-.585-1.28-1.983-2.18-3.613-2.18-1.136 0-2.158.437-2.872 1.134C27.068.827 25.857.347 24.522.347c-1.756 0-3.297.83-4.168 2.08a5.695 5.695 0 0 0-2.478-.56c-2.903 0-5.257 2.122-5.257 4.74v.002a10.508 10.508 0 0 0-1.228-.074c-5.212 0-9.437 3.809-9.437 8.508 0 1.076.224 2.105.629 3.054-1.204.6-2.02 1.756-2.02 3.084 0 1.357.852 2.535 2.1 3.123"/>
                <circle cx="50.7" cy="42.5" r="3.5"/>
                <circle cx="58.4" cy="47.5" r="2.5"/>
                <circle cx="65.5" cy="49" r="2"/>
            </g>
            <g stroke="#78706A">
                <path stroke-linecap="square" d="M145.5 13.5v24"/>
                <path fill="#EFEFEF" d="M151.025 15.117l-11.208-.196-2.203 1.462 2.15 1.538 11.209.196zM139.565 20.235l11.202-.392 2.229 1.423-2.124 1.575-11.203.392z"/>
            </g>
        </g>
    </g>
</svg>
