<?xml version="1.0" encoding="UTF-8"?>
<svg width="165px" height="114px" viewBox="0 0 165 114" version="1.1" xmlns="http://www.w3.org/2000/svg" xmlns:xlink="http://www.w3.org/1999/xlink">
    <!-- Generator: Sketch 51.3 (57544) - http://www.bohemiancoding.com/sketch -->
    <title>1</title>
    <desc>Created with Sketch.</desc>
    <defs>
        <path d="M14.307,1.21 C8.754,3.9 0,11.429 0,18.407 L0,41.25 L50.625,41.25 L50.625,18.406 C50.625,11.375 41.582,3.783 35.977,1.15 C25.313,-0.373 25.313,-0.414 14.307,1.21 Z" id="path-1"></path>
    </defs>
    <g id="Page-1" stroke="none" stroke-width="1" fill="none" fill-rule="evenodd">
        <g id="1">
            <path d="M111.15,113 C111.865814,109.509925 114.937274,107.004484 118.5,107.004484 C122.062726,107.004484 125.134186,109.509925 125.85,113 L111.15,113 Z" id="Shape" fill="#8C8F92" fill-rule="nonzero"></path>
            <polygon id="Shape" fill="#E2D1B6" fill-rule="nonzero" points="141.082 78.87 138.015 73.863 136.555 79.55 139.003 79.824"></polygon>
            <polygon id="Shape" fill="#E9C264" fill-rule="nonzero" points="143.673 106.454 145.183 106.226 141.149 79.326 139.64 79.552"></polygon>
            <polygon id="Shape" fill="#DAB25B" fill-rule="nonzero" points="138.132 79.78 142.164 106.678 143.673 106.454 139.64 79.552"></polygon>
            <path d="M142.164,106.678 L138.132,79.78 L136.62,80.006 L140.655,106.904 L142.164,106.678 Z M140.539,78.621 C140.255,78.663 140.117,79.056 139.742,79.111 C139.685699,79.118753 139.628467,79.1163824 139.573,79.104 L139.64,79.552 L141.15,79.326 L141.086,78.909 C141.086,78.909 140.824,78.579 140.539,78.621 Z" id="Shape" fill="#E9C264" fill-rule="nonzero"></path>
            <path d="M139.573,79.104 C139.313,79.046 139.162,78.77 138.762,78.828 C138.36,78.889 138.298,79.198 138.064,79.332 L138.132,79.78 L139.64,79.552 L139.573,79.104 Z" id="Shape" fill="#DAB25B" fill-rule="nonzero"></path>
            <path d="M138.065,79.332 C138.015513,79.3598476 137.961241,79.3781644 137.905,79.386 C137.527,79.441 137.283,79.112 136.998,79.154 C136.715,79.194 136.562,79.588 136.562,79.588 L136.619,80.006 L138.132,79.78 L138.065,79.332 Z" id="Shape" fill="#E9C264" fill-rule="nonzero"></path>
            <polygon id="Shape" fill="#545757" fill-rule="nonzero" points="138.017 73.864 137.5 75.876 139.1 75.636"></polygon>
            <path d="M149.807,94.974 L154.327,96.021 C154.509189,96.0628128 154.667087,96.1757569 154.765515,96.3346692 C154.863943,96.4935816 154.894724,96.68526 154.851,96.867 L154.245,99.496 C154.156271,99.8748445 153.778452,100.111093 153.399,100.025 L148.88,98.977 C148.501156,98.8882709 148.264907,98.5104523 148.351,98.131 L148.962,95.501 C149.003642,95.3187564 149.116253,95.160649 149.274873,95.0617226 C149.433493,94.9627962 149.62502,94.9312226 149.807,94.974" id="Shape" fill="#C52C35" fill-rule="nonzero"></path>
            <polygon id="Shape" fill="#E2D1B6" fill-rule="nonzero" points="158.78 69.422 157.306 63.74 154.253 68.746 156.515 69.724"></polygon>
            <polygon id="Shape" fill="#50808B" fill-rule="nonzero" points="153.213 96.56 154.722 96.783 158.712 69.876 157.202 69.652"></polygon>
            <polygon id="Shape" fill="#0C576F" fill-rule="nonzero" points="155.692 69.427 151.702 96.335 153.212 96.559 157.202 69.653"></polygon>
            <path d="M151.703,96.335 L155.694,69.428 L154.182,69.204 L150.192,96.111 L151.703,96.335 Z M158.334,69.026 C158.051,68.982 157.804,69.315 157.424,69.259 C157.369194,69.2511384 157.316503,69.2324415 157.269,69.204 L157.203,69.652 L158.711,69.876 L158.775,69.458 C158.775,69.458 158.618,69.068 158.335,69.026 L158.334,69.026 Z" id="Shape" fill="#50808B" fill-rule="nonzero"></path>
            <path d="M157.268,69.204 C157.036,69.074 156.975,68.764 156.573,68.704 C156.169,68.644 156.02,68.922 155.761,68.982 L155.692,69.429 L157.202,69.652 L157.268,69.204 Z" id="Shape" fill="#0C576F" fill-rule="nonzero"></path>
            <path d="M155.76,68.981 C155.705793,68.9931286 155.649731,68.9944877 155.595,68.985 C155.214,68.929 155.078,68.543 154.793,68.497 C154.507,68.457 154.245,68.787 154.245,68.787 L154.182,69.205 L155.694,69.427 L155.759,68.981 L155.76,68.981 Z" id="Shape" fill="#50808B" fill-rule="nonzero"></path>
            <path d="M157.306,63.74 L156.226,65.512 L157.826,65.752 L157.306,63.74 Z M148.92,95.68 L154.811,97.045 L154.626,97.85 L148.735,96.482 L148.92,95.68 Z" id="Shape" fill="#545757" fill-rule="nonzero"></path>
            <polygon id="Shape" fill="#E2D1B6" fill-rule="nonzero" points="151.283 84.022 149.233 78.522 146.709 83.82 149.06 84.558"></polygon>
            <polygon id="Shape" fill="#97AB48" fill-rule="nonzero" points="149.164 98.225 150.69 98.29 151.262 84.482 149.738 84.415"></polygon>
            <polygon id="Shape" fill="#727D31" fill-rule="nonzero" points="148.214 84.348 147.642 98.156 149.164 98.225 149.738 84.415"></polygon>
            <path d="M147.64,98.156 L148.211,84.348 L146.688,84.279 L146.115,98.091 L147.64,98.156 Z M150.798,83.674 C150.511,83.66 150.303,84.018 149.92,84 C149.863938,83.9971726 149.808789,83.9846541 149.757,83.963 L149.736,84.415 L151.262,84.482 L151.283,84.062 C151.283,84.062 151.086,83.686 150.798,83.674 Z" id="Shape" fill="#97AB48" fill-rule="nonzero"></path>
            <path d="M149.757,83.963 C149.51,83.853 149.418,83.555 149.013,83.538 C148.606,83.52 148.486,83.812 148.233,83.894 L148.214,84.35 L149.738,84.415 L149.758,83.963 L149.757,83.963 Z" id="Shape" fill="#727D31" fill-rule="nonzero"></path>
            <path d="M148.233,83.894 C148.180608,83.9134215 148.124799,83.9219289 148.069,83.919 C147.684,83.903 147.507,83.526 147.219,83.517 C146.931,83.505 146.705,83.857 146.705,83.857 L146.689,84.279 L148.214,84.35 L148.234,83.894 L148.233,83.894 Z" id="Shape" fill="#97AB48" fill-rule="nonzero"></path>
            <polygon id="Shape" fill="#545757" fill-rule="nonzero" points="149.233 78.522 148.338 80.396 149.96 80.469"></polygon>
            <polygon id="Shape" fill="#78706A" fill-rule="nonzero" points="156.184 91.708 135.37 91.708 137.865 113.164 153.685 113.164"></polygon>
            <g id="Group" transform="translate(0.000000, 28.000000)" fill-rule="nonzero">
                <path d="M109.811,61.678 L109.81,70.888 C109.81,72.8254149 108.239415,74.396 106.302,74.396 L4.083,74.396 C2.14503281,74.396 0.574,72.8249672 0.574,70.887 L0.574,61.678 L109.811,61.678 Z" id="Shape" fill="#ABB2BA"></path>
                <path d="M0.575,61.678 L0.575,4.396 C0.575,2.45803281 2.14603281,0.887 4.084,0.887 L106.302,0.887 C107.232899,0.886734484 108.125733,1.25648367 108.783885,1.9148227 C109.442036,2.57316172 109.811531,3.46610079 109.811,4.397 L109.811001,61.678 L0.575,61.678 Z" id="Shape" fill="#506572"></path>
                <path d="M4.094,58.194 L4.094,6.07 C4.094,5.08 4.897,4.277 5.887,4.277 L104.498,4.277 C105.488,4.277 106.291,5.08 106.291,6.07 L106.291,58.194 L4.094,58.194 Z" id="Shape" fill="#627282"></path>
                <polygon id="Shape" fill="#ABB2BA" points="42.388 83.921 67.998 83.921 67.998 74.397 42.388 74.397"></polygon>
                <polygon id="Shape" fill="#ABB2BA" points="32.512 85.663 77.874 85.663 77.874 82.578 32.512 82.578"></polygon>
                <path d="M56.02,68.865 C56.02,69.3222918 55.6492918,69.693 55.192,69.693 C54.7347082,69.693 54.364,69.3222918 54.364,68.865 C54.364,68.4074321 54.7349321,68.0365 55.1925,68.0365 C55.6500679,68.0365 56.021,68.4074321 56.021,68.865" id="Shape" fill="#959BA5"></path>
            </g>
            <g id="Group" transform="translate(40.000000, 24.000000)">
                <path d="M44.826,35.887 C42.485,45.547 34.888,52.624 25.879,52.624 C16.869,52.624 9.272,45.546 6.931,35.884 C6.69291124,35.97233 6.44094547,36.0173722 6.187,36.017 C5.153,36.017 4.313,35.294 4.313,34.399 L4.313,27.869 C4.313,26.974 5.153,26.25 6.187,26.25 C6.257,26.25 6.325,26.253 6.392,26.26 C7.772,15.12 15.971,6.563 25.879,6.563 C35.787,6.563 43.985,15.119 45.366,26.259 C45.431,26.253 45.496,26.25 45.562,26.25 C46.599,26.25 47.438,26.974 47.438,27.87 L47.438,34.399 C47.438,35.294 46.598,36.017 45.562,36.017 C45.302,36.017 45.052,35.971 44.826,35.887 Z" id="Shape" fill="#E7E5E2" fill-rule="nonzero"></path>
                <g transform="translate(0.563000, 48.750000)">
                    <g id="a-link" fill="#5EADC7" fill-rule="nonzero">
                        <path d="M14.307,1.21 C8.754,3.9 0,11.429 0,18.407 L0,41.25 L50.625,41.25 L50.625,18.406 C50.625,11.375 41.582,3.783 35.977,1.15 C25.313,-0.373 25.313,-0.414 14.307,1.21 Z" id="a"></path>
                    </g>
                    <g id="Clipped">
                        <mask id="mask-2" fill="white">
                            <use xlink:href="#path-1"></use>
                        </mask>
                        <g id="a"></g>
                        <polygon id="Shape" fill="#A13A28" fill-rule="nonzero" mask="url(#mask-2)" points="-35.625 60.25 82.375 60.25 82.375 -33.75 -35.625 -33.75"></polygon>
                    </g>
                </g>
                <g transform="translate(4.353000, 0.000000)" fill="#F6B873" fill-rule="nonzero" id="c-link">
                    <g transform="translate(27.240000, 27.500000) scale(-1, 1) translate(-27.240000, -27.500000) translate(0.240000, 0.000000)">
                        <path d="M19.693,5.383 C19.4837245,5.10373757 19.3197169,4.79327054 19.207,4.463 C-0.153,15.04 24.579,49.458 0.63,54.848 C16.213,41.733 -9.065,11.024 19.063,2.996 C19.29,1.306 20.837,0 22.71,0 C24.16,0 25.415,0.783 26.013,1.92 C27.99,1.3 30.223,0.946 32.737,0.938 C47.193,0.888 54.696,12.126 53.485,23.906 C52.523,33.279 50.27,38.897 46.701,41.435 C39.505,46.552 25.693,46.419 19.087,41.364 C13.027,36.726 12.317,30.244 12.017,24.316 C11.767,19.351 13.486,10.654 19.694,5.383 L19.693,5.383 Z" id="c"></path>
                    </g>
                </g>
            </g>
            <g id="Group" transform="translate(97.000000, 0.000000)">
                <g transform="translate(34.000000, 25.500000) scale(-1, 1) translate(-34.000000, -25.500000) " fill="#EFEFEF" fill-rule="nonzero">
                    <circle id="Oval" cx="50.7" cy="42.5" r="3.5"></circle>
                    <circle id="Oval" cx="58.4" cy="47.5" r="2.5"></circle>
                    <circle id="Oval" cx="65.5" cy="49" r="2"></circle>
                    <path d="M2.663,24.304 C1.265,25.788 0.42,27.71 0.42,29.81 C0.42,34.51 4.644,38.318 9.856,38.318 C10.542,38.318 11.21,38.251 11.855,38.125 C12.282,39.654 13.816,40.785 15.643,40.785 C15.923,40.785 16.195,40.758 16.459,40.707 C17.922,43.657 21.202,45.714 25.019,45.714 C28.446,45.714 31.443,44.054 33.077,41.578 C33.647,41.87 34.304,42.038 35.005,42.038 C36.503,42.038 37.804,41.276 38.46,40.16 C38.827,40.217 39.204,40.248 39.59,40.248 C43.284,40.248 46.28,37.548 46.28,34.216 C46.28,33.553 46.159,32.916 45.94,32.318 C46.4214024,31.8966429 46.7765564,31.3500657 46.966,30.739 C47.03,30.741 47.095,30.744 47.16,30.744 C50.288,30.744 52.824,28.457 52.824,25.637 C52.824,23.571 51.463,21.793 49.505,20.989 C49.5871062,20.3266197 49.4616731,19.6550812 49.146,19.067 C49.8771543,17.8523387 50.2642959,16.4617397 50.266,15.044 C50.266,10.547 46.397,6.868 41.498,6.559 C41.358,4.166 39.162,2.265 36.473,2.265 C35.749,2.265 35.061,2.404 34.439,2.652 C33.854,1.372 32.456,0.472 30.826,0.472 C29.69,0.472 28.668,0.909 27.954,1.606 C27.068,0.827 25.857,0.347 24.522,0.347 C22.766,0.347 21.225,1.177 20.354,2.427 C19.5807033,2.05612871 18.7336293,1.86469955 17.876,1.867 C14.973,1.867 12.619,3.989 12.619,6.607 L12.619,6.609 C12.2114631,6.56037252 11.8014272,6.53566352 11.391,6.535 C6.179,6.535 1.954,10.344 1.954,15.043 C1.954,16.119 2.178,17.148 2.583,18.097 C1.379,18.697 0.563,19.853 0.563,21.181 C0.563,22.538 1.415,23.716 2.663,24.304" id="Shape"></path>
                </g>
                <path d="M41.5,11.5 L41.5,35.5" id="Shape" stroke="#78706A" stroke-linecap="square"></path>
                <path d="M47.025,13.117 L35.817,12.921 L33.614,14.383 L35.764,15.921 L46.973,16.117 L47.025,13.117 Z M35.565,18.235 L46.767,17.843 L48.996,19.266 L46.872,20.841 L35.669,21.233 L35.565,18.235 Z" id="Shape" stroke="#78706A" fill="#EFEFEF" fill-rule="nonzero"></path>
            </g>
        </g>
    </g>
</svg>