<?xml version="1.0" encoding="UTF-8"?>
<svg width="162px" height="108px" viewBox="0 0 162 108" version="1.1" xmlns="http://www.w3.org/2000/svg" xmlns:xlink="http://www.w3.org/1999/xlink">
    <!-- Generator: sketchtool 51.2 (57519) - http://www.bohemiancoding.com/sketch -->
    <title>B6909DBC-DB25-4312-A18E-EDC02C1800D6</title>
    <desc>Created with sketchtool.</desc>
    <defs>
        <path d="M14.3073505,1.2107407 C8.75363726,3.89859151 0,11.4282095 0,18.4063832 L0,41.25 L50.625,41.25 L50.625,18.4063832 C50.625,11.374842 41.5819495,3.78338982 35.9768192,1.14992455 C25.3125,-0.373090707 25.3125,-0.413765486 14.3073505,1.2107407 Z" id="path-1"></path>
        <path d="M19.6931331,5.38252686 C19.4845247,5.1036308 19.3192803,4.79445005 19.2065225,4.46348014 C-0.153257835,15.0394077 24.5787765,49.4583728 0.629614783,54.8483774 C16.2127613,41.7330508 -9.06494845,11.0240051 19.0634634,2.99578135 C19.2903416,1.30678626 20.8365549,0 22.7092974,0 C24.1599474,0 25.4140333,0.78255131 26.0122136,1.91919797 C27.9890499,1.2994049 30.2211907,0.946245968 32.7361019,0.937664158 C47.1916372,0.887976658 54.6945137,12.1257892 53.4844372,23.9064142 C52.5218078,33.2786017 50.2686314,38.8970392 46.6997608,41.4348517 C39.5036784,46.5517267 25.6919078,46.4186017 19.0862784,41.3636017 C13.0268431,36.7257892 12.3166902,30.2439142 12.0169372,24.3161017 C11.766369,19.3506945 13.4845805,10.6542758 19.6931331,5.38252686 Z" id="path-3"></path>
    </defs>
    <g id="Illustrations" stroke="none" stroke-width="1" fill="none" fill-rule="evenodd">
        <g id="Illustrations/card/c1">
            <path d="M92.1500272,104 C92.8449327,100.57664 95.8715631,98 99.5,98 C103.128437,98 106.155067,100.57664 106.849973,104 L92.1500272,104 Z" id="Combined-Shape" fill="#8C8F92"></path>
            <g id="gjenstander/-veggtavle" transform="translate(99.000000, 0.000000)">
                <polygon id="Fill-138" fill="#EFEFEF" points="0 63.6253659 62.44875 63.6253659 62.44875 0 0 0"></polygon>
                <path d="M7.2135,4.74692683 C7.2135,6.07453659 6.12675,7.15004878 4.7872125,7.15004878 C3.4468875,7.15004878 2.3625,6.07453659 2.3625,4.74692683 C2.3625,3.42087805 3.4468875,2.34146341 4.7872125,2.34146341 C6.12675,2.34146341 7.2135,3.42087805 7.2135,4.74692683" id="Fill-140" fill="#838688"></path>
                <path d="M60.761925,4.74692683 C60.761925,6.07453659 59.67675,7.15004878 58.3372125,7.15004878 C56.9953125,7.15004878 55.9125,6.07453659 55.9125,4.74692683 C55.9125,3.42087805 56.9953125,2.34146341 58.3372125,2.34146341 C59.67675,2.34146341 60.761925,3.42087805 60.761925,4.74692683" id="Fill-141" fill="#838688"></path>
                <path d="M27.1830722,47.043122 C29.3715347,47.4653659 11.8504472,46.7449756 9.43203473,47.043122 C7.01598473,47.3436098 8.13265973,32 8.13265973,32 L25.8836972,32 C25.8836972,32 24.9898847,46.625561 27.1830722,47.043122" id="Fill-142" fill="#E9C264"></path>
                <path d="M25.765425,44.4878049 L7.875,44.4878049 C8.1073125,46.0370732 8.497125,47.070439 9.139725,46.9931707 C11.5581375,46.6926829 29.079225,47.4130732 26.8907625,46.9931707 C26.341875,46.8893659 25.99065,45.9051707 25.765425,44.4878049" id="Fill-143" fill="#DAB25B"></path>
                <path d="M53.1695639,37.6780488 C55.3556639,38.0971707 37.8369389,37.379122 35.4201014,37.6780488 C33.0024764,37.9785366 34.1207264,22.6341463 34.1207264,22.6341463 L51.8694014,22.6341463 C51.8694014,22.6341463 50.9787389,37.2597073 53.1695639,37.6780488" id="Fill-144" fill="#E9C264"></path>
                <path d="M52.540425,35.1219512 L34.65,35.1219512 C34.8823125,36.673561 35.2713375,37.7084878 35.9163,37.6296585 C38.3331375,37.3291707 55.8518625,38.0472195 53.6657625,37.6296585 C53.116875,37.5227317 52.7632875,36.5416585 52.540425,35.1219512" id="Fill-145" fill="#DAB25B"></path>
                <path d="M31.9057097,22.8503415 C34.0965347,23.2679024 16.5754472,22.5498537 14.1570347,22.8503415 C11.7409847,23.1469268 12.8576597,7.80487805 12.8576597,7.80487805 L30.6063347,7.80487805 C30.6063347,7.80487805 29.7148847,22.430439 31.9057097,22.8503415" id="Fill-146" fill="#E9C264"></path>
                <path d="M30.490425,20.2926829 L12.6,20.2926829 C12.8323125,21.8419512 13.2213375,22.8776585 13.864725,22.7980488 C16.2831375,22.497561 33.804225,23.2156098 31.6134,22.7980488 C31.066875,22.6934634 30.7132875,21.7084878 30.490425,20.2926829" id="Fill-147" fill="#DAB25B"></path>
            </g>
            <g id="gjenstander/kontor/-blyanterholder" transform="translate(119.000000, 54.353858)">
                <g id="Group-Copy">
                    <polygon id="Fill-148" fill="#E2D1B6" points="6.0822 15.5162 3.01486667 10.5095333 1.5542 16.1962 4.00286667 16.4702"></polygon>
                    <polygon id="Fill-149" fill="#E9C264" points="8.67266667 43.0998667 10.1833333 42.8718667 6.14933333 15.9725333 4.64 16.1978667"></polygon>
                    <polygon id="Fill-150" fill="#DAB25B" points="3.13166667 16.4256667 7.16366667 43.3236667 8.673 43.0996667 4.64033333 16.1983333"></polygon>
                    <polygon id="Fill-151" fill="#E9C264" points="7.1636 43.3238 3.1316 16.4258 1.6196 16.6518 5.65493333 43.5498"></polygon>
                    <path d="M5.5386,15.2674667 C5.2546,15.3094667 5.11726667,15.7021333 4.74193333,15.7574667 C4.6766,15.7654667 4.62326667,15.7614667 4.57326667,15.7501333 L4.63993333,16.1981333 L6.14926667,15.9721333 L6.08593333,15.5548 C6.08593333,15.5548 5.82393333,15.2254667 5.5386,15.2674667" id="Fill-152" fill="#E9C264"></path>
                    <path d="M4.57306667,15.7499333 C4.3124,15.6926 4.16173333,15.4166 3.76173333,15.4746 C3.35973333,15.5352667 3.2984,15.8439333 3.0644,15.9779333 L3.13173333,16.4259333 L4.6404,16.1979333 L4.57306667,15.7499333 Z" id="Fill-153" fill="#DAB25B"></path>
                    <path d="M3.0646,15.9778 C3.02126667,16.0031333 2.9686,16.0218 2.90593333,16.0318 C2.5266,16.0871333 2.28326667,15.7578 1.99793333,15.7998 C1.71526667,15.8398 1.56193333,16.2344667 1.56193333,16.2344667 L1.61926667,16.6518 L3.13193333,16.4258 L3.0646,15.9778 Z" id="Fill-154" fill="#E9C264"></path>
                    <polygon id="Fill-155" fill="#545757" points="3.01706667 10.5096667 2.5004 12.5223333 4.1004 12.2823333"></polygon>
                    <path d="M14.8068,31.62 L19.3268,32.6673333 C19.7048,32.7533333 19.9434667,33.1326667 19.8514667,33.5133333 L19.2448,36.142 C19.1561333,36.5213333 18.7774667,36.7566667 18.3988,36.6706667 L13.8801333,35.6233333 C13.5028,35.5353333 13.2641333,35.156 13.3514667,34.7773333 L13.9621333,32.148 C14.0501333,31.7673333 14.4281333,31.53 14.8068,31.62" id="Fill-156" fill="#C52C35"></path>
                    <polygon id="Fill-157" fill="#E2D1B6" points="23.7801333 6.06793333 22.3061333 0.385933333 19.2528 5.39193333 21.5154667 6.3706"></polygon>
                    <polygon id="Fill-158" fill="#50808B" points="18.2130667 33.2053333 19.7217333 33.4293333 23.7117333 6.522 22.2024 6.298"></polygon>
                    <polygon id="Fill-159" fill="#0C576F" points="20.6922 6.07346667 16.7028667 32.9808 18.2128667 33.2054667 22.2028667 6.29946667"></polygon>
                    <polygon id="Fill-160" fill="#50808B" points="16.7026667 32.981 20.694 6.07366667 19.182 5.84966667 15.1913333 32.757"></polygon>
                    <path d="M23.3341333,5.6718 C23.0508,5.6278 22.8041333,5.96113333 22.4248,5.90513333 C22.3634667,5.8958 22.3141333,5.87646667 22.2694667,5.8498 L22.2028,6.2978 L23.7114667,6.5218 L23.7748,6.10446667 C23.7748,6.10446667 23.6181333,5.7138 23.3341333,5.6718" id="Fill-161" fill="#50808B"></path>
                    <path d="M22.2677333,5.84986667 C22.0364,5.71986667 21.9750667,5.4092 21.5730667,5.34986667 C21.1690667,5.29053333 21.0197333,5.56853333 20.7610667,5.62786667 L20.6924,6.0752 L22.2024,6.29786667 L22.2677333,5.84986667 Z" id="Fill-162" fill="#0C576F"></path>
                    <path d="M20.7592667,5.62753333 C20.7072667,5.63953333 20.6539333,5.64086667 20.5946,5.63153333 C20.2139333,5.57553333 20.0779333,5.18953333 19.7926,5.14286667 C19.5072667,5.10286667 19.2452667,5.4322 19.2452667,5.4322 L19.1819333,5.85153333 L20.6939333,6.07353333 L20.7592667,5.62753333 Z" id="Fill-163" fill="#50808B"></path>
                    <polygon id="Fill-164" fill="#545757" points="22.3061333 0.385666667 21.2268 2.15833333 22.8268 2.39766667"></polygon>
                    <polygon id="Fill-165" fill="#545757" points="13.9200667 32.3264 19.8114 33.6910667 19.6260667 34.4957333 13.7347333 33.1284"></polygon>
                    <polygon id="Fill-166" fill="#E2D1B6" points="16.2827333 20.6685333 14.2327333 15.1678667 11.7094 20.4658667 14.0600667 21.2045333"></polygon>
                    <polygon id="Fill-167" fill="#97AB48" points="14.1636 34.871 15.6896 34.9363333 16.2616 21.1276667 14.7376 21.061"></polygon>
                    <polygon id="Fill-168" fill="#727D31" points="13.2137333 20.9940667 12.6417333 34.8020667 14.1637333 34.8707333 14.7377333 21.0614"></polygon>
                    <polygon id="Fill-169" fill="#97AB48" points="12.6394667 34.802 13.2114667 20.994 11.6881333 20.9253333 11.1154667 34.7366667"></polygon>
                    <path d="M15.7983333,20.3198667 C15.511,20.3065333 15.303,20.6645333 14.9203333,20.6458667 C14.8583333,20.6418667 14.805,20.6298667 14.757,20.6092 L14.7356667,21.0612 L16.2616667,21.1278667 L16.283,20.7072 C16.283,20.7072 16.0856667,20.3318667 15.7983333,20.3198667" id="Fill-170" fill="#97AB48"></path>
                    <path d="M14.7573333,20.6092667 C14.51,20.4999333 14.418,20.2012667 14.0126667,20.1839333 C13.606,20.1666 13.486,20.4579333 13.2333333,20.5399333 L13.214,20.9959333 L14.738,21.0612667 L14.7573333,20.6092667 Z" id="Fill-171" fill="#727D31"></path>
                    <path d="M13.2332667,20.5402667 C13.1832667,20.5576 13.1299333,20.5689333 13.0686,20.5649333 C12.6839333,20.5496 12.5072667,20.1722667 12.2199333,20.1636 C11.9312667,20.1516 11.7052667,20.5036 11.7052667,20.5036 L11.6886,20.9249333 L13.2139333,20.9962667 L13.2332667,20.5402667 Z" id="Fill-172" fill="#97AB48"></path>
                    <polygon id="Fill-173" fill="#545757" points="14.2326 15.1678667 13.3379333 17.0425333 14.9599333 17.1152"></polygon>
                    <polygon id="Fill-174" fill="#78706A" points="21.1844 28.3537333 0.3704 28.3537333 2.86506667 49.8104 18.6857333 49.8104"></polygon>
                </g>
            </g>
            <g id="devices/-dataskjerm" transform="translate(0.000000, 19.000000)">
                <g id="Group">
                    <path d="M109.8105,61.6783 L109.8105,70.8873 C109.8105,72.8253 108.2405,74.3963 106.3015,74.3963 L4.0835,74.3963 C2.1455,74.3963 0.5745,72.8253 0.5745,70.8873 L0.5745,61.6783 L109.8105,61.6783 Z" id="Fill-16" fill="#ABB2BA"></path>
                    <path d="M0.5747,61.6783 L0.5747,4.3963 C0.5747,2.4583 2.1457,0.8873 4.0837,0.8873 L106.3017,0.8873 C108.2407,0.8873 109.8107,2.4583 109.8107,4.3963 L109.8107,61.6783 L0.5747,61.6783 Z" id="Fill-17" fill="#506572"></path>
                    <path d="M4.0942,58.1939 L4.0942,6.0699 C4.0942,5.0799 4.8972,4.2769 5.8872,4.2769 L104.4982,4.2769 C105.4882,4.2769 106.2912,5.0799 106.2912,6.0699 L106.2912,58.1939 L4.0942,58.1939 Z" id="Fill-18" fill="#627282"></path>
                    <polygon id="Fill-19" fill="#ABB2BA" points="42.388 83.921 67.998 83.921 67.998 74.397 42.388 74.397"></polygon>
                    <polygon id="Fill-20" fill="#ABB2BA" points="32.512 85.663 77.874 85.663 77.874 82.578 32.512 82.578"></polygon>
                    <path d="M56.0205,68.8653 C56.0205,69.3223 55.6495,69.6933 55.1925,69.6933 C54.7355,69.6933 54.3655,69.3223 54.3655,68.8653 C54.3655,68.4083 54.7355,68.0373 55.1925,68.0373 C55.6495,68.0373 56.0205,68.4083 56.0205,68.8653" id="Fill-21" fill="#959BA5"></path>
                </g>
            </g>
            <g id="mennesker/kvinne/-bak-" transform="translate(21.000000, 12.000000)">
                <g id="Group" transform="translate(2.000000, 6.000000)">
                    <path d="M50.8262606,35.8873893 C48.4845643,45.5468188 40.8883852,52.62375 31.87875,52.62375 C22.8683278,52.62375 15.2722521,45.5455824 12.9314901,35.884858 C12.7034603,35.9698227 12.4519153,36.016875 12.1875,36.016875 C11.1533169,36.016875 10.3125,35.2940625 10.3125,34.39875 L10.3125,27.8690625 C10.3125,26.97375 11.1533169,26.25 12.1875,26.25 C12.256662,26.25 12.3249434,26.2532233 12.3921538,26.2595059 C13.7726998,15.1197631 21.970621,6.5625 31.87875,6.5625 C41.7866627,6.5625 49.9852204,15.1193896 51.3661724,26.2587766 C51.4307067,26.252974 51.496206,26.25 51.5625,26.25 C52.5988557,26.25 53.4375,26.97375 53.4375,27.8690625 L53.4375,34.39875 C53.4375,35.2940625 52.5988557,36.016875 51.5625,36.016875 C51.3012711,36.016875 51.0523798,35.9707567 50.8262606,35.8873893 Z" id="Combined-Shape" fill="#E7E5E2"></path>
                    <g id="+20/-Blå" transform="translate(6.562500, 48.750000)">
                        <mask id="mask-2" fill="white">
                            <use xlink:href="#path-1"></use>
                        </mask>
                        <use id="Mask" fill="#5EADC7" xlink:href="#path-1"></use>
                        <g id="⚙️/+20/-grønn" mask="url(#mask-2)">
                            <g transform="translate(-35.625000, -33.750000)" id="+20/-oransje">
                                <g>
                                    <polygon id="Fill-50" fill="#117938" points="0 94 118 94 118 0 0 0"></polygon>
                                </g>
                            </g>
                        </g>
                    </g>
                    <g id="mennesker/kvinne/⚙️/-hår/-hestehale">
                        <g id="hårfarge/-brunn" transform="translate(10.352941, 0.000000)">
                            <mask id="mask-4" fill="white">
                                <use xlink:href="#path-3"></use>
                            </mask>
                            <use id="Mask" fill="#674C2A" transform="translate(27.120346, 27.424189) scale(-1, 1) translate(-27.120346, -27.424189) " xlink:href="#path-3"></use>
                            <g id="mennesker/⚙️/hårfarge/-brunn" mask="url(#mask-4)" fill="#8B5F26">
                                <g transform="translate(-11.294118, 0.000000)" id="hårfarge/-brunn">
                                    <rect x="0" y="0" width="65" height="74"></rect>
                                </g>
                            </g>
                        </g>
                    </g>
                </g>
            </g>
            <g id="Group-3" transform="translate(-18.000000, -28.000000)">
                <g id="Group" fill="#EFEFEF">
                    <circle id="Oval-Copy" cx="42" cy="49" r="3"></circle>
                    <circle id="Oval-Copy-2" cx="48" cy="57" r="2"></circle>
                    <g id="Group-2">
                        <path d="M50.5803271,21.756035 C51.9786355,20.2719767 52.8236636,18.3511417 52.8236636,16.251666 C52.8236636,11.5520738 48.5990187,7.74300583 43.3871869,7.74300583 C42.7011589,7.74300583 42.0329626,7.81044272 41.3885421,7.93593786 C40.9610748,6.40766602 39.4270467,5.2768699 37.599785,5.2768699 C37.3199252,5.2768699 37.0479907,5.30366602 36.7844766,5.35413204 C35.3212804,2.40387961 32.040729,0.34727767 28.224729,0.34727767 C24.7970654,0.34727767 21.7998411,2.00729709 20.165757,4.48325825 C19.5966262,4.19162718 18.9393271,4.02415146 18.2379439,4.02415146 C16.7400748,4.02415146 15.4393458,4.78516117 14.7835327,5.90121942 C14.416,5.84450097 14.0395514,5.81368544 13.6536916,5.81368544 C9.95904673,5.81368544 6.96380374,8.51428738 6.96380374,11.8454913 C6.96380374,12.5086951 7.08416822,13.1459961 7.30359813,13.7431029 C6.82015888,14.1722874 6.46154206,14.7144621 6.27728037,15.3222874 C6.21288785,15.3200544 6.14849533,15.3178214 6.08360748,15.3178214 C2.95561682,15.3178214 0.419542056,17.6044233 0.419542056,20.4247146 C0.419542056,22.4902485 1.78020561,24.2681709 3.73773832,25.072501 C3.7208972,25.2029087 3.71198131,25.3351029 3.71198131,25.4695301 C3.71198131,26.0161709 3.85017757,26.5333359 4.09635514,26.9946757 C3.38209346,28.1929087 2.97642056,29.5621903 2.97642056,31.0172194 C2.97642056,35.5140544 6.84591589,39.1931612 11.7456916,39.5022097 C11.8858692,41.8951029 14.0811589,43.7962874 16.7697944,43.7962874 C17.4944579,43.7962874 18.181972,43.6573942 18.8045981,43.4090835 C19.3895794,44.6885981 20.7868972,45.5898408 22.417514,45.5898408 C23.5532991,45.5898408 24.5751589,45.1526175 25.2889252,44.4550252 C26.1755607,45.2330058 27.3861402,45.7131029 28.7210467,45.7131029 C30.4774766,45.7131029 32.0184393,44.8828699 32.8892243,43.6341709 C33.627757,43.9905592 34.4712991,44.1933165 35.3668505,44.1933165 C38.2699626,44.1933165 40.623757,42.0710641 40.623757,39.4530835 L40.623757,39.4517437 C41.0264579,39.4990835 41.4355981,39.5258796 41.8526636,39.5258796 C47.064,39.5258796 51.2896355,35.716365 51.2896355,31.0172194 C51.2896355,29.9409087 51.0652523,28.9119379 50.6605701,27.9638019 C51.864215,27.3631223 52.6795234,26.2073165 52.6795234,24.8791223 C52.6795234,23.521899 51.8280561,22.3446563 50.5803271,21.756035" id="Fill-9"></path>
                    </g>
                </g>
                <path d="M26.5,11.5 L26.5,35.5" id="Line" stroke="#78706A" stroke-linecap="square"></path>
            </g>
        </g>
    </g>
</svg>