<?xml version="1.0" encoding="UTF-8"?>
<svg width="162px" height="108px" viewBox="0 0 162 108" version="1.1" xmlns="http://www.w3.org/2000/svg" xmlns:xlink="http://www.w3.org/1999/xlink">
    <!-- Generator: sketchtool 51.2 (57519) - http://www.bohemiancoding.com/sketch -->
    <title>0C29D0C6-2D63-4F5A-AF9A-0DA03F72A946</title>
    <desc>Created with sketchtool.</desc>
    <defs>
        <path d="M-1.13686838e-13,8.15955518 L-1.13686838e-13,46.5238041 C-1.13686838e-13,47.8913078 1.10532014,49 2.46936191,49 L35.5320328,49 C36.8946799,49 38,47.8913078 38,46.5238041 L38,2.47619591 C38,1.10869224 36.8946799,0 35.5320328,0 L8.59360261,0 L-1.13686838e-13,8.15955518 Z" id="path-1"></path>
    </defs>
    <g id="Illustrations" stroke="none" stroke-width="1" fill="none" fill-rule="evenodd">
        <g id="Illustrations/card/c2">
            <g id="Clipboard" transform="translate(60.000000, 32.000000)">
                <g id="dokumenter/-utklippstavlen">
                    <path d="M45.1086726,6.00809323 L3.2101234,6.00809323 C1.48092314,6.00809323 0.0816888831,7.43770328 0.0816888831,9.20401335 L0.0816888831,63.1733854 C0.0816888831,63.5028054 0.130737885,63.8231254 0.221701488,64.1216054 C0.374199294,64.6230155 0.645306505,65.0698255 1.00024292,65.4329155 C1.06891152,65.5020755 1.14382272,65.5739655 1.22319293,65.6376655 C1.68425354,66.0289655 2.26035637,66.2837655 2.88907539,66.3511055 C2.99609139,66.3620255 3.1031074,66.3683955 3.2101234,66.3683955 L45.1086726,66.3683955 C46.8378729,66.3683955 48.2388907,64.9369655 48.2388907,63.1733854 L48.2388907,9.20401335 C48.2388907,7.43770328 46.8378729,6.00809323 45.1086726,6.00809323" id="Fill-102" fill="#515658"></path>
                    <path d="M3.95700593,17.8052427 L3.95700593,59.3276343 C3.95700593,60.8109343 5.13329018,62.0084944 6.58246523,62.0084944 L41.7363308,62.0084944 C43.1863976,62.0084944 44.3626819,60.8109343 44.3626819,59.3276343 L44.3626819,11.6536424 C44.3626819,10.1730724 43.1863976,8.97369234 41.7363308,8.97369234 L13.0961727,8.97369234 L3.95700593,17.8052427 Z" id="Fill-103" fill="#FFFFFF"></path>
                    <path d="M13.0962619,8.97405634 L13.0962619,15.1229266 C13.0962619,16.6044066 11.9208694,17.8056067 10.4708026,17.8056067 L3.95709511,17.8056067 L13.0962619,8.97405634 Z" id="Fill-104" fill="#C0C0BE"></path>
                    <path d="M24.1610032,7.50859229 C23.6009528,7.50859229 23.1479184,7.04813227 23.1479184,6.47665225 C23.1479184,5.90517222 23.6009528,5.44198221 24.1610032,5.44198221 C24.7183783,5.44198221 25.1731963,5.90517222 25.1731963,6.47665225 C25.1731963,7.04813227 24.7183783,7.50859229 24.1610032,7.50859229 M30.4151969,3.28346212 L26.6464499,3.28346212 L26.6464499,2.5727521 C26.6464499,1.17135204 25.5325917,0.0356720014 24.1610032,0.0356720014 C22.7849558,0.0356720014 21.6737729,1.17135204 21.6737729,2.5727521 L21.6737729,3.28346212 L17.905026,3.28346212 C16.0474065,3.28346212 14.5393727,4.82227218 14.5393727,6.71871226 L14.5393727,10.8501124 L33.7799584,10.8501124 L33.7799584,6.71871226 C33.7799584,4.82227218 32.2728163,3.28346212 30.4151969,3.28346212" id="Fill-105" fill="#2F3237"></path>
                    <g id="⚙️/-dokumenter/-innhold/-oppgaver" transform="translate(1.783600, 14.560001)" stroke-width="1">
                        <g id="Group" transform="translate(8.902174, 11.830000)">
                            <polygon id="Fill-118" fill="#A59D96" points="6.50695525 5.07962019 27.0460517 5.07962019 27.0460517 2.7336401 6.50695525 2.7336401"></polygon>
                            <polygon id="Fill-119" fill="#A59D96" points="6.50695525 10.3858304 27.0460517 10.3858304 27.0460517 8.04076031 6.50695525 8.04076031"></polygon>
                            <polygon id="Fill-120" fill="#A59D96" points="6.50695525 15.6920406 27.0460517 15.6920406 27.0460517 13.3478805 6.50695525 13.3478805"></polygon>
                            <polygon id="Fill-121" fill="#A59D96" points="6.50695525 21.0000708 27.0460517 21.0000708 27.0460517 18.6550007 6.50695525 18.6550007"></polygon>
                            <path d="M4.20627733,1.82418607 L3.31605991,1.82418607 L0.890217425,1.82418607 L0,1.82418607 L0,2.7341861 L0,5.08016619 L0,5.99016623 L0.890217425,5.99016623 L3.31605991,5.99016623 L4.20627733,5.99016623 L4.20627733,5.08016619 L4.20627733,2.7341861 L4.20627733,1.82418607 Z M0.890217425,5.08016619 L3.31605991,5.08016619 L3.31605991,2.7341861 L0.890217425,2.7341861 L0.890217425,5.08016619 Z" id="Fill-122" fill="#A59D96"></path>
                            <path d="M4.20627733,7.13085127 L3.31605991,7.13085127 L0.890217425,7.13085127 L0,7.13085127 L0,8.04085131 L0,10.3859214 L0,11.2959214 L0.890217425,11.2959214 L3.31605991,11.2959214 L4.20627733,11.2959214 L4.20627733,10.3859214 L4.20627733,8.04085131 L4.20627733,7.13085127 Z M0.890217425,10.3859214 L3.31605991,10.3859214 L3.31605991,8.04085131 L0.890217425,8.04085131 L0.890217425,10.3859214 Z" id="Fill-123" fill="#A59D96"></path>
                            <path d="M4.20627733,12.4376075 L3.31605991,12.4376075 L0.890217425,12.4376075 L0,12.4376075 L0,13.3476075 L0,15.6917676 L0,16.6017676 L0.890217425,16.6017676 L3.31605991,16.6017676 L4.20627733,16.6017676 L4.20627733,15.6917676 L4.20627733,13.3476075 L4.20627733,12.4376075 Z M0.890217425,15.6917676 L3.31605991,15.6917676 L3.31605991,13.3476075 L0.890217425,13.3476075 L0.890217425,15.6917676 Z" id="Fill-124" fill="#A59D96"></path>
                            <path d="M4.20627733,17.7451827 L3.31605991,17.7451827 L0.890217425,17.7451827 L0,17.7451827 L0,18.6551827 L0,21.0002528 L0,21.9102528 L0.890217425,21.9102528 L3.31605991,21.9102528 L4.20627733,21.9102528 L4.20627733,21.0002528 L4.20627733,18.6551827 L4.20627733,17.7451827 Z M0.890217425,21.0002528 L3.31605991,21.0002528 L3.31605991,18.6551827 L0.890217425,18.6551827 L0.890217425,21.0002528 Z" id="Fill-125" fill="#A59D96"></path>
                            <polyline id="Stroke-126" stroke="#2F3237" stroke-width="1.82000007" points="0.0316917403 1.56247006 2.30174617 4.21512016 5.4958463 0"></polyline>
                            <polyline id="Stroke-127" stroke="#2F3237" stroke-width="1.82000007" points="0.0316917403 7.00072127 2.30174617 9.65337137 5.4958463 5.43825121"></polyline>
                        </g>
                    </g>
                </g>
                <rect id="Rectangle" fill="#FFFFFF" x="8.01818182" y="20.7945205" width="32.0727273" height="30.739726"></rect>
                <g id="⚙️/-dokumenter/-innhold/-statistik" transform="translate(1.781818, 15.369863)">
                    <g id="Group-2" transform="translate(4.451087, 7.121739)">
                        <path d="M0.31151907,27.4528976 C0.209661635,27.4528976 0.109460417,27.4032111 0.0506646618,27.3112909 C-0.0437397907,27.1663718 -0.00233432906,26.9742505 0.142584787,26.8815022 L7.39599356,22.1952321 C7.50033532,22.1281552 7.63366091,22.1289833 7.73634645,22.1977164 L14.6229028,26.7680513 L21.4316169,22.1447174 C21.5732236,22.0486568 21.7670012,22.0850936 21.86389,22.2275283 C21.9599506,22.3699631 21.9235138,22.5629126 21.7819071,22.6589733 L14.8001182,27.3998986 C14.6941202,27.4702879 14.5583103,27.4702879 14.4531404,27.4015548 L7.56244351,22.8279075 L0.479625244,27.4032111 C0.428282472,27.4371635 0.368658607,27.4528976 0.31151907,27.4528976" id="Fill-44" fill="#B5B7B7"></path>
                        <path d="M8.45671867,22.4563349 C8.45671867,22.9490599 8.05757002,23.3490367 7.56484503,23.3490367 C7.07212003,23.3490367 6.67297138,22.9490599 6.67297138,22.4563349 C6.67297138,21.9636099 7.07212003,21.5644613 7.56484503,21.5644613 C8.05757002,21.5644613 8.45671867,21.9636099 8.45671867,22.4563349" id="Fill-45" fill="#561D5B"></path>
                        <path d="M15.5045907,27.1419426 C15.5045907,27.6272146 15.1104107,28.0213946 14.6251387,28.0213946 C14.1390386,28.0213946 13.7456867,27.6272146 13.7456867,27.1419426 C13.7456867,26.6566706 14.1390386,26.2624906 14.6251387,26.2624906 C15.1104107,26.2624906 15.5045907,26.6566706 15.5045907,27.1419426" id="Fill-46" fill="#561D5B"></path>
                        <polygon id="Fill-47" fill="#561D5B" points="25.8661419 15.6976386 27.9397274 15.6976386 27.9397274 0 25.8661419 0"></polygon>
                        <polygon id="Fill-48" fill="#97AB48" points="29.5421188 15.6976386 31.6157043 15.6976386 31.6157043 7.58879301 29.5421188 7.58879301"></polygon>
                        <polygon id="Fill-49" fill="#0C576F" points="33.2172675 15.6976386 35.2916812 15.6976386 35.2916812 5.03573224 33.2172675 5.03573224"></polygon>
                        <polygon id="Fill-50" fill="#B1CAC9" points="0.0175402925 15.6976386 21.9177171 15.6976386 21.9177171 0.245948442 0.0175402925 0.245948442"></polygon>
                        <path d="M9.10123609,3.53801389 C6.65251709,4.56900988 5.50227336,7.38872182 6.53244125,9.83826893 L10.9677943,7.97253883 L9.10123609,3.53801389 Z" id="Fill-51" fill="#561D5B"></path>
                        <path d="M15.4018224,6.10639467 C14.3716545,3.65684756 11.5511144,2.50743195 9.10156733,3.53759983 L10.9681255,7.97212477 L15.4018224,6.10639467 Z" id="Fill-52" fill="#561D5B"></path>
                        <path d="M6.5328553,9.83818612 C7.56302319,12.2877332 10.3835632,13.4371488 12.8331103,12.406981 L10.9673802,7.97245602 L6.5328553,9.83818612 Z" id="Fill-53" fill="#E4E4DB"></path>
                        <path d="M10.9677943,7.97245602 L12.8335244,12.4061528 C15.2822434,11.375985 16.4324871,8.55544492 15.4014911,6.10672591 L10.9677943,7.97245602 Z" id="Fill-54" fill="#7C7086"></path>
                        <polygon id="Fill-55" fill="#B5B7B7" points="25.8661419 22.9377976 35.2916812 22.9377976 35.2916812 21.5647925 25.8661419 21.5647925"></polygon>
                        <polygon id="Fill-56" fill="#B5B7B7" points="25.8661419 25.4792649 35.2916812 25.4792649 35.2916812 24.1054317 25.8661419 24.1054317"></polygon>
                        <polygon id="Fill-57" fill="#B5B7B7" points="25.8661419 28.0215602 35.2916812 28.0215602 35.2916812 26.6485551 25.8661419 26.6485551"></polygon>
                    </g>
                </g>
            </g>
            <g id="Right" transform="translate(88.000000, 40.000000)">
                <path d="M21.5204379,6.04613034 C25.1635759,11.163973 23.9397828,18.2464 18.7860931,21.8641978 C13.6316793,25.4819955 6.50036897,24.2659955 2.85723103,19.1481528 C-0.786631034,14.0303101 0.438610345,6.94788315 5.5923,3.33008539 C10.7459897,-0.28771236 17.8773,0.92828764 21.5204379,6.04613034 Z" id="Fill-95" fill="#B1CAC9"></path>
                <path d="M32.4235655,40.1855281 C31.2620483,41.0002697 29.6573586,40.725573 28.8369103,39.573573 L20.0683241,27.2553708 C19.2478759,26.1033708 19.5230483,24.5084045 20.6838414,23.6936629 C21.8446345,22.8789213 23.4493241,23.153618 24.2697724,24.305618 L33.0390828,36.6238202 C33.8588069,37.7758202 33.5843586,39.3707865 32.4235655,40.1855281" id="Fill-97" fill="#C52C35"></path>
                <path d="M6.41897586,3.65569438 C1.6527,7.00167191 0.516527586,13.5749753 3.88521724,18.3073798 C7.2539069,23.0397843 13.8732517,24.1680539 18.6395276,20.8227955 C23.4058034,17.476818 24.5419759,10.9035146 21.1732862,6.17111011 C17.8045966,1.43870562 11.1852517,0.309716854 6.41897586,3.65569438 M19.6294241,22.2135371 C14.0912172,26.1009978 6.40014828,24.7907955 2.48401034,19.290391 C-1.43067931,13.7907056 -0.109851724,6.15313258 5.42907931,2.26495281 C10.9672862,-1.62322697 18.6583552,-0.312305618 22.5744931,5.18737978 C26.4891828,10.6877843 25.1683552,18.3253573 19.6294241,22.2135371" id="Fill-99" fill="#2F3238"></path>
                <path d="M22.189469,25.8091146 C21.4160897,26.352036 20.5804345,26.5001708 20.0329862,25.7314517 L18.2045379,23.1628225 C17.6570897,22.3933843 17.8417448,21.3312719 18.6151241,20.7883506 C19.3892276,20.2454292 20.4587793,20.4273618 21.0062276,21.1960809 L22.8346759,23.7647101 C23.3814,24.5334292 22.9628483,25.2661933 22.189469,25.8091146" id="Fill-101" fill="#2F3238"></path>
                <path d="M21.0926172,27.6093124 L29.3687897,39.2350202 C29.6425138,39.6197393 30.1769276,39.7110652 30.5636172,39.4392449 C30.951031,39.1674247 31.0422724,38.6367281 30.7685483,38.252009 L22.8486517,27.1260764 C22.1918586,27.5690427 21.5734448,27.6869753 21.0926172,27.6093124" id="Fill-103" fill="#D94C56"></path>
                <path d="M39.7879759,31.9861213 C40.6685276,31.9861213 41.3803552,32.6031101 41.3803552,33.3646382 L41.3803552,48.0285483 C41.3803552,48.7900764 40.6685276,49.4070652 39.7879759,49.4070652 C38.9095966,49.4070652 38.1970448,48.7900764 38.1970448,48.0285483 L38.1970448,33.3646382 C38.1970448,32.6031101 38.9095966,31.9861213 39.7879759,31.9861213" id="Fill-105" fill="#E7E6E2"></path>
                <path d="M36.2938655,29.6093483 C37.172969,29.6093483 37.8855207,30.3155056 37.8855207,31.1899326 L37.8855207,50.2029663 C37.8855207,51.0766742 37.172969,51.7835506 36.2938655,51.7835506 C35.4140379,51.7835506 34.7014862,51.0766742 34.7014862,50.2029663 L34.7014862,31.1899326 C34.7014862,30.3155056 35.4140379,29.6093483 36.2938655,29.6093483" id="Fill-107" fill="#E7E6E2"></path>
                <path d="M32.7976552,26.9260225 C33.6767586,26.9260225 34.3900345,27.6350562 34.3900345,28.5073258 L34.3900345,51.2956404 C34.3900345,52.1686292 33.6767586,52.8755056 32.7976552,52.8755056 C31.9185517,52.8755056 31.206,52.1686292 31.206,51.2956404 L31.206,28.5073258 C31.206,27.6350562 31.9185517,26.9260225 32.7976552,26.9260225" id="Fill-109" fill="#E7E6E2"></path>
                <path d="M29.3014448,24.5654292 C30.1812724,24.5654292 30.8938241,25.2744629 30.8938241,26.1467326 L30.8938241,41.3514067 C30.8938241,42.2251146 30.1812724,42.9327101 29.3014448,42.9327101 C28.4216172,42.9327101 27.7090655,42.2251146 27.7090655,41.3514067 L27.7090655,26.1467326 C27.7090655,25.2744629 28.4216172,24.5654292 29.3014448,24.5654292" id="Fill-111" fill="#E7E6E2"></path>
                <path d="M39.5779759,52.1778337 L39.5779759,50.2139685 C39.5779759,49.6768 40.5208034,49.2288 40.5208034,49.2288 L38.5591138,33.456036 L29.3017345,33.456036 L27.708631,38.6357213 C27.708631,38.6357213 27.3190448,38.754373 26.9294586,38.1596764 C26.5398724,37.5628225 25.3703897,34.7655191 25.3703897,34.7655191 C25.3703897,34.7655191 23.812769,31.4634067 22.3724586,32.0581034 C20.9350448,32.6528 21.5940103,34.8252045 21.5940103,34.8252045 C21.5940103,34.8252045 22.3275621,38.2510022 22.7338034,39.8848 C23.2464931,41.9507775 24.4420448,44.051991 25.4312172,45.6016539 C26.4196655,47.1477213 28.3082172,49.4071371 28.9679069,49.4071371 L29.1185276,52.1778337 L39.5779759,52.1778337 Z" id="Fill-113" fill="#E7E6E2"></path>
                <polygon id="Fill-115" fill="#561D5B" points="27.3072414 63.6620225 41.4721034 63.6620225 41.4721034 52.1779775 27.3072414 52.1779775"></polygon>
                <polygon id="Fill-117" fill="#7C7086" points="27.3072414 56.4257079 41.4721034 56.4257079 41.4721034 52.1779775 27.3072414 52.1779775"></polygon>
                <path d="M39.9951517,54.3326202 C39.9951517,53.8393169 39.5918069,53.4394966 39.0950483,53.4394966 C38.5990138,53.4394966 38.1971172,53.8393169 38.1971172,54.3326202 C38.1971172,54.8252045 38.5990138,55.2257438 39.0950483,55.2257438 C39.5918069,55.2257438 39.9951517,54.8252045 39.9951517,54.3326202" id="Fill-118" fill="#2F3237"></path>
            </g>
            <g id="Left" transform="translate(36.000000, 58.000000)">
                <path d="M2.42068276,3.83360984 C1.50806207,3.83360984 0.769924138,4.56810164 0.769924138,5.47301967 L0.769924138,29.1147574 C0.769924138,30.0204295 1.50806207,30.7549213 2.42068276,30.7549213 C3.33026897,30.7549213 4.06992414,30.0204295 4.06992414,29.1147574 L4.06992414,5.47301967 C4.06992414,4.56810164 3.33026897,3.83360984 2.42068276,3.83360984" id="Fill-201" fill="#E7E6E2"></path>
                <path d="M6.04195862,1.79814754 C5.13161379,1.79814754 4.39195862,2.53113115 4.39195862,3.43755738 L4.39195862,27.0770328 C4.39195862,27.983459 5.13161379,28.7171967 6.04195862,28.7171967 C6.95382069,28.7171967 7.69271724,27.983459 7.69271724,27.0770328 L7.69271724,3.43755738 C7.69271724,2.53113115 6.95382069,1.79814754 6.04195862,1.79814754" id="Fill-202" fill="#E7E6E2"></path>
                <path d="M9.66573793,0.316042623 C8.75463448,0.316042623 8.01497931,1.05204262 8.01497931,1.95696066 L8.01497931,25.5979443 C8.01497931,26.5036164 8.75463448,27.2373541 9.66573793,27.2373541 C10.5768414,27.2373541 11.3157379,26.5036164 11.3157379,25.5979443 L11.3157379,1.95696066 C11.3157379,1.05204262 10.5768414,0.316042623 9.66573793,0.316042623" id="Fill-203" fill="#E7E6E2"></path>
                <path d="M13.2888345,2.25286885 C12.377731,2.25286885 11.6388345,2.98886885 11.6388345,3.89378689 L11.6388345,20.9726066 C11.6388345,21.8790328 12.377731,22.6127705 13.2888345,22.6127705 C14.2006966,22.6127705 14.9395931,21.8790328 14.9395931,20.9726066 L14.9395931,3.89378689 C14.9395931,2.98886885 14.2006966,2.25286885 13.2888345,2.25286885" id="Fill-204" fill="#E7E6E2"></path>
                <path d="M2.63810345,33.629318 L2.63810345,31.5917443 C2.63810345,31.0344656 1.66175862,30.569941 1.66175862,30.569941 L3.69410345,14.2067607 L13.2891379,14.2067607 L14.9391379,19.5797115 C14.9391379,19.5797115 15.3434828,19.7026295 15.7478276,19.0865311 C16.1514138,18.4674164 17.3636897,15.5648918 17.3636897,15.5648918 C17.3636897,15.5648918 18.9772759,12.139023 20.4702414,12.7558754 C21.9594138,13.3727279 21.2766552,15.6259738 21.2766552,15.6259738 C21.2766552,15.6259738 20.5172759,19.1807934 20.0954828,20.8752525 C19.5644483,23.0191541 18.3256207,25.1992525 17.3007241,26.8069902 C16.2758276,28.4109574 14.3185862,30.7546951 13.635069,30.7546951 L13.4787931,33.629318 L2.63810345,33.629318 Z" id="Fill-205" fill="#E7E6E2"></path>
                <polygon id="Fill-206" fill="#561D5B" points="0.675172414 45.5430164 15.356 45.5430164 15.356 33.6290164 0.675172414 33.6290164"></polygon>
                <polygon id="Fill-207" fill="#7C7086" points="0.675172414 38.0352131 15.356 38.0352131 15.356 33.6290164 0.675172414 33.6290164"></polygon>
                <path d="M2.20584138,35.8647672 C2.20584138,35.3527344 2.62384138,34.9379803 3.13894483,34.9379803 C3.65253103,34.9379803 4.06977241,35.3527344 4.06977241,35.8647672 C4.06977241,36.3760459 3.65253103,36.7915541 3.13894483,36.7915541 C2.62384138,36.7915541 2.20584138,36.3760459 2.20584138,35.8647672" id="Fill-208" fill="#38363A"></path>
            </g>
            <g id="devices/-tablet" transform="translate(144.500000, 33.000000) rotate(-30.000000) translate(-144.500000, -33.000000) translate(127.000000, 9.000000)">
                <path d="M32.3586745,48.1799982 L2.29132414,48.1799982 C1.02587953,48.1799982 0,47.1111506 0,45.792704 L0,2.38729418 C0,1.06951853 1.02587953,1.13686838e-13 2.29132414,1.13686838e-13 L32.3586745,1.13686838e-13 C33.6241192,1.13686838e-13 34.6499987,1.06951853 34.6499987,2.38729418 L34.6499987,45.792704 C34.6499987,47.1111506 33.6241192,48.1799982 32.3586745,48.1799982" id="Fill-13" fill="#ABB2BA"></path>
                <g id="⚙️/-skjerm/-tablet/-tom" transform="translate(2.566667, 2.640000)" fill="#627282">
                    <polygon id="Fill-14-Copy" points="0 36.2999986 30.3599988 36.2999986 30.3599988 0 0 0"></polygon>
                </g>
                <path d="M20.5333326,43.5596626 C20.5333326,45.0174878 19.3837449,46.1999982 17.966337,46.1999982 C16.548929,46.1999982 15.3999994,45.0174878 15.3999994,43.5596626 C15.3999994,42.1018374 16.548929,40.9199984 17.966337,40.9199984 C19.3837449,40.9199984 20.5333326,42.1018374 20.5333326,43.5596626" id="Fill-15" fill="#627282"></path>
            </g>
            <g id="dokumenter/-ark" transform="translate(22.000000, 19.500000) rotate(10.000000) translate(-22.000000, -19.500000) translate(3.000000, -5.000000)">
                <g id="farger/-ark/-lys-grå" stroke-width="1">
                    <mask id="mask-2" fill="white">
                        <use xlink:href="#path-1"></use>
                    </mask>
                    <g id="Mask"></g>
                    <g id="⚙️/farger/-ark/-lys-grå" mask="url(#mask-2)">
                        <g transform="translate(-5.629630, -7.000000)"></g>
                    </g>
                </g>
                <path d="M8.67174074,0 L8.67174074,5.6868 C8.67174074,7.056 7.55637037,8.1655 6.17992593,8.1655 L0,8.1655 L8.67174074,0 Z" id="Fill-59" fill="#C9C9C9"></path>
                <g id="⚙️/-dokumenter/-innhold/-tekst" transform="translate(1.407407, 7.000000)" fill="#8F9395" stroke-width="1">
                    <g id="Group" transform="translate(5.600000, 4.900000)">
                        <polygon id="Fill-60" points="0 6.9566 23.6586 6.9566 23.6586 4.9 0 4.9"></polygon>
                        <polygon id="Fill-61" points="0 11.1573 23.6586 11.1573 23.6586 9.1 0 9.1"></polygon>
                        <polygon id="Fill-62" points="0 16.0566 23.5718 16.0566 23.5718 14 0 14"></polygon>
                        <polygon id="Fill-63" points="0 20.2566 23.5718 20.2566 23.5718 18.2 0 18.2"></polygon>
                        <polygon id="Fill-64" points="0 25.1566 23.5718 25.1566 23.5718 23.1 0 23.1"></polygon>
                        <polygon id="Fill-65" points="0 2.0566 23.6586 2.0566 23.6586 0 0 0"></polygon>
                    </g>
                </g>
            </g>
            <g id="gjenstander/-ovenfra/-blyant" transform="translate(39.709235, 25.989486) rotate(130.000000) translate(-39.709235, -25.989486) translate(19.209235, 23.989486)">
                <path d="M2.98387419,1.57953333 L2.98387419,2.7762 C2.98387419,3.45086667 2.44161613,3.99686667 1.77305161,3.99686667 L1.74263226,3.99686667 C1.07340645,3.99686667 0.531809677,3.45086667 0.531809677,2.7762 L0.531809677,1.57953333 C0.531809677,0.905533333 1.07340645,0.358866667 1.74263226,0.358866667 L1.77305161,0.358866667 C2.44161613,0.358866667 2.98387419,0.905533333 2.98387419,1.57953333" id="Fill-121" fill="#C4252A"></path>
                <polygon id="Fill-122" fill="#E9D8BD" points="36.6967855 3.9972 40.9561565 2.17786667 36.6967855 0.358533333 36.1975113 2.25053333"></polygon>
                <polygon id="Fill-123" fill="#EEC65C" points="2.45206452 3.99733333 36.3332742 3.99733333 36.3332742 2.78466667 2.45206452 2.78466667"></polygon>
                <polygon id="Fill-124" fill="#E3B854" points="2.45206452 2.78466667 36.3332742 2.78466667 36.3332742 1.572 2.45206452 1.572"></polygon>
                <polygon id="Fill-125" fill="#EEC65C" points="2.45206452 1.572 36.3332742 1.572 36.3332742 0.359333333 2.45206452 0.359333333"></polygon>
                <path d="M36.9537629,3.60073333 C36.9537629,3.37206667 36.6661016,3.2194 36.6661016,2.91406667 C36.6661016,2.86473333 36.676021,2.82273333 36.6905694,2.78406667 L36.3334726,2.78406667 L36.3334726,3.9974 L36.6661016,3.9974 C36.6661016,3.9974 36.9537629,3.8294 36.9537629,3.60073333" id="Fill-126" fill="#EEC65C"></path>
                <path d="M36.6903048,2.78433333 C36.7656919,2.58566667 36.9991274,2.501 36.9991274,2.17766667 C36.9991274,1.855 36.7656919,1.77033333 36.6903048,1.57166667 L36.3332081,1.57166667 L36.3332081,2.78433333 L36.6903048,2.78433333 Z" id="Fill-127" fill="#E3B854"></path>
                <path d="M36.6903048,1.57173333 C36.6757565,1.53306667 36.6664984,1.49106667 36.6664984,1.44173333 C36.6664984,1.13706667 36.9534984,0.9844 36.9534984,0.755066667 C36.9534984,0.5264 36.6664984,0.359066667 36.6664984,0.359066667 L36.3332081,0.359066667 L36.3332081,1.57173333 L36.6903048,1.57173333 Z" id="Fill-128" fill="#EEC65C"></path>
                <polygon id="Fill-129" fill="#5D5D5B" points="40.956421 2.17786667 39.4493403 1.53453333 39.4493403 2.82186667"></polygon>
                <polygon id="Fill-130" fill="#5D5D5B" points="1.9613871 3.99733333 2.45206452 3.99733333 2.45206452 0.358666667 1.9613871 0.358666667"></polygon>
            </g>
        </g>
    </g>
</svg>