<svg xmlns="http://www.w3.org/2000/svg" xmlns:xlink="http://www.w3.org/1999/xlink" width="180" height="115" viewBox="0 0 180 115">
    <defs>
        <path id="a" d="M0 8.16v38.364A2.473 2.473 0 0 0 2.47 49h33.062A2.472 2.472 0 0 0 38 46.524V2.476A2.472 2.472 0 0 0 35.532 0H8.594L0 8.16z"/>
    </defs>
    <g fill="none" fill-rule="evenodd">
        <g fill-rule="nonzero">
            <path fill="#E6E6E6" d="M62 101.55c0 1.353 1.07 2.45 2.391 2.45h50.218c1.32 0 2.391-1.097 2.391-2.45V64.8H62v36.75z"/>
            <path fill="#E86C60" d="M114.609 52.667H64.39c-1.32 0-2.391 1.086-2.391 2.426V64.8h55v-9.707c0-1.34-1.07-2.426-2.391-2.426z"/>
            <path fill="#444" d="M73.186 58.92v-9.707c0-.67.522-1.213 1.166-1.213h2.33c.644 0 1.165.543 1.165 1.213v9.707c0 .67-.521 1.213-1.165 1.213h-2.33c-.644 0-1.166-.543-1.166-1.213zM101.153 58.92v-9.707c0-.67.521-1.213 1.165-1.213h2.33c.644 0 1.166.543 1.166 1.213v9.707c0 .67-.522 1.213-1.166 1.213h-2.33c-.644 0-1.165-.543-1.165-1.213z"/>
            <path fill="#B3B3B3" d="M89.034 93.733h-13v-2.841c3.454-3.628 6.404-6.658 7.378-7.963 1.652-2.215 1.357-4.1.578-4.818-1.538-1.416-4.104-.104-5.87 1.415l-2.137-2.63c1.677-1.485 3.334-2.763 6.64-2.763 3.442 0 5.89 2.063 5.89 5.234 0 1.916-.695 3.403-1.851 4.903-.988 1.281-5.73 6.027-5.73 6.027h8.102v3.436zM89.966 85.352c0-3.783.774-6.599 2.32-8.447 1.548-1.848 3.864-2.772 6.95-2.772 1.054 0 1.88.066 2.478.196v3.23a9.81 9.81 0 0 0-2.225-.261c-2.143 0-4.18.528-5.185 2.484-.422.82-.67 1.983-.746 3.491.001 0 1.303-2.223 4.173-2.223 3.49 0 5.286 2.475 5.286 6.054 0 4.018-2.277 6.63-6.298 6.63-4.497 0-6.753-3.511-6.753-8.382zm6.677 5.152c1.836 0 2.593-1.425 2.593-3.348 0-1.794-.774-3.007-2.517-3.007-1.664 0-2.87 1.3-2.87 2.654 0 1.867 1.015 3.7 2.794 3.7z"/>
        </g>
        <path fill="#B1CAC9" d="M116.52 57.446c3.644 5.118 2.42 12.2-2.734 15.818-5.154 3.618-12.286 2.402-15.929-2.716-3.644-5.118-2.418-12.2 2.735-15.818 5.154-3.618 12.285-2.402 15.928 2.716z"/>
        <path fill="#C52C35" d="M127.424 91.586a2.585 2.585 0 0 1-3.587-.612l-8.769-12.319a2.544 2.544 0 0 1 .616-3.561 2.584 2.584 0 0 1 3.586.612l8.77 12.318a2.544 2.544 0 0 1-.616 3.562"/>
        <path fill="#2F3238" d="M101.419 55.056c-4.766 3.346-5.902 9.919-2.534 14.651 3.369 4.733 9.988 5.861 14.755 2.516 4.766-3.346 5.902-9.92 2.533-14.652-3.368-4.732-9.988-5.861-14.754-2.515m13.21 18.558C109.091 77.5 101.4 76.19 97.484 70.69c-3.915-5.5-2.594-13.137 2.945-17.025 5.538-3.888 13.23-2.577 17.145 2.922 3.915 5.5 2.594 13.138-2.945 17.027"/>
        <path fill="#2F3238" d="M117.19 77.21c-.774.542-1.61.69-2.157-.079l-1.828-2.568a1.696 1.696 0 0 1 .41-2.375 1.723 1.723 0 0 1 2.391.408l1.829 2.569c.546.768.128 1.501-.646 2.044"/>
        <path fill="#D94C56" d="M116.093 79.01l8.276 11.625a.86.86 0 0 0 1.195.204.847.847 0 0 0 .205-1.187l-7.92-11.126c-.657.443-1.276.561-1.756.483"/>
        <path fill="#E7E6E2" d="M134.788 83.386c.88 0 1.592.617 1.592 1.379v14.664c0 .761-.711 1.378-1.592 1.378-.878 0-1.591-.617-1.591-1.378V84.765c0-.762.713-1.379 1.591-1.379M131.294 81.01c.879 0 1.592.706 1.592 1.58v19.013c0 .874-.713 1.58-1.592 1.58-.88 0-1.593-.706-1.593-1.58V82.59c0-.874.713-1.58 1.593-1.58M127.798 78.326c.879 0 1.592.71 1.592 1.581v22.789c0 .873-.713 1.58-1.592 1.58-.88 0-1.592-.707-1.592-1.58V79.907c0-.872.713-1.581 1.592-1.581M124.301 75.965c.88 0 1.593.71 1.593 1.582V92.75c0 .874-.713 1.582-1.593 1.582s-1.592-.708-1.592-1.582V77.547c0-.873.713-1.582 1.592-1.582"/>
        <path fill="#E7E6E2" d="M134.578 103.578v-1.964c0-.537.943-.985.943-.985l-1.962-15.773h-9.257l-1.593 5.18s-.39.118-.78-.476c-.39-.597-1.559-3.394-1.559-3.394s-1.557-3.303-2.998-2.708c-1.437.595-.778 2.767-.778 2.767s.734 3.426 1.14 5.06c.512 2.066 1.708 4.167 2.697 5.717.989 1.546 2.877 3.805 3.537 3.805l.15 2.77h10.46z"/>
        <path fill="#561D5B" d="M122.307 115.062h14.165v-11.484h-14.165z"/>
        <path fill="#7C7086" d="M122.307 107.826h14.165v-4.248h-14.165z"/>
        <path fill="#2F3237" d="M134.995 105.733a.897.897 0 0 0-.9-.894c-.496 0-.898.4-.898.894 0 .492.402.893.898.893.497 0 .9-.4.9-.893"/>
        <g>
            <path fill="#E7E6E2" d="M45.42 73.234c-.912 0-1.65.734-1.65 1.639v23.642c0 .905.738 1.64 1.65 1.64.91 0 1.65-.735 1.65-1.64V74.873c0-.905-.74-1.64-1.65-1.64M49.042 71.198c-.91 0-1.65.733-1.65 1.64v23.639c0 .906.74 1.64 1.65 1.64.912 0 1.65-.734 1.65-1.64v-23.64c0-.906-.738-1.639-1.65-1.639M52.666 69.716c-.911 0-1.651.736-1.651 1.641v23.64c0 .907.74 1.64 1.65 1.64.912 0 1.65-.733 1.65-1.64v-23.64c0-.905-.738-1.641-1.65-1.641M56.289 71.653c-.911 0-1.65.736-1.65 1.64v17.08c0 .906.739 1.64 1.65 1.64.912 0 1.65-.734 1.65-1.64v-17.08c0-.904-.738-1.64-1.65-1.64"/>
            <path fill="#E7E6E2" d="M45.638 103.03v-2.038c0-.558-.976-1.022-.976-1.022l2.032-16.363h9.595l1.65 5.373s.404.123.809-.493c.403-.62 1.616-3.522 1.616-3.522s1.613-3.426 3.106-2.81c1.49.618.807 2.871.807 2.871s-.76 3.555-1.182 5.25c-.53 2.143-1.77 4.323-2.794 5.931-1.025 1.604-2.982 3.948-3.666 3.948l-.156 2.874h-10.84z"/>
            <path fill="#561D5B" d="M43.675 114.943h14.681v-11.914h-14.68z"/>
            <path fill="#7C7086" d="M43.675 107.435h14.681v-4.406h-14.68z"/>
            <path fill="#38363A" d="M45.206 105.265a.93.93 0 0 1 .933-.927c.514 0 .93.415.93.927a.93.93 0 0 1-.93.927.93.93 0 0 1-.933-.927"/>
        </g>
        <g>
            <path fill="#ABB2BA" d="M147.349 75.377c-1.107.64-2.537.235-3.194-.902l-21.621-37.45c-.657-1.137-.292-2.578.815-3.217l26.302-15.185c1.107-.64 2.537-.235 3.194.902l21.621 37.45c.657 1.137.292 2.578-.815 3.217L147.35 75.377z"/>
            <path fill="#627282" d="M142.987 67.266l25.82-14.907-18.082-31.32-25.82 14.908zM161.005 62.178c.726 1.258.31 2.859-.93 3.574-1.24.716-2.834.276-3.56-.982-.727-1.257-.31-2.857.93-3.573 1.24-.716 2.834-.277 3.56.98"/>
        </g>
        <g transform="rotate(10 -56.01 88.65)">
            <use fill="#E4E4DB" xlink:href="#a"/>
            <path fill="#C9C9C9" d="M8.672 0v5.687A2.485 2.485 0 0 1 6.18 8.165H0L8.672 0z"/>
            <path fill="#8F9395" d="M7.037 18.857V16.8h23.784v2.057H7.037zm0 4.2V21h23.784v2.057H7.037zm0 4.9V25.9h23.697v2.057H7.037zm0 4.2V30.1h23.697v2.057H7.037zm0 4.9V35h23.697v2.057H7.037zm0-23.1V11.9h23.784v2.057H7.037z"/>
        </g>
        <g>
            <path fill="#C4252A" d="M57.081 31.852l-.916-.77a1.216 1.216 0 0 1-.157-1.711l.02-.024a1.215 1.215 0 0 1 1.713-.142l.916.769c.517.433.587 1.2.157 1.712l-.02.023a1.216 1.216 0 0 1-1.713.143"/>
            <path fill="#E9D8BD" d="M33.559 56.124l-1.344 4.432 4.131-2.093-1.128-1.599z"/>
            <path fill="#EEC65C" d="M55.57 29.89L33.794 55.846l.928.78L56.5 30.67z"/>
            <path fill="#E3B854" d="M56.5 30.67L34.72 56.625l.93.78L57.428 31.45z"/>
            <path fill="#EEC65C" d="M57.429 31.45L35.65 57.404l.93.78 21.778-25.955zM33.697 56.575c.176.147.478.025.711.221a.36.36 0 0 1 .084.103l.23-.274-.93-.78-.213.255s-.057.328.118.475"/>
            <path fill="#E3B854" d="M34.492 56.898c.104.186.019.419.266.627.248.207.463.083.663.153l.23-.274-.93-.78-.229.274z"/>
            <path fill="#EEC65C" d="M35.421 57.678a.361.361 0 0 1 .115.065c.233.196.166.514.342.661.175.147.487.035.487.035l.215-.255-.93-.78-.229.274z"/>
            <path fill="#5D5D5B" d="M32.215 60.556l1.461-.74-.986-.828zM55.886 29.515l-.315.376 2.787 2.339.316-.376z"/>
        </g>
    </g>
</svg>
