<?xml version="1.0" encoding="UTF-8"?>
<svg width="162px" height="103px" viewBox="0 0 162 103" version="1.1" xmlns="http://www.w3.org/2000/svg" xmlns:xlink="http://www.w3.org/1999/xlink">
    <!-- Generator: Sketch 51.3 (57544) - http://www.bohemiancoding.com/sketch -->
    <title>2</title>
    <desc>Created with Sketch.</desc>
    <defs>
        <path d="M-1.13686838e-13,8.15955518 L-1.13686838e-13,46.5238041 C-1.13686838e-13,47.8913078 1.10532014,49 2.46936191,49 L35.5320328,49 C36.8946799,49 38,47.8913078 38,46.5238041 L38,2.47619591 C38,1.10869224 36.8946799,0 35.5320328,0 L8.59360261,0 L-1.13686838e-13,8.15955518 Z" id="path-1"></path>
    </defs>
    <g id="Page-1" stroke="none" stroke-width="1" fill="none" fill-rule="evenodd">
        <g id="2" transform="translate(0.000000, -1.000000)">
            <g id="Group" transform="translate(48.000000, 36.000000)" fill-rule="nonzero">
                <path d="M1,53.55 C1,54.903 2.07,56 3.391,56 L53.609,56 C54.929,56 56,54.903 56,53.55 L56,16.8 L1,16.8 L1,53.55 Z" id="Shape" fill="#E6E6E6"></path>
                <path d="M53.609,4.667 L3.39,4.667 C2.07,4.667 0.999,5.753 0.999,7.093 L0.999,16.8 L55.999,16.8 L55.999,7.093 C55.999,5.753 54.929,4.667 53.608,4.667 L53.609,4.667 Z" id="Shape" fill="#E86C60"></path>
                <path d="M12.186,10.92 L12.186,1.213 C12.186,0.543 12.708,0 13.352,0 L15.682,0 C16.326,0 16.847,0.543 16.847,1.213 L16.847,10.92 C16.847,11.59 16.326,12.133 15.682,12.133 L13.352,12.133 C12.708,12.133 12.186,11.59 12.186,10.92 Z M40.153,10.92 L40.153,1.213 C40.153,0.543 40.674,0 41.318,0 L43.648,0 C44.292,0 44.814,0.543 44.814,1.213 L44.814,10.92 C44.814,11.59 44.292,12.133 43.648,12.133 L41.318,12.133 C40.674,12.133 40.153,11.59 40.153,10.92 Z" id="Shape" fill="#444444"></path>
                <path d="M28.034,45.733 L15.034,45.733 L15.034,42.892 C18.488,39.264 21.438,36.234 22.412,34.929 C24.064,32.714 23.769,30.829 22.99,30.111 C21.452,28.695 18.886,30.007 17.12,31.526 L14.983,28.896 C16.66,27.411 18.317,26.133 21.623,26.133 C25.065,26.133 27.513,28.196 27.513,31.367 C27.513,33.283 26.818,34.77 25.662,36.27 C24.674,37.551 19.932,42.297 19.932,42.297 L28.034,42.297 L28.034,45.733 Z M28.966,37.352 C28.966,33.569 29.74,30.753 31.286,28.905 C32.834,27.057 35.15,26.133 38.236,26.133 C39.29,26.133 40.116,26.199 40.714,26.329 L40.714,29.559 C39.9847331,29.3873224 39.2381998,29.2997516 38.489,29.298 C36.346,29.298 34.309,29.826 33.304,31.782 C32.882,32.602 32.634,33.765 32.558,35.273 C32.559,35.273 33.861,33.05 36.731,33.05 C40.221,33.05 42.017,35.525 42.017,39.104 C42.017,43.122 39.74,45.734 35.719,45.734 C31.222,45.734 28.966,42.223 28.966,37.352 Z M35.643,42.504 C37.479,42.504 38.236,41.079 38.236,39.156 C38.236,37.362 37.462,36.149 35.719,36.149 C34.055,36.149 32.849,37.449 32.849,38.803 C32.849,40.67 33.864,42.503 35.643,42.503 L35.643,42.504 Z" id="Shape" fill="#B3B3B3"></path>
            </g>
            <path d="M103.52,45.446 C107.164,50.564 105.94,57.646 100.786,61.264 C95.632,64.882 88.5,63.666 84.857,58.548 C81.213,53.43 82.439,46.348 87.592,42.73 C92.746,39.112 99.877,40.328 103.52,45.446 Z" id="Shape" fill="#B1CAC9" fill-rule="nonzero"></path>
            <path d="M114.424,79.586 C113.262914,80.4006109 111.662292,80.1275189 110.837,78.974 L102.068,66.655 C101.674441,66.1020921 101.51812,65.4148512 101.633802,64.7461109 C101.749485,64.0773706 102.127578,63.4825753 102.684,63.094 C103.844771,62.2794915 105.445079,62.552606 106.27,63.706 L115.04,76.024 C115.433878,76.5769786 115.590385,77.264454 115.474694,77.9334389 C115.359002,78.6024238 114.980709,79.1974127 114.424,79.586" id="Shape" fill="#C52C35" fill-rule="nonzero"></path>
            <path d="M88.419,43.056 C83.653,46.402 82.517,52.975 85.885,57.707 C89.254,62.44 95.873,63.568 100.64,60.223 C105.406,56.877 106.542,50.303 103.173,45.571 C99.805,40.839 93.185,39.71 88.419,43.056 M101.629,61.614 C96.091,65.5 88.4,64.19 84.484,58.69 C80.569,53.19 81.89,45.553 87.429,41.665 C92.967,37.777 100.659,39.088 104.574,44.587 C108.489,50.087 107.168,57.725 101.629,61.614" id="Shape" fill="#2F3238" fill-rule="nonzero"></path>
            <path d="M104.19,65.21 C103.416,65.752 102.58,65.9 102.033,65.131 L100.205,62.563 C99.9422414,62.1944059 99.8377338,61.7360672 99.9147387,61.2900023 C99.9917436,60.8439373 100.24387,60.447165 100.615,60.188 C101.388952,59.6449602 102.455929,59.827029 103.006,60.596 L104.835,63.165 C105.381,63.933 104.963,64.666 104.189,65.209" id="Shape" fill="#2F3238" fill-rule="nonzero"></path>
            <path d="M103.093,67.01 L111.369,78.635 C111.643537,79.0199226 112.177311,79.1110439 112.564,78.839 C112.749644,78.709597 112.875786,78.511288 112.914298,78.2882958 C112.95281,78.0653036 112.900488,77.8361729 112.769,77.652 L104.849,66.526 C104.192,66.969 103.573,67.087 103.093,67.009" id="Shape" fill="#D94C56" fill-rule="nonzero"></path>
            <path d="M121.788,71.386 C122.668,71.386 123.38,72.003 123.38,72.765 L123.38,87.429 C123.38,88.19 122.669,88.807 121.788,88.807 C120.91,88.807 120.197,88.19 120.197,87.429 L120.197,72.765 C120.197,72.003 120.91,71.386 121.788,71.386 M118.294,69.01 C119.173,69.01 119.886,69.716 119.886,70.59 L119.886,89.603 C119.886,90.477 119.173,91.183 118.294,91.183 C117.414,91.183 116.701,90.477 116.701,89.603 L116.701,70.59 C116.701,69.716 117.414,69.01 118.294,69.01 M114.798,66.326 C115.677,66.326 116.39,67.036 116.39,67.907 L116.39,90.696 C116.39,91.569 115.677,92.276 114.798,92.276 C113.918,92.276 113.206,91.569 113.206,90.696 L113.206,67.907 C113.206,67.035 113.919,66.326 114.798,66.326 M111.301,63.965 C112.181,63.965 112.894,64.675 112.894,65.547 L112.894,80.75 C112.894,81.624 112.181,82.332 111.301,82.332 C110.421,82.332 109.709,81.624 109.709,80.75 L109.709,65.547 C109.709,64.674 110.422,63.965 111.301,63.965" id="Shape" fill="#E7E6E2" fill-rule="nonzero"></path>
            <path d="M121.578,91.578 L121.578,89.614 C121.578,89.077 122.521,88.629 122.521,88.629 L120.559,72.856 L111.302,72.856 L109.709,78.036 C109.709,78.036 109.319,78.154 108.929,77.56 C108.539,76.963 107.37,74.166 107.37,74.166 C107.37,74.166 105.813,70.863 104.372,71.458 C102.935,72.053 103.594,74.225 103.594,74.225 C103.594,74.225 104.328,77.651 104.734,79.285 C105.246,81.351 106.442,83.452 107.431,85.002 C108.42,86.548 110.308,88.807 110.968,88.807 L111.118,91.577 L121.578,91.577 L121.578,91.578 Z" id="Shape" fill="#E7E6E2" fill-rule="nonzero"></path>
            <polygon id="Shape" fill="#561D5B" fill-rule="nonzero" points="109.307 103.062 123.472 103.062 123.472 91.578 109.307 91.578"></polygon>
            <polygon id="Shape" fill="#7C7086" fill-rule="nonzero" points="109.307 95.826 123.472 95.826 123.472 91.578 109.307 91.578"></polygon>
            <path d="M121.995,93.733 C121.994206,93.4951004 121.898938,93.2672602 121.730155,93.0996024 C121.561372,92.9319446 121.3329,92.838203 121.095,92.839 C120.599,92.839 120.197,93.239 120.197,93.733 C120.197,94.225 120.599,94.626 121.095,94.626 C121.592,94.626 121.995,94.226 121.995,93.733" id="Shape" fill="#2F3237" fill-rule="nonzero"></path>
            <g id="dokumenter/-ark" transform="translate(22.965728, 27.427105) rotate(10.000000) translate(-22.965728, -27.427105) translate(3.965728, 2.927105)">
                <g id="farger/-ark/-lys-grå">
                    <g id="Clipped">
                        <mask id="mask-2" fill="white">
                            <use xlink:href="#path-1"></use>
                        </mask>
                        <use id="path-1" fill="#E4E4DB" xlink:href="#path-1"></use>
                    </g>
                </g>
                <path d="M8.67174074,0 L8.67174074,5.6868 C8.67174074,7.056 7.55637037,8.1655 6.17992593,8.1655 L4.54747351e-13,8.1655 L8.67174074,0 Z" id="Fill-59" fill="#C9C9C9" fill-rule="nonzero"></path>
                <g id="⚙️/-dokumenter/-innhold/-oppgaver" transform="translate(8.407407, 17.000000)" fill="#A59D96" fill-rule="nonzero">
                    <g id="Group" transform="translate(0.000000, 0.100000)">
                        <polygon id="Fill-118" points="5.11658 2.9074 21.26698 2.9074 21.26698 1.1028 5.11658 1.1028"></polygon>
                        <polygon id="Fill-119" points="5.11658 6.9891 21.26698 6.9891 21.26698 5.1852 5.11658 5.1852"></polygon>
                        <polygon id="Fill-120" points="5.11658 11.0708 21.26698 11.0708 21.26698 9.2676 5.11658 9.2676"></polygon>
                        <polygon id="Fill-121" points="5.11658 15.1539 21.26698 15.1539 21.26698 13.35 5.11658 13.35"></polygon>
                        <path d="M3.3075,0.40322 L2.6075,0.40322 L0.7,0.40322 L0,0.40322 L0,1.10322 L0,2.90782 L0,3.60782 L0.7,3.60782 L2.6075,3.60782 L3.3075,3.60782 L3.3075,2.90782 L3.3075,1.10322 L3.3075,0.40322 Z M0.7,2.90782 L2.6075,2.90782 L2.6075,1.10322 L0.7,1.10322 L0.7,2.90782 Z" id="Fill-122"></path>
                        <path d="M3.3075,4.48527 L2.6075,4.48527 L0.7,4.48527 L0,4.48527 L0,5.18527 L0,6.98917 L0,7.68917 L0.7,7.68917 L2.6075,7.68917 L3.3075,7.68917 L3.3075,6.98917 L3.3075,5.18527 L3.3075,4.48527 Z M0.7,6.98917 L2.6075,6.98917 L2.6075,5.18527 L0.7,5.18527 L0.7,6.98917 Z" id="Fill-123"></path>
                        <path d="M3.3075,8.56739 L2.6075,8.56739 L0.7,8.56739 L0,8.56739 L0,9.26739 L0,11.07059 L0,11.77059 L0.7,11.77059 L2.6075,11.77059 L3.3075,11.77059 L3.3075,11.07059 L3.3075,9.26739 L3.3075,8.56739 Z M0.7,11.07059 L2.6075,11.07059 L2.6075,9.26739 L0.7,9.26739 L0.7,11.07059 Z" id="Fill-124"></path>
                        <path d="M3.3075,12.65014 L2.6075,12.65014 L0.7,12.65014 L0,12.65014 L0,13.35014 L0,15.15404 L0,15.85404 L0.7,15.85404 L2.6075,15.85404 L3.3075,15.85404 L3.3075,15.15404 L3.3075,13.35014 L3.3075,12.65014 Z M0.7,15.15404 L2.6075,15.15404 L2.6075,13.35014 L0.7,13.35014 L0.7,15.15404 Z" id="Fill-125"></path>
                    </g>
                </g>
            </g>
            <g id="Group" transform="translate(30.000000, 57.000000)" fill-rule="nonzero">
                <path d="M2.42,4.234 C1.508,4.234 0.77,4.968 0.77,5.873 L0.77,29.515 C0.77,30.42 1.508,31.155 2.42,31.155 C3.33,31.155 4.07,30.42 4.07,29.515 L4.07,5.873 C4.07,4.968 3.33,4.233 2.42,4.233 M6.042,2.198 C5.132,2.198 4.392,2.931 4.392,3.838 L4.392,27.477 C4.392,28.383 5.132,29.117 6.042,29.117 C6.954,29.117 7.692,28.383 7.692,27.477 L7.692,3.837 C7.692,2.931 6.954,2.198 6.042,2.198 M9.666,0.716 C8.755,0.716 8.015,1.452 8.015,2.357 L8.015,25.997 C8.015,26.904 8.755,27.637 9.665,27.637 C10.577,27.637 11.315,26.904 11.315,25.997 L11.315,2.357 C11.315,1.452 10.577,0.716 9.665,0.716 M13.289,2.653 C12.378,2.653 11.639,3.389 11.639,4.293 L11.639,21.373 C11.639,22.279 12.378,23.013 13.289,23.013 C14.201,23.013 14.939,22.279 14.939,21.373 L14.939,4.293 C14.939,3.389 14.201,2.653 13.289,2.653" id="Shape" fill="#E7E6E2"></path>
                <path d="M2.638,34.03 L2.638,31.992 C2.638,31.434 1.662,30.97 1.662,30.97 L3.694,14.607 L13.289,14.607 L14.939,19.98 C14.939,19.98 15.343,20.103 15.748,19.487 C16.151,18.867 17.364,15.965 17.364,15.965 C17.364,15.965 18.977,12.539 20.47,13.155 C21.96,13.773 21.277,16.026 21.277,16.026 C21.277,16.026 20.517,19.581 20.095,21.276 C19.565,23.419 18.325,25.599 17.301,27.207 C16.276,28.811 14.319,31.155 13.635,31.155 L13.479,34.029 L2.639,34.029 L2.638,34.03 Z" id="Shape" fill="#E7E6E2"></path>
                <polygon id="Shape" fill="#561D5B" points="0.675 45.943 15.356 45.943 15.356 34.029 0.676 34.029"></polygon>
                <polygon id="Shape" fill="#7C7086" points="0.675 38.435 15.356 38.435 15.356 34.029 0.676 34.029"></polygon>
                <path d="M2.206,36.265 C2.20679437,36.0183483 2.30553888,35.7821145 2.4805106,35.608268 C2.65548232,35.4344215 2.89234828,35.3372031 3.139,35.338 C3.653,35.338 4.069,35.753 4.069,36.265 C4.06734692,36.7774529 3.65145552,37.1920027 3.139,37.192 C2.89234828,37.1927969 2.65548232,37.0955785 2.4805106,36.921732 C2.30553888,36.7478855 2.20679437,36.5116517 2.206,36.265" id="Shape" fill="#38363A"></path>
            </g>
            <g id="Group" transform="translate(109.000000, 6.000000)" fill-rule="nonzero">
                <path d="M51.458,42.511 L25.418,57.545 C24.323,58.178 22.9,57.765 22.241,56.623 L0.538,19.033 C-0.121,17.892 0.233,16.453 1.328,15.82 L27.368,0.786 C28.464,0.153 29.888,0.566 30.546,1.708 L52.249,39.298 C52.908,40.44 52.554,41.878 51.458,42.511" id="Shape" fill="#ABB2BA"></path>
                <path d="M21.037,49.405 L47.33,34.225 L29.18,2.788 L2.887,17.968 L21.037,49.405 Z M38.907,44.422 C39.636,45.685 39.231,47.284 38.004,47.992 C36.776,48.702 35.19,48.252 34.461,46.989 C33.732,45.727 34.136,44.129 35.364,43.42 C36.591,42.711 38.178,43.16 38.907,44.422 Z" id="Shape" fill="#627282"></path>
            </g>
            <g id="Group" transform="translate(19.000000, 16.000000)" fill-rule="nonzero">
                <path d="M25.081,3.852 L24.165,3.082 C23.6497248,2.65258103 23.5794776,1.88702109 24.008,1.371 L24.028,1.347 C24.2362633,1.10091161 24.5337916,0.947682129 24.8550762,0.921049083 C25.1763607,0.894416037 25.4950586,0.996563141 25.741,1.205 L26.657,1.974 C27.174,2.407 27.244,3.174 26.814,3.686 L26.794,3.709 C26.3603161,4.22124794 25.5936135,4.28525172 25.081,3.852" id="Shape" fill="#C4252A"></path>
                <polygon id="Shape" fill="#E9D8BD" points="1.559 28.124 0.215 32.556 4.346 30.463 3.218 28.864"></polygon>
                <polygon id="Shape" fill="#EEC65C" points="23.57 1.89 1.794 27.846 2.722 28.626 24.5 2.67"></polygon>
                <polygon id="Shape" fill="#E3B854" points="24.5 2.67 2.72 28.625 3.65 29.405 25.428 3.45"></polygon>
                <path d="M25.429,3.45 L3.65,29.404 L4.58,30.184 L26.358,4.229 L25.429,3.45 Z M1.697,28.575 C1.873,28.722 2.175,28.6 2.408,28.796 C2.44215007,28.8248222 2.47063544,28.8597507 2.492,28.899 L2.722,28.625 L1.792,27.845 L1.579,28.1 C1.579,28.1 1.522,28.428 1.697,28.575 Z" id="Shape" fill="#EEC65C"></path>
                <path d="M2.492,28.898 C2.596,29.084 2.511,29.317 2.758,29.525 C3.006,29.732 3.221,29.608 3.421,29.678 L3.651,29.404 L2.721,28.624 L2.492,28.898 Z" id="Shape" fill="#E3B854"></path>
                <path d="M3.421,29.678 C3.46300496,29.692409 3.50199087,29.7144445 3.536,29.743 C3.769,29.939 3.702,30.257 3.878,30.404 C4.053,30.551 4.365,30.439 4.365,30.439 L4.58,30.184 L3.65,29.404 L3.421,29.678 Z" id="Shape" fill="#EEC65C"></path>
                <path d="M0.215,32.556 L1.676,31.816 L0.69,30.988 L0.215,32.556 Z M23.886,1.515 L23.571,1.891 L26.358,4.23 L26.674,3.854 L23.886,1.515 Z" id="Shape" fill="#5D5D5B"></path>
            </g>
        </g>
    </g>
</svg>